<svg xmlns="http://www.w3.org/2000/svg" viewBox="0 0 900 600">
  <!-- Deep space background with dimensional grid -->
  <rect width="900" height="600" fill="#0A0621" />
  
  <!-- Dimensional grid with perspective effect -->
  <g opacity="0.12">
    <!-- Horizontal grid lines with quantum distortion -->
    <path d="M150,550 Q450,530 750,550" stroke="#5AC8FA" stroke-width="1" />
    <path d="M125,500 Q450,490 775,500" stroke="#5AC8FA" stroke-width="1" />
    <path d="M100,450 Q450,440 800,450" stroke="#5AC8FA" stroke-width="1" />
    <path d="M75,400 Q450,390 825,400" stroke="#5AC8FA" stroke-width="1" />
    <path d="M65,350 Q450,340 835,350" stroke="#5AC8FA" stroke-width="1" />
    <path d="M55,300 Q450,290 845,300" stroke="#5AC8FA" stroke-width="1" />
    <path d="M45,250 Q450,240 855,250" stroke="#5AC8FA" stroke-width="1" />
    <path d="M35,200 Q450,190 865,200" stroke="#5AC8FA" stroke-width="1" />
    <path d="M25,150 Q450,140 875,150" stroke="#5AC8FA" stroke-width="1" />
    
    <!-- Vertical grid lines with subtle distortion -->
    <path d="M150,100 Q160,300 150,550" stroke="#5AC8FA" stroke-width="1" />
    <path d="M225,100 Q235,300 225,550" stroke="#5AC8FA" stroke-width="1" />
    <path d="M300,100 Q310,300 300,550" stroke="#5AC8FA" stroke-width="1" />
    <path d="M375,100 Q385,300 375,550" stroke="#5AC8FA" stroke-width="1" />
    <path d="M450,100 Q460,300 450,550" stroke="#5AC8FA" stroke-width="1" />
    <path d="M525,100 Q535,300 525,550" stroke="#5AC8FA" stroke-width="1" />
    <path d="M600,100 Q610,300 600,550" stroke="#5AC8FA" stroke-width="1" />
    <path d="M675,100 Q685,300 675,550" stroke="#5AC8FA" stroke-width="1" />
    <path d="M750,100 Q760,300 750,550" stroke="#5AC8FA" stroke-width="1" />
  </g>
  
  <!-- Title with quantum pixel effect -->
  <text x="450" y="60" font-family="'SF Pro Display', sans-serif" font-size="32" font-weight="bold" fill="#FFFFFF" text-anchor="middle">M4-Optimized vs. Standard Game Development Tools</text>
  
  <!-- Quantum pixels around title -->
  <rect x="180" y="40" width="10" height="10" fill="#5AC8FA" opacity="0.7" />
  <rect x="710" y="40" width="10" height="10" fill="#6A3093" opacity="0.7" />
  <rect x="725" y="55" width="8" height="8" fill="#BF4080" opacity="0.5" />
  <rect x="165" y="55" width="8" height="8" fill="#BF4080" opacity="0.5" />
  
  <!-- 3D Tool comparison display in AR-like interface -->
  <g transform="translate(450, 180)">
    <!-- AR Interface header -->
    <rect x="-350" y="-50" width="700" height="40" rx="20" fill="#131A36" stroke="#5AC8FA" stroke-width="2" />
    <text x="0" y="-22" font-family="'SF Pro Display', sans-serif" font-size="20" font-weight="bold" fill="#FFFFFF" text-anchor="middle">Game Development Tools Comparison</text>
    
    <!-- Quantum pixel decorations in header -->
    <rect x="-330" y="-40" width="8" height="8" fill="#5AC8FA" opacity="0.8" />
    <rect x="-322" y="-40" width="8" height="8" fill="#BF4080" opacity="0.6" />
    <rect x="322" y="-40" width="8" height="8" fill="#5AC8FA" opacity="0.8" />
    <rect x="330" y="-40" width="8" height="8" fill="#BF4080" opacity="0.6" />
    
    <!-- Tool comparison area -->
    <rect x="-350" y="0" width="700" height="300" rx="10" fill="#0D0D15" opacity="0.8" stroke="#331F4A" stroke-width="1" />
  </g>
  
  <!-- Tool Comparisons -->
  <!-- PlayCanvas + WebGPU -->
  <g transform="translate(225, 190)">
    <!-- Tool panel with layered depth effect -->
    <rect x="-125" y="0" width="250" height="280" rx="10" fill="#131A36" stroke="#5AC8FA" stroke-width="2" />
    <rect x="-120" y="5" width="240" height="270" rx="8" fill="#0D0D15" stroke="#5AC8FA" stroke-width="1" opacity="0.8" />
    
    <!-- Tool name -->
    <text x="0" y="30" font-family="'SF Pro Display', sans-serif" font-size="18" font-weight="bold" fill="#FFFFFF" text-anchor="middle">PlayCanvas + WebGPU</text>
    
    <!-- M4 optimization indicator -->
    <rect x="70" y="15" width="40" height="20" rx="10" fill="#5AC8FA" opacity="0.8" />
    <text x="90" y="30" font-family="'SF Pro Text', sans-serif" font-size="12" fill="#FFFFFF" text-anchor="middle">M4</text>
    
    <!-- Tool features with quantum pixel bullets -->
    <g transform="translate(-110, 60)">
      <rect x="0" y="-7" width="8" height="8" fill="#5AC8FA" opacity="0.8" />
      <rect x="8" y="-7" width="8" height="8" fill="#BF4080" opacity="0.6" />
      <text x="25" y="0" font-family="'SF Pro Text', sans-serif" font-size="14" fill="#FFFFFF">Metal-accelerated WebGPU</text>
    </g>
    
    <g transform="translate(-110, 90)">
      <rect x="0" y="-7" width="8" height="8" fill="#5AC8FA" opacity="0.8" />
      <rect x="8" y="-7" width="8" height="8" fill="#BF4080" opacity="0.6" />
      <text x="25" y="0" font-family="'SF Pro Text', sans-serif" font-size="14" fill="#FFFFFF">60-90 FPS Performance</text>
    </g>
    
    <g transform="translate(-110, 120)">
      <rect x="0" y="-7" width="8" height="8" fill="#5AC8FA" opacity="0.8" />
      <rect x="8" y="-7" width="8" height="8" fill="#BF4080" opacity="0.6" />
      <text x="25" y="0" font-family="'SF Pro Text', sans-serif" font-size="14" fill="#FFFFFF">In-Browser Development</text>
    </g>
    
    <g transform="translate(-110, 150)">
      <rect x="0" y="-7" width="8" height="8" fill="#5AC8FA" opacity="0.8" />
      <rect x="8" y="-7" width="8" height="8" fill="#BF4080" opacity="0.6" />
      <text x="25" y="0" font-family="'SF Pro Text', sans-serif" font-size="14" fill="#FFFFFF">Visual Scripting Interface</text>
    </g>
    
    <g transform="translate(-110, 180)">
      <rect x="0" y="-7" width="8" height="8" fill="#5AC8FA" opacity="0.8" />
      <rect x="8" y="-7" width="8" height="8" fill="#BF4080" opacity="0.6" />
      <text x="25" y="0" font-family="'SF Pro Text', sans-serif" font-size="14" fill="#FFFFFF">Framer + Next.js Compatible</text>
    </g>
    
    <!-- Perfect for indicator -->
    <rect x="-110" y="215" width="220" height="40" rx="8" fill="#331F4A" opacity="0.8" />
    <text x="0" y="235" font-family="'SF Pro Text', sans-serif" font-size="14" font-weight="bold" fill="#FFFFFF" text-anchor="middle">Perfect for Web Experiences</text>
    <text x="0" y="250" font-family="'SF Pro Text', sans-serif" font-size="12" fill="#5AC8FA" text-anchor="middle">Framer SaaS and Narrative Games</text>
  </g>
  
  <!-- Godot Engine -->
  <g transform="translate(450, 190)">
    <!-- Tool panel with layered depth effect -->
    <rect x="-100" y="0" width="200" height="280" rx="10" fill="#131A36" stroke="#6A3093" stroke-width="2" />
    <rect x="-95" y="5" width="190" height="270" rx="8" fill="#0D0D15" stroke="#6A3093" stroke-width="1" opacity="0.8" />
    
    <!-- Tool name -->
    <text x="0" y="30" font-family="'SF Pro Display', sans-serif" font-size="18" font-weight="bold" fill="#FFFFFF" text-anchor="middle">Godot Engine</text>
    
    <!-- M4 optimization indicator -->
    <rect x="45" y="15" width="40" height="20" rx="10" fill="#6A3093" opacity="0.8" />
    <text x="65" y="30" font-family="'SF Pro Text', sans-serif" font-size="12" fill="#FFFFFF" text-anchor="middle">M4</text>
    
    <!-- Tool features with quantum pixel bullets -->
    <g transform="translate(-85, 60)">
      <rect x="0" y="-7" width="8" height="8" fill="#6A3093" opacity="0.8" />
      <rect x="8" y="-7" width="8" height="8" fill="#BF4080" opacity="0.6" />
      <text x="25" y="0" font-family="'SF Pro Text', sans-serif" font-size="14" fill="#FFFFFF">Native Metal Support</text>
    </g>
    
    <g transform="translate(-85, 90)">
      <rect x="0" y="-7" width="8" height="8" fill="#6A3093" opacity="0.8" />
      <rect x="8" y="-7" width="8" height="8" fill="#BF4080" opacity="0.6" />
      <text x="25" y="0" font-family="'SF Pro Text', sans-serif" font-size="14" fill="#FFFFFF">Visual Node Scripting</text>
    </g>
    
    <g transform="translate(-85, 120)">
      <rect x="0" y="-7" width="8" height="8" fill="#6A3093" opacity="0.8" />
      <rect x="8" y="-7" width="8" height="8" fill="#BF4080" opacity="0.6" />
      <text x="25" y="0" font-family="'SF Pro Text', sans-serif" font-size="14" fill="#FFFFFF">Ink Integration</text>
    </g>
    
    <g transform="translate(-85, 150)">
      <rect x="0" y="-7" width="8" height="8" fill="#6A3093" opacity="0.8" />
      <rect x="8" y="-7" width="8" height="8" fill="#BF4080" opacity="0.6" />
      <text x="25" y="0" font-family="'SF Pro Text', sans-serif" font-size="14" fill="#FFFFFF">Free and Open Source</text>
    </g>
    
    <g transform="translate(-85, 180)">
      <rect x="0" y="-7" width="8" height="8" fill="#6A3093" opacity="0.8" />
      <rect x="8" y="-7" width="8" height="8" fill="#BF4080" opacity="0.6" />
      <text x="25" y="0" font-family="'SF Pro Text', sans-serif" font-size="14" fill="#FFFFFF">iOS/Mac Export</text>
    </g>
    
    <!-- Perfect for indicator -->
    <rect x="-85" y="215" width="170" height="40" rx="8" fill="#331F4A" opacity="0.8" />
    <text x="0" y="235" font-family="'SF Pro Text', sans-serif" font-size="14" font-weight="bold" fill="#FFFFFF" text-anchor="middle">Perfect for RPGs</text>
    <text x="0" y="250" font-family="'SF Pro Text', sans-serif" font-size="12" fill="#6A3093" text-anchor="middle">Full Game Experiences</text>
  </g>
  
  <!-- Reality Composer Pro -->
  <g transform="translate(675, 190)">
    <!-- Tool panel with layered depth effect -->
    <rect x="-125" y="0" width="250" height="280" rx="10" fill="#131A36" stroke="#BF4080" stroke-width="2" />
    <rect x="-120" y="5" width="240" height="270" rx="8" fill="#0D0D15" stroke="#BF4080" stroke-width="1" opacity="0.8" />
    
    <!-- Tool name -->
    <text x="0" y="30" font-family="'SF Pro Display', sans-serif" font-size="18" font-weight="bold" fill="#FFFFFF" text-anchor="middle">Reality Composer Pro</text>
    
    <!-- M4 optimization indicator -->
    <rect x="70" y="15" width="40" height="20" rx="10" fill="#BF4080" opacity="0.8" />
    <text x="90" y="30" font-family="'SF Pro Text', sans-serif" font-size="12" fill="#FFFFFF" text-anchor="middle">M4</text>
    
    <!-- Tool features with quantum pixel bullets -->
    <g transform="translate(-110, 60)">
      <rect x="0" y="-7" width="8" height="8" fill="#BF4080" opacity="0.8" />
      <rect x="8" y="-7" width="8" height="8" fill="#5AC8FA" opacity="0.6" />
      <text x="25" y="0" font-family="'SF Pro Text', sans-serif" font-size="14" fill="#FFFFFF">Spatial Computing</text>
    </g>
    
    <g transform="translate(-110, 90)">
      <rect x="0" y="-7" width="8" height="8" fill="#BF4080" opacity="0.8" />
      <rect x="8" y="-7" width="8" height="8" fill="#5AC8FA" opacity="0.6" />
      <text x="25" y="0" font-family="'SF Pro Text', sans-serif" font-size="14" fill="#FFFFFF">Visual Environment Design</text>
    </g>
    
    <g transform="translate(-110, 120)">
      <rect x="0" y="-7" width="8" height="8" fill="#BF4080" opacity="0.8" />
      <rect x="8" y="-7" width="8" height="8" fill="#5AC8FA" opacity="0.6" />
      <text x="25" y="0" font-family="'SF Pro Text', sans-serif" font-size="14" fill="#FFFFFF">Core ML Integration</text>
    </g>
    
    <g transform="translate(-110, 150)">
      <rect x="0" y="-7" width="8" height="8" fill="#BF4080" opacity="0.8" />
      <rect x="8" y="-7" width="8" height="8" fill="#5AC8FA" opacity="0.6" />
      <text x="25" y="0" font-family="'SF Pro Text', sans-serif" font-size="14" fill="#FFFFFF">Physics and Interaction Presets</text>
    </g>
    
    <g transform="translate(-110, 180)">
      <rect x="0" y="-7" width="8" height="8" fill="#BF4080" opacity="0.8" />
      <rect x="8" y="-7" width="8" height="8" fill="#5AC8FA" opacity="0.6" />
      <text x="25" y="0" font-family="'SF Pro Text', sans-serif" font-size="14" fill="#FFFFFF">SwiftUI/RealityKit Integration</text>
    </g>
    
    <!-- Perfect for indicator -->
    <rect x="-110" y="215" width="220" height="40" rx="8" fill="#331F4A" opacity="0.8" />
    <text x="0" y="235" font-family="'SF Pro Text', sans-serif" font-size="14" font-weight="bold" fill="#FFFFFF" text-anchor="middle">Perfect for Vision Pro</text>
    <text x="0" y="250" font-family="'SF Pro Text', sans-serif" font-size="12" fill="#BF4080" text-anchor="middle">Spatial Computing Experiences</text>
  </g>
  
  <!-- AI Enhancement Layer -->
  <g transform="translate(450, 510)">
    <!-- AI Enhancement Panel -->
    <rect x="-400" y="-20" width="800" height="90" rx="15" fill="#131A36" opacity="0.9" stroke="#5AC8FA" stroke-width="1" />
    
    <text x="0" y="10" font-family="'SF Pro Display', sans-serif" font-size="20" font-weight="bold" fill="#FFFFFF" text-anchor="middle">Neural Engine AI Enhancements</text>
    
    <!-- AI Enhancement items -->
    <g transform="translate(-300, 45)">
      <rect x="-15" y="-15" width="30" height="30" rx="5" fill="#331F4A" />
      <text x="0" y="5" font-family="'SF Pro Display', sans-serif" font-size="16" font-weight="bold" fill="#5AC8FA" text-anchor="middle">ML</text>
      <text x="50" y="5" font-family="'SF Pro Text', sans-serif" font-size="14" fill="#FFFFFF">ML-Enhanced Ink</text>
    </g>
    
    <g transform="translate(-100, 45)">
      <rect x="-15" y="-15" width="30" height="30" rx="5" fill="#331F4A" />
      <text x="0" y="5" font-family="'SF Pro Display', sans-serif" font-size="16" font-weight="bold" fill="#6A3093" text-anchor="middle">ID</text>
      <text x="50" y="5" font-family="'SF Pro Text', sans-serif" font-size="14" fill="#FFFFFF">Ideogram Assets</text>
    </g>
    
    <g transform="translate(100, 45)">
      <rect x="-15" y="-15" width="30" height="30" rx="5" fill="#331F4A" />
      <text x="0" y="5" font-family="'SF Pro Display', sans-serif" font-size="16" font-weight="bold" fill="#BF4080" text-anchor="middle">NT</text>
      <text x="50" y="5" font-family="'SF Pro Text', sans-serif" font-size="14" fill="#FFFFFF">Notion Integration</text>
    </g>
    
    <g transform="translate(300, 45)">
      <rect x="-15" y="-15" width="30" height="30" rx="5" fill="#331F4A" />
      <text x="0" y="5" font-family="'SF Pro Display', sans-serif" font-size="16" font-weight="bold" fill="#2D854D" text-anchor="middle">CL</text>
      <text x="50" y="5" font-family="'SF Pro Text', sans-serif" font-size="14" fill="#FFFFFF">Claude/OpenAI APIs</text>
    </g>
  </g>
</svg>