<svg xmlns="http://www.w3.org/2000/svg" viewBox="0 0 900 600">
  <!-- Deep space background with dimensional grid -->
  <rect width="900" height="600" fill="#0A0621" />
  
  <!-- Dimensional grid with perspective effect -->
  <g opacity="0.12">
    <!-- Horizontal grid lines with quantum distortion -->
    <path d="M150,550 Q450,530 750,550" stroke="#5AC8FA" stroke-width="1" />
    <path d="M125,500 Q450,490 775,500" stroke="#5AC8FA" stroke-width="1" />
    <path d="M100,450 Q450,440 800,450" stroke="#5AC8FA" stroke-width="1" />
    <path d="M75,400 Q450,390 825,400" stroke="#5AC8FA" stroke-width="1" />
    <path d="M65,350 Q450,340 835,350" stroke="#5AC8FA" stroke-width="1" />
    <path d="M55,300 Q450,290 845,300" stroke="#5AC8FA" stroke-width="1" />
    <path d="M45,250 Q450,240 855,250" stroke="#5AC8FA" stroke-width="1" />
    <path d="M35,200 Q450,190 865,200" stroke="#5AC8FA" stroke-width="1" />
    <path d="M25,150 Q450,140 875,150" stroke="#5AC8FA" stroke-width="1" />
    
    <!-- Vertical grid lines with subtle distortion -->
    <path d="M150,100 Q160,300 150,550" stroke="#5AC8FA" stroke-width="1" />
    <path d="M225,100 Q235,300 225,550" stroke="#5AC8FA" stroke-width="1" />
    <path d="M300,100 Q310,300 300,550" stroke="#5AC8FA" stroke-width="1" />
    <path d="M375,100 Q385,300 375,550" stroke="#5AC8FA" stroke-width="1" />
    <path d="M450,100 Q460,300 450,550" stroke="#5AC8FA" stroke-width="1" />
    <path d="M525,100 Q535,300 525,550" stroke="#5AC8FA" stroke-width="1" />
    <path d="M600,100 Q610,300 600,550" stroke="#5AC8FA" stroke-width="1" />
    <path d="M675,100 Q685,300 675,550" stroke="#5AC8FA" stroke-width="1" />
    <path d="M750,100 Q760,300 750,550" stroke="#5AC8FA" stroke-width="1" />
  </g>
  
  <!-- Title with quantum pixel effect -->
  <text x="450" y="60" font-family="'SF Pro Display', sans-serif" font-size="32" font-weight="bold" fill="#FFFFFF" text-anchor="middle">M4-Optimized Workflow Comparison</text>
  
  <!-- Quantum pixels around title -->
  <rect x="200" y="40" width="10" height="10" fill="#5AC8FA" opacity="0.7" />
  <rect x="690" y="40" width="10" height="10" fill="#6A3093" opacity="0.7" />
  <rect x="705" y="55" width="8" height="8" fill="#BF4080" opacity="0.5" />
  <rect x="185" y="55" width="8" height="8" fill="#BF4080" opacity="0.5" />
  
  <!-- Workflow Comparison - Left side: Standard Workflow -->
  <g transform="translate(250, 300)">
    <!-- Background panel with depth effect -->
    <rect x="-150" y="-180" width="300" height="360" rx="15" fill="#131A36" stroke="#331F4A" stroke-width="2" />
    <rect x="-145" y="-175" width="290" height="350" rx="12" fill="#0D0D15" stroke="#331F4A" stroke-width="1" />
    
    <!-- Panel title -->
    <text x="0" y="-145" font-family="'SF Pro Display', sans-serif" font-size="22" font-weight="bold" fill="#FFFFFF" text-anchor="middle">Standard Workflow</text>
    
    <!-- Workflow steps with timing -->
    <g transform="translate(0, -100)">
      <!-- Step 1 -->
      <rect x="-120" y="-15" width="240" height="30" rx="5" fill="#331F4A" opacity="0.8" />
      <text x="0" y="5" font-family="'SF Pro Text', sans-serif" font-size="14" fill="#FFFFFF" text-anchor="middle">Concept Development</text>
      <text x="105" y="5" font-family="'SF Pro Text', sans-serif" font-size="12" fill="#FF6B57" text-anchor="middle">3 weeks</text>
    </g>
    
    <!-- Connection line with arrow -->
    <path d="M0,-70 L0,-40" stroke="#5AC8FA" stroke-width="2" fill="none" />
    <polygon points="0,-40 5,-50 -5,-50" fill="#5AC8FA" />
    
    <g transform="translate(0, -40)">
      <!-- Step 2 -->
      <rect x="-120" y="-15" width="240" height="30" rx="5" fill="#331F4A" opacity="0.8" />
      <text x="0" y="5" font-family="'SF Pro Text', sans-serif" font-size="14" fill="#FFFFFF" text-anchor="middle">Asset Creation</text>
      <text x="105" y="5" font-family="'SF Pro Text', sans-serif" font-size="12" fill="#FF6B57" text-anchor="middle">4 weeks</text>
    </g>
    
    <!-- Connection line with arrow -->
    <path d="M0,-10 L0,20" stroke="#5AC8FA" stroke-width="2" fill="none" />
    <polygon points="0,20 5,10 -5,10" fill="#5AC8FA" />
    
    <g transform="translate(0, 20)">
      <!-- Step 3 -->
      <rect x="-120" y="-15" width="240" height="30" rx="5" fill="#331F4A" opacity="0.8" />
      <text x="0" y="5" font-family="'SF Pro Text', sans-serif" font-size="14" fill="#FFFFFF" text-anchor="middle">Prototype Development</text>
      <text x="105" y="5" font-family="'SF Pro Text', sans-serif" font-size="12" fill="#FF6B57" text-anchor="middle">5 weeks</text>
    </g>
    
    <!-- Connection line with arrow -->
    <path d="M0,50 L0,80" stroke="#5AC8FA" stroke-width="2" fill="none" />
    <polygon points="0,80 5,70 -5,70" fill="#5AC8FA" />
    
    <g transform="translate(0, 80)">
      <!-- Step 4 -->
      <rect x="-120" y="-15" width="240" height="30" rx="5" fill="#331F4A" opacity="0.8" />
      <text x="0" y="5" font-family="'SF Pro Text', sans-serif" font-size="14" fill="#FFFFFF" text-anchor="middle">Testing and Refinement</text>
      <text x="105" y="5" font-family="'SF Pro Text', sans-serif" font-size="12" fill="#FF6B57" text-anchor="middle">4 weeks</text>
    </g>
    
    <!-- Connection line with arrow -->
    <path d="M0,110 L0,140" stroke="#5AC8FA" stroke-width="2" fill="none" />
    <polygon points="0,140 5,130 -5,130" fill="#5AC8FA" />
    
    <g transform="translate(0, 140)">
      <!-- Step 5 -->
      <rect x="-120" y="-15" width="240" height="30" rx="5" fill="#331F4A" opacity="0.8" />
      <text x="0" y="5" font-family="'SF Pro Text', sans-serif" font-size="14" fill="#FFFFFF" text-anchor="middle">Launch</text>
      <text x="105" y="5" font-family="'SF Pro Text', sans-serif" font-size="12" fill="#FF6B57" text-anchor="middle">2 weeks</text>
    </g>
    
    <!-- Total time indicator -->
    <rect x="-130" y="170" width="260" height="30" rx="5" fill="#6A3093" opacity="0.8" />
    <text x="0" y="190" font-family="'SF Pro Text', sans-serif" font-size="14" font-weight="bold" fill="#FFFFFF" text-anchor="middle">Total Time: 18 Weeks</text>
  </g>
  
  <!-- Workflow Comparison - Right side: M4-Optimized Workflow -->
  <g transform="translate(650, 300)">
    <!-- Background panel with depth effect -->
    <rect x="-150" y="-180" width="300" height="360" rx="15" fill="#131A36" stroke="#5AC8FA" stroke-width="2" />
    <rect x="-145" y="-175" width="290" height="350" rx="12" fill="#0D0D15" stroke="#5AC8FA" stroke-width="1" />
    
    <!-- Panel title -->
    <text x="0" y="-145" font-family="'SF Pro Display', sans-serif" font-size="22" font-weight="bold" fill="#FFFFFF" text-anchor="middle">M4-Optimized Workflow</text>
    
    <!-- Workflow steps with timing -->
    <g transform="translate(0, -100)">
      <!-- Step 1 -->
      <rect x="-120" y="-15" width="240" height="30" rx="5" fill="#331F4A" opacity="0.8" />
      <text x="0" y="5" font-family="'SF Pro Text', sans-serif" font-size="14" fill="#FFFFFF" text-anchor="middle">AI-Assisted Concept Development</text>
      <text x="105" y="5" font-family="'SF Pro Text', sans-serif" font-size="12" fill="#5AC8FA" text-anchor="middle">1 week</text>
    </g>
    
    <!-- Connection line with arrow -->
    <path d="M0,-70 L0,-40" stroke="#5AC8FA" stroke-width="2" fill="none" />
    <polygon points="0,-40 5,-50 -5,-50" fill="#5AC8FA" />
    
    <g transform="translate(0, -40)">
      <!-- Step 2 -->
      <rect x="-120" y="-15" width="240" height="30" rx="5" fill="#331F4A" opacity="0.8" />
      <text x="0" y="5" font-family="'SF Pro Text', sans-serif" font-size="14" fill="#FFFFFF" text-anchor="middle">Neural Engine Asset Generation</text>
      <text x="105" y="5" font-family="'SF Pro Text', sans-serif" font-size="12" fill="#5AC8FA" text-anchor="middle">1.5 weeks</text>
    </g>
    
    <!-- Connection line with arrow -->
    <path d="M0,-10 L0,20" stroke="#5AC8FA" stroke-width="2" fill="none" />
    <polygon points="0,20 5,10 -5,10" fill="#5AC8FA" />
    
    <g transform="translate(0, 20)">
      <!-- Step 3 -->
      <rect x="-120" y="-15" width="240" height="30" rx="5" fill="#331F4A" opacity="0.8" />
      <text x="0" y="5" font-family="'SF Pro Text', sans-serif" font-size="14" fill="#FFFFFF" text-anchor="middle">Metal-Accelerated Development</text>
      <text x="105" y="5" font-family="'SF Pro Text', sans-serif" font-size="12" fill="#5AC8FA" text-anchor="middle">2 weeks</text>
    </g>
    
    <!-- Connection line with arrow -->
    <path d="M0,50 L0,80" stroke="#5AC8FA" stroke-width="2" fill="none" />
    <polygon points="0,80 5,70 -5,70" fill="#5AC8FA" />
    
    <g transform="translate(0, 80)">
      <!-- Step 4 -->
      <rect x="-120" y="-15" width="240" height="30" rx="5" fill="#331F4A" opacity="0.8" />
      <text x="0" y="5" font-family="'SF Pro Text', sans-serif" font-size="14" fill="#FFFFFF" text-anchor="middle">Parallel Testing and Optimization</text>
      <text x="105" y="5" font-family="'SF Pro Text', sans-serif" font-size="12" fill="#5AC8FA" text-anchor="middle">1.5 weeks</text>
    </g>
    
    <!-- Connection line with arrow -->
    <path d="M0,110 L0,140" stroke="#5AC8FA" stroke-width="2" fill="none" />
    <polygon points="0,140 5,130 -5,130" fill="#5AC8FA" />
    
    <g transform="translate(0, 140)">
      <!-- Step 5 -->
      <rect x="-120" y="-15" width="240" height="30" rx="5" fill="#331F4A" opacity="0.8" />
      <text x="0" y="5" font-family="'SF Pro Text', sans-serif" font-size="14" fill="#FFFFFF" text-anchor="middle">Launch</text>
      <text x="105" y="5" font-family="'SF Pro Text', sans-serif" font-size="12" fill="#5AC8FA" text-anchor="middle">1 week</text>
    </g>
    
    <!-- Total time indicator -->
    <rect x="-130" y="170" width="260" height="30" rx="5" fill="#6A3093" opacity="0.8" />
    <text x="0" y="190" font-family="'SF Pro Text', sans-serif" font-size="14" font-weight="bold" fill="#FFFFFF" text-anchor="middle">Total Time: 7 Weeks (61% Faster)</text>
  </g>
  
  <!-- Center comparison elements -->
  <g transform="translate(450, 320)">
    <!-- Comparison arrow -->
    <path d="M-150,0 L150,0" stroke="#BF4080" stroke-width="3" stroke-dasharray="10,5" />
    <polygon points="150,0 140,-8 140,8" fill="#BF4080" />
    
    <!-- Neural Engine icon with glow -->
    <circle cx="0" cy="0" r="40" fill="#131A36" stroke="#5AC8FA" stroke-width="2" />
    <circle cx="0" cy="0" r="38" fill="#0D0D15" />
    
    <!-- Stylized Neural Network -->
    <circle cx="-15" cy="-15" r="4" fill="#5AC8FA" />
    <circle cx="15" cy="-15" r="4" fill="#5AC8FA" />
    <circle cx="0" cy="0" r="4" fill="#5AC8FA" />
    <circle cx="-15" cy="15" r="4" fill="#5AC8FA" />
    <circle cx="15" cy="15" r="4" fill="#5AC8FA" />
    
    <line x1="-15" y1="-15" x2="15" y2="-15" stroke="#5AC8FA" stroke-width="1" />
    <line x1="-15" y1="-15" x2="0" y2="0" stroke="#5AC8FA" stroke-width="1" />
    <line x1="15" y1="-15" x2="0" y2="0" stroke="#5AC8FA" stroke-width="1" />
    <line x1="0" y1="0" x2="-15" y2="15" stroke="#5AC8FA" stroke-width="1" />
    <line x1="0" y1="0" x2="15" y2="15" stroke="#5AC8FA" stroke-width="1" />
    <line x1="-15" y1="15" x2="15" y2="15" stroke="#5AC8FA" stroke-width="1" />
    
    <!-- M4 Text -->
    <text x="0" y="60" font-family="'SF Pro Display', sans-serif" font-size="18" font-weight="bold" fill="#FFFFFF" text-anchor="middle">M4 Chip</text>
    <text x="0" y="80" font-family="'SF Pro Text', sans-serif" font-size="14" fill="#5AC8FA" text-anchor="middle">Neural Engine</text>
  </g>
</svg>