<?xml version="1.0" encoding="UTF-8"?>
<svg id="Layer_1" xmlns="http://www.w3.org/2000/svg" width="800" height="500" version="1.1" viewBox="0 0 800 500">
  <!-- Generator: Adobe Illustrator 29.4.0, SVG Export Plug-In . SVG Version: 2.1.0 Build 152)  -->
  <defs>
    <style>
      .st0, .st1, .st2 {
        fill: none;
      }

      .st3, .st4, .st5, .st6, .st2, .st7 {
        stroke: #5ac8fa;
      }

      .st3, .st6 {
        fill: #0d0d15;
      }

      .st8, .st9, .st10 {
        fill: #5ac8fa;
      }

      .st11, .st12, .st13, .st14, .st15, .st16, .st17, .st9, .st18, .st19, .st20, .st21, .st10 {
        isolation: isolate;
      }

      .st11, .st12, .st14, .st19 {
        font-family: SFProText-Regular, 'SF Pro Text';
      }

      .st11, .st12, .st16, .st18, .st21, .st10 {
        font-size: 12px;
      }

      .st11, .st13, .st14, .st15, .st16, .st17, .st18, .st19, .st20 {
        fill: #fff;
      }

      .st22 {
        fill: #0a0621;
      }

      .st12, .st23, .st21 {
        fill: #bf4080;
      }

      .st13, .st15, .st16 {
        font-family: SFProDisplay-Regular, 'SF Pro Display';
      }

      .st13, .st17 {
        font-size: 16px;
      }

      .st24, .st4 {
        fill: #6a3093;
      }

      .st14, .st15 {
        font-size: 14px;
      }

      .st1 {
        stroke: #bf4080;
      }

      .st4, .st6, .st7 {
        stroke-width: 2px;
      }

      .st25, .st9 {
        opacity: .7;
      }

      .st26 {
        opacity: .1;
      }

      .st17, .st20 {
        font-family: SFProDisplay-Bold, 'SF Pro Display';
        font-weight: 700;
      }

      .st18, .st21, .st10 {
        font-family: SFMono-RegularItalic, 'SF Mono';
        font-style: italic;
      }

      .st19 {
        font-size: 10px;
      }

      .st20 {
        font-size: 24px;
      }

      .st7 {
        fill: #331f4a;
      }
    </style>
  </defs>
  <rect class="st22" width="800" height="500"/>
  <g class="st26">
    <path class="st5" d="M200,450h400"/>
    <path class="st5" d="M150,400h500"/>
    <path class="st5" d="M125,350h550"/>
    <path class="st5" d="M100,300h600"/>
    <path class="st5" d="M90,250h620"/>
    <path class="st5" d="M80,200h640"/>
    <path class="st5" d="M70,150h660"/>
    <path class="st5" d="M60,100h680"/>
    <path class="st5" d="M200,100v350"/>
    <path class="st5" d="M250,100v350"/>
    <path class="st5" d="M300,100v350"/>
    <path class="st5" d="M350,100v350"/>
    <path class="st5" d="M400,100v350"/>
    <path class="st5" d="M450,100v350"/>
    <path class="st5" d="M500,100v350"/>
    <path class="st5" d="M550,100v350"/>
    <path class="st5" d="M600,100v350"/>
  </g>
  <text class="st20" transform="translate(185.664 50)"><tspan x="0" y="0">ML-Enhanced Ink: Dynamic Storytelling</tspan></text>
  <g>
    <g>
      <rect class="st7" x="65" y="210" width="120" height="80" rx="10" ry="10"/>
      <text class="st15" transform="translate(105.436 235)"><tspan x="0" y="0">Notion</tspan></text>
      <text class="st15" transform="translate(84.449 255)"><tspan x="0" y="0">Worldbuilding</tspan></text>
      <text class="st15" transform="translate(96.949 275)"><tspan x="0" y="0">Database</tspan></text>
      <rect class="st9" x="75" y="220" width="8" height="8"/>
      <rect class="st9" x="167" y="272" width="8" height="8"/>
    </g>
    <g>
      <rect class="st4" x="320" y="110" width="160" height="100" rx="10" ry="10"/>
      <text class="st13" transform="translate(353.434 140)"><tspan x="0" y="0">Neural Engine</tspan></text>
      <text class="st15" transform="translate(340.49 160)"><tspan x="0" y="0">Character Response</tspan></text>
      <text class="st15" transform="translate(367.639 180)"><tspan x="0" y="0">Generation</tspan></text>
      <g class="st25">
        <circle class="st8" cx="350" cy="130" r="4"/>
        <circle class="st8" cx="370" cy="140" r="4"/>
        <circle class="st8" cx="390" cy="135" r="4"/>
        <circle class="st8" cx="410" cy="145" r="4"/>
        <circle class="st8" cx="430" cy="135" r="4"/>
        <circle class="st8" cx="450" cy="140" r="4"/>
        <circle class="st8" cx="360" cy="160" r="4"/>
        <circle class="st8" cx="380" cy="165" r="4"/>
        <circle class="st8" cx="400" cy="155" r="4"/>
        <circle class="st8" cx="420" cy="165" r="4"/>
        <circle class="st8" cx="440" cy="160" r="4"/>
        <line class="st2" x1="350" y1="130" x2="360" y2="160"/>
        <line class="st2" x1="370" y1="140" x2="360" y2="160"/>
        <line class="st2" x1="390" y1="135" x2="380" y2="165"/>
        <line class="st2" x1="410" y1="145" x2="400" y2="155"/>
        <line class="st2" x1="430" y1="135" x2="420" y2="165"/>
        <line class="st2" x1="450" y1="140" x2="440" y2="160"/>
      </g>
    </g>
    <g>
      <rect class="st7" x="300" y="200" width="200" height="100" rx="10" ry="10"/>
      <text class="st13" transform="translate(316.129 225)"><tspan x="0" y="0">ML-Enhanced Ink Engine</tspan></text>
      <text class="st15" transform="translate(314.981 250)"><tspan x="0" y="0">Dynamic Narrative Branching</tspan></text>
      <text class="st15" transform="translate(328.219 275)"><tspan x="0" y="0">Player-Adaptive Content</tspan></text>
      <g class="st25">
        <circle class="st23" cx="340" cy="250" r="5"/>
        <circle class="st23" cx="370" cy="230" r="5"/>
        <circle class="st23" cx="400" cy="250" r="5"/>
        <circle class="st23" cx="430" cy="270" r="5"/>
        <circle class="st23" cx="460" cy="250" r="5"/>
        <line class="st1" x1="340" y1="250" x2="370" y2="230"/>
        <line class="st1" x1="370" y1="230" x2="400" y2="250"/>
        <line class="st1" x1="400" y1="250" x2="430" y2="270"/>
        <line class="st1" x1="430" y1="270" x2="460" y2="250"/>
      </g>
    </g>
    <g>
      <rect class="st6" x="320" y="310" width="160" height="60" rx="10" ry="10"/>
      <text class="st15" transform="translate(320.994 340)"><tspan x="0" y="0">Dynamic Game Experience</tspan></text>
      <text class="st16" transform="translate(323.4 360)"><tspan x="0" y="0">Personalized to Player Choices</tspan></text>
    </g>
    <g>
      <rect class="st7" x="615" y="210" width="120" height="80" rx="10" ry="10"/>
      <text class="st15" transform="translate(650.78 235)"><tspan x="0" y="0">M4 Mac</tspan></text>
      <text class="st15" transform="translate(643.076 255)"><tspan x="0" y="0">On-Device</tspan></text>
      <text class="st15" transform="translate(642.676 275)"><tspan x="0" y="0">Processing</tspan></text>
      <path class="st9" d="M675,220c3.333-3.333,6.667-3.333,10,0l5,10c-3.333-3.333-6.667-3.333-10,0-3.333-3.333-6.667-3.333-10,0l5-10"/>
    </g>
    <g>
      <path class="st0" d=""/>
      <polygon class="st8" points="282 243 302 250 282 257 282 243"/>
      <path class="st8" d="M300,250" marker-end="url(#arrowhead)"/>
      <path class="st0" d=""/>
      <polygon class="st8" points="393 218 400 198 407 218 393 218"/>
      <path class="st8" d="M400,200" marker-end="url(#arrowhead)"/>
      <path class="st0" d=""/>
      <polygon class="st8" points="407 292 400 312 393 292 407 292"/>
      <path class="st8" d="M400,310" marker-end="url(#arrowhead)"/>
      <path class="st0" d=""/>
      <polygon class="st8" points="518 257 498 250 518 243 518 257"/>
      <path class="st8" d="M500,250" marker-end="url(#arrowhead)"/>
      <path class="st0" d=""/>
      <polygon class="st8" points="495.765 191.157 478.06 179.515 499.16 177.575 495.765 191.157"/>
    </g>
  </g>
  <g>
    <rect class="st3" x="150" y="90" width="500" height="100" rx="5" ry="5"/>
    <text class="st21" transform="translate(160 110)"><tspan x="0" y="0">// ML-Enhanced Ink with M4 Neural Engine integration</tspan></text>
    <text class="st10" transform="translate(160 130)"><tspan x="0" y="0">EXTERNAL</tspan></text>
    <text class="st18" transform="translate(220 130)"><tspan x="0" y="0">generateResponse(characterId, context, emotion)</tspan></text>
    <text class="st10" transform="translate(160 150)"><tspan x="0" y="0">VAR</tspan></text>
    <text class="st18" transform="translate(190 150)"><tspan x="0" y="0">player_choices = ()</tspan></text>
    <text class="st10" transform="translate(160 170)"><tspan x="0" y="0">VAR</tspan></text>
    <text class="st18" transform="translate(190 170)"><tspan x="0" y="0">relationship_values = ()</tspan></text>
  </g>
  <g>
    <rect class="st3" x="400" y="120" width="250" height="100" rx="10" ry="10"/>
    <text class="st15" transform="translate(456.429 110)"><tspan x="0" y="0">Adaptive NPC Dialogue</tspan></text>
    <text class="st12" transform="translate(410 140)"><tspan x="0" y="0">Merchant:</tspan></text>
    <text class="st11" transform="translate(475 140)"><tspan x="0" y="0">I&apos;ve been expecting you!</tspan></text>
    <text class="st11" transform="translate(475 160)"><tspan x="0" y="0">[dynamically generated based on</tspan></text>
    <text class="st11" transform="translate(475 175)"><tspan x="0" y="0">player reputation and quest history]</tspan></text>
    <text class="st11" transform="translate(475 195)"><tspan x="0" y="0">Perhaps I can interest you in...</tspan></text>
    <rect class="st24" x="410" y="190" width="50" height="20" rx="5" ry="5"/>
    <text class="st19" transform="translate(415.425 204)"><tspan x="0" y="0">ML-GEN</tspan></text>
  </g>
  <g>
    <text class="st17" transform="translate(150 430)"><tspan x="0" y="0">Key Benefits</tspan></text>
    <g>
      <rect class="st8" x="150" y="442" width="8" height="8"/>
      <rect class="st24" x="158" y="442" width="8" height="8"/>
      <text class="st14" transform="translate(175 450)"><tspan x="0" y="0">90% faster character response generation</tspan></text>
    </g>
    <g>
      <rect class="st8" x="150" y="467" width="8" height="8"/>
      <rect class="st24" x="158" y="467" width="8" height="8"/>
      <text class="st14" transform="translate(175 475)"><tspan x="0" y="0">Privacy-preserving storytelling (no cloud APIs)</tspan></text>
    </g>
    <g>
      <rect class="st8" x="550" y="442" width="8" height="8"/>
      <rect class="st24" x="558" y="442" width="8" height="8"/>
      <text class="st14" transform="translate(575 450)"><tspan x="0" y="0">Direct Notion database integration</tspan></text>
    </g>
    <g>
      <rect class="st8" x="550" y="467" width="8" height="8"/>
      <rect class="st24" x="558" y="467" width="8" height="8"/>
      <text class="st14" transform="translate(575 475)"><tspan x="0" y="0">No ML expertise required</tspan></text>
    </g>
  </g>
</svg>