<svg xmlns="http://www.w3.org/2000/svg" viewBox="0 0 800 500">
  <!-- Background -->
  <rect width="800" height="500" fill="#0A0621" />
  
  <!-- Grid background -->
  <g opacity="0.1">
    <!-- Horizontal grid lines with perspective effect -->
    <path d="M200,450 L600,450" stroke="#5AC8FA" stroke-width="1" />
    <path d="M150,400 L650,400" stroke="#5AC8FA" stroke-width="1" />
    <path d="M125,350 L675,350" stroke="#5AC8FA" stroke-width="1" />
    <path d="M100,300 L700,300" stroke="#5AC8FA" stroke-width="1" />
    <path d="M90,250 L710,250" stroke="#5AC8FA" stroke-width="1" />
    <path d="M80,200 L720,200" stroke="#5AC8FA" stroke-width="1" />
    <path d="M70,150 L730,150" stroke="#5AC8FA" stroke-width="1" />
    <path d="M60,100 L740,100" stroke="#5AC8FA" stroke-width="1" />
    
    <!-- Vertical grid lines -->
    <path d="M200,100 L200,450" stroke="#5AC8FA" stroke-width="1" />
    <path d="M250,100 L250,450" stroke="#5AC8FA" stroke-width="1" />
    <path d="M300,100 L300,450" stroke="#5AC8FA" stroke-width="1" />
    <path d="M350,100 L350,450" stroke="#5AC8FA" stroke-width="1" />
    <path d="M400,100 L400,450" stroke="#5AC8FA" stroke-width="1" />
    <path d="M450,100 L450,450" stroke="#5AC8FA" stroke-width="1" />
    <path d="M500,100 L500,450" stroke="#5AC8FA" stroke-width="1" />
    <path d="M550,100 L550,450" stroke="#5AC8FA" stroke-width="1" />
    <path d="M600,100 L600,450" stroke="#5AC8FA" stroke-width="1" />
  </g>
  
  <!-- Title -->
  <text x="400" y="50" font-family="'SF Pro Display', -apple-system, BlinkMacSystemFont, sans-serif" font-size="24" font-weight="bold" fill="#FFFFFF" text-anchor="middle">React Three Fiber + Framer: Rapid 3D SaaS Development</text>
  
  <!-- Framer Code Editor (Left Side) -->
  <g transform="translate(180, 230)">
    <rect x="-150" y="-120" width="300" height="240" rx="10" fill="#131A36" stroke="#5AC8FA" stroke-width="2" />
    
    <!-- Editor Header -->
    <rect x="-150" y="-120" width="300" height="30" rx="10" fill="#331F4A" />
    <circle cx="-130" cy="-105" r="6" fill="#BF4080" />
    <circle cx="-110" cy="-105" r="6" fill="#FF6B57" />
    <circle cx="-90" cy="-105" r="6" fill="#2D854D" />
    <text x="0" y="-105" font-family="'SF Pro Text', -apple-system, BlinkMacSystemFont, sans-serif" font-size="14" fill="#FFFFFF" text-anchor="middle">AI Branding Quiz Component</text>
    
    <!-- Code Editor Content -->
    <rect x="-145" y="-85" width="290" height="200" fill="#0D0D15" />
    
    <!-- React Code -->
    <g transform="translate(-135, -70)">
      <text x="0" y="0" font-family="'SF Mono', monospace" font-size="10" fill="#5AC8FA">import</text>
      <text x="50" y="0" font-family="'SF Mono', monospace" font-size="10" fill="#FFFFFF">React, { useState } </text>
      <text x="180" y="0" font-family="'SF Mono', monospace" font-size="10" fill="#5AC8FA">from</text>
      <text x="210" y="0" font-family="'SF Mono', monospace" font-size="10" fill="#BF4080">'react'</text>
      
      <text x="0" y="15" font-family="'SF Mono', monospace" font-size="10" fill="#5AC8FA">import</text>
      <text x="50" y="15" font-family="'SF Mono', monospace" font-size="10" fill="#FFFFFF">{ Canvas, useFrame } </text>
      <text x="180" y="15" font-family="'SF Mono', monospace" font-size="10" fill="#5AC8FA">from</text>
      <text x="210" y="15" font-family="'SF Mono', monospace" font-size="10" fill="#BF4080">'@react-three/fiber'</text>
      
      <text x="0" y="30" font-family="'SF Mono', monospace" font-size="10" fill="#5AC8FA">import</text>
      <text x="50" y="30" font-family="'SF Mono', monospace" font-size="10" fill="#FFFFFF">{ Box, Environment, OrbitControls } </text>
      <text x="250" y="30" font-family="'SF Mono', monospace" font-size="10" fill="#5AC8FA">from</text>
      <text x="0" y="45" font-family="'SF Mono', monospace" font-size="10" fill="#BF4080">'@react-three/drei'</text>
      
      <text x="0" y="60" font-family="'SF Mono', monospace" font-size="10" fill="#5AC8FA">const</text>
      <text x="40" y="60" font-family="'SF Mono', monospace" font-size="10" fill="#FFFFFF">BrandingQuiz = () => {</text>
      <text x="20" y="75" font-family="'SF Mono', monospace" font-size="10" fill="#5AC8FA">const</text>
      <text x="60" y="75" font-family="'SF Mono', monospace" font-size="10" fill="#FFFFFF">[currentQuestion, setCurrentQuestion] = useState(0)</text>
      <text x="20" y="90" font-family="'SF Mono', monospace" font-size="10" fill="#5AC8FA">const</text>
      <text x="60" y="90" font-family="'SF Mono', monospace" font-size="10" fill="#FFFFFF">[answers, setAnswers] = useState({})</text>
      
      <text x="20" y="105" font-family="'SF Mono', monospace" font-size="10" fill="#5AC8FA">return</text>
      <text x="60" y="105" font-family="'SF Mono', monospace" font-size="10" fill="#FFFFFF">(</text>
      <text x="40" y="120" font-family="'SF Mono', monospace" font-size="10" fill="#FFFFFF">&#60;div className="quiz-container"&#62;</text>
      <text x="60" y="135" font-family="'SF Mono', monospace" font-size="10" fill="#FFFFFF">&#60;Canvas&#62;</text>
      <text x="80" y="150" font-family="'SF Mono', monospace" font-size="10" fill="#FFFFFF">&#60;Environment preset="city" /&#62;</text>
      <text x="80" y="165" font-family="'SF Mono', monospace" font-size="10" fill="#FFFFFF">&#60;BrandCube answers={answers} /&#62;</text>
      <text x="80" y="180" font-family="'SF Mono', monospace" font-size="10" fill="#FFFFFF">&#60;OrbitControls enableZoom={false} /&#62;</text>
      <text x="60" y="195" font-family="'SF Mono', monospace" font-size="10" fill="#FFFFFF">&#60;/Canvas&#62;</text>
      <text x="40" y="210" font-family="'SF Mono', monospace" font-size="10" fill="#FFFFFF">&#60;/div&#62;</text>
      <text x="20" y="225" font-family="'SF Mono', monospace" font-size="10" fill="#FFFFFF">)</text>
      <text x="0" y="240" font-family="'SF Mono', monospace" font-size="10" fill="#FFFFFF">}</text>
    </g>
    
    <!-- Line Numbers -->
    <g transform="translate(-145, -70)">
      <text x="-10" y="0" font-family="'SF Mono', monospace" font-size="10" fill="#666666" text-anchor="end">1</text>
      <text x="-10" y="15" font-family="'SF Mono', monospace" font-size="10" fill="#666666" text-anchor="end">2</text>
      <text x="-10" y="30" font-family="'SF Mono', monospace" font-size="10" fill="#666666" text-anchor="end">3</text>
      <text x="-10" y="45" font-family="'SF Mono', monospace" font-size="10" fill="#666666" text-anchor="end">4</text>
      <text x="-10" y="60" font-family="'SF Mono', monospace" font-size="10" fill="#666666" text-anchor="end">5</text>
      <text x="-10" y="75" font-family="'SF Mono', monospace" font-size="10" fill="#666666" text-anchor="end">6</text>
      <text x="-10" y="90" font-family="'SF Mono', monospace" font-size="10" fill="#666666" text-anchor="end">7</text>
      <text x="-10" y="105" font-family="'SF Mono', monospace" font-size="10" fill="#666666" text-anchor="end">8</text>
      <text x="-10" y="120" font-family="'SF Mono', monospace" font-size="10" fill="#666666" text-anchor="end">9</text>
      <text x="-10" y="135" font-family="'SF Mono', monospace" font-size="10" fill="#666666" text-anchor="end">10</text>
      <text x="-10" y="150" font-family="'SF Mono', monospace" font-size="10" fill="#666666" text-anchor="end">11</text>
      <text x="-10" y="165" font-family="'SF Mono', monospace" font-size="10" fill="#666666" text-anchor="end">12</text>
      <text x="-10" y="180" font-family="'SF Mono', monospace" font-size="10" fill="#666666" text-anchor="end">13</text>
      <text x="-10" y="195" font-family="'SF Mono', monospace" font-size="10" fill="#666666" text-anchor="end">14</text>
      <text x="-10" y="210" font-family="'SF Mono', monospace" font-size="10" fill="#666666" text-anchor="end">15</text>
      <text x="-10" y="225" font-family="'SF Mono', monospace" font-size="10" fill="#666666" text-anchor="end">16</text>
      <text x="-10" y="240" font-family="'SF Mono', monospace" font-size="10" fill="#666666" text-anchor="end">17</text>
    </g>
  </g>
  
  <!-- 3D Preview (Right Side) -->
  <g transform="translate(590, 230)">
    <rect x="-150" y="-120" width="300" height="240" rx="10" fill="#131A36" stroke="#5AC8FA" stroke-width="2" />
    
    <!-- Preview Header -->
    <rect x="-150" y="-120" width="300" height="30" rx="10" fill="#331F4A" />
    <text x="0" y="-105" font-family="'SF Pro Text', -apple-system, BlinkMacSystemFont, sans-serif" font-size="14" fill="#FFFFFF" text-anchor="middle">3D Preview (60+ FPS with Metal)</text>
    
    <!-- 3D Scene Canvas -->
    <rect x="-145" y="-85" width="290" height="200" rx="5" fill="#0A0621" />
    
    <!-- 3D Scene with Quantum-Spatial Design -->
    <g transform="translate(0, 15)">
      <!-- Perspective Grid -->
      <g opacity="0.2">
        <path d="M-100,80 L100,80" stroke="#5AC8FA" stroke-width="1" />
        <path d="M-80,60 L80,60" stroke="#5AC8FA" stroke-width="1" />
        <path d="M-60,40 L60,40" stroke="#5AC8FA" stroke-width="1" />
        <path d="M-40,20 L40,20" stroke="#5AC8FA" stroke-width="1" />
        <path d="M-20,0 L20,0" stroke="#5AC8FA" stroke-width="1" />
        <path d="M-10,-20 L10,-20" stroke="#5AC8FA" stroke-width="1" />
        
        <path d="M-100,80 L-10,-20" stroke="#5AC8FA" stroke-width="1" />
        <path d="M-50,80 L-5,-20" stroke="#5AC8FA" stroke-width="1" />
        <path d="M0,80 L0,-20" stroke="#5AC8FA" stroke-width="1" />
        <path d="M50,80 L5,-20" stroke="#5AC8FA" stroke-width="1" />
        <path d="M100,80 L10,-20" stroke="#5AC8FA" stroke-width="1" />
      </g>
      
      <!-- 3D Cube with Quantum-Spatial Design -->
      <g>
        <!-- Bottom face -->
        <path d="M-40,40 L40,40 L40,-40 L-40,-40 Z" fill="#331F4A" />
        
        <!-- Top face with light gradient -->
        <path d="M-30,30 L30,30 L30,-30 L-30,-30 Z" fill="#6A3093" />
        <path d="M-20,20 L20,20 L20,-20 L-20,-20 Z" fill="#BF4080" opacity="0.7" />
        
        <!-- Quantum pixel effects -->
        <rect x="-15" y="-15" width="10" height="10" fill="#5AC8FA" opacity="0.8" />
        <rect x="5" y="5" width="10" height="10" fill="#5AC8FA" opacity="0.8" />
        <rect x="-15" y="5" width="10" height="10" fill="#5AC8FA" opacity="0.5" />
        <rect x="5" y="-15" width="10" height="10" fill="#5AC8FA" opacity="0.5" />
        
        <!-- Glow effect -->
        <circle cx="0" cy="0" r="45" fill="#5AC8FA" opacity="0.1" />
        <circle cx="0" cy="0" r="35" fill="#5AC8FA" opacity="0.1" />
      </g>
      
      <!-- Brand Visualization Label -->
      <rect x="-80" y="50" width="160" height="25" rx="12.5" fill="#0D0D15" opacity="0.7" />
      <text x="0" y="65" font-family="'SF Pro Text', -apple-system, BlinkMacSystemFont, sans-serif" font-size="12" fill="#FFFFFF" text-anchor="middle">Brand Identity Visualization</text>
    </g>
  </g>
  
  <!-- Connection Arrow with Animation Timeline -->
  <g transform="translate(385, 230)">
    <path d="M-50,0 L50,0" stroke="#5AC8FA" stroke-width="2" />
    <polygon points="50,0 45,3 45,-3" fill="#5AC8FA" />
    
    <rect x="-40" y="-25" width="80" height="50" rx="5" fill="#BF4080" opacity="0.8" />
    <text x="0" y="0" font-family="'SF Pro Display', -apple-system, BlinkMacSystemFont, sans-serif" font-size="16" font-weight="bold" fill="#FFFFFF" text-anchor="middle">1-hour</text>
    <text x="0" y="20" font-family="'SF Pro Display', -apple-system, BlinkMacSystemFont, sans-serif" font-size="16" font-weight="bold" fill="#FFFFFF" text-anchor="middle">Dev Time</text>
  </g>
  
  <!-- M4 Optimization Label -->
  <g transform="translate(400, 90)">
    <rect x="-180" y="-20" width="360" height="40" rx="20" fill="#BF4080" opacity="0.8" />
    <text x="0" y="5" font-family="'SF Pro Display', -apple-system, BlinkMacSystemFont, sans-serif" font-size="16" font-weight="bold" fill="#FFFFFF" text-anchor="middle">M4 Metal Acceleration: 60-90 FPS on Complex Scenes</text>
  </g>
  
  <!-- Revenue Timeline (Bottom) -->
  <g transform="translate(400, 390)">
    <rect x="-360" y="-20" width="720" height="110" rx="10" fill="#0D0D15" opacity="0.7" />
    
    <text x="0" y="0" font-family="'SF Pro Display', -apple-system, BlinkMacSystemFont, sans-serif" font-size="18" font-weight="bold" fill="#FFFFFF" text-anchor="middle">Revenue Generation Timeline with React Three Fiber + Framer</text>
    
    <!-- Timeline -->
    <line x1="-300" y1="30" x2="300" y2="30" stroke="#5AC8FA" stroke-width="2" />
    
    <!-- Milestones -->
    <g transform="translate(-240, 30)">
      <circle cx="0" cy="0" r="6" fill="#BF4080" />
      <text x="0" y="20" font-family="'SF Pro Text', -apple-system, BlinkMacSystemFont, sans-serif" font-size="12" fill="#FFFFFF" text-anchor="middle">Week 1</text>
      <text x="0" y="35" font-family="'SF Pro Text', -apple-system, BlinkMacSystemFont, sans-serif" font-size="12" fill="#FFFFFF" text-anchor="middle">AI Branding Quiz</text>
      <text x="0" y="50" font-family="'SF Pro Text', -apple-system, BlinkMacSystemFont, sans-serif" font-size="10" fill="#5AC8FA" text-anchor="middle">$9.99-49.99/mo</text>
    </g>
    
    <g transform="translate(-80, 30)">
      <circle cx="0" cy="0" r="6" fill="#BF4080" />
      <text x="0" y="20" font-family="'SF Pro Text', -apple-system, BlinkMacSystemFont, sans-serif" font-size="12" fill="#FFFFFF" text-anchor="middle">Month 2</text>
      <text x="0" y="35" font-family="'SF Pro Text', -apple-system, BlinkMacSystemFont, sans-serif" font-size="12" fill="#FFFFFF" text-anchor="middle">Interactive Fiction</text>
      <text x="0" y="50" font-family="'SF Pro Text', -apple-system, BlinkMacSystemFont, sans-serif" font-size="10" fill="#5AC8FA" text-anchor="middle">$4.99/episode</text>
    </g>
    
    <g transform="translate(80, 30)">
      <circle cx="0" cy="0" r="6" fill="#BF4080" />
      <text x="0" y="20" font-family="'SF Pro Text', -apple-system, BlinkMacSystemFont, sans-serif" font-size="12" fill="#FFFFFF" text-anchor="middle">Month 4</text>
      <text x="0" y="35" font-family="'SF Pro Text', -apple-system, BlinkMacSystemFont, sans-serif" font-size="12" fill="#FFFFFF" text-anchor="middle">Content Calendar AI</text>
      <text x="0" y="50" font-family="'SF Pro Text', -apple-system, BlinkMacSystemFont, sans-serif" font-size="10" fill="#5AC8FA" text-anchor="middle">$14.99-29.99/mo</text>
    </g>
    
    <g transform="translate(240, 30)">
      <circle cx="0" cy="0" r="6" fill="#BF4080" />
      <text x="0" y="20" font-family="'SF Pro Text', -apple-system, BlinkMacSystemFont, sans-serif" font-size="12" fill="#FFFFFF" text-anchor="middle">Month 6</text>
      <text x="0" y="35" font-family="'SF Pro Text', -apple-system, BlinkMacSystemFont, sans-serif" font-size="12" fill="#FFFFFF" text-anchor="middle">Component Marketplace</text>
      <text x="0" y="50" font-family="'SF Pro Text', -apple-system, BlinkMacSystemFont, sans-serif" font-size="10" fill="#5AC8FA" text-anchor="middle">$49-149/template</text>
    </g>
  </g>
</svg>