<svg xmlns="http://www.w3.org/2000/svg" viewBox="0 0 900 600">
  <!-- Background -->
  <rect width="900" height="600" fill="#0A0621" />
  
  <!-- Dimensional grid with perspective effect -->
  <g opacity="0.12">
    <!-- Horizontal grid lines with quantum ripples -->
    <path d="M150,550 C300,545 600,555 750,550" stroke="#5AC8FA" stroke-width="1" />
    <path d="M120,500 C280,490 620,510 780,500" stroke="#5AC8FA" stroke-width="1" />
    <path d="M90,450 C260,435 640,465 810,450" stroke="#5AC8FA" stroke-width="1" />
    <path d="M70,400 C250,380 650,420 830,400" stroke="#5AC8FA" stroke-width="1" />
    <path d="M50,350 C240,325 660,375 850,350" stroke="#5AC8FA" stroke-width="1" />
    <path d="M40,300 C230,270 670,330 860,300" stroke="#5AC8FA" stroke-width="1" />
    <path d="M30,250 C220,215 680,285 870,250" stroke="#5AC8FA" stroke-width="1" />
    <path d="M25,200 C215,160 685,240 875,200" stroke="#5AC8FA" stroke-width="1" />
    <path d="M20,150 C210,105 690,195 880,150" stroke="#5AC8FA" stroke-width="1" />
    <path d="M15,100 C205,50 695,150 885,100" stroke="#5AC8FA" stroke-width="1" />
    
    <!-- Vertical grid lines with quantum ripples -->
    <path d="M150,100 C160,250 140,400 150,550" stroke="#5AC8FA" stroke-width="1" />
    <path d="M225,100 C235,250 215,400 225,550" stroke="#5AC8FA" stroke-width="1" />
    <path d="M300,100 C310,250 290,400 300,550" stroke="#5AC8FA" stroke-width="1" />
    <path d="M375,100 C385,250 365,400 375,550" stroke="#5AC8FA" stroke-width="1" />
    <path d="M450,100 C460,250 440,400 450,550" stroke="#5AC8FA" stroke-width="1" />
    <path d="M525,100 C535,250 515,400 525,550" stroke="#5AC8FA" stroke-width="1" />
    <path d="M600,100 C610,250 590,400 600,550" stroke="#5AC8FA" stroke-width="1" />
    <path d="M675,100 C685,250 665,400 675,550" stroke="#5AC8FA" stroke-width="1" />
    <path d="M750,100 C760,250 740,400 750,550" stroke="#5AC8FA" stroke-width="1" />
  </g>
  
  <!-- Random stars in background -->
  <g>
    <circle cx="80" cy="80" r="1.5" fill="#FFFFFF" />
    <circle cx="150" cy="120" r="1" fill="#FFFFFF" />
    <circle cx="320" cy="60" r="1.2" fill="#FFFFFF" />
    <circle cx="400" cy="90" r="1" fill="#FFFFFF" />
    <circle cx="520" cy="70" r="1.5" fill="#FFFFFF" />
    <circle cx="630" cy="110" r="1" fill="#FFFFFF" />
    <circle cx="750" cy="80" r="1.3" fill="#FFFFFF" />
    <circle cx="830" cy="130" r="1" fill="#FFFFFF" />
    <circle cx="240" cy="40" r="1.5" fill="#FFFFFF" />
    <circle cx="680" cy="40" r="1" fill="#FFFFFF" />
    
    <!-- The moons of Jrotharke with different colors as per lore -->
    <circle cx="780" cy="70" r="8" fill="#D10056" opacity="0.7" /> <!-- Ruby moon -->
    <circle cx="130" cy="60" r="10" fill="#A0E6BB" opacity="0.6" /> <!-- Pale green moon -->
    <circle cx="350" cy="40" r="7" fill="#9932CC" opacity="0.5" /> <!-- Purple moon -->
    <polygon points="580,50 595,65 575,70 560,60" fill="#E6E6FA" opacity="0.6" /> <!-- Irregular moon -->
  </g>
  
  <!-- Title -->
  <text x="450" y="60" font-family="'SF Pro Display', -apple-system, BlinkMacSystemFont, sans-serif" font-size="28" font-weight="bold" fill="#FFFFFF" text-anchor="middle">Jrotharke Idea-Matter Conversion</text>
  <text x="450" y="90" font-family="'SF Pro Display', -apple-system, BlinkMacSystemFont, sans-serif" font-size="16" fill="#5AC8FA" text-anchor="middle">Metaphysical Transformation in the Quantum-Spatial Plane</text>
  
  <!-- Main Visualization: Idea-Matter Conversion Flow -->
  <g transform="translate(450, 300)">
    <!-- Conceptual Regions -->
    <g>
      <!-- Idea Realm (Left Side) -->
      <ellipse cx="-200" cy="0" rx="150" ry="130" fill="#131A36" opacity="0.8" stroke="#6A3093" stroke-width="2" />
      <text x="-200" y="-90" font-family="'SF Pro Display', -apple-system, BlinkMacSystemFont, sans-serif" font-size="18" font-weight="bold" fill="#FFFFFF" text-anchor="middle">Idea Realm</text>
      <text x="-200" y="-70" font-family="'SF Pro Display', -apple-system, BlinkMacSystemFont, sans-serif" font-size="14" fill="#6A3093" text-anchor="middle">(Thought Forms)</text>
      
      <!-- Transitional Zone (Center) -->
      <ellipse cx="0" cy="0" rx="100" ry="180" fill="#331F4A" opacity="0.7" stroke="#BF4080" stroke-width="2" />
      <text x="0" y="-150" font-family="'SF Pro Display', -apple-system, BlinkMacSystemFont, sans-serif" font-size="18" font-weight="bold" fill="#FFFFFF" text-anchor="middle">Conversion Plane</text>
      <text x="0" y="-130" font-family="'SF Pro Display', -apple-system, BlinkMacSystemFont, sans-serif" font-size="14" fill="#BF4080" text-anchor="middle">(Idea-Matter Threshold)</text>
      
      <!-- Material Realm (Right Side) -->
      <ellipse cx="200" cy="0" rx="150" ry="130" fill="#131A36" opacity="0.8" stroke="#5AC8FA" stroke-width="2" />
      <text x="200" y="-90" font-family="'SF Pro Display', -apple-system, BlinkMacSystemFont, sans-serif" font-size="18" font-weight="bold" fill="#FFFFFF" text-anchor="middle">Material Realm</text>
      <text x="200" y="-70" font-family="'SF Pro Display', -apple-system, BlinkMacSystemFont, sans-serif" font-size="14" fill="#5AC8FA" text-anchor="middle">(Physical Matter)</text>
    </g>
    
    <!-- Idea-Matter Conversion Flow Diagram -->
    <g>
      <!-- Idea Formation and Densification -->
      <g transform="translate(-200, 0)">
        <!-- Thought/Idea formation -->
        <circle cx="-50" cy="-40" r="15" fill="none" stroke="#6A3093" stroke-width="1.5" />
        <circle cx="-50" cy="-40" r="10" fill="none" stroke="#6A3093" stroke-width="1" stroke-dasharray="3,3" />
        <circle cx="-50" cy="-40" r="5" fill="#6A3093" opacity="0.5" />
        
        <!-- Thought condensation -->
        <path d="M-50,-40 C-30,-35 -15,-45 0,-20" fill="none" stroke="#6A3093" stroke-width="1.5" stroke-dasharray="5,3" />
        
        <!-- Growing thought form -->
        <circle cx="0" cy="-20" r="20" fill="none" stroke="#6A3093" stroke-width="1.5" />
        <circle cx="0" cy="-20" r="12" fill="none" stroke="#6A3093" stroke-width="1" />
        <circle cx="0" cy="-20" r="5" fill="#6A3093" opacity="0.6" />
        
        <!-- Idea densification -->
        <path d="M0,-20 C20,-10 30,10 40,30" fill="none" stroke="#6A3093" stroke-width="1.5" />
        
        <!-- Dense idea ready for conversion -->
        <circle cx="40" cy="30" r="25" fill="none" stroke="#6A3093" stroke-width="2" />
        <circle cx="40" cy="30" r="15" fill="none" stroke="#6A3093" stroke-width="1.5" />
        <circle cx="40" cy="30" r="5" fill="#6A3093" opacity="0.7" />
        
        <!-- Flow to conversion threshold -->
        <path d="M40,30 C60,40 80,45 100,40" fill="none" stroke="#6A3093" stroke-width="2" stroke-dasharray="2,2" />
      </g>
      
      <!-- Conversion Process Center -->
      <g>
        <!-- Conversion field boundary - merging idea and matter -->
        <ellipse cx="0" cy="0" rx="60" ry="40" fill="none" stroke="#BF4080" stroke-width="1.5" stroke-dasharray="5,3" />
        <ellipse cx="0" cy="0" rx="40" ry="25" fill="none" stroke="#BF4080" stroke-width="1.5" stroke-dasharray="3,2" />
        <ellipse cx="0" cy="0" rx="20" ry="12" fill="none" stroke="#BF4080" stroke-width="1.5" />
        
        <!-- Energy bursts from conversion process -->
        <path d="M0,-40 L0,-30 M0,30 L0,40" stroke="#BF4080" stroke-width="1" />
        <path d="M-45,-20 L-35,-15 M35,-15 L45,-20" stroke="#BF4080" stroke-width="1" />
        <path d="M-45,20 L-35,15 M35,15 L45,20" stroke="#BF4080" stroke-width="1" />
        
        <!-- Conversion energy field -->
        <circle cx="0" cy="0" r="10" fill="#BF4080" opacity="0.3" />
        
        <!-- Quantum particles in the conversion field -->
        <rect x="-5" y="-15" width="6" height="6" fill="#6A3093" opacity="0.8" transform="rotate(15, -2, -12)" />
        <rect x="5" y="10" width="7" height="7" fill="#5AC8FA" opacity="0.8" transform="rotate(45, 8.5, 13.5)" />
        <rect x="-15" y="5" width="5" height="5" fill="#BF4080" opacity="0.9" transform="rotate(30, -12.5, 7.5)" />
        <rect x="12" y="-8" width="8" height="8" fill="#BF4080" opacity="0.9" transform="rotate(60, 16, -4)" />
        
        <!-- Transitional structure - half idea, half matter -->
        <path d="M-20,0 C-15,10 -5,15 0,15 C5,15 15,10 20,0 C15,-10 5,-15 0,-15 C-5,-15 -15,-10 -20,0 Z" fill="none" stroke="#FFFFFF" stroke-width="1" />
        <path d="M-20,0 C-15,10 -5,15 0,15" stroke="#6A3093" stroke-width="1.5" />
        <path d="M0,15 C5,15 15,10 20,0" stroke="#5AC8FA" stroke-width="1.5" />
        <path d="M20,0 C15,-10 5,-15 0,-15" stroke="#5AC8FA" stroke-width="1.5" />
        <path d="M0,-15 C-5,-15 -15,-10 -20,0" stroke="#6A3093" stroke-width="1.5" />
      </g>
      
      <!-- Material Manifestation -->
      <g transform="translate(200, 0)">
        <!-- Matter emergence from conversion -->
        <path d="M-100,40 C-80,45 -60,40 -40,30" fill="none" stroke="#5AC8FA" stroke-width="2" stroke-dasharray="2,2" />
        
        <!-- Forming physical matter -->
        <circle cx="-40" cy="30" r="25" fill="none" stroke="#5AC8FA" stroke-width="2" />
        <circle cx="-40" cy="30" r="15" fill="none" stroke="#5AC8FA" stroke-width="1.5" />
        <circle cx="-40" cy="30" r="5" fill="#5AC8FA" opacity="0.7" />
        
        <!-- Material formation process -->
        <path d="M-40,30 C-30,10 -20,-10 0,-20" fill="none" stroke="#5AC8FA" stroke-width="1.5" />
        
        <!-- Consolidated matter -->
        <circle cx="0" cy="-20" r="20" fill="none" stroke="#5AC8FA" stroke-width="1.5" />
        <circle cx="0" cy="-20" r="12" fill="none" stroke="#5AC8FA" stroke-width="1" />
        <circle cx="0" cy="-20" r="5" fill="#5AC8FA" opacity="0.6" />
        
        <!-- Final physical manifestation -->
        <path d="M0,-20 C15,-45 30,-35 50,-40" fill="none" stroke="#5AC8FA" stroke-width="1.5" stroke-dasharray="5,3" />
        
        <!-- Physical object -->
        <circle cx="50" cy="-40" r="15" fill="none" stroke="#5AC8FA" stroke-width="1.5" />
        <circle cx="50" cy="-40" r="10" fill="none" stroke="#5AC8FA" stroke-width="1" />
        <circle cx="50" cy="-40" r="5" fill="#5AC8FA" opacity="0.5" />
        
        <!-- Physical effects radiating from manifestation -->
        <path d="M65,-45 L75,-50 M60,-55 L65,-65" stroke="#5AC8FA" stroke-width="1" stroke-dasharray="2,1" />
        <path d="M40,-55 L35,-65 M35,-30 L25,-25" stroke="#5AC8FA" stroke-width="1" stroke-dasharray="2,1" />
      </g>
    </g>
    
    <!-- Process Indicators and Highlights -->
    <g>
      <!-- Quantum process markers -->
      <ellipse cx="-100" cy="-20" rx="10" ry="6" fill="none" stroke="#FFFFFF" stroke-width="1" stroke-dasharray="2,2" />
      <ellipse cx="0" cy="60" rx="10" ry="6" fill="none" stroke="#FFFFFF" stroke-width="1" stroke-dasharray="2,2" />
      <ellipse cx="100" cy="-20" rx="10" ry="6" fill="none" stroke="#FFFFFF" stroke-width="1" stroke-dasharray="2,2" />
      
      <!-- Energy flow indicators -->
      <path d="M-120,50 L-100,40 M-80,20 L-60,30" stroke="#6A3093" stroke-width="1" />
      <path d="M-20,0 L-10,10 M10,10 L20,0" stroke="#BF4080" stroke-width="1" />
      <path d="M60,30 L80,20 M100,40 L120,50" stroke="#5AC8FA" stroke-width="1" />
    </g>
  </g>
  
  <!-- Thaumaturgic Equations -->
  <g transform="translate(225, 140)">
    <rect x="-175" y="-20" width="350" height="100" rx="10" fill="#131A36" opacity="0.8" />
    <text x="0" y="0" font-family="'SF Pro Display', -apple-system, BlinkMacSystemFont, sans-serif" font-size="16" font-weight="bold" fill="#FFFFFF" text-anchor="middle">Thaumaturgic Equations</text>
    
    <!-- Mathematical formula for idea to matter conversion -->
    <text x="0" y="30" font-family="'SF Mono', monospace" font-size="14" fill="#BF4080" text-anchor="middle">I × (Ec² / Sv) = M + Er</text>
    
    <!-- Legend -->
    <g transform="translate(-150, 60)">
      <text x="0" y="0" font-family="'SF Mono', monospace" font-size="12" fill="#6A3093" text-anchor="start">I = Idea Intensity</text>
    </g>
    
    <g transform="translate(-30, 60)">
      <text x="0" y="0" font-family="'SF Mono', monospace" font-size="12" fill="#FFFFFF" text-anchor="start">Ec = Energy Catalyst</text>
    </g>
    
    <g transform="translate(100, 60)">
      <text x="0" y="0" font-family="'SF Mono', monospace" font-size="12" fill="#5AC8FA" text-anchor="start">M = Material Mass</text>
    </g>
    
    <g transform="translate(0, 80)">
      <text x="0" y="0" font-family="'SF Mono', monospace" font-size="12" fill="#BF4080" text-anchor="middle">Sv = Spatial Variance • Er = Energy Released</text>
    </g>
  </g>
  
  <!-- Application Methods -->
  <g transform="translate(675, 140)">
    <rect x="-175" y="-20" width="350" height="100" rx="10" fill="#131A36" opacity="0.8" />
    <text x="0" y="0" font-family="'SF Pro Display', -apple-system, BlinkMacSystemFont, sans-serif" font-size="16" font-weight="bold" fill="#FFFFFF" text-anchor="middle">Conversion Techniques</text>
    
    <!-- Methods list -->
    <g transform="translate(-150, 25)">
      <rect x="-7" y="-7" width="8" height="8" fill="#BF4080" opacity="0.8" />
      <text x="10" y="0" font-family="'SF Pro Text', -apple-system, BlinkMacSystemFont, sans-serif" font-size="12" fill="#FFFFFF" text-anchor="start">Thought Precipitation</text>
    </g>
    
    <g transform="translate(-150, 50)">
      <rect x="-7" y="-7" width="8" height="8" fill="#BF4080" opacity="0.8" />
      <text x="10" y="0" font-family="'SF Pro Text', -apple-system, BlinkMacSystemFont, sans-serif" font-size="12" fill="#FFFFFF" text-anchor="start">Conceptual Infusion</text>
    </g>
    
    <g transform="translate(-150, 75)">
      <rect x="-7" y="-7" width="8" height="8" fill="#BF4080" opacity="0.8" />
      <text x="10" y="0" font-family="'SF Pro Text', -apple-system, BlinkMacSystemFont, sans-serif" font-size="12" fill="#FFFFFF" text-anchor="start">Essence Distillation</text>
    </g>
    
    <g transform="translate(20, 25)">
      <rect x="-7" y="-7" width="8" height="8" fill="#BF4080" opacity="0.8" />
      <text x="10" y="0" font-family="'SF Pro Text', -apple-system, BlinkMacSystemFont, sans-serif" font-size="12" fill="#FFFFFF" text-anchor="start">Quantum Stabilization</text>
    </g>
    
    <g transform="translate(20, 50)">
      <rect x="-7" y="-7" width="8" height="8" fill="#BF4080" opacity="0.8" />
      <text x="10" y="0" font-family="'SF Pro Text', -apple-system, BlinkMacSystemFont, sans-serif" font-size="12" fill="#FFFFFF" text-anchor="start">Willpower Reification</text>
    </g>
    
    <g transform="translate(20, 75)">
      <rect x="-7" y="-7" width="8" height="8" fill="#BF4080" opacity="0.8" />
      <text x="10" y="0" font-family="'SF Pro Text', -apple-system, BlinkMacSystemFont, sans-serif" font-size="12" fill="#FFFFFF" text-anchor="start">Dreamscape Harvesting</text>
    </g>
  </g>
  
  <!-- Conversion Process Details -->
  <g transform="translate(450, 520)">
    <rect x="-420" y="-30" width="840" height="90" rx="10" fill="#131A36" opacity="0.9" />
    <text x="0" y="-5" font-family="'SF Pro Display', -apple-system, BlinkMacSystemFont, sans-serif" font-size="16" font-weight="bold" fill="#FFFFFF" text-anchor="middle">Gameplay Implementation of Idea-Matter Conversion</text>
    
    <!-- Three columns of gameplay implications -->
    <g transform="translate(-280, 25)">
      <rect x="-20" y="-7" width="8" height="8" fill="#6A3093" />
      <rect x="-12" y="-7" width="8" height="8" fill="#BF4080" />
      <text x="0" y="0" font-family="'SF Pro Text', -apple-system, BlinkMacSystemFont, sans-serif" font-size="14" fill="#FFFFFF" text-anchor="start">Spell Crafting System</text>
      <text x="0" y="20" font-family="'SF Pro Text', -apple-system, BlinkMacSystemFont, sans-serif" font-size="11" fill="#FFFFFF" text-anchor="start">Visualize thoughts before casting</text>
    </g>
    
    <g transform="translate(0, 25)">
      <rect x="-20" y="-7" width="8" height="8" fill="#6A3093" />
      <rect x="-12" y="-7" width="8" height="8" fill="#BF4080" />
      <text x="0" y="0" font-family="'SF Pro Text', -apple-system, BlinkMacSystemFont, sans-serif" font-size="14" fill="#FFFFFF" text-anchor="start">Item Creation Mini-Game</text>
      <text x="0" y="20" font-family="'SF Pro Text', -apple-system, BlinkMacSystemFont, sans-serif" font-size="11" fill="#FFFFFF" text-anchor="start">Transform concepts into equipment</text>
    </g>
    
    <g transform="translate(280, 25)">
      <rect x="-20" y="-7" width="8" height="8" fill="#6A3093" />
      <rect x="-12" y="-7" width="8" height="8" fill="#BF4080" />
      <text x="0" y="0" font-family="'SF Pro Text', -apple-system, BlinkMacSystemFont, sans-serif" font-size="14" fill="#FFFFFF" text-anchor="start">Neural Engine Simulation</text>
      <text x="0" y="20" font-family="'SF Pro Text', -apple-system, BlinkMacSystemFont, sans-serif" font-size="11" fill="#FFFFFF" text-anchor="start">M4-powered conversion physics</text>
    </g>
  </g>
  
  <!-- 4D Quantum Spatial Indicators -->
  <g>
    <!-- Hints of the 4th dimension intersecting with the primary planes -->
    <path d="M120,120 C140,100 160,130 145,150" fill="none" stroke="#BF4080" stroke-width="1" stroke-dasharray="5,5" opacity="0.7" />
    <path d="M750,170 C730,150 710,180 730,200" fill="none" stroke="#BF4080" stroke-width="1" stroke-dasharray="5,5" opacity="0.7" />
    <path d="M300,500 C320,480 340,510 325,530" fill="none" stroke="#BF4080" stroke-width="1" stroke-dasharray="5,5" opacity="0.7" />
    <path d="M600,450 C580,430 560,460 580,480" fill="none" stroke="#BF4080" stroke-width="1" stroke-dasharray="5,5" opacity="0.7" />
    
    <!-- 4D transition points -->
    <circle cx="145" cy="150" r="5" fill="#BF4080" opacity="0.5" />
    <circle cx="730" cy="200" r="5" fill="#BF4080" opacity="0.5" />
    <circle cx="325" cy="530" r="5" fill="#BF4080" opacity="0.5" />
    <circle cx="580" cy="480" r="5" fill="#BF4080" opacity="0.5" />
    
    <!-- Quantum spatial anomalies - ripples where 4D space intersects 3D -->
    <ellipse cx="145" cy="150" rx="15" ry="10" fill="none" stroke="#BF4080" stroke-width="1" stroke-dasharray="2,2" opacity="0.5" />
    <ellipse cx="730" cy="200" rx="15" ry="10" fill="none" stroke="#BF4080" stroke-width="1" stroke-dasharray="2,2" opacity="0.5" />
    <ellipse cx="325" cy="530" rx="15" ry="10" fill="none" stroke="#BF4080" stroke-width="1" stroke-dasharray="2,2" opacity="0.5" />
    <ellipse cx="580" cy="480" rx="15" ry="10" fill="none" stroke="#BF4080" stroke-width="1" stroke-dasharray="2,2" opacity="0.5" />
  </g>
</svg>