<svg xmlns="http://www.w3.org/2000/svg" viewBox="0 0 900 600">
  <!-- Background -->
  <rect width="900" height="600" fill="#0A0621" />
  
  <!-- Dimensional grid with perspective effect for magical plane visualization -->
  <g opacity="0.12">
    <!-- Horizontal grid lines with magical energy flow distortion -->
    <path d="M150,550 Q450,530 750,550" stroke="#5AC8FA" stroke-width="1" />
    <path d="M125,500 Q450,490 775,500" stroke="#5AC8FA" stroke-width="1" />
    <path d="M100,450 Q450,440 800,450" stroke="#5AC8FA" stroke-width="1" />
    <path d="M75,400 Q450,390 825,400" stroke="#5AC8FA" stroke-width="1" />
    <path d="M65,350 Q450,340 835,350" stroke="#5AC8FA" stroke-width="1" />
    <path d="M55,300 Q450,290 845,300" stroke="#5AC8FA" stroke-width="1" />
    <path d="M45,250 Q450,240 855,250" stroke="#5AC8FA" stroke-width="1" />
    <path d="M35,200 Q450,190 865,200" stroke="#5AC8FA" stroke-width="1" />
    <path d="M25,150 Q450,140 875,150" stroke="#5AC8FA" stroke-width="1" />
    <path d="M20,100 Q450,90 880,100" stroke="#5AC8FA" stroke-width="1" />
    
    <!-- Vertical grid lines with magical flow distortion -->
    <path d="M150,100 Q160,300 150,550" stroke="#5AC8FA" stroke-width="1" />
    <path d="M225,100 Q235,300 225,550" stroke="#5AC8FA" stroke-width="1" />
    <path d="M300,100 Q310,300 300,550" stroke="#5AC8FA" stroke-width="1" />
    <path d="M375,100 Q385,300 375,550" stroke="#5AC8FA" stroke-width="1" />
    <path d="M450,100 Q460,300 450,550" stroke="#5AC8FA" stroke-width="1" />
    <path d="M525,100 Q535,300 525,550" stroke="#5AC8FA" stroke-width="1" />
    <path d="M600,100 Q610,300 600,550" stroke="#5AC8FA" stroke-width="1" />
    <path d="M675,100 Q685,300 675,550" stroke="#5AC8FA" stroke-width="1" />
    <path d="M750,100 Q760,300 750,550" stroke="#5AC8FA" stroke-width="1" />
  </g>
  
  <!-- Random stars and moons in background -->
  <g>
    <circle cx="80" cy="80" r="1.5" fill="#FFFFFF" />
    <circle cx="120" cy="60" r="1" fill="#FFFFFF" />
    <circle cx="200" cy="110" r="1.2" fill="#FFFFFF" />
    <circle cx="350" cy="70" r="1" fill="#FFFFFF" />
    <circle cx="400" cy="120" r="1.5" fill="#FFFFFF" />
    <circle cx="480" cy="60" r="1" fill="#FFFFFF" />
    <circle cx="560" cy="100" r="1.3" fill="#FFFFFF" />
    <circle cx="650" cy="80" r="1" fill="#FFFFFF" />
    <circle cx="720" cy="50" r="1.5" fill="#FFFFFF" />
    <circle cx="820" cy="120" r="1" fill="#FFFFFF" />
    
    <!-- Colorful moons (based on lore) -->
    <circle cx="780" cy="80" r="6" fill="#D10056" opacity="0.7" /> <!-- Ruby moon -->
    <circle cx="120" cy="70" r="8" fill="#A0E6BB" opacity="0.6" /> <!-- Pale green moon -->
    <circle cx="600" cy="60" r="7" fill="#9932CC" opacity="0.5" /> <!-- Violet moon -->
    <circle cx="300" cy="90" r="5" fill="#FF4500" opacity="0.4" /> <!-- Red-orange moon -->
    
    <!-- Non-circular moon -->
    <polygon points="450,50 470,60 465,75 445,70" fill="#E6E6FA" opacity="0.6" />
  </g>
  
  <!-- Title -->
  <text x="450" y="60" font-family="'SF Pro Display', -apple-system, BlinkMacSystemFont, sans-serif" font-size="28" font-weight="bold" fill="#FFFFFF" text-anchor="middle">Jrotharke Magical Systems</text>
  <text x="450" y="95" font-family="'SF Pro Display', -apple-system, BlinkMacSystemFont, sans-serif" font-size="20" fill="#5AC8FA" text-anchor="middle">M4-Optimized Neural Engine Visualization</text>
  
  <!-- Main visualization: Three Magical Systems -->
  <g>
    <!-- Magic Type 1: Duration by Heartbeat (Jrotite) -->
    <g transform="translate(225, 275)">
      <ellipse cx="0" cy="0" rx="150" ry="140" fill="#131A36" opacity="0.8" stroke="#5AC8FA" stroke-width="2" />
      
      <!-- Title -->
      <text x="0" y="-100" font-family="'SF Pro Display', -apple-system, BlinkMacSystemFont, sans-serif" font-size="20" font-weight="bold" fill="#FFFFFF" text-anchor="middle">Jrotite Magic</text>
      <text x="0" y="-80" font-family="'SF Pro Display', -apple-system, BlinkMacSystemFont, sans-serif" font-size="14" fill="#5AC8FA" text-anchor="middle">Duration by Heartbeat</text>
      
      <!-- Heartbeat visualization -->
      <g transform="translate(0, -20)">
        <!-- EKG line -->
        <path d="M-100,0 L-70,0 L-60,-40 L-40,80 L-20,-20 L0,0 L30,0" fill="none" stroke="#5AC8FA" stroke-width="3" />
        <path d="M30,0 L70,0 L80,-40 L100,80" fill="none" stroke="#5AC8FA" stroke-width="3" stroke-opacity="0.5" />
        
        <!-- Heart symbol with magical connection -->
        <path d="M-15,55 C-40,30 -40,0 -15,25 C10,0 10,30 -15,55" fill="#BF4080" opacity="0.7" />
        <path d="M-5,30 C-15,20 -15,10 -5,20 C5,10 5,20 -5,30" fill="#5AC8FA" opacity="0.7" />
        
        <!-- Magical pulse indicators -->
        <circle cx="-70" cy="0" r="3" fill="#FFFFFF" />
        <circle cx="-40" cy="80" r="3" fill="#FFFFFF" />
        <circle cx="-20" cy="-20" r="3" fill="#FFFFFF" />
        <circle cx="70" cy="0" r="3" fill="#FFFFFF" />
        <circle cx="100" cy="80" r="3" fill="#FFFFFF" />
      </g>
      
      <!-- Gray human with visible heartbeat -->
      <g transform="translate(0, 70)">
        <!-- Gray human silhouette -->
        <path d="M0,-30 C-5,-40 -15,-40 -10,-30 S0,-35 10,-30 S5,-40 0,-30" fill="#708090" /> <!-- Head -->
        <rect x="-15" y="-30" width="30" height="40" rx="5" fill="#708090" /> <!-- Torso -->
        <rect x="-25" y="-15" width="10" height="30" rx="3" fill="#708090" /> <!-- Left arm -->
        <rect x="15" y="-15" width="10" height="30" rx="3" fill="#708090" /> <!-- Right arm -->
        <rect x="-12" y="10" width="10" height="35" rx="3" fill="#708090" /> <!-- Left leg -->
        <rect x="2" y="10" width="10" height="35" rx="3" fill="#708090" /> <!-- Right leg -->
        
        <!-- Visible heartbeat effect -->
        <ellipse cx="0" cy="-10" rx="10" ry="12" fill="none" stroke="#5AC8FA" stroke-width="1.5" stroke-dasharray="2,2" />
        <path d="M-5,-10 L-3,-13 L0,-8 L3,-13 L5,-10" fill="none" stroke="#5AC8FA" stroke-width="1.5" />
      </g>
      
      <!-- Magical effect duration explanation -->
      <rect x="-125" y="50" width="250" height="40" rx="5" fill="#331F4A" opacity="0.7" />
      <text x="0" y="65" font-family="'SF Pro Text', -apple-system, BlinkMacSystemFont, sans-serif" font-size="11" fill="#FFFFFF" text-anchor="middle">Spell lasts for 100-1000 heartbeats</text>
      <text x="0" y="80" font-family="'SF Pro Text', -apple-system, BlinkMacSystemFont, sans-serif" font-size="11" fill="#FFFFFF" text-anchor="middle">Combat exertion shortens duration</text>
    </g>
    
    <!-- Magic Type 2: Duration by Breath (Hacrothite) -->
    <g transform="translate(675, 275)">
      <ellipse cx="0" cy="0" rx="150" ry="140" fill="#131A36" opacity="0.8" stroke="#6A3093" stroke-width="2" />
      
      <!-- Title -->
      <text x="0" y="-100" font-family="'SF Pro Display', -apple-system, BlinkMacSystemFont, sans-serif" font-size="20" font-weight="bold" fill="#FFFFFF" text-anchor="middle">Hacrothite Magic</text>
      <text x="0" y="-80" font-family="'SF Pro Display', -apple-system, BlinkMacSystemFont, sans-serif" font-size="14" fill="#6A3093" text-anchor="middle">Duration by Breath</text>
      
      <!-- Breath visualization -->
      <g transform="translate(0, -20)">
        <!-- Breath waveform -->
        <path d="M-100,20 C-60,-20 -20,60 20,-20 C60,60 100,20 100,20" fill="none" stroke="#6A3093" stroke-width="3" />
        
        <!-- Lungs visualization with magical connection -->
        <path d="M-20,60 C-40,30 -40,80 -20,50 C0,80 0,30 -20,60" fill="#6A3093" opacity="0.5" />
        <path d="M20,60 C40,30 40,80 20,50 C0,80 0,30 20,60" fill="#6A3093" opacity="0.5" />
        <path d="M0,40 L0,30" stroke="#6A3093" stroke-width="2" />
        <ellipse cx="0" cy="25" rx="5" ry="3" fill="#6A3093" opacity="0.7" />
        
        <!-- Magical breath indicators -->
        <circle cx="-60" cy="-10" r="3" fill="#FFFFFF" />
        <circle cx="-20" cy="50" r="3" fill="#FFFFFF" />
        <circle cx="20" cy="-10" r="3" fill="#FFFFFF" />
        <circle cx="60" cy="50" r="3" fill="#FFFFFF" />
      </g>
      
      <!-- Gray human with visible breath -->
      <g transform="translate(0, 70)">
        <!-- Gray human silhouette (different region tint as per lore) -->
        <path d="M0,-30 C-5,-40 -15,-40 -10,-30 S0,-35 10,-30 S5,-40 0,-30" fill="#708090" /> <!-- Head -->
        <rect x="-15" y="-30" width="30" height="40" rx="5" fill="#708090" /> <!-- Torso -->
        <rect x="-25" y="-15" width="10" height="30" rx="3" fill="#708090" /> <!-- Left arm -->
        <rect x="15" y="-15" width="10" height="30" rx="3" fill="#708090" /> <!-- Right arm -->
        <rect x="-12" y="10" width="10" height="35" rx="3" fill="#708090" /> <!-- Left leg -->
        <rect x="2" y="10" width="10" height="35" rx="3" fill="#708090" /> <!-- Right leg -->
        
        <!-- Visible breath effect -->
        <path d="M0,-25 C5,-27 10,-25 10,-22 C10,-18 0,-20 0,-17 C0,-14 10,-16 10,-12 C10,-7 0,-10 0,-25" fill="none" stroke="#6A3093" stroke-width="1" opacity="0.8" />
      </g>
      
      <!-- Magical effect duration explanation -->
      <rect x="-125" y="50" width="250" height="40" rx="5" fill="#331F4A" opacity="0.7" />
      <text x="0" y="65" font-family="'SF Pro Text', -apple-system, BlinkMacSystemFont, sans-serif" font-size="11" fill="#FFFFFF" text-anchor="middle">Spell lasts for a few dozen breaths</text>
      <text x="0" y="80" font-family="'SF Pro Text', -apple-system, BlinkMacSystemFont, sans-serif" font-size="11" fill="#FFFFFF" text-anchor="middle">Holding breath extends magical effect</text>
    </g>
    
    <!-- Magic Type 3: Duration by Steps (Cholashite) -->
    <g transform="translate(450, 490)">
      <ellipse cx="0" cy="0" rx="150" ry="90" fill="#131A36" opacity="0.8" stroke="#BF4080" stroke-width="2" />
      
      <!-- Title -->
      <text x="0" y="-65" font-family="'SF Pro Display', -apple-system, BlinkMacSystemFont, sans-serif" font-size="20" font-weight="bold" fill="#FFFFFF" text-anchor="middle">Cholashite Magic</text>
      <text x="0" y="-45" font-family="'SF Pro Display', -apple-system, BlinkMacSystemFont, sans-serif" font-size="14" fill="#BF4080" text-anchor="middle">Duration by Steps</text>
      
      <!-- Step visualization -->
      <g transform="translate(0, -10)">
        <!-- Footstep pattern -->
        <path d="M-100,0 L-70,0" stroke="#BF4080" stroke-width="2" />
        <path d="M-60,0 L-30,0" stroke="#BF4080" stroke-width="2" />
        <path d="M-20,0 L10,0" stroke="#BF4080" stroke-width="2" />
        <path d="M20,0 L50,0" stroke="#BF4080" stroke-width="2" />
        <path d="M60,0 L90,0" stroke="#BF4080" stroke-width="2" />
        
        <!-- Footprint symbols -->
        <path d="M-80,-5 C-85,-8 -90,-5 -85,0 C-80,5 -75,5 -70,0 C-65,-5 -70,-8 -75,-5 Z" fill="#BF4080" opacity="0.7" />
        <path d="M-40,-5 C-45,-8 -50,-5 -45,0 C-40,5 -35,5 -30,0 C-25,-5 -30,-8 -35,-5 Z" fill="#BF4080" opacity="0.7" />
        <path d="M0,-5 C-5,-8 -10,-5 -5,0 C0,5 5,5 10,0 C15,-5 10,-8 5,-5 Z" fill="#BF4080" opacity="0.7" />
        <path d="M40,-5 C35,-8 30,-5 35,0 C40,5 45,5 50,0 C55,-5 50,-8 45,-5 Z" fill="#BF4080" opacity="0.7" />
        <path d="M80,-5 C75,-8 70,-5 75,0 C80,5 85,5 90,0 C95,-5 90,-8 85,-5 Z" fill="#BF4080" opacity="0.7" />
      </g>
      
      <!-- Gray human with visible step indication -->
      <g transform="translate(0, 40)">
        <!-- Gray human silhouette (with mauve tinge as per lore) -->
        <path d="M0,-30 C-5,-40 -15,-40 -10,-30 S0,-35 10,-30 S5,-40 0,-30" fill="#896878" /> <!-- Head with mauve tint -->
        <rect x="-15" y="-30" width="30" height="40" rx="5" fill="#896878" /> <!-- Torso with mauve tint -->
        <rect x="-25" y="-15" width="10" height="30" rx="3" fill="#896878" /> <!-- Left arm -->
        <rect x="15" y="-15" width="10" height="30" rx="3" fill="#896878" /> <!-- Right arm -->
        <rect x="-12" y="10" width="10" height="35" rx="3" fill="#896878" /> <!-- Left leg -->
        <rect x="2" y="10" width="10" height="35" rx="3" fill="#896878" /> <!-- Right leg -->
        
        <!-- Visible step effect -->
        <ellipse cx="-7" cy="45" rx="7" ry="3" fill="none" stroke="#BF4080" stroke-width="1" stroke-dasharray="2,1" />
        <ellipse cx="7" cy="45" rx="7" ry="3" fill="none" stroke="#BF4080" stroke-width="1" stroke-dasharray="2,1" />
      </g>
      
      <!-- Magical effect duration explanation -->
      <rect x="-125" y="30" width="250" height="40" rx="5" fill="#331F4A" opacity="0.7" />
      <text x="0" y="45" font-family="'SF Pro Text', -apple-system, BlinkMacSystemFont, sans-serif" font-size="11" fill="#FFFFFF" text-anchor="middle">Spell lasts for about 20 steps</text>
      <text x="0" y="60" font-family="'SF Pro Text', -apple-system, BlinkMacSystemFont, sans-serif" font-size="11" fill="#FFFFFF" text-anchor="middle">Standing still maintains the magic indefinitely</text>
    </g>
  </g>
  
  <!-- Secondary Magical Systems Section -->
  <g transform="translate(450, 195)">
    <rect x="-425" y="-30" width="850" height="60" rx="8" fill="#131A36" opacity="0.7" />
    <text x="0" y="0" font-family="'SF Pro Display', -apple-system, BlinkMacSystemFont, sans-serif" font-size="16" font-weight="bold" fill="#FFFFFF" text-anchor="middle">Secondary Magical Systems</text>
    
    <!-- Two-column layout -->
    <g transform="translate(-210, 15)">
      <text x="0" y="0" font-family="'SF Pro Text', -apple-system, BlinkMacSystemFont, sans-serif" font-size="14" fill="#5AC8FA" text-anchor="middle">Human vs Monster Magic</text>
      <rect x="-190" y="5" width="380" height="1" fill="#5AC8FA" opacity="0.5" />
      <text x="0" y="20" font-family="'SF Pro Text', -apple-system, BlinkMacSystemFont, sans-serif" font-size="11" fill="#FFFFFF" text-anchor="middle">Talismans and weapons are enchanted for either humans OR monsters, not both</text>
    </g>
    
    <g transform="translate(210, 15)">
      <text x="0" y="0" font-family="'SF Pro Text', -apple-system, BlinkMacSystemFont, sans-serif" font-size="14" fill="#BF4080" text-anchor="middle">Sorcery vs Common Magic</text>
      <rect x="-190" y="5" width="380" height="1" fill="#BF4080" opacity="0.5" />
      <text x="0" y="20" font-family="'SF Pro Text', -apple-system, BlinkMacSystemFont, sans-serif" font-size="11" fill="#FFFFFF" text-anchor="middle">Sorcery creates effects outside natural world order, unlike common magic</text>
    </g>
  </g>
  
  <!-- M4 Development Toolkit Benefits -->
  <g transform="translate(450, 580)">
    <rect x="-410" y="-30" width="820" height="50" rx="8" fill="#131A36" opacity="0.8" />
    
    <text x="0" y="-10" font-family="'SF Pro Display', -apple-system, BlinkMacSystemFont, sans-serif" font-size="16" font-weight="bold" fill="#FFFFFF" text-anchor="middle">M4-Optimized Magic System Development Benefits</text>
    
    <!-- 4-column layout -->
    <g transform="translate(-310, 15)">
      <rect x="-20" y="-7" width="8" height="8" fill="#5AC8FA" />
      <rect x="-12" y="-7" width="8" height="8" fill="#6A3093" />
      <text x="0" y="0" font-family="'SF Pro Text', -apple-system, BlinkMacSystemFont, sans-serif" font-size="12" fill="#FFFFFF" text-anchor="start">Neural Engine-Powered</text>
      <text x="0" y="15" font-family="'SF Pro Text', -apple-system, BlinkMacSystemFont, sans-serif" font-size="10" fill="#FFFFFF" text-anchor="start">Magical Effect Simulation</text>
    </g>
    
    <g transform="translate(-100, 15)">
      <rect x="-20" y="-7" width="8" height="8" fill="#5AC8FA" />
      <rect x="-12" y="-7" width="8" height="8" fill="#6A3093" />
      <text x="0" y="0" font-family="'SF Pro Text', -apple-system, BlinkMacSystemFont, sans-serif" font-size="12" fill="#FFFFFF" text-anchor="start">Local ML Processing for</text>
      <text x="0" y="15" font-family="'SF Pro Text', -apple-system, BlinkMacSystemFont, sans-serif" font-size="10" fill="#FFFFFF" text-anchor="start">Private Spell Development</text>
    </g>
    
    <g transform="translate(105, 15)">
      <rect x="-20" y="-7" width="8" height="8" fill="#5AC8FA" />
      <rect x="-12" y="-7" width="8" height="8" fill="#6A3093" />
      <text x="0" y="0" font-family="'SF Pro Text', -apple-system, BlinkMacSystemFont, sans-serif" font-size="12" fill="#FFFFFF" text-anchor="start">60-90 FPS Magic</text>
      <text x="0" y="15" font-family="'SF Pro Text', -apple-system, BlinkMacSystemFont, sans-serif" font-size="10" fill="#FFFFFF" text-anchor="start">Visual Effect Rendering</text>
    </g>
    
    <g transform="translate(310, 15)">
      <rect x="-20" y="-7" width="8" height="8" fill="#5AC8FA" />
      <rect x="-12" y="-7" width="8" height="8" fill="#6A3093" />
      <text x="0" y="0" font-family="'SF Pro Text', -apple-system, BlinkMacSystemFont, sans-serif" font-size="12" fill="#FFFFFF" text-anchor="start">Metal-Accelerated</text>
      <text x="0" y="15" font-family="'SF Pro Text', -apple-system, BlinkMacSystemFont, sans-serif" font-size="10" fill="#FFFFFF" text-anchor="start">Spirit Visualization</text>
    </g>
  </g>
</svg>