<svg xmlns="http://www.w3.org/2000/svg" viewBox="0 0 900 600">
  <!-- Background -->
  <rect width="900" height="600" fill="#0A0621" />
  
  <!-- Dimensional grid with perspective effect -->
  <g opacity="0.12">
    <!-- Horizontal grid lines with wave distortion -->
    <path d="M150,550 Q450,535 750,550" stroke="#5AC8FA" stroke-width="1" />
    <path d="M100,500 Q450,485 800,500" stroke="#5AC8FA" stroke-width="1" />
    <path d="M75,450 Q450,435 825,450" stroke="#5AC8FA" stroke-width="1" />
    <path d="M50,400 Q450,385 850,400" stroke="#5AC8FA" stroke-width="1" />
    <path d="M40,350 Q450,335 860,350" stroke="#5AC8FA" stroke-width="1" />
    <path d="M30,300 Q450,290 870,300" stroke="#5AC8FA" stroke-width="1" />
    <path d="M25,250 Q450,235 875,250" stroke="#5AC8FA" stroke-width="1" />
    <path d="M20,200 Q450,185 880,200" stroke="#5AC8FA" stroke-width="1" />
    <path d="M15,150 Q450,135 885,150" stroke="#5AC8FA" stroke-width="1" />
    <path d="M10,100 Q450,85 890,100" stroke="#5AC8FA" stroke-width="1" />
    
    <!-- Vertical grid lines with frequency distortion -->
    <path d="M150,100 Q160,300 150,550" stroke="#5AC8FA" stroke-width="1" />
    <path d="M225,100 Q235,300 225,550" stroke="#5AC8FA" stroke-width="1" />
    <path d="M300,100 Q310,300 300,550" stroke="#5AC8FA" stroke-width="1" />
    <path d="M375,100 Q385,300 375,550" stroke="#5AC8FA" stroke-width="1" />
    <path d="M450,100 Q460,300 450,550" stroke="#5AC8FA" stroke-width="1" />
    <path d="M525,100 Q535,300 525,550" stroke="#5AC8FA" stroke-width="1" />
    <path d="M600,100 Q610,300 600,550" stroke="#5AC8FA" stroke-width="1" />
    <path d="M675,100 Q685,300 675,550" stroke="#5AC8FA" stroke-width="1" />
    <path d="M750,100 Q760,300 750,550" stroke="#5AC8FA" stroke-width="1" />
  </g>
  
  <!-- Starfield effect -->
  <g>
    <!-- Stars -->
    <circle cx="80" cy="65" r="1" fill="#FFFFFF" />
    <circle cx="150" cy="120" r="1.5" fill="#FFFFFF" />
    <circle cx="210" cy="40" r="1" fill="#FFFFFF" />
    <circle cx="350" cy="75" r="1.2" fill="#FFFFFF" />
    <circle cx="420" cy="95" r="1" fill="#FFFFFF" />
    <circle cx="500" cy="45" r="1.5" fill="#FFFFFF" />
    <circle cx="580" cy="115" r="1" fill="#FFFFFF" />
    <circle cx="650" cy="60" r="1.2" fill="#FFFFFF" />
    <circle cx="720" cy="85" r="1" fill="#FFFFFF" />
    <circle cx="800" cy="70" r="1.5" fill="#FFFFFF" />
    
    <!-- Distant moons (from Jrotharke lore) -->
    <circle cx="120" cy="80" r="7" fill="#D10056" opacity="0.5" /> <!-- Ruby moon -->
    <circle cx="550" cy="70" r="8" fill="#9932CC" opacity="0.4" /> <!-- Violet moon -->
    <circle cx="780" cy="65" r="6" fill="#A0E6BB" opacity="0.4" /> <!-- Pale green moon -->
    
    <!-- Non-circular moon -->
    <polygon points="325,55 345,65 335,80 320,70" fill="#E6E6FA" opacity="0.6" />
  </g>
  
  <!-- Title -->
  <text x="450" y="60" font-family="'SF Pro Display', -apple-system, BlinkMacSystemFont, sans-serif" font-size="28" font-weight="bold" fill="#FFFFFF" text-anchor="middle">Resonance Harmonics Between Realms</text>
  <text x="450" y="90" font-family="'SF Pro Display', -apple-system, BlinkMacSystemFont, sans-serif" font-size="18" fill="#5AC8FA" text-anchor="middle">Vibrational Frequencies &amp; Cross-Realm Transformations</text>
  
  <!-- Main visualization: Central spectral analyzer with Earth and Jrotharke frequencies -->
  <g transform="translate(450, 300)">
    <!-- Frequency visualization backdrop -->
    <rect x="-400" y="-150" width="800" height="300" rx="10" fill="#131A36" opacity="0.7" />
    
    <!-- Earth Frequency Patterns (left side) -->
    <g transform="translate(-250, 0)">
      <!-- Earth label -->
      <text x="0" y="-130" font-family="'SF Pro Display', -apple-system, BlinkMacSystemFont, sans-serif" font-size="18" font-weight="bold" fill="#FFFFFF" text-anchor="middle">Earth Vibrational Frequencies</text>
      
      <!-- Earth frequency visualization - more regular, ordered -->
      <g>
        <!-- Base frequency line -->
        <path d="M-100,0 L100,0" stroke="#333333" stroke-width="1" />
        
        <!-- Regular Earth frequencies - more predictable and uniform -->
        <!-- Technology frequency -->
        <path d="M-100,0 C-90,-20 -80,20 -70,-20 C-60,20 -50,-20 -40,20 C-30,-20 -20,20 -10,-20 C0,20 10,-20 20,20 C30,-20 40,20 50,-20 C60,20 70,-20 80,20 C90,-20 100,0 100,0" stroke="#5AC8FA" stroke-width="1.5" fill="none" />
        
        <!-- Biological frequency -->
        <path d="M-100,0 C-90,-30 -80,10 -70,-10 C-60,30 -50,-30 -40,10 C-30,-10 -20,30 -10,-30 C0,10 10,-10 20,30 C30,-30 40,10 50,-10 C60,30 70,-30 80,10 C90,-10 100,0 100,0" stroke="#2D854D" stroke-width="1.5" fill="none" />
        
        <!-- Mineral frequency -->
        <path d="M-100,0 C-90,-5 -80,5 -70,-5 C-60,5 -50,-5 -40,5 C-30,-5 -20,5 -10,-5 C0,5 10,-5 20,5 C30,-5 40,5 50,-5 C60,5 70,-5 80,5 C90,-5 100,0 100,0" stroke="#BF4080" stroke-width="1.5" fill="none" />
      </g>
      
      <!-- Earth objects with frequency visualization -->
      <g transform="translate(0, 60)">
        <!-- Technology object (smartphone) -->
        <rect x="-90" y="-15" width="30" height="50" rx="5" fill="#333333" />
        <rect x="-85" y="-10" width="20" height="35" fill="#5AC8FA" opacity="0.7" />
        <rect x="-80" y="30" width="10" height="5" rx="2" fill="#FFFFFF" opacity="0.7" />
        
        <!-- Technology frequency signature (regular) -->
        <path d="M-90,45 C-85,40 -80,50 -75,40 C-70,50 -65,40 -60,45" stroke="#5AC8FA" stroke-width="1" fill="none" />
        
        <!-- Biological object (leaf) -->
        <path d="M-25,0 C-20,-10 -10,-15 0,-10 C10,-15 20,-10 25,0 C20,20 0,40 -25,0" fill="#2D854D" opacity="0.7" />
        <path d="M-2,0 L-2,25" stroke="#2D854D" stroke-width="2" />
        
        <!-- Biological frequency signature (semi-regular) -->
        <path d="M-25,45 C-20,35 -15,55 -10,35 C-5,55 0,35 5,55 C10,35 15,55 20,45" stroke="#2D854D" stroke-width="1" fill="none" />
        
        <!-- Mineral object (crystal) -->
        <path d="M60,-15 L75,-5 L90,-15 L75,-25 Z" fill="#BF4080" opacity="0.7" />
        <path d="M75,-5 L75,25" stroke="#BF4080" stroke-width="2" />
        <path d="M75,25 L65,15 L85,15 Z" fill="#BF4080" opacity="0.7" />
        
        <!-- Mineral frequency signature (very regular) -->
        <path d="M60,45 C65,42 70,48 75,42 C80,48 85,42 90,45" stroke="#BF4080" stroke-width="1" fill="none" />
      </g>
    </g>
    
    <!-- Jrotharke Frequency Patterns (right side) -->
    <g transform="translate(250, 0)">
      <!-- Jrotharke label -->
      <text x="0" y="-130" font-family="'SF Pro Display', -apple-system, BlinkMacSystemFont, sans-serif" font-size="18" font-weight="bold" fill="#FFFFFF" text-anchor="middle">Jrotharke Vibrational Frequencies</text>
      
      <!-- Jrotharke frequency visualization - more chaotic, multidimensional -->
      <g>
        <!-- Base frequency line -->
        <path d="M-100,0 L100,0" stroke="#333333" stroke-width="1" />
        
        <!-- Irregular Jrotharke frequencies - more chaotic and layered -->
        <!-- Technology equivalent frequency -->
        <path d="M-100,0 C-90,-50 -80,30 -70,-10 C-60,40 -50,-60 -40,20 C-30,-30 -20,70 -10,-40 C0,50 10,-20 20,60 C30,-50 40,30 50,-10 C60,40 70,-60 80,20 C90,-30 100,0 100,0" stroke="#5AC8FA" stroke-width="1.5" fill="none" />
        
        <!-- Biological equivalent frequency -->
        <path d="M-100,0 C-90,-20 -80,60 -70,-40 C-60,10 -50,-50 -40,70 C-30,-60 -20,20 -10,-30 C0,80 10,-70 20,30 C30,-20 40,60 50,-40 C60,10 70,-50 80,70 C90,-60 100,0 100,0" stroke="#2D854D" stroke-width="1.5" fill="none" />
        
        <!-- Mineral equivalent frequency -->
        <path d="M-100,0 C-90,-10 -80,30 -70,-20 C-60,5 -50,-25 -40,35 C-30,-30 -20,10 -10,-15 C0,40 10,-35 20,15 C30,-10 40,30 50,-20 C60,5 70,-25 80,35 C90,-30 100,0 100,0" stroke="#BF4080" stroke-width="1.5" fill="none" />
        
        <!-- Additional metaphysical frequency -->
        <path d="M-100,0 C-85,-80 -70,60 -55,-40 C-40,70 -25,-90 -10,50 C5,-60 20,80 35,-70 C50,60 65,-50 80,90 C95,-80 100,0 100,0" stroke="#6A3093" stroke-width="1.5" fill="none" />
      </g>
      
      <!-- Jrotharke objects with frequency visualization -->
      <g transform="translate(0, 60)">
        <!-- Technology equivalent (arcane device) -->
        <path d="M-90,-15 L-75,-25 L-60,-15 L-75,-5 Z" fill="#5AC8FA" opacity="0.7" />
        <rect x="-80" y="-5" width="10" height="30" fill="#5AC8FA" opacity="0.7" />
        <path d="M-85,25 L-65,25 L-75,35 Z" fill="#5AC8FA" opacity="0.7" />
        
        <!-- Technology frequency signature (complex) -->
        <path d="M-90,45 C-85,35 -80,55 -75,25 C-70,65 -65,35 -60,45" stroke="#5AC8FA" stroke-width="1" fill="none" />
        
        <!-- Biological equivalent (spirit plant) -->
        <path d="M-25,0 C-20,-10 -10,-15 0,-10 C10,-15 20,-10 25,0" fill="#2D854D" opacity="0.7" />
        <path d="M-2,0 L-2,25" stroke="#2D854D" stroke-width="2" />
        <ellipse cx="-2" cy="-10" rx="10" ry="5" fill="#6A3093" opacity="0.5" />
        <ellipse cx="-2" cy="5" rx="8" ry="4" fill="#6A3093" opacity="0.5" />
        <ellipse cx="-2" cy="15" rx="6" ry="3" fill="#6A3093" opacity="0.5" />
        
        <!-- Biological frequency signature (very complex) -->
        <path d="M-25,45 C-20,25 -15,65 -10,15 C-5,75 0,25 5,65 C10,15 15,85 20,45" stroke="#2D854D" stroke-width="1" fill="none" />
        
        <!-- Mineral equivalent (consciousness crystal) -->
        <path d="M60,-15 L75,-25 L90,-15 L75,-5 Z" fill="#BF4080" opacity="0.7" />
        <path d="M75,-5 L75,25" stroke="#BF4080" stroke-width="2" />
        <path d="M75,25 L65,15 L85,15 Z" fill="#BF4080" opacity="0.7" />
        <ellipse cx="75" cy="0" rx="8" ry="12" fill="#6A3093" opacity="0.4" />
        
        <!-- Mineral frequency signature (complex harmonic) -->
        <path d="M60,45 C65,35 70,55 75,25 C80,65 85,35 90,45" stroke="#BF4080" stroke-width="1" fill="none" />
      </g>
    </g>
    
    <!-- Central Frequency Transformation Zone -->
    <g>
      <!-- Transformation zone visualization -->
      <ellipse cx="0" cy="0" rx="80" ry="120" fill="none" stroke="#6A3093" stroke-width="2" stroke-dasharray="5,3" />
      
      <!-- Transformation zone label -->
      <text x="0" y="-130" font-family="'SF Pro Display', -apple-system, BlinkMacSystemFont, sans-serif" font-size="18" font-weight="bold" fill="#FFFFFF" text-anchor="middle">Harmonic Convergence Zone</text>
      
      <!-- Frequency transformation visualization -->
      <g>
        <!-- Earth to Jrotharke transition waves -->
        <path d="M-100,-50 C-80,-70 -60,-40 -40,-60 C-20,-30 0,-80 20,-40 C40,-90 60,-30 80,-60 C100,-40 120,-70 140,-50" stroke="#5AC8FA" stroke-width="1" opacity="0.6" />
        <path d="M-100,-25 C-80,-55 -60,-15 -40,-45 C-20,-5 0,-65 20,-25 C40,-75 60,-15 80,-45 C100,-15 120,-55 140,-25" stroke="#2D854D" stroke-width="1" opacity="0.6" />
        <path d="M-100,0 C-80,-20 -60,10 -40,-10 C-20,20 0,-30 20,0 C40,-40 60,10 80,-20 C100,0 120,-30 140,0" stroke="#BF4080" stroke-width="1" opacity="0.6" />
        
        <!-- Jrotharke to Earth transition waves -->
        <path d="M-100,50 C-80,30 -60,60 -40,40 C-20,70 0,20 20,60 C40,10 60,70 80,40 C100,60 120,30 140,50" stroke="#5AC8FA" stroke-width="1" opacity="0.6" />
        <path d="M-100,25 C-80,45 -60,5 -40,35 C-20,-5 0,55 20,15 C40,65 60,5 80,45 C100,5 120,45 140,25" stroke="#2D854D" stroke-width="1" opacity="0.6" />
        <path d="M-100,0 C-80,20 -60,-10 -40,10 C-20,-20 0,30 20,0 C40,40 60,-10 80,20 C100,0 120,30 140,0" stroke="#BF4080" stroke-width="1" opacity="0.6" />
        
        <!-- Central harmonic convergence point -->
        <circle cx="0" cy="0" r="20" fill="#6A3093" opacity="0.5" />
        <circle cx="0" cy="0" r="15" fill="#6A3093" opacity="0.7" />
        <circle cx="0" cy="0" r="10" fill="#BF4080" opacity="0.8" />
        <circle cx="0" cy="0" r="5" fill="#5AC8FA" opacity="0.9" />
        
        <!-- Convergence ripples -->
        <circle cx="0" cy="0" r="30" fill="none" stroke="#6A3093" stroke-width="1" stroke-dasharray="3,3" />
        <circle cx="0" cy="0" r="45" fill="none" stroke="#6A3093" stroke-width="1" stroke-dasharray="3,3" />
        <circle cx="0" cy="0" r="60" fill="none" stroke="#6A3093" stroke-width="1" stroke-dasharray="3,3" />
      </g>
      
      <!-- Transforming objects -->
      <g transform="translate(0, 60)">
        <!-- Object in transformation -->
        <path d="M-15,-25 L15,-25 L20,-15 L15,-5 L-15,-5 L-20,-15 Z" fill="#5AC8FA" opacity="0.5" />
        <ellipse cx="0" cy="-15" rx="12" ry="8" fill="#6A3093" opacity="0.6" />
        <path d="M0,-5 L0,25" stroke="#6A3093" stroke-width="2" />
        
        <!-- Transform frequency signature -->
        <path d="M-20,45 C-15,25 -10,55 -5,35 C0,60 5,30 10,50 C15,25 20,45 25,35" stroke="#6A3093" stroke-width="1.5" fill="none" />
      </g>
    </g>
  </g>
  
  <!-- Frequency Analyzer Display with Harmonic Locations -->
  <g transform="translate(450, 500)">
    <!-- Analyzer display background -->
    <rect x="-350" y="-50" width="700" height="100" rx="10" fill="#131A36" opacity="0.9" stroke="#331F4A" stroke-width="2" />
    
    <!-- Frequency scale -->
    <line x1="-325" y1="0" x2="325" y2="0" stroke="#5AC8FA" stroke-width="1" />
    <text x="-325" y="20" font-family="'SF Pro Text', -apple-system, BlinkMacSystemFont, sans-serif" font-size="10" fill="#FFFFFF">Low Frequency</text>
    <text x="325" y="20" font-family="'SF Pro Text', -apple-system, BlinkMacSystemFont, sans-serif" font-size="10" fill="#FFFFFF" text-anchor="end">High Frequency</text>
    
    <!-- Scale markers -->
    <line x1="-325" y1="-5" x2="-325" y2="5" stroke="#5AC8FA" stroke-width="1" />
    <line x1="-225" y1="-5" x2="-225" y2="5" stroke="#5AC8FA" stroke-width="1" />
    <line x1="-125" y1="-5" x2="-125" y2="5" stroke="#5AC8FA" stroke-width="1" />
    <line x1="-25" y1="-5" x2="-25" y2="5" stroke="#5AC8FA" stroke-width="1" />
    <line x1="75" y1="-5" x2="75" y2="5" stroke="#5AC8FA" stroke-width="1" />
    <line x1="175" y1="-5" x2="175" y2="5" stroke="#5AC8FA" stroke-width="1" />
    <line x1="275" y1="-5" x2="275" y2="5" stroke="#5AC8FA" stroke-width="1" />
    <line x1="325" y1="-5" x2="325" y2="5" stroke="#5AC8FA" stroke-width="1" />
    
    <!-- Harmonic convergence markers -->
    <g>
      <!-- Earth technological -->
      <rect x="-290" y="-30" width="5" height="30" fill="#5AC8FA" opacity="0.8" />
      <text x="-290" y="-35" font-family="'SF Pro Text', -apple-system, BlinkMacSystemFont, sans-serif" font-size="8" fill="#5AC8FA" text-anchor="middle">E-Tech</text>
      
      <!-- Earth biological -->
      <rect x="-150" y="-25" width="5" height="25" fill="#2D854D" opacity="0.8" />
      <text x="-150" y="-30" font-family="'SF Pro Text', -apple-system, BlinkMacSystemFont, sans-serif" font-size="8" fill="#2D854D" text-anchor="middle">E-Bio</text>
      
      <!-- Earth mineral -->
      <rect x="-50" y="-20" width="5" height="20" fill="#BF4080" opacity="0.8" />
      <text x="-50" y="-25" font-family="'SF Pro Text', -apple-system, BlinkMacSystemFont, sans-serif" font-size="8" fill="#BF4080" text-anchor="middle">E-Min</text>
      
      <!-- Harmonic convergence -->
      <rect x="0" y="-40" width="5" height="40" fill="#FFFFFF" opacity="0.9" />
      <text x="0" y="-45" font-family="'SF Pro Text', -apple-system, BlinkMacSystemFont, sans-serif" font-size="8" fill="#FFFFFF" text-anchor="middle">Harmonic</text>
      
      <!-- Jrotharke mineral -->
      <rect x="50" y="-20" width="5" height="20" fill="#BF4080" opacity="0.8" />
      <text x="50" y="-25" font-family="'SF Pro Text', -apple-system, BlinkMacSystemFont, sans-serif" font-size="8" fill="#BF4080" text-anchor="middle">J-Min</text>
      
      <!-- Jrotharke biological -->
      <rect x="150" y="-25" width="5" height="25" fill="#2D854D" opacity="0.8" />
      <text x="150" y="-30" font-family="'SF Pro Text', -apple-system, BlinkMacSystemFont, sans-serif" font-size="8" fill="#2D854D" text-anchor="middle">J-Bio</text>
      
      <!-- Jrotharke technological -->
      <rect x="290" y="-30" width="5" height="30" fill="#5AC8FA" opacity="0.8" />
      <text x="290" y="-35" font-family="'SF Pro Text', -apple-system, BlinkMacSystemFont, sans-serif" font-size="8" fill="#5AC8FA" text-anchor="middle">J-Tech</text>
    </g>
  </g>
  
  <!-- Key features callouts -->
  <g>
    <!-- Vibrational Frequencies -->
    <g transform="translate(225, 145)">
      <rect x="-140" y="0" width="280" height="60" rx="10" fill="#131A36" opacity="0.8" />
      <text x="0" y="20" font-family="'SF Pro Display', -apple-system, BlinkMacSystemFont, sans-serif" font-size="16" font-weight="bold" fill="#FFFFFF" text-anchor="middle">Vibrational Signatures</text>
      <text x="0" y="40" font-family="'SF Pro Text', -apple-system, BlinkMacSystemFont, sans-serif" font-size="12" fill="#FFFFFF" text-anchor="middle">Objects have unique frequency patterns</text>
      
      <!-- Connection line to left side visualization -->
      <path d="M0,60 L-175,100" stroke="#5AC8FA" stroke-width="1" stroke-dasharray="3,3" />
    </g>
    
    <!-- Harmonic Convergence -->
    <g transform="translate(450, 145)">
      <rect x="-140" y="0" width="280" height="60" rx="10" fill="#131A36" opacity="0.8" />
      <text x="0" y="20" font-family="'SF Pro Display', -apple-system, BlinkMacSystemFont, sans-serif" font-size="16" font-weight="bold" fill="#FFFFFF" text-anchor="middle">Harmonic Convergence Points</text>
      <text x="0" y="40" font-family="'SF Pro Text', -apple-system, BlinkMacSystemFont, sans-serif" font-size="12" fill="#FFFFFF" text-anchor="middle">Where Earth &amp; Jrotharke frequencies align</text>
      
      <!-- Connection line to center visualization -->
      <path d="M0,60 L0,100" stroke="#5AC8FA" stroke-width="1" stroke-dasharray="3,3" />
    </g>
    
    <!-- Dissonance Zones -->
    <g transform="translate(675, 145)">
      <rect x="-140" y="0" width="280" height="60" rx="10" fill="#131A36" opacity="0.8" />
      <text x="0" y="20" font-family="'SF Pro Display', -apple-system, BlinkMacSystemFont, sans-serif" font-size="16" font-weight="bold" fill="#FFFFFF" text-anchor="middle">Dissonance Zones</text>
      <text x="0" y="40" font-family="'SF Pro Text', -apple-system, BlinkMacSystemFont, sans-serif" font-size="12" fill="#FFFFFF" text-anchor="middle">Where physics laws break down between realms</text>
      
      <!-- Connection line to right side visualization -->
      <path d="M0,60 L175,100" stroke="#5AC8FA" stroke-width="1" stroke-dasharray="3,3" />
    </g>
  </g>
  
  <!-- ML-Enhanced Neural Engine Benefits -->
  <g transform="translate(450, 580)">
    <rect x="-400" y="-20" width="800" height="40" rx="10" fill="#131A36" opacity="0.9" stroke="#331F4A" stroke-width="1" />
    <text x="0" y="0" font-family="'SF Pro Display', -apple-system, BlinkMacSystemFont, sans-serif" font-size="16" font-weight="bold" fill="#FFFFFF" text-anchor="middle">M4-Optimized Neural Engine: 90% faster frequency mapping with local processing</text>
    
    <!-- Quantum pixels -->
    <rect x="-390" y="-10" width="6" height="6" fill="#5AC8FA" opacity="0.9" transform="rotate(15, -387, -7)" />
    <rect x="-380" y="-10" width="6" height="6" fill="#6A3093" opacity="0.9" transform="rotate(15, -377, -7)" />
    
    <rect x="380" y="-10" width="6" height="6" fill="#5AC8FA" opacity="0.9" transform="rotate(-15, 383, -7)" />
    <rect x="390" y="-10" width="6" height="6" fill="#6A3093" opacity="0.9" transform="rotate(-15, 393, -7)" />
  </g>
</svg>