<svg width="50" height="50" viewBox="0 0 50 50" fill="none" xmlns="http://www.w3.org/2000/svg">
<g clip-path="url(#clip0_122021_6802)">
<path d="M30.9688 16.3242C28.6836 16.3242 26.8281 17.7109 25.6367 17.7109C24.3672 17.7109 22.707 16.3242 20.7148 16.3242C16.9453 16.3242 13.1172 19.5273 13.1172 25.4062C13.1172 29.0781 14.5234 32.9453 16.2812 35.4453C17.7852 37.5547 19.0937 39.2539 20.9883 39.2539C22.8633 39.2539 23.6836 38.043 26.0078 38.043C28.3711 38.043 28.8984 39.2539 30.9688 39.2539C33.0195 39.2539 34.3867 37.3789 35.6758 35.5234C37.1211 33.3945 37.7266 31.3242 37.7461 31.2266C37.6289 31.1875 33.7031 29.5859 33.7031 25.0938C33.7031 21.207 36.7891 19.4688 36.9648 19.332C34.9336 16.4023 31.8281 16.3242 30.9688 16.3242ZM29.8945 13.8438C30.832 12.7109 31.4961 11.168 31.4961 9.60547C31.4961 9.39062 31.4766 9.17578 31.4375 9C29.9141 9.05859 28.0781 10.0156 26.9844 11.3047C26.125 12.2812 25.3242 13.8438 25.3242 15.4062C25.3242 15.6406 25.3633 15.875 25.3828 15.9531C25.4805 15.9727 25.6367 15.9922 25.793 15.9922C27.1602 15.9922 28.8789 15.0742 29.8945 13.8438Z" fill="white" fill-opacity="0.85"/>
</g>
<defs>
<clipPath id="clip0_122021_6802">
<rect width="24.7461" height="31.9727" fill="white" transform="translate(13 9)"/>
</clipPath>
</defs>
</svg>
