<svg width="32" height="41" viewBox="0 0 32 41" fill="none" xmlns="http://www.w3.org/2000/svg">
<g clip-path="url(#clip0_122021_6802)">
<path d="M23.0469 9.33594C20.1367 9.33594 17.7539 11.1133 16.2305 11.1133C14.6094 11.1133 12.5 9.33594 9.96094 9.33594C5.13672 9.33594 0.253906 13.4375 0.253906 20.9375C0.253906 25.625 2.05078 30.5664 4.29688 33.75C6.21094 36.4453 7.89062 38.6133 10.3125 38.6133C12.6953 38.6133 13.75 37.0703 16.7188 37.0703C19.7266 37.0703 20.4102 38.6133 23.0469 38.6133C25.6641 38.6133 27.4023 36.2109 29.0625 33.8477C30.8984 31.1328 31.6797 28.4961 31.6992 28.3594C31.543 28.3203 26.543 26.2695 26.543 20.5469C26.543 15.5859 30.4688 13.3594 30.7031 13.1836C28.1055 9.45312 24.1406 9.33594 23.0469 9.33594ZM21.6797 6.17188C22.8711 4.72656 23.7109 2.75391 23.7109 0.761719C23.7109 0.488281 23.6914 0.214844 23.6523 0C21.6992 0.078125 19.3555 1.28906 17.9688 2.92969C16.8555 4.17969 15.8398 6.17188 15.8398 8.16406C15.8398 8.47656 15.8984 8.76953 15.918 8.86719C16.0352 8.88672 16.2305 8.92578 16.4453 8.92578C18.1836 8.92578 20.3711 7.75391 21.6797 6.17188Z" fill="white" fill-opacity="0.85"/>
</g>
<defs>
<clipPath id="clip0_122021_6802">
<rect width="31.6992" height="40.8008" fill="white"/>
</clipPath>
</defs>
</svg>
