<svg xmlns="http://www.w3.org/2000/svg" viewBox="0 0 1200 800">
  <!-- Background with gradient -->
  <defs>
    <linearGradient id="bgGradient" x1="0%" y1="0%" x2="100%" y2="0%">
      <stop offset="0%" stop-color="#0A0621" />
      <stop offset="50%" stop-color="#131A36" />
      <stop offset="100%" stop-color="#0D0D15" />
    </linearGradient>
    
    <!-- Tunnel effect gradient -->
    <radialGradient id="tunnelGradient" cx="50%" cy="50%" r="70%" fx="50%" fy="50%">
      <stop offset="0%" stop-color="#331F4A" />
      <stop offset="60%" stop-color="#131A36" />
      <stop offset="100%" stop-color="#0A0621" />
    </radialGradient>
    
    <!-- Green to Indigo transition gradient for evolution -->
    <linearGradient id="evolutionGradient" x1="0%" y1="0%" x2="100%" y2="0%">
      <stop offset="0%" stop-color="#2D854D" />
      <stop offset="50%" stop-color="#131A36" />
      <stop offset="100%" stop-color="#331F4A" />
    </linearGradient>
  </defs>
  
  <!-- Main background -->
  <rect width="1200" height="800" fill="url(#bgGradient)" />
  
  <!-- Title -->
  <text x="600" y="70" font-family="'SF Pro Display', -apple-system, BlinkMacSystemFont, sans-serif" font-size="32" font-weight="bold" fill="#FFFFFF" text-anchor="middle">9Bit Studios Launch Visual Concept</text>
  <text x="600" y="110" font-family="'SF Pro Text', -apple-system, BlinkMacSystemFont, sans-serif" font-size="18" fill="#FFFFFF" text-anchor="middle">Quantum Evolution Portal</text>
  
  <!-- Portal Outer Frame -->
  <ellipse cx="600" cy="400" rx="450" ry="250" fill="url(#tunnelGradient)" />
  
  <!-- Portal Perspective Grid Lines (creates tunnel effect) -->
  <g opacity="0.2">
    <!-- Concentric ellipses for tunnel depth -->
    <ellipse cx="600" cy="400" rx="420" ry="235" fill="none" stroke="#36EAE8" stroke-width="1" />
    <ellipse cx="600" cy="400" rx="380" ry="215" fill="none" stroke="#36EAE8" stroke-width="1" />
    <ellipse cx="600" cy="400" rx="340" ry="195" fill="none" stroke="#36EAE8" stroke-width="1" />
    <ellipse cx="600" cy="400" rx="300" ry="175" fill="none" stroke="#36EAE8" stroke-width="1" />
    <ellipse cx="600" cy="400" rx="260" ry="155" fill="none" stroke="#36EAE8" stroke-width="1" />
    <ellipse cx="600" cy="400" rx="220" ry="135" fill="none" stroke="#36EAE8" stroke-width="1" />
    <ellipse cx="600" cy="400" rx="180" ry="115" fill="none" stroke="#36EAE8" stroke-width="1" />
    <ellipse cx="600" cy="400" rx="140" ry="95" fill="none" stroke="#36EAE8" stroke-width="1" />
    <ellipse cx="600" cy="400" rx="100" ry="75" fill="none" stroke="#36EAE8" stroke-width="1" />
    <ellipse cx="600" cy="400" rx="60" ry="55" fill="none" stroke="#36EAE8" stroke-width="1" />
    
    <!-- Radial lines for tunnel perspective -->
    <line x1="600" y1="400" x2="150" y2="400" stroke="#36EAE8" stroke-width="1" />
    <line x1="600" y1="400" x2="1050" y2="400" stroke="#36EAE8" stroke-width="1" />
    <line x1="600" y1="400" x2="600" y2="150" stroke="#36EAE8" stroke-width="1" />
    <line x1="600" y1="400" x2="600" y2="650" stroke="#36EAE8" stroke-width="1" />
    
    <line x1="600" y1="400" x2="225" y2="220" stroke="#36EAE8" stroke-width="1" />
    <line x1="600" y1="400" x2="975" y2="220" stroke="#36EAE8" stroke-width="1" />
    <line x1="600" y1="400" x2="225" y2="580" stroke="#36EAE8" stroke-width="1" />
    <line x1="600" y1="400" x2="975" y2="580" stroke="#36EAE8" stroke-width="1" />
  </g>
  
  <!-- 1. Heritage Entry Point (Left Side) -->
  <g transform="translate(200, 400)">
    <text x="0" y="-170" font-family="'SF Pro Display', -apple-system, BlinkMacSystemFont, sans-serif" font-size="20" font-weight="bold" fill="#FFFFFF" text-anchor="middle">Heritage Entry</text>
    
    <!-- Classic 8-bit style pixels -->
    <g>
      <!-- Simple 8-bit character -->
      <rect x="-80" y="-30" width="16" height="16" fill="#2D854D" />
      <rect x="-64" y="-30" width="16" height="16" fill="#2D854D" />
      <rect x="-48" y="-30" width="16" height="16" fill="#2D854D" />
      <rect x="-32" y="-30" width="16" height="16" fill="#2D854D" />
      <rect x="-80" y="-14" width="16" height="16" fill="#2D854D" />
      <rect x="-32" y="-14" width="16" height="16" fill="#2D854D" />
      <rect x="-80" y="2" width="16" height="16" fill="#2D854D" />
      <rect x="-64" y="2" width="16" height="16" fill="#2D854D" />
      <rect x="-48" y="2" width="16" height="16" fill="#2D854D" />
      <rect x="-32" y="2" width="16" height="16" fill="#2D854D" />
      <rect x="-80" y="18" width="16" height="16" fill="#2D854D" />
      <rect x="-32" y="18" width="16" height="16" fill="#2D854D" />
      <rect x="-80" y="34" width="16" height="16" fill="#2D854D" />
      <rect x="-64" y="34" width="16" height="16" fill="#2D854D" />
      <rect x="-48" y="34" width="16" height="16" fill="#2D854D" />
      <rect x="-32" y="34" width="16" height="16" fill="#2D854D" />
      
      <!-- Simple 8-bit landscape -->
      <rect x="-30" y="60" width="16" height="16" fill="#2D854D" />
      <rect x="-14" y="60" width="16" height="16" fill="#2D854D" />
      <rect x="2" y="60" width="16" height="16" fill="#2D854D" />
      <rect x="18" y="60" width="16" height="16" fill="#2D854D" />
      <rect x="34" y="60" width="16" height="16" fill="#2D854D" />
      <rect x="50" y="60" width="16" height="16" fill="#2D854D" />
      <rect x="66" y="60" width="16" height="16" fill="#2D854D" />
      <rect x="82" y="60" width="16" height="16" fill="#2D854D" />
      
      <!-- Orthogonal grid -->
      <g opacity="0.5">
        <line x1="-90" y1="-40" x2="90" y2="-40" stroke="#2D854D" stroke-width="1" />
        <line x1="-90" y1="-20" x2="90" y2="-20" stroke="#2D854D" stroke-width="1" />
        <line x1="-90" y1="0" x2="90" y2="0" stroke="#2D854D" stroke-width="1" />
        <line x1="-90" y1="20" x2="90" y2="20" stroke="#2D854D" stroke-width="1" />
        <line x1="-90" y1="40" x2="90" y2="40" stroke="#2D854D" stroke-width="1" />
        <line x1="-90" y1="60" x2="90" y2="60" stroke="#2D854D" stroke-width="1" />
        
        <line x1="-80" y1="-50" x2="-80" y2="70" stroke="#2D854D" stroke-width="1" />
        <line x1="-60" y1="-50" x2="-60" y2="70" stroke="#2D854D" stroke-width="1" />
        <line x1="-40" y1="-50" x2="-40" y2="70" stroke="#2D854D" stroke-width="1" />
        <line x1="-20" y1="-50" x2="-20" y2="70" stroke="#2D854D" stroke-width="1" />
        <line x1="0" y1="-50" x2="0" y2="70" stroke="#2D854D" stroke-width="1" />
        <line x1="20" y1="-50" x2="20" y2="70" stroke="#2D854D" stroke-width="1" />
        <line x1="40" y1="-50" x2="40" y2="70" stroke="#2D854D" stroke-width="1" />
        <line x1="60" y1="-50" x2="60" y2="70" stroke="#2D854D" stroke-width="1" />
        <line x1="80" y1="-50" x2="80" y2="70" stroke="#2D854D" stroke-width="1" />
      </g>
    </g>
  </g>
  
  <!-- 2. Transition Zone (Middle) -->
  <g transform="translate(600, 400)">
    <text x="0" y="-170" font-family="'SF Pro Display', -apple-system, BlinkMacSystemFont, sans-serif" font-size="20" font-weight="bold" fill="#FFFFFF" text-anchor="middle">Transition Zone</text>
    
    <!-- Evolving pixels with beginning dimensional properties -->
    <g>
      <!-- Character evolving into 16-bit then more sophisticated form -->
      <rect x="-60" y="-40" width="20" height="20" fill="#131A36" rx="2" />
      <rect x="-40" y="-40" width="20" height="20" fill="#131A36" rx="2" />
      <rect x="-20" y="-40" width="20" height="20" fill="#131A36" rx="2" />
      <rect x="-60" y="-20" width="20" height="20" fill="#131A36" rx="2" />
      <rect x="-20" y="-20" width="20" height="20" fill="#131A36" rx="2" />
      <rect x="-60" y="0" width="20" height="20" fill="#131A36" rx="2" />
      <rect x="-40" y="0" width="20" height="20" fill="#131A36" rx="2" />
      <rect x="-20" y="0" width="20" height="20" fill="#131A36" rx="2" />
      <rect x="-60" y="20" width="20" height="20" fill="#131A36" rx="2" />
      <rect x="-20" y="20" width="20" height="20" fill="#131A36" rx="2" />
      <rect x="-60" y="40" width="20" height="20" fill="#131A36" rx="2" />
      <rect x="-40" y="40" width="20" height="20" fill="#131A36" rx="2" />
      <rect x="-20" y="40" width="20" height="20" fill="#131A36" rx="2" />
      
      <!-- Energy state beginning to appear -->
      <rect x="-40" y="-20" width="20" height="20" fill="#5AC8FA" opacity="0.5" rx="2" />
      <rect x="-40" y="20" width="20" height="20" fill="#5AC8FA" opacity="0.4" rx="2" />
      
      <!-- Environment with some dimensionality -->
      <rect x="0" y="40" width="20" height="20" fill="#131A36" rx="2" />
      <rect x="20" y="40" width="20" height="20" fill="#131A36" rx="2" />
      <rect x="40" y="40" width="20" height="20" fill="#131A36" rx="2" />
      <rect x="60" y="40" width="20" height="20" fill="#131A36" rx="2" />
      
      <!-- Beginning perspective grid -->
      <g opacity="0.4">
        <!-- Horizontal lines with slight perspective -->
        <line x1="-80" y1="-50" x2="80" y2="-45" stroke="#36EAE8" stroke-width="1" />
        <line x1="-80" y1="-25" x2="80" y2="-22" stroke="#36EAE8" stroke-width="1" />
        <line x1="-80" y1="0" x2="80" y2="0" stroke="#36EAE8" stroke-width="1" />
        <line x1="-80" y1="25" x2="80" y2="22" stroke="#36EAE8" stroke-width="1" />
        <line x1="-80" y1="50" x2="80" y2="45" stroke="#36EAE8" stroke-width="1" />
        
        <!-- Vertical lines with slight perspective -->
        <line x1="-60" y1="-60" x2="-65" y2="60" stroke="#36EAE8" stroke-width="1" />
        <line x1="-30" y1="-60" x2="-33" y2="60" stroke="#36EAE8" stroke-width="1" />
        <line x1="0" y1="-60" x2="0" y2="60" stroke="#36EAE8" stroke-width="1" />
        <line x1="30" y1="-60" x2="33" y2="60" stroke="#36EAE8" stroke-width="1" />
        <line x1="60" y1="-60" x2="65" y2="60" stroke="#36EAE8" stroke-width="1" />
      </g>
      
      <!-- Subtle lighting effects beginning -->
      <g opacity="0.3">
        <rect x="-58" y="-38" width="16" height="16" fill="#FFFFFF" rx="2" />
        <rect x="-38" y="-38" width="16" height="16" fill="#FFFFFF" rx="2" />
        <rect x="-18" y="-38" width="16" height="16" fill="#FFFFFF" rx="2" />
      </g>
    </g>
    
    <!-- Transition area lighting effects -->
    <ellipse cx="0" cy="0" rx="100" ry="80" fill="none" stroke="#5AC8FA" stroke-width="1" opacity="0.3" />
  </g>
  
  <!-- 3. Quantum Emergence (Right Side) -->
  <g transform="translate(950, 400)">
    <text x="0" y="-170" font-family="'SF Pro Display', -apple-system, BlinkMacSystemFont, sans-serif" font-size="20" font-weight="bold" fill="#FFFFFF" text-anchor="middle">Quantum Emergence</text>
    
    <!-- Fully realized quantum-spatial pixels -->
    <g>
      <!-- Character with full quantum-spatial properties -->
      <rect x="-50" y="-50" width="20" height="20" fill="#331F4A" rx="3" />
      <rect x="-30" y="-50" width="20" height="20" fill="#331F4A" rx="3" />
      <rect x="-10" y="-50" width="20" height="20" fill="#331F4A" rx="3" />
      <rect x="-50" y="-30" width="20" height="20" fill="#331F4A" rx="3" />
      <rect x="-10" y="-30" width="20" height="20" fill="#331F4A" rx="3" />
      <rect x="-50" y="-10" width="20" height="20" fill="#331F4A" rx="3" />
      <rect x="-30" y="-10" width="20" height="20" fill="#331F4A" rx="3" />
      <rect x="-10" y="-10" width="20" height="20" fill="#331F4A" rx="3" />
      <rect x="-50" y="10" width="20" height="20" fill="#331F4A" rx="3" />
      <rect x="-10" y="10" width="20" height="20" fill="#331F4A" rx="3" />
      <rect x="-50" y="30" width="20" height="20" fill="#331F4A" rx="3" />
      <rect x="-30" y="30" width="20" height="20" fill="#331F4A" rx="3" />
      <rect x="-10" y="30" width="20" height="20" fill="#331F4A" rx="3" />
      
      <!-- Energy state pixels fully realized -->
      <rect x="-30" y="-30" width="20" height="20" fill="#5AC8FA" opacity="0.8" rx="3">
        <animate attributeName="opacity" values="0.6;0.9;0.6" dur="3s" repeatCount="indefinite" />
      </rect>
      <rect x="-30" y="10" width="20" height="20" fill="#5AC8FA" opacity="0.7" rx="3">
        <animate attributeName="opacity" values="0.5;0.8;0.5" dur="4s" repeatCount="indefinite" />
      </rect>
      
      <!-- Advanced environmental elements -->
      <rect x="20" y="30" width="20" height="20" fill="#331F4A" rx="3" />
      <rect x="40" y="30" width="20" height="20" fill="#331F4A" rx="3" />
      <rect x="60" y="30" width="20" height="20" fill="#331F4A" rx="3" />
      
      <!-- Dimensional lighting effects -->
      <g opacity="0.4">
        <!-- Highlights -->
        <rect x="-53" y="-53" width="20" height="20" fill="#FFFFFF" rx="3" />
        <rect x="-33" y="-53" width="20" height="20" fill="#FFFFFF" rx="3" />
        <rect x="-13" y="-53" width="20" height="20" fill="#FFFFFF" rx="3" />
        
        <!-- Shadows -->
        <rect x="-47" y="-47" width="20" height="20" fill="#0A0621" rx="3" />
        <rect x="-27" y="-47" width="20" height="20" fill="#0A0621" rx="3" />
        <rect x="-7" y="-47" width="20" height="20" fill="#0A0621" rx="3" />
      </g>
      
      <!-- Energy connectors -->
      <g opacity="0.6">
        <line x1="-40" y1="-40" x2="-40" y2="-30" stroke="#5AC8FA" stroke-width="1" />
        <line x1="-40" y1="-30" x2="-40" y2="-20" stroke="#5AC8FA" stroke-width="1" />
        <line x1="-40" y1="-20" x2="-40" y2="-10" stroke="#5AC8FA" stroke-width="1" />
        <line x1="-40" y1="-10" x2="-40" y2="0" stroke="#5AC8FA" stroke-width="1" />
        <line x1="-40" y1="0" x2="-40" y2="10" stroke="#5AC8FA" stroke-width="1" />
        <line x1="-40" y1="10" x2="-40" y2="20" stroke="#5AC8FA" stroke-width="1" />
        <line x1="-40" y1="20" x2="-40" y2="30" stroke="#5AC8FA" stroke-width="1" />
        
        <line x1="-50" y1="-40" x2="-40" y2="-40" stroke="#5AC8FA" stroke-width="1" />
        <line x1="-40" y1="-40" x2="-30" y2="-40" stroke="#5AC8FA" stroke-width="1" />
        <line x1="-30" y1="-40" x2="-20" y2="-40" stroke="#5AC8FA" stroke-width="1" />
        <line x1="-20" y1="-40" x2="-10" y2="-40" stroke="#5AC8FA" stroke-width="1" />
      </g>
      
      <!-- Quantum Superposition Effect -->
      <g opacity="0.15">
        <rect x="-52" y="-52" width="20" height="20" fill="#6A3093" rx="3" />
        <rect x="-32" y="-52" width="20" height="20" fill="#6A3093" rx="3" />
        <rect x="-12" y="-52" width="20" height="20" fill="#6A3093" rx="3" />
        <rect x="-52" y="-32" width="20" height="20" fill="#6A3093" rx="3" />
        <rect x="-12" y="-32" width="20" height="20" fill="#6A3093" rx="3" />
        <rect x="-52" y="-12" width="20" height="20" fill="#6A3093" rx="3" />
        <rect x="-32" y="-12" width="20" height="20" fill="#6A3093" rx="3" />
        <rect x="-12" y="-12" width="20" height="20" fill="#6A3093" rx="3" />
      </g>
      
      <!-- Full perspective grid -->
      <g opacity="0.3">
        <!-- Perspective lines radiating from center -->
        <line x1="0" y1="0" x2="-80" y2="-60" stroke="#36EAE8" stroke-width="1" />
        <line x1="0" y1="0" x2="-80" y2="-30" stroke="#36EAE8" stroke-width="1" />
        <line x1="0" y1="0" x2="-80" y2="0" stroke="#36EAE8" stroke-width="1" />
        <line x1="0" y1="0" x2="-80" y2="30" stroke="#36EAE8" stroke-width="1" />
        <line x1="0" y1="0" x2="-80" y2="60" stroke="#36EAE8" stroke-width="1" />
        
        <line x1="0" y1="0" x2="80" y2="-60" stroke="#36EAE8" stroke-width="1" />
        <line x1="0" y1="0" x2="80" y2="-30" stroke="#36EAE8" stroke-width="1" />
        <line x1="0" y1="0" x2="80" y2="0" stroke="#36EAE8" stroke-width="1" />
        <line x1="0" y1="0" x2="80" y2="30" stroke="#36EAE8" stroke-width="1" />
        <line x1="0" y1="0" x2="80" y2="60" stroke="#36EAE8" stroke-width="1" />
      </g>
    </g>
    
    <!-- Volumetric glow effect -->
    <ellipse cx="0" cy="0" rx="90" ry="70" fill="#331F4A" opacity="0.1" />
    <ellipse cx="0" cy="0" rx="70" ry="50" fill="#6A3093" opacity="0.1" />
    <ellipse cx="0" cy="0" rx="50" ry="35" fill="#5AC8FA" opacity="0.05" />
  </g>
  
  <!-- 9Bit Logo at the center of the Quantum Emergence -->
  <g transform="translate(600, 400)">
    <!-- 9 Logo - Central focus point -->
    <g transform="scale(2)">
      <!-- Base Shape -->
      <g opacity="0.9">
        <!-- Top Row -->
        <rect x="-40" y="-50" width="20" height="20" fill="#331F4A" rx="3" />
        <rect x="-20" y="-50" width="20" height="20" fill="#331F4A" rx="3" />
        <rect x="0" y="-50" width="20" height="20" fill="#331F4A" rx="3" />
        
        <!-- Second Row -->
        <rect x="-40" y="-30" width="20" height="20" fill="#331F4A" rx="3" />
        <rect x="0" y="-30" width="20" height="20" fill="#331F4A" rx="3" />
        
        <!-- Third Row -->
        <rect x="-40" y="-10" width="20" height="20" fill="#331F4A" rx="3" />
        <rect x="-20" y="-10" width="20" height="20" fill="#331F4A" rx="3" />
        <rect x="0" y="-10" width="20" height="20" fill="#331F4A" rx="3" />
        
        <!-- Fourth Row -->
        <rect x="0" y="10" width="20" height="20" fill="#331F4A" rx="3" />
        
        <!-- Fifth Row -->
        <rect x="-40" y="30" width="20" height="20" fill="#331F4A" rx="3" />
        <rect x="-20" y="30" width="20" height="20" fill="#331F4A" rx="3" />
        <rect x="0" y="30" width="20" height="20" fill="#331F4A" rx="3" />
      </g>
      
      <!-- Energy Pixels -->
      <g>
        <rect x="-20" y="-30" width="20" height="20" fill="#5AC8FA" opacity="0.8" rx="3">
          <animate attributeName="opacity" values="0.6;0.9;0.6" dur="3s" repeatCount="indefinite" />
        </rect>
        <rect x="-40" y="10" width="20" height="20" fill="#5AC8FA" opacity="0.7" rx="3">
          <animate attributeName="opacity" values="0.5;0.8;0.5" dur="3.5s" repeatCount="indefinite" />
        </rect>
        <rect x="-20" y="10" width="20" height="20" fill="#5AC8FA" opacity="0.9" rx="3">
          <animate attributeName="opacity" values="0.7;1;0.7" dur="4s" repeatCount="indefinite" />
        </rect>
      </g>
      
      <!-- Lighting Effects -->
      <g opacity="0.3">
        <!-- Highlights -->
        <rect x="-43" y="-53" width="20" height="20" fill="#FFFFFF" rx="3" />
        <rect x="-23" y="-53" width="20" height="20" fill="#FFFFFF" rx="3" />
        <rect x="-3" y="-53" width="20" height="20" fill="#FFFFFF" rx="3" />
      </g>
      
      <!-- Quantum Superposition Effect -->
      <g opacity="0.15">
        <rect x="-37" y="-47" width="20" height="20" fill="#6A3093" rx="3" />
        <rect x="-17" y="-47" width="20" height="20" fill="#6A3093" rx="3" />
        <rect x="3" y="-47" width="20" height="20" fill="#6A3093" rx="3" />
      </g>
    </g>
    
    <!-- Circular glow around the logo -->
    <circle cx="0" cy="0" r="60" fill="#5AC8FA" opacity="0.05" />
    <circle cx="0" cy="0" r="40" fill="#5AC8FA" opacity="0.08" />
    <circle cx="0" cy="0" r="20" fill="#5AC8FA" opacity="0.12" />
  </g>
  
  <!-- Section Labels and Descriptions -->
  <g transform="translate(200, 690)">
    <text x="0" y="0" font-family="'SF Pro Display', -apple-system, BlinkMacSystemFont, sans-serif" font-size="18" font-weight="bold" fill="#FFFFFF" text-anchor="middle">Heritage</text>
    <text x="0" y="25" font-family="'SF Pro Text', -apple-system, BlinkMacSystemFont, sans-serif" font-size="14" fill="#FFFFFF" text-anchor="middle">8-bit foundation</text>
  </g>
  
  <g transform="translate(600, 690)">
    <text x="0" y="0" font-family="'SF Pro Display', -apple-system, BlinkMacSystemFont, sans-serif" font-size="18" font-weight="bold" fill="#FFFFFF" text-anchor="middle">Transition</text>
    <text x="0" y="25" font-family="'SF Pro Text', -apple-system, BlinkMacSystemFont, sans-serif" font-size="14" fill="#FFFFFF" text-anchor="middle">Dimensional evolution</text>
  </g>
  
  <g transform="translate(950, 690)">
    <text x="0" y="0" font-family="'SF Pro Display', -apple-system, BlinkMacSystemFont, sans-serif" font-size="18" font-weight="bold" fill="#FFFFFF" text-anchor="middle">Quantum</text>
    <text x="0" y="25" font-family="'SF Pro Text', -apple-system, BlinkMacSystemFont, sans-serif" font-size="14" fill="#FFFFFF" text-anchor="middle">Spatial materialization</text>
  </g>
  
  <!-- Portal Ambient Energy Effects -->
  <g opacity="0.2">
    <!-- Energy particles flowing through the portal -->
    <circle cx="350" cy="320" r="3" fill="#5AC8FA">
      <animate attributeName="cx" values="350;600" dur="8s" repeatCount="indefinite" />
      <animate attributeName="cy" values="320;400" dur="8s" repeatCount="indefinite" />
      <animate attributeName="opacity" values="0.1;0.6;0.1" dur="8s" repeatCount="indefinite" />
    </circle>
    
    <circle cx="280" cy="450" r="2" fill="#5AC8FA">
      <animate attributeName="cx" values="280;600" dur="10s" repeatCount="indefinite" />
      <animate attributeName="cy" values="450;400" dur="10s" repeatCount="indefinite" />
      <animate attributeName="opacity" values="0.1;0.5;0.1" dur="10s" repeatCount="indefinite" />
    </circle>
    
    <circle cx="450" cy="500" r="3" fill="#5AC8FA">
      <animate attributeName="cx" values="450;600" dur="7s" repeatCount="indefinite" />
      <animate attributeName="cy" values="500;400" dur="7s" repeatCount="indefinite" />
      <animate attributeName="opacity" values="0.1;0.6;0.1" dur="7s" repeatCount="indefinite" />
    </circle>
    
    <circle cx="400" cy="250" r="2" fill="#5AC8FA">
      <animate attributeName="cx" values="400;600" dur="9s" repeatCount="indefinite" />
      <animate attributeName="cy" values="250;400" dur="9s" repeatCount="indefinite" />
      <animate attributeName="opacity" values="0.1;0.4;0.1" dur="9s" repeatCount="indefinite" />
    </circle>
  </g>
  
  <!-- 9Bit Studios Signature -->
  <g transform="translate(1140, 760)">
    <g transform="scale(0.5)">
      <!-- Stylized 9 built from quantum pixels -->
      <g>
        <!-- Top Row -->
        <rect x="-40" y="-50" width="20" height="20" fill="#331F4A" rx="2" />
        <rect x="-20" y="-50" width="20" height="20" fill="#331F4A" rx="2" />
        <rect x="0" y="-50" width="20" height="20" fill="#331F4A" rx="2" />
        
        <!-- Second Row -->
        <rect x="-40" y="-30" width="20" height="20" fill="#331F4A" rx="2" />
        <rect x="0" y="-30" width="20" height="20" fill="#331F4A" rx="2" />
        
        <!-- Third Row -->
        <rect x="-40" y="-10" width="20" height="20" fill="#331F4A" rx="2" />
        <rect x="-20" y="-10" width="20" height="20" fill="#331F4A" rx="2" />
        <rect x="0" y="-10" width="20" height="20" fill="#331F4A" rx="2" />
        
        <!-- Fourth Row -->
        <rect x="0" y="10" width="20" height="20" fill="#331F4A" rx="2" />
        
        <!-- Fifth Row -->
        <rect x="-40" y="30" width="20" height="20" fill="#331F4A" rx="2" />
        <rect x="-20" y="30" width="20" height="20" fill="#331F4A" rx="2" />
        <rect x="0" y="30" width="20" height="20" fill="#331F4A" rx="2" />
        
        <!-- Energy Pixels -->
        <rect x="-20" y="-30" width="20" height="20" fill="#5AC8FA" opacity="0.7" rx="2" />
        <rect x="-40" y="10" width="20" height="20" fill="#5AC8FA" opacity="0.6" rx="2" />
        <rect x="-20" y="10" width="20" height="20" fill="#5AC8FA" opacity="0.8" rx="2" />
      </g>
    </g>
    <text x="-20" y="30" font-family="'SF Pro Display', -apple-system, BlinkMacSystemFont, sans-serif" font-size="14" font-weight="bold" fill="#FFFFFF" text-anchor="end">9Bit Studios</text>
  </g>
</svg>
