<svg width="240" height="80" viewBox="0 0 240 80" xmlns="http://www.w3.org/2000/svg">
  <defs>
    <!-- Glowing effects -->
    <filter id="quantum-glow" x="-50%" y="-50%" width="200%" height="200%">
      <feGaussianBlur stdDeviation="4" result="blur" />
      <feComposite in="SourceGraphic" in2="blur" operator="over" />
    </filter>
    
    <filter id="glass-effect" x="-50%" y="-50%" width="200%" height="200%">
      <feGaussianBlur stdDeviation="2" />
      <feColorMatrix type="matrix"
          values="1 0 0 0 0
                  0 1 0 0 0
                  0 0 1 0 0
                  0 0 0 10 -3" />
    </filter>
    
    <linearGradient id="quantum-bg" x1="0%" y1="0%" x2="100%" y2="100%">
      <stop offset="0%" stop-color="#0D0D15" />
      <stop offset="100%" stop-color="#131A36" />
    </linearGradient>
    
    <linearGradient id="quantum-gradient" x1="0%" y1="0%" x2="100%" y2="100%">
      <stop offset="0%" stop-color="#331F4A" />
      <stop offset="100%" stop-color="#6A3093" />
    </linearGradient>
    
    <linearGradient id="quantum-edge" x1="0%" y1="0%" x2="100%" y2="100%">
      <stop offset="0%" stop-color="#6A3093" />
      <stop offset="100%" stop-color="#BF4080" />
    </linearGradient>
    
    <linearGradient id="button-text" x1="0%" y1="0%" x2="100%" y2="100%">
      <stop offset="0%" stop-color="#BF4080" />
      <stop offset="100%" stop-color="#5AC8FA" />
    </linearGradient>
    
    <pattern id="quantum-grid" x="0" y="0" width="20" height="20" patternUnits="userSpaceOnUse">
      <path d="M0,0 L20,20 M20,0 L0,20" stroke="#5AC8FA" stroke-width="0.3" stroke-opacity="0.2" />
    </pattern>
  </defs>
  
  <!-- Button Base -->
  <g>
    <!-- Background with subtle grid -->
    <rect x="10" y="10" width="220" height="60" rx="8" fill="url(#quantum-bg)" />
    
    <!-- Dimensional Grid -->
    <rect x="10" y="10" width="220" height="60" rx="8" fill="url(#quantum-grid)" />
    
    <!-- Grid Perspective Lines -->
    <g opacity="0.1">
      <path d="M120,10 L10,70 M120,10 L230,70" stroke="#5AC8FA" stroke-width="0.5" />
      <path d="M120,70 L10,10 M120,70 L230,10" stroke="#5AC8FA" stroke-width="0.5" />
    </g>
    
    <!-- Quantum State Button -->
    <rect x="20" y="20" width="200" height="40" rx="4" fill="url(#quantum-gradient)" filter="url(#glass-effect)" />
    
    <!-- Button Edge Effect -->
    <path d="M20,60 L220,60 L220,56 L20,56 Z" fill="url(#quantum-edge)" />
    <path d="M220,20 L220,60 L216,60 L216,20 Z" fill="url(#quantum-edge)" />
    
    <!-- Quantum Glow Effect -->
    <rect x="20" y="20" width="200" height="40" rx="4" fill="#BF4080" opacity="0.15" filter="url(#quantum-glow)">
      <animate attributeName="opacity" values="0.15;0.25;0.15" dur="3s" repeatCount="indefinite" />
    </rect>
    
    <!-- Button Text -->
    <text x="120" y="45" font-family="SF Pro Text, -apple-system, system-ui, sans-serif" font-size="16" fill="url(#button-text)" text-anchor="middle" font-weight="bold" filter="url(#quantum-glow)">QUANTUM POWER</text>
    
    <!-- Energy Particles -->
    <g>
      <circle cx="40" cy="40" r="1.5" fill="#BF4080" opacity="0.8">
        <animate attributeName="opacity" values="0.8;0.3;0.8" dur="4s" repeatCount="indefinite" />
        <animate attributeName="r" values="1.5;2;1.5" dur="4s" repeatCount="indefinite" />
      </circle>
      
      <circle cx="75" cy="40" r="1.5" fill="#5AC8FA" opacity="0.8">
        <animate attributeName="opacity" values="0.8;0.3;0.8" dur="3s" repeatCount="indefinite" />
        <animate attributeName="r" values="1.5;2;1.5" dur="3s" repeatCount="indefinite" />
      </circle>
      
      <circle cx="110" cy="40" r="1.5" fill="#BF4080" opacity="0.8">
        <animate attributeName="opacity" values="0.8;0.3;0.8" dur="5s" repeatCount="indefinite" />
        <animate attributeName="r" values="1.5;2;1.5" dur="5s" repeatCount="indefinite" />
      </circle>
      
      <circle cx="145" cy="40" r="1.5" fill="#5AC8FA" opacity="0.8">
        <animate attributeName="opacity" values="0.8;0.3;0.8" dur="4s" repeatCount="indefinite" />
        <animate attributeName="r" values="1.5;2;1.5" dur="4s" repeatCount="indefinite" />
      </circle>
      
      <circle cx="180" cy="40" r="1.5" fill="#BF4080" opacity="0.8">
        <animate attributeName="opacity" values="0.8;0.3;0.8" dur="3s" repeatCount="indefinite" />
        <animate attributeName="r" values="1.5;2;1.5" dur="3s" repeatCount="indefinite" />
      </circle>
    </g>
    
    <!-- Dimensional Depth Lines -->
    <path d="M30,30 L40,25 M50,30 L60,25 M70,30 L80,25 M90,30 L100,25 M110,30 L120,25 M130,30 L140,25 M150,30 L160,25 M170,30 L180,25 M190,30 L200,25" stroke="#BF4080" stroke-width="0.3" opacity="0.5" />
  </g>
  
  <!-- Hover Effect: Uncomment and modify for interactive use in HTML
  <rect x="10" y="10" width="220" height="60" rx="8" fill="transparent" stroke="transparent" 
    onmouseover="
      evt.target.previousElementSibling.querySelector('rect[fill=\'url(#quantum-gradient)\']').setAttribute('fill', 'url(#quantum-edge)');
      evt.target.previousElementSibling.querySelector('rect[filter=\'url(#quantum-glow)\']').setAttribute('opacity', '0.3');
    "
    onmouseout="
      evt.target.previousElementSibling.querySelector('rect[fill=\'url(#quantum-edge)\']').setAttribute('fill', 'url(#quantum-gradient)');
      evt.target.previousElementSibling.querySelector('rect[filter=\'url(#quantum-glow)\']').setAttribute('opacity', '0.15');
    "
  />
  -->
</svg>