<svg xmlns="http://www.w3.org/2000/svg" viewBox="0 0 900 500">
  <!-- Background with quantum-spatial grid -->
  <rect width="900" height="500" fill="#0A0621" />
  
  <!-- Grid background -->
  <g opacity="0.15">
    <!-- Horizontal grid lines with perspective effect -->
    <path d="M200,450 L700,450" stroke="#5AC8FA" stroke-width="1" />
    <path d="M150,400 L750,400" stroke="#5AC8FA" stroke-width="1" />
    <path d="M125,350 L775,350" stroke="#5AC8FA" stroke-width="1" />
    <path d="M100,300 L800,300" stroke="#5AC8FA" stroke-width="1" />
    <path d="M90,250 L810,250" stroke="#5AC8FA" stroke-width="1" />
    <path d="M80,200 L820,200" stroke="#5AC8FA" stroke-width="1" />
    <path d="M70,150 L830,150" stroke="#5AC8FA" stroke-width="1" />
    <path d="M60,100 L840,100" stroke="#5AC8FA" stroke-width="1" />
    
    <!-- Vertical grid lines -->
    <path d="M200,100 L200,450" stroke="#5AC8FA" stroke-width="1" />
    <path d="M300,100 L300,450" stroke="#5AC8FA" stroke-width="1" />
    <path d="M400,100 L400,450" stroke="#5AC8FA" stroke-width="1" />
    <path d="M500,100 L500,450" stroke="#5AC8FA" stroke-width="1" />
    <path d="M600,100 L600,450" stroke="#5AC8FA" stroke-width="1" />
    <path d="M700,100 L700,450" stroke="#5AC8FA" stroke-width="1" />
  </g>
  
  <!-- Title -->
  <text x="450" y="50" font-family="'SF Pro Display', -apple-system, sans-serif" font-size="24" font-weight="bold" fill="#FFFFFF" text-anchor="middle">Fantasy Worldbuilding Pipeline</text>
  
  <!-- Flow diagram with quantum-spatial aesthetic -->
  
  <!-- First level - Fantasy Worldbuilding Suite -->
  <rect x="350" y="80" width="200" height="50" rx="10" fill="#131A36" stroke="#5AC8FA" stroke-width="2" />
  <text x="450" y="110" font-family="'SF Pro Display', -apple-system, sans-serif" font-size="16" fill="#FFFFFF" text-anchor="middle">Fantasy Worldbuilding Suite</text>
  
  <!-- Connecting arrow -->
  <path d="M450,130 L450,150" stroke="#5AC8FA" stroke-width="2" marker-end="url(#arrowhead)" />
  
  <!-- Second level - Notion Database -->
  <rect x="350" y="150" width="200" height="50" rx="10" fill="#131A36" stroke="#5AC8FA" stroke-width="2" />
  <text x="450" y="180" font-family="'SF Pro Display', -apple-system, sans-serif" font-size="16" fill="#FFFFFF" text-anchor="middle">Notion Database</text>
  
  <!-- Connecting arrow -->
  <path d="M450,200 L450,220" stroke="#5AC8FA" stroke-width="2" marker-end="url(#arrowhead)" />
  
  <!-- Third level - GRID Automations -->
  <path d="M350,220 L550,220 L550,270 L450,300 L350,270 Z" fill="#331F4A" stroke="#6A3093" stroke-width="2" />
  <text x="450" y="255" font-family="'SF Pro Display', -apple-system, sans-serif" font-size="16" fill="#FFFFFF" text-anchor="middle">GRID Automations</text>
  
  <!-- Content generation outputs -->
  <rect x="150" y="320" width="120" height="40" rx="5" fill="#331F4A" stroke="#5AC8FA" stroke-width="1.5" />
  <text x="210" y="345" font-family="'SF Pro Display', -apple-system, sans-serif" font-size="14" fill="#FFFFFF" text-anchor="middle">Lore Snippets</text>
  
  <rect x="280" y="320" width="120" height="40" rx="5" fill="#331F4A" stroke="#5AC8FA" stroke-width="1.5" />
  <text x="340" y="345" font-family="'SF Pro Display', -apple-system, sans-serif" font-size="14" fill="#FFFFFF" text-anchor="middle">Character Bios</text>
  
  <rect x="410" y="320" width="120" height="40" rx="5" fill="#331F4A" stroke="#5AC8FA" stroke-width="1.5" />
  <text x="470" y="345" font-family="'SF Pro Display', -apple-system, sans-serif" font-size="14" fill="#FFFFFF" text-anchor="middle">Story Outlines</text>
  
  <rect x="540" y="320" width="120" height="40" rx="5" fill="#331F4A" stroke="#5AC8FA" stroke-width="1.5" />
  <text x="600" y="345" font-family="'SF Pro Display', -apple-system, sans-serif" font-size="14" fill="#FFFFFF" text-anchor="middle">Environment</text>
  
  <rect x="670" y="320" width="120" height="40" rx="5" fill="#331F4A" stroke="#5AC8FA" stroke-width="1.5" />
  <text x="730" y="345" font-family="'SF Pro Display', -apple-system, sans-serif" font-size="14" fill="#FFFFFF" text-anchor="middle">Dialogue</text>
  
  <!-- Connecting arrows -->
  <path d="M390,265 L210,320" stroke="#5AC8FA" stroke-width="1.5" marker-end="url(#arrowhead)" />
  <text x="270" y="280" font-family="'SF Pro Display', -apple-system, sans-serif" font-size="12" fill="#FFFFFF" text-anchor="middle">Generate</text>
  
  <path d="M425,265 L340,320" stroke="#5AC8FA" stroke-width="1.5" marker-end="url(#arrowhead)" />
  <text x="360" y="290" font-family="'SF Pro Display', -apple-system, sans-serif" font-size="12" fill="#FFFFFF" text-anchor="middle">Create</text>
  
  <path d="M450,300 L470,320" stroke="#5AC8FA" stroke-width="1.5" marker-end="url(#arrowhead)" />
  <text x="440" y="300" font-family="'SF Pro Display', -apple-system, sans-serif" font-size="12" fill="#FFFFFF" text-anchor="middle">Produce</text>
  
  <path d="M475,265 L600,320" stroke="#5AC8FA" stroke-width="1.5" marker-end="url(#arrowhead)" />
  <text x="550" y="290" font-family="'SF Pro Display', -apple-system, sans-serif" font-size="12" fill="#FFFFFF" text-anchor="middle">Generate</text>
  
  <path d="M510,265 L730,320" stroke="#5AC8FA" stroke-width="1.5" marker-end="url(#arrowhead)" />
  <text x="650" y="280" font-family="'SF Pro Display', -apple-system, sans-serif" font-size="12" fill="#FFFFFF" text-anchor="middle">Create</text>
  
  <!-- Connecting arrows to Game Content Library -->
  <path d="M210,360 L450,380" stroke="#5AC8FA" stroke-width="1.5" marker-end="url(#arrowhead)" />
  <path d="M340,360 L450,380" stroke="#5AC8FA" stroke-width="1.5" marker-end="url(#arrowhead)" />
  <path d="M470,360 L450,380" stroke="#5AC8FA" stroke-width="1.5" marker-end="url(#arrowhead)" />
  <path d="M600,360 L450,380" stroke="#5AC8FA" stroke-width="1.5" marker-end="url(#arrowhead)" />
  <path d="M730,360 L450,380" stroke="#5AC8FA" stroke-width="1.5" marker-end="url(#arrowhead)" />
  
  <!-- Game Content Library -->
  <rect x="350" y="380" width="200" height="50" rx="10" fill="#131A36" stroke="#5AC8FA" stroke-width="2" />
  <text x="450" y="410" font-family="'SF Pro Display', -apple-system, sans-serif" font-size="16" fill="#FFFFFF" text-anchor="middle">Game Content Library</text>
  
  <!-- Connecting arrow -->
  <path d="M450,430 L450,450" stroke="#5AC8FA" stroke-width="2" marker-end="url(#arrowhead)" />
  
  <!-- Framer Integration -->
  <path d="M350,450 L550,450 L550,500 L450,530 L350,500 Z" fill="#331F4A" stroke="#6A3093" stroke-width="2" />
  <text x="450" y="485" font-family="'SF Pro Display', -apple-system, sans-serif" font-size="16" fill="#FFFFFF" text-anchor="middle">Framer Integration</text>
  
  <!-- Final outputs -->
  <rect x="150" y="550" width="120" height="40" rx="5" fill="#0D0D15" stroke="#BF4080" stroke-width="1.5" />
  <text x="210" y="575" font-family="'SF Pro Display', -apple-system, sans-serif" font-size="14" fill="#FFFFFF" text-anchor="middle">iOS Companion App</text>
  
  <rect x="400" y="550" width="120" height="40" rx="5" fill="#0D0D15" stroke="#BF4080" stroke-width="1.5" />
  <text x="460" y="575" font-family="'SF Pro Display', -apple-system, sans-serif" font-size="14" fill="#FFFFFF" text-anchor="middle">World of Jrotharke</text>
  
  <rect x="650" y="550" width="120" height="40" rx="5" fill="#0D0D15" stroke="#BF4080" stroke-width="1.5" />
  <text x="710" y="575" font-family="'SF Pro Display', -apple-system, sans-serif" font-size="14" fill="#FFFFFF" text-anchor="middle">Vision Pro Experiences</text>
  
  <!-- Connecting arrows -->
  <path d="M390,495 L210,550" stroke="#BF4080" stroke-width="1.5" marker-end="url(#arrowhead)" />
  <text x="270" y="530" font-family="'SF Pro Display', -apple-system, sans-serif" font-size="12" fill="#FFFFFF" text-anchor="middle">Lore Database</text>
  
  <path d="M450,530 L460,550" stroke="#BF4080" stroke-width="1.5" marker-end="url(#arrowhead)" />
  <text x="440" y="540" font-family="'SF Pro Display', -apple-system, sans-serif" font-size="12" fill="#FFFFFF" text-anchor="middle">Story Assets</text>
  
  <path d="M510,495 L710,550" stroke="#BF4080" stroke-width="1.5" marker-end="url(#arrowhead)" />
  <text x="650" y="530" font-family="'SF Pro Display', -apple-system, sans-serif" font-size="12" fill="#FFFFFF" text-anchor="middle">Environmental Elements</text>
  
  <!-- Arrow marker definition -->
  <defs>
    <marker id="arrowhead" markerWidth="10" markerHeight="7" refX="0" refY="3.5" orient="auto">
      <polygon points="0 0, 10 3.5, 0 7" fill="#5AC8FA" />
    </marker>
  </defs>

  <!-- Quantum pixel decorative elements -->
  <rect x="120" y="200" width="10" height="10" fill="#5AC8FA" opacity="0.8" />
  <rect x="130" y="200" width="10" height="10" fill="#6A3093" opacity="0.8" />
  
  <rect x="770" y="200" width="10" height="10" fill="#5AC8FA" opacity="0.8" />
  <rect x="780" y="200" width="10" height="10" fill="#6A3093" opacity="0.8" />
  
  <rect x="300" y="80" width="10" height="10" fill="#5AC8FA" opacity="0.8" />
  <rect x="310" y="80" width="10" height="10" fill="#6A3093" opacity="0.8" />
  
  <rect x="590" y="80" width="10" height="10" fill="#5AC8FA" opacity="0.8" />
  <rect x="600" y="80" width="10" height="10" fill="#6A3093" opacity="0.8" />
  
  <rect x="300" y="380" width="10" height="10" fill="#5AC8FA" opacity="0.8" />
  <rect x="310" y="380" width="10" height="10" fill="#6A3093" opacity="0.8" />
  
  <rect x="590" y="380" width="10" height="10" fill="#5AC8FA" opacity="0.8" />
  <rect x="600" y="380" width="10" height="10" fill="#6A3093" opacity="0.8" />
</svg>