<svg xmlns="http://www.w3.org/2000/svg" viewBox="0 0 1200 800">
  <!-- Background -->
  <rect width="1200" height="800" fill="#0A0621" />

  <!-- Grid background for quantum-spatial aesthetic -->
  <g opacity="0.1">
    <!-- Horizontal grid lines -->
    <path d="M50,750 L1150,750" stroke="#5AC8FA" stroke-width="1" />
    <path d="M50,700 L1150,700" stroke="#5AC8FA" stroke-width="1" />
    <path d="M50,650 L1150,650" stroke="#5AC8FA" stroke-width="1" />
    <path d="M50,600 L1150,600" stroke="#5AC8FA" stroke-width="1" />
    <path d="M50,550 L1150,550" stroke="#5AC8FA" stroke-width="1" />
    <path d="M50,500 L1150,500" stroke="#5AC8FA" stroke-width="1" />
    <path d="M50,450 L1150,450" stroke="#5AC8FA" stroke-width="1" />
    <path d="M50,400 L1150,400" stroke="#5AC8FA" stroke-width="1" />
    <path d="M50,350 L1150,350" stroke="#5AC8FA" stroke-width="1" />
    <path d="M50,300 L1150,300" stroke="#5AC8FA" stroke-width="1" />
    <path d="M50,250 L1150,250" stroke="#5AC8FA" stroke-width="1" />
    <path d="M50,200 L1150,200" stroke="#5AC8FA" stroke-width="1" />
    <path d="M50,150 L1150,150" stroke="#5AC8FA" stroke-width="1" />
    <path d="M50,100 L1150,100" stroke="#5AC8FA" stroke-width="1" />
    
    <!-- Vertical grid lines -->
    <path d="M50,50 L50,750" stroke="#5AC8FA" stroke-width="1" />
    <path d="M150,50 L150,750" stroke="#5AC8FA" stroke-width="1" />
    <path d="M250,50 L250,750" stroke="#5AC8FA" stroke-width="1" />
    <path d="M350,50 L350,750" stroke="#5AC8FA" stroke-width="1" />
    <path d="M450,50 L450,750" stroke="#5AC8FA" stroke-width="1" />
    <path d="M550,50 L550,750" stroke="#5AC8FA" stroke-width="1" />
    <path d="M650,50 L650,750" stroke="#5AC8FA" stroke-width="1" />
    <path d="M750,50 L750,750" stroke="#5AC8FA" stroke-width="1" />
    <path d="M850,50 L850,750" stroke="#5AC8FA" stroke-width="1" />
    <path d="M950,50 L950,750" stroke="#5AC8FA" stroke-width="1" />
    <path d="M1050,50 L1050,750" stroke="#5AC8FA" stroke-width="1" />
    <path d="M1150,50 L1150,750" stroke="#5AC8FA" stroke-width="1" />
  </g>

  <!-- Header -->
  <rect x="50" y="50" width="1100" height="60" rx="5" fill="#131A36" />
  <text x="600" y="90" font-family="'SF Pro Display', sans-serif" font-size="28" font-weight="bold" fill="#FFFFFF" text-anchor="middle">ARTHUR'S GAME DESIGN WORKSHOP</text>
  
  <!-- Sidebar -->
  <rect x="50" y="120" width="200" height="630" rx="5" fill="#331F4A" />
  
  <!-- Dashboard Sections -->
  <rect x="260" y="120" width="430" height="300" rx="5" fill="#131A36" />
  <rect x="260" y="430" width="430" height="320" rx="5" fill="#131A36" />
  <rect x="700" y="120" width="450" height="320" rx="5" fill="#131A36" />
  <rect x="700" y="450" width="450" height="300" rx="5" fill="#131A36" />
  
  <!-- Section Titles -->
  <text x="475" y="150" font-family="'SF Pro Display', sans-serif" font-size="20" font-weight="bold" fill="#FFFFFF" text-anchor="middle">WORLDBUILDING DASHBOARD</text>
  <text x="475" y="460" font-family="'SF Pro Display', sans-serif" font-size="20" font-weight="bold" fill="#FFFFFF" text-anchor="middle">NARRATIVE DESIGN PIPELINE</text>
  <text x="925" y="150" font-family="'SF Pro Display', sans-serif" font-size="20" font-weight="bold" fill="#FFFFFF" text-anchor="middle">CHARACTER DEVELOPMENT</text>
  <text x="925" y="480" font-family="'SF Pro Display', sans-serif" font-size="20" font-weight="bold" fill="#FFFFFF" text-anchor="middle">SYSTEMS DESIGN</text>
  
  <!-- Sidebar Menu -->
  <text x="150" y="160" font-family="'SF Pro Display', sans-serif" font-size="18" font-weight="bold" fill="#FFFFFF" text-anchor="middle">COMMAND CENTER</text>
  
  <!-- Sidebar Menu Items -->
  <rect x="70" y="180" width="160" height="40" rx="5" fill="#6A3093" />
  <text x="150" y="205" font-family="'SF Pro Display', sans-serif" font-size="14" fill="#FFFFFF" text-anchor="middle">Worldbuilding Suite</text>
  
  <rect x="70" y="230" width="160" height="40" rx="5" fill="#0D0D15" />
  <text x="150" y="255" font-family="'SF Pro Display', sans-serif" font-size="14" fill="#FFFFFF" text-anchor="middle">Narrative Engine</text>
  
  <rect x="70" y="280" width="160" height="40" rx="5" fill="#0D0D15" />
  <text x="150" y="305" font-family="'SF Pro Display', sans-serif" font-size="14" fill="#FFFFFF" text-anchor="middle">Character Manager</text>
  
  <rect x="70" y="330" width="160" height="40" rx="5" fill="#0D0D15" />
  <text x="150" y="355" font-family="'SF Pro Display', sans-serif" font-size="14" fill="#FFFFFF" text-anchor="middle">Systems Designer</text>
  
  <rect x="70" y="380" width="160" height="40" rx="5" fill="#0D0D15" />
  <text x="150" y="405" font-family="'SF Pro Display', sans-serif" font-size="14" fill="#FFFFFF" text-anchor="middle">AI Integration Hub</text>

  <rect x="70" y="430" width="160" height="40" rx="5" fill="#0D0D15" />
  <text x="150" y="455" font-family="'SF Pro Display', sans-serif" font-size="14" fill="#FFFFFF" text-anchor="middle">Quest Designer</text>
  
  <rect x="70" y="480" width="160" height="40" rx="5" fill="#0D0D15" />
  <text x="150" y="505" font-family="'SF Pro Display', sans-serif" font-size="14" fill="#FFFFFF" text-anchor="middle">Release Planner</text>
  
  <!-- Quantum separator -->
  <rect x="80" y="540" width="140" height="1" fill="#5AC8FA" />
  <rect x="80" y="545" width="140" height="1" fill="#BF4080" />
  
  <text x="150" y="580" font-family="'SF Pro Display', sans-serif" font-size="16" font-weight="bold" fill="#FFFFFF" text-anchor="middle">PROJECT STATUS</text>
  
  <!-- Project Status Section -->
  <rect x="70" y="600" width="160" height="120" rx="5" fill="#131A36" />
  
  <!-- Status Indicators -->
  <circle cx="90" cy="625" r="8" fill="#2D854D" />
  <text x="170" y="630" font-family="'SF Pro Display', sans-serif" font-size="14" fill="#FFFFFF" text-anchor="end">Worldbuilding</text>
  
  <circle cx="90" cy="655" r="8" fill="#FFCC00" />
  <text x="170" y="660" font-family="'SF Pro Display', sans-serif" font-size="14" fill="#FFFFFF" text-anchor="end">Narrative Design</text>
  
  <circle cx="90" cy="685" r="8" fill="#FFCC00" />
  <text x="170" y="690" font-family="'SF Pro Display', sans-serif" font-size="14" fill="#FFFFFF" text-anchor="end">Character Design</text>
  
  <circle cx="90" cy="715" r="8" fill="#BF4080" />
  <text x="170" y="720" font-family="'SF Pro Display', sans-serif" font-size="14" fill="#FFFFFF" text-anchor="end">Systems Design</text>
  
  <!-- Worldbuilding Dashboard Contents -->
  <g transform="translate(280, 170)">
    <!-- World Map Visualization with quantum aesthetic -->
    <rect x="0" y="0" width="390" height="230" rx="5" fill="#0D0D15" />
    
    <!-- Stylized map with quantum-spatial aesthetics -->
    <path d="M50,115 Q120,70 190,105 Q250,140 340,110" stroke="#5AC8FA" stroke-width="2" fill="none" />
    <path d="M70,190 Q150,150 220,170 Q300,190 340,150" stroke="#6A3093" stroke-width="2" fill="none" />
    
    <!-- Regions with quantum pixel aesthetics -->
    <circle cx="120" cy="100" r="25" fill="#331F4A" opacity="0.7" stroke="#5AC8FA" stroke-width="1" />
    <text x="120" cy="100" font-family="'SF Pro Display', sans-serif" font-size="10" fill="#FFFFFF" text-anchor="middle">Hacroth</text>
    
    <circle cx="220" cy="150" r="30" fill="#331F4A" opacity="0.7" stroke="#BF4080" stroke-width="1" />
    <text x="220" cy="150" font-family="'SF Pro Display', sans-serif" font-size="10" fill="#FFFFFF" text-anchor="middle">Aldoria</text>
    
    <circle cx="300" cy="120" r="20" fill="#331F4A" opacity="0.7" stroke="#6A3093" stroke-width="1" />
    <text x="300" cy="120" font-family="'SF Pro Display', sans-serif" font-size="10" fill="#FFFFFF" text-anchor="middle">Cholash</text>
    
    <!-- Quantum pixels for decoration -->
    <rect x="80" y="80" width="8" height="8" fill="#5AC8FA" />
    <rect x="88" y="80" width="8" height="8" fill="#6A3093" />
    <rect x="240" y="140" width="8" height="8" fill="#BF4080" />
    <rect x="248" y="140" width="8" height="8" fill="#5AC8FA" />
    <rect x="290" y="100" width="8" height="8" fill="#6A3093" />
    <rect x="298" y="100" width="8" height="8" fill="#BF4080" />
  </g>
  
  <!-- Worldbuilding Metrics -->
  <rect x="480" y="170" width="190" height="230" rx="5" fill="#0D0D15" />
  
  <text x="575" y="195" font-family="'SF Pro Display', sans-serif" font-size="16" fill="#FFFFFF" text-anchor="middle">Worldbuilding Metrics</text>
  
  <!-- Metrics with quantum-spatial styling -->
  <g transform="translate(490, 210)">
    <text x="0" y="15" font-family="'SF Pro Display', sans-serif" font-size="12" fill="#FFFFFF">Locations:</text>
    <text x="170" y="15" font-family="'SF Pro Display', sans-serif" font-size="12" fill="#5AC8FA" text-anchor="end">27/35</text>
    <rect x="0" y="20" width="170" height="5" rx="2" fill="#131A36" />
    <rect x="0" y="20" width="130" height="5" rx="2" fill="#5AC8FA" />
    
    <text x="0" y="45" font-family="'SF Pro Display', sans-serif" font-size="12" fill="#FFFFFF">Factions:</text>
    <text x="170" y="45" font-family="'SF Pro Display', sans-serif" font-size="12" fill="#6A3093" text-anchor="end">9/12</text>
    <rect x="0" y="50" width="170" height="5" rx="2" fill="#131A36" />
    <rect x="0" y="50" width="127" height="5" rx="2" fill="#6A3093" />
    
    <text x="0" y="75" font-family="'SF Pro Display', sans-serif" font-size="12" fill="#FFFFFF">Magic Systems:</text>
    <text x="170" y="75" font-family="'SF Pro Display', sans-serif" font-size="12" fill="#BF4080" text-anchor="end">3/3</text>
    <rect x="0" y="80" width="170" height="5" rx="2" fill="#131A36" />
    <rect x="0" y="80" width="170" height="5" rx="2" fill="#BF4080" />
    
    <text x="0" y="105" font-family="'SF Pro Display', sans-serif" font-size="12" fill="#FFFFFF">Lore Entries:</text>
    <text x="170" y="105" font-family="'SF Pro Display', sans-serif" font-size="12" fill="#5AC8FA" text-anchor="end">42/75</text>
    <rect x="0" y="110" width="170" height="5" rx="2" fill="#131A36" />
    <rect x="0" y="110" width="95" height="5" rx="2" fill="#5AC8FA" />
    
    <text x="0" y="135" font-family="'SF Pro Display', sans-serif" font-size="12" fill="#FFFFFF">Creatures:</text>
    <text x="170" y="135" font-family="'SF Pro Display', sans-serif" font-size="12" fill="#6A3093" text-anchor="end">24/40</text>
    <rect x="0" y="140" width="170" height="5" rx="2" fill="#131A36" />
    <rect x="0" y="140" width="100" height="5" rx="2" fill="#6A3093" />
    
    <text x="0" y="165" font-family="'SF Pro Display', sans-serif" font-size="12" fill="#FFFFFF">Items:</text>
    <text x="170" y="165" font-family="'SF Pro Display', sans-serif" font-size="12" fill="#BF4080" text-anchor="end">36/60</text>
    <rect x="0" y="170" width="170" height="5" rx="2" fill="#131A36" />
    <rect x="0" y="170" width="105" height="5" rx="2" fill="#BF4080" />
  </g>
  
  <!-- Narrative Design Pipeline -->
  <g transform="translate(280, 480)">
    <!-- Narrative flow visualization -->
    <rect x="0" y="0" width="390" height="250" rx="5" fill="#0D0D15" />
    
    <!-- Narrative nodes -->
    <circle cx="60" cy="50" r="25" fill="#331F4A" stroke="#5AC8FA" stroke-width="1" />
    <text x="60" y="54" font-family="'SF Pro Display', sans-serif" font-size="10" fill="#FFFFFF" text-anchor="middle">Start</text>
    
    <circle cx="160" cy="50" r="25" fill="#331F4A" stroke="#6A3093" stroke-width="1" />
    <text x="160" y="54" font-family="'SF Pro Display', sans-serif" font-size="10" fill="#FFFFFF" text-anchor="middle">Act 1</text>
    
    <circle cx="260" cy="50" r="25" fill="#331F4A" stroke="#BF4080" stroke-width="1" />
    <text x="260" y="54" font-family="'SF Pro Display', sans-serif" font-size="10" fill="#FFFFFF" text-anchor="middle">Act 2</text>
    
    <circle cx="340" cy="100" r="25" fill="#131A36" stroke="#5AC8FA" stroke-width="1" stroke-dasharray="4,2" />
    <text x="340" y="104" font-family="'SF Pro Display', sans-serif" font-size="10" fill="#FFFFFF" text-anchor="middle">Act 3</text>
    
    <circle cx="260" cy="150" r="25" fill="#131A36" stroke="#6A3093" stroke-width="1" stroke-dasharray="4,2" />
    <text x="260" y="154" font-family="'SF Pro Display', sans-serif" font-size="10" fill="#FFFFFF" text-anchor="middle">Act 4</text>
    
    <circle cx="160" cy="150" r="25" fill="#131A36" stroke="#BF4080" stroke-width="1" stroke-dasharray="4,2" />
    <text x="160" y="154" font-family="'SF Pro Display', sans-serif" font-size="10" fill="#FFFFFF" text-anchor="middle">Act 5</text>
    
    <circle cx="60" cy="150" r="25" fill="#131A36" stroke="#5AC8FA" stroke-width="1" stroke-dasharray="4,2" />
    <text x="60" y="154" font-family="'SF Pro Display', sans-serif" font-size="10" fill="#FFFFFF" text-anchor="middle">End</text>
    
    <!-- Connection lines -->
    <path d="M85,50 L135,50" stroke="#5AC8FA" stroke-width="2" />
    <path d="M185,50 L235,50" stroke="#6A3093" stroke-width="2" />
    <path d="M285,50 L320,85" stroke="#BF4080" stroke-width="2" />
    <path d="M340,125 L285,140" stroke="#5AC8FA" stroke-width="2" stroke-dasharray="4,2" />
    <path d="M235,150 L185,150" stroke="#6A3093" stroke-width="2" stroke-dasharray="4,2" />
    <path d="M135,150 L85,150" stroke="#BF4080" stroke-width="2" stroke-dasharray="4,2" />
    
    <!-- Decision point indicators -->
    <rect x="152" y="42" width="16" height="16" fill="#331F4A" stroke="#FFFFFF" stroke-width="1" transform="rotate(45, 160, 50)" />
    <rect x="252" y="42" width="16" height="16" fill="#331F4A" stroke="#FFFFFF" stroke-width="1" transform="rotate(45, 260, 50)" />
    <rect x="332" y="92" width="16" height="16" fill="#131A36" stroke="#FFFFFF" stroke-width="1" transform="rotate(45, 340, 100)" stroke-dasharray="2,1" />
    <rect x="252" y="142" width="16" height="16" fill="#131A36" stroke="#FFFFFF" stroke-width="1" transform="rotate(45, 260, 150)" stroke-dasharray="2,1" />
    <rect x="152" y="142" width="16" height="16" fill="#131A36" stroke="#FFFFFF" stroke-width="1" transform="rotate(45, 160, 150)" stroke-dasharray="2,1" />
    
    <!-- Current focus indicator -->
    <circle cx="260" cy="50" r="35" fill="none" stroke="#BF4080" stroke-width="1" stroke-dasharray="3,3" />
    
    <!-- Status text -->
    <text x="195" y="200" font-family="'SF Pro Display', sans-serif" font-size="14" fill="#FFFFFF" text-anchor="middle">Current Focus: Act 2 Development</text>
    <text x="195" y="225" font-family="'SF Pro Display', sans-serif" font-size="12" fill="#5AC8FA" text-anchor="middle">8 Storylines Active / 15 Decision Points</text>
  </g>
  
  <!-- Character Development Dashboard -->
  <g transform="translate(720, 170)">
    <!-- Character stats overview -->
    <rect x="0" y="0" width="410" height="250" rx="5" fill="#0D0D15" />
    
    <!-- Character visualization with quantum pixel aesthetic -->
    <circle cx="80" cy="90" r="50" fill="#131A36" stroke="#5AC8FA" stroke-width="2" />
    <g transform="translate(80, 90)">
      <!-- Stylized character silhouette -->
      <path d="M0,-25 C-5,-35 -15,-35 -10,-25 S0,-30 10,-25 S5,-35 0,-25" fill="#6A3093" />
      <rect x="-15" y="-25" width="30" height="35" rx="5" fill="#6A3093" />
      <rect x="-20" y="-10" width="10" height="30" rx="3" fill="#6A3093" />
      <rect x="10" y="-10" width="10" height="30" rx="3" fill="#6A3093" />
      <rect x="-10" y="10" width="8" height="30" rx="3" fill="#6A3093" />
      <rect x="2" y="10" width="8" height="30" rx="3" fill="#6A3093" />
      
      <!-- Quantum pixel effect -->
      <rect x="-8" y="-8" width="6" height="6" fill="#5AC8FA" opacity="0.8" />
      <rect x="2" y="-8" width="6" height="6" fill="#BF4080" opacity="0.8" />
    </g>
    
    <text x="80" y="160" font-family="'SF Pro Display', sans-serif" font-size="16" fill="#FFFFFF" text-anchor="middle">Active Character</text>
    <text x="80" y="180" font-family="'SF Pro Display', sans-serif" font-size="14" fill="#5AC8FA" text-anchor="middle">Eld, Merchant of Hacroth</text>
    
    <!-- Character attributes -->
    <g transform="translate(160, 30)">
      <text x="0" y="0" font-family="'SF Pro Display', sans-serif" font-size="16" fill="#FFFFFF">Character Attributes</text>
      
      <text x="0" y="30" font-family="'SF Pro Display', sans-serif" font-size="12" fill="#FFFFFF">Personality:</text>
      <text x="220" y="30" font-family="'SF Pro Display', sans-serif" font-size="12" fill="#5AC8FA" text-anchor="end">Calculating</text>
      
      <text x="0" y="55" font-family="'SF Pro Display', sans-serif" font-size="12" fill="#FFFFFF">Motivation:</text>
      <text x="220" y="55" font-family="'SF Pro Display', sans-serif" font-size="12" fill="#6A3093" text-anchor="end">Wealth and Influence</text>
      
      <text x="0" y="80" font-family="'SF Pro Display', sans-serif" font-size="12" fill="#FFFFFF">Background:</text>
      <text x="220" y="80" font-family="'SF Pro Display', sans-serif" font-size="12" fill="#BF4080" text-anchor="end">Former Noble</text>
      
      <text x="0" y="105" font-family="'SF Pro Display', sans-serif" font-size="12" fill="#FFFFFF">Faction:</text>
      <text x="220" y="105" font-family="'SF Pro Display', sans-serif" font-size="12" fill="#5AC8FA" text-anchor="end">Hacroth Traders Guild</text>
      
      <text x="0" y="130" font-family="'SF Pro Display', sans-serif" font-size="12" fill="#FFFFFF">Skills:</text>
      <text x="220" y="130" font-family="'SF Pro Display', sans-serif" font-size="12" fill="#6A3093" text-anchor="end">Persuasion, Appraisal</text>
      
      <text x="0" y="155" font-family="'SF Pro Display', sans-serif" font-size="12" fill="#FFFFFF">Weakness:</text>
      <text x="220" y="155" font-family="'SF Pro Display', sans-serif" font-size="12" fill="#BF4080" text-anchor="end">Overconfidence</text>
    </g>
    
    <!-- Character Relationship Network -->
    <rect x="0" y="200" width="410" height="50" rx="5" fill="#131A36" />
    <text x="205" y="230" font-family="'SF Pro Display', sans-serif" font-size="14" fill="#FFFFFF" text-anchor="middle">Character Network: 12 Connections</text>
  </g>
  
  <!-- Systems Design Dashboard -->
  <g transform="translate(720, 500)">
    <!-- Game mechanics visualizations -->
    <rect x="0" y="0" width="410" height="230" rx="5" fill="#0D0D15" />
    
    <!-- Combat System Diagram -->
    <g transform="translate(20, 30)">
      <text x="0" y="0" font-family="'SF Pro Display', sans-serif" font-size="16" fill="#FFFFFF">Combat System</text>
      
      <rect x="0" y="15" width="180" height="180" rx="5" fill="#131A36" />
      
      <!-- Combat flow diagram -->
      <circle cx="90" cy="50" r="20" fill="#331F4A" stroke="#5AC8FA" stroke-width="1" />
      <text x="90" cy="50" font-family="'SF Pro Display', sans-serif" font-size="10" fill="#FFFFFF" text-anchor="middle">Initiative</text>
      
      <circle cx="40" cy="100" r="20" fill="#331F4A" stroke="#6A3093" stroke-width="1" />
      <text x="40" cy="100" font-family="'SF Pro Display', sans-serif" font-size="10" fill="#FFFFFF" text-anchor="middle">Attack</text>
      
      <circle cx="140" cy="100" r="20" fill="#331F4A" stroke="#BF4080" stroke-width="1" />
      <text x="140" cy="100" font-family="'SF Pro Display', sans-serif" font-size="10" fill="#FFFFFF" text-anchor="middle">Defend</text>
      
      <circle cx="90" cy="150" r="20" fill="#331F4A" stroke="#5AC8FA" stroke-width="1" />
      <text x="90" cy="150" font-family="'SF Pro Display', sans-serif" font-size="10" fill="#FFFFFF" text-anchor="middle">Results</text>
      
      <!-- Connection lines -->
      <path d="M90,70 L50,85" stroke="#5AC8FA" stroke-width="1.5" />
      <path d="M90,70 L130,85" stroke="#5AC8FA" stroke-width="1.5" />
      <path d="M40,120 L80,140" stroke="#6A3093" stroke-width="1.5" />
      <path d="M140,120 L100,140" stroke="#BF4080" stroke-width="1.5" />
    </g>
    
    <!-- Magic System -->
    <g transform="translate(220, 30)">
      <text x="0" y="0" font-family="'SF Pro Display', sans-serif" font-size="16" fill="#FFFFFF">Magic System</text>
      
      <rect x="0" y="15" width="180" height="180" rx="5" fill="#131A36" />
      
      <!-- Magic types visualization -->
      <circle cx="50" cy="60" r="25" fill="#331F4A" stroke="#5AC8FA" stroke-width="1" />
      <text x="50" cy="60" font-family="'SF Pro Display', sans-serif" font-size="10" fill="#FFFFFF" text-anchor="middle">Jrotite</text>
      
      <circle cx="130" cy="60" r="25" fill="#331F4A" stroke="#6A3093" stroke-width="1" />
      <text x="130" cy="60" font-family="'SF Pro Display', sans-serif" font-size="10" fill="#FFFFFF" text-anchor="middle">Hacrothite</text>
      
      <circle cx="90" cy="120" r="25" fill="#331F4A" stroke="#BF4080" stroke-width="1" />
      <text x="90" cy="120" font-family="'SF Pro Display', sans-serif" font-size="10" fill="#FFFFFF" text-anchor="middle">Cholashite</text>
      
      <!-- Connection lines representing magic interactions -->
      <path d="M70,70 L110,70" stroke="#5AC8FA" stroke-width="1.5" />
      <path d="M60,80 L80,100" stroke="#5AC8FA" stroke-width="1.5" />
      <path d="M120,80 L100,100" stroke="#6A3093" stroke-width="1.5" />
      
      <!-- Magic properties visualization -->
      <rect x="45" y="150" width="10" height="10" fill="#5AC8FA" />
      <text x="60" y="160" font-family="'SF Pro Display', sans-serif" font-size="8" fill="#FFFFFF">Heartbeat</text>
      
      <rect x="105" y="150" width="10" height="10" fill="#6A3093" />
      <text x="120" y="160" font-family="'SF Pro Display', sans-serif" font-size="8" fill="#FFFFFF">Breath</text>
      
      <rect x="75" y="170" width="10" height="10" fill="#BF4080" />
      <text x="90" y="180" font-family="'SF Pro Display', sans-serif" font-size="8" fill="#FFFFFF">Steps</text>
    </g>
  </g>
  
  <!-- AI Integration Metrics -->
  <g transform="translate(720, 470)">
    <rect x="0" y="0" width="410" height="30" rx="5" fill="#131A36" />
    <text x="20" y="20" font-family="'SF Pro Display', sans-serif" font-size="14" fill="#FFFFFF">AI ASSISTANCE METRICS:</text>
    <text x="390" y="20" font-family="'SF Pro Display', sans-serif" font-size="14" fill="#5AC8FA" text-anchor="end">68% Character Dialogue / 47% World Lore</text>
  </g>
</svg>
