<svg xmlns="http://www.w3.org/2000/svg" viewBox="0 0 900 600">
  <!-- Background -->
  <rect width="900" height="600" fill="#0A0621" />
  
  <!-- Dimensional grid with perspective effect -->
  <g opacity="0.12">
    <!-- Horizontal grid lines with perspective effect -->
    <path d="M150,550 L750,550" stroke="#5AC8FA" stroke-width="1" />
    <path d="M100,500 L800,500" stroke="#5AC8FA" stroke-width="1" />
    <path d="M75,450 L825,450" stroke="#5AC8FA" stroke-width="1" />
    <path d="M50,400 L850,400" stroke="#5AC8FA" stroke-width="1" />
    <path d="M40,350 L860,350" stroke="#5AC8FA" stroke-width="1" />
    <path d="M30,300 L870,300" stroke="#5AC8FA" stroke-width="1" />
    <path d="M25,250 L875,250" stroke="#5AC8FA" stroke-width="1" />
    <path d="M20,200 L880,200" stroke="#5AC8FA" stroke-width="1" />
    <path d="M15,150 L885,150" stroke="#5AC8FA" stroke-width="1" />
    <path d="M10,100 L890,100" stroke="#5AC8FA" stroke-width="1" />
    
    <!-- Vertical grid lines -->
    <path d="M150,100 L150,550" stroke="#5AC8FA" stroke-width="1" />
    <path d="M225,100 L225,550" stroke="#5AC8FA" stroke-width="1" />
    <path d="M300,100 L300,550" stroke="#5AC8FA" stroke-width="1" />
    <path d="M375,100 L375,550" stroke="#5AC8FA" stroke-width="1" />
    <path d="M450,100 L450,550" stroke="#5AC8FA" stroke-width="1" />
    <path d="M525,100 L525,550" stroke="#5AC8FA" stroke-width="1" />
    <path d="M600,100 L600,550" stroke="#5AC8FA" stroke-width="1" />
    <path d="M675,100 L675,550" stroke="#5AC8FA" stroke-width="1" />
    <path d="M750,100 L750,550" stroke="#5AC8FA" stroke-width="1" />
  </g>
  
  <!-- Title -->
  <text x="450" y="50" font-family="'SF Pro Display', -apple-system, BlinkMacSystemFont, sans-serif" font-size="26" font-weight="bold" fill="#FFFFFF" text-anchor="middle">Brand Expression Hub: Optimized Workspace Architecture</text>
  <text x="450" y="80" font-family="'SF Pro Display', -apple-system, BlinkMacSystemFont, sans-serif" font-size="16" fill="#5AC8FA" text-anchor="middle">M4-Optimized Neural Engine Integration for AI-Assisted Game Development</text>
  
  <!-- Main Content: Split into Brand Expression Hub and Personal Teamspace -->
  
  <!-- Brand Expression Hub Section (Left) -->
  <g transform="translate(280, 300)">
    <rect x="-250" y="-190" width="500" height="380" rx="10" fill="#131A36" opacity="0.8" stroke="#5AC8FA" stroke-width="2"/>
    
    <!-- Section Title -->
    <text x="0" y="-160" font-family="'SF Pro Display', -apple-system, BlinkMacSystemFont, sans-serif" font-size="22" font-weight="bold" fill="#FFFFFF" text-anchor="middle">Brand Expression Hub</text>
    
    <!-- Database Flow Visualization -->
    <g transform="translate(0, -125)">
      <!-- Flow diagram -->
      <rect x="-200" y="0" width="100" height="50" rx="5" fill="#331F4A" stroke="#5AC8FA" stroke-width="1.5"/>
      <text x="-150" y="30" font-family="'SF Pro Text', -apple-system, BlinkMacSystemFont, sans-serif" font-size="12" fill="#FFFFFF" text-anchor="middle">Brand Assets</text>
      
      <path d="M-100,25 L-50,25" stroke="#5AC8FA" stroke-width="1.5" marker-end="url(#arrowhead)"/>
      
      <rect x="-50" y="0" width="100" height="50" rx="5" fill="#331F4A" stroke="#5AC8FA" stroke-width="1.5"/>
      <text x="0" y="30" font-family="'SF Pro Text', -apple-system, BlinkMacSystemFont, sans-serif" font-size="12" fill="#FFFFFF" text-anchor="middle">Creation Workflows</text>
      
      <path d="M50,25 L100,25" stroke="#5AC8FA" stroke-width="1.5" marker-end="url(#arrowhead)"/>
      
      <rect x="100" y="0" width="100" height="50" rx="5" fill="#331F4A" stroke="#5AC8FA" stroke-width="1.5"/>
      <text x="150" y="30" font-family="'SF Pro Text', -apple-system, BlinkMacSystemFont, sans-serif" font-size="12" fill="#FFFFFF" text-anchor="middle">Implementation Guides</text>
      
      <path d="M150,50 L150,70" stroke="#5AC8FA" stroke-width="1.5" marker-end="url(#arrowhead)"/>
      
      <rect x="100" y="70" width="100" height="50" rx="5" fill="#331F4A" stroke="#6A3093" stroke-width="1.5"/>
      <text x="150" y="100" font-family="'SF Pro Text', -apple-system, BlinkMacSystemFont, sans-serif" font-size="12" fill="#FFFFFF" text-anchor="middle">Performance Tracking</text>
      
      <!-- Arrowhead marker definition -->
      <defs>
        <marker id="arrowhead" markerWidth="10" markerHeight="7" refX="9" refY="3.5" orient="auto">
          <polygon points="0 0, 10 3.5, 0 7" fill="#5AC8FA"/>
        </marker>
      </defs>
    </g>
    
    <!-- Key Views Section -->
    <g transform="translate(-125, 30)">
      <text x="0" y="0" font-family="'SF Pro Display', -apple-system, BlinkMacSystemFont, sans-serif" font-size="16" font-weight="bold" fill="#FFFFFF" text-anchor="start">Key Views</text>
      
      <!-- Generative Pipeline View -->
      <g transform="translate(0, 30)">
        <rect x="0" y="0" width="200" height="30" rx="5" fill="#331F4A" opacity="0.9"/>
        <text x="10" y="20" font-family="'SF Pro Text', -apple-system, BlinkMacSystemFont, sans-serif" font-size="12" fill="#FFFFFF">Generative Pipeline (Board)</text>
        <rect x="180" y="5" width="15" height="20" rx="3" fill="#BF4080" opacity="0.8"/>
        <text x="188" y="20" font-family="'SF Pro Text', -apple-system, BlinkMacSystemFont, sans-serif" font-size="14" fill="#FFFFFF" text-anchor="middle">⊞</text>
      </g>
      
      <!-- Visual Language Gallery View -->
      <g transform="translate(0, 70)">
        <rect x="0" y="0" width="200" height="30" rx="5" fill="#331F4A" opacity="0.9"/>
        <text x="10" y="20" font-family="'SF Pro Text', -apple-system, BlinkMacSystemFont, sans-serif" font-size="12" fill="#FFFFFF">Visual Language Gallery</text>
        <rect x="180" y="5" width="15" height="20" rx="3" fill="#6A3093" opacity="0.8"/>
        <text x="188" y="20" font-family="'SF Pro Text', -apple-system, BlinkMacSystemFont, sans-serif" font-size="14" fill="#FFFFFF" text-anchor="middle">◫</text>
      </g>
      
      <!-- 3D Asset Creation Flow View -->
      <g transform="translate(0, 110)">
        <rect x="0" y="0" width="200" height="30" rx="5" fill="#331F4A" opacity="0.9"/>
        <text x="10" y="20" font-family="'SF Pro Text', -apple-system, BlinkMacSystemFont, sans-serif" font-size="12" fill="#FFFFFF">3D Asset Creation Flow</text>
        <rect x="180" y="5" width="15" height="20" rx="3" fill="#5AC8FA" opacity="0.8"/>
        <text x="188" y="20" font-family="'SF Pro Text', -apple-system, BlinkMacSystemFont, sans-serif" font-size="14" fill="#FFFFFF" text-anchor="middle">↦</text>
      </g>
      
      <!-- Workflow Templates View -->
      <g transform="translate(0, 150)">
        <rect x="0" y="0" width="200" height="30" rx="5" fill="#331F4A" opacity="0.9"/>
        <text x="10" y="20" font-family="'SF Pro Text', -apple-system, BlinkMacSystemFont, sans-serif" font-size="12" fill="#FFFFFF">Workflow Templates</text>
        <rect x="180" y="5" width="15" height="20" rx="3" fill="#2D854D" opacity="0.8"/>
        <text x="188" y="20" font-family="'SF Pro Text', -apple-system, BlinkMacSystemFont, sans-serif" font-size="14" fill="#FFFFFF" text-anchor="middle">≡</text>
      </g>
    </g>
    
    <!-- AI Integration Points -->
    <g transform="translate(125, 30)">
      <text x="0" y="0" font-family="'SF Pro Display', -apple-system, BlinkMacSystemFont, sans-serif" font-size="16" font-weight="bold" fill="#FFFFFF" text-anchor="start">AI Integration Points</text>
      
      <!-- Ideogram Prompt Library -->
      <g transform="translate(0, 30)">
        <rect x="0" y="0" width="200" height="50" rx="5" fill="#6A3093" opacity="0.7"/>
        <text x="10" y="20" font-family="'SF Pro Text', -apple-system, BlinkMacSystemFont, sans-serif" font-size="12" font-weight="bold" fill="#FFFFFF">Ideogram Prompt Library</text>
        <text x="10" y="40" font-family="'SF Pro Text', -apple-system, BlinkMacSystemFont, sans-serif" font-size="10" fill="#FFFFFF">Quantum-spatial state templates</text>
        
        <!-- AI neuron visualization -->
        <g transform="translate(175, 25)" opacity="0.7">
          <circle cx="0" cy="0" r="15" fill="none" stroke="#5AC8FA" stroke-width="1"/>
          <circle cx="0" cy="0" r="5" fill="#5AC8FA"/>
          <path d="M0,-15 L0,-5" stroke="#5AC8FA" stroke-width="1"/>
          <path d="M10.6,-10.6 L3.5,-3.5" stroke="#5AC8FA" stroke-width="1"/>
          <path d="M15,0 L5,0" stroke="#5AC8FA" stroke-width="1"/>
          <path d="M10.6,10.6 L3.5,3.5" stroke="#5AC8FA" stroke-width="1"/>
          <path d="M0,15 L0,5" stroke="#5AC8FA" stroke-width="1"/>
          <path d="M-10.6,10.6 L-3.5,3.5" stroke="#5AC8FA" stroke-width="1"/>
          <path d="M-15,0 L-5,0" stroke="#5AC8FA" stroke-width="1"/>
          <path d="M-10.6,-10.6 L-3.5,-3.5" stroke="#5AC8FA" stroke-width="1"/>
        </g>
      </g>
      
      <!-- Style Consistency Checker -->
      <g transform="translate(0, 90)">
        <rect x="0" y="0" width="200" height="50" rx="5" fill="#6A3093" opacity="0.7"/>
        <text x="10" y="20" font-family="'SF Pro Text', -apple-system, BlinkMacSystemFont, sans-serif" font-size="12" font-weight="bold" fill="#FFFFFF">Style Consistency Checker</text>
        <text x="10" y="40" font-family="'SF Pro Text', -apple-system, BlinkMacSystemFont, sans-serif" font-size="10" fill="#FFFFFF">Neural engine visual comparison</text>
        
        <!-- Style consistency visualization -->
        <g transform="translate(175, 25)">
          <rect x="-15" y="-15" width="12" height="12" fill="#5AC8FA" opacity="0.7"/>
          <rect x="3" y="-15" width="12" height="12" fill="#5AC8FA" opacity="0.4"/>
          <rect x="-15" y="3" width="12" height="12" fill="#BF4080" opacity="0.7"/>
          <rect x="3" y="3" width="12" height="12" fill="#BF4080" opacity="0.4"/>
        </g>
      </g>
      
      <!-- Asset Generation Dashboards -->
      <g transform="translate(0, 150)">
        <rect x="0" y="0" width="200" height="50" rx="5" fill="#6A3093" opacity="0.7"/>
        <text x="10" y="20" font-family="'SF Pro Text', -apple-system, BlinkMacSystemFont, sans-serif" font-size="12" font-weight="bold" fill="#FFFFFF">Asset Generation Dashboards</text>
        <text x="10" y="40" font-family="'SF Pro Text', -apple-system, BlinkMacSystemFont, sans-serif" font-size="10" fill="#FFFFFF">M4-powered batch processing</text>
        
        <!-- Dashboard visualization -->
        <g transform="translate(175, 25)">
          <rect x="-15" y="-15" width="30" height="10" rx="2" fill="#5AC8FA" opacity="0.7"/>
          <rect x="-15" y="-3" width="20" height="6" rx="2" fill="#5AC8FA" opacity="0.5"/>
          <rect x="-15" y="5" width="25" height="6" rx="2" fill="#5AC8FA" opacity="0.6"/>
          <rect x="-15" y="13" width="15" height="6" rx="2" fill="#5AC8FA" opacity="0.4"/>
        </g>
      </g>
    </g>
  </g>
  
  <!-- Penny's Personal Teamspace (Right) -->
  <g transform="translate(700, 300)">
    <rect x="-170" y="-190" width="340" height="380" rx="10" fill="#131A36" opacity="0.8" stroke="#BF4080" stroke-width="2"/>
    
    <!-- Section Title -->
    <text x="0" y="-160" font-family="'SF Pro Display', -apple-system, BlinkMacSystemFont, sans-serif" font-size="22" font-weight="bold" fill="#FFFFFF" text-anchor="middle">Penny's Teamspace</text>
    <text x="0" y="-140" font-family="'SF Pro Display', -apple-system, BlinkMacSystemFont, sans-serif" font-size="14" fill="#BF4080" text-anchor="middle">Founder and Creative Director</text>
    
    <!-- Profile Section -->
    <g transform="translate(0, -100)">
      <!-- Profile icon/avatar -->
      <circle cx="0" cy="0" r="25" fill="#331F4A" stroke="#BF4080" stroke-width="1.5"/>
      <path d="M0,-15 C-8,-15 -13,-5 -13,5 C-13,15 -5,20 0,20 C5,20 13,15 13,5 C13,-5 8,-15 0,-15" fill="#BF4080" opacity="0.7"/>
      <circle cx="-8" cy="-5" r="3" fill="#331F4A"/>
      <circle cx="8" cy="-5" r="3" fill="#331F4A"/>
      <path d="M-6,8 C-3,12 3,12 6,8" fill="none" stroke="#331F4A" stroke-width="1.5"/>
      
      <!-- Status indicator -->
      <circle cx="20" cy="-15" r="5" fill="#2D854D"/>
    </g>
    
    <!-- Quick Access Tools -->
    <g transform="translate(0, -40)">
      <text x="0" y="0" font-family="'SF Pro Display', -apple-system, BlinkMacSystemFont, sans-serif" font-size="16" font-weight="bold" fill="#FFFFFF" text-anchor="middle">Quick Access</text>
      
      <!-- AI Assistant Tool -->
      <g transform="translate(-70, 30)">
        <rect x="-30" y="-20" width="60" height="60" rx="10" fill="#331F4A" stroke="#5AC8FA" stroke-width="1"/>
        <text x="0" y="0" font-family="'SF Pro Text', -apple-system, BlinkMacSystemFont, sans-serif" font-size="24" fill="#5AC8FA" text-anchor="middle">⦿</text>
        <text x="0" y="25" font-family="'SF Pro Text', -apple-system, BlinkMacSystemFont, sans-serif" font-size="9" fill="#FFFFFF" text-anchor="middle">AI Assistant</text>
      </g>
      
      <!-- Ideogram Tool -->
      <g transform="translate(0, 30)">
        <rect x="-30" y="-20" width="60" height="60" rx="10" fill="#331F4A" stroke="#BF4080" stroke-width="1"/>
        <text x="0" y="0" font-family="'SF Pro Text', -apple-system, BlinkMacSystemFont, sans-serif" font-size="24" fill="#BF4080" text-anchor="middle">✧</text>
        <text x="0" y="25" font-family="'SF Pro Text', -apple-system, BlinkMacSystemFont, sans-serif" font-size="9" fill="#FFFFFF" text-anchor="middle">Ideogram</text>
      </g>
      
      <!-- Brand Guide Tool -->
      <g transform="translate(70, 30)">
        <rect x="-30" y="-20" width="60" height="60" rx="10" fill="#331F4A" stroke="#6A3093" stroke-width="1"/>
        <text x="0" y="0" font-family="'SF Pro Text', -apple-system, BlinkMacSystemFont, sans-serif" font-size="24" fill="#6A3093" text-anchor="middle">◈</text>
        <text x="0" y="25" font-family="'SF Pro Text', -apple-system, BlinkMacSystemFont, sans-serif" font-size="9" fill="#FFFFFF" text-anchor="middle">Brand Guide</text>
      </g>
    </g>
    
    <!-- Current Projects -->
    <g transform="translate(0, 90)">
      <text x="0" y="0" font-family="'SF Pro Display', -apple-system, BlinkMacSystemFont, sans-serif" font-size="16" font-weight="bold" fill="#FFFFFF" text-anchor="middle">Current Projects</text>
      
      <!-- Project List -->
      <g transform="translate(0, 25)">
        <rect x="-140" y="0" width="280" height="30" rx="5" fill="#331F4A" opacity="0.8"/>
        <text x="-130" y="20" font-family="'SF Pro Text', -apple-system, BlinkMacSystemFont, sans-serif" font-size="12" fill="#FFFFFF">Jrotharke Portal Experience</text>
        <rect x="120" y="5" width="50" height="20" rx="3" fill="#5AC8FA" opacity="0.7"/>
        <text x="145" y="20" font-family="'SF Pro Text', -apple-system, BlinkMacSystemFont, sans-serif" font-size="10" fill="#FFFFFF" text-anchor="middle">Active</text>
      </g>
      
      <g transform="translate(0, 60)">
        <rect x="-140" y="0" width="280" height="30" rx="5" fill="#331F4A" opacity="0.8"/>
        <text x="-130" y="20" font-family="'SF Pro Text', -apple-system, BlinkMacSystemFont, sans-serif" font-size="12" fill="#FFFFFF">Oksana AI Branding Quiz</text>
        <rect x="120" y="5" width="50" height="20" rx="3" fill="#BF4080" opacity="0.7"/>
        <text x="145" y="20" font-family="'SF Pro Text', -apple-system, BlinkMacSystemFont, sans-serif" font-size="10" fill="#FFFFFF" text-anchor="middle">Priority</text>
      </g>
      
      <g transform="translate(0, 95)">
        <rect x="-140" y="0" width="280" height="30" rx="5" fill="#331F4A" opacity="0.8"/>
        <text x="-130" y="20" font-family="'SF Pro Text', -apple-system, BlinkMacSystemFont, sans-serif" font-size="12" fill="#FFFFFF">Quantum Style Guidelines 3.0</text>
        <rect x="120" y="5" width="50" height="20" rx="3" fill="#6A3093" opacity="0.7"/>
        <text x="145" y="20" font-family="'SF Pro Text', -apple-system, BlinkMacSystemFont, sans-serif" font-size="10" fill="#FFFFFF" text-anchor="middle">Planning</text>
      </g>
    </g>
  </g>
  
  <!-- Connection between Brand Hub and Personal Teamspace -->
  <g>
    <path d="M380,300 C430,270 550,270 600,300" stroke="#5AC8FA" stroke-width="2" stroke-dasharray="5,5" fill="none"/>
    <circle cx="380" cy="300" r="5" fill="#5AC8FA"/>
    <circle cx="600" cy="300" r="5" fill="#BF4080"/>
  </g>
  
  <!-- Sample Asset Visualization -->
  <g transform="translate(450, 520)">
    <rect x="-400" y="-30" width="800" height="90" rx="10" fill="#131A36" opacity="0.9"/>
    
    <text x="0" y="0" font-family="'SF Pro Display', -apple-system, BlinkMacSystemFont, sans-serif" font-size="18" font-weight="bold" fill="#FFFFFF" text-anchor="middle">Sample Asset Generative Pipeline Visualization</text>
    
    <!-- Pipeline flow visualization -->
    <g transform="translate(0, 35)">
      <!-- Conceptual Asset -->
      <g transform="translate(-350, 0)">
        <rect x="-30" y="-15" width="60" height="30" rx="5" fill="#331F4A"/>
        <text x="0" y="5" font-family="'SF Pro Text', -apple-system, BlinkMacSystemFont, sans-serif" font-size="12" fill="#FFFFFF" text-anchor="middle">Concept</text>
      </g>
      
      <!-- AI Generation -->
      <g transform="translate(-250, 0)">
        <rect x="-40" y="-15" width="80" height="30" rx="5" fill="#6A3093"/>
        <text x="0" y="5" font-family="'SF Pro Text', -apple-system, BlinkMacSystemFont, sans-serif" font-size="12" fill="#FFFFFF" text-anchor="middle">AI Generation</text>
      </g>
      
      <!-- Refinement -->
      <g transform="translate(-150, 0)">
        <rect x="-30" y="-15" width="60" height="30" rx="5" fill="#BF4080"/>
        <text x="0" y="5" font-family="'SF Pro Text', -apple-system, BlinkMacSystemFont, sans-serif" font-size="12" fill="#FFFFFF" text-anchor="middle">Refinement</text>
      </g>
      
      <!-- Integration -->
      <g transform="translate(-50, 0)">
        <rect x="-30" y="-15" width="60" height="30" rx="5" fill="#5AC8FA"/>
        <text x="0" y="5" font-family="'SF Pro Text', -apple-system, BlinkMacSystemFont, sans-serif" font-size="12" fill="#FFFFFF" text-anchor="middle">Integration</text>
      </g>
      
      <!-- Sample Asset Types -->
      <g transform="translate(75, 0)">
        <!-- Character Asset -->
        <rect x="0" y="-15" width="100" height="10" rx="3" fill="#5AC8FA" opacity="0.8"/>
        <text x="50" y="-5" font-family="'SF Pro Text', -apple-system, BlinkMacSystemFont, sans-serif" font-size="8" fill="#FFFFFF" text-anchor="middle">Character Asset</text>
        
        <!-- Environment Asset -->
        <rect x="0" y="0" width="80" height="10" rx="3" fill="#BF4080" opacity="0.8"/>
        <text x="40" y="10" font-family="'SF Pro Text', -apple-system, BlinkMacSystemFont, sans-serif" font-size="8" fill="#FFFFFF" text-anchor="middle">Environment</text>
        
        <!-- UI Element -->
        <rect x="0" y="15" width="60" height="10" rx="3" fill="#6A3093" opacity="0.8"/>
        <text x="30" y="25" font-family="'SF Pro Text', -apple-system, BlinkMacSystemFont, sans-serif" font-size="8" fill="#FFFFFF" text-anchor="middle">UI Element</text>
      </g>
      
      <!-- Performance Metrics -->
      <g transform="translate(200, 0)">
        <rect x="0" y="-15" width="100" height="30" rx="5" fill="#331F4A"/>
        <text x="50" y="-5" font-family="'SF Pro Text', -apple-system, BlinkMacSystemFont, sans-serif" font-size="10" fill="#FFFFFF" text-anchor="middle">Processing Time</text>
        <text x="50" y="10" font-family="'SF Pro Text', -apple-system, BlinkMacSystemFont, sans-serif" font-size="12" fill="#2D854D" text-anchor="middle">3.5x Faster</text>
      </g>
      
      <!-- M4 Optimization -->
      <g transform="translate(320, 0)">
        <rect x="0" y="-15" width="100" height="30" rx="5" fill="#331F4A"/>
        <text x="50" y="-5" font-family="'SF Pro Text', -apple-system, BlinkMacSystemFont, sans-serif" font-size="10" fill="#FFFFFF" text-anchor="middle">M4 Neural Engine</text>
        <text x="50" y="10" font-family="'SF Pro Text', -apple-system, BlinkMacSystemFont, sans-serif" font-size="12" fill="#5AC8FA" text-anchor="middle">Optimized</text>
      </g>
      
      <!-- Connection lines -->
      <path d="M-320,0 L-290,0" stroke="#5AC8FA" stroke-width="1.5" marker-end="url(#arrowhead2)"/>
      <path d="M-210,0 L-180,0" stroke="#5AC8FA" stroke-width="1.5" marker-end="url(#arrowhead2)"/>
      <path d="M-120,0 L-90,0" stroke="#5AC8FA" stroke-width="1.5" marker-end="url(#arrowhead2)"/>
      <path d="M-20,0 L25,0" stroke="#5AC8FA" stroke-width="1.5" marker-end="url(#arrowhead2)"/>
      <path d="M125,0 L150,0" stroke="#5AC8FA" stroke-width="1.5" marker-end="url(#arrowhead2)"/>
      <path d="M250,0 L270,0" stroke="#5AC8FA" stroke-width="1.5" marker-end="url(#arrowhead2)"/>
      
      <!-- Arrowhead marker definition -->
      <defs>
        <marker id="arrowhead2" markerWidth="10" markerHeight="7" refX="9" refY="3.5" orient="auto">
          <polygon points="0 0, 10 3.5, 0 7" fill="#5AC8FA"/>
        </marker>
      </defs>
    </g>
  </g>
</svg>
