<svg xmlns="http://www.w3.org/2000/svg" viewBox="0 0 1200 800">
  <!-- Background with subtle grid -->
  <rect width="1200" height="800" fill="#131A36" />
  <g opacity="0.1">
    <path d="M0,100 L1200,100" stroke="#5AC8FA" stroke-width="1" />
    <path d="M0,200 L1200,200" stroke="#5AC8FA" stroke-width="1" />
    <path d="M0,300 L1200,300" stroke="#5AC8FA" stroke-width="1" />
    <path d="M0,400 L1200,400" stroke="#5AC8FA" stroke-width="1" />
    <path d="M0,500 L1200,500" stroke="#5AC8FA" stroke-width="1" />
    <path d="M0,600 L1200,600" stroke="#5AC8FA" stroke-width="1" />
    <path d="M0,700 L1200,700" stroke="#5AC8FA" stroke-width="1" />
    
    <path d="M100,0 L100,800" stroke="#5AC8FA" stroke-width="1" />
    <path d="M300,0 L300,800" stroke="#5AC8FA" stroke-width="1" />
    <path d="M500,0 L500,800" stroke="#5AC8FA" stroke-width="1" />
    <path d="M700,0 L700,800" stroke="#5AC8FA" stroke-width="1" />
    <path d="M900,0 L900,800" stroke="#5AC8FA" stroke-width="1" />
    <path d="M1100,0 L1100,800" stroke="#5AC8FA" stroke-width="1" />
  </g>
  
  <!-- Header and Navigation -->
  <rect x="0" y="0" width="1200" height="70" fill="#331F4A" />
  <text x="60" y="40" font-family="SF Pro Text, -apple-system, system-ui, sans-serif" font-size="24" font-weight="bold" fill="#FFFFFF">Client Experience Hub</text>
  
  <!-- Navigation Breadcrumbs -->
  <rect x="600" y="15" width="550" height="40" rx="20" fill="#0D0D15" />
  <text x="630" y="40" font-family="SF Pro Text, -apple-system, system-ui, sans-serif" font-size="14" fill="#5AC8FA">Workspaces /</text>
  <text x="730" y="40" font-family="SF Pro Text, -apple-system, system-ui, sans-serif" font-size="14" font-weight="bold" fill="#29B6F6">Client Experience Hub</text>
  <text x="1090" y="40" font-family="SF Pro Text, -apple-system, system-ui, sans-serif" font-size="14" fill="#BF4080">AI Active</text>
  <circle cx="1120" cy="35" r="8" fill="#BF4080">
    <animate attributeName="opacity" values="0.7;1;0.7" dur="2s" repeatCount="indefinite" />
  </circle>
  
  <!-- Back to Central Command -->
  <rect x="60" y="70" width="200" height="30" rx="15" fill="#0D0D15" />
  <text x="160" y="90" font-family="SF Pro Text, -apple-system, system-ui, sans-serif" font-size="14" fill="#5AC8FA" text-anchor="middle">↩ Back to Central Command</text>
  
  <!-- Dashboard Sections -->
  <g>
    <!-- Client Project Dashboard -->
    <rect x="50" y="120" width="550" height="300" rx="10" fill="#0D0D15" stroke="#29B6F6" stroke-width="2" />
    <text x="325" y="150" font-family="SF Pro Text, -apple-system, system-ui, sans-serif" font-size="20" font-weight="bold" fill="#FFFFFF" text-anchor="middle">Client Project Dashboard</text>
    
    <!-- Project Status Cards -->
    <g>
      <!-- Project 1 -->
      <rect x="80" y="175" width="150" height="120" rx="8" fill="#331F4A" />
      <text x="155" y="195" font-family="SF Pro Text, -apple-system, system-ui, sans-serif" font-size="14" font-weight="bold" fill="#FFFFFF" text-anchor="middle">Project Jrotharke</text>
      <rect x="95" y="205" width="120" height="6" rx="3" fill="#0D0D15" />
      <rect x="95" y="205" width="96" height="6" rx="3" fill="#29B6F6" />
      <text x="155" y="225" font-family="SF Pro Text, -apple-system, system-ui, sans-serif" font-size="12" fill="#FFFFFF" text-anchor="middle">80% Complete</text>
      <text x="155" y="245" font-family="SF Pro Text, -apple-system, system-ui, sans-serif" font-size="12" fill="#5AC8FA" text-anchor="middle">Milestone 4 of 5</text>
      <text x="155" y="265" font-family="SF Pro Text, -apple-system, system-ui, sans-serif" font-size="12" fill="#FFFFFF" text-anchor="middle">Next Review: Apr 5</text>
      <circle cx="95" cy="192" r="8" fill="#29B6F6" />
    </g>
    
    <!-- Project 2 -->
    <g>
      <rect x="250" y="175" width="150" height="120" rx="8" fill="#331F4A" />
      <text x="325" y="195" font-family="SF Pro Text, -apple-system, system-ui, sans-serif" font-size="14" font-weight="bold" fill="#FFFFFF" text-anchor="middle">Project Oksana</text>
      <rect x="265" y="205" width="120" height="6" rx="3" fill="#0D0D15" />
      <rect x="265" y="205" width="72" height="6" rx="3" fill="#5AC8FA" />
      <text x="325" y="225" font-family="SF Pro Text, -apple-system, system-ui, sans-serif" font-size="12" fill="#FFFFFF" text-anchor="middle">60% Complete</text>
      <text x="325" y="245" font-family="SF Pro Text, -apple-system, system-ui, sans-serif" font-size="12" fill="#5AC8FA" text-anchor="middle">Milestone 3 of 5</text>
      <text x="325" y="265" font-family="SF Pro Text, -apple-system, system-ui, sans-serif" font-size="12" fill="#FFFFFF" text-anchor="middle">Next Review: Apr 12</text>
      <circle cx="265" cy="192" r="8" fill="#5AC8FA" />
    </g>
    
    <!-- Project 3 -->
    <g>
      <rect x="420" y="175" width="150" height="120" rx="8" fill="#331F4A" />
      <text x="495" y="195" font-family="SF Pro Text, -apple-system, system-ui, sans-serif" font-size="14" font-weight="bold" fill="#FFFFFF" text-anchor="middle">Project Framer</text>
      <rect x="435" y="205" width="120" height="6" rx="3" fill="#0D0D15" />
      <rect x="435" y="205" width="36" height="6" rx="3" fill="#FFD166" />
      <text x="495" y="225" font-family="SF Pro Text, -apple-system, system-ui, sans-serif" font-size="12" fill="#FFFFFF" text-anchor="middle">30% Complete</text>
      <text x="495" y="245" font-family="SF Pro Text, -apple-system, system-ui, sans-serif" font-size="12" fill="#5AC8FA" text-anchor="middle">Milestone 1 of 4</text>
      <text x="495" y="265" font-family="SF Pro Text, -apple-system, system-ui, sans-serif" font-size="12" fill="#FFFFFF" text-anchor="middle">Next Review: Apr 18</text>
      <circle cx="435" cy="192" r="8" fill="#FFD166" />
    </g>
    
    <!-- Client Communication -->
    <rect x="80" y="310" width="490" height="90" rx="8" fill="#331F4A" />
    <text x="100" y="335" font-family="SF Pro Text, -apple-system, system-ui, sans-serif" font-size="16" font-weight="bold" fill="#FFFFFF">Recent Client Interactions:</text>
    <text x="100" y="360" font-family="SF Pro Text, -apple-system, system-ui, sans-serif" font-size="12" fill="#FFFFFF">• Design Review completed with FocusBrands (Mar 22)</text>
    <text x="100" y="380" font-family="SF Pro Text, -apple-system, system-ui, sans-serif" font-size="12" fill="#FFFFFF">• Asset Delivery to TechVision scheduled (Mar 29)</text>
    
    <!-- AI Badge -->
    <rect x="430" y="320" width="120" height="30" rx="15" fill="#BF4080" />
    <text x="490" y="340" font-family="SF Pro Text, -apple-system, system-ui, sans-serif" font-size="14" fill="#FFFFFF" text-anchor="middle">AI-Enhanced</text>
  </g>
    
  <!-- Client Feedback Dashboard -->
  <rect x="50" y="440" width="550" height="340" rx="10" fill="#0D0D15" stroke="#BF4080" stroke-width="2" />
  <text x="325" y="470" font-family="SF Pro Text, -apple-system, system-ui, sans-serif" font-size="20" font-weight="bold" fill="#FFFFFF" text-anchor="middle">Client Feedback Dashboard</text>
  
  <!-- Feedback Cards -->
  <g>
    <!-- Feedback Metrics -->
    <rect x="80" y="490" width="150" height="150" rx="8" fill="#331F4A" />
    <text x="155" y="515" font-family="SF Pro Text, -apple-system, system-ui, sans-serif" font-size="14" font-weight="bold" fill="#FFFFFF" text-anchor="middle">Client Satisfaction</text>
    <circle cx="155" cy="570" r="40" fill="none" stroke="#0D0D15" stroke-width="8" />
    <path d="M155,530 A40,40 0 0,1 190,570 A40,40 0 0,1 155,610 A40,40 0 0,1 120,570 A40,40 0 0,1 155,530" stroke="#29B6F6" stroke-width="8" fill="none" stroke-dasharray="230 251" stroke-dashoffset="0" />
    <text x="155" y="575" font-family="SF Pro Text, -apple-system, system-ui, sans-serif" font-size="18" font-weight="bold" fill="#FFFFFF" text-anchor="middle">92%</text>
    <text x="155" y="595" font-family="SF Pro Text, -apple-system, system-ui, sans-serif" font-size="12" fill="#FFFFFF" text-anchor="middle">Overall Rating</text>
    <text x="155" y="615" font-family="SF Pro Text, -apple-system, system-ui, sans-serif" font-size="12" fill="#29B6F6" text-anchor="middle">↑ from 88%</text>
    
    <!-- Response Time -->
    <rect x="250" y="490" width="150" height="150" rx="8" fill="#331F4A" />
    <text x="325" y="515" font-family="SF Pro Text, -apple-system, system-ui, sans-serif" font-size="14" font-weight="bold" fill="#FFFFFF" text-anchor="middle">Response Time</text>
    <circle cx="325" cy="570" r="40" fill="none" stroke="#0D0D15" stroke-width="8" />
    <path d="M325,530 A40,40 0 0,1 360,570 A40,40 0 0,1 325,610 A40,40 0 0,1 290,570 A40,40 0 0,1 325,530" stroke="#5AC8FA" stroke-width="8" fill="none" stroke-dasharray="200 251" stroke-dashoffset="0" />
    <text x="325" y="575" font-family="SF Pro Text, -apple-system, system-ui, sans-serif" font-size="18" font-weight="bold" fill="#FFFFFF" text-anchor="middle">4.5h</text>
    <text x="325" y="595" font-family="SF Pro Text, -apple-system, system-ui, sans-serif" font-size="12" fill="#FFFFFF" text-anchor="middle">Average Time</text>
    <text x="325" y="615" font-family="SF Pro Text, -apple-system, system-ui, sans-serif" font-size="12" fill="#29B6F6" text-anchor="middle">↓ from 6.2h</text>
    
    <!-- Delivery Success -->
    <rect x="420" y="490" width="150" height="150" rx="8" fill="#331F4A" />
    <text x="495" y="515" font-family="SF Pro Text, -apple-system, system-ui, sans-serif" font-size="14" font-weight="bold" fill="#FFFFFF" text-anchor="middle">Delivery Success</text>
    <circle cx="495" cy="570" r="40" fill="none" stroke="#0D0D15" stroke-width="8" />
    <path d="M495,530 A40,40 0 0,1 530,570 A40,40 0 0,1 495,610 A40,40 0 0,1 460,570 A40,40 0 0,1 495,530" stroke="#FFD166" stroke-width="8" fill="none" stroke-dasharray="227 251" stroke-dashoffset="0" />
    <text x="495" y="575" font-family="SF Pro Text, -apple-system, system-ui, sans-serif" font-size="18" font-weight="bold" fill="#FFFFFF" text-anchor="middle">98%</text>
    <text x="495" y="595" font-family="SF Pro Text, -apple-system, system-ui, sans-serif" font-size="12" fill="#FFFFFF" text-anchor="middle">On-Time Delivery</text>
    <text x="495" y="615" font-family="SF Pro Text, -apple-system, system-ui, sans-serif" font-size="12" fill="#29B6F6" text-anchor="middle">↑ from 95%</text>
    
    <!-- Latest Feedback -->
    <rect x="80" y="655" width="490" height="105" rx="8" fill="#331F4A" />
    <text x="100" y="675" font-family="SF Pro Text, -apple-system, system-ui, sans-serif" font-size="16" font-weight="bold" fill="#FFFFFF">Latest Client Feedback:</text>
    <text x="100" y="700" font-family="SF Pro Text, -apple-system, system-ui, sans-serif" font-size="12" fill="#FFFFFF" font-style="italic">"The team at 9Bit has consistently exceeded our expectations.</text>
    <text x="100" y="720" font-family="SF Pro Text, -apple-system, system-ui, sans-serif" font-size="12" fill="#FFFFFF" font-style="italic">Their quantum-spatial aesthetic perfectly aligns with our brand..."</text>
    <text x="400" y="740" font-family="SF Pro Text, -apple-system, system-ui, sans-serif" font-size="12" fill="#5AC8FA" text-anchor="end">- Sarah Chen, FocusBrands</text>
    
    <rect x="420" y="655" width="150" height="28" rx="14" fill="#29B6F6" opacity="0.3" />
    <text x="495" y="673" font-family="SF Pro Text, -apple-system, system-ui, sans-serif" font-size="12" fill="#29B6F6" text-anchor="middle">Sentiment: Positive</text>
  </g>
    
  <!-- Portal & Asset Management -->
  <rect x="620" y="120" width="550" height="300" rx="10" fill="#0D0D15" stroke="#5AC8FA" stroke-width="2" />
  <text x="895" y="150" font-family="SF Pro Text, -apple-system, system-ui, sans-serif" font-size="20" font-weight="bold" fill="#FFFFFF" text-anchor="middle">Client Portal & Asset Management</text>
  
  <!-- Portal Status Cards -->
  <g>
    <!-- Active Portals -->
    <rect x="650" y="175" width="230" height="100" rx="8" fill="#331F4A" />
    <text x="665" y="195" font-family="SF Pro Text, -apple-system, system-ui, sans-serif" font-size="14" font-weight="bold" fill="#FFFFFF">Active Client Portals</text>
    <g transform="translate(765, 235)">
      <circle cx="0" cy="0" r="40" fill="none" stroke="#0D0D15" stroke-width="8" />
      <path d="M0,-40 A40,40 0 1,1 -35,20" stroke="#5AC8FA" stroke-width="8" fill="none" />
      <text x="0" y="5" font-family="SF Pro Text, -apple-system, system-ui, sans-serif" font-size="18" font-weight="bold" fill="#FFFFFF" text-anchor="middle">7</text>
      <text x="0" y="25" font-family="SF Pro Text, -apple-system, system-ui, sans-serif" font-size="10" fill="#FFFFFF" text-anchor="middle">Active</text>
    </g>
    <circle cx="665" cy="235" r="5" fill="#29B6F6" />
    <text x="680" y="235" font-family="SF Pro Text, -apple-system, system-ui, sans-serif" font-size="12" fill="#FFFFFF">FocusBrands</text>
    <circle cx="665" cy="255" r="5" fill="#29B6F6" />
    <text x="680" y="255" font-family="SF Pro Text, -apple-system, system-ui, sans-serif" font-size="12" fill="#FFFFFF">TechVision</text>
    <circle cx="665" cy="275" r="5" fill="#29B6F6" />
    <text x="680" y="275" font-family="SF Pro Text, -apple-system, system-ui, sans-serif" font-size="12" fill="#FFFFFF">+ 5 more</text>
    
    <!-- Asset Metrics -->
    <rect x="910" y="175" width="230" height="100" rx="8" fill="#331F4A" />
    <text x="925" y="195" font-family="SF Pro Text, -apple-system, system-ui, sans-serif" font-size="14" font-weight="bold" fill="#FFFFFF">Asset Delivery Status</text>
    <rect x="925" y="215" width="200" height="10" rx="5" fill="#0D0D15" />
    <rect x="925" y="215" width="160" height="10" rx="5" fill="#29B6F6" />
    <text x="925" y="240" font-family="SF Pro Text, -apple-system, system-ui, sans-serif" font-size="12" fill="#FFFFFF">487 of 608 assets delivered</text>
    <text x="925" y="260" font-family="SF Pro Text, -apple-system, system-ui, sans-serif" font-size="12" fill="#5AC8FA">80% overall completion</text>
    <text x="925" y="280" font-family="SF Pro Text, -apple-system, system-ui, sans-serif" font-size="12" fill="#FFFFFF">Next batch: Mar 30 (42 assets)</text>
    
    <!-- Client Access Analytics -->
    <rect x="650" y="290" width="490" height="110" rx="8" fill="#331F4A" />
    <text x="670" y="315" font-family="SF Pro Text, -apple-system, system-ui, sans-serif" font-size="14" font-weight="bold" fill="#FFFFFF">Portal Activity (Last 7 Days)</text>
    
    <path d="M670,360 L705,340 L740,355 L775,330 L810,345 L845,320 L880,335 L915,315 L950,325 L985,310 L1020,330 L1055,305 L1090,320" fill="none" stroke="#5AC8FA" stroke-width="2" />
    <circle cx="705" cy="340" r="3" fill="#5AC8FA" />
    <circle cx="740" cy="355" r="3" fill="#5AC8FA" />
    <circle cx="775" cy="330" r="3" fill="#5AC8FA" />
    <circle cx="810" cy="345" r="3" fill="#5AC8FA" />
    <circle cx="845" cy="320" r="3" fill="#5AC8FA" />
    <circle cx="880" cy="335" r="3" fill="#5AC8FA" />
    <circle cx="915" cy="315" r="3" fill="#5AC8FA" />
    <circle cx="950" cy="325" r="3" fill="#5AC8FA" />
    <circle cx="985" cy="310" r="3" fill="#5AC8FA" />
    <circle cx="1020" cy="330" r="3" fill="#5AC8FA" />
    <circle cx="1055" cy="305" r="3" fill="#5AC8FA" />
    <circle cx="1090" cy="320" r="3" fill="#5AC8FA" />
    
    <text x="670" y="385" font-family="SF Pro Text, -apple-system, system-ui, sans-serif" font-size="12" fill="#FFFFFF">38 client sessions • 124 assets viewed • 16 comments received</text>
    
    <!-- AI Badge -->
    <rect x="1030" y="290" width="110" height="28" rx="14" fill="#BF4080" opacity="0.7" />
    <text x="1085" y="308" font-family="SF Pro Text, -apple-system, system-ui, sans-serif" font-size="12" fill="#FFFFFF" text-anchor="middle">AI-Enhanced</text>
  </g>
    
  <!-- Client Onboarding Pipeline -->
  <rect x="620" y="440" width="550" height="340" rx="10" fill="#0D0D15" stroke="#FFD166" stroke-width="2" />
  <text x="895" y="470" font-family="SF Pro Text, -apple-system, system-ui, sans-serif" font-size="20" font-weight="bold" fill="#FFFFFF" text-anchor="middle">Client Onboarding Pipeline</text>
  
  <!-- Pipeline Visualization -->
  <g>
    <!-- Pipeline Stages -->
    <rect x="650" y="490" width="120" height="40" rx="5" fill="#331F4A" />
    <text x="710" y="515" font-family="SF Pro Text, -apple-system, system-ui, sans-serif" font-size="14" fill="#FFFFFF" text-anchor="middle">Initial Contact</text>
    
    <rect x="780" y="490" width="120" height="40" rx="5" fill="#331F4A" />
    <text x="840" y="515" font-family="SF Pro Text, -apple-system, system-ui, sans-serif" font-size="14" fill="#FFFFFF" text-anchor="middle">Discovery</text>
    
    <rect x="910" y="490" width="120" height="40" rx="5" fill="#331F4A" />
    <text x="970" y="515" font-family="SF Pro Text, -apple-system, system-ui, sans-serif" font-size="14" fill="#FFFFFF" text-anchor="middle">Proposal</text>
    
    <rect x="1040" y="490" width="120" height="40" rx="5" fill="#331F4A" />
    <text x="1100" y="515" font-family="SF Pro Text, -apple-system, system-ui, sans-serif" font-size="14" fill="#FFFFFF" text-anchor="middle">Onboarded</text>
    
    <!-- Client Cards -->
    <rect x="650" y="540" width="120" height="90" rx="8" fill="#331F4A" />
    <rect x="650" y="540" width="5" height="90" rx="2" fill="#FFD166" />
    <text x="710" y="560" font-family="SF Pro Text, -apple-system, system-ui, sans-serif" font-size="12" font-weight="bold" fill="#FFFFFF" text-anchor="middle">NexGen Studios</text>
    <text x="710" y="580" font-family="SF Pro Text, -apple-system, system-ui, sans-serif" font-size="10" fill="#FFFFFF" text-anchor="middle">Initial Call: Mar 25</text>
    <text x="710" y="595" font-family="SF Pro Text, -apple-system, system-ui, sans-serif" font-size="10" fill="#FFFFFF" text-anchor="middle">Lead: Logan Parker</text>
    <text x="710" y="615" font-family="SF Pro Text, -apple-system, system-ui, sans-serif" font-size="10" fill="#5AC8FA" text-anchor="middle">Follow-up: Mar 29</text>
    
    <rect x="780" y="540" width="120" height="90" rx="8" fill="#331F4A" />
    <rect x="780" y="540" width="5" height="90" rx="2" fill="#5AC8FA" />
    <text x="840" y="560" font-family="SF Pro Text, -apple-system, system-ui, sans-serif" font-size="12" font-weight="bold" fill="#FFFFFF" text-anchor="middle">Stellar Games</text>
    <text x="840" y="580" font-family="SF Pro Text, -apple-system, system-ui, sans-serif" font-size="10" fill="#FFFFFF" text-anchor="middle">Meeting: Apr 2</text>
    <text x="840" y="595" font-family="SF Pro Text, -apple-system, system-ui, sans-serif" font-size="10" fill="#FFFFFF" text-anchor="middle">Lead: Arthur Chen</text>
    <text x="840" y="615" font-family="SF Pro Text, -apple-system, system-ui, sans-serif" font-size="10" fill="#5AC8FA" text-anchor="middle">Needs: iOS Game</text>
    
    <rect x="910" y="540" width="120" height="90" rx="8" fill="#331F4A" />
    <rect x="910" y="540" width="5" height="90" rx="2" fill="#BF4080" />
    <text x="970" y="560" font-family="SF Pro Text, -apple-system, system-ui, sans-serif" font-size="12" font-weight="bold" fill="#FFFFFF" text-anchor="middle">PixelPerfect</text>
    <text x="970" y="580" font-family="SF Pro Text, -apple-system, system-ui, sans-serif" font-size="10" fill="#FFFFFF" text-anchor="middle">Proposal Sent: Mar 20</text>
    <text x="970" y="595" font-family="SF Pro Text, -apple-system, system-ui, sans-serif" font-size="10" fill="#FFFFFF" text-anchor="middle">Lead: Logan Parker</text>
    <text x="970" y="615" font-family="SF Pro Text, -apple-system, system-ui, sans-serif" font-size="10" fill="#5AC8FA" text-anchor="middle">Decision: Apr 5</text>
    
    <rect x="1040" y="540" width="120" height="90" rx="8" fill="#331F4A" />
    <rect x="1040" y="540" width="5" height="90" rx="2" fill="#29B6F6" />
    <text x="1100" y="560" font-family="SF Pro Text, -apple-system, system-ui, sans-serif" font-size="12" font-weight="bold" fill="#FFFFFF" text-anchor="middle">MediaSphere</text>
    <text x="1100" y="580" font-family="SF Pro Text, -apple-system, system-ui, sans-serif" font-size="10" fill="#FFFFFF" text-anchor="middle">Onboarded: Mar 18</text>
    <text x="1100" y="595" font-family="SF Pro Text, -apple-system, system-ui, sans-serif" font-size="10" fill="#FFFFFF" text-anchor="middle">Lead: Arthur Chen</text>
    <text x="1100" y="615" font-family="SF Pro Text, -apple-system, system-ui, sans-serif" font-size="10" fill="#5AC8FA" text-anchor="middle">Kickoff: Apr 3</text>
    
    <!-- Pipeline Summary -->
    <rect x="650" y="650" width="510" height="110" rx="8" fill="#331F4A" />
    <text x="670" y="675" font-family="SF Pro Text, -apple-system, system-ui, sans-serif" font-size="16" font-weight="bold" fill="#FFFFFF">Pipeline Summary:</text>
    <text x="670" y="700" font-family="SF Pro Text, -apple-system, system-ui, sans-serif" font-size="14" fill="#FFFFFF">• 7 New leads this month (↑ from 5 last month)</text>
    <text x="670" y="725" font-family="SF Pro Text, -apple-system, system-ui, sans-serif" font-size="14" fill="#FFFFFF">• 3 Proposals in progress, estimated value: $178,500</text>
    <text x="670" y="750" font-family="SF Pro Text, -apple-system, system-ui, sans-serif" font-size="14" fill="#FFFFFF">• 2 New clients onboarded in March</text>
    
    <!-- AI suggestion -->
    <rect x="990" y="660" width="150" height="90" rx="8" fill="#0D0D15" />
    <text x="1065" y="680" font-family="SF Pro Text, -apple-system, system-ui, sans-serif" font-size="12" fill="#BF4080" text-anchor="middle">AI Insight</text>
    <text x="1065" y="705" font-family="SF Pro Text, -apple-system, system-ui, sans-serif" font-size="10" fill="#FFFFFF" text-anchor="middle">Follow up with NexGen</text>
    <text x="1065" y="720" font-family="SF Pro Text, -apple-system, system-ui, sans-serif" font-size="10" fill="#FFFFFF" text-anchor="middle">Studios 1 day earlier than</text>
    <text x="1065" y="735" font-family="SF Pro Text, -apple-system, system-ui, sans-serif" font-size="10" fill="#FFFFFF" text-anchor="middle">scheduled for 15% higher</text>
    <text x="1065" y="750" font-family="SF Pro Text, -apple-system, system-ui, sans-serif" font-size="10" fill="#FFFFFF" text-anchor="middle">conversion probability</text>
  </g>
  
  <!-- Bottom Wayfinding -->
  <rect x="50" y="770" width="1120" height="30" rx="15" fill="#331F4A" opacity="0.9" />
  <text x="600" y="790" font-family="SF Pro Text, -apple-system, system-ui, sans-serif" font-size="14" fill="#FFFFFF" text-anchor="middle">Connected to: Project Management Hub, Brand Expression Hub, Executive Strategy Hub</text>
  
  <!-- Help Button -->
  <rect x="1040" y="70" width="120" height="30" rx="15" fill="#6A3093" />
  <text x="1100" y="90" font-family="SF Pro Text, -apple-system, system-ui, sans-serif" font-size="14" fill="#FFFFFF" text-anchor="middle">Need Help?</text>

  <!-- Footer -->
  <rect x="0" y="800" width="1200" height="40" fill="#0D0D15" />
  <text x="60" y="825" font-family="SF Pro Text, -apple-system, system-ui, sans-serif" font-size="12" fill="#5AC8FA">© 2024 9Bit Studios - Client Experience Hub v1.8.3</text>
  <text x="1140" y="825" font-family="SF Pro Text, -apple-system, system-ui, sans-serif" font-size="12" fill="#5AC8FA" text-anchor="end">Last Updated: 2024-03-28</text>
  
  <!-- System Status Indicator -->
  <circle cx="1100" cy="820" r="6" fill="#29B6F6">
    <animate attributeName="opacity" values="0.7;1;0.7" dur="3s" repeatCount="indefinite" />
  </circle>
  <text x="1090" y="825" font-family="SF Pro Text, -apple-system, system-ui, sans-serif" font-size="12" fill="#FFFFFF" text-anchor="end">System Status: Operational</text>
</svg>
