<svg xmlns="http://www.w3.org/2000/svg" viewBox="0 0 1200 800">
  <!-- Background with subtle grid -->
  <rect width="1200" height="800" fill="#131A36" />
  <g opacity="0.1">
    <path d="M0,100 L1200,100" stroke="#5AC8FA" stroke-width="1" />
    <path d="M0,200 L1200,200" stroke="#5AC8FA" stroke-width="1" />
    <path d="M0,300 L1200,300" stroke="#5AC8FA" stroke-width="1" />
    <path d="M0,400 L1200,400" stroke="#5AC8FA" stroke-width="1" />
    <path d="M0,500 L1200,500" stroke="#5AC8FA" stroke-width="1" />
    <path d="M0,600 L1200,600" stroke="#5AC8FA" stroke-width="1" />
    <path d="M0,700 L1200,700" stroke="#5AC8FA" stroke-width="1" />
    
    <path d="M100,0 L100,800" stroke="#5AC8FA" stroke-width="1" />
    <path d="M300,0 L300,800" stroke="#5AC8FA" stroke-width="1" />
    <path d="M500,0 L500,800" stroke="#5AC8FA" stroke-width="1" />
    <path d="M700,0 L700,800" stroke="#5AC8FA" stroke-width="1" />
    <path d="M900,0 L900,800" stroke="#5AC8FA" stroke-width="1" />
    <path d="M1100,0 L1100,800" stroke="#5AC8FA" stroke-width="1" />
  </g>
  
  <!-- Header and Navigation -->
  <rect x="0" y="0" width="1200" height="70" fill="#331F4A" />
  <text x="60" y="40" font-family="SF Pro Text, -apple-system, system-ui, sans-serif" font-size="24" font-weight="bold" fill="#FFFFFF">Engineering Command Center</text>
  
  <!-- Navigation Breadcrumbs -->
  <rect x="600" y="15" width="550" height="40" rx="20" fill="#0D0D15" />
  <text x="630" y="40" font-family="SF Pro Text, -apple-system, system-ui, sans-serif" font-size="14" fill="#5AC8FA">Workspaces /</text>
  <text x="730" y="40" font-family="SF Pro Text, -apple-system, system-ui, sans-serif" font-size="14" font-weight="bold" fill="#29B6F6">Engineering Command Center</text>
  <text x="1090" y="40" font-family="SF Pro Text, -apple-system, system-ui, sans-serif" font-size="14" fill="#BF4080">AI Active</text>
  <circle cx="1120" cy="35" r="8" fill="#BF4080">
    <animate attributeName="opacity" values="0.7;1;0.7" dur="2s" repeatCount="indefinite" />
  </circle>
  
  <!-- Back to Central Command -->
  <rect x="60" y="70" width="200" height="30" rx="15" fill="#0D0D15" />
  <text x="160" y="90" font-family="SF Pro Text, -apple-system, system-ui, sans-serif" font-size="14" fill="#5AC8FA" text-anchor="middle">↩ Back to Central Command</text>
  
  <!-- Dashboard Sections -->
  <g>
    <!-- M4 Optimization Dashboard -->
    <rect x="50" y="120" width="550" height="300" rx="10" fill="#0D0D15" stroke="#29B6F6" stroke-width="2" />
    <text x="325" y="150" font-family="SF Pro Text, -apple-system, system-ui, sans-serif" font-size="20" font-weight="bold" fill="#FFFFFF" text-anchor="middle">M4 Optimization Dashboard</text>
    
    <!-- Performance Metrics -->
    <g>
      <!-- FPS Gauge -->
      <g transform="translate(150, 220)">
        <path d="M0,0 A80,80 0 0,1 80,80 L-80,80 A80,80 0 0,1 0,0" fill="#331F4A" />
        <path d="M0,0 A80,80 0 0,1 70,40 L-70,40 A80,80 0 0,1 0,0" fill="#29B6F6" opacity="0.5" />
        <text x="0" y="50" font-family="SF Pro Text, -apple-system, system-ui, sans-serif" font-size="24" font-weight="bold" fill="#FFFFFF" text-anchor="middle">82 FPS</text>
        <text x="0" y="75" font-family="SF Pro Text, -apple-system, system-ui, sans-serif" font-size="14" fill="#FFFFFF" text-anchor="middle">Rendering</text>
      </g>
      
      <!-- Memory Usage -->
      <g transform="translate(325, 220)">
        <path d="M0,0 A80,80 0 0,1 80,80 L-80,80 A80,80 0 0,1 0,0" fill="#331F4A" />
        <path d="M0,0 A80,80 0 0,1 40,70 L-40,70 A80,80 0 0,1 0,0" fill="#5AC8FA" opacity="0.5" />
        <text x="0" y="50" font-family="SF Pro Text, -apple-system, system-ui, sans-serif" font-size="24" font-weight="bold" fill="#FFFFFF" text-anchor="middle">42%</text>
        <text x="0" y="75" font-family="SF Pro Text, -apple-system, system-ui, sans-serif" font-size="14" fill="#FFFFFF" text-anchor="middle">Memory</text>
      </g>
      
      <!-- Battery Efficiency -->
      <g transform="translate(500, 220)">
        <path d="M0,0 A80,80 0 0,1 80,80 L-80,80 A80,80 0 0,1 0,0" fill="#331F4A" />
        <path d="M0,0 A80,80 0 0,1 20,78 L-20,78 A80,80 0 0,1 0,0" fill="#BF4080" opacity="0.5" />
        <text x="0" y="50" font-family="SF Pro Text, -apple-system, system-ui, sans-serif" font-size="24" font-weight="bold" fill="#FFFFFF" text-anchor="middle">25%</text>
        <text x="0" y="75" font-family="SF Pro Text, -apple-system, system-ui, sans-serif" font-size="14" fill="#FFFFFF" text-anchor="middle">Battery Usage</text>
      </g>
      
      <!-- Optimization Summary -->
      <rect x="80" y="320" width="490" height="80" rx="5" fill="#331F4A" />
      <text x="100" y="345" font-family="SF Pro Text, -apple-system, system-ui, sans-serif" font-size="16" font-weight="bold" fill="#FFFFFF">M4 Neural Engine Usage:</text>
      <text x="100" y="370" font-family="SF Pro Text, -apple-system, system-ui, sans-serif" font-size="14" fill="#FFFFFF">• 78% ML Narrative Engine optimization</text>
      <text x="100" y="390" font-family="SF Pro Text, -apple-system, system-ui, sans-serif" font-size="14" fill="#FFFFFF">• 45% faster asset pipeline with Metal acceleration</text>
      
      <!-- AI Badge -->
      <rect x="430" y="330" width="120" height="30" rx="15" fill="#BF4080" />
      <text x="490" y="350" font-family="SF Pro Text, -apple-system, system-ui, sans-serif" font-size="14" fill="#FFFFFF" text-anchor="middle">AI-Enhanced</text>
    </g>
    
    <!-- Pipeline Status -->
    <rect x="50" y="440" width="550" height="340" rx="10" fill="#0D0D15" stroke="#5AC8FA" stroke-width="2" />
    <text x="325" y="470" font-family="SF Pro Text, -apple-system, system-ui, sans-serif" font-size="20" font-weight="bold" fill="#FFFFFF" text-anchor="middle">Pipeline Status</text>
    
    <!-- Pipeline Components -->
    <g>
      <!-- Pipeline System Status -->
      <rect x="80" y="490" width="490" height="40" rx="5" fill="#331F4A" />
      <text x="100" y="515" font-family="SF Pro Text, -apple-system, system-ui, sans-serif" font-size="16" font-weight="bold" fill="#FFFFFF">API Integration Status</text>
      
      <!-- API Status Cards -->
      <rect x="80" y="540" width="230" height="100" rx="5" fill="#331F4A" />
      <circle cx="110" cy="580" r="15" fill="#29B6F6" />
      <text x="200" y="560" font-family="SF Pro Text, -apple-system, system-ui, sans-serif" font-size="16" fill="#FFFFFF" text-anchor="middle">Supabase API</text>
      <text x="200" y="585" font-family="SF Pro Text, -apple-system, system-ui, sans-serif" font-size="14" fill="#FFFFFF" text-anchor="middle">Status: ONLINE</text>
      <text x="200" y="605" font-family="SF Pro Text, -apple-system, system-ui, sans-serif" font-size="12" fill="#FFFFFF" text-anchor="middle">99.8% Uptime</text>
      
      <rect x="340" y="540" width="230" height="100" rx="5" fill="#331F4A" />
      <circle cx="370" cy="580" r="15" fill="#29B6F6" />
      <text x="460" y="560" font-family="SF Pro Text, -apple-system, system-ui, sans-serif" font-size="16" fill="#FFFFFF" text-anchor="middle">ML-Enhanced Ink API</text>
      <text x="460" y="585" font-family="SF Pro Text, -apple-system, system-ui, sans-serif" font-size="14" fill="#FFFFFF" text-anchor="middle">Status: ONLINE</text>
      <text x="460" y="605" font-family="SF Pro Text, -apple-system, system-ui, sans-serif" font-size="12" fill="#FFFFFF" text-anchor="middle">100% Uptime</text>
      
      <rect x="80" y="650" width="230" height="100" rx="5" fill="#331F4A" />
      <circle cx="110" cy="690" r="15" fill="#FFD166" />
      <text x="200" y="670" font-family="SF Pro Text, -apple-system, system-ui, sans-serif" font-size="16" fill="#FFFFFF" text-anchor="middle">Cloudinary API</text>
      <text x="200" y="695" font-family="SF Pro Text, -apple-system, system-ui, sans-serif" font-size="14" fill="#FFFFFF" text-anchor="middle">Status: DEGRADED</text>
      <text x="200" y="715" font-family="SF Pro Text, -apple-system, system-ui, sans-serif" font-size="12" fill="#FFFFFF" text-anchor="middle">97.3% Uptime</text>
      
      <rect x="340" y="650" width="230" height="100" rx="5" fill="#331F4A" />
      <circle cx="370" cy="690" r="15" fill="#29B6F6" />
      <text x="460" y="670" font-family="SF Pro Text, -apple-system, system-ui, sans-serif" font-size="16" fill="#FFFFFF" text-anchor="middle">Notion API</text>
      <text x="460" y="695" font-family="SF Pro Text, -apple-system, system-ui, sans-serif" font-size="14" fill="#FFFFFF" text-anchor="middle">Status: ONLINE</text>
      <text x="460" y="715" font-family="SF Pro Text, -apple-system, system-ui, sans-serif" font-size="12" fill="#FFFFFF" text-anchor="middle">99.5% Uptime</text>
    </g>
    
    <!-- API Connections Map -->
    <rect x="620" y="120" width="550" height="300" rx="10" fill="#0D0D15" stroke="#5AC8FA" stroke-width="2" />
    <text x="895" y="150" font-family="SF Pro Text, -apple-system, system-ui, sans-serif" font-size="20" font-weight="bold" fill="#FFFFFF" text-anchor="middle">API Connections Map</text>
    
    <!-- API Map Visualization -->
    <g>
      <!-- Central Hub -->
      <circle cx="895" cy="270" r="35" fill="#5AC8FA" opacity="0.7" />
      <text x="895" y="275" font-family="SF Pro Text, -apple-system, system-ui, sans-serif" font-size="14" font-weight="bold" fill="#FFFFFF" text-anchor="middle">Core API</text>
      
      <!-- Connected Services -->
      <circle cx="755" cy="210" r="25" fill="#29B6F6" />
      <text x="755" y="215" font-family="SF Pro Text, -apple-system, system-ui, sans-serif" font-size="12" fill="#FFFFFF" text-anchor="middle">Supabase</text>
      
      <circle cx="1035" cy="210" r="25" fill="#BF4080" />
      <text x="1035" y="215" font-family="SF Pro Text, -apple-system, system-ui, sans-serif" font-size="12" fill="#FFFFFF" text-anchor="middle">ML-Ink</text>
      
      <circle cx="755" cy="330" r="25" fill="#FFD166" />
      <text x="755" y="335" font-family="SF Pro Text, -apple-system, system-ui, sans-serif" font-size="12" fill="#FFFFFF" text-anchor="middle">Cloudinary</text>
      
      <circle cx="1035" cy="330" r="25" fill="#29B6F6" />
      <text x="1035" y="335" font-family="SF Pro Text, -apple-system, system-ui, sans-serif" font-size="12" fill="#FFFFFF" text-anchor="middle">Notion</text>
      
      <!-- Connection Lines -->
      <line x1="895" y1="270" x2="755" y2="210" stroke="#29B6F6" stroke-width="3" />
      <line x1="895" y1="270" x2="1035" y2="210" stroke="#BF4080" stroke-width="3" />
      <line x1="895" y1="270" x2="755" y2="330" stroke="#FFD166" stroke-width="3" />
      <line x1="895" y1="270" x2="1035" y2="330" stroke="#29B6F6" stroke-width="3" />
      
      <!-- Data Flow Indicators -->
      <circle cx="825" cy="240" r="5" fill="#FFFFFF">
        <animate attributeName="cx" values="895;755" dur="3s" repeatCount="indefinite" />
        <animate attributeName="cy" values="270;210" dur="3s" repeatCount="indefinite" />
      </circle>
      
      <circle cx="965" cy="240" r="5" fill="#FFFFFF">
        <animate attributeName="cx" values="895;1035" dur="4s" repeatCount="indefinite" />
        <animate attributeName="cy" values="270;210" dur="4s" repeatCount="indefinite" />
      </circle>
      
      <circle cx="825" cy="300" r="5" fill="#FFFFFF">
        <animate attributeName="cx" values="895;755" dur="5s" repeatCount="indefinite" />
        <animate attributeName="cy" values="270;330" dur="5s" repeatCount="indefinite" />
      </circle>
      
      <circle cx="965" cy="300" r="5" fill="#FFFFFF">
        <animate attributeName="cx" values="895;1035" dur="3.5s" repeatCount="indefinite" />
        <animate attributeName="cy" values="270;330" dur="3.5s" repeatCount="indefinite" />
      </circle>
      
      <!-- Secondary Connections -->
      <line x1="755" y1="210" x2="1035" y2="210" stroke="#FFFFFF" stroke-width="1" stroke-dasharray="5,3" />
      <line x1="755" y1="330" x2="1035" y2="330" stroke="#FFFFFF" stroke-width="1" stroke-dasharray="5,3" />
      <line x1="755" y1="210" x2="755" y2="330" stroke="#FFFFFF" stroke-width="1" stroke-dasharray="5,3" />
      <line x1="1035" y1="210" x2="1035" y2="330" stroke="#FFFFFF" stroke-width="1" stroke-dasharray="5,3" />
      
      <!-- Legend -->
      <rect x="650" y="185" width="15" height="15" fill="#29B6F6" />
      <text x="675" y="198" font-family="SF Pro Text, -apple-system, system-ui, sans-serif" font-size="12" fill="#FFFFFF">Healthy</text>
      
      <rect x="650" y="210" width="15" height="15" fill="#FFD166" />
      <text x="675" y="223" font-family="SF Pro Text, -apple-system, system-ui, sans-serif" font-size="12" fill="#FFFFFF">Degraded</text>
      
      <rect x="650" y="235" width="15" height="15" fill="#FF6B6B" />
      <text x="675" y="248" font-family="SF Pro Text, -apple-system, system-ui, sans-serif" font-size="12" fill="#FFFFFF">Offline</text>
      
      <!-- AI Integration -->
      <rect x="1035" y="250" width="130" height="50" rx="5" fill="#0D0D15" />
      <text x="1100" y="270" font-family="SF Pro Text, -apple-system, system-ui, sans-serif" font-size="12" fill="#FFFFFF" text-anchor="middle">AI-Powered</text>
      <text x="1100" y="285" font-family="SF Pro Text, -apple-system, system-ui, sans-serif" font-size="12" fill="#FFFFFF" text-anchor="middle">Monitoring</text>
      <circle cx="1055" cy="270" r="8" fill="#BF4080" />
    </g>
    
    <!-- Sprint Planning Board -->
    <rect x="620" y="440" width="550" height="340" rx="10" fill="#0D0D15" stroke="#BF4080" stroke-width="2" />
    <text x="895" y="470" font-family="SF Pro Text, -apple-system, system-ui, sans-serif" font-size="20" font-weight="bold" fill="#FFFFFF" text-anchor="middle">Sprint Planning Board</text>
    
    <!-- Sprint Board -->
    <g>
      <!-- Column Headers -->
      <rect x="650" y="490" width="120" height="30" rx="5" fill="#331F4A" />
      <text x="710" y="510" font-family="SF Pro Text, -apple-system, system-ui, sans-serif" font-size="14" fill="#FFFFFF" text-anchor="middle">Backlog</text>
      
      <rect x="780" y="490" width="120" height="30" rx="5" fill="#331F4A" />
      <text x="840" y="510" font-family="SF Pro Text, -apple-system, system-ui, sans-serif" font-size="14" fill="#FFFFFF" text-anchor="middle">In Progress</text>
      
      <rect x="910" y="490" width="120" height="30" rx="5" fill="#331F4A" />
      <text x="970" y="510" font-family="SF Pro Text, -apple-system, system-ui, sans-serif" font-size="14" fill="#FFFFFF" text-anchor="middle">Testing</text>
      
      <rect x="1040" y="490" width="120" height="30" rx="5" fill="#331F4A" />
      <text x="1100" y="510" font-family="SF Pro Text, -apple-system, system-ui, sans-serif" font-size="14" fill="#FFFFFF" text-anchor="middle">Complete</text>
      
      <!-- Task Cards -->
      <rect x="650" y="530" width="120" height="80" rx="5" fill="#331F4A" />
      <rect x="650" y="530" width="5" height="80" rx="2" fill="#FFD166" />
      <text x="660" y="550" font-family="SF Pro Text, -apple-system, system-ui, sans-serif" font-size="12" font-weight="bold" fill="#FFFFFF">ML-Ink Integration</text>
      <text x="660" y="570" font-family="SF Pro Text, -apple-system, system-ui, sans-serif" font-size="10" fill="#FFFFFF">Priority: High</text>
      <text x="660" y="585" font-family="SF Pro Text, -apple-system, system-ui, sans-serif" font-size="10" fill="#FFFFFF">Assigned: Logan</text>
      <text x="660" y="600" font-family="SF Pro Text, -apple-system, system-ui, sans-serif" font-size="10" fill="#5AC8FA">Estimate: 3 days</text>
      
      <rect x="650" y="620" width="120" height="80" rx="5" fill="#331F4A" />
      <rect x="650" y="620" width="5" height="80" rx="2" fill="#29B6F6" />
      <text x="660" y="640" font-family="SF Pro Text, -apple-system, system-ui, sans-serif" font-size="12" font-weight="bold" fill="#FFFFFF">API Authentication</text>
      <text x="660" y="660" font-family="SF Pro Text, -apple-system, system-ui, sans-serif" font-size="10" fill="#FFFFFF">Priority: Medium</text>
      <text x="660" y="675" font-family="SF Pro Text, -apple-system, system-ui, sans-serif" font-size="10" fill="#FFFFFF">Assigned: Arthur</text>
      <text x="660" y="690" font-family="SF Pro Text, -apple-system, system-ui, sans-serif" font-size="10" fill="#5AC8FA">Estimate: 2 days</text>
      
      <rect x="780" y="530" width="120" height="80" rx="5" fill="#331F4A" />
      <rect x="780" y="530" width="5" height="80" rx="2" fill="#FF6B6B" />
      <text x="790" y="550" font-family="SF Pro Text, -apple-system, system-ui, sans-serif" font-size="12" font-weight="bold" fill="#FFFFFF">Performance Opt.</text>
      <text x="790" y="570" font-family="SF Pro Text, -apple-system, system-ui, sans-serif" font-size="10" fill="#FFFFFF">Priority: Critical</text>
      <text x="790" y="585" font-family="SF Pro Text, -apple-system, system-ui, sans-serif" font-size="10" fill="#FFFFFF">Assigned: Logan</text>
      <text x="790" y="600" font-family="SF Pro Text, -apple-system, system-ui, sans-serif" font-size="10" fill="#5AC8FA">3/5 days complete</text>
      
      <rect x="910" y="530" width="120" height="80" rx="5" fill="#331F4A" />
      <rect x="910" y="530" width="5" height="80" rx="2" fill="#5AC8FA" />
      <text x="920" y="550" font-family="SF Pro Text, -apple-system, system-ui, sans-serif" font-size="12" font-weight="bold" fill="#FFFFFF">Supabase Integration</text>
      <text x="920" y="570" font-family="SF Pro Text, -apple-system, system-ui, sans-serif" font-size="10" fill="#FFFFFF">Priority: High</text>
      <text x="920" y="585" font-family="SF Pro Text, -apple-system, system-ui, sans-serif" font-size="10" fill="#FFFFFF">Assigned: Arthur</text>
      <text x="920" y="600" font-family="SF Pro Text, -apple-system, system-ui, sans-serif" font-size="10" fill="#5AC8FA">Testing: 90% complete</text>
      
      <rect x="1040" y="530" width="120" height="80" rx="5" fill="#331F4A" />
      <rect x="1040" y="530" width="5" height="80" rx="2" fill="#BF4080" />
      <text x="1050" y="550" font-family="SF Pro Text, -apple-system, system-ui, sans-serif" font-size="12" font-weight="bold" fill="#FFFFFF">AI Prompt Library</text>
      <text x="1050" y="570" font-family="SF Pro Text, -apple-system, system-ui, sans-serif" font-size="10" fill="#FFFFFF">Priority: Medium</text>
      <text x="1050" y="585" font-family="SF Pro Text, -apple-system, system-ui, sans-serif" font-size="10" fill="#FFFFFF">Assigned: Team</text>
      <text x="1050" y="600" font-family="SF Pro Text, -apple-system, system-ui, sans-serif" font-size="10" fill="#29B6F6">Completed: 3/25</text>
      
      <!-- Add New Task -->
      <rect x="650" y="710" width="120" height="30" rx="5" fill="#5AC8FA" opacity="0.6" />
      <text x="710" y="730" font-family="SF Pro Text, -apple-system, system-ui, sans-serif" font-size="14" fill="#FFFFFF" text-anchor="middle">+ Add Task</text>
      
      <!-- Sprint Summary -->
      <rect x="780" y="620" width="380" height="120" rx="5" fill="#331F4A" />
      <text x="970" y="640" font-family="SF Pro Text, -apple-system, system-ui, sans-serif" font-size="16" font-weight="bold" fill="#FFFFFF" text-anchor="middle">Current Sprint: #14</text>
      <text x="800" y="665" font-family="SF Pro Text, -apple-system, system-ui, sans-serif" font-size="14" fill="#FFFFFF">• 8/12 tasks completed</text>
      <text x="800" y="685" font-family="SF Pro Text, -apple-system, system-ui, sans-serif" font-size="14" fill="#FFFFFF">• 2 days remaining</text>
      <text x="800" y="705" font-family="SF Pro Text, -apple-system, system-ui, sans-serif" font-size="14" fill="#FFFFFF">• Velocity: 21 points (↑ from 18)</text>
      <text x="800" y="725" font-family="SF Pro Text, -apple-system, system-ui, sans-serif" font-size="14" fill="#FFFFFF">• AI-assisted optimization saved 3 days</text>
      
      <!-- AI badge -->
      <circle cx="1130" cy="640" r="10" fill="#BF4080" stroke="#FFFFFF" stroke-width="1">
        <animate attributeName="opacity" values="0.7;1;0.7" dur="2s" repeatCount="indefinite" />
      </circle>
      <text x="1130" cy="644" font-family="SF Pro Text, -apple-system, system-ui, sans-serif" font-size="10" font-weight="bold" fill="#FFFFFF" text-anchor="middle">AI</text>
    </g>
  </g>
  
  <!-- Bottom Wayfinding -->
  <rect x="50" y="770" width="1120" height="30" rx="15" fill="#331F4A" opacity="0.9" />
  <text x="600" y="790" font-family="SF Pro Text, -apple-system, system-ui, sans-serif" font-size="14" fill="#FFFFFF" text-anchor="middle">Connected to: Game Design Workshop, Product Strategy Hub, Brand Expression Hub</text>
  
  <!-- Help Button -->
  <rect x="1040" y="70" width="120" height="30" rx="15" fill="#6A3093" />
  <text x="1100" y="90" font-family="SF Pro Text, -apple-system, system-ui, sans-serif" font-size="14" fill="#FFFFFF" text-anchor="middle">Need Help?</text>

  <!-- Footer -->
  <rect x="0" y="800" width="1200" height="40" fill="#0D0D15" />
  <text x="60" y="825" font-family="SF Pro Text, -apple-system, system-ui, sans-serif" font-size="12" fill="#5AC8FA">© 2024 9Bit Studios - Engineering Command Center v2.4.1</text>
  <text x="1140" y="825" font-family="SF Pro Text, -apple-system, system-ui, sans-serif" font-size="12" fill="#5AC8FA" text-anchor="end">Last Updated: 2024-03-21</text>
  
  <!-- System Status Indicator -->
  <circle cx="1100" cy="820" r="6" fill="#29B6F6">
    <animate attributeName="opacity" values="0.7;1;0.7" dur="3s" repeatCount="indefinite" />
  </circle>
  <text x="1090" y="825" font-family="SF Pro Text, -apple-system, system-ui, sans-serif" font-size="12" fill="#FFFFFF" text-anchor="end">System Status: Operational</text>
</svg>
