<svg xmlns="http://www.w3.org/2000/svg" viewBox="0 0 1200 800">
  <!-- Background with subtle grid -->
  <rect width="1200" height="800" fill="#131A36" />
  <g opacity="0.1">
    <path d="M0,100 L1200,100" stroke="#5AC8FA" stroke-width="1" />
    <path d="M0,200 L1200,200" stroke="#5AC8FA" stroke-width="1" />
    <path d="M0,300 L1200,300" stroke="#5AC8FA" stroke-width="1" />
    <path d="M0,400 L1200,400" stroke="#5AC8FA" stroke-width="1" />
    <path d="M0,500 L1200,500" stroke="#5AC8FA" stroke-width="1" />
    <path d="M0,600 L1200,600" stroke="#5AC8FA" stroke-width="1" />
    <path d="M0,700 L1200,700" stroke="#5AC8FA" stroke-width="1" />
    
    <path d="M100,0 L100,800" stroke="#5AC8FA" stroke-width="1" />
    <path d="M300,0 L300,800" stroke="#5AC8FA" stroke-width="1" />
    <path d="M500,0 L500,800" stroke="#5AC8FA" stroke-width="1" />
    <path d="M700,0 L700,800" stroke="#5AC8FA" stroke-width="1" />
    <path d="M900,0 L900,800" stroke="#5AC8FA" stroke-width="1" />
    <path d="M1100,0 L1100,800" stroke="#5AC8FA" stroke-width="1" />
  </g>
  
  <!-- Header & Navigation -->
  <rect x="0" y="0" width="1200" height="70" fill="#331F4A" />
  <text x="60" y="40" font-family="SF Pro Text, -apple-system, system-ui, sans-serif" font-size="24" font-weight="bold" fill="#FFFFFF">Executive Strategy Hub</text>
  
  <!-- Navigation Breadcrumbs -->
  <rect x="600" y="15" width="550" height="40" rx="20" fill="#0D0D15" />
  <text x="630" y="40" font-family="SF Pro Text, -apple-system, system-ui, sans-serif" font-size="14" fill="#5AC8FA">Workspaces /</text>
  <text x="730" y="40" font-family="SF Pro Text, -apple-system, system-ui, sans-serif" font-size="14" font-weight="bold" fill="#BF4080">Executive Strategy Hub</text>
  <text x="1090" y="40" font-family="SF Pro Text, -apple-system, system-ui, sans-serif" font-size="14" fill="#BF4080">AI Active</text>
  <circle cx="1120" cy="35" r="8" fill="#BF4080">
    <animate attributeName="opacity" values="0.7;1;0.7" dur="2s" repeatCount="indefinite" />
  </circle>
  
  <!-- Back to Central Command -->
  <rect x="60" y="70" width="200" height="30" rx="15" fill="#0D0D15" />
  <text x="160" y="90" font-family="SF Pro Text, -apple-system, system-ui, sans-serif" font-size="14" fill="#5AC8FA" text-anchor="middle">↩ Back to Central Command</text>
  
  <!-- Dashboard Sections -->
  <g>
    <!-- Pitch Evolution Dashboard -->
    <rect x="50" y="120" width="550" height="300" rx="10" fill="#0D0D15" stroke="#BF4080" stroke-width="2" />
    <text x="325" y="150" font-family="SF Pro Text, -apple-system, system-ui, sans-serif" font-size="20" font-weight="bold" fill="#FFFFFF" text-anchor="middle">Pitch Evolution Dashboard</text>
    
    <!-- Pitch Deck Iterations -->
    <g>
      <!-- Visual Pitch Timeline -->
      <rect x="80" y="180" width="490" height="100" rx="5" fill="#331F4A" />
      <text x="325" y="200" font-family="SF Pro Text, -apple-system, system-ui, sans-serif" font-size="16" fill="#FFFFFF" text-anchor="middle">Pitch Deck Iterations</text>
      
      <!-- Timeline Nodes -->
      <circle cx="130" cy="240" r="10" fill="#5AC8FA" />
      <line x1="130" y1="240" x2="230" y2="240" stroke="#5AC8FA" stroke-width="2" />
      <text x="130" cy="265" font-family="SF Pro Text, -apple-system, system-ui, sans-serif" font-size="12" fill="#FFFFFF" text-anchor="middle">v1.0</text>
      
      <circle cx="230" cy="240" r="10" fill="#5AC8FA" />
      <line x1="230" y1="240" x2="330" y2="240" stroke="#5AC8FA" stroke-width="2" />
      <text x="230" cy="265" font-family="SF Pro Text, -apple-system, system-ui, sans-serif" font-size="12" fill="#FFFFFF" text-anchor="middle">v1.5</text>
      
      <circle cx="330" cy="240" r="10" fill="#5AC8FA" />
      <line x1="330" y1="240" x2="430" y2="240" stroke="#5AC8FA" stroke-width="2" />
      <text x="330" cy="265" font-family="SF Pro Text, -apple-system, system-ui, sans-serif" font-size="12" fill="#FFFFFF" text-anchor="middle">v2.0</text>
      
      <circle cx="430" cy="240" r="10" fill="#BF4080" />
      <text x="430" cy="265" font-family="SF Pro Text, -apple-system, system-ui, sans-serif" font-size="12" fill="#FFFFFF" text-anchor="middle">Current</text>
      <!-- AI badge -->
      <circle cx="430" cy="225" r="8" fill="#BF4080" stroke="#FFFFFF" stroke-width="1">
        <animate attributeName="opacity" values="0.7;1;0.7" dur="2s" repeatCount="indefinite" />
      </circle>
      <text x="430" cy="229" font-family="SF Pro Text, -apple-system, system-ui, sans-serif" font-size="8" font-weight="bold" fill="#FFFFFF" text-anchor="middle">AI</text>
    </g>
    
    <!-- Key Performance Metrics -->
    <rect x="80" y="300" width="230" height="100" rx="5" fill="#331F4A" />
    <text x="195" y="320" font-family="SF Pro Text, -apple-system, system-ui, sans-serif" font-size="16" fill="#FFFFFF" text-anchor="middle">Investor Interest</text>
    <text x="195" y="355" font-family="SF Pro Text, -apple-system, system-ui, sans-serif" font-size="28" font-weight="bold" fill="#29B6F6" text-anchor="middle">82%</text>
    <text x="195" y="380" font-family="SF Pro Text, -apple-system, system-ui, sans-serif" font-size="14" fill="#FFFFFF" text-anchor="middle">↑ 12% from v2.0</text>
    
    <rect x="340" y="300" width="230" height="100" rx="5" fill="#331F4A" />
    <text x="455" y="320" font-family="SF Pro Text, -apple-system, system-ui, sans-serif" font-size="16" fill="#FFFFFF" text-anchor="middle">Time to Engage</text>
    <text x="455" y="355" font-family="SF Pro Text, -apple-system, system-ui, sans-serif" font-size="28" font-weight="bold" fill="#29B6F6" text-anchor="middle">3.2 min</text>
    <text x="455" y="380" font-family="SF Pro Text, -apple-system, system-ui, sans-serif" font-size="14" fill="#FFFFFF" text-anchor="middle">↓ 0.8 min from v2.0</text>
    
    <!-- Strategic Document Vault -->
    <rect x="50" y="440" width="550" height="340" rx="10" fill="#0D0D15" stroke="#6A3093" stroke-width="2" />
    <text x="325" y="470" font-family="SF Pro Text, -apple-system, system-ui, sans-serif" font-size="20" font-weight="bold" fill="#FFFFFF" text-anchor="middle">Strategic Document Vault</text>
    
    <!-- Document Categories -->
    <rect x="80" y="490" width="490" height="40" rx="5" fill="#331F4A" />
    <rect x="90" y="495" width="90" height="30" rx="15" fill="#BF4080" />
    <text x="135" y="515" font-family="SF Pro Text, -apple-system, system-ui, sans-serif" font-size="14" fill="#FFFFFF" text-anchor="middle">Market</text>
    
    <rect x="190" y="495" width="90" height="30" rx="15" fill="#5AC8FA" />
    <text x="235" y="515" font-family="SF Pro Text, -apple-system, system-ui, sans-serif" font-size="14" fill="#FFFFFF" text-anchor="middle">Product</text>
    
    <rect x="290" y="495" width="90" height="30" rx="15" fill="#FFD166" />
    <text x="335" y="515" font-family="SF Pro Text, -apple-system, system-ui, sans-serif" font-size="14" fill="#FFFFFF" text-anchor="middle">Financial</text>
    
    <rect x="390" y="495" width="90" height="30" rx="15" fill="#29B6F6" />
    <text x="435" y="515" font-family="SF Pro Text, -apple-system, system-ui, sans-serif" font-size="14" fill="#FFFFFF" text-anchor="middle">Legal</text>
    
    <!-- Document List -->
    <rect x="80" y="550" width="490" height="50" rx="5" fill="#331F4A" />
    <text x="100" y="580" font-family="SF Pro Text, -apple-system, system-ui, sans-serif" font-size="16" fill="#FFFFFF">M4-Optimized Game Dev Whitepaper</text>
    <rect x="450" y="565" width="100" height="20" rx="10" fill="#BF4080" />
    <text x="500" y="580" font-family="SF Pro Text, -apple-system, system-ui, sans-serif" font-size="12" fill="#FFFFFF" text-anchor="middle">AI Enhanced</text>
    
    <rect x="80" y="610" width="490" height="50" rx="5" fill="#331F4A" />
    <text x="100" y="640" font-family="SF Pro Text, -apple-system, system-ui, sans-serif" font-size="16" fill="#FFFFFF">Privacy-First AI Framework</text>
    <rect x="450" y="625" width="100" height="20" rx="10" fill="#BF4080" />
    <text x="500" y="640" font-family="SF Pro Text, -apple-system, system-ui, sans-serif" font-size="12" fill="#FFFFFF" text-anchor="middle">AI Enhanced</text>
    
    <rect x="80" y="670" width="490" height="50" rx="5" fill="#331F4A" />
    <text x="100" y="700" font-family="SF Pro Text, -apple-system, system-ui, sans-serif" font-size="16" fill="#FFFFFF">Vision Pro Market Analysis</text>
    
    <rect x="80" y="730" width="490" height="30" rx="5" fill="#5AC8FA" opacity="0.6" />
    <text x="325" y="750" font-family="SF Pro Text, -apple-system, system-ui, sans-serif" font-size="14" fill="#FFFFFF" text-anchor="middle">+ Add New Strategic Document</text>
    
    <!-- Growth Metrics Command Center -->
    <rect x="620" y="120" width="550" height="300" rx="10" fill="#0D0D15" stroke="#5AC8FA" stroke-width="2" />
    <text x="895" y="150" font-family="SF Pro Text, -apple-system, system-ui, sans-serif" font-size="20" font-weight="bold" fill="#FFFFFF" text-anchor="middle">Growth Metrics Command Center</text>
    
    <!-- Metrics Visualization -->
    <g>
      <!-- Chart Background -->
      <rect x="650" y="180" width="490" height="220" rx="5" fill="#331F4A" />
      
      <!-- Chart Axes -->
      <line x1="680" y1="350" x2="1110" y2="350" stroke="#FFFFFF" stroke-width="1" />
      <line x1="680" y1="350" x2="680" y2="200" stroke="#FFFFFF" stroke-width="1" />
      
      <!-- Chart Labels -->
      <text x="680" y="370" font-family="SF Pro Text, -apple-system, system-ui, sans-serif" font-size="10" fill="#FFFFFF" text-anchor="middle">Q1</text>
      <text x="780" y="370" font-family="SF Pro Text, -apple-system, system-ui, sans-serif" font-size="10" fill="#FFFFFF" text-anchor="middle">Q2</text>
      <text x="880" y="370" font-family="SF Pro Text, -apple-system, system-ui, sans-serif" font-size="10" fill="#FFFFFF" text-anchor="middle">Q3</text>
      <text x="980" y="370" font-family="SF Pro Text, -apple-system, system-ui, sans-serif" font-size="10" fill="#FFFFFF" text-anchor="middle">Q4</text>
      <text x="1080" y="370" font-family="SF Pro Text, -apple-system, system-ui, sans-serif" font-size="10" fill="#FFFFFF" text-anchor="middle">Proj.</text>
      
      <!-- Revenue Line -->
      <polyline points="680,320 780,310 880,290 980,250 1080,210" fill="none" stroke="#29B6F6" stroke-width="3" />
      <circle cx="680" cy="320" r="5" fill="#29B6F6" />
      <circle cx="780" cy="310" r="5" fill="#29B6F6" />
      <circle cx="880" cy="290" r="5" fill="#29B6F6" />
      <circle cx="980" cy="250" r="5" fill="#29B6F6" />
      <circle cx="1080" cy="210" r="5" fill="#29B6F6" />
      
      <!-- User Acquisition Line -->
      <polyline points="680,330 780,300 880,270 980,240 1080,200" fill="none" stroke="#5AC8FA" stroke-width="3" />
      <circle cx="680" cy="330" r="5" fill="#5AC8FA" />
      <circle cx="780" cy="300" r="5" fill="#5AC8FA" />
      <circle cx="880" cy="270" r="5" fill="#5AC8FA" />
      <circle cx="980" cy="240" r="5" fill="#5AC8FA" />
      <circle cx="1080" cy="200" r="5" fill="#5AC8FA" />
      
      <!-- Legend -->
      <rect x="750" y="180" width="15" height="15" fill="#29B6F6" />
      <text x="775" y="193" font-family="SF Pro Text, -apple-system, system-ui, sans-serif" font-size="12" fill="#FFFFFF">Revenue</text>
      
      <rect x="850" y="180" width="15" height="15" fill="#5AC8FA" />
      <text x="875" y="193" font-family="SF Pro Text, -apple-system, system-ui, sans-serif" font-size="12" fill="#FFFFFF">User Acquisition</text>
      
      <!-- AI Prediction Indicator -->
      <rect x="950" y="180" width="15" height="15" fill="#BF4080" />
      <text x="975" y="193" font-family="SF Pro Text, -apple-system, system-ui, sans-serif" font-size="12" fill="#FFFFFF">AI Prediction</text>
      
      <path d="M1080,210 L1130,190" stroke="#BF4080" stroke-width="2" stroke-dasharray="5,3" />
      <path d="M1080,200 L1130,180" stroke="#BF4080" stroke-width="2" stroke-dasharray="5,3" />
    </g>
    
    <!-- Investor/Partner Pipeline -->
    <rect x="620" y="440" width="550" height="340" rx="10" fill="#0D0D15" stroke="#FF6B6B" stroke-width="2" />
    <text x="895" y="470" font-family="SF Pro Text, -apple-system, system-ui, sans-serif" font-size="20" font-weight="bold" fill="#FFFFFF" text-anchor="middle">Investor/Partner Pipeline</text>
    
    <!-- Pipeline Board -->
    <g>
      <!-- Column Headers -->
      <rect x="650" y="490" width="120" height="30" rx="5" fill="#331F4A" />
      <text x="710" y="510" font-family="SF Pro Text, -apple-system, system-ui, sans-serif" font-size="14" fill="#FFFFFF" text-anchor="middle">Lead</text>
      
      <rect x="780" y="490" width="120" height="30" rx="5" fill="#331F4A" />
      <text x="840" y="510" font-family="SF Pro Text, -apple-system, system-ui, sans-serif" font-size="14" fill="#FFFFFF" text-anchor="middle">Meeting</text>
      
      <rect x="910" y="490" width="120" height="30" rx="5" fill="#331F4A" />
      <text x="970" y="510" font-family="SF Pro Text, -apple-system, system-ui, sans-serif" font-size="14" fill="#FFFFFF" text-anchor="middle">Follow-up</text>
      
      <rect x="1040" y="490" width="120" height="30" rx="5" fill="#331F4A" />
      <text x="1100" y="510" font-family="SF Pro Text, -apple-system, system-ui, sans-serif" font-size="14" fill="#FFFFFF" text-anchor="middle">Closed</text>
      
      <!-- Card 1 -->
      <rect x="650" y="530" width="120" height="90" rx="5" fill="#331F4A" />
      <text x="660" y="550" font-family="SF Pro Text, -apple-system, system-ui, sans-serif" font-size="14" font-weight="bold" fill="#FFFFFF">Quantum VC</text>
      <text x="660" y="570" font-family="SF Pro Text, -apple-system, system-ui, sans-serif" font-size="12" fill="#FFFFFF">$500K-1M Seed</text>
      <text x="660" y="590" font-family="SF Pro Text, -apple-system, system-ui, sans-serif" font-size="10" fill="#5AC8FA">Added 3 days ago</text>
      <rect x="660" y="600" width="60" height="15" rx="7.5" fill="#BF4080" />
      <text x="690" y="611" font-family="SF Pro Text, -apple-system, system-ui, sans-serif" font-size="9" fill="#FFFFFF" text-anchor="middle">AI Match</text>
      
      <!-- Card 2 -->
      <rect x="780" y="530" width="120" height="90" rx="5" fill="#331F4A" />
      <text x="790" y="550" font-family="SF Pro Text, -apple-system, system-ui, sans-serif" font-size="14" font-weight="bold" fill="#FFFFFF">Apple Dev Fund</text>
      <text x="790" y="570" font-family="SF Pro Text, -apple-system, system-ui, sans-serif" font-size="12" fill="#FFFFFF">$250K Grant</text>
      <text x="790" y="590" font-family="SF Pro Text, -apple-system, system-ui, sans-serif" font-size="10" fill="#5AC8FA">Meeting on 4/10</text>
      
      <!-- Card 3 -->
      <rect x="910" y="530" width="120" height="90" rx="5" fill="#331F4A" />
      <text x="920" y="550" font-family="SF Pro Text, -apple-system, system-ui, sans-serif" font-size="14" font-weight="bold" fill="#FFFFFF">Vision Studio</text>
      <text x="920" y="570" font-family="SF Pro Text, -apple-system, system-ui, sans-serif" font-size="12" fill="#FFFFFF">Partnership</text>
      <text x="920" y="590" font-family="SF Pro Text, -apple-system, system-ui, sans-serif" font-size="10" fill="#5AC8FA">Presented 3/25</text>
      
      <!-- Card 4 -->
      <rect x="1040" y="530" width="120" height="90" rx="5" fill="#331F4A" />
      <text x="1050" y="550" font-family="SF Pro Text, -apple-system, system-ui, sans-serif" font-size="14" font-weight="bold" fill="#FFFFFF">Startup Engine</text>
      <text x="1050" y="570" font-family="SF Pro Text, -apple-system, system-ui, sans-serif" font-size="12" fill="#FFFFFF">$100K Pre-seed</text>
      <text x="1050" y="590" font-family="SF Pro Text, -apple-system, system-ui, sans-serif" font-size="10" fill="#29B6F6">Closed 3/15</text>
      
      <!-- Add New Card Button -->
      <rect x="650" y="630" width="120" height="30" rx="5" fill="#5AC8FA" opacity="0.6" />
      <text x="710" y="650" font-family="SF Pro Text, -apple-system, system-ui, sans-serif" font-size="14" fill="#FFFFFF" text-anchor="middle">+ Add New</text>
    </g>
  </g>
  
  <!-- Tooltips and Navigation Aids -->
  <g>
    <!-- Help Tooltip -->
    <rect x="1040" y="70" width="120" height="30" rx="15" fill="#6A3093" />
    <text x="1100" y="90" font-family="SF Pro Text, -apple-system, system-ui, sans-serif" font-size="14" fill="#FFFFFF" text-anchor="middle">Need Help?</text>
    
    <!-- Document AI Enhancement Tooltip -->
    <rect x="450" y="530" width="120" height="40" rx="10" fill="#BF4080" opacity="0.8">
      <animate attributeName="opacity" values="0.8;0.4;0.8" dur="3s" repeatCount="indefinite" />
    </rect>
    <text x="510" y="545" font-family="SF Pro Text, -apple-system, system-ui, sans-serif" font-size="12" fill="#FFFFFF" text-anchor="middle">AI Enhanced with</text>
    <text x="510" y="560" font-family="SF Pro Text, -apple-system, system-ui, sans-serif" font-size="12" fill="#FFFFFF" text-anchor="middle">Custom Insights</text>
    
    <!-- Wayfinding Related Items -->
    <rect x="50" y="770" width="1120" height="30" rx="15" fill="#331F4A" opacity="0.9" />
    <text x="600" y="790" font-family="SF Pro Text, -apple-system, system-ui, sans-serif" font-size="14" fill="#FFFFFF" text-anchor="middle">Suggested Next: Review Product Strategy Hub for Roadmap Alignment</text>
    
    <!-- Flow Indicator -->
    <g>
      <path d="M650,390 L620,420 L500,420 L470,390" stroke="#5AC8FA" stroke-width="2" fill="none" stroke-dasharray="5,3">
        <animate attributeName="stroke-opacity" values="1;0.3;1" dur="2s" repeatCount="indefinite" />
      </path>
      <text x="560" y="410" font-family="SF Pro Text, -apple-system, system-ui, sans-serif" font-size="12" fill="#5AC8FA" text-anchor="middle">Metrics inform Strategy</text>
    </g>
  </g>
</svg>
