<svg xmlns="http://www.w3.org/2000/svg" viewBox="0 0 1200 800">
  <!-- Background -->
  <rect width="1200" height="800" fill="#0A0621" />

  <!-- Grid background for quantum-spatial aesthetic -->
  <g opacity="0.1">
    <!-- Horizontal grid lines -->
    <path d="M50,750 L1150,750" stroke="#5AC8FA" stroke-width="1" />
    <path d="M50,700 L1150,700" stroke="#5AC8FA" stroke-width="1" />
    <path d="M50,650 L1150,650" stroke="#5AC8FA" stroke-width="1" />
    <path d="M50,600 L1150,600" stroke="#5AC8FA" stroke-width="1" />
    <path d="M50,550 L1150,550" stroke="#5AC8FA" stroke-width="1" />
    <path d="M50,500 L1150,500" stroke="#5AC8FA" stroke-width="1" />
    <path d="M50,450 L1150,450" stroke="#5AC8FA" stroke-width="1" />
    <path d="M50,400 L1150,400" stroke="#5AC8FA" stroke-width="1" />
    <path d="M50,350 L1150,350" stroke="#5AC8FA" stroke-width="1" />
    <path d="M50,300 L1150,300" stroke="#5AC8FA" stroke-width="1" />
    <path d="M50,250 L1150,250" stroke="#5AC8FA" stroke-width="1" />
    <path d="M50,200 L1150,200" stroke="#5AC8FA" stroke-width="1" />
    <path d="M50,150 L1150,150" stroke="#5AC8FA" stroke-width="1" />
    <path d="M50,100 L1150,100" stroke="#5AC8FA" stroke-width="1" />
    
    <!-- Vertical grid lines -->
    <path d="M50,50 L50,750" stroke="#5AC8FA" stroke-width="1" />
    <path d="M150,50 L150,750" stroke="#5AC8FA" stroke-width="1" />
    <path d="M250,50 L250,750" stroke="#5AC8FA" stroke-width="1" />
    <path d="M350,50 L350,750" stroke="#5AC8FA" stroke-width="1" />
    <path d="M450,50 L450,750" stroke="#5AC8FA" stroke-width="1" />
    <path d="M550,50 L550,750" stroke="#5AC8FA" stroke-width="1" />
    <path d="M650,50 L650,750" stroke="#5AC8FA" stroke-width="1" />
    <path d="M750,50 L750,750" stroke="#5AC8FA" stroke-width="1" />
    <path d="M850,50 L850,750" stroke="#5AC8FA" stroke-width="1" />
    <path d="M950,50 L950,750" stroke="#5AC8FA" stroke-width="1" />
    <path d="M1050,50 L1050,750" stroke="#5AC8FA" stroke-width="1" />
    <path d="M1150,50 L1150,750" stroke="#5AC8FA" stroke-width="1" />
  </g>

  <!-- Header -->
  <rect x="50" y="50" width="1100" height="60" rx="5" fill="#131A36" />
  <text x="600" y="90" font-family="'SF Pro Display', sans-serif" font-size="28" font-weight="bold" fill="#FFFFFF" text-anchor="middle">LOGAN'S DEVELOPMENT WORKSHOP</text>
  
  <!-- Sidebar -->
  <rect x="50" y="120" width="200" height="630" rx="5" fill="#331F4A" />
  
  <!-- Dashboard Sections -->
  <rect x="260" y="120" width="430" height="300" rx="5" fill="#131A36" />
  <rect x="260" y="430" width="430" height="320" rx="5" fill="#131A36" />
  <rect x="700" y="120" width="450" height="320" rx="5" fill="#131A36" />
  <rect x="700" y="450" width="450" height="300" rx="5" fill="#131A36" />
  
  <!-- Section Titles -->
  <text x="475" y="150" font-family="'SF Pro Display', sans-serif" font-size="20" font-weight="bold" fill="#FFFFFF" text-anchor="middle">CODE DEVELOPMENT METRICS</text>
  <text x="475" y="460" font-family="'SF Pro Display', sans-serif" font-size="20" font-weight="bold" fill="#FFFFFF" text-anchor="middle">SYSTEM ARCHITECTURE</text>
  <text x="925" y="150" font-family="'SF Pro Display', sans-serif" font-size="20" font-weight="bold" fill="#FFFFFF" text-anchor="middle">M4 OPTIMIZATION STATUS</text>
  <text x="925" y="480" font-family="'SF Pro Display', sans-serif" font-size="20" font-weight="bold" fill="#FFFFFF" text-anchor="middle">DEPLOYMENT PIPELINE</text>
  
  <!-- Sidebar Menu -->
  <text x="150" y="160" font-family="'SF Pro Display', sans-serif" font-size="18" font-weight="bold" fill="#FFFFFF" text-anchor="middle">COMMAND CENTER</text>
  
  <!-- Sidebar Menu Items -->
  <rect x="70" y="180" width="160" height="40" rx="5" fill="#6A3093" />
  <text x="150" y="205" font-family="'SF Pro Display', sans-serif" font-size="14" fill="#FFFFFF" text-anchor="middle">Development Hub</text>
  
  <rect x="70" y="230" width="160" height="40" rx="5" fill="#0D0D15" />
  <text x="150" y="255" font-family="'SF Pro Display', sans-serif" font-size="14" fill="#FFFFFF" text-anchor="middle">SwiftUI Components</text>
  
  <rect x="70" y="280" width="160" height="40" rx="5" fill="#0D0D15" />
  <text x="150" y="305" font-family="'SF Pro Display', sans-serif" font-size="14" fill="#FFFFFF" text-anchor="middle">ML Integration</text>
  
  <rect x="70" y="330" width="160" height="40" rx="5" fill="#0D0D15" />
  <text x="150" y="355" font-family="'SF Pro Display', sans-serif" font-size="14" fill="#FFFFFF" text-anchor="middle">Asset Pipeline</text>
  
  <rect x="70" y="380" width="160" height="40" rx="5" fill="#0D0D15" />
  <text x="150" y="405" font-family="'SF Pro Display', sans-serif" font-size="14" fill="#FFFFFF" text-anchor="middle">Framer Integration</text>

  <rect x="70" y="430" width="160" height="40" rx="5" fill="#0D0D15" />
  <text x="150" y="455" font-family="'SF Pro Display', sans-serif" font-size="14" fill="#FFFFFF" text-anchor="middle">Supabase Console</text>
  
  <rect x="70" y="480" width="160" height="40" rx="5" fill="#0D0D15" />
  <text x="150" y="505" font-family="'SF Pro Display', sans-serif" font-size="14" fill="#FFFFFF" text-anchor="middle">Release Manager</text>
  
  <!-- Quantum separator -->
  <rect x="80" y="540" width="140" height="1" fill="#5AC8FA" />
  <rect x="80" y="545" width="140" height="1" fill="#BF4080" />
  
  <text x="150" y="580" font-family="'SF Pro Display', sans-serif" font-size="16" font-weight="bold" fill="#FFFFFF" text-anchor="middle">PROJECT STATUS</text>
  
  <!-- Project Status Section -->
  <rect x="70" y="600" width="160" height="120" rx="5" fill="#131A36" />
  
  <!-- Status Indicators -->
  <circle cx="90" cy="625" r="8" fill="#2D854D" />
  <text x="170" y="630" font-family="'SF Pro Display', sans-serif" font-size="14" fill="#FFFFFF" text-anchor="end">Core Framework</text>
  
  <circle cx="90" cy="655" r="8" fill="#2D854D" />
  <text x="170" y="660" font-family="'SF Pro Display', sans-serif" font-size="14" fill="#FFFFFF" text-anchor="end">UI Components</text>
  
  <circle cx="90" cy="685" r="8" fill="#FFCC00" />
  <text x="170" y="690" font-family="'SF Pro Display', sans-serif" font-size="14" fill="#FFFFFF" text-anchor="end">ML Integration</text>
  
  <circle cx="90" cy="715" r="8" fill="#BF4080" />
  <text x="170" y="720" font-family="'SF Pro Display', sans-serif" font-size="14" fill="#FFFFFF" text-anchor="end">Vision Pro Ready</text>
  
  <!-- Code Development Metrics -->
  <g transform="translate(280, 170)">
    <!-- Code Metrics -->
    <rect x="0" y="0" width="390" height="230" rx="5" fill="#0D0D15" />
    
    <text x="20" y="30" font-family="'SF Pro Display', sans-serif" font-size="16" fill="#FFFFFF">Development Progress</text>
    
    <!-- Code metrics with quantum-spatial styling -->
    <g transform="translate(20, 50)">
      <text x="0" y="15" font-family="'SF Pro Display', sans-serif" font-size="12" fill="#FFFFFF">Swift Files:</text>
      <text x="350" y="15" font-family="'SF Pro Display', sans-serif" font-size="12" fill="#5AC8FA" text-anchor="end">127/150</text>
      <rect x="0" y="20" width="350" height="5" rx="2" fill="#131A36" />
      <rect x="0" y="20" width="295" height="5" rx="2" fill="#5AC8FA" />
      
      <text x="0" y="45" font-family="'SF Pro Display', sans-serif" font-size="12" fill="#FFFFFF">Unit Tests:</text>
      <text x="350" y="45" font-family="'SF Pro Display', sans-serif" font-size="12" fill="#6A3093" text-anchor="end">342/400</text>
      <rect x="0" y="50" width="350" height="5" rx="2" fill="#131A36" />
      <rect x="0" y="50" width="300" height="5" rx="2" fill="#6A3093" />
      
      <text x="0" y="75" font-family="'SF Pro Display', sans-serif" font-size="12" fill="#FFFFFF">UI Components:</text>
      <text x="350" y="75" font-family="'SF Pro Display', sans-serif" font-size="12" fill="#BF4080" text-anchor="end">42/50</text>
      <rect x="0" y="80" width="350" height="5" rx="2" fill="#131A36" />
      <rect x="0" y="80" width="294" height="5" rx="2" fill="#BF4080" />
      
      <text x="0" y="105" font-family="'SF Pro Display', sans-serif" font-size="12" fill="#FFFFFF">Screens:</text>
      <text x="350" y="105" font-family="'SF Pro Display', sans-serif" font-size="12" fill="#5AC8FA" text-anchor="end">28/35</text>
      <rect x="0" y="110" width="350" height="5" rx="2" fill="#131A36" />
      <rect x="0" y="110" width="280" height="5" rx="2" fill="#5AC8FA" />
      
      <text x="0" y="135" font-family="'SF Pro Display', sans-serif" font-size="12" fill="#FFFFFF">API Endpoints:</text>
      <text x="350" y="135" font-family="'SF Pro Display', sans-serif" font-size="12" fill="#6A3093" text-anchor="end">18/24</text>
      <rect x="0" y="140" width="350" height="5" rx="2" fill="#131A36" />
      <rect x="0" y="140" width="262" height="5" rx="2" fill="#6A3093" />
      
      <text x="0" y="165" font-family="'SF Pro Display', sans-serif" font-size="12" fill="#FFFFFF">Core ML Models:</text>
      <text x="350" y="165" font-family="'SF Pro Display', sans-serif" font-size="12" fill="#BF4080" text-anchor="end">7/12</text>
      <rect x="0" y="170" width="350" height="5" rx="2" fill="#131A36" />
      <rect x="0" y="170" width="204" height="5" rx="2" fill="#BF4080" />
    </g>
  </g>
  
  <!-- Build Metrics -->
  <rect x="480" y="170" width="190" height="230" rx="5" fill="#0D0D15" />
  
  <text x="575" y="195" font-family="'SF Pro Display', sans-serif" font-size="16" fill="#FFFFFF" text-anchor="middle">Build Metrics</text>
  
  <!-- Build Metrics with quantum-spatial styling -->
  <g transform="translate(500, 215)">
    <!-- Build success rate visualization -->
    <circle cx="75" cy="75" r="60" fill="none" stroke="#131A36" stroke-width="10" />
    <path d="M75,15 A60,60 0 1,1 18,102" fill="none" stroke="#5AC8FA" stroke-width="10" />
    <text x="75" y="65" font-family="'SF Pro Display', sans-serif" font-size="24" font-weight="bold" fill="#FFFFFF" text-anchor="middle">94%</text>
    <text x="75" y="85" font-family="'SF Pro Display', sans-serif" font-size="12" fill="#FFFFFF" text-anchor="middle">Build Success</text>
    
    <!-- Build time visualization -->
    <g transform="translate(0, 160)">
      <text x="0" y="0" font-family="'SF Pro Display', sans-serif" font-size="12" fill="#FFFFFF">Avg Build Time:</text>
      <text x="150" y="0" font-family="'SF Pro Display', sans-serif" font-size="12" fill="#6A3093" text-anchor="end">3m 42s</text>
      
      <text x="0" y="20" font-family="'SF Pro Display', sans-serif" font-size="12" fill="#FFFFFF">Test Duration:</text>
      <text x="150" y="20" font-family="'SF Pro Display', sans-serif" font-size="12" fill="#BF4080" text-anchor="end">5m 18s</text>
    </g>
    
    <!-- Quantum pixel decorations -->
    <rect x="20" y="25" width="8" height="8" fill="#5AC8FA" />
    <rect x="28" y="25" width="8" height="8" fill="#6A3093" />
    
    <rect x="125" y="125" width="8" height="8" fill="#BF4080" />
    <rect x="133" y="125" width="8" height="8" fill="#5AC8FA" />
  </g>
  
  <!-- System Architecture -->
  <g transform="translate(280, 480)">
    <!-- Architecture diagram visualization -->
    <rect x="0" y="0" width="390" height="250" rx="5" fill="#0D0D15" />
    
    <!-- App Layers Visualization -->
    <g transform="translate(195, 30)">
      <text x="0" y="0" font-family="'SF Pro Display', sans-serif" font-size="16" fill="#FFFFFF" text-anchor="middle">System Architecture</text>
    </g>
    
    <!-- Architecture layers -->
    <g transform="translate(20, 50)">
      <!-- UI Layer -->
      <rect x="0" y="0" width="350" height="40" rx="5" fill="#131A36" stroke="#5AC8FA" stroke-width="1" />
      <text x="175" y="25" font-family="'SF Pro Display', sans-serif" font-size="14" fill="#FFFFFF" text-anchor="middle">UI Layer - SwiftUI Components</text>
      
      <!-- Business Logic Layer -->
      <rect x="0" y="50" width="350" height="40" rx="5" fill="#131A36" stroke="#6A3093" stroke-width="1" />
      <text x="175" y="75" font-family="'SF Pro Display', sans-serif" font-size="14" fill="#FFFFFF" text-anchor="middle">Business Logic Layer</text>
      
      <!-- Services Layer -->
      <rect x="0" y="100" width="350" height="40" rx="5" fill="#131A36" stroke="#BF4080" stroke-width="1" />
      <text x="175" y="125" font-family="'SF Pro Display', sans-serif" font-size="14" fill="#FFFFFF" text-anchor="middle">Services Layer</text>
      
      <!-- Data Layer -->
      <rect x="0" y="150" width="350" height="40" rx="5" fill="#131A36" stroke="#5AC8FA" stroke-width="1" />
      <text x="175" y="175" font-family="'SF Pro Display', sans-serif" font-size="14" fill="#FFFFFF" text-anchor="middle">Data Layer - Supabase/CloudKit</text>
      
      <!-- Connection Lines -->
      <line x1="175" y1="40" x2="175" y2="50" stroke="#FFFFFF" stroke-width="1" stroke-dasharray="3,1" />
      <line x1="175" y1="90" x2="175" y2="100" stroke="#FFFFFF" stroke-width="1" stroke-dasharray="3,1" />
      <line x1="175" y1="140" x2="175" y2="150" stroke="#FFFFFF" stroke-width="1" stroke-dasharray="3,1" />
      
      <!-- Module Count Indicators -->
      <text x="340" y="15" font-family="'SF Pro Display', sans-serif" font-size="10" fill="#5AC8FA" text-anchor="end">42 components</text>
      <text x="340" y="65" font-family="'SF Pro Display', sans-serif" font-size="10" fill="#6A3093" text-anchor="end">28 modules</text>
      <text x="340" y="115" font-family="'SF Pro Display', sans-serif" font-size="10" fill="#BF4080" text-anchor="end">15 services</text>
      <text x="340" y="165" font-family="'SF Pro Display', sans-serif" font-size="10" fill="#5AC8FA" text-anchor="end">9 repositories</text>
    </g>
  </g>
  
  <!-- M4 Optimization Dashboard -->
  <g transform="translate(720, 170)">
    <!-- M4 optimization metrics -->
    <rect x="0" y="0" width="410" height="250" rx="5" fill="#0D0D15" />
    
    <text x="205" y="30" font-family="'SF Pro Display', sans-serif" font-size="16" fill="#FFFFFF" text-anchor="middle">Neural Engine Optimization</text>
    
    <!-- M4 Mac visualization with quantum pixel aesthetic -->
    <g transform="translate(30, 60)">
      <!-- Stylized M4 chip representation -->
      <rect x="0" y="0" width="100" height="100" rx="10" fill="#131A36" stroke="#5AC8FA" stroke-width="2" />
      
      <!-- Neural Engine cores visualization -->
      <rect x="10" y="10" width="15" height="15" rx="2" fill="#6A3093" />
      <rect x="30" y="10" width="15" height="15" rx="2" fill="#BF4080" />
      <rect x="50" y="10" width="15" height="15" rx="2" fill="#6A3093" />
      <rect x="70" y="10" width="15" height="15" rx="2" fill="#BF4080" />
      
      <rect x="10" y="30" width="15" height="15" rx="2" fill="#BF4080" />
      <rect x="30" y="30" width="15" height="15" rx="2" fill="#6A3093" />
      <rect x="50" y="30" width="15" height="15" rx="2" fill="#BF4080" />
      <rect x="70" y="30" width="15" height="15" rx="2" fill="#6A3093" />
      
      <rect x="10" y="50" width="15" height="15" rx="2" fill="#6A3093" />
      <rect x="30" y="50" width="15" height="15" rx="2" fill="#BF4080" />
      <rect x="50" y="50" width="15" height="15" rx="2" fill="#6A3093" />
      <rect x="70" y="50" width="15" height="15" rx="2" fill="#BF4080" />
      
      <rect x="10" y="70" width="15" height="15" rx="2" fill="#BF4080" />
      <rect x="30" y="70" width="15" height="15" rx="2" fill="#6A3093" />
      <rect x="50" y="70" width="15" height="15" rx="2" fill="#BF4080" />
      <rect x="70" y="70" width="15" height="15" rx="2" fill="#6A3093" />
      
      <!-- Neural Engine energy/data flow -->
      <path d="M10,130 Q50,80 90,130" stroke="#5AC8FA" stroke-width="1.5" fill="none" />
      <path d="M10,125 Q50,75 90,125" stroke="#BF4080" stroke-width="1" fill="none" />
      <path d="M10,120 Q50,70 90,120" stroke="#6A3093" stroke-width="0.5" fill="none" />
    </g>
    
    <!-- Neural Engine Metrics -->
    <g transform="translate(160, 60)">
      <text x="0" y="15" font-family="'SF Pro Display', sans-serif" font-size="14" fill="#FFFFFF">Neural Engine Utilization</text>
      <rect x="0" y="25" width="220" height="10" rx="5" fill="#131A36" />
      <rect x="0" y="25" width="132" height="10" rx="5" fill="#5AC8FA" />
      <text x="0" y="50" font-family="'SF Pro Display', sans-serif" font-size="12" fill="#FFFFFF">60% Currently Utilized</text>
      
      <text x="0" y="75" font-family="'SF Pro Display', sans-serif" font-size="14" fill="#FFFFFF">Optimization Status</text>
      <text x="0" y="95" font-family="'SF Pro Display', sans-serif" font-size="12" fill="#FFFFFF">Character AI: </text>
      <text x="120" y="95" font-family="'SF Pro Display', sans-serif" font-size="12" fill="#2D854D">Optimized</text>
      
      <text x="0" y="115" font-family="'SF Pro Display', sans-serif" font-size="12" fill="#FFFFFF">World Generation: </text>
      <text x="120" y="115" font-family="'SF Pro Display', sans-serif" font-size="12" fill="#FFCC00">In Progress</text>
      
      <text x="0" y="135" font-family="'SF Pro Display', sans-serif" font-size="12" fill="#FFFFFF">Quest System: </text>
      <text x="120" y="135" font-family="'SF Pro Display', sans-serif" font-size="12" fill="#BF4080">Not Started</text>
      
      <text x="0" y="165" font-family="'SF Pro Display', sans-serif" font-size="14" fill="#FFFFFF">Performance Gains</text>
      <text x="0" y="185" font-family="'SF Pro Display', sans-serif" font-size="12" fill="#FFFFFF">+320% Character Response Generation</text>
      <text x="0" y="205" font-family="'SF Pro Display', sans-serif" font-size="12" fill="#FFFFFF">+240% Asset Processing Speed</text>
    </g>
  </g>
  
  <!-- Memory & Performance Metrics -->
  <g transform="translate(720, 430)">
    <rect x="0" y="0" width="410" height="20" rx="5" fill="#131A36" />
    <text x="20" y="15" font-family="'SF Pro Display', sans-serif" font-size="12" fill="#FFFFFF">MEMORY USAGE: </text>
    <text x="390" y="15" font-family="'SF Pro Display', sans-serif" font-size="12" fill="#5AC8FA" text-anchor="end">768MB Base / 1.2GB Peak with ML</text>
  </g>
  
  <!-- Deployment Pipeline Dashboard -->
  <g transform="translate(720, 500)">
    <!-- Deployment pipeline visualization -->
    <rect x="0" y="0" width="410" height="230" rx="5" fill="#0D0D15" />
    
    <text x="205" y="30" font-family="'SF Pro Display', sans-serif" font-size="16" fill="#FFFFFF" text-anchor="middle">Deployment Pipeline</text>
    
    <!-- Pipeline visualization with quantum-spatial aesthetic -->
    <g transform="translate(30, 50)">
      <!-- Pipeline stages -->
      <rect x="0" y="0" width="80" height="40" rx="5" fill="#131A36" stroke="#5AC8FA" stroke-width="1" />
      <text x="40" y="25" font-family="'SF Pro Display', sans-serif" font-size="12" fill="#FFFFFF" text-anchor="middle">Development</text>
      
      <rect x="110" y="0" width="80" height="40" rx="5" fill="#131A36" stroke="#6A3093" stroke-width="1" />
      <text x="150" y="25" font-family="'SF Pro Display', sans-serif" font-size="12" fill="#FFFFFF" text-anchor="middle">Testing</text>
      
      <rect x="220" y="0" width="80" height="40" rx="5" fill="#131A36" stroke="#BF4080" stroke-width="1" />
      <text x="260" y="25" font-family="'SF Pro Display', sans-serif" font-size="12" fill="#FFFFFF" text-anchor="middle">Staging</text>
      
      <rect x="330" y="0" width="50" height="40" rx="5" fill="#131A36" stroke="#5AC8FA" stroke-width="1" stroke-dasharray="4,2" />
      <text x="355" y="25" font-family="'SF Pro Display', sans-serif" font-size="12" fill="#FFFFFF" text-anchor="middle">Prod</text>
      
      <!-- Pipeline connections -->
      <path d="M80,20 L110,20" stroke="#FFFFFF" stroke-width="1" marker-end="url(#arrowhead)" />
      <path d="M190,20 L220,20" stroke="#FFFFFF" stroke-width="1" marker-end="url(#arrowhead)" />
      <path d="M300,20 L330,20" stroke="#FFFFFF" stroke-width="1" marker-end="url(#arrowhead)" />
      
      <!-- Pipeline tasks -->
      <rect x="0" y="60" width="80" height="20" rx="3" fill="#131A36" stroke="#5AC8FA" stroke-width="1" />
      <text x="40" y="75" font-family="'SF Pro Display', sans-serif" font-size="10" fill="#FFFFFF" text-anchor="middle">Coding</text>
      
      <rect x="110" y="60" width="80" height="20" rx="3" fill="#131A36" stroke="#6A3093" stroke-width="1" />
      <text x="150" y="75" font-family="'SF Pro Display', sans-serif" font-size="10" fill="#FFFFFF" text-anchor="middle">Unit Tests</text>
      
      <rect x="220" y="60" width="80" height="20" rx="3" fill="#131A36" stroke="#BF4080" stroke-width="1" />
      <text x="260" y="75" font-family="'SF Pro Display', sans-serif" font-size="10" fill="#FFFFFF" text-anchor="middle">QA Testing</text>
      
      <rect x="330" y="60" width="50" height="20" rx="3" fill="#131A36" stroke="#5AC8FA" stroke-width="1" stroke-dasharray="2,1" />
      <text x="355" y="75" font-family="'SF Pro Display', sans-serif" font-size="10" fill="#FFFFFF" text-anchor="middle">Release</text>
      
      <!-- CI/CD Metrics -->
      <g transform="translate(0, 100)">
        <!-- Build metrics -->
        <text x="0" y="15" font-family="'SF Pro Display', sans-serif" font-size="12" fill="#FFFFFF">GitHub Actions:</text>
        <text x="150" y="15" font-family="'SF Pro Display', sans-serif" font-size="12" fill="#2D854D" text-anchor="end">12 Workflows</text>
        
        <text x="0" y="35" font-family="'SF Pro Display', sans-serif" font-size="12" fill="#FFFFFF">Daily Commits:</text>
        <text x="150" y="35" font-family="'SF Pro Display', sans-serif" font-size="12" fill="#5AC8FA" text-anchor="end">18.5 avg</text>
        
        <text x="0" y="55" font-family="'SF Pro Display', sans-serif" font-size="12" fill="#FFFFFF">Test Coverage:</text>
        <text x="150" y="55" font-family="'SF Pro Display', sans-serif" font-size="12" fill="#6A3093" text-anchor="end">86%</text>
        
        <text x="180" y="15" font-family="'SF Pro Display', sans-serif" font-size="12" fill="#FFFFFF">Open PRs:</text>
        <text x="340" y="15" font-family="'SF Pro Display', sans-serif" font-size="12" fill="#BF4080" text-anchor="end">7</text>
        
        <text x="180" y="35" font-family="'SF Pro Display', sans-serif" font-size="12" fill="#FFFFFF">Code Review:</text>
        <text x="340" y="35" font-family="'SF Pro Display', sans-serif" font-size="12" fill="#5AC8FA" text-anchor="end">8.2 hrs avg</text>
        
        <text x="180" y="55" font-family="'SF Pro Display', sans-serif" font-size="12" fill="#FFFFFF">Release Cycle:</text>
        <text x="340" y="55" font-family="'SF Pro Display', sans-serif" font-size="12" fill="#6A3093" text-anchor="end">2 weeks</text>
      </g>
    </g>
    
    <!-- Current Build Status -->
    <g transform="translate(30, 180)">
      <rect x="0" y="0" width="350" height="30" rx="5" fill="#131A36" />
      <text x="10" y="20" font-family="'SF Pro Display', sans-serif" font-size="14" fill="#FFFFFF">Current Build:</text>
      <text x="120" y="20" font-family="'SF Pro Display', sans-serif" font-size="14" fill="#5AC8FA">#1458 (develop)</text>
      <circle cx="230" cy="15" r="8" fill="#2D854D" />
      <text x="245" y="20" font-family="'SF Pro Display', sans-serif" font-size="14" fill="#FFFFFF">Passing</text>
    </g>
  </g>
  
  <!-- AI Integration Metrics -->
  <g transform="translate(720, 470)">
    <rect x="0" y="0" width="410" height="30" rx="5" fill="#131A36" />
    <text x="20" y="20" font-family="'SF Pro Display', sans-serif" font-size="14" fill="#FFFFFF">ON-DEVICE ML:</text>
    <text x="390" y="20" font-family="'SF Pro Display', sans-serif" font-size="14" fill="#5AC8FA" text-anchor="end">5/8 Models Optimized for Neural Engine</text>
  </g>
  
  <!-- Arrowhead marker for deployment pipeline -->
  <defs>
    <marker id="arrowhead" markerWidth="10" markerHeight="7" refX="0" refY="3.5" orient="auto">
      <polygon points="0 0, 10 3.5, 0 7" fill="#FFFFFF" />
    </marker>
  </defs>
</svg>