<svg xmlns="http://www.w3.org/2000/svg" viewBox="0 0 1500 500">
  <!-- Background -->
  <rect width="1500" height="500" fill="#0A0621" />
  
  <!-- Subtle grid background with quantum distortion -->
  <g opacity="0.08">
    <!-- Horizontal grid lines -->
    <path d="M0,450 Q750,430 1500,450" stroke="#5AC8FA" stroke-width="1" />
    <path d="M0,400 Q750,390 1500,400" stroke="#5AC8FA" stroke-width="1" />
    <path d="M0,350 Q750,330 1500,350" stroke="#5AC8FA" stroke-width="1" />
    <path d="M0,300 Q750,280 1500,300" stroke="#5AC8FA" stroke-width="1" />
    <path d="M0,250 Q750,230 1500,250" stroke="#5AC8FA" stroke-width="1" />
    <path d="M0,200 Q750,180 1500,200" stroke="#5AC8FA" stroke-width="1" />
    <path d="M0,150 Q750,130 1500,150" stroke="#5AC8FA" stroke-width="1" />
    <path d="M0,100 Q750,80 1500,100" stroke="#5AC8FA" stroke-width="1" />
    <path d="M0,50 Q750,30 1500,50" stroke="#5AC8FA" stroke-width="1" />
    
    <!-- Vertical grid lines with distortion -->
    <path d="M150,0 Q170,250 150,500" stroke="#5AC8FA" stroke-width="1" />
    <path d="M300,0 Q320,250 300,500" stroke="#5AC8FA" stroke-width="1" />
    <path d="M450,0 Q470,250 450,500" stroke="#5AC8FA" stroke-width="1" />
    <path d="M600,0 Q620,250 600,500" stroke="#5AC8FA" stroke-width="1" />
    <path d="M750,0 Q770,250 750,500" stroke="#5AC8FA" stroke-width="1" />
    <path d="M900,0 Q920,250 900,500" stroke="#5AC8FA" stroke-width="1" />
    <path d="M1050,0 Q1070,250 1050,500" stroke="#5AC8FA" stroke-width="1" />
    <path d="M1200,0 Q1220,250 1200,500" stroke="#5AC8FA" stroke-width="1" />
    <path d="M1350,0 Q1370,250 1350,500" stroke="#5AC8FA" stroke-width="1" />
  </g>
  
  <!-- Title -->
  <text x="750" y="50" font-family="'SF Pro Display', -apple-system, BlinkMacSystemFont, sans-serif" font-size="28" font-weight="bold" fill="#FFFFFF" text-anchor="middle">Personal Teamspaces</text>
  <text x="750" y="80" font-family="'SF Pro Display', -apple-system, BlinkMacSystemFont, sans-serif" font-size="18" fill="#5AC8FA" text-anchor="middle">Sacred Sanctuary from Madness Spirits</text>
  
  <!-- Main Sanctuary Space - Left Side (Arthur's Game Design Workshop) -->
  <g transform="translate(400, 270)">
    <!-- Protective Geometric Pattern - Sacred Geometry -->
    <g>
      <!-- Outer Protection Circle -->
      <circle cx="0" cy="0" r="160" fill="none" stroke="#6A3093" stroke-width="1" opacity="0.4">
        <animate attributeName="stroke-opacity" values="0.4;0.6;0.4" dur="8s" repeatCount="indefinite" />
      </circle>
      
      <!-- Sacred Geometry - Flower of Life Pattern -->
      <g opacity="0.5">
        <circle cx="-80" cy="-46.2" r="40" fill="none" stroke="#5AC8FA" stroke-width="0.8" />
        <circle cx="-40" cy="-69.3" r="40" fill="none" stroke="#5AC8FA" stroke-width="0.8" />
        <circle cx="0" cy="-80" r="40" fill="none" stroke="#5AC8FA" stroke-width="0.8" />
        <circle cx="40" cy="-69.3" r="40" fill="none" stroke="#5AC8FA" stroke-width="0.8" />
        <circle cx="80" cy="-46.2" r="40" fill="none" stroke="#5AC8FA" stroke-width="0.8" />
        <circle cx="92.4" cy="0" r="40" fill="none" stroke="#5AC8FA" stroke-width="0.8" />
        <circle cx="80" cy="46.2" r="40" fill="none" stroke="#5AC8FA" stroke-width="0.8" />
        <circle cx="40" cy="69.3" r="40" fill="none" stroke="#5AC8FA" stroke-width="0.8" />
        <circle cx="0" cy="80" r="40" fill="none" stroke="#5AC8FA" stroke-width="0.8" />
        <circle cx="-40" cy="69.3" r="40" fill="none" stroke="#5AC8FA" stroke-width="0.8" />
        <circle cx="-80" cy="46.2" r="40" fill="none" stroke="#5AC8FA" stroke-width="0.8" />
        <circle cx="-92.4" cy="0" r="40" fill="none" stroke="#5AC8FA" stroke-width="0.8" />
      </g>
      
      <!-- Inner Sacred Geometry - Sri Yantra -->
      <g opacity="0.7">
        <!-- Downward Triangles -->
        <path d="M0,-60 L52,-30 L52,30 L0,60 L-52,30 L-52,-30 Z" fill="none" stroke="#BF4080" stroke-width="0.8" />
        <path d="M0,-40 L34.6,-20 L34.6,20 L0,40 L-34.6,20 L-34.6,-20 Z" fill="none" stroke="#BF4080" stroke-width="0.8" />
        <path d="M0,-20 L17.3,-10 L17.3,10 L0,20 L-17.3,10 L-17.3,-10 Z" fill="none" stroke="#BF4080" stroke-width="0.8" />
        
        <!-- Connective Lines -->
        <path d="M0,0 L0,60" fill="none" stroke="#BF4080" stroke-width="0.5" />
        <path d="M0,0 L52,30" fill="none" stroke="#BF4080" stroke-width="0.5" />
        <path d="M0,0 L52,-30" fill="none" stroke="#BF4080" stroke-width="0.5" />
        <path d="M0,0 L0,-60" fill="none" stroke="#BF4080" stroke-width="0.5" />
        <path d="M0,0 L-52,-30" fill="none" stroke="#BF4080" stroke-width="0.5" />
        <path d="M0,0 L-52,30" fill="none" stroke="#BF4080" stroke-width="0.5" />
      </g>
      
      <!-- Pulsating Center -->
      <circle cx="0" cy="0" r="10" fill="#131A36">
        <animate attributeName="r" values="10;12;10" dur="4s" repeatCount="indefinite" />
      </circle>
      <circle cx="0" cy="0" r="6" fill="#6A3093">
        <animate attributeName="r" values="6;8;6" dur="4s" repeatCount="indefinite" />
      </circle>
      <circle cx="0" cy="0" r="3" fill="#BF4080">
        <animate attributeName="r" values="3;4;3" dur="4s" repeatCount="indefinite" />
      </circle>
    </g>
    
    <!-- Personal Energy Signature -->
    <g>
      <path d="M-90,-20 C-70,-40 -50,-30 -40,-50 C-30,-70 -10,-60 0,-80 C10,-60 30,-70 40,-50 C50,-30 70,-40 90,-20" 
            fill="none" stroke="#5AC8FA" stroke-width="1.5" stroke-opacity="0.8">
        <animate attributeName="stroke-opacity" values="0.8;0.4;0.8" dur="6s" repeatCount="indefinite" />
      </path>
      <path d="M-90,20 C-70,40 -50,30 -40,50 C-30,70 -10,60 0,80 C10,60 30,70 40,50 C50,30 70,40 90,20" 
            fill="none" stroke="#5AC8FA" stroke-width="1.5" stroke-opacity="0.8">
        <animate attributeName="stroke-opacity" values="0.8;0.4;0.8" dur="6s" repeatCount="indefinite" />
      </path>
    </g>
    
    <!-- Floating Personal Artifacts -->
    <g>
      <!-- Game Design Document -->
      <g transform="translate(-70, -20) rotate(-15)">
        <rect x="-25" y="-30" width="50" height="60" rx="2" fill="#331F4A" opacity="0.9" />
        <rect x="-20" y="-25" width="40" height="8" rx="1" fill="#5AC8FA" opacity="0.7" />
        <rect x="-20" y="-13" width="30" height="3" rx="1" fill="#FFFFFF" opacity="0.6" />
        <rect x="-20" y="-7" width="35" height="3" rx="1" fill="#FFFFFF" opacity="0.6" />
        <rect x="-20" y="-1" width="25" height="3" rx="1" fill="#FFFFFF" opacity="0.6" />
        <rect x="-20" y="5" width="32" height="3" rx="1" fill="#FFFFFF" opacity="0.6" />
        <rect x="-20" y="11" width="35" height="3" rx="1" fill="#FFFFFF" opacity="0.6" />
        <rect x="-20" y="17" width="28" height="3" rx="1" fill="#FFFFFF" opacity="0.6" />
        <rect x="-20" y="23" width="32" height="3" rx="1" fill="#FFFFFF" opacity="0.6" />
        
        <!-- Floating Effect -->
        <animateTransform attributeName="transform" type="translate" 
                          values="-70,-20; -72,-18; -70,-20" 
                          dur="4s" repeatCount="indefinite" additive="sum" />
      </g>
      
      <!-- Character Concept Art -->
      <g transform="translate(20, -40) rotate(10)">
        <rect x="-25" y="-35" width="50" height="70" rx="2" fill="#331F4A" opacity="0.9" />
        <rect x="-20" y="-30" width="40" height="60" rx="1" fill="#0D0D15" opacity="0.8" />
        <ellipse cx="0" cy="-15" rx="15" ry="5" fill="#5AC8FA" opacity="0.6" />
        <path d="M-5,-15 L0,-5 L5,-15" fill="none" stroke="#FFFFFF" stroke-width="1" opacity="0.6" />
        <rect x="-12" y="-5" width="24" height="30" rx="5" fill="#6A3093" opacity="0.5" />
        
        <!-- Floating Effect -->
        <animateTransform attributeName="transform" type="translate" 
                          values="20,-40; 22,-38; 20,-40" 
                          dur="3.5s" repeatCount="indefinite" additive="sum" />
      </g>
      
      <!-- Narrative Flow Chart -->
      <g transform="translate(60, 20) rotate(-5)">
        <rect x="-25" y="-30" width="50" height="60" rx="2" fill="#331F4A" opacity="0.9" />
        <circle cx="-10" cy="-15" r="6" fill="#BF4080" opacity="0.7" />
        <circle cx="15" cy="-10" r="6" fill="#BF4080" opacity="0.7" />
        <circle cx="0" cy="5" r="6" fill="#BF4080" opacity="0.7" />
        <circle cx="-15" cy="20" r="6" fill="#BF4080" opacity="0.7" />
        <path d="M-10,-15 L15,-10 L0,5 L-15,20" fill="none" stroke="#FFFFFF" stroke-width="1" opacity="0.6" />
        
        <!-- Floating Effect -->
        <animateTransform attributeName="transform" type="translate" 
                          values="60,20; 58,22; 60,20" 
                          dur="4.5s" repeatCount="indefinite" additive="sum" />
      </g>
      
      <!-- Ink Script -->
      <g transform="translate(-30, 40) rotate(5)">
        <rect x="-20" y="-25" width="40" height="50" rx="2" fill="#331F4A" opacity="0.9" />
        <rect x="-16" y="-21" width="32" height="42" rx="1" fill="#0D0D15" opacity="0.8" />
        <text x="-14" y="-10" font-family="'SF Mono', monospace" font-size="4" fill="#5AC8FA">
          VAR hero = "Arthur"
        </text>
        <text x="-14" y="-3" font-family="'SF Mono', monospace" font-size="4" fill="#5AC8FA">
          -> main_story
        </text>
        <text x="-14" y="4" font-family="'SF Mono', monospace" font-size="4" fill="#5AC8FA">
          == main_story ==
        </text>
        <text x="-14" y="11" font-family="'SF Mono', monospace" font-size="4" fill="#5AC8FA">
          * [Begin]
        </text>
        <text x="-14" y="18" font-family="'SF Mono', monospace" font-size="4" fill="#5AC8FA">
          -> first_choice
        </text>
        
        <!-- Floating Effect -->
        <animateTransform attributeName="transform" type="translate" 
                          values="-30,40; -28,38; -30,40" 
                          dur="5s" repeatCount="indefinite" additive="sum" />
      </g>
    </g>
    
    <!-- Quantum Particle Effects -->
    <g>
      <circle cx="-100" cy="-80" r="1.5" fill="#FFFFFF" opacity="0.7">
        <animate attributeName="opacity" values="0.7;0.2;0.7" dur="3s" repeatCount="indefinite" />
      </circle>
      <circle cx="80" cy="-90" r="1.2" fill="#FFFFFF" opacity="0.6">
        <animate attributeName="opacity" values="0.6;0.1;0.6" dur="4s" repeatCount="indefinite" />
      </circle>
      <circle cx="110" cy="20" r="1.8" fill="#FFFFFF" opacity="0.8">
        <animate attributeName="opacity" values="0.8;0.3;0.8" dur="5s" repeatCount="indefinite" />
      </circle>
      <circle cx="-90" cy="70" r="1.3" fill="#FFFFFF" opacity="0.5">
        <animate attributeName="opacity" values="0.5;0.1;0.5" dur="3.5s" repeatCount="indefinite" />
      </circle>
      <circle cx="0" cy="100" r="1.6" fill="#FFFFFF" opacity="0.7">
        <animate attributeName="opacity" values="0.7;0.2;0.7" dur="4.5s" repeatCount="indefinite" />
      </circle>
    </g>
    
    <!-- Space Label -->
    <text x="0" y="-140" font-family="'SF Pro Display', -apple-system, BlinkMacSystemFont, sans-serif" font-size="16" font-weight="bold" fill="#FFFFFF" text-anchor="middle">Arthur's Game Design Workshop</text>
  </g>
  
  <!-- Main Sanctuary Space - Right Side (Logan's Development Workshop) -->
  <g transform="translate(1100, 270)">
    <!-- Protective Geometric Pattern - Different Sacred Geometry -->
    <g>
      <!-- Outer Protection Circle -->
      <circle cx="0" cy="0" r="160" fill="none" stroke="#5AC8FA" stroke-width="1" opacity="0.4">
        <animate attributeName="stroke-opacity" values="0.4;0.6;0.4" dur="7s" repeatCount="indefinite" />
      </circle>
      
      <!-- Sacred Geometry - Metatron's Cube Pattern -->
      <g opacity="0.5">
        <!-- Outer Hexagon -->
        <path d="M-80,0 L-40,-69.3 L40,-69.3 L80,0 L40,69.3 L-40,69.3 Z" fill="none" stroke="#6A3093" stroke-width="0.8" />
        
        <!-- Inner Hexagon -->
        <path d="M-40,0 L-20,-34.6 L20,-34.6 L40,0 L20,34.6 L-20,34.6 Z" fill="none" stroke="#6A3093" stroke-width="0.8" />
        
        <!-- Connecting Lines -->
        <path d="M-80,0 L80,0" fill="none" stroke="#6A3093" stroke-width="0.5" />
        <path d="M-40,-69.3 L40,69.3" fill="none" stroke="#6A3093" stroke-width="0.5" />
        <path d="M40,-69.3 L-40,69.3" fill="none" stroke="#6A3093" stroke-width="0.5" />
        <path d="M-40,-69.3 L40,-69.3" fill="none" stroke="#6A3093" stroke-width="0.5" />
        <path d="M-40,69.3 L40,69.3" fill="none" stroke="#6A3093" stroke-width="0.5" />
      </g>
      
      <!-- Inner Sacred Geometry - Developers' Platonic Solid -->
      <g opacity="0.7">
        <!-- Cube Representation -->
        <path d="M-30,-30 L30,-30 L30,30 L-30,30 Z" fill="none" stroke="#5AC8FA" stroke-width="0.8" />
        <path d="M-20,-40 L40,-40 L40,20 L-20,20 Z" fill="none" stroke="#5AC8FA" stroke-width="0.8" />
        <path d="M-30,-30 L-20,-40" fill="none" stroke="#5AC8FA" stroke-width="0.5" />
        <path d="M30,-30 L40,-40" fill="none" stroke="#5AC8FA" stroke-width="0.5" />
        <path d="M30,30 L40,20" fill="none" stroke="#5AC8FA" stroke-width="0.5" />
        <path d="M-30,30 L-20,20" fill="none" stroke="#5AC8FA" stroke-width="0.5" />
      </g>
      
      <!-- Pulsating Center -->
      <circle cx="0" cy="0" r="10" fill="#131A36">
        <animate attributeName="r" values="10;12;10" dur="4.5s" repeatCount="indefinite" />
      </circle>
      <circle cx="0" cy="0" r="6" fill="#5AC8FA">
        <animate attributeName="r" values="6;8;6" dur="4.5s" repeatCount="indefinite" />
      </circle>
      <circle cx="0" cy="0" r="3" fill="#126D71">
        <animate attributeName="r" values="3;4;3" dur="4.5s" repeatCount="indefinite" />
      </circle>
    </g>
    
    <!-- Personal Energy Signature (Developer Style) -->
    <g>
      <!-- Code-like Energy Pattern -->
      <path d="M-90,-10 L-70,-10 M-60,-10 L-40,-10 M-30,-10 L-10,-10 M0,-10 L20,-10 M30,-10 L50,-10 M60,-10 L80,-10" 
            fill="none" stroke="#5AC8FA" stroke-width="1.5" stroke-opacity="0.8">
        <animate attributeName="stroke-opacity" values="0.8;0.4;0.8" dur="3s" repeatCount="indefinite" />
      </path>
      <path d="M-90,0 L-75,0 M-65,0 L-50,0 M-40,0 L-25,0 M-15,0 L0,0 M10,0 L25,0 M35,0 L50,0 M60,0 L75,0" 
            fill="none" stroke="#5AC8FA" stroke-width="1.5" stroke-opacity="0.6">
        <animate attributeName="stroke-opacity" values="0.6;0.3;0.6" dur="4s" repeatCount="indefinite" />
      </path>
      <path d="M-90,10 L-80,10 M-70,10 L-60,10 M-50,10 L-40,10 M-30,10 L-20,10 M-10,10 L0,10 M10,10 L20,10 M30,10 L40,10 M50,10 L60,10 M70,10 L80,10" 
            fill="none" stroke="#5AC8FA" stroke-width="1.5" stroke-opacity="0.7">
        <animate attributeName="stroke-opacity" values="0.7;0.2;0.7" dur="5s" repeatCount="indefinite" />
      </path>
    </g>
    
    <!-- Floating Personal Artifacts (Developer Style) -->
    <g>
      <!-- Code Editor -->
      <g transform="translate(-60, -30) rotate(-10)">
        <rect x="-30" y="-40" width="60" height="80" rx="2" fill="#131A36" opacity="0.9" />
        <rect x="-28" y="-38" width="56" height="10" rx="1" fill="#331F4A" opacity="0.9" />
        <rect x="-28" y="-26" width="56" height="66" rx="1" fill="#0D0D15" opacity="0.8" />
        
        <text x="-25" y="-20" font-family="'SF Mono', monospace" font-size="4" fill="#5AC8FA">
          import SwiftUI
        </text>
        <text x="-25" y="-13" font-family="'SF Mono', monospace" font-size="4" fill="#5AC8FA">
          import CoreML
        </text>
        <text x="-25" y="-6" font-family="'SF Mono', monospace" font-size="4" fill="#FFFFFF">
          struct GameView: View {
        </text>
        <text x="-25" y="1" font-family="'SF Mono', monospace" font-size="4" fill="#FFFFFF">
            @State private var score = 0
        </text>
        <text x="-25" y="8" font-family="'SF Mono', monospace" font-size="4" fill="#FFFFFF">
            var body: some View {
        </text>
        <text x="-25" y="15" font-family="'SF Mono', monospace" font-size="4" fill="#BF4080">
                VStack {
        </text>
        <text x="-25" y="22" font-family="'SF Mono', monospace" font-size="4" fill="#FFFFFF">
                    Text("Score: \(score)")
        </text>
        <text x="-25" y="29" font-family="'SF Mono', monospace" font-size="4" fill="#BF4080">
                }
        </text>
        <text x="-25" y="36" font-family="'SF Mono', monospace" font-size="4" fill="#FFFFFF">
            }
        </text>
        <text x="-25" y="43" font-family="'SF Mono', monospace" font-size="4" fill="#FFFFFF">
          }
        </text>
        
        <!-- Floating Effect -->
        <animateTransform attributeName="transform" type="translate" 
                          values="-60,-30; -58,-32; -60,-30" 
                          dur="4s" repeatCount="indefinite" additive="sum" />
      </g>
      
      <!-- API Integration Diagram -->
      <g transform="translate(30, -40) rotate(5)">
        <rect x="-25" y="-30" width="50" height="60" rx="2" fill="#331F4A" opacity="0.9" />
        
        <!-- API Flow Diagram -->
        <rect x="-15" y="-20" width="30" height="12" rx="2" fill="#0D0D15" opacity="0.8" />
        <text x="0" y="-13" font-family="'SF Pro Text', -apple-system, BlinkMacSystemFont, sans-serif" font-size="4" fill="#FFFFFF" text-anchor="middle">Model</text>
        
        <!-- Connection Lines -->
        <line x1="0" y1="-10" x2="0" y2="-5" stroke="#FFFFFF" stroke-width="0.5" opacity="0.8" />
        <line x1="0" y1="5" x2="0" y2="10" stroke="#FFFFFF" stroke-width="0.5" opacity="0.8" />
        
        <!-- Floating Effect -->
        <animateTransform attributeName="transform" type="translate" 
                          values="-20,50; -22,48; -20,50" 
                          dur="3s" repeatCount="indefinite" additive="sum" />
      </g>
    </g>
    
    <!-- Quantum Particle Effects -->
    <g>
      <circle cx="-90" cy="-60" r="1.5" fill="#FFFFFF" opacity="0.7">
        <animate attributeName="opacity" values="0.7;0.2;0.7" dur="3.2s" repeatCount="indefinite" />
      </circle>
      <circle cx="70" cy="-100" r="1.2" fill="#FFFFFF" opacity="0.6">
        <animate attributeName="opacity" values="0.6;0.2;0.6" dur="4.2s" repeatCount="indefinite" />
      </circle>
      <circle cx="105" cy="10" r="1.8" fill="#FFFFFF" opacity="0.8">
        <animate attributeName="opacity" values="0.8;0.4;0.8" dur="5.2s" repeatCount="indefinite" />
      </circle>
      <circle cx="-100" cy="80" r="1.3" fill="#FFFFFF" opacity="0.5">
        <animate attributeName="opacity" values="0.5;0.1;0.5" dur="3.8s" repeatCount="indefinite" />
      </circle>
      <circle cx="10" cy="95" r="1.6" fill="#FFFFFF" opacity="0.7">
        <animate attributeName="opacity" values="0.7;0.3;0.7" dur="4.8s" repeatCount="indefinite" />
      </circle>
    </g>
    
    <!-- Space Label -->
    <text x="0" y="-140" font-family="'SF Pro Display', -apple-system, BlinkMacSystemFont, sans-serif" font-size="16" font-weight="bold" fill="#FFFFFF" text-anchor="middle">Logan's Development Workshop</text>
  </g>
  
  <!-- Transition Zone Between Ordered and Creative Chaos -->
  <g transform="translate(750, 270)">
    <!-- Energy Bridge -->
    <path d="M-200,0 C-150,-50 -100,50 -50,-30 C0,50 50,-50 100,30 C150,-30 200,0 200,0" 
          fill="none" stroke="#6A3093" stroke-width="3" stroke-opacity="0.3">
      <animate attributeName="stroke-opacity" values="0.3;0.5;0.3" dur="5s" repeatCount="indefinite" />
    </path>
    
    <!-- Transition Particles -->
    <g>
      <circle cx="-180" cy="0" r="2" fill="#FFFFFF" opacity="0.6">
        <animate attributeName="cx" values="-180;180" dur="8s" repeatCount="indefinite" />
        <animate attributeName="opacity" values="0.6;0.8;0.6" dur="8s" repeatCount="indefinite" />
      </circle>
      <circle cx="-150" cy="0" r="1.5" fill="#FFFFFF" opacity="0.5">
        <animate attributeName="cx" values="-150;150" dur="10s" repeatCount="indefinite" />
        <animate attributeName="opacity" values="0.5;0.7;0.5" dur="10s" repeatCount="indefinite" />
      </circle>
      <circle cx="-120" cy="0" r="1.2" fill="#FFFFFF" opacity="0.4">
        <animate attributeName="cx" values="-120;120" dur="7s" repeatCount="indefinite" />
        <animate attributeName="opacity" values="0.4;0.6;0.4" dur="7s" repeatCount="indefinite" />
      </circle>
      <circle cx="-90" cy="0" r="1.8" fill="#FFFFFF" opacity="0.7">
        <animate attributeName="cx" values="-90;90" dur="9s" repeatCount="indefinite" />
        <animate attributeName="opacity" values="0.7;0.9;0.7" dur="9s" repeatCount="indefinite" />
      </circle>
      <circle cx="-60" cy="0" r="1.3" fill="#FFFFFF" opacity="0.5">
        <animate attributeName="cx" values="-60;60" dur="6s" repeatCount="indefinite" />
        <animate attributeName="opacity" values="0.5;0.7;0.5" dur="6s" repeatCount="indefinite" />
      </circle>
      <circle cx="-30" cy="0" r="1.6" fill="#FFFFFF" opacity="0.6">
        <animate attributeName="cx" values="-30;30" dur="5s" repeatCount="indefinite" />
        <animate attributeName="opacity" values="0.6;0.8;0.6" dur="5s" repeatCount="indefinite" />
      </circle>
    </g>
    
    <!-- Chaos/Order Interface -->
    <g opacity="0.7">
      <!-- Left Side (Ordered) -->
      <rect x="-30" y="-60" width="4" height="4" fill="#5AC8FA" opacity="0.8" />
      <rect x="-40" y="-40" width="4" height="4" fill="#5AC8FA" opacity="0.8" />
      <rect x="-50" y="-20" width="4" height="4" fill="#5AC8FA" opacity="0.8" />
      <rect x="-40" y="0" width="4" height="4" fill="#5AC8FA" opacity="0.8" />
      <rect x="-30" y="20" width="4" height="4" fill="#5AC8FA" opacity="0.8" />
      <rect x="-50" y="40" width="4" height="4" fill="#5AC8FA" opacity="0.8" />
      
      <!-- Right Side (Creative Chaos) -->
      <circle cx="30" cy="-50" r="2" fill="#BF4080" opacity="0.8" />
      <circle cx="50" cy="-30" r="2" fill="#BF4080" opacity="0.8" />
      <circle cx="35" cy="-10" r="2" fill="#BF4080" opacity="0.8" />
      <circle cx="45" cy="10" r="2" fill="#BF4080" opacity="0.8" />
      <circle cx="30" cy="30" r="2" fill="#BF4080" opacity="0.8" />
      <circle cx="50" cy="50" r="2" fill="#BF4080" opacity="0.8" />
    </g>
    
    <!-- Transition Label -->
    <text x="0" y="100" font-family="'SF Pro Display', -apple-system, BlinkMacSystemFont, sans-serif" font-size="14" fill="#FFFFFF" text-anchor="middle">Quantum Transition Interface</text>
  </g>
  
  <!-- Feature Panel at Bottom -->
  <g transform="translate(750, 450)">
    <rect x="-700" y="-30" width="1400" height="60" rx="10" fill="#131A36" opacity="0.8" />
    
    <!-- Key Features -->
    <text x="-520" y="0" font-family="'SF Pro Display', -apple-system, BlinkMacSystemFont, sans-serif" font-size="16" fill="#FFFFFF" text-anchor="middle">Protective Geometries</text>
    <text x="-520" y="20" font-family="'SF Pro Text', -apple-system, BlinkMacSystemFont, sans-serif" font-size="12" fill="#5AC8FA" text-anchor="middle">Shields from madness spirits</text>
    
    <text x="-175" y="0" font-family="'SF Pro Display', -apple-system, BlinkMacSystemFont, sans-serif" font-size="16" fill="#FFFFFF" text-anchor="middle">Personal Energy Signatures</text>
    <text x="-175" y="20" font-family="'SF Pro Text', -apple-system, BlinkMacSystemFont, sans-serif" font-size="12" fill="#5AC8FA" text-anchor="middle">Unique to each team member</text>
    
    <text x="175" y="0" font-family="'SF Pro Display', -apple-system, BlinkMacSystemFont, sans-serif" font-size="16" fill="#FFFFFF" text-anchor="middle">Artifact Sanctuaries</text>
    <text x="175" y="20" font-family="'SF Pro Text', -apple-system, BlinkMacSystemFont, sans-serif" font-size="12" fill="#5AC8FA" text-anchor="middle">Personalized tool collections</text>
    
    <text x="520" y="0" font-family="'SF Pro Display', -apple-system, BlinkMacSystemFont, sans-serif" font-size="16" fill="#FFFFFF" text-anchor="middle">Quantum Transitions</text>
    <text x="520" y="20" font-family="'SF Pro Text', -apple-system, BlinkMacSystemFont, sans-serif" font-size="12" fill="#5AC8FA" text-anchor="middle">Order to creative chaos bridges</text>
  </g>
        <g>
        <rect x="-15" y="10" width="30" height="12" rx="2" fill="#0D0D15" opacity="0.8" />
        <text x="0" y="17" font-family="'SF Pro Text', -apple-system, BlinkMacSystemFont, sans-serif" font-size="4" fill="#FFFFFF" text-anchor="middle">Swift App</text>
        
        <path d="M0,-8 L0,10" fill="none" stroke="#5AC8FA" stroke-width="1" stroke-dasharray="2,1" />
        <polygon points="0,10 -2,6 2,6" fill="#5AC8FA" />
        
        <!-- Floating Effect -->
        <animateTransform attributeName="transform" type="translate" 
                          values="30,-40; 32,-38; 30,-40" 
                          dur="3.5s" repeatCount="indefinite" additive="sum" />
      </g>
      
      <!-- M4 Optimization Chart -->
      <g transform="translate(70, 20) rotate(-5)">
        <rect x="-25" y="-30" width="50" height="60" rx="2" fill="#331F4A" opacity="0.9" />
        
        <!-- Chart Background -->
        <rect x="-20" y="-25" width="40" height="50" rx="1" fill="#0D0D15" opacity="0.8" />
        
        <!-- Chart Title -->
        <text x="0" y="-18" font-family="'SF Pro Text', -apple-system, BlinkMacSystemFont, sans-serif" font-size="5" fill="#FFFFFF" text-anchor="middle">M4 Performance</text>
        
        <!-- Chart Bars -->
        <rect x="-18" y="-10" width="8" height="30" rx="1" fill="#331F4A" opacity="0.9" />
        <rect x="-18" y="5" width="8" height="15" rx="1" fill="#5AC8FA" opacity="0.9" />
        
        <rect x="-5" y="-10" width="8" height="30" rx="1" fill="#331F4A" opacity="0.9" />
        <rect x="-5" y="-5" width="8" height="25" rx="1" fill="#5AC8FA" opacity="0.9" />
        
        <rect x="8" y="-10" width="8" height="30" rx="1" fill="#331F4A" opacity="0.9" />
        <rect x="8" y="0" width="8" height="20" rx="1" fill="#5AC8FA" opacity="0.9" />
        
        <!-- Chart Legend -->
        <rect x="-15" y="-25" width="30" height="4" rx="1" fill="#126D71" opacity="0.8" />
        
        <!-- Floating Effect -->
        <animateTransform attributeName="transform" type="translate" 
                          values="70,20; 68,22; 70,20" 
                          dur="4.5s" repeatCount="indefinite" additive="sum" />
      </g>
      
      <!-- Swift Diagram -->
      <g transform="translate(-20, 50) rotate(8)">
        <rect x="-25" y="-30" width="50" height="60" rx="2" fill="#331F4A" opacity="0.9" />
        <rect x="-20" y="-25" width="40" height="50" rx="1" fill="#0D0D15" opacity="0.8" />
        
        <!-- Swift Architecture Diagram -->
        <rect x="-15" y="-20" width="30" height="10" rx="2" fill="#BF4080" opacity="0.6" />
        <text x="0" y="-14" font-family="'SF Pro Text', -apple-system, BlinkMacSystemFont, sans-serif" font-size="4" fill="#FFFFFF" text-anchor="middle">View</text>
        
        <rect x="-15" y="-5" width="30" height="10" rx="2" fill="#5AC8FA" opacity="0.6" />
        <text x="0" y="1" font-family="'SF Pro Text', -apple-system, BlinkMacSystemFont, sans-serif" font-size="4" fill="#FFFFFF" text-anchor="middle">ViewModel</text>
        
        <rect x="-15" y="10" width="30" height="10" rx="2" fill="#6A3093" opacity="0.6" />
        <text x="0" y="16" font-family="'SF Pro Text', -apple-system, BlinkMacSystemFont, sans-serif" font-size="5" fill="#FFFFFF" text-anchor="middle">M4 Performance</text>
      </g>
    </svg> 