<svg width="24" height="24" viewBox="0 0 24 24" fill="none" xmlns="http://www.w3.org/2000/svg">
<path d="M14.4 6C14.4 7.54667 13.1467 8.8 11.6 8.8H9.6C8.71634 8.8 8 9.51634 8 10.4V14.8C8 15.9046 8.89543 16.8 10 16.8H10.8C11.9046 16.8 12.8 17.6954 12.8 18.8V21.2M9.6 3.2C9.6 4.52548 10.6745 5.6 12 5.6C13.3255 5.6 14.4 4.52548 14.4 3.2M17.6 6C17.6 4.67452 18.6745 3.6 20 3.6C21.3255 3.6 22.4 4.67452 22.4 6V10C22.4 11.5464 21.1464 12.8 19.6 12.8V16.4C19.6 19.0509 17.4509 21.2 14.8 21.2H12.8" stroke="white" stroke-opacity="0.9" stroke-width="1.5" stroke-linecap="round" stroke-linejoin="round"/>
</svg>
