<svg width="73" height="86" viewBox="0 0 73 86" fill="none" xmlns="http://www.w3.org/2000/svg">
<g opacity="0.4">
<path d="M36.495 4.085L68.905 27.415V58.525L36.495 81.855L4.085 58.525V27.415L36.495 4.085Z" stroke="white" stroke-width="3.89"/>
</g>
<path d="M36.495 4.085L68.905 27.415V58.525L36.495 81.855L4.085 58.525V27.415L36.495 4.085Z" stroke="white" stroke-width="0.97"/>
<path d="M36.495 4.085V42.975" stroke="white" stroke-width="0.65" stroke-dasharray="0.65 0.65"/>
<path d="M68.905 58.535L36.495 42.975" stroke="white" stroke-width="0.65" stroke-dasharray="0.65 0.65"/>
<path d="M36.495 81.865V42.975" stroke="white" stroke-width="0.65" stroke-dasharray="0.65 0.65"/>
<path d="M4.085 58.535L36.495 42.975" stroke="white" stroke-width="0.65" stroke-dasharray="0.65 0.65"/>
<path d="M68.905 31.305C71.0534 31.305 72.795 29.5634 72.795 27.415C72.795 25.2666 71.0534 23.525 68.905 23.525C66.7566 23.525 65.015 25.2666 65.015 27.415C65.015 29.5634 66.7566 31.305 68.905 31.305Z" stroke="white" stroke-width="0.39" stroke-miterlimit="10"/>
<path d="M4.085 31.305C6.23339 31.305 7.975 29.5634 7.975 27.415C7.975 25.2666 6.23339 23.525 4.085 23.525C1.93661 23.525 0.195 25.2666 0.195 27.415C0.195 29.5634 1.93661 31.305 4.085 31.305Z" stroke="white" stroke-width="0.39" stroke-miterlimit="10"/>
<path d="M36.495 7.975C38.6434 7.975 40.385 6.23339 40.385 4.085C40.385 1.93661 38.6434 0.195 36.495 0.195C34.3466 0.195 32.605 1.93661 32.605 4.085C32.605 6.23339 34.3466 7.975 36.495 7.975Z" stroke="white" stroke-width="0.39" stroke-miterlimit="10"/>
<path d="M68.905 62.425C71.0534 62.425 72.795 60.6834 72.795 58.535C72.795 56.3866 71.0534 54.645 68.905 54.645C66.7566 54.645 65.015 56.3866 65.015 58.535C65.015 60.6834 66.7566 62.425 68.905 62.425Z" stroke="white" stroke-width="0.39" stroke-miterlimit="10"/>
<path d="M36.495 85.755C38.6434 85.755 40.385 84.0134 40.385 81.865C40.385 79.7166 38.6434 77.975 36.495 77.975C34.3466 77.975 32.605 79.7166 32.605 81.865C32.605 84.0134 34.3466 85.755 36.495 85.755Z" stroke="white" stroke-width="0.39" stroke-miterlimit="10"/>
<path d="M4.085 62.425C6.23339 62.425 7.975 60.6834 7.975 58.535C7.975 56.3866 6.23339 54.645 4.085 54.645C1.93661 54.645 0.195 56.3866 0.195 58.535C0.195 60.6834 1.93661 62.425 4.085 62.425Z" stroke="white" stroke-width="0.39" stroke-miterlimit="10"/>
<path d="M68.905 27.415L36.495 42.975" stroke="white" stroke-width="0.65" stroke-dasharray="0.65 0.65"/>
<path d="M4.085 27.415L36.495 42.975" stroke="white" stroke-width="0.65" stroke-dasharray="0.65 0.65"/>
<path opacity="0.7" d="M36.495 49.455C40.0738 49.455 42.975 46.5538 42.975 42.975C42.975 39.3962 40.0738 36.495 36.495 36.495C32.9162 36.495 30.015 39.3962 30.015 42.975C30.015 46.5538 32.9162 49.455 36.495 49.455Z" fill="white"/>
</svg>
