<svg width="62" height="80" viewBox="0 0 62 80" fill="none" xmlns="http://www.w3.org/2000/svg">
<g clip-path="url(#clip0_121620_818)">
<path d="M45.0586 18.1055C39.4043 18.1055 34.834 21.5332 31.875 21.5332C28.7402 21.5332 24.6387 18.1055 19.7168 18.1055C10.4004 18.1055 0.9375 26.0156 0.9375 40.5469C0.9375 49.6289 4.42383 59.1797 8.75977 65.332C12.4805 70.5469 15.7031 74.7656 20.3906 74.7656C25.0195 74.7656 27.041 71.7773 32.7832 71.7773C38.6426 71.7773 39.9316 74.7656 45.0586 74.7656C50.127 74.7656 53.4961 70.1367 56.6895 65.5371C60.2637 60.293 61.7578 55.166 61.7871 54.9316C61.4941 54.8145 51.7969 50.8594 51.7969 39.7852C51.7969 30.1758 59.4434 25.8691 59.8535 25.5469C54.8438 18.3105 47.168 18.1055 45.0586 18.1055ZM42.3926 11.9824C44.707 9.16992 46.3477 5.36133 46.3477 1.49414C46.3477 0.966797 46.3184 0.439453 46.2012 0C42.4512 0.146484 37.9102 2.51953 35.2148 5.71289C33.0762 8.11523 31.1133 11.9824 31.1133 15.8496C31.1133 16.4062 31.2012 16.9922 31.2598 17.1973C31.4941 17.2266 31.875 17.2852 32.2559 17.2852C35.6543 17.2852 39.9023 15.0293 42.3926 11.9824Z" fill="white" fill-opacity="0.85"/>
</g>
<defs>
<clipPath id="clip0_121620_818">
<rect width="61.7871" height="79.0137" fill="white"/>
</clipPath>
</defs>
</svg>
