<svg width="75" height="89" viewBox="0 0 75 89" fill="none" xmlns="http://www.w3.org/2000/svg">
<g clip-path="url(#clip0_119712_3372)">
<g opacity="0.4">
<path d="M37.4902 4.20001L70.7902 28.18V60.15L37.4902 84.13L4.2002 60.14V28.17L37.4902 4.20001Z" stroke="#613FE7" stroke-width="4"/>
</g>
<path d="M37.4902 4.20001L70.7902 28.18V60.15L37.4902 84.13L4.2002 60.14V28.17L37.4902 4.20001Z" fill="#613FE7"/>
<path opacity="0.5" d="M37.4899 55.49C43.7528 55.49 48.8299 50.4129 48.8299 44.15C48.8299 37.8871 43.7528 32.81 37.4899 32.81C31.227 32.81 26.1499 37.8871 26.1499 44.15C26.1499 50.4129 31.227 55.49 37.4899 55.49Z" fill="#FF6B6B" stroke="#5AC8FA" stroke-width="0.5" stroke-miterlimit="10"/>
<path d="M37.4902 4.20001L70.7902 28.18V60.15L37.4902 84.13L4.2002 60.14V28.17L37.4902 4.20001Z" fill="url(#paint0_radial_119712_3372)"/>
<path d="M37.4902 4.20001L70.7902 28.18V60.15L37.4902 84.13L4.2002 60.14V28.17L37.4902 4.20001Z" stroke="#613FE7"/>
<path d="M37.4902 4.20001V44.15" stroke="#5AC8FA" stroke-width="0.67" stroke-dasharray="0.67 1.33"/>
<path d="M70.7902 60.14L37.4902 44.15" stroke="#5AC8FA" stroke-width="0.67" stroke-dasharray="0.67 1.33"/>
<path d="M37.4902 84.11V44.15" stroke="#5AC8FA" stroke-width="0.67" stroke-dasharray="0.67 1.33"/>
<path d="M4.2002 60.14L37.4902 44.15" stroke="#5AC8FA" stroke-width="0.67" stroke-dasharray="0.67 1.33"/>
<path d="M70.79 32.17C72.9992 32.17 74.79 30.3791 74.79 28.17C74.79 25.9608 72.9992 24.17 70.79 24.17C68.5809 24.17 66.79 25.9608 66.79 28.17C66.79 30.3791 68.5809 32.17 70.79 32.17Z" fill="#613FE7"/>
<path d="M4.2002 32.17C6.40933 32.17 8.2002 30.3791 8.2002 28.17C8.2002 25.9608 6.40933 24.17 4.2002 24.17C1.99106 24.17 0.200195 25.9608 0.200195 28.17C0.200195 30.3791 1.99106 32.17 4.2002 32.17Z" fill="#613FE7"/>
<path d="M37.4902 8.20001C39.6994 8.20001 41.4902 6.40915 41.4902 4.20001C41.4902 1.99087 39.6994 0.200012 37.4902 0.200012C35.2811 0.200012 33.4902 1.99087 33.4902 4.20001C33.4902 6.40915 35.2811 8.20001 37.4902 8.20001Z" fill="#613FE7"/>
<path d="M70.79 64.14C72.9992 64.14 74.79 62.3492 74.79 60.14C74.79 57.9309 72.9992 56.14 70.79 56.14C68.5809 56.14 66.79 57.9309 66.79 60.14C66.79 62.3492 68.5809 64.14 70.79 64.14Z" fill="#613FE7"/>
<path d="M37.4902 88.11C39.6994 88.11 41.4902 86.3191 41.4902 84.11C41.4902 81.9008 39.6994 80.11 37.4902 80.11C35.2811 80.11 33.4902 81.9008 33.4902 84.11C33.4902 86.3191 35.2811 88.11 37.4902 88.11Z" fill="#613FE7"/>
<path d="M4.2002 64.14C6.40933 64.14 8.2002 62.3492 8.2002 60.14C8.2002 57.9309 6.40933 56.14 4.2002 56.14C1.99106 56.14 0.200195 57.9309 0.200195 60.14C0.200195 62.3492 1.99106 64.14 4.2002 64.14Z" fill="#613FE7"/>
<path d="M4.2002 28.17L37.4902 44.15" stroke="#613FE7" stroke-width="3" stroke-dasharray="0.67 1.33"/>
<path d="M70.7902 28.17L37.4902 44.15" stroke="#613FE7" stroke-width="3" stroke-dasharray="0.67 1.33"/>
<path d="M4.2002 28.17L37.4902 44.15" stroke="#5AC8FA" stroke-width="0.67" stroke-dasharray="0.67 1.33"/>
<path d="M70.7902 28.17L37.4902 44.15" stroke="#5AC8FA" stroke-width="0.67" stroke-dasharray="0.67 1.33"/>
<path opacity="0.7" d="M37.4901 50.81C41.1683 50.81 44.1501 47.8282 44.1501 44.15C44.1501 40.4718 41.1683 37.49 37.4901 37.49C33.8119 37.49 30.8301 40.4718 30.8301 44.15C30.8301 47.8282 33.8119 50.81 37.4901 50.81Z" fill="#FF2D55"/>
<path d="M37.49 47.18C39.1634 47.18 40.52 45.8234 40.52 44.15C40.52 42.4766 39.1634 41.12 37.49 41.12C35.8165 41.12 34.46 42.4766 34.46 44.15C34.46 45.8234 35.8165 47.18 37.49 47.18Z" fill="url(#paint1_radial_119712_3372)" stroke="#050008" stroke-width="0.3"/>
<path d="M70.79 32.17C72.9992 32.17 74.79 30.3791 74.79 28.17C74.79 25.9608 72.9992 24.17 70.79 24.17C68.5809 24.17 66.79 25.9608 66.79 28.17C66.79 30.3791 68.5809 32.17 70.79 32.17Z" stroke="#5AC8FA" stroke-width="0.4" stroke-miterlimit="10"/>
<path d="M4.2002 32.17C6.40933 32.17 8.2002 30.3791 8.2002 28.17C8.2002 25.9608 6.40933 24.17 4.2002 24.17C1.99106 24.17 0.200195 25.9608 0.200195 28.17C0.200195 30.3791 1.99106 32.17 4.2002 32.17Z" stroke="#5AC8FA" stroke-width="0.4" stroke-miterlimit="10"/>
<path d="M37.4902 8.20001C39.6994 8.20001 41.4902 6.40915 41.4902 4.20001C41.4902 1.99087 39.6994 0.200012 37.4902 0.200012C35.2811 0.200012 33.4902 1.99087 33.4902 4.20001C33.4902 6.40915 35.2811 8.20001 37.4902 8.20001Z" stroke="#5AC8FA" stroke-width="0.4" stroke-miterlimit="10"/>
<path d="M70.79 64.14C72.9992 64.14 74.79 62.3492 74.79 60.14C74.79 57.9309 72.9992 56.14 70.79 56.14C68.5809 56.14 66.79 57.9309 66.79 60.14C66.79 62.3492 68.5809 64.14 70.79 64.14Z" stroke="#5AC8FA" stroke-width="0.4" stroke-miterlimit="10"/>
<path d="M37.4902 88.11C39.6994 88.11 41.4902 86.3191 41.4902 84.11C41.4902 81.9008 39.6994 80.11 37.4902 80.11C35.2811 80.11 33.4902 81.9008 33.4902 84.11C33.4902 86.3191 35.2811 88.11 37.4902 88.11Z" stroke="#5AC8FA" stroke-width="0.4" stroke-miterlimit="10"/>
<path d="M4.2002 64.14C6.40933 64.14 8.2002 62.3492 8.2002 60.14C8.2002 57.9309 6.40933 56.14 4.2002 56.14C1.99106 56.14 0.200195 57.9309 0.200195 60.14C0.200195 62.3492 1.99106 64.14 4.2002 64.14Z" stroke="#5AC8FA" stroke-width="0.4" stroke-miterlimit="10"/>
<path d="M70.79 32.17C72.9992 32.17 74.79 30.3791 74.79 28.17C74.79 25.9608 72.9992 24.17 70.79 24.17C68.5809 24.17 66.79 25.9608 66.79 28.17C66.79 30.3791 68.5809 32.17 70.79 32.17Z" fill="#170D35"/>
<path d="M37.4897 40.65C39.4227 40.65 40.9897 42.217 40.9897 44.15C40.9897 46.083 39.4227 47.65 37.4897 47.65C35.5567 47.65 33.9897 46.083 33.9897 44.15C33.9897 42.217 35.5567 40.65 37.4897 40.65Z" fill="#170D35" stroke="black"/>
<path d="M4.2002 32.17C6.40933 32.17 8.2002 30.3791 8.2002 28.17C8.2002 25.9608 6.40933 24.17 4.2002 24.17C1.99106 24.17 0.200195 25.9608 0.200195 28.17C0.200195 30.3791 1.99106 32.17 4.2002 32.17Z" fill="#170D35"/>
<path d="M37.4902 8.20001C39.6994 8.20001 41.4902 6.40915 41.4902 4.20001C41.4902 1.99087 39.6994 0.200012 37.4902 0.200012C35.2811 0.200012 33.4902 1.99087 33.4902 4.20001C33.4902 6.40915 35.2811 8.20001 37.4902 8.20001Z" fill="url(#paint2_radial_119712_3372)"/>
<path d="M70.79 64.14C72.9992 64.14 74.79 62.3492 74.79 60.14C74.79 57.9309 72.9992 56.14 70.79 56.14C68.5809 56.14 66.79 57.9309 66.79 60.14C66.79 62.3492 68.5809 64.14 70.79 64.14Z" fill="#170D35"/>
<path d="M37.4902 88.11C39.6994 88.11 41.4902 86.3191 41.4902 84.11C41.4902 81.9008 39.6994 80.11 37.4902 80.11C35.2811 80.11 33.4902 81.9008 33.4902 84.11C33.4902 86.3191 35.2811 88.11 37.4902 88.11Z" fill="url(#paint3_radial_119712_3372)"/>
<path d="M4.2002 64.14C6.40933 64.14 8.2002 62.3492 8.2002 60.14C8.2002 57.9309 6.40933 56.14 4.2002 56.14C1.99106 56.14 0.200195 57.9309 0.200195 60.14C0.200195 62.3492 1.99106 64.14 4.2002 64.14Z" fill="#170D35"/>
</g>
<defs>
<radialGradient id="paint0_radial_119712_3372" cx="0" cy="0" r="1" gradientUnits="userSpaceOnUse" gradientTransform="translate(37.4902 44.15) scale(36.78 36.78)">
<stop stop-color="#131A36" stop-opacity="0.2"/>
<stop offset="1" stop-color="#050008" stop-opacity="0.8"/>
</radialGradient>
<radialGradient id="paint1_radial_119712_3372" cx="0" cy="0" r="1" gradientUnits="userSpaceOnUse" gradientTransform="translate(0.499953 44.15) scale(3.03)">
<stop stop-color="#131A36" stop-opacity="0.2"/>
<stop offset="1" stop-color="#050008" stop-opacity="0.8"/>
</radialGradient>
<radialGradient id="paint2_radial_119712_3372" cx="0" cy="0" r="1" gradientUnits="userSpaceOnUse" gradientTransform="translate(0.500233 4.20001) scale(4)">
<stop stop-color="#131A36" stop-opacity="0.2"/>
<stop offset="1" stop-color="#050008" stop-opacity="0.8"/>
</radialGradient>
<radialGradient id="paint3_radial_119712_3372" cx="0" cy="0" r="1" gradientUnits="userSpaceOnUse" gradientTransform="translate(0.500233 84.11) scale(4)">
<stop stop-color="#131A36" stop-opacity="0.2"/>
<stop offset="1" stop-color="#050008" stop-opacity="0.8"/>
</radialGradient>
<clipPath id="clip0_119712_3372">
<rect width="74.99" height="88.31" fill="white"/>
</clipPath>
</defs>
</svg>
