<svg width="24" height="24" viewBox="0 0 24 24" fill="none" xmlns="http://www.w3.org/2000/svg">
<path d="M17.78 11.74L20.86 8.66C21.62 7.9 22 6.9 22 5.9C22 4.9 21.62 3.9 20.86 3.14C19.33 1.62 16.87 1.62 15.34 3.14L11.76 6.73L10.96 7.53L10.25 8.24C9.47998 9 9.09998 10 9.09998 11C9.09998 11.22 9.11997 11.43 9.14997 11.64C9.15997 11.65 9.15998 11.67 9.15998 11.69C9.19998 11.89 9.24997 12.08 9.31997 12.27C9.49997 12.81 9.80998 13.32 10.25 13.75C10.47 13.97 10.71 14.16 10.96 14.31" stroke="#3B39EC" stroke-width="1.5" stroke-miterlimit="10" stroke-linecap="round" stroke-linejoin="round"/>
<path d="M6.22 12.2599L3.14 15.3399C2.38 16.0999 2 17.0999 2 18.0999C2 19.0999 2.38 20.0999 3.14 20.8599C4.67 22.3799 7.13 22.3799 8.66 20.8599L12.24 17.2699L13.04 16.4699L13.75 15.7599C14.52 14.9999 14.9 13.9999 14.9 12.9999C14.9 12.7799 14.88 12.5699 14.85 12.3599C14.84 12.3499 14.84 12.3299 14.84 12.3099C14.8 12.1099 14.75 11.9199 14.68 11.7299C14.5 11.1899 14.19 10.6799 13.75 10.2499C13.53 10.0299 13.29 9.83994 13.04 9.68994" stroke="#3B39EC" stroke-width="1.5" stroke-miterlimit="10" stroke-linecap="round" stroke-linejoin="round"/>
</svg>
