<svg width="24" height="24" viewBox="0 0 24 24" fill="none" xmlns="http://www.w3.org/2000/svg">
<path d="M22.274 9.17109L17.3824 3.05783C17.3678 3.0399 17.3494 3.02542 17.3286 3.01542C17.3078 3.00542 17.285 3.00016 17.2619 3H7.35346C7.30767 3 7.26189 3.02169 7.23298 3.05783L2.34141 9.17109C2.31876 9.19976 2.30684 9.23544 2.30772 9.27196C2.3086 9.30848 2.32222 9.34355 2.34623 9.37109L12.192 20.4434C12.2209 20.4771 12.2643 20.494 12.3077 20.494C12.3511 20.494 12.392 20.4747 12.4233 20.4434L22.2691 9.37109C22.2931 9.34355 22.3068 9.30848 22.3076 9.27196C22.3085 9.23544 22.2966 9.19976 22.274 9.17109ZM15.5173 4.38313L16.3462 7.60964L13.1535 4.38313H15.5173ZM15.7149 8.68434H8.90045L12.3077 5.24097L15.7149 8.68434ZM9.09804 4.38313H11.4619L8.26671 7.60964L9.09804 4.38313ZM7.81129 4.55181L6.74864 8.68434H4.50526L7.81129 4.55181ZM4.65948 9.88916H6.93418L9.96551 15.8578L4.65948 9.88916ZM12.3077 17.8048L8.28599 9.88916H16.327L12.3077 17.8048ZM14.6474 15.8578L17.6812 9.88916H19.9559L14.6474 15.8578ZM17.8667 8.68434L16.8041 4.55181L20.1101 8.68434H17.8667Z" fill="#3B39EC"/>
</svg>
