<svg width="24" height="24" viewBox="0 0 24 24" fill="none" xmlns="http://www.w3.org/2000/svg">
<path d="M22 12.0132C22 10.6883 20.3408 9.43268 17.797 8.65405C18.384 6.06131 18.1231 3.99853 16.9735 3.33811C16.7085 3.1832 16.3987 3.10982 16.0603 3.10982V4.01891C16.2479 4.01891 16.3987 4.0556 16.5251 4.1249C17.0795 4.44288 17.32 5.65364 17.1325 7.21092C17.0876 7.59412 17.0143 7.99771 16.9246 8.40945C16.1256 8.21377 15.2532 8.06293 14.3359 7.96509C13.7856 7.21092 13.2148 6.52604 12.64 5.92678C13.969 4.69156 15.2165 4.01483 16.0644 4.01483V3.10574C14.9433 3.10574 13.4757 3.90476 11.9918 5.29082C10.5079 3.91292 9.04036 3.12205 7.91928 3.12205V4.03114C8.76315 4.03114 10.0147 4.70379 11.3437 5.93085C10.7729 6.53012 10.2022 7.21092 9.66001 7.96509C8.73869 8.06293 7.86629 8.21377 7.06727 8.41352C6.9735 8.00586 6.9042 7.61043 6.85528 7.2313C6.66368 5.67402 6.90012 4.46326 7.45047 4.14121C7.57277 4.06783 7.73176 4.03522 7.91928 4.03522V3.12613C7.57684 3.12613 7.26702 3.19951 6.99796 3.35442C5.85243 4.01483 5.5956 6.07353 6.18671 8.65812C3.65104 9.44084 2 10.6924 2 12.0132C2 13.3381 3.65919 14.5937 6.20302 15.3723C5.61598 17.9651 5.87689 20.0279 7.0265 20.6883C7.29148 20.8432 7.60131 20.9166 7.94374 20.9166C9.06482 20.9166 10.5324 20.1175 12.0163 18.7315C13.5002 20.1094 14.9678 20.9003 16.0889 20.9003C16.4313 20.9003 16.7411 20.8269 17.0102 20.672C18.1557 20.0116 18.4126 17.9529 17.8214 15.3683C20.349 14.5896 22 13.334 22 12.0132ZM16.6922 9.29408C16.5414 9.81996 16.3539 10.3622 16.1419 10.9043C15.9747 10.5782 15.7994 10.2521 15.6078 9.92596C15.4203 9.59983 15.2205 9.28185 15.0208 8.97202C15.5997 9.05763 16.1582 9.16363 16.6922 9.29408ZM14.8251 13.6357C14.5071 14.186 14.181 14.7079 13.8426 15.193C13.2352 15.246 12.6196 15.2745 12 15.2745C11.3844 15.2745 10.7689 15.246 10.1655 15.197C9.82715 14.7119 9.49694 14.1942 9.17896 13.6479C8.86914 13.1139 8.58785 12.5717 8.33102 12.0254C8.58378 11.4792 8.86914 10.9329 9.17489 10.3988C9.49287 9.8485 9.819 9.32669 10.1574 8.84157C10.7648 8.78858 11.3804 8.76004 12 8.76004C12.6156 8.76004 13.2311 8.78858 13.8345 8.8375C14.1728 9.32262 14.5031 9.84035 14.821 10.3866C15.1309 10.9207 15.4121 11.4628 15.669 12.0091C15.4121 12.5554 15.1309 13.1017 14.8251 13.6357ZM16.1419 13.1057C16.362 13.652 16.5495 14.1983 16.7044 14.7282C16.1704 14.8587 15.6078 14.9688 15.0249 15.0544C15.2246 14.7405 15.4244 14.4184 15.6119 14.0882C15.7994 13.7621 15.9747 13.4319 16.1419 13.1057ZM12.0082 17.4555C11.629 17.0641 11.2499 16.6279 10.8748 16.151C11.2417 16.1673 11.6168 16.1795 11.9959 16.1795C12.3791 16.1795 12.7583 16.1714 13.1292 16.151C12.7623 16.6279 12.3832 17.0641 12.0082 17.4555ZM8.97513 15.0544C8.39625 14.9688 7.83775 14.8628 7.30371 14.7323C7.45455 14.2064 7.64207 13.6642 7.85406 13.122C8.0212 13.4482 8.19649 13.7743 8.3881 14.1004C8.5797 14.4266 8.77538 14.7445 8.97513 15.0544ZM11.9878 6.57088C12.3669 6.96224 12.746 7.39844 13.1211 7.87541C12.7542 7.8591 12.3791 7.84687 12 7.84687C11.6168 7.84687 11.2377 7.85503 10.8667 7.87541C11.2336 7.39844 11.6127 6.96224 11.9878 6.57088ZM8.97106 8.97202C8.7713 9.28592 8.57155 9.60798 8.38402 9.93819C8.19649 10.2643 8.0212 10.5904 7.85406 10.9166C7.63392 10.3703 7.44639 9.82404 7.29148 9.29408C7.82552 9.1677 8.3881 9.05763 8.97106 8.97202ZM5.2817 14.076C3.83857 13.4604 2.90501 12.6532 2.90501 12.0132C2.90501 11.3732 3.83857 10.5619 5.2817 9.95042C5.63229 9.79958 6.01549 9.66505 6.41093 9.53868C6.64329 10.3377 6.94904 11.1693 7.32817 12.0213C6.95312 12.8693 6.65145 13.6968 6.42316 14.4918C6.01957 14.3654 5.63636 14.2268 5.2817 14.076ZM7.47493 19.9015C6.92051 19.5835 6.67998 18.3727 6.86751 16.8155C6.91235 16.4323 6.98573 16.0287 7.07542 15.6169C7.87444 15.8126 8.74684 15.9635 9.66409 16.0613C10.2144 16.8155 10.7852 17.5003 11.36 18.0996C10.031 19.3348 8.78353 20.0116 7.93559 20.0116C7.75214 20.0075 7.59723 19.9708 7.47493 19.9015ZM17.1447 16.7951C17.3363 18.3524 17.0999 19.5631 16.5495 19.8852C16.4272 19.9586 16.2682 19.9912 16.0807 19.9912C15.2369 19.9912 13.9853 19.3185 12.6563 18.0915C13.2271 17.4922 13.7978 16.8114 14.34 16.0572C15.2613 15.9594 16.1337 15.8085 16.9327 15.6088C17.0265 16.0205 17.0999 16.416 17.1447 16.7951ZM18.7142 14.076C18.3636 14.2268 17.9804 14.3613 17.585 14.4877C17.3526 13.6887 17.0469 12.8571 16.6678 12.005C17.0428 11.1571 17.3445 10.3295 17.5728 9.5346C17.9764 9.66098 18.3596 9.79958 18.7183 9.95042C20.1614 10.566 21.095 11.3732 21.095 12.0132C21.0909 12.6532 20.1574 13.4645 18.7142 14.076Z" fill="#3B39EC"/>
<path d="M11.9958 13.8762C13.0248 13.8762 13.8589 13.0421 13.8589 12.0132C13.8589 10.9843 13.0248 10.1502 11.9958 10.1502C10.9669 10.1502 10.1328 10.9843 10.1328 12.0132C10.1328 13.0421 10.9669 13.8762 11.9958 13.8762Z" fill="#3B39EC"/>
</svg>
