<svg width="24" height="24" viewBox="0 0 24 24" fill="none" xmlns="http://www.w3.org/2000/svg">
<path d="M19.34 22H4.66003C3.19003 22 2.00003 20.81 2.00003 19.34V4.66C2.00003 3.19 3.19003 2 4.66003 2H19.33C20.81 2 22 3.19 22 4.66V19.33C22 20.81 20.81 22 19.34 22Z" stroke="#3B39EC" stroke-width="1.5" stroke-miterlimit="10" stroke-linecap="round" stroke-linejoin="round"/>
<path d="M16 12C16 14.21 14.21 16 12 16C9.79003 16 8.00003 14.21 8.00003 12C8.00003 9.79 9.79003 8 12 8C14.21 8 16 9.79 16 12Z" stroke="#3B39EC" stroke-width="1.5" stroke-miterlimit="10" stroke-linecap="round" stroke-linejoin="round"/>
<path d="M19 5.5C19 5.78 18.78 6 18.5 6C18.22 6 18 5.78 18 5.5C18 5.22 18.22 5 18.5 5C18.78 5 19 5.22 19 5.5Z" stroke="#3B39EC" stroke-width="1.5" stroke-miterlimit="10" stroke-linecap="round" stroke-linejoin="round"/>
</svg>
