<svg width="24" height="24" viewBox="0 0 24 24" fill="none" xmlns="http://www.w3.org/2000/svg">
<path d="M16.7011 19.353C14.3453 20.7336 11.106 20.8755 7.84703 19.4585C5.20832 18.3195 3.01887 16.3259 1.61534 14.048C2.28904 14.6174 3.07501 15.0732 3.91711 15.4717C7.28267 17.072 10.6475 16.9624 13.0155 15.4757C13.014 15.4742 13.013 15.4732 13.012 15.4717C9.6435 12.8517 6.7803 9.43432 4.64704 6.6438C4.19772 6.18812 3.86087 5.61854 3.52402 5.10597C6.1065 7.49806 10.205 10.5165 11.6643 11.3712C8.57702 8.06753 5.82589 3.96702 5.93795 4.08071C10.8223 9.09279 15.37 11.9407 15.37 11.9407C15.5205 12.0267 15.6366 12.0984 15.73 12.1624C15.8284 11.9084 15.9147 11.6447 15.9874 11.3712C16.7734 8.46647 15.8753 5.16281 13.9102 2.42914C18.4574 5.21991 21.1525 10.4596 20.0293 14.8454C20 14.9637 19.9682 15.0804 19.9339 15.1952C19.947 15.211 19.9601 15.2274 19.9733 15.2443C22.2186 18.0922 21.6012 21.1106 21.3206 20.5411C20.1025 18.1229 17.8476 18.8624 16.7012 19.353L16.7011 19.353Z" fill="#3B39EC"/>
</svg>
