<svg width="24" height="24" viewBox="0 0 24 24" fill="none" xmlns="http://www.w3.org/2000/svg">
<path d="M18.0779 6.10793C18.0779 7.76479 16.7348 9.10794 15.0779 9.10794H12V3.10794H15.0779C16.7348 3.10794 18.0779 4.45108 18.0779 6.10793Z" stroke="#3B39EC" stroke-width="1.17514"/>
<path d="M5.92207 6.10815C5.92207 7.76501 7.26522 9.10815 8.92208 9.10815H12V3.10815H8.92208C7.26522 3.10815 5.92207 4.4513 5.92207 6.10815Z" stroke="#3B39EC" stroke-width="1.17514"/>
<path d="M5.92208 12.108C5.92208 13.7649 7.26522 15.108 8.92208 15.108H12V9.10803H8.92208C7.26522 9.10803 5.92208 10.4512 5.92208 12.108Z" stroke="#3B39EC" stroke-width="1.17514"/>
<path d="M5.92208 18.1079C5.92208 19.7648 7.28458 21.1079 8.94144 21.1079C10.6198 21.1079 12 19.7473 12 18.069V15.1079H8.92208C7.26522 15.1079 5.92208 16.4511 5.92208 18.1079Z" stroke="#3B39EC" stroke-width="1.17514"/>
<path d="M12 12.108C12 13.7649 13.3432 15.108 15 15.108H15.0779C16.7348 15.108 18.0779 13.7649 18.0779 12.108C18.0779 10.4512 16.7348 9.10803 15.0779 9.10803H15C13.3432 9.10803 12 10.4512 12 12.108Z" stroke="#3B39EC" stroke-width="1.17514"/>
</svg>
