<svg width="142" height="161" viewBox="0 0 142 161" fill="none" xmlns="http://www.w3.org/2000/svg">
<path d="M103.099 40.6642C95.326 40.6642 88.8078 43.6319 81.1311 58.769C66.1844 41.6996 35.8068 23.2611 4.82689 20.9893C1.71424 20.7846 0.352389 22.5039 0.152994 25.1375C-2.22776 57.2366 23.4483 82.0695 58.2227 84.9257C49.9636 104.193 35.3101 125.873 18.6489 141.579C17.1314 142.929 17.0696 144.716 18.3498 146.765C25.3106 157.406 46.9749 163.699 61.9375 158.519C63.748 157.863 64.7113 157.126 64.7113 154.616V128.887C84.164 128.871 111.643 118.678 105.28 84.9792L103.908 77.7723C117.405 74.9997 125.762 67.439 125.762 60.7567C125.762 51.5364 115.874 40.6642 103.099 40.6642ZM103.152 44.5363C114.245 44.5363 121.842 53.216 121.842 60.7567C121.842 65.9402 114.938 71.9763 101.473 74.2581C100.496 74.4212 99.7526 75.234 99.9022 76.2161L101.545 86.0345C106.765 117.607 81.3144 125.649 62.7351 124.995C61.5786 124.915 60.8127 125.736 60.8127 126.796V154.206C60.8127 154.624 60.707 154.928 60.1887 155.063C46.6518 159.563 27.9706 154.091 21.6978 144.761C21.4425 144.35 21.4365 144.111 21.7775 143.786C39.1607 127.489 54.5998 104.173 62.6633 84.4765C63.3792 82.6875 62.7271 81.4096 60.8109 81.3101C26.5072 79.2512 2.33061 56.7558 4.07326 25.6742C4.15899 25.066 4.25072 24.903 4.93266 24.9805C35.3382 27.5245 64.0768 45.1067 78.18 61.3469C79.1672 62.4879 80.2519 63.0227 81.3325 63.0227C82.6686 63.0227 83.7454 62.2851 84.4493 60.8042C91.5476 46.7326 96.1774 44.5363 103.152 44.5363ZM93.9401 43.7253L97.649 42.5863C89.0771 23.2293 77.6238 9.93248 61.0322 0.741938C58.2326 -0.804433 55.7483 0.139699 54.8609 2.89255C51.3556 12.9696 50.1313 25.6424 51.4613 37.5836L55.541 39.0902C54.1153 26.0777 55.1082 14.2279 58.4161 4.73122C58.5797 4.09517 58.9166 3.99778 59.5269 4.36548C75.0736 13.1485 85.7471 25.2965 93.9401 43.7253ZM108.959 60.2677C110.801 60.2677 112.281 58.7573 112.281 56.9207C112.281 55.0841 110.801 53.5956 108.959 53.5956C107.116 53.5956 105.587 55.0841 105.587 56.9207C105.587 58.7573 107.116 60.2677 108.959 60.2677ZM121.925 68.0371L138.398 70.0665C141.201 70.3985 142.148 66.5027 139.353 65.3856L124.615 59.5123L121.925 68.0371Z" fill="#504CF5"/>
</svg>
