<svg width="24" height="24" viewBox="0 0 24 24" fill="none" xmlns="http://www.w3.org/2000/svg">
<g clip-path="url(#clip0_123583_102849)">
<path d="M17.4145 6.00787C16.0983 6.00787 15.0035 6.43965 13.7045 8.67807C11.1803 6.16329 6.04417 3.44276 0.80024 3.10819C0.28318 3.08008 0.0576909 3.31808 0.0263448 3.70916C-0.380819 8.44244 3.97801 12.1058 9.88462 12.5086C8.4784 15.396 5.94304 18.5749 3.14952 20.8672C2.89639 21.0578 2.88122 21.3171 3.09525 21.6169C4.27328 23.1812 7.92733 24.1059 10.4556 23.3451C10.7536 23.2453 10.9116 23.1458 10.9116 22.7781V18.981C14.2013 18.9847 18.845 17.4802 17.7718 12.5244L17.5351 11.4499C19.8238 11.0476 21.234 9.93708 21.234 8.95496C21.234 7.59997 19.5706 6.00787 17.4145 6.00787ZM18.4418 8.87302C18.128 8.87302 17.8719 8.65057 17.8719 8.38009C17.8719 8.10961 18.128 7.89034 18.4418 7.89034C18.7509 7.89034 19.0034 8.10961 19.0034 8.38009C19.0034 8.65057 18.7509 8.87302 18.4418 8.87302ZM20.6084 10.0173L23.3929 10.3161C23.8668 10.365 24.0269 9.79129 23.5544 9.62677L21.0631 8.76178L20.6084 10.0173ZM16.0194 5.411C14.6351 3.01773 12.816 1.32874 10.3036 0.109269C9.83034 -0.118473 9.41038 0.0205742 9.26037 0.426002C8.80569 1.57493 8.58527 2.96152 8.60378 4.34814C10.5382 5.22658 12.2373 6.29413 13.5131 7.37163C14.355 6.24115 15.1791 5.66713 16.0194 5.411Z" fill="#504CF5"/>
</g>
<defs>
<clipPath id="clip0_123583_102849">
<rect width="24" height="24" fill="white"/>
</clipPath>
</defs>
</svg>
