<?xml version="1.0" encoding="UTF-8"?>
<svg xmlns="http://www.w3.org/2000/svg" width="1920" height="1080" xmlns:xlink="http://www.w3.org/1999/xlink" viewBox="0 0 1920 1080">
  <defs>
    <linearGradient id="Spatial_Background_Gradient" data-name="Spatial Background Gradient" x1="10" y1="551.766" x2="1926.363" y2="551.766" gradientUnits="userSpaceOnUse">
      <stop offset="0" stop-color="#0a0621"/>
      <stop offset=".3" stop-color="#131a36"/>
      <stop offset=".7" stop-color="#331f4a"/>
      <stop offset="1" stop-color="#0d0d15"/>
    </linearGradient>
    <linearGradient id="Spatial_Background_Gradient-2" data-name="Spatial Background Gradient" x1="1.152" y1="544.212" x2="1921.152" y2="544.212" xlink:href="#Spatial_Background_Gradient"/>
    <radialGradient id="radial-gradient" cx="960" cy="549.56" fx="960" fy="549.56" r="782.153" gradientTransform="translate(0 -.081) scale(1 .983)" gradientUnits="userSpaceOnUse">
      <stop offset="0" stop-color="#131a36" stop-opacity=".2"/>
      <stop offset="1" stop-color="#050008" stop-opacity=".8"/>
    </radialGradient>
    <radialGradient id="radial-gradient-2" cx="-3349.015" cy="953.288" fx="-3349.015" fy="953.288" r="442.457" gradientTransform="translate(3316.637 -680.011) scale(1.167 1.3)" gradientUnits="userSpaceOnUse">
      <stop offset="0" stop-color="#126d71" stop-opacity="0"/>
      <stop offset=".134" stop-color="#331f4a" stop-opacity="0"/>
      <stop offset=".4" stop-color="#331f4a"/>
      <stop offset=".874" stop-color="#bf4080" stop-opacity=".2"/>
      <stop offset=".983" stop-color="#bf4080" stop-opacity="0"/>
    </radialGradient>
    <radialGradient id="radial-gradient-3" cx="-1580.369" cy="-887.132" fx="-1580.369" fy="-887.132" r="446.612" gradientTransform="translate(2502.825 1287.639) scale(1.167 .938)" gradientUnits="userSpaceOnUse">
      <stop offset="0" stop-color="#bf4080" stop-opacity=".9"/>
      <stop offset=".459" stop-color="#331f4a"/>
      <stop offset=".766" stop-color="#126d71" stop-opacity="0"/>
      <stop offset=".874" stop-color="#bf4080" stop-opacity=".2"/>
    </radialGradient>
    <radialGradient id="radial-gradient-4" cx="-1723.68" cy="1526.996" fx="-1723.68" fy="1526.996" r="442.457" gradientTransform="translate(3458.08 -1426.035) scale(1.167 1.3)" xlink:href="#radial-gradient-2"/>
    <radialGradient id="radial-gradient-5" cy="539.157" fy="539.157" r="779.594" gradientTransform="matrix(1,0,0,1,0,0)" xlink:href="#radial-gradient"/>
    <linearGradient id="Accent_Highlight_Gradient" data-name="Accent Highlight Gradient" x1="944.925" y1="331.557" x2="948.045" y2="331.557" gradientUnits="userSpaceOnUse">
      <stop offset="0" stop-color="#5ac8fa"/>
      <stop offset=".5" stop-color="#126d71"/>
      <stop offset="1" stop-color="#36eae8"/>
    </linearGradient>
    <linearGradient id="Accent_Highlight_Gradient-2" data-name="Accent Highlight Gradient" x1="1071.285" y1="456.357" x2="1102.485" y2="456.357" xlink:href="#Accent_Highlight_Gradient"/>
    <linearGradient id="Accent_Highlight_Gradient-3" data-name="Accent Highlight Gradient" x1="790.485" y1="456.357" x2="821.685" y2="456.357" xlink:href="#Accent_Highlight_Gradient"/>
    <linearGradient id="Accent_Highlight_Gradient-4" data-name="Accent Highlight Gradient" y1="596.757" y2="596.757" xlink:href="#Accent_Highlight_Gradient"/>
    <linearGradient id="Accent_Highlight_Gradient-5" data-name="Accent Highlight Gradient" x1="789.705" y1="503.157" x2="1103.265" y2="503.157" xlink:href="#Accent_Highlight_Gradient"/>
    <linearGradient id="Accent_Highlight_Gradient-6" data-name="Accent Highlight Gradient" x1="602.505" y1="503.157" x2="1290.465" y2="503.157" xlink:href="#Accent_Highlight_Gradient"/>
    <radialGradient id="New_Gradient_Swatch" data-name="New Gradient Swatch" cx="334.985" cy="84.78" fx="334.985" fy="84.78" r="227.389" gradientUnits="userSpaceOnUse">
      <stop offset="0" stop-color="#131a36" stop-opacity=".2"/>
      <stop offset="1" stop-color="#050008" stop-opacity=".8"/>
    </radialGradient>
    <linearGradient id="Accent_Highlight_Gradient-7" data-name="Accent Highlight Gradient" x1="19.625" y1="84.78" x2="650.345" y2="84.78" xlink:href="#Accent_Highlight_Gradient"/>
  </defs>
  <g isolation="isolate">
    <g id="Background_logo_footer" data-name="Background + logo footer">
      <rect x="10" y=".092" width="1916.363" height="1103.346" fill="url(#Spatial_Background_Gradient)"/>
      <rect x="1.152" y="-5.266" width="1920" height="1098.957" fill="url(#Spatial_Background_Gradient-2)"/>
    </g>
    <g id="Depth_Layers" data-name="Depth Layers">
      <rect width="1920" height="1080" fill="url(#radial-gradient)"/>
      <rect x="-1228.736" y="162.291" width="1274.455" height="794.621" transform="translate(-245.882 -177.676) rotate(-21.471)" fill="url(#radial-gradient-2)" mix-blend-mode="color" opacity=".28"/>
      <rect x="15.396" y="166.102" width="1286.421" height="578.637" transform="translate(79.504 -97.582) rotate(9.016)" fill="url(#radial-gradient-3)" mix-blend-mode="color" opacity=".28"/>
      <rect x="809.398" y="162.291" width="1274.455" height="794.621" transform="translate(-104.439 568.348) rotate(-21.471)" fill="url(#radial-gradient-4)" mix-blend-mode="color" opacity=".28"/>
      <rect y="-3" width="1920" height="1084.314" fill="url(#radial-gradient-5)"/>
    </g>
    <g id="Content">
      <g>
        <g>
          <circle cx="946.485" cy="503.157" r="312" fill="none" isolation="isolate" opacity=".8"/>
          <g opacity=".5">
            <rect x="695.325" y="407.997" width="65.52" height="65.52" fill="#331f4a"/>
            <rect x="695.325" y="407.997" width="10.92" height="10.92" fill="#331f4a" isolation="isolate" opacity=".6"/>
            <rect x="717.165" y="407.997" width="10.92" height="10.92" fill="#331f4a" isolation="isolate" opacity=".5"/>
            <rect x="739.005" y="407.997" width="10.92" height="10.92" fill="#331f4a" isolation="isolate" opacity=".7"/>
            <rect x="695.325" y="429.837" width="10.92" height="10.92" fill="#331f4a" isolation="isolate" opacity=".7"/>
            <rect x="749.925" y="418.917" width="10.92" height="10.92" fill="#331f4a" isolation="isolate" opacity=".4"/>
            <rect x="749.925" y="440.757" width="10.92" height="10.92" fill="#331f4a" isolation="isolate" opacity=".5"/>
            <rect x="749.925" y="462.597" width="10.92" height="10.92" fill="#331f4a" isolation="isolate" opacity=".6"/>
            <rect x="728.085" y="462.597" width="10.92" height="10.92" fill="#331f4a" isolation="isolate" opacity=".5"/>
            <rect x="706.245" y="462.597" width="10.92" height="10.92" fill="#331f4a" isolation="isolate" opacity=".4"/>
            <rect x="695.325" y="451.677" width="10.92" height="10.92" fill="#331f4a" isolation="isolate" opacity=".5"/>
            <text transform="translate(683.545 495.357)" fill="#fff" font-family="SF Pro Regular, &apos;SF Pro &apos;" font-size="13.104" isolation="isolate"><tspan x="0" y="0" letter-spacing="-.011em">H</tspan><tspan x="8.308" y="0" letter-spacing="-.005em">e</tspan><tspan x="15.109" y="0" letter-spacing="-.015em">r</tspan><tspan x="20.547" y="0" letter-spacing="-.006em">it</tspan><tspan x="27.178" y="0" letter-spacing="-.002em">a</tspan><tspan x="33.716" y="0" letter-spacing="-.005em">g</tspan><tspan x="40.857" y="0" letter-spacing="0em">e </tspan><tspan x="50.148" y="0" letter-spacing="-.015em">S</tspan><tspan x="57.67" y="0" letter-spacing="-.006em">t</tspan><tspan x="62.06" y="0" letter-spacing="-.008em">a</tspan><tspan x="68.52" y="0" letter-spacing="-.022em">t</tspan><tspan x="72.7" y="0">e</tspan></text>
          </g>
          <g>
            <g>
              <path d="M946.485,596.757l-124.8-62.4,124.8-62.4,124.8,62.4-124.8,62.4Z" fill="#331f4a"/>
              <path d="M821.685,534.357v-124.8l124.8-62.4v124.8l-124.8,62.4Z" fill="#40275a"/>
              <path d="M1071.285,534.357v-124.8l-124.8-62.4v124.8l124.8,62.4Z" fill="#6a3093"/>
              <path d="M946.485,549.957l-62.4-31.2v-78l62.4-31.2,62.4,31.2v78l-62.4,31.2Z" fill="#bf4080" isolation="isolate" opacity=".6"/>
            </g>
            <g>
              <path d="M946.485,331.557l-23.4-12.48,23.4-12.48,23.4,12.48-23.4,12.48Z" fill="#6a3093"/>
              <path d="M923.085,319.077v-18.72l23.4-12.48v18.72l-23.4,12.48Z" fill="#40275a"/>
              <path d="M969.885,319.077v-18.72l-23.4-12.48v18.72l23.4,12.48Z" fill="#6a3093"/>
              <path d="M946.485,315.957v31.2" isolation="isolate" opacity=".6" stroke="url(#Accent_Highlight_Gradient)" stroke-width="3.12"/>
            </g>
            <g>
              <path d="M1102.485,471.957l-23.4-12.48,23.4-12.48,23.4,12.48-23.4,12.48Z" fill="#6a3093"/>
              <path d="M1079.085,459.477v-18.72l23.4-12.48v18.72l-23.4,12.48Z" fill="#40275a"/>
              <path d="M1125.885,459.477v-18.72l-23.4-12.48v18.72l23.4,12.48Z" fill="#6a3093"/>
              <path d="M1071.285,456.357h31.2" isolation="isolate" opacity=".6" stroke="url(#Accent_Highlight_Gradient-2)" stroke-width="3.12"/>
            </g>
            <g>
              <path d="M790.485,471.957l-23.4-12.48,23.4-12.48,23.4,12.48-23.4,12.48Z" fill="#6a3093"/>
              <path d="M767.085,459.477v-18.72l23.4-12.48v18.72l-23.4,12.48Z" fill="#40275a"/>
              <path d="M813.885,459.477v-18.72l-23.4-12.48v18.72l23.4,12.48Z" fill="#6a3093"/>
              <path d="M821.685,456.357h-31.2" isolation="isolate" opacity=".6" stroke="url(#Accent_Highlight_Gradient-3)" stroke-width="3.12"/>
            </g>
            <g>
              <path d="M946.485,651.357l-39-23.4,39-23.4,39,23.4-39,23.4Z" fill="#6a3093"/>
              <path d="M907.485,627.957v-31.2l39-23.4v31.2l-39,23.4Z" fill="#40275a"/>
              <path d="M985.485,627.957v-31.2l-39-23.4v31.2l39,23.4Z" fill="#6a3093"/>
              <path d="M946.485,635.757l-15.6-7.8v-15.6l15.6-7.8,15.6,7.8v15.6l-15.6,7.8Z" fill="#bf4080" isolation="isolate" opacity=".7"/>
              <path d="M946.485,604.557v-15.6" isolation="isolate" opacity=".6" stroke="url(#Accent_Highlight_Gradient-4)" stroke-width="3.12"/>
            </g>
            <g>
              <circle cx="946.485" cy="315.957" r="7.8" fill="#5ac8fa" isolation="isolate" opacity=".8"/>
              <circle cx="1071.285" cy="440.757" r="6.24" fill="#5ac8fa" isolation="isolate" opacity=".7"/>
              <circle cx="821.685" cy="440.757" r="6.24" fill="#5ac8fa" isolation="isolate" opacity=".7"/>
              <circle cx="946.485" cy="596.757" r="7.8" fill="#5ac8fa" isolation="isolate" opacity=".6"/>
              <ellipse cx="946.485" cy="503.157" rx="156" ry="187.2" fill="none" isolation="isolate" opacity=".3" stroke="url(#Accent_Highlight_Gradient-5)" stroke-width="1.56"/>
              <ellipse cx="946.485" cy="503.157" rx="187.2" ry="156" fill="none" isolation="isolate" opacity=".2" stroke="#bf4080" stroke-width="1.56"/>
            </g>
            <text transform="translate(844.183 690.357)" fill="#fff" font-family="SF Pro Regular, &apos;SF Pro &apos;" font-size="24.96" isolation="isolate"><tspan x="0" y="0" letter-spacing="-.05em">T</tspan><tspan x="13.029" y="0" letter-spacing="-.021em">r</tspan><tspan x="23.237" y="0">a</tspan><tspan x="35.742" y="0" letter-spacing="-.003em">ns</tspan><tspan x="61.127" y="0" letter-spacing="-.006em">it</tspan><tspan x="73.756" y="0" letter-spacing="-.005em">io</tspan><tspan x="91.603" y="0" letter-spacing="-.002em">n</tspan><tspan x="105.006" y="0">al </tspan><tspan x="126.721" y="0" letter-spacing="-.015em">S</tspan><tspan x="141.047" y="0" letter-spacing="-.006em">t</tspan><tspan x="149.408" y="0" letter-spacing="-.008em">a</tspan><tspan x="161.714" y="0" letter-spacing="-.022em">t</tspan><tspan x="169.676" y="0">e</tspan></text>
          </g>
          <g opacity=".7">
            <path d="M1164.885,615.477l-62.4-31.2,62.4-31.2,62.4,31.2-62.4,31.2Z" fill="#6a3093"/>
            <path d="M1102.485,584.277v-62.4l62.4-31.2v62.4l-62.4,31.2Z" fill="#40275a"/>
            <path d="M1227.285,584.277v-62.4l-62.4-31.2v62.4l62.4,31.2Z" fill="#6a3093"/>
            <path d="M1164.885,590.517l-31.2-15.6v-40.56l31.2-15.6,31.2,15.6v40.56l-31.2,15.6Z" fill="#bf4080" isolation="isolate" opacity=".8"/>
            <circle cx="1164.885" cy="490.677" r="12.48" fill="#5ac8fa" isolation="isolate" opacity=".4"/>
            <text transform="translate(1111.96 652.916)" fill="#fff" font-family="SF Pro Regular, &apos;SF Pro &apos;" font-size="14.976" isolation="isolate"><tspan x="0" y="0">Q</tspan><tspan x="10.288" y="0" letter-spacing="-.002em">u</tspan><tspan x="18.436" y="0">a</tspan><tspan x="25.938" y="0" letter-spacing="-.008em">n</tspan><tspan x="33.891" y="0">tum </tspan><tspan x="63.093" y="0" letter-spacing="-.015em">S</tspan><tspan x="71.689" y="0" letter-spacing="-.006em">t</tspan><tspan x="76.706" y="0" letter-spacing="-.008em">a</tspan><tspan x="84.089" y="0" letter-spacing="-.022em">t</tspan><tspan x="88.866" y="0">e</tspan></text>
          </g>
        </g>
        <g opacity=".3">
          <ellipse cx="946.485" cy="503.157" rx="343.2" ry="124.8" fill="none" stroke="url(#Accent_Highlight_Gradient-6)" stroke-width="1.56"/>
          <ellipse cx="946.485" cy="503.157" rx="124.8" ry="343.2" fill="none" stroke="#bf4080" stroke-width="1.56"/>
          <circle cx="946.485" cy="503.157" r="280.8" fill="none" stroke="#6a3093" stroke-miterlimit="4" stroke-width="1.56"/>
        </g>
      </g>
      <g>
        <rect x="260.085" y="237.957" width="561.6" height="124.8" rx="15.6" ry="15.6" fill="#131a36" isolation="isolate" opacity=".8"/>
        <text transform="translate(367.784 276.956)" fill="#fff" font-family="SF Pro Medium, &apos;SF Pro &apos;" font-size="28.08" font-weight="500" isolation="isolate"><tspan x="0" y="0" letter-spacing="-.04em">T</tspan><tspan x="15.022" y="0" letter-spacing="-.019em">r</tspan><tspan x="27.49" y="0">a</tspan><tspan x="42.204" y="0" letter-spacing="-.003em">ns</tspan><tspan x="71.829" y="0" letter-spacing="-.004em">it</tspan><tspan x="87.665" y="0" letter-spacing="-.005em">io</tspan><tspan x="108.697" y="0" letter-spacing="-.002em">n</tspan><tspan x="124.534" y="0">al </tspan><tspan x="150.535" y="0" letter-spacing="-.003em">P</tspan><tspan x="167.496" y="0" letter-spacing="-.002em">h</tspan><tspan x="183.417" y="0" letter-spacing="-.003em">a</tspan><tspan x="198.046" y="0" letter-spacing="0em">se </tspan><tspan x="232.359" y="0" letter-spacing="-.01em">M</tspan><tspan x="255.834" y="0">e</tspan><tspan x="270.969" y="0" letter-spacing="-.004em">c</tspan><tspan x="285.852" y="0" letter-spacing="-.002em">h</tspan><tspan x="301.772" y="0" letter-spacing="0em">an</tspan><tspan x="332.379" y="0" letter-spacing="-.005em">i</tspan><tspan x="337.883" y="0">cs</tspan></text>
        <text transform="translate(291.858 323.757)" fill="#5ac8fa" font-family="SF Pro Regular, &apos;SF Pro &apos;" font-size="18.72" isolation="isolate"><tspan x="0" y="0">Q</tspan><tspan x="12.86" y="0" letter-spacing="-.002em">u</tspan><tspan x="23.044" y="0">a</tspan><tspan x="32.423" y="0" letter-spacing="-.008em">n</tspan><tspan x="42.362" y="0" letter-spacing="0em">tum </tspan><tspan x="78.866" y="0" letter-spacing="-.005em">p</tspan><tspan x="89.068" y="0" letter-spacing="-.009em">i</tspan><tspan x="92.214" y="0" letter-spacing="-.027em">x</tspan><tspan x="101.273" y="0" letter-spacing="-.004em">e</tspan><tspan x="111.008" y="0" letter-spacing="-.003em">l</tspan><tspan x="114.396" y="0">s </tspan><tspan x="126.92" y="0" letter-spacing="-.009em">dy</tspan><tspan x="146.407" y="0" letter-spacing="-.002em">n</tspan><tspan x="156.46" y="0" letter-spacing="0em">am</tspan><tspan x="182.274" y="0" letter-spacing="-.005em">i</tspan><tspan x="185.494" y="0" letter-spacing="0em">c</tspan><tspan x="195.209" y="0">a</tspan><tspan x="204.588" y="0" letter-spacing=".006em">l</tspan><tspan x="208.145" y="0" letter-spacing="-.009em">l</tspan><tspan x="211.421" y="0" letter-spacing="0em">y </tspan><tspan x="224.412" y="0" letter-spacing="-.009em">r</tspan><tspan x="232.293" y="0" letter-spacing=".001em">e</tspan><tspan x="242.121" y="0" letter-spacing="-.003em">a</tspan><tspan x="251.443" y="0" letter-spacing="-.005em">s</tspan><tspan x="260.41" y="0">s</tspan><tspan x="269.471" y="0" letter-spacing="-.005em">e</tspan><tspan x="279.187" y="0">m</tspan><tspan x="295.622" y="0" letter-spacing="-.004em">bl</tspan><tspan x="309.213" y="0">e b</tspan><tspan x="332.78" y="0" letter-spacing="-.01em">e</tspan><tspan x="342.402" y="0" letter-spacing="-.025em">tw</tspan><tspan x="362.283" y="0">e</tspan><tspan x="372.092" y="0" letter-spacing="-.005em">e</tspan><tspan x="381.808" y="0">n </tspan><tspan x="395.36" y="0" letter-spacing="-.006em">st</tspan><tspan x="410.58" y="0" letter-spacing="-.008em">a</tspan><tspan x="419.809" y="0" letter-spacing="-.022em">t</tspan><tspan x="425.78" y="0">es,</tspan></text>
        <text transform="translate(283.841 354.956)" fill="#5ac8fa" font-family="SF Pro Regular, &apos;SF Pro &apos;" font-size="18.72" isolation="isolate"><tspan x="0" y="0" letter-spacing="-.002em">m</tspan><tspan x="16.398" y="0">ai</tspan><tspan x="29.09" y="0" letter-spacing="-.008em">n</tspan><tspan x="39.03" y="0" letter-spacing="-.006em">t</tspan><tspan x="45.302" y="0" letter-spacing="0em">aini</tspan><tspan x="71.396" y="0" letter-spacing="-.002em">n</tspan><tspan x="81.448" y="0">g </tspan><tspan x="95.208" y="0" letter-spacing="-.005em">e</tspan><tspan x="104.923" y="0" letter-spacing="-.002em">n</tspan><tspan x="114.976" y="0" letter-spacing="-.005em">e</tspan><tspan x="124.691" y="0" letter-spacing="-.009em">r</tspan><tspan x="132.572" y="0" letter-spacing="-.014em">g</tspan><tspan x="142.606" y="0">y c</tspan><tspan x="165.294" y="0" letter-spacing="-.005em">o</tspan><tspan x="175.459" y="0" letter-spacing="-.009em">r</tspan><tspan x="183.341" y="0">e c</tspan><tspan x="206.31" y="0" letter-spacing="-.005em">o</tspan><tspan x="216.475" y="0" letter-spacing="-.008em">n</tspan><tspan x="226.414" y="0" letter-spacing="-.006em">t</tspan><tspan x="232.686" y="0">inu</tspan><tspan x="256.31" y="0" letter-spacing="-.006em">i</tspan><tspan x="259.511" y="0" letter-spacing="-.023em">t</tspan><tspan x="265.463" y="0">y </tspan><tspan x="278.455" y="0" letter-spacing=".003em">t</tspan><tspan x="284.894" y="0" letter-spacing="0em">h</tspan><tspan x="295.115" y="0" letter-spacing="-.009em">r</tspan><tspan x="302.996" y="0" letter-spacing="-.005em">o</tspan><tspan x="313.161" y="0" letter-spacing="-.002em">u</tspan><tspan x="323.345" y="0">gh t</tspan><tspan x="353.708" y="0" letter-spacing="-.021em">r</tspan><tspan x="361.364" y="0" letter-spacing="0em">a</tspan><tspan x="370.742" y="0" letter-spacing="-.003em">n</tspan><tspan x="380.776" y="0" letter-spacing="-.006em">s</tspan><tspan x="389.725" y="0" letter-spacing="-.026em">f</tspan><tspan x="394.741" y="0" letter-spacing="-.005em">o</tspan><tspan x="404.906" y="0" letter-spacing="-.011em">r</tspan><tspan x="412.75" y="0" letter-spacing="-.002em">m</tspan><tspan x="429.148" y="0" letter-spacing="-.008em">a</tspan><tspan x="438.378" y="0" letter-spacing="-.006em">t</tspan><tspan x="444.648" y="0" letter-spacing="-.005em">io</tspan><tspan x="458.033" y="0">n</tspan></text>
      </g>
      <g>
        <rect x="1071.285" y="237.957" width="561.6" height="124.8" rx="15.6" ry="15.6" fill="#131a36" isolation="isolate" opacity=".8"/>
        <text transform="translate(1223.484 276.956)" fill="#fff" font-family="SF Pro Medium, &apos;SF Pro &apos;" font-size="28.08" font-weight="500" isolation="isolate"><tspan x="0" y="0" letter-spacing=".003em">M</tspan><tspan x="23.84" y="0" letter-spacing="0em">u</tspan><tspan x="39.816" y="0" letter-spacing="-.006em">l</tspan><tspan x="45.657" y="0" letter-spacing="-.004em">t</tspan><tspan x="55.962" y="0">i-</tspan><tspan x="71.854" y="0" letter-spacing="-.014em">S</tspan><tspan x="88.422" y="0" letter-spacing="-.003em">t</tspan><tspan x="98.755" y="0" letter-spacing="-.006em">a</tspan><tspan x="113.301" y="0" letter-spacing="-.019em">t</tspan><tspan x="123.185" y="0">e </tspan><tspan x="143.598" y="0" letter-spacing="-.005em">P</tspan><tspan x="160.502" y="0" letter-spacing="-.007em">r</tspan><tspan x="173.307" y="0" letter-spacing="-.005em">o</tspan><tspan x="188.835" y="0">p</tspan><tspan x="204.896" y="0" letter-spacing="-.005em">e</tspan><tspan x="219.892" y="0" letter-spacing=".002em">r</tspan><tspan x="232.948" y="0" letter-spacing="-.004em">t</tspan><tspan x="243.253" y="0" letter-spacing="-.005em">i</tspan><tspan x="248.757" y="0">es</tspan></text>
        <text transform="translate(1110.828 323.757)" fill="#5ac8fa" font-family="SF Pro Regular, &apos;SF Pro &apos;" font-size="18.72" isolation="isolate"><tspan x="0" y="0" letter-spacing=".003em">O</tspan><tspan x="12.917" y="0" letter-spacing="-.001em">b</tspan><tspan x="23.193" y="0" letter-spacing="-.005em">j</tspan><tspan x="26.582" y="0">e</tspan><tspan x="36.391" y="0" letter-spacing="-.01em">c</tspan><tspan x="45.9" y="0" letter-spacing="-.013em">t</tspan><tspan x="52.041" y="0">s </tspan><tspan x="64.564" y="0" letter-spacing="-.027em">e</tspan><tspan x="73.868" y="0" letter-spacing="-.009em">x</tspan><tspan x="83.266" y="0" letter-spacing="-.003em">i</tspan><tspan x="86.522" y="0" letter-spacing="-.006em">s</tspan><tspan x="95.471" y="0" letter-spacing="0em">t </tspan><tspan x="105.317" y="0" letter-spacing="-.003em">s</tspan><tspan x="114.321" y="0">imu</tspan><tspan x="144.292" y="0" letter-spacing="-.007em">l</tspan><tspan x="147.605" y="0" letter-spacing="-.006em">t</tspan><tspan x="153.876" y="0">a</tspan><tspan x="163.255" y="0" letter-spacing="-.002em">n</tspan><tspan x="173.308" y="0">e</tspan><tspan x="183.116" y="0" letter-spacing="-.005em">o</tspan><tspan x="193.281" y="0" letter-spacing="-.003em">u</tspan><tspan x="203.446" y="0" letter-spacing="-.005em">s</tspan><tspan x="212.413" y="0" letter-spacing="-.009em">l</tspan><tspan x="215.689" y="0">y </tspan><tspan x="228.681" y="0" letter-spacing="-.002em">a</tspan><tspan x="238.021" y="0" letter-spacing="-.005em">c</tspan><tspan x="247.625" y="0" letter-spacing="-.009em">r</tspan><tspan x="255.506" y="0">o</tspan><tspan x="265.765" y="0" letter-spacing="-.005em">s</tspan><tspan x="274.731" y="0">s a</tspan><tspan x="296.634" y="0" letter-spacing=".006em">l</tspan><tspan x="300.19" y="0">l q</tspan><tspan x="317.394" y="0" letter-spacing="-.002em">u</tspan><tspan x="327.577" y="0" letter-spacing="0em">a</tspan><tspan x="336.955" y="0" letter-spacing="-.008em">n</tspan><tspan x="346.896" y="0" letter-spacing="0em">tum </tspan><tspan x="383.398" y="0" letter-spacing="-.006em">st</tspan><tspan x="398.618" y="0" letter-spacing="-.008em">a</tspan><tspan x="407.847" y="0" letter-spacing="-.022em">t</tspan><tspan x="413.818" y="0" letter-spacing="0em">es</tspan></text>
        <text transform="translate(1101.8 354.956)" fill="#5ac8fa" font-family="SF Pro Regular, &apos;SF Pro &apos;" font-size="18.72" isolation="isolate"><tspan x="0" y="0" letter-spacing="-.01em">w</tspan><tspan x="14.246" y="0" letter-spacing="-.006em">i</tspan><tspan x="17.447" y="0" letter-spacing=".003em">t</tspan><tspan x="23.886" y="0" letter-spacing="0em">h </tspan><tspan x="37.57" y="0" letter-spacing="-.022em">v</tspan><tspan x="46.687" y="0">a</tspan><tspan x="56.065" y="0" letter-spacing="-.015em">r</tspan><tspan x="63.834" y="0">ia</tspan><tspan x="76.525" y="0" letter-spacing="-.004em">bl</tspan><tspan x="90.116" y="0">e </tspan><tspan x="103.389" y="0" letter-spacing="-.002em">m</tspan><tspan x="119.787" y="0">an</tspan><tspan x="139.255" y="0" letter-spacing="-.006em">i</tspan><tspan x="142.456" y="0" letter-spacing="-.026em">f</tspan><tspan x="147.474" y="0">e</tspan><tspan x="157.282" y="0" letter-spacing="-.006em">st</tspan><tspan x="172.502" y="0" letter-spacing="-.008em">a</tspan><tspan x="181.73" y="0" letter-spacing="-.006em">t</tspan><tspan x="188.001" y="0" letter-spacing="-.005em">io</tspan><tspan x="201.386" y="0">n i</tspan><tspan x="218.252" y="0" letter-spacing="-.008em">n</tspan><tspan x="228.192" y="0" letter-spacing="-.022em">t</tspan><tspan x="234.164" y="0" letter-spacing="-.005em">e</tspan><tspan x="243.88" y="0" letter-spacing="-.003em">ns</tspan><tspan x="262.918" y="0" letter-spacing="-.006em">i</tspan><tspan x="266.119" y="0" letter-spacing="-.023em">t</tspan><tspan x="272.072" y="0" letter-spacing="0em">y </tspan><tspan x="285.063" y="0" letter-spacing="0em">b</tspan><tspan x="295.378" y="0" letter-spacing="-.003em">a</tspan><tspan x="304.7" y="0">sed </tspan><tspan x="337.328" y="0" letter-spacing="-.005em">o</tspan><tspan x="347.493" y="0">n </tspan><tspan x="361.046" y="0" letter-spacing="-.003em">u</tspan><tspan x="371.211" y="0">s</tspan><tspan x="380.271" y="0" letter-spacing="-.005em">e</tspan><tspan x="389.987" y="0">r </tspan><tspan x="401.5" y="0" letter-spacing="-.026em">f</tspan><tspan x="406.517" y="0">o</tspan><tspan x="416.775" y="0" letter-spacing="-.005em">c</tspan><tspan x="426.379" y="0" letter-spacing="-.003em">u</tspan><tspan x="436.544" y="0" letter-spacing="0em">s</tspan></text>
      </g>
      <g>
        <rect x="260.085" y="643.557" width="561.6" height="124.8" rx="15.6" ry="15.6" fill="#131a36" isolation="isolate" opacity=".8"/>
        <text transform="translate(418.685 682.557)" fill="#fff" font-family="SF Pro Medium, &apos;SF Pro &apos;" font-size="28.08" font-weight="500" isolation="isolate"><tspan x="0" y="0" letter-spacing=".004em">D</tspan><tspan x="18.813" y="0">i</tspan><tspan x="24.457" y="0" letter-spacing="-.002em">m</tspan><tspan x="49.7" y="0" letter-spacing="-.005em">e</tspan><tspan x="64.695" y="0" letter-spacing="-.003em">ns</tspan><tspan x="94.319" y="0" letter-spacing="-.005em">io</tspan><tspan x="115.352" y="0" letter-spacing="-.002em">n</tspan><tspan x="131.188" y="0">al </tspan><tspan x="157.189" y="0" letter-spacing="-.04em">T</tspan><tspan x="172.213" y="0" letter-spacing="-.019em">r</tspan><tspan x="184.681" y="0" letter-spacing="0em">a</tspan><tspan x="199.394" y="0" letter-spacing="-.003em">n</tspan><tspan x="215.203" y="0" letter-spacing="-.006em">s</tspan><tspan x="228.934" y="0" letter-spacing="-.023em">f</tspan><tspan x="237.302" y="0" letter-spacing="-.005em">e</tspan><tspan x="252.297" y="0">r</tspan></text>
        <text transform="translate(309.914 729.357)" fill="#5ac8fa" font-family="SF Pro Regular, &apos;SF Pro &apos;" font-size="18.72" isolation="isolate"><tspan x="0" y="0">E</tspan><tspan x="10.37" y="0" letter-spacing="-.002em">n</tspan><tspan x="20.423" y="0" letter-spacing="-.005em">e</tspan><tspan x="30.139" y="0" letter-spacing="-.009em">r</tspan><tspan x="38.02" y="0" letter-spacing="-.014em">g</tspan><tspan x="48.054" y="0">y c</tspan><tspan x="70.742" y="0" letter-spacing="-.005em">o</tspan><tspan x="80.907" y="0" letter-spacing="-.009em">r</tspan><tspan x="88.788" y="0">e </tspan><tspan x="102.061" y="0" letter-spacing="-.002em">m</tspan><tspan x="118.459" y="0" letter-spacing="0em">ai</tspan><tspan x="131.15" y="0" letter-spacing="-.008em">n</tspan><tspan x="141.091" y="0" letter-spacing="-.006em">t</tspan><tspan x="147.361" y="0">ai</tspan><tspan x="160.054" y="0" letter-spacing="-.003em">n</tspan><tspan x="170.087" y="0">s c</tspan><tspan x="192.308" y="0" letter-spacing="-.005em">o</tspan><tspan x="202.473" y="0">n</tspan><tspan x="212.562" y="0" letter-spacing="-.002em">n</tspan><tspan x="222.614" y="0" letter-spacing="0em">e</tspan><tspan x="232.424" y="0" letter-spacing="-.01em">c</tspan><tspan x="241.934" y="0" letter-spacing="-.006em">t</tspan><tspan x="248.204" y="0" letter-spacing="-.005em">io</tspan><tspan x="261.589" y="0" letter-spacing="-.003em">n</tspan><tspan x="271.623" y="0">s </tspan><tspan x="284.146" y="0" letter-spacing="-.002em">a</tspan><tspan x="293.487" y="0" letter-spacing="-.005em">c</tspan><tspan x="303.091" y="0" letter-spacing="-.009em">r</tspan><tspan x="310.972" y="0">o</tspan><tspan x="321.23" y="0" letter-spacing="-.005em">s</tspan><tspan x="330.197" y="0">s a</tspan><tspan x="352.1" y="0" letter-spacing=".006em">l</tspan><tspan x="355.656" y="0">l </tspan><tspan x="362.563" y="0" letter-spacing="-.006em">st</tspan><tspan x="377.782" y="0" letter-spacing="-.008em">a</tspan><tspan x="387.012" y="0" letter-spacing="-.022em">t</tspan><tspan x="392.983" y="0">es,</tspan></text>
        <text transform="translate(269.39 760.557)" fill="#5ac8fa" font-family="SF Pro Regular, &apos;SF Pro &apos;" font-size="18.72" isolation="isolate"><tspan x="0" y="0">a</tspan><tspan x="9.379" y="0" letter-spacing=".006em">l</tspan><tspan x="12.936" y="0" letter-spacing="-.004em">l</tspan><tspan x="16.305" y="0" letter-spacing="-.025em">o</tspan><tspan x="26.095" y="0" letter-spacing="-.01em">w</tspan><tspan x="40.341" y="0">i</tspan><tspan x="43.654" y="0" letter-spacing="-.002em">n</tspan><tspan x="53.707" y="0" letter-spacing="0em">g </tspan><tspan x="67.466" y="0" letter-spacing="-.003em">s</tspan><tspan x="76.47" y="0" letter-spacing="-.002em">m</tspan><tspan x="92.868" y="0">o</tspan><tspan x="103.127" y="0" letter-spacing="-.01em">o</tspan><tspan x="113.198" y="0" letter-spacing=".003em">t</tspan><tspan x="119.638" y="0">h t</tspan><tspan x="139.705" y="0" letter-spacing="-.021em">r</tspan><tspan x="147.361" y="0" letter-spacing="0em">a</tspan><tspan x="156.739" y="0" letter-spacing="-.003em">ns</tspan><tspan x="175.777" y="0" letter-spacing="-.006em">it</tspan><tspan x="185.25" y="0" letter-spacing="-.005em">io</tspan><tspan x="198.635" y="0" letter-spacing="-.003em">n</tspan><tspan x="208.668" y="0">s b</tspan><tspan x="231.487" y="0" letter-spacing="-.01em">e</tspan><tspan x="241.109" y="0" letter-spacing="-.025em">tw</tspan><tspan x="260.99" y="0">e</tspan><tspan x="270.799" y="0" letter-spacing="-.005em">e</tspan><tspan x="280.515" y="0">n di</tspan><tspan x="307.677" y="0" letter-spacing="-.002em">m</tspan><tspan x="324.075" y="0" letter-spacing="-.005em">e</tspan><tspan x="333.791" y="0" letter-spacing="-.003em">ns</tspan><tspan x="352.829" y="0" letter-spacing="-.005em">io</tspan><tspan x="366.214" y="0" letter-spacing="-.002em">n</tspan><tspan x="376.267" y="0" letter-spacing="0em">al </tspan><tspan x="392.552" y="0" letter-spacing="-.027em">e</tspan><tspan x="401.855" y="0" letter-spacing="-.014em">x</tspan><tspan x="411.159" y="0" letter-spacing="-.005em">p</tspan><tspan x="421.362" y="0" letter-spacing="-.009em">r</tspan><tspan x="429.243" y="0" letter-spacing="0em">e</tspan><tspan x="439.053" y="0" letter-spacing="-.005em">s</tspan><tspan x="448.02" y="0" letter-spacing="-.003em">s</tspan><tspan x="457.023" y="0" letter-spacing="-.005em">io</tspan><tspan x="470.408" y="0" letter-spacing="-.003em">n</tspan><tspan x="480.442" y="0">s</tspan></text>
      </g>
      <g>
        <rect x="1071.285" y="643.557" width="561.6" height="124.8" rx="15.6" ry="15.6" fill="#131a36" isolation="isolate" opacity=".8"/>
        <text transform="translate(1230.037 682.557)" fill="#fff" font-family="SF Pro Medium, &apos;SF Pro &apos;" font-size="28.08" font-weight="500" isolation="isolate"><tspan x="0" y="0" letter-spacing="-.021em">A</tspan><tspan x="18.954" y="0">R </tspan><tspan x="41.586" y="0" letter-spacing=".003em">I</tspan><tspan x="47.848" y="0" letter-spacing="-.006em">n</tspan><tspan x="63.572" y="0" letter-spacing="-.019em">t</tspan><tspan x="73.456" y="0" letter-spacing="-.005em">e</tspan><tspan x="88.45" y="0" letter-spacing="-.019em">r</tspan><tspan x="100.918" y="0" letter-spacing="-.002em">a</tspan><tspan x="115.575" y="0" letter-spacing="-.01em">c</tspan><tspan x="130.289" y="0" letter-spacing="-.004em">t</tspan><tspan x="140.595" y="0" letter-spacing="-.005em">io</tspan><tspan x="161.627" y="0" letter-spacing="0em">n </tspan><tspan x="182.799" y="0" letter-spacing="-.01em">M</tspan><tspan x="206.273" y="0" letter-spacing="0em">o</tspan><tspan x="221.941" y="0" letter-spacing="-.004em">de</tspan><tspan x="252.914" y="0">l</tspan></text>
        <text transform="translate(1124.397 729.357)" fill="#5ac8fa" font-family="SF Pro Regular, &apos;SF Pro &apos;" font-size="18.72" isolation="isolate"><tspan x="0" y="0">Ha</tspan><tspan x="21.453" y="0" letter-spacing="-.002em">n</tspan><tspan x="31.505" y="0">d </tspan><tspan x="45.264" y="0" letter-spacing="-.005em">g</tspan><tspan x="55.467" y="0">e</tspan><tspan x="65.275" y="0" letter-spacing="-.006em">s</tspan><tspan x="74.224" y="0">tu</tspan><tspan x="90.828" y="0" letter-spacing="-.009em">r</tspan><tspan x="98.709" y="0">es a</tspan><tspan x="130.42" y="0" letter-spacing="-.002em">n</tspan><tspan x="140.473" y="0">d </tspan><tspan x="154.231" y="0" letter-spacing="-.003em">s</tspan><tspan x="163.235" y="0" letter-spacing="0em">p</tspan><tspan x="173.55" y="0" letter-spacing="-.008em">a</tspan><tspan x="182.779" y="0" letter-spacing="-.006em">t</tspan><tspan x="189.05" y="0">ial po</tspan><tspan x="229.203" y="0" letter-spacing="-.003em">s</tspan><tspan x="238.208" y="0" letter-spacing="-.006em">it</tspan><tspan x="247.68" y="0" letter-spacing="-.005em">io</tspan><tspan x="261.064" y="0">n </tspan><tspan x="274.617" y="0" letter-spacing="-.004em">d</tspan><tspan x="284.838" y="0" letter-spacing="-.01em">e</tspan><tspan x="294.46" y="0" letter-spacing="-.022em">t</tspan><tspan x="300.432" y="0" letter-spacing="-.005em">e</tspan><tspan x="310.147" y="0" letter-spacing="-.011em">r</tspan><tspan x="317.991" y="0">mi</tspan><tspan x="337.74" y="0" letter-spacing="-.002em">n</tspan><tspan x="347.793" y="0">e </tspan><tspan x="361.065" y="0" letter-spacing="-.006em">st</tspan><tspan x="376.284" y="0" letter-spacing="-.008em">a</tspan><tspan x="385.513" y="0" letter-spacing="-.022em">t</tspan><tspan x="391.484" y="0" letter-spacing="-.01em">e</tspan><tspan x="401.106" y="0" letter-spacing="0em">,</tspan></text>
        <text transform="translate(1116.887 760.557)" fill="#5ac8fa" font-family="SF Pro Regular, &apos;SF Pro &apos;" font-size="18.72" isolation="isolate"><tspan x="0" y="0" letter-spacing="-.01em">w</tspan><tspan x="14.246" y="0" letter-spacing="-.006em">i</tspan><tspan x="17.447" y="0" letter-spacing=".003em">t</tspan><tspan x="23.886" y="0" letter-spacing="0em">h </tspan><tspan x="37.57" y="0" letter-spacing="-.005em">p</tspan><tspan x="47.772" y="0" letter-spacing="-.009em">r</tspan><tspan x="55.654" y="0" letter-spacing="-.027em">o</tspan><tspan x="65.407" y="0" letter-spacing="-.009em">x</tspan><tspan x="74.805" y="0" letter-spacing="0em">im</tspan><tspan x="94.554" y="0" letter-spacing="-.006em">i</tspan><tspan x="97.755" y="0" letter-spacing="-.023em">t</tspan><tspan x="103.707" y="0">y t</tspan><tspan x="123.082" y="0" letter-spacing="-.015em">r</tspan><tspan x="130.851" y="0" letter-spacing="-.005em">igge</tspan><tspan x="164.19" y="0" letter-spacing="-.015em">r</tspan><tspan x="171.959" y="0">i</tspan><tspan x="175.272" y="0" letter-spacing="-.002em">n</tspan><tspan x="185.325" y="0">g di</tspan><tspan x="212.692" y="0" letter-spacing="-.002em">m</tspan><tspan x="229.092" y="0" letter-spacing="-.005em">e</tspan><tspan x="238.807" y="0" letter-spacing="-.003em">ns</tspan><tspan x="257.845" y="0" letter-spacing="-.005em">io</tspan><tspan x="271.229" y="0" letter-spacing="-.002em">n</tspan><tspan x="281.282" y="0">al t</tspan><tspan x="303.951" y="0" letter-spacing="-.021em">r</tspan><tspan x="311.608" y="0" letter-spacing="0em">a</tspan><tspan x="320.986" y="0" letter-spacing="-.003em">n</tspan><tspan x="331.021" y="0" letter-spacing="-.006em">s</tspan><tspan x="339.969" y="0" letter-spacing="-.026em">f</tspan><tspan x="344.985" y="0" letter-spacing="-.005em">o</tspan><tspan x="355.15" y="0" letter-spacing="-.011em">r</tspan><tspan x="362.994" y="0" letter-spacing="-.002em">m</tspan><tspan x="379.393" y="0" letter-spacing="-.008em">a</tspan><tspan x="388.622" y="0" letter-spacing="-.006em">t</tspan><tspan x="394.893" y="0" letter-spacing="-.005em">io</tspan><tspan x="408.277" y="0" letter-spacing="-.003em">n</tspan><tspan x="418.312" y="0">s</tspan></text>
      </g>
      <g>
        <rect x="283.485" y="830.757" width="1326" height="93.6" rx="15.6" ry="15.6" fill="#131a36" isolation="isolate" opacity=".9"/>
        <text transform="translate(684.831 877.557)" fill="#fff" font-family="SF Pro Semibold, &apos;SF Pro &apos;" font-size="24.96" font-weight="600" isolation="isolate"><tspan x="0" y="0" letter-spacing=".002em">I</tspan><tspan x="6.14" y="0">m</tspan><tspan x="29.128" y="0" letter-spacing="-.003em">m</tspan><tspan x="52.041" y="0" letter-spacing="-.006em">e</tspan><tspan x="65.694" y="0">r</tspan><tspan x="77.999" y="0" letter-spacing="-.002em">s</tspan><tspan x="90.554" y="0" letter-spacing="-.015em">i</tspan><tspan x="95.87" y="0" letter-spacing="-.028em">v</tspan><tspan x="109.798" y="0">e Q</tspan><tspan x="145.989" y="0" letter-spacing="-.002em">u</tspan><tspan x="160.641" y="0">a</tspan><tspan x="174.219" y="0" letter-spacing="-.004em">n</tspan><tspan x="188.82" y="0">tum-S</tspan><tspan x="262.226" y="0" letter-spacing="-.002em">p</tspan><tspan x="276.977" y="0" letter-spacing="-.004em">a</tspan><tspan x="290.455" y="0" letter-spacing="-.003em">t</tspan><tspan x="300.364" y="0">ial </tspan><tspan x="330.391" y="0" letter-spacing=".002em">B</tspan><tspan x="346.664" y="0" letter-spacing="-.016em">r</tspan><tspan x="358.57" y="0">a</tspan><tspan x="372.148" y="0" letter-spacing="-.003em">n</tspan><tspan x="386.774" y="0" letter-spacing="0em">d </tspan><tspan x="406.318" y="0" letter-spacing="-.007em">Ex</tspan><tspan x="434.897" y="0">p</tspan><tspan x="449.698" y="0" letter-spacing="-.006em">e</tspan><tspan x="463.352" y="0" letter-spacing="-.01em">r</tspan><tspan x="475.407" y="0" letter-spacing="-.006em">ie</tspan><tspan x="494.602" y="0" letter-spacing="-.003em">n</tspan><tspan x="509.228" y="0">ce</tspan></text>
        <text transform="translate(264.371 916.557)" fill="#5ac8fa" font-family="SF Pro Regular, &apos;SF Pro &apos;" font-size="18.72" isolation="isolate"><tspan x="0" y="0" letter-spacing="-.002em">U</tspan><tspan x="12.654" y="0">s</tspan><tspan x="21.715" y="0" letter-spacing="-.005em">e</tspan><tspan x="31.431" y="0">rs </tspan><tspan x="52.004" y="0" letter-spacing="-.027em">e</tspan><tspan x="61.308" y="0" letter-spacing="-.014em">x</tspan><tspan x="70.611" y="0">p</tspan><tspan x="80.907" y="0" letter-spacing="-.005em">e</tspan><tspan x="90.622" y="0" letter-spacing="-.015em">r</tspan><tspan x="98.391" y="0" letter-spacing="-.005em">ie</tspan><tspan x="111.326" y="0" letter-spacing="-.002em">n</tspan><tspan x="121.379" y="0">ce </tspan><tspan x="144.348" y="0" letter-spacing="-.005em">b</tspan><tspan x="154.55" y="0" letter-spacing="-.021em">r</tspan><tspan x="162.207" y="0" letter-spacing="0em">a</tspan><tspan x="171.585" y="0" letter-spacing="-.002em">n</tspan><tspan x="181.638" y="0">d </tspan><tspan x="195.396" y="0" letter-spacing="-.004em">el</tspan><tspan x="208.5" y="0" letter-spacing="-.005em">e</tspan><tspan x="218.216" y="0" letter-spacing="-.002em">m</tspan><tspan x="234.614" y="0" letter-spacing="-.005em">e</tspan><tspan x="244.33" y="0" letter-spacing="-.008em">n</tspan><tspan x="254.27" y="0" letter-spacing="-.013em">t</tspan><tspan x="260.41" y="0">s t</tspan><tspan x="279.317" y="0" letter-spacing="-.021em">r</tspan><tspan x="286.974" y="0" letter-spacing="0em">a</tspan><tspan x="296.352" y="0" letter-spacing="-.003em">ns</tspan><tspan x="315.391" y="0" letter-spacing="-.006em">it</tspan><tspan x="324.862" y="0" letter-spacing="-.005em">io</tspan><tspan x="338.247" y="0">ni</tspan><tspan x="351.65" y="0" letter-spacing="-.002em">n</tspan><tspan x="361.702" y="0">g b</tspan><tspan x="385.757" y="0" letter-spacing="-.01em">e</tspan><tspan x="395.379" y="0" letter-spacing="-.025em">tw</tspan><tspan x="415.26" y="0">e</tspan><tspan x="425.068" y="0" letter-spacing="-.005em">e</tspan><tspan x="434.784" y="0">n di</tspan><tspan x="461.946" y="0" letter-spacing="-.002em">m</tspan><tspan x="478.345" y="0" letter-spacing="-.005em">e</tspan><tspan x="488.061" y="0" letter-spacing="-.003em">ns</tspan><tspan x="507.099" y="0" letter-spacing="-.005em">io</tspan><tspan x="520.483" y="0" letter-spacing="-.002em">n</tspan><tspan x="530.535" y="0">al </tspan><tspan x="546.821" y="0" letter-spacing="-.006em">st</tspan><tspan x="562.041" y="0" letter-spacing="-.008em">a</tspan><tspan x="571.27" y="0" letter-spacing="-.022em">t</tspan><tspan x="577.241" y="0">es </tspan><tspan x="599.574" y="0" letter-spacing="0em">b</tspan><tspan x="609.888" y="0" letter-spacing="-.003em">a</tspan><tspan x="619.211" y="0" letter-spacing="0em">sed </tspan><tspan x="651.839" y="0" letter-spacing="-.005em">o</tspan><tspan x="662.004" y="0">n </tspan><tspan x="675.557" y="0" letter-spacing=".003em">t</tspan><tspan x="681.996" y="0" letter-spacing="-.002em">h</tspan><tspan x="692.18" y="0" letter-spacing="-.005em">e</tspan><tspan x="701.896" y="0" letter-spacing="0em">ir i</tspan><tspan x="720.034" y="0" letter-spacing="-.008em">n</tspan><tspan x="729.975" y="0" letter-spacing="-.022em">t</tspan><tspan x="735.946" y="0" letter-spacing="-.005em">e</tspan><tspan x="745.661" y="0" letter-spacing="-.021em">r</tspan><tspan x="753.318" y="0" letter-spacing="-.002em">a</tspan><tspan x="762.659" y="0" letter-spacing="-.01em">c</tspan><tspan x="772.169" y="0" letter-spacing="-.006em">t</tspan><tspan x="778.439" y="0" letter-spacing="-.005em">io</tspan><tspan x="791.824" y="0">n, </tspan><tspan x="808.186" y="0" letter-spacing="-.005em">c</tspan><tspan x="817.789" y="0" letter-spacing="-.009em">r</tspan><tspan x="825.67" y="0" letter-spacing="0em">e</tspan><tspan x="835.497" y="0" letter-spacing="-.008em">a</tspan><tspan x="844.727" y="0" letter-spacing="-.006em">t</tspan><tspan x="850.997" y="0">i</tspan><tspan x="854.311" y="0" letter-spacing="-.002em">n</tspan><tspan x="864.363" y="0">g a d</tspan><tspan x="901.26" y="0" letter-spacing="-.003em">i</tspan><tspan x="904.517" y="0" letter-spacing="-.006em">st</tspan><tspan x="919.735" y="0">i</tspan><tspan x="923.049" y="0" letter-spacing="-.002em">n</tspan><tspan x="933.102" y="0" letter-spacing="-.01em">c</tspan><tspan x="942.611" y="0" letter-spacing="-.006em">t</tspan><tspan x="948.882" y="0" letter-spacing="-.01em">i</tspan><tspan x="952.008" y="0" letter-spacing="-.025em">v</tspan><tspan x="961.068" y="0" letter-spacing="0em">e a</tspan><tspan x="983.719" y="0" letter-spacing="-.002em">n</tspan><tspan x="993.771" y="0">d </tspan><tspan x="1007.53" y="0" letter-spacing="-.002em">m</tspan><tspan x="1023.929" y="0" letter-spacing="-.005em">e</tspan><tspan x="1033.645" y="0" letter-spacing="-.002em">m</tspan><tspan x="1050.043" y="0" letter-spacing="-.005em">o</tspan><tspan x="1060.208" y="0" letter-spacing="-.021em">r</tspan><tspan x="1067.864" y="0">a</tspan><tspan x="1077.243" y="0" letter-spacing="-.004em">bl</tspan><tspan x="1090.834" y="0">e </tspan><tspan x="1104.105" y="0" letter-spacing="-.003em">s</tspan><tspan x="1113.11" y="0" letter-spacing="0em">p</tspan><tspan x="1123.425" y="0" letter-spacing="-.008em">a</tspan><tspan x="1132.653" y="0" letter-spacing="-.006em">t</tspan><tspan x="1138.924" y="0">ial </tspan><tspan x="1158.523" y="0" letter-spacing="-.005em">i</tspan><tspan x="1161.743" y="0" letter-spacing="-.004em">d</tspan><tspan x="1171.965" y="0" letter-spacing="-.005em">e</tspan><tspan x="1181.68" y="0" letter-spacing="-.008em">n</tspan><tspan x="1191.62" y="0" letter-spacing="-.006em">ti</tspan><tspan x="1201.092" y="0" letter-spacing="-.023em">t</tspan><tspan x="1207.045" y="0">y</tspan></text>
      </g>
    </g>
    <g id="Titles">
      <rect x="20" y="20" width="629.97" height="129.56" rx="18.441" ry="18.441" fill="url(#New_Gradient_Swatch)" isolation="isolate" opacity=".8" stroke="url(#Accent_Highlight_Gradient-7)" stroke-width=".75"/>
      <g isolation="isolate">
        <g isolation="isolate">
          <text transform="translate(58.126 75.84)" fill="#fff" font-family="SF Pro Semibold, &apos;SF Pro &apos;" font-size="30" font-weight="600" isolation="isolate"><tspan x="0" y="0">3D </tspan><tspan x="44.729" y="0" letter-spacing=".002em">I</tspan><tspan x="52.109" y="0">s</tspan><tspan x="67.258" y="0" letter-spacing="-.006em">o</tspan><tspan x="84.148" y="0" letter-spacing="-.003em">m</tspan><tspan x="111.688" y="0" letter-spacing="-.01em">e</tspan><tspan x="127.978" y="0" letter-spacing="0em">t</tspan><tspan x="139.978" y="0" letter-spacing="-.01em">r</tspan><tspan x="154.468" y="0" letter-spacing="-.006em">i</tspan><tspan x="161.128" y="0" letter-spacing="0em">c </tspan><tspan x="183.357" y="0" letter-spacing="-.03em">T</tspan><tspan x="200.037" y="0" letter-spacing="-.016em">r</tspan><tspan x="214.347" y="0">a</tspan><tspan x="230.667" y="0" letter-spacing="-.002em">ns</tspan><tspan x="263.366" y="0" letter-spacing="-.003em">it</tspan><tspan x="282.027" y="0" letter-spacing="-.006em">io</tspan><tspan x="305.576" y="0" letter-spacing="-.002em">n</tspan><tspan x="323.186" y="0">al </tspan><tspan x="352.435" y="0" letter-spacing="-.013em">S</tspan><tspan x="370.615" y="0">t</tspan><tspan x="382.615" y="0" letter-spacing="-.004em">a</tspan><tspan x="398.815" y="0" letter-spacing="-.015em">t</tspan><tspan x="410.365" y="0">e</tspan></text>
        </g>
      </g>
      <g isolation="isolate">
        <text transform="translate(58.126 114.106)" fill="#fff" font-family="SF Pro Regular, &apos;SF Pro &apos;" font-size="20" isolation="isolate"><tspan x="0" y="0">Q</tspan><tspan x="13.74" y="0" letter-spacing="-.002em">u</tspan><tspan x="24.62" y="0">a</tspan><tspan x="34.64" y="0" letter-spacing="-.008em">n</tspan><tspan x="45.26" y="0" letter-spacing="0em">tum-S</tspan><tspan x="98.839" y="0" letter-spacing="0em">p</tspan><tspan x="109.858" y="0" letter-spacing="-.008em">a</tspan><tspan x="119.718" y="0" letter-spacing="-.006em">t</tspan><tspan x="126.418" y="0">ial </tspan><tspan x="147.357" y="0" letter-spacing=".003em">O</tspan><tspan x="161.157" y="0" letter-spacing="0em">b</tspan><tspan x="172.137" y="0" letter-spacing="-.005em">j</tspan><tspan x="175.757" y="0">e</tspan><tspan x="186.237" y="0" letter-spacing="-.01em">c</tspan><tspan x="196.396" y="0">t </tspan><tspan x="206.916" y="0" letter-spacing="-.013em">E</tspan><tspan x="217.736" y="0" letter-spacing="-.025em">v</tspan><tspan x="227.416" y="0" letter-spacing="-.004em">o</tspan><tspan x="238.296" y="0">l</tspan><tspan x="241.976" y="0" letter-spacing="-.008em">u</tspan><tspan x="252.736" y="0" letter-spacing="-.006em">t</tspan><tspan x="259.435" y="0" letter-spacing="-.005em">io</tspan><tspan x="273.735" y="0" letter-spacing="0em">n</tspan></text>
      </g>
    </g>
  </g>
</svg>