<?xml version="1.0" encoding="UTF-8"?>
<svg xmlns="http://www.w3.org/2000/svg" width="1920" height="1080" xmlns:xlink="http://www.w3.org/1999/xlink" viewBox="0 0 1920 1080">
  <defs>
    <linearGradient id="Spatial_Background_Gradient" data-name="Spatial Background Gradient" x1="0" y1="540" x2="1920" y2="540" gradientUnits="userSpaceOnUse">
      <stop offset="0" stop-color="#0a0621"/>
      <stop offset=".3" stop-color="#131a36"/>
      <stop offset=".7" stop-color="#331f4a"/>
      <stop offset="1" stop-color="#0d0d15"/>
    </linearGradient>
    <radialGradient id="radial-gradient" cx="960" cy="537" fx="960" fy="537" r="778.845" gradientUnits="userSpaceOnUse">
      <stop offset="0" stop-color="#131a36" stop-opacity=".2"/>
      <stop offset="1" stop-color="#050008" stop-opacity=".8"/>
    </radialGradient>
    <radialGradient id="radial-gradient-2" cx="-986.421" cy="-199.81" fx="-986.421" fy="-199.81" r="446.612" gradientTransform="translate(1771.442 642.862) scale(1.167 .938)" gradientUnits="userSpaceOnUse">
      <stop offset="0" stop-color="#bf4080" stop-opacity=".9"/>
      <stop offset=".459" stop-color="#331f4a"/>
      <stop offset=".766" stop-color="#126d71" stop-opacity="0"/>
      <stop offset=".874" stop-color="#bf4080" stop-opacity=".2"/>
    </radialGradient>
    <radialGradient id="radial-gradient-3" cx="-898.083" cy="379.579" fx="-898.083" fy="379.579" r="442.457" gradientTransform="translate(2494.646 66.013) scale(1.167 1.3)" gradientUnits="userSpaceOnUse">
      <stop offset="0" stop-color="#126d71" stop-opacity="0"/>
      <stop offset=".134" stop-color="#331f4a" stop-opacity="0"/>
      <stop offset=".4" stop-color="#331f4a"/>
      <stop offset=".874" stop-color="#bf4080" stop-opacity=".2"/>
      <stop offset=".983" stop-color="#bf4080" stop-opacity="0"/>
    </radialGradient>
    <radialGradient id="radial-gradient-4" cx="960" cy="539.157" fx="960" fy="539.157" r="779.594" xlink:href="#radial-gradient"/>
    <linearGradient id="Accent_Highlight_Gradient" data-name="Accent Highlight Gradient" x1="448.944" y1="904.565" x2="1457.026" y2="904.565" gradientUnits="userSpaceOnUse">
      <stop offset="0" stop-color="#5ac8fa"/>
      <stop offset=".5" stop-color="#126d71"/>
      <stop offset="1" stop-color="#36eae8"/>
    </linearGradient>
    <linearGradient id="Accent_Highlight_Gradient-2" data-name="Accent Highlight Gradient" x1="420.166" y1="836.166" x2="1485.805" y2="836.166" xlink:href="#Accent_Highlight_Gradient"/>
    <linearGradient id="Accent_Highlight_Gradient-3" data-name="Accent Highlight Gradient" x1="391.349" y1="760.565" x2="1514.622" y2="760.565" xlink:href="#Accent_Highlight_Gradient"/>
    <linearGradient id="Accent_Highlight_Gradient-4" data-name="Accent Highlight Gradient" x1="362.568" y1="692.166" x2="1543.403" y2="692.166" xlink:href="#Accent_Highlight_Gradient"/>
    <linearGradient id="Accent_Highlight_Gradient-5" data-name="Accent Highlight Gradient" x1="348.151" y1="616.565" x2="1557.82" y2="616.565" xlink:href="#Accent_Highlight_Gradient"/>
    <linearGradient id="Accent_Highlight_Gradient-6" data-name="Accent Highlight Gradient" x1="333.769" y1="548.166" x2="1572.202" y2="548.166" xlink:href="#Accent_Highlight_Gradient"/>
    <linearGradient id="Accent_Highlight_Gradient-7" data-name="Accent Highlight Gradient" x1="326.536" y1="468.965" x2="1579.435" y2="468.965" xlink:href="#Accent_Highlight_Gradient"/>
    <linearGradient id="Accent_Highlight_Gradient-8" data-name="Accent Highlight Gradient" x1="319.369" y1="404.166" x2="1586.602" y2="404.166" xlink:href="#Accent_Highlight_Gradient"/>
    <linearGradient id="Accent_Highlight_Gradient-9" data-name="Accent Highlight Gradient" x1="312.153" y1="328.565" x2="1593.818" y2="328.565" xlink:href="#Accent_Highlight_Gradient"/>
    <linearGradient id="Accent_Highlight_Gradient-10" data-name="Accent Highlight Gradient" x1="304.938" y1="252.965" x2="1601.033" y2="252.965" xlink:href="#Accent_Highlight_Gradient"/>
    <linearGradient id="Accent_Highlight_Gradient-11" data-name="Accent Highlight Gradient" x1="520.269" y1="587.757" x2="539.705" y2="587.757" xlink:href="#Accent_Highlight_Gradient"/>
    <linearGradient id="Accent_Highlight_Gradient-12" data-name="Accent Highlight Gradient" x1="664.272" y1="587.754" x2="690.905" y2="587.754" xlink:href="#Accent_Highlight_Gradient"/>
    <linearGradient id="Accent_Highlight_Gradient-13" data-name="Accent Highlight Gradient" x1="808.268" y1="587.759" x2="824.105" y2="587.759" xlink:href="#Accent_Highlight_Gradient"/>
    <linearGradient id="Accent_Highlight_Gradient-14" data-name="Accent Highlight Gradient" x1="952.268" y1="587.759" x2="968.105" y2="587.759" xlink:href="#Accent_Highlight_Gradient"/>
    <linearGradient id="Accent_Highlight_Gradient-15" data-name="Accent Highlight Gradient" x1="1081.865" y1="587.759" x2="1097.703" y2="587.759" xlink:href="#Accent_Highlight_Gradient"/>
    <linearGradient id="Accent_Highlight_Gradient-16" data-name="Accent Highlight Gradient" x1="1215.065" y1="587.754" x2="1241.698" y2="587.754" xlink:href="#Accent_Highlight_Gradient"/>
    <linearGradient id="Accent_Highlight_Gradient-17" data-name="Accent Highlight Gradient" x1="1366.265" y1="587.757" x2="1385.702" y2="587.757" xlink:href="#Accent_Highlight_Gradient"/>
    <linearGradient id="Accent_Highlight_Gradient-18" data-name="Accent Highlight Gradient" x1="808.985" y1="407.766" x2="1096.985" y2="407.766" xlink:href="#Accent_Highlight_Gradient"/>
    <linearGradient id="Accent_Highlight_Gradient-19" data-name="Accent Highlight Gradient" x1="1095.545" y1="551.766" x2="1098.425" y2="551.766" xlink:href="#Accent_Highlight_Gradient"/>
    <linearGradient id="Accent_Highlight_Gradient-20" data-name="Accent Highlight Gradient" x1="808.985" y1="695.766" x2="1096.985" y2="695.766" xlink:href="#Accent_Highlight_Gradient"/>
    <linearGradient id="Accent_Highlight_Gradient-21" data-name="Accent Highlight Gradient" x1="807.545" y1="551.766" x2="810.425" y2="551.766" xlink:href="#Accent_Highlight_Gradient"/>
    <linearGradient id="Accent_Highlight_Gradient-22" data-name="Accent Highlight Gradient" x1="836.767" y1="414.755" x2="1069.204" y2="414.755" xlink:href="#Accent_Highlight_Gradient"/>
    <linearGradient id="Accent_Highlight_Gradient-23" data-name="Accent Highlight Gradient" x1="836.767" y1="688.777" x2="1069.204" y2="688.777" xlink:href="#Accent_Highlight_Gradient"/>
    <linearGradient id="Accent_Highlight_Gradient-24" data-name="Accent Highlight Gradient" x1="793.145" y1="551.766" x2="838.804" y2="551.766" xlink:href="#Accent_Highlight_Gradient"/>
    <linearGradient id="Accent_Highlight_Gradient-25" data-name="Accent Highlight Gradient" x1="1067.167" y1="551.766" x2="1112.825" y2="551.766" xlink:href="#Accent_Highlight_Gradient"/>
    <radialGradient id="radial-gradient-5" cx="2980.385" cy="2638.759" fx="2980.385" fy="2638.759" r=".72" gradientTransform="translate(-177870.132 158877.323) scale(60 -60)" gradientUnits="userSpaceOnUse">
      <stop offset="0" stop-color="#fff" stop-opacity=".9"/>
      <stop offset=".4" stop-color="#bf4080" stop-opacity=".7"/>
      <stop offset="1" stop-color="#6a3093" stop-opacity=".5"/>
    </radialGradient>
    <linearGradient id="Accent_Highlight_Gradient-26" data-name="Accent Highlight Gradient" x1="880.265" y1="551.766" x2="1025.705" y2="551.766" xlink:href="#Accent_Highlight_Gradient"/>
    <linearGradient id="Accent_Highlight_Gradient-27" data-name="Accent Highlight Gradient" x1="326.741" y1="378.966" x2="809.485" y2="378.966" xlink:href="#Accent_Highlight_Gradient"/>
    <linearGradient id="Accent_Highlight_Gradient-28" data-name="Accent Highlight Gradient" x1="596.904" y1="558.966" x2="802.362" y2="558.966" xlink:href="#Accent_Highlight_Gradient"/>
    <linearGradient id="Accent_Highlight_Gradient-29" data-name="Accent Highlight Gradient" x1="341.775" y1="878.423" x2="1529.485" y2="878.423" xlink:href="#Accent_Highlight_Gradient"/>
    <radialGradient id="New_Gradient_Swatch" data-name="New Gradient Swatch" cx="334.985" cy="84.78" fx="334.985" fy="84.78" r="227.389" gradientUnits="userSpaceOnUse">
      <stop offset="0" stop-color="#131a36" stop-opacity=".2"/>
      <stop offset="1" stop-color="#050008" stop-opacity=".8"/>
    </radialGradient>
    <linearGradient id="Accent_Highlight_Gradient-30" data-name="Accent Highlight Gradient" x1="19.625" y1="84.78" x2="650.345" y2="84.78" xlink:href="#Accent_Highlight_Gradient"/>
  </defs>
  <g isolation="isolate">
    <g id="Background_logo_footer" data-name="Background + logo footer">
      <rect y="0" width="1920" height="1080" fill="url(#Spatial_Background_Gradient)"/>
    </g>
    <g id="Depth_Layers" data-name="Depth Layers">
      <rect y="-3" width="1920" height="1080" fill="url(#radial-gradient)"/>
      <rect x="-22.876" y="166.102" width="1286.421" height="578.637" transform="translate(79.032 -91.584) rotate(9.016)" fill="url(#radial-gradient-2)" mix-blend-mode="color" opacity=".28"/>
      <rect x="809.398" y="162.291" width="1274.455" height="794.621" transform="translate(-104.439 568.348) rotate(-21.471)" fill="url(#radial-gradient-3)" mix-blend-mode="color" opacity=".28"/>
      <rect y="-3" width="1920" height="1084.314" fill="url(#radial-gradient-4)"/>
    </g>
    <g id="Content">
      <g opacity=".12">
        <path d="M448.985,911.766c336-19.2,672-19.2,1008,0" stroke="url(#Accent_Highlight_Gradient)" stroke-width="1.44"/>
        <path d="M420.185,839.766c355.2-9.6,710.4-9.6,1065.6,0" stroke="url(#Accent_Highlight_Gradient-2)" stroke-width="1.44"/>
        <path d="M391.385,767.766c374.4-19.2,748.8-19.2,1123.2,0" stroke="url(#Accent_Highlight_Gradient-3)" stroke-width="1.44"/>
        <path d="M362.585,695.766c393.6-9.6,787.2-9.6,1180.8,0" stroke="url(#Accent_Highlight_Gradient-4)" stroke-width="1.44"/>
        <path d="M348.185,623.766c403.2-19.2,806.4-19.2,1209.6,0" stroke="url(#Accent_Highlight_Gradient-5)" stroke-width="1.44"/>
        <path d="M333.785,551.766c412.8-9.6,825.6-9.6,1238.4,0" stroke="url(#Accent_Highlight_Gradient-6)" stroke-width="1.44"/>
        <path d="M326.585,479.766c417.6-28.8,835.2-28.8,1252.8,0" stroke="url(#Accent_Highlight_Gradient-7)" stroke-width="1.44"/>
        <path d="M319.385,407.766c422.4-9.6,844.8-9.6,1267.2,0" stroke="url(#Accent_Highlight_Gradient-8)" stroke-width="1.44"/>
        <path d="M312.185,335.766c427.2-19.2,854.4-19.2,1281.6,0" stroke="url(#Accent_Highlight_Gradient-9)" stroke-width="1.44"/>
        <path d="M304.985,263.766c432-28.8,864-28.8,1296,0" stroke="url(#Accent_Highlight_Gradient-10)" stroke-width="1.44"/>
        <path d="M520.985,263.766c24,192,24,408,0,648" stroke="url(#Accent_Highlight_Gradient-11)" stroke-width="1.44"/>
        <path d="M664.985,263.766c33.6,192,33.6,408,0,648" stroke="url(#Accent_Highlight_Gradient-12)" stroke-width="1.44"/>
        <path d="M808.985,263.766c19.2,192,19.2,408,0,648" stroke="url(#Accent_Highlight_Gradient-13)" stroke-width="1.44"/>
        <path d="M952.985,263.766c19.2,192,19.2,408,0,648" stroke="url(#Accent_Highlight_Gradient-14)" stroke-width="1.44"/>
        <path d="M1096.985,263.766c-19.2,192-19.2,408,0,648" stroke="url(#Accent_Highlight_Gradient-15)" stroke-width="1.44"/>
        <path d="M1240.985,263.766c-33.6,192-33.6,408,0,648" stroke="url(#Accent_Highlight_Gradient-16)" stroke-width="1.44"/>
        <path d="M1384.985,263.766c-24,192-24,408,0,648" stroke="url(#Accent_Highlight_Gradient-17)" stroke-width="1.44"/>
      </g>
      <text transform="translate(677.657 191.766)" fill="#fff" font-family="SF Pro Medium, &apos;SF Pro &apos;" font-size="30" font-weight="500" isolation="isolate"><tspan x="0" y="0">Q</tspan><tspan x="20.91" y="0" letter-spacing="-.002em">u</tspan><tspan x="37.919" y="0">a</tspan><tspan x="53.639" y="0" letter-spacing="-.006em">n</tspan><tspan x="70.439" y="0">tum </tspan><tspan x="131.307" y="0" letter-spacing="-.014em">S</tspan><tspan x="149.007" y="0" letter-spacing="-.003em">t</tspan><tspan x="160.047" y="0" letter-spacing="-.006em">a</tspan><tspan x="175.587" y="0" letter-spacing="-.019em">t</tspan><tspan x="186.146" y="0" letter-spacing="0em">e 4D </tspan><tspan x="252.505" y="0" letter-spacing="-.016em">H</tspan><tspan x="271.975" y="0" letter-spacing="-.011em">y</tspan><tspan x="288.025" y="0">p</tspan><tspan x="305.185" y="0" letter-spacing="-.005em">e</tspan><tspan x="321.205" y="0" letter-spacing="-.007em">r</tspan><tspan x="334.885" y="0" letter-spacing="-.005em">c</tspan><tspan x="350.755" y="0" letter-spacing="0em">ube</tspan></text>
      <text transform="translate(677.657 230.825)" fill="#36eae8" font-family="SF Pro Regular, &apos;SF Pro &apos;" font-size="24" isolation="isolate"><tspan x="0" y="0" letter-spacing="-.021em">A</tspan><tspan x="15.648" y="0" letter-spacing="-.01em">d</tspan><tspan x="28.608" y="0" letter-spacing="-.022em">v</tspan><tspan x="40.296" y="0">a</tspan><tspan x="52.32" y="0" letter-spacing="-.002em">n</tspan><tspan x="65.207" y="0">ced S</tspan><tspan x="121.99" y="0" letter-spacing="0em">p</tspan><tspan x="135.214" y="0" letter-spacing="-.008em">a</tspan><tspan x="147.045" y="0" letter-spacing="-.006em">t</tspan><tspan x="155.085" y="0">ial Man</tspan><tspan x="225.092" y="0" letter-spacing="-.006em">i</tspan><tspan x="229.195" y="0" letter-spacing="-.026em">f</tspan><tspan x="235.627" y="0">e</tspan><tspan x="248.203" y="0" letter-spacing="-.006em">st</tspan><tspan x="267.715" y="0" letter-spacing="-.008em">a</tspan><tspan x="279.547" y="0" letter-spacing="-.006em">t</tspan><tspan x="287.587" y="0" letter-spacing="-.005em">io</tspan><tspan x="304.746" y="0" letter-spacing="0em">n</tspan></text>
      <g>
        <g>
          <circle cx="808.985" cy="407.766" r="7.2" fill="#5ac8fa" isolation="isolate" opacity=".8"/>
          <circle cx="1096.985" cy="407.766" r="7.2" fill="#5ac8fa" isolation="isolate" opacity=".8"/>
          <circle cx="1096.985" cy="695.766" r="7.2" fill="#5ac8fa" isolation="isolate" opacity=".8"/>
          <circle cx="808.985" cy="695.766" r="7.2" fill="#5ac8fa" isolation="isolate" opacity=".8"/>
          <line x1="808.985" y1="407.766" x2="1096.985" y2="407.766" fill="none" isolation="isolate" opacity=".6" stroke="url(#Accent_Highlight_Gradient-18)" stroke-width="2.88"/>
          <line x1="1096.985" y1="407.766" x2="1096.985" y2="695.766" fill="none" isolation="isolate" opacity=".6" stroke="url(#Accent_Highlight_Gradient-19)" stroke-width="2.88"/>
          <line x1="1096.985" y1="695.766" x2="808.985" y2="695.766" fill="none" isolation="isolate" opacity=".6" stroke="url(#Accent_Highlight_Gradient-20)" stroke-width="2.88"/>
          <line x1="808.985" y1="695.766" x2="808.985" y2="407.766" fill="none" isolation="isolate" opacity=".6" stroke="url(#Accent_Highlight_Gradient-21)" stroke-width="2.88"/>
        </g>
        <g>
          <circle cx="866.585" cy="465.366" r="7.2" fill="#bf4080" isolation="isolate" opacity=".8"/>
          <circle cx="1039.385" cy="465.366" r="7.2" fill="#bf4080" isolation="isolate" opacity=".8"/>
          <circle cx="1039.385" cy="638.166" r="7.2" fill="#bf4080" isolation="isolate" opacity=".8"/>
          <circle cx="866.585" cy="638.166" r="7.2" fill="#bf4080" isolation="isolate" opacity=".8"/>
          <line x1="866.585" y1="465.366" x2="1039.385" y2="465.366" fill="none" isolation="isolate" opacity=".7" stroke="#bf4080" stroke-width="2.88"/>
          <line x1="1039.385" y1="465.366" x2="1039.385" y2="638.166" fill="none" isolation="isolate" opacity=".7" stroke="#bf4080" stroke-width="2.88"/>
          <line x1="1039.385" y1="638.166" x2="866.585" y2="638.166" fill="none" isolation="isolate" opacity=".7" stroke="#bf4080" stroke-width="2.88"/>
          <line x1="866.585" y1="638.166" x2="866.585" y2="465.366" fill="none" isolation="isolate" opacity=".7" stroke="#bf4080" stroke-width="2.88"/>
        </g>
        <line x1="808.985" y1="407.766" x2="866.585" y2="465.366" fill="none" isolation="isolate" opacity=".7" stroke="#6a3093" stroke-width="2.88"/>
        <line x1="1096.985" y1="407.766" x2="1039.385" y2="465.366" fill="none" isolation="isolate" opacity=".7" stroke="#6a3093" stroke-width="2.88"/>
        <line x1="1096.985" y1="695.766" x2="1039.385" y2="638.166" fill="none" isolation="isolate" opacity=".7" stroke="#6a3093" stroke-width="2.88"/>
        <line x1="808.985" y1="695.766" x2="866.585" y2="638.166" fill="none" isolation="isolate" opacity=".7" stroke="#6a3093" stroke-width="2.88"/>
        <g>
          <path d="M837.785,436.566c57.6-57.6,172.8-57.6,230.4,0" fill="none" isolation="isolate" opacity=".5" stroke="url(#Accent_Highlight_Gradient-22)" stroke-width="2.88"/>
          <path d="M837.785,666.966c57.6,57.6,172.8,57.6,230.4,0" fill="none" isolation="isolate" opacity=".5" stroke="url(#Accent_Highlight_Gradient-23)" stroke-width="2.88"/>
          <path d="M837.785,436.566c-57.6,57.6-57.6,172.8,0,230.4" fill="none" isolation="isolate" opacity=".5" stroke="url(#Accent_Highlight_Gradient-24)" stroke-width="2.88"/>
          <path d="M1068.185,436.566c57.6,57.6,57.6,172.8,0,230.4" fill="none" isolation="isolate" opacity=".5" stroke="url(#Accent_Highlight_Gradient-25)" stroke-width="2.88"/>
        </g>
        <g>
          <circle cx="952.985" cy="551.766" r="43.2" fill="url(#radial-gradient-5)" isolation="isolate" opacity=".8"/>
          <circle cx="952.985" cy="551.766" r="72" fill="none" isolation="isolate" opacity=".5" stroke="url(#Accent_Highlight_Gradient-26)" stroke-width="1.44"/>
          <circle cx="952.985" cy="551.766" r="100.8" fill="none" isolation="isolate" opacity=".3" stroke="#bf4080" stroke-width="1.44"/>
        </g>
        <g>
          <circle cx="837.785" cy="436.566" r="5.76" fill="#fff" isolation="isolate" opacity=".8"/>
          <circle cx="1068.185" cy="436.566" r="5.76" fill="#fff" isolation="isolate" opacity=".8"/>
          <circle cx="1068.185" cy="666.966" r="5.76" fill="#fff" isolation="isolate" opacity=".8"/>
          <circle cx="837.785" cy="666.966" r="5.76" fill="#fff" isolation="isolate" opacity=".8"/>
        </g>
        <g opacity=".3">
          <ellipse cx="952.985" cy="551.766" rx="172.8" ry="57.6" fill="none" stroke="#6a3093" stroke-width="1.44"/>
          <ellipse cx="952.985" cy="551.766" rx="57.6" ry="172.8" fill="none" stroke="#bf4080" stroke-width="1.44"/>
        </g>
      </g>
      <g>
        <rect x="327.241" y="335.766" width="481.745" height="86.4" rx="14.4" ry="14.4" fill="#131a36" isolation="isolate" opacity=".8" stroke="url(#Accent_Highlight_Gradient-27)"/>
        <text transform="translate(540.309 373.766)" fill="#fff" font-family="SF Pro Medium, &apos;SF Pro &apos;" font-size="23.04" font-weight="500" isolation="isolate"><tspan x="0" y="0">4D </tspan><tspan x="34.214" y="0" letter-spacing="-.06em">T</tspan><tspan x="46.079" y="0">e</tspan><tspan x="58.498" y="0" letter-spacing="-.003em">s</tspan><tspan x="69.833" y="0">s</tspan><tspan x="81.238" y="0" letter-spacing="-.005em">e</tspan><tspan x="93.541" y="0" letter-spacing="-.019em">r</tspan><tspan x="103.771" y="0" letter-spacing="-.002em">a</tspan><tspan x="115.798" y="0" letter-spacing="-.01em">c</tspan><tspan x="127.871" y="0">t </tspan><tspan x="140.75" y="0" letter-spacing="-.005em">P</tspan><tspan x="154.62" y="0" letter-spacing="-.007em">r</tspan><tspan x="165.126" y="0" letter-spacing="0em">o</tspan><tspan x="177.982" y="0" letter-spacing="-.005em">j</tspan><tspan x="182.844" y="0">e</tspan><tspan x="195.262" y="0" letter-spacing="-.01em">c</tspan><tspan x="207.335" y="0" letter-spacing="-.004em">t</tspan><tspan x="215.791" y="0" letter-spacing="-.005em">io</tspan><tspan x="233.048" y="0">n</tspan></text>
        <text transform="translate(362.075 399.766)" fill="#36eae8" font-family="SF Pro Regular, &apos;SF Pro &apos;" font-size="17.28" isolation="isolate"><tspan x="0" y="0" letter-spacing=".003em">I</tspan><tspan x="3.456" y="0">n</tspan><tspan x="12.769" y="0" letter-spacing="-.002em">n</tspan><tspan x="22.049" y="0" letter-spacing="-.005em">e</tspan><tspan x="31.017" y="0">r a</tspan><tspan x="50.301" y="0" letter-spacing="-.002em">n</tspan><tspan x="59.58" y="0">d </tspan><tspan x="72.281" y="0" letter-spacing="-.005em">o</tspan><tspan x="81.664" y="0" letter-spacing="-.008em">u</tspan><tspan x="90.96" y="0" letter-spacing="-.022em">t</tspan><tspan x="96.472" y="0" letter-spacing="-.005em">e</tspan><tspan x="105.441" y="0" letter-spacing="0em">r </tspan><tspan x="116.068" y="0" letter-spacing="-.005em">c</tspan><tspan x="124.932" y="0">ubes </tspan><tspan x="164.486" y="0" letter-spacing="-.009em">r</tspan><tspan x="171.76" y="0" letter-spacing="-.005em">ep</tspan><tspan x="190.146" y="0" letter-spacing="-.009em">r</tspan><tspan x="197.421" y="0">es</tspan><tspan x="214.839" y="0" letter-spacing="-.005em">e</tspan><tspan x="223.808" y="0" letter-spacing="-.008em">n</tspan><tspan x="232.983" y="0">t 3D </tspan><tspan x="266.523" y="0" letter-spacing="-.005em">s</tspan><tspan x="274.8" y="0" letter-spacing="-.002em">ha</tspan><tspan x="292.823" y="0" letter-spacing="-.004em">d</tspan><tspan x="302.258" y="0" letter-spacing="-.025em">o</tspan><tspan x="311.295" y="0" letter-spacing="-.009em">w</tspan><tspan x="324.462" y="0">s </tspan><tspan x="336.022" y="0" letter-spacing="-.01em">o</tspan><tspan x="345.319" y="0">f 4D </tspan><tspan x="378.583" y="0" letter-spacing="-.004em">o</tspan><tspan x="387.983" y="0" letter-spacing="0em">b</tspan><tspan x="397.469" y="0" letter-spacing="-.005em">j</tspan><tspan x="400.597" y="0">e</tspan><tspan x="409.652" y="0" letter-spacing="-.01em">c</tspan><tspan x="418.43" y="0">t</tspan></text>
        <path d="M597.481,422.166l204.305,273.6" stroke="url(#Accent_Highlight_Gradient-28)" stroke-dasharray="5.76 5.76" stroke-width="1.44"/>
      </g>
      <g>
        <rect x="1096.985" y="335.766" width="432" height="86.4" rx="14.4" ry="14.4" fill="#131a36" isolation="isolate" opacity=".8" stroke="#bf4080"/>
        <text transform="translate(1114.514 373.766)" fill="#fff" font-family="SF Pro Medium, &apos;SF Pro &apos;" font-size="23.04" font-weight="500" isolation="isolate"><tspan x="0" y="0">C</tspan><tspan x="15.529" y="0" letter-spacing="-.007em">r</tspan><tspan x="26.035" y="0">o</tspan><tspan x="38.892" y="0" letter-spacing="-.003em">s</tspan><tspan x="50.227" y="0" letter-spacing="-.005em">s</tspan><tspan x="61.517" y="0">-</tspan><tspan x="69.927" y="0" letter-spacing=".004em">D</tspan><tspan x="85.363" y="0">i</tspan><tspan x="89.994" y="0" letter-spacing="-.002em">m</tspan><tspan x="110.706" y="0" letter-spacing="-.005em">e</tspan><tspan x="123.01" y="0" letter-spacing="-.003em">ns</tspan><tspan x="147.317" y="0" letter-spacing="-.005em">io</tspan><tspan x="164.574" y="0" letter-spacing="-.002em">n</tspan><tspan x="177.569" y="0">al E</tspan><tspan x="212.151" y="0" letter-spacing="-.002em">n</tspan><tspan x="225.145" y="0" letter-spacing="-.005em">e</tspan><tspan x="237.448" y="0" letter-spacing="-.007em">r</tspan><tspan x="247.955" y="0" letter-spacing="-.012em">g</tspan><tspan x="260.857" y="0">y </tspan><tspan x="277.768" y="0" letter-spacing="-.04em">T</tspan><tspan x="290.095" y="0" letter-spacing="-.019em">r</tspan><tspan x="300.324" y="0" letter-spacing="0em">a</tspan><tspan x="312.397" y="0" letter-spacing="-.003em">n</tspan><tspan x="325.369" y="0" letter-spacing="-.006em">s</tspan><tspan x="336.635" y="0" letter-spacing="-.023em">f</tspan><tspan x="343.501" y="0" letter-spacing="-.005em">e</tspan><tspan x="355.805" y="0">r</tspan></text>
        <text transform="translate(1114.514 399.766)" fill="#bf4080" font-family="SF Pro Regular, &apos;SF Pro &apos;" font-size="17.28" isolation="isolate"><tspan x="0" y="0">E</tspan><tspan x="9.573" y="0" letter-spacing="-.002em">n</tspan><tspan x="18.852" y="0" letter-spacing="-.005em">e</tspan><tspan x="27.82" y="0" letter-spacing="-.009em">r</tspan><tspan x="35.095" y="0" letter-spacing="-.014em">g</tspan><tspan x="44.357" y="0">y </tspan><tspan x="56.349" y="0" letter-spacing="0em">p</tspan><tspan x="65.87" y="0" letter-spacing="-.008em">a</tspan><tspan x="74.389" y="0" letter-spacing=".003em">t</tspan><tspan x="80.333" y="0" letter-spacing="-.017em">h</tspan><tspan x="89.474" y="0" letter-spacing="-.022em">w</tspan><tspan x="102.417" y="0" letter-spacing="-.025em">a</tspan><tspan x="110.642" y="0" letter-spacing="-.024em">y</tspan><tspan x="119.023" y="0" letter-spacing="0em">s </tspan><tspan x="130.583" y="0" letter-spacing=".003em">t</tspan><tspan x="136.527" y="0" letter-spacing="-.002em">h</tspan><tspan x="145.927" y="0" letter-spacing="-.008em">a</tspan><tspan x="154.446" y="0">t </tspan><tspan x="163.535" y="0" letter-spacing="-.027em">e</tspan><tspan x="172.123" y="0" letter-spacing="-.009em">x</tspan><tspan x="180.798" y="0" letter-spacing="-.003em">i</tspan><tspan x="183.804" y="0" letter-spacing="-.006em">s</tspan><tspan x="192.064" y="0">t </tspan><tspan x="201.153" y="0" letter-spacing="-.005em">o</tspan><tspan x="210.536" y="0">n</tspan><tspan x="219.85" y="0" letter-spacing="-.009em">l</tspan><tspan x="222.874" y="0" letter-spacing="0em">y in h</tspan><tspan x="259.87" y="0" letter-spacing="-.005em">i</tspan><tspan x="262.842" y="0">g</tspan><tspan x="272.345" y="0" letter-spacing="-.002em">h</tspan><tspan x="281.746" y="0" letter-spacing="-.005em">e</tspan><tspan x="290.714" y="0">r di</tspan><tspan x="313.903" y="0" letter-spacing="-.002em">m</tspan><tspan x="329.04" y="0" letter-spacing="-.005em">e</tspan><tspan x="338.008" y="0" letter-spacing="-.003em">ns</tspan><tspan x="355.582" y="0" letter-spacing="-.005em">io</tspan><tspan x="367.937" y="0" letter-spacing="-.003em">n</tspan><tspan x="377.199" y="0" letter-spacing="0em">s</tspan></text>
        <path d="M1308.123,422.166l-209.215,273.723" stroke="#bf4080" stroke-dasharray="5.76 5.76" stroke-width="1.44"/>
      </g>
      <g>
        <rect x="331.015" y="681.366" width="477.971" height="86.4" rx="14.4" ry="14.4" fill="#131a36" isolation="isolate" opacity=".8" stroke="#6a3093"/>
        <text transform="translate(480.845 717.366)" fill="#fff" font-family="SF Pro Medium, &apos;SF Pro &apos;" font-size="23.04" font-weight="500" isolation="isolate"><tspan x="0" y="0">Q</tspan><tspan x="16.059" y="0" letter-spacing="-.002em">u</tspan><tspan x="29.122" y="0" letter-spacing="0em">a</tspan><tspan x="41.195" y="0" letter-spacing="-.006em">n</tspan><tspan x="54.097" y="0">tum </tspan><tspan x="100.844" y="0" letter-spacing="-.014em">S</tspan><tspan x="114.438" y="0" letter-spacing="-.003em">t</tspan><tspan x="122.916" y="0" letter-spacing="-.006em">a</tspan><tspan x="134.851" y="0" letter-spacing="-.019em">t</tspan><tspan x="142.96" y="0">e Sup</tspan><tspan x="199.914" y="0" letter-spacing="-.005em">e</tspan><tspan x="212.217" y="0" letter-spacing="-.009em">r</tspan><tspan x="222.677" y="0">po</tspan><tspan x="248.712" y="0" letter-spacing="-.003em">s</tspan><tspan x="260.048" y="0" letter-spacing="-.004em">it</tspan><tspan x="273.042" y="0" letter-spacing="-.005em">io</tspan><tspan x="290.3" y="0">n</tspan></text>
        <text transform="translate(359.812 746.366)" fill="#bf4080" font-family="SF Pro Regular, &apos;SF Pro &apos;" font-size="17.28" isolation="isolate"><tspan x="0" y="0" letter-spacing=".003em">O</tspan><tspan x="11.923" y="0" letter-spacing="0em">b</tspan><tspan x="21.41" y="0" letter-spacing="-.005em">j</tspan><tspan x="24.537" y="0">e</tspan><tspan x="33.592" y="0" letter-spacing="-.01em">c</tspan><tspan x="42.37" y="0">t </tspan><tspan x="51.459" y="0" letter-spacing="-.027em">e</tspan><tspan x="60.047" y="0" letter-spacing="-.009em">x</tspan><tspan x="68.722" y="0" letter-spacing="-.003em">i</tspan><tspan x="71.728" y="0" letter-spacing="-.006em">s</tspan><tspan x="79.988" y="0" letter-spacing="-.013em">t</tspan><tspan x="85.656" y="0">s in mu</tspan><tspan x="137.391" y="0" letter-spacing="-.007em">l</tspan><tspan x="140.45" y="0" letter-spacing="-.006em">t</tspan><tspan x="146.238" y="0">i</tspan><tspan x="149.297" y="0" letter-spacing="-.004em">pl</tspan><tspan x="161.842" y="0">e di</tspan><tspan x="186.655" y="0" letter-spacing="-.002em">m</tspan><tspan x="201.792" y="0" letter-spacing="-.005em">e</tspan><tspan x="210.76" y="0" letter-spacing="-.003em">ns</tspan><tspan x="228.334" y="0" letter-spacing="-.005em">io</tspan><tspan x="240.689" y="0" letter-spacing="-.002em">n</tspan><tspan x="249.969" y="0" letter-spacing="0em">al </tspan><tspan x="265.002" y="0" letter-spacing="-.006em">st</tspan><tspan x="279.05" y="0" letter-spacing="-.008em">a</tspan><tspan x="287.569" y="0" letter-spacing="-.022em">t</tspan><tspan x="293.082" y="0">es </tspan><tspan x="313.696" y="0" letter-spacing="-.003em">s</tspan><tspan x="322.008" y="0">imu</tspan><tspan x="349.673" y="0" letter-spacing="-.007em">l</tspan><tspan x="352.731" y="0" letter-spacing="-.006em">t</tspan><tspan x="358.52" y="0">a</tspan><tspan x="367.177" y="0" letter-spacing="-.002em">n</tspan><tspan x="376.456" y="0">e</tspan><tspan x="385.51" y="0" letter-spacing="-.005em">o</tspan><tspan x="394.894" y="0" letter-spacing="-.003em">u</tspan><tspan x="404.277" y="0" letter-spacing="-.005em">s</tspan><tspan x="412.554" y="0" letter-spacing="-.009em">l</tspan><tspan x="415.578" y="0">y</tspan></text>
        <path d="M592.985,767.766l72,100.8" stroke="#6a3093" stroke-dasharray="5.76 5.76" stroke-width="1.44"/>
      </g>
      <g>
        <rect x="1096.985" y="681.366" width="432" height="86.4" rx="14.4" ry="14.4" fill="#131a36" isolation="isolate" opacity=".8" stroke="#6a3093"/>
        <text transform="translate(1124.09 717.366)" fill="#fff" font-family="SF Pro Medium, &apos;SF Pro &apos;" font-size="23.04" font-weight="500" isolation="isolate"><tspan x="0" y="0" letter-spacing="-.021em">A</tspan><tspan x="15.552" y="0" letter-spacing="0em">R S</tspan><tspan x="48.038" y="0" letter-spacing="0em">p</tspan><tspan x="61.194" y="0" letter-spacing="-.006em">a</tspan><tspan x="73.128" y="0" letter-spacing="-.004em">t</tspan><tspan x="81.583" y="0">ial </tspan><tspan x="107.549" y="0" letter-spacing=".003em">I</tspan><tspan x="112.686" y="0" letter-spacing="-.006em">n</tspan><tspan x="125.588" y="0" letter-spacing="-.019em">t</tspan><tspan x="133.698" y="0" letter-spacing="-.005em">e</tspan><tspan x="146.001" y="0" letter-spacing=".002em">r</tspan><tspan x="156.715" y="0" letter-spacing="-.016em">f</tspan><tspan x="163.742" y="0" letter-spacing="-.002em">a</tspan><tspan x="175.769" y="0" letter-spacing="0em">ce </tspan><tspan x="204.822" y="0" letter-spacing="-.02em">P</tspan><tspan x="218.346" y="0" letter-spacing="-.01em">o</tspan><tspan x="230.972" y="0" letter-spacing="-.019em">t</tspan><tspan x="239.082" y="0" letter-spacing="-.005em">e</tspan><tspan x="251.385" y="0" letter-spacing="-.006em">n</tspan><tspan x="264.288" y="0" letter-spacing="-.004em">t</tspan><tspan x="272.743" y="0">ial</tspan></text>
        <text transform="translate(1124.09 747.366)" fill="#fff" font-family="SF Pro Regular, &apos;SF Pro &apos;" font-size="17.28" isolation="isolate"><tspan x="0" y="0" letter-spacing="-.002em">U</tspan><tspan x="11.681" y="0" letter-spacing="0em">s</tspan><tspan x="20.045" y="0" letter-spacing="-.005em">e</tspan><tspan x="29.013" y="0">rs </tspan><tspan x="48.003" y="0" letter-spacing="0em">c</tspan><tspan x="56.971" y="0">an i</tspan><tspan x="81.197" y="0" letter-spacing="-.008em">n</tspan><tspan x="90.373" y="0" letter-spacing="-.022em">t</tspan><tspan x="95.885" y="0" letter-spacing="-.005em">e</tspan><tspan x="104.853" y="0" letter-spacing="-.021em">r</tspan><tspan x="111.921" y="0" letter-spacing="-.002em">a</tspan><tspan x="120.543" y="0" letter-spacing="-.01em">c</tspan><tspan x="129.322" y="0">t </tspan><tspan x="138.411" y="0" letter-spacing="-.01em">w</tspan><tspan x="151.561" y="0" letter-spacing="-.006em">i</tspan><tspan x="154.515" y="0" letter-spacing=".003em">t</tspan><tspan x="160.459" y="0" letter-spacing="0em">h d</tspan><tspan x="182.594" y="0" letter-spacing="-.006em">i</tspan><tspan x="185.549" y="0" letter-spacing="-.026em">ff</tspan><tspan x="194.846" y="0" letter-spacing="-.005em">e</tspan><tspan x="203.814" y="0" letter-spacing="-.009em">r</tspan><tspan x="211.089" y="0" letter-spacing="-.005em">e</tspan><tspan x="220.058" y="0" letter-spacing="-.008em">n</tspan><tspan x="229.233" y="0" letter-spacing="0em">t di</tspan><tspan x="250.884" y="0" letter-spacing="-.002em">m</tspan><tspan x="266.021" y="0" letter-spacing="-.005em">e</tspan><tspan x="274.99" y="0" letter-spacing="-.003em">ns</tspan><tspan x="292.563" y="0" letter-spacing="-.005em">io</tspan><tspan x="304.918" y="0" letter-spacing="-.002em">n</tspan><tspan x="314.198" y="0" letter-spacing="0em">al </tspan><tspan x="329.231" y="0" letter-spacing="-.004em">p</tspan><tspan x="338.666" y="0" letter-spacing="-.003em">l</tspan><tspan x="341.793" y="0">a</tspan><tspan x="350.45" y="0" letter-spacing="-.002em">n</tspan><tspan x="359.729" y="0" letter-spacing="0em">es</tspan></text>
        <path d="M1312.985,767.766l-72,100.8" stroke="#fff" stroke-dasharray="5.76 5.76" stroke-width="1.44"/>
      </g>
      <g>
        <rect x="342.275" y="830.766" width="1186.71" height="95.315" rx="14.4" ry="14.4" fill="#131a36" isolation="isolate" opacity=".9" stroke="url(#Accent_Highlight_Gradient-29)"/>
        <text transform="translate(387.684 875.766)" fill="#fff" font-family="SF Pro Medium, &apos;SF Pro &apos;" font-size="25.92" font-weight="500" isolation="isolate"><tspan x="0" y="0" letter-spacing=".003em">I</tspan><tspan x="5.78" y="0">m</tspan><tspan x="29.133" y="0" letter-spacing="-.002em">m</tspan><tspan x="52.435" y="0" letter-spacing="-.005em">e</tspan><tspan x="66.276" y="0" letter-spacing="0em">r</tspan><tspan x="78.277" y="0" letter-spacing="-.003em">s</tspan><tspan x="91.03" y="0" letter-spacing="-.012em">i</tspan><tspan x="95.928" y="0" letter-spacing="-.027em">v</tspan><tspan x="109.407" y="0">e </tspan><tspan x="128.25" y="0" letter-spacing="-.021em">A</tspan><tspan x="145.746" y="0">R </tspan><tspan x="166.637" y="0" letter-spacing="-.008em">E</tspan><tspan x="181.334" y="0" letter-spacing="-.011em">x</tspan><tspan x="194.89" y="0">p</tspan><tspan x="209.716" y="0" letter-spacing="-.005em">e</tspan><tspan x="223.558" y="0" letter-spacing="-.013em">r</tspan><tspan x="235.222" y="0" letter-spacing="-.005em">ie</tspan><tspan x="254.143" y="0" letter-spacing="-.002em">n</tspan><tspan x="268.762" y="0">ce </tspan><tspan x="301.447" y="0" letter-spacing="-.02em">P</tspan><tspan x="316.662" y="0" letter-spacing="-.01em">o</tspan><tspan x="330.866" y="0" letter-spacing="-.019em">t</tspan><tspan x="339.99" y="0" letter-spacing="-.005em">e</tspan><tspan x="353.831" y="0" letter-spacing="-.006em">n</tspan><tspan x="368.346" y="0" letter-spacing="-.004em">t</tspan><tspan x="377.858" y="0">ial</tspan></text>
        <text transform="translate(387.684 904.766)" fill="#36eae8" font-family="SF Pro Regular, &apos;SF Pro &apos;" font-size="20.16" isolation="isolate"><tspan x="0" y="0" letter-spacing="-.002em">U</tspan><tspan x="13.628" y="0" letter-spacing="0em">s</tspan><tspan x="23.385" y="0" letter-spacing="-.005em">e</tspan><tspan x="33.848" y="0">rs i</tspan><tspan x="59.572" y="0" letter-spacing="-.008em">n</tspan><tspan x="70.277" y="0" letter-spacing="-.022em">t</tspan><tspan x="76.708" y="0" letter-spacing="-.005em">e</tspan><tspan x="87.171" y="0" letter-spacing="-.021em">r</tspan><tspan x="95.416" y="0" letter-spacing="-.002em">a</tspan><tspan x="105.476" y="0" letter-spacing="-.01em">c</tspan><tspan x="115.717" y="0">t </tspan><tspan x="126.321" y="0" letter-spacing="-.01em">w</tspan><tspan x="141.663" y="0" letter-spacing="-.006em">i</tspan><tspan x="145.11" y="0" letter-spacing=".003em">t</tspan><tspan x="152.044" y="0">h q</tspan><tspan x="177.869" y="0" letter-spacing="-.002em">u</tspan><tspan x="188.836" y="0" letter-spacing="0em">a</tspan><tspan x="198.936" y="0" letter-spacing="-.008em">n</tspan><tspan x="209.64" y="0">tum</tspan><tspan x="245.222" y="0" letter-spacing="-.002em">-</tspan><tspan x="251.734" y="0" letter-spacing="-.003em">s</tspan><tspan x="261.431" y="0" letter-spacing="0em">p</tspan><tspan x="272.539" y="0" letter-spacing="-.008em">a</tspan><tspan x="282.478" y="0" letter-spacing="-.006em">t</tspan><tspan x="289.231" y="0" letter-spacing="0em">ial </tspan><tspan x="310.338" y="0" letter-spacing="-.004em">el</tspan><tspan x="324.449" y="0" letter-spacing="-.005em">e</tspan><tspan x="334.912" y="0" letter-spacing="-.002em">m</tspan><tspan x="352.572" y="0" letter-spacing="-.005em">e</tspan><tspan x="363.035" y="0" letter-spacing="-.008em">n</tspan><tspan x="373.74" y="0" letter-spacing="-.013em">t</tspan><tspan x="380.353" y="0">s </tspan><tspan x="393.84" y="0" letter-spacing=".003em">t</tspan><tspan x="400.774" y="0" letter-spacing="-.002em">h</tspan><tspan x="411.741" y="0" letter-spacing="-.008em">a</tspan><tspan x="421.68" y="0" letter-spacing="0em">t t</tspan><tspan x="439.158" y="0" letter-spacing="-.021em">r</tspan><tspan x="447.403" y="0">a</tspan><tspan x="457.503" y="0" letter-spacing="-.003em">n</tspan><tspan x="468.309" y="0" letter-spacing="-.006em">s</tspan><tspan x="477.945" y="0" letter-spacing="-.026em">f</tspan><tspan x="483.348" y="0" letter-spacing="-.005em">o</tspan><tspan x="494.295" y="0" letter-spacing="-.011em">r</tspan><tspan x="502.742" y="0" letter-spacing="0em">m </tspan><tspan x="524.172" y="0" letter-spacing="-.002em">a</tspan><tspan x="534.232" y="0" letter-spacing="-.005em">c</tspan><tspan x="544.574" y="0" letter-spacing="-.009em">r</tspan><tspan x="553.062" y="0">o</tspan><tspan x="564.109" y="0" letter-spacing="-.005em">s</tspan><tspan x="573.766" y="0">s di</tspan><tspan x="601.908" y="0" letter-spacing="-.002em">m</tspan><tspan x="619.568" y="0" letter-spacing="-.005em">e</tspan><tspan x="630.031" y="0" letter-spacing="-.003em">ns</tspan><tspan x="650.534" y="0" letter-spacing="-.005em">io</tspan><tspan x="664.948" y="0" letter-spacing="-.002em">n</tspan><tspan x="675.774" y="0">al </tspan><tspan x="693.313" y="0" letter-spacing="-.006em">st</tspan><tspan x="709.703" y="0" letter-spacing="-.008em">a</tspan><tspan x="719.642" y="0" letter-spacing="-.022em">t</tspan><tspan x="726.073" y="0">es </tspan><tspan x="750.123" y="0" letter-spacing=".001em">b</tspan><tspan x="761.231" y="0" letter-spacing="-.003em">a</tspan><tspan x="771.271" y="0">sed </tspan><tspan x="806.409" y="0" letter-spacing="-.005em">o</tspan><tspan x="817.355" y="0" letter-spacing="0em">n </tspan><tspan x="831.951" y="0" letter-spacing="-.005em">p</tspan><tspan x="842.938" y="0" letter-spacing="-.009em">r</tspan><tspan x="851.426" y="0" letter-spacing="-.027em">o</tspan><tspan x="861.929" y="0" letter-spacing="-.009em">x</tspan><tspan x="872.049" y="0">im</tspan><tspan x="893.318" y="0" letter-spacing="-.006em">i</tspan><tspan x="896.765" y="0" letter-spacing="-.023em">t</tspan><tspan x="903.176" y="0" letter-spacing="0em">y a</tspan><tspan x="927.266" y="0" letter-spacing="-.002em">n</tspan><tspan x="938.092" y="0">d </tspan><tspan x="952.909" y="0" letter-spacing="-.005em">g</tspan><tspan x="963.896" y="0">e</tspan><tspan x="974.46" y="0" letter-spacing="-.006em">s</tspan><tspan x="984.097" y="0" letter-spacing="0em">tu</tspan><tspan x="1001.978" y="0" letter-spacing="-.009em">r</tspan><tspan x="1010.465" y="0" letter-spacing="0em">e</tspan></text>
      </g>
    </g>
    <g id="Titles">
      <rect x="20" y="20" width="629.97" height="129.56" rx="18.441" ry="18.441" fill="url(#New_Gradient_Swatch)" isolation="isolate" opacity=".8" stroke="url(#Accent_Highlight_Gradient-30)" stroke-width=".75"/>
      <g isolation="isolate">
        <g isolation="isolate">
          <text transform="translate(58.126 75.84)" fill="#fff" font-family="SF Pro Semibold, &apos;SF Pro &apos;" font-size="30" font-weight="600" isolation="isolate"><tspan x="0" y="0" letter-spacing="-.055em">V</tspan><tspan x="19.29" y="0" letter-spacing="-.005em">o</tspan><tspan x="36.21" y="0">lu</tspan><tspan x="61.11" y="0" letter-spacing="-.003em">m</tspan><tspan x="88.65" y="0" letter-spacing="-.01em">e</tspan><tspan x="104.94" y="0">t</tspan><tspan x="116.939" y="0" letter-spacing="-.01em">r</tspan><tspan x="131.429" y="0" letter-spacing="-.006em">i</tspan><tspan x="138.089" y="0" letter-spacing="0em">c 4D </tspan><tspan x="205.918" y="0" letter-spacing="-.055em">V</tspan><tspan x="225.208" y="0" letter-spacing="-.033em">ox</tspan><tspan x="257.188" y="0" letter-spacing="-.005em">e</tspan><tspan x="273.628" y="0">l </tspan><tspan x="286.558" y="0" letter-spacing="-.019em">L</tspan><tspan x="302.818" y="0">o</tspan><tspan x="319.887" y="0" letter-spacing="-.006em">g</tspan><tspan x="337.497" y="0">o De</tspan><tspan x="397.196" y="0" letter-spacing="-.002em">s</tspan><tspan x="412.285" y="0" letter-spacing="-.006em">i</tspan><tspan x="418.946" y="0">gn</tspan></text>
        </g>
      </g>
      <g isolation="isolate">
        <text transform="translate(58.126 114.106)" fill="#fff" font-family="SF Pro Regular, &apos;SF Pro &apos;" font-size="20" isolation="isolate"><tspan x="0" y="0">Q</tspan><tspan x="13.74" y="0" letter-spacing="-.002em">u</tspan><tspan x="24.62" y="0">a</tspan><tspan x="34.64" y="0" letter-spacing="-.008em">n</tspan><tspan x="45.26" y="0" letter-spacing="0em">tum-S</tspan><tspan x="98.839" y="0" letter-spacing="0em">p</tspan><tspan x="109.858" y="0" letter-spacing="-.008em">a</tspan><tspan x="119.718" y="0" letter-spacing="-.006em">t</tspan><tspan x="126.418" y="0">ial </tspan><tspan x="147.357" y="0" letter-spacing=".003em">B</tspan><tspan x="159.677" y="0" letter-spacing="-.021em">r</tspan><tspan x="167.857" y="0" letter-spacing="0em">a</tspan><tspan x="177.877" y="0" letter-spacing="-.002em">n</tspan><tspan x="188.616" y="0" xml:space="preserve" letter-spacing="0em">d  </tspan><tspan x="207.016" y="0" letter-spacing="-.011em">I</tspan><tspan x="210.736" y="0" letter-spacing="-.004em">d</tspan><tspan x="221.656" y="0" letter-spacing="-.005em">e</tspan><tspan x="232.036" y="0" letter-spacing="-.008em">n</tspan><tspan x="242.656" y="0" letter-spacing="-.006em">ti</tspan><tspan x="252.775" y="0" letter-spacing="-.023em">t</tspan><tspan x="259.135" y="0" letter-spacing="0em">y</tspan></text>
      </g>
    </g>
  </g>
</svg>