<svg xmlns="http://www.w3.org/2000/svg" viewBox="0 0 900 600">
  <!-- Background with starfield and dimensional grid -->
  <rect width="900" height="600" fill="#0A0621" />
  
  <!-- Dimensional grid with perspective effect - represents alchemical plane -->
  <g opacity="0.12">
    <!-- Horizontal grid lines with alchemical energy flow distortion -->
    <path d="M150,550 Q450,535 750,550" stroke="#5AC8FA" stroke-width="1" />
    <path d="M125,500 Q450,490 775,500" stroke="#5AC8FA" stroke-width="1" />
    <path d="M100,450 Q450,445 800,450" stroke="#5AC8FA" stroke-width="1" />
    <path d="M75,400 Q450,400 825,400" stroke="#5AC8FA" stroke-width="1" />
    <path d="M65,350 Q450,355 835,350" stroke="#5AC8FA" stroke-width="1" />
    <path d="M55,300 Q450,310 845,300" stroke="#5AC8FA" stroke-width="1" />
    <path d="M45,250 Q450,255 855,250" stroke="#5AC8FA" stroke-width="1" />
    <path d="M35,200 Q450,200 865,200" stroke="#5AC8FA" stroke-width="1" />
    <path d="M25,150 Q450,145 875,150" stroke="#5AC8FA" stroke-width="1" />
    <path d="M20,100 Q450,110 880,100" stroke="#5AC8FA" stroke-width="1" />
    
    <!-- Vertical grid lines with alchemical flow distortion -->
    <path d="M150,100 Q160,300 150,550" stroke="#5AC8FA" stroke-width="1" />
    <path d="M225,100 Q235,300 225,550" stroke="#5AC8FA" stroke-width="1" />
    <path d="M300,100 Q310,300 300,550" stroke="#5AC8FA" stroke-width="1" />
    <path d="M375,100 Q385,300 375,550" stroke="#5AC8FA" stroke-width="1" />
    <path d="M450,100 Q460,300 450,550" stroke="#5AC8FA" stroke-width="1" />
    <path d="M525,100 Q535,300 525,550" stroke="#5AC8FA" stroke-width="1" />
    <path d="M600,100 Q610,300 600,550" stroke="#5AC8FA" stroke-width="1" />
    <path d="M675,100 Q685,300 675,550" stroke="#5AC8FA" stroke-width="1" />
    <path d="M750,100 Q760,300 750,550" stroke="#5AC8FA" stroke-width="1" />
  </g>
  
  <!-- Subtle stars in background -->
  <g>
    <circle cx="80" cy="80" r="1.5" fill="#FFFFFF" />
    <circle cx="120" cy="60" r="1" fill="#FFFFFF" />
    <circle cx="200" cy="110" r="1.2" fill="#FFFFFF" />
    <circle cx="350" cy="70" r="1" fill="#FFFFFF" />
    <circle cx="400" cy="120" r="1.5" fill="#FFFFFF" />
    <circle cx="480" cy="60" r="1" fill="#FFFFFF" />
    <circle cx="560" cy="100" r="1.3" fill="#FFFFFF" />
    <circle cx="650" cy="80" r="1" fill="#FFFFFF" />
    <circle cx="720" cy="50" r="1.5" fill="#FFFFFF" />
    <circle cx="820" cy="120" r="1" fill="#FFFFFF" />
    
    <!-- Alchemical symbols -->
    <path d="M770,85 L790,85 M780,75 L780,95" stroke="#BF4080" stroke-width="1" opacity="0.7" /> <!-- Sulfur -->
    <circle cx="130" cy="65" r="5" fill="none" stroke="#6A3093" stroke-width="1" opacity="0.7" /> <!-- Salt -->
    <path d="M590,50 L590,60 M585,55 L595,55" stroke="#5AC8FA" stroke-width="1" opacity="0.7" /> <!-- Mercury -->
    <path d="M320,85 L330,75 L340,85 L330,95 Z" fill="none" stroke="#BF4080" stroke-width="1" opacity="0.7" /> <!-- Fire -->
  </g>
  
  <!-- Title -->
  <text x="450" y="60" font-family="'SF Pro Display', -apple-system, BlinkMacSystemFont, sans-serif" font-size="28" font-weight="bold" fill="#FFFFFF" text-anchor="middle">Alchemical Crafting Station</text>
  <text x="450" y="90" font-family="'SF Pro Display', -apple-system, BlinkMacSystemFont, sans-serif" font-size="16" fill="#5AC8FA" text-anchor="middle">Quantum-Spatial Transmutation Interface</text>
  
  <!-- Main Crafting Apparatus -->
  <g transform="translate(450, 300)">
    <!-- Cauldron base -->
    <ellipse cx="0" cy="65" rx="100" ry="20" fill="#131A36" stroke="#5AC8FA" stroke-width="1.5" />
    <path d="M-80,10 Q-90,50 -80,65 Q0,85 80,65 Q90,50 80,10 Q0,-10 -80,10 Z" fill="#331F4A" stroke="#BF4080" stroke-width="2" />
    
    <!-- Alchemical liquid -->
    <ellipse cx="0" cy="15" rx="75" ry="15" fill="#6A3093" opacity="0.8">
      <animate attributeName="ry" values="15;17;15" dur="5s" repeatCount="indefinite" />
    </ellipse>
    
    <!-- Bubbles animation -->
    <circle cx="-40" cy="15" r="4" fill="#5AC8FA" opacity="0.7">
      <animate attributeName="cy" values="15;-30;15" dur="3s" repeatCount="indefinite" begin="0s" />
    </circle>
    <circle cx="-15" cy="15" r="3" fill="#5AC8FA" opacity="0.7">
      <animate attributeName="cy" values="15;-25;15" dur="4s" repeatCount="indefinite" begin="1s" />
    </circle>
    <circle cx="20" cy="15" r="5" fill="#5AC8FA" opacity="0.7">
      <animate attributeName="cy" values="15;-35;15" dur="3.5s" repeatCount="indefinite" begin="0.5s" />
    </circle>
    <circle cx="50" cy="15" r="3" fill="#5AC8FA" opacity="0.7">
      <animate attributeName="cy" values="15;-20;15" dur="2.5s" repeatCount="indefinite" begin="1.5s" />
    </circle>
    
    <!-- Alchemical vapor trails -->
    <path d="M-20,-30 Q-25,-60 -40,-75 Q-55,-90 -40,-100" fill="none" stroke="#6A3093" stroke-width="2" opacity="0.5">
      <animate attributeName="d" 
               values="M-20,-30 Q-25,-60 -40,-75 Q-55,-90 -40,-100;
                      M-20,-30 Q-15,-60 -20,-75 Q-25,-90 -10,-100;
                      M-20,-30 Q-25,-60 -40,-75 Q-55,-90 -40,-100" 
               dur="8s" 
               repeatCount="indefinite" />
    </path>
    <path d="M20,-30 Q30,-50 25,-70 Q20,-90 40,-95" fill="none" stroke="#BF4080" stroke-width="2" opacity="0.5">
      <animate attributeName="d" 
               values="M20,-30 Q30,-50 25,-70 Q20,-90 40,-95;
                      M20,-30 Q10,-50 15,-70 Q20,-90 0,-95;
                      M20,-30 Q30,-50 25,-70 Q20,-90 40,-95" 
               dur="6s" 
               repeatCount="indefinite" />
    </path>
    
    <!-- Heating element -->
    <g transform="translate(0, 50)">
      <path d="M-60,0 Q-30,20 0,0 Q30,20 60,0" fill="none" stroke="#BF4080" stroke-width="2" opacity="0.7">
        <animate attributeName="d" 
                 values="M-60,0 Q-30,20 0,0 Q30,20 60,0;
                        M-60,0 Q-30,-10 0,0 Q30,-10 60,0;
                        M-60,0 Q-30,20 0,0 Q30,20 60,0" 
                 dur="2s" 
                 repeatCount="indefinite" />
      </path>
    </g>
  </g>
  
  <!-- Element Selection Wheel -->
  <g transform="translate(200, 300)">
    <!-- Wheel base -->
    <circle cx="0" cy="0" r="100" fill="#131A36" stroke="#5AC8FA" stroke-width="2" />
    <circle cx="0" cy="0" r="90" fill="none" stroke="#6A3093" stroke-width="1" stroke-dasharray="3,3" />
    <circle cx="0" cy="0" r="40" fill="#0D0D15" stroke="#5AC8FA" stroke-width="1.5" />
    <circle cx="0" cy="0" r="30" fill="#331F4A" />
    <text x="0" y="5" font-family="'SF Pro Text', -apple-system, BlinkMacSystemFont, sans-serif" font-size="12" fill="#FFFFFF" text-anchor="middle">Elements</text>
    
    <!-- Element nodes -->
    <!-- Fire -->
    <g transform="translate(0, -75)">
      <circle cx="0" cy="0" r="20" fill="#331F4A" stroke="#BF4080" stroke-width="2" />
      <path d="M0,-10 L5,0 L0,10 L-5,0 Z" fill="none" stroke="#BF4080" stroke-width="1.5" />
      <text x="0" y="20" font-family="'SF Pro Text', -apple-system, BlinkMacSystemFont, sans-serif" font-size="12" fill="#FFFFFF" text-anchor="middle">Fire</text>
    </g>
    
    <!-- Water -->
    <g transform="translate(75, 0)">
      <circle cx="0" cy="0" r="20" fill="#131A36" stroke="#5AC8FA" stroke-width="2" />
      <path d="M-5,-5 Q0,-10 5,-5 Q10,0 5,5 Q0,10 -5,5 Q-10,0 -5,-5 Z" fill="none" stroke="#5AC8FA" stroke-width="1.5" />
      <text x="0" y="20" font-family="'SF Pro Text', -apple-system, BlinkMacSystemFont, sans-serif" font-size="12" fill="#FFFFFF" text-anchor="middle">Water</text>
    </g>
    
    <!-- Earth -->
    <g transform="translate(0, 75)">
      <circle cx="0" cy="0" r="20" fill="#131A36" stroke="#2D854D" stroke-width="2" />
      <rect x="-8" y="-8" width="16" height="16" fill="none" stroke="#2D854D" stroke-width="1.5" />
      <text x="0" y="20" font-family="'SF Pro Text', -apple-system, BlinkMacSystemFont, sans-serif" font-size="12" fill="#FFFFFF" text-anchor="middle">Earth</text>
    </g>
    
    <!-- Air -->
    <g transform="translate(-75, 0)">
      <circle cx="0" cy="0" r="20" fill="#131A36" stroke="#6A3093" stroke-width="2" />
      <path d="M-8,0 Q0,-8 8,0 Q0,8 -8,0 Z" fill="none" stroke="#6A3093" stroke-width="1.5" />
      <text x="0" y="20" font-family="'SF Pro Text', -apple-system, BlinkMacSystemFont, sans-serif" font-size="12" fill="#FFFFFF" text-anchor="middle">Air</text>
    </g>
    
    <!-- Selected element - Fire -->
    <g transform="translate(0, -75)">
      <circle cx="0" cy="0" r="23" fill="none" stroke="#BF4080" stroke-width="1" opacity="0.5">
        <animate attributeName="r" values="23;26;23" dur="2s" repeatCount="indefinite" />
        <animate attributeName="opacity" values="0.5;0.8;0.5" dur="2s" repeatCount="indefinite" />
      </circle>
    </g>
  </g>
  
  <!-- Ingredient Inventory Panel -->
  <g transform="translate(700, 300)">
    <rect x="-130" y="-150" width="260" height="300" rx="10" fill="#131A36" stroke="#5AC8FA" stroke-width="2" opacity="0.9" />
    <text x="0" y="-120" font-family="'SF Pro Display', -apple-system, BlinkMacSystemFont, sans-serif" font-size="18" font-weight="bold" fill="#FFFFFF" text-anchor="middle">Ingredients</text>
    <line x1="-100" y1="-100" x2="100" y2="-100" stroke="#5AC8FA" stroke-width="1" opacity="0.7" />
    
    <!-- Ingredient slots -->
    <!-- Phoenix Feather -->
    <g transform="translate(0, -70)">
      <rect x="-110" y="-20" width="220" height="40" rx="5" fill="#331F4A" opacity="0.8" />
      <text x="-90" y="0" font-family="'SF Pro Text', -apple-system, BlinkMacSystemFont, sans-serif" font-size="14" fill="#FFFFFF">Phoenix Feather</text>
      <rect x="70" y="-10" width="20" height="20" rx="2" fill="#0D0D15" stroke="#BF4080" stroke-width="1" />
      <text x="80" y="5" font-family="'SF Pro Text', -apple-system, BlinkMacSystemFont, sans-serif" font-size="14" fill="#FFFFFF" text-anchor="middle">3</text>
    </g>
    
    <!-- Dragon Scale -->
    <g transform="translate(0, -20)">
      <rect x="-110" y="-20" width="220" height="40" rx="5" fill="#331F4A" opacity="0.8" />
      <text x="-90" y="0" font-family="'SF Pro Text', -apple-system, BlinkMacSystemFont, sans-serif" font-size="14" fill="#FFFFFF">Dragon Scale</text>
      <rect x="70" y="-10" width="20" height="20" rx="2" fill="#0D0D15" stroke="#BF4080" stroke-width="1" />
      <text x="80" y="5" font-family="'SF Pro Text', -apple-system, BlinkMacSystemFont, sans-serif" font-size="14" fill="#FFFFFF" text-anchor="middle">1</text>
    </g>
    
    <!-- Mountain Crystal -->
    <g transform="translate(0, 30)">
      <rect x="-110" y="-20" width="220" height="40" rx="5" fill="#0D0D15" opacity="0.8" stroke="#5AC8FA" stroke-width="1" stroke-dasharray="4,2" />
      <text x="-90" y="0" font-family="'SF Pro Text', -apple-system, BlinkMacSystemFont, sans-serif" font-size="14" fill="#5AC8FA" opacity="0.7">Mountain Crystal</text>
      <rect x="70" y="-10" width="20" height="20" rx="2" fill="#0D0D15" stroke="#5AC8FA" stroke-width="1" opacity="0.7" />
      <text x="80" y="5" font-family="'SF Pro Text', -apple-system, BlinkMacSystemFont, sans-serif" font-size="14" fill="#5AC8FA" opacity="0.7" text-anchor="middle">0</text>
    </g>
    
    <!-- Shadow Essence -->
    <g transform="translate(0, 80)">
      <rect x="-110" y="-20" width="220" height="40" rx="5" fill="#331F4A" opacity="0.8" />
      <text x="-90" y="0" font-family="'SF Pro Text', -apple-system, BlinkMacSystemFont, sans-serif" font-size="14" fill="#FFFFFF">Shadow Essence</text>
      <rect x="70" y="-10" width="20" height="20" rx="2" fill="#0D0D15" stroke="#BF4080" stroke-width="1" />
      <text x="80" y="5" font-family="'SF Pro Text', -apple-system, BlinkMacSystemFont, sans-serif" font-size="14" fill="#FFFFFF" text-anchor="middle">7</text>
    </g>
    
    <!-- Add new ingredient button -->
    <g transform="translate(0, 130)">
      <rect x="-100" y="-15" width="200" height="30" rx="15" fill="#6A3093" opacity="0.7" />
      <text x="0" y="5" font-family="'SF Pro Text', -apple-system, BlinkMacSystemFont, sans-serif" font-size="14" fill="#FFFFFF" text-anchor="middle">Add Ingredient</text>
    </g>
  </g>
  
  <!-- Recipe Book Panel -->
  <g transform="translate(200, 530)">
    <rect x="-180" y="-90" width="360" height="120" rx="10" fill="#131A36" stroke="#6A3093" stroke-width="2" opacity="0.9" />
    <text x="0" y="-60" font-family="'SF Pro Display', -apple-system, BlinkMacSystemFont, sans-serif" font-size="16" font-weight="bold" fill="#FFFFFF" text-anchor="middle">Alchemical Recipes</text>
    
    <!-- Recipe slots -->
    <g transform="translate(-120, -20)">
      <rect x="-40" y="-15" width="80" height="70" rx="5" fill="#331F4A" opacity="0.8" />
      <text x="0" y="0" font-family="'SF Pro Text', -apple-system, BlinkMacSystemFont, sans-serif" font-size="10" fill="#FFFFFF" text-anchor="middle">Fire Resist</text>
      <text x="0" y="15" font-family="'SF Pro Text', -apple-system, BlinkMacSystemFont, sans-serif" font-size="10" fill="#FFFFFF" text-anchor="middle">Potion</text>
      <circle cx="0" cy="35" r="10" fill="#0D0D15" stroke="#BF4080" stroke-width="1.5" />
      <path d="M0,25 L5,35 L0,45 L-5,35 Z" fill="none" stroke="#BF4080" stroke-width="1" />
    </g>
    
    <g transform="translate(0, -20)">
      <rect x="-40" y="-15" width="80" height="70" rx="5" fill="#331F4A" opacity="0.8" />
      <text x="0" y="0" font-family="'SF Pro Text', -apple-system, BlinkMacSystemFont, sans-serif" font-size="10" fill="#FFFFFF" text-anchor="middle">Night Vision</text>
      <text x="0" y="15" font-family="'SF Pro Text', -apple-system, BlinkMacSystemFont, sans-serif" font-size="10" fill="#FFFFFF" text-anchor="middle">Elixir</text>
      <circle cx="0" cy="35" r="10" fill="#0D0D15" stroke="#6A3093" stroke-width="1.5" />
      <path d="M-5,35 Q0,25 5,35 Q0,45 -5,35 Z" fill="none" stroke="#6A3093" stroke-width="1" />
    </g>
    
    <g transform="translate(120, -20)">
      <rect x="-40" y="-15" width="80" height="70" rx="5" fill="#0D0D15" opacity="0.5" stroke="#5AC8FA" stroke-width="1" stroke-dasharray="3,2" />
      <text x="0" y="0" font-family="'SF Pro Text', -apple-system, BlinkMacSystemFont, sans-serif" font-size="10" fill="#5AC8FA" opacity="0.7" text-anchor="middle">Discover</text>
      <text x="0" y="15" font-family="'SF Pro Text', -apple-system, BlinkMacSystemFont, sans-serif" font-size="10" fill="#5AC8FA" opacity="0.7" text-anchor="middle">New Recipe</text>
      <text x="0" y="35" font-family="'SF Pro Text', -apple-system, BlinkMacSystemFont, sans-serif" font-size="16" fill="#5AC8FA" opacity="0.7" text-anchor="middle">+</text>
    </g>
  </g>
  
  <!-- Crafting Status Panel -->
  <g transform="translate(700, 530)">
    <rect x="-150" y="-90" width="300" height="120" rx="10" fill="#131A36" stroke="#BF4080" stroke-width="2" opacity="0.9" />
    <text x="0" y="-60" font-family="'SF Pro Display', -apple-system, BlinkMacSystemFont, sans-serif" font-size="16" font-weight="bold" fill="#FFFFFF" text-anchor="middle">Crafting Status</text>
    
    <!-- Progress bar -->
    <rect x="-120" y="-30" width="240" height="20" rx="10" fill="#0D0D15" stroke="#5AC8FA" stroke-width="1" />
    <rect x="-120" y="-30" width="96" height="20" rx="10" fill="#6A3093">
      <animate attributeName="width" values="0;96;96" dur="5s" repeatCount="indefinite" />
    </rect>
    <text x="0" y="-15" font-family="'SF Pro Text', -apple-system, BlinkMacSystemFont, sans-serif" font-size="12" fill="#FFFFFF" text-anchor="middle">40% Complete</text>
    
    <!-- Current action -->
    <text x="0" y="15" font-family="'SF Pro Text', -apple-system, BlinkMacSystemFont, sans-serif" font-size="14" fill="#FFFFFF" text-anchor="middle">Extracting Phoenix Essence</text>
    
    <!-- Time remaining -->
    <text x="0" y="40" font-family="'SF Pro Text', -apple-system, BlinkMacSystemFont, sans-serif" font-size="14" fill="#5AC8FA" text-anchor="middle">1:23 Remaining</text>
  </g>
  
  <!-- Potion Preview Panel -->
  <g transform="translate(450, 530)">
    <rect x="-150" y="-90" width="300" height="120" rx="10" fill="#131A36" stroke="#5AC8FA" stroke-width="2" opacity="0.9" />
    <text x="0" y="-60" font-family="'SF Pro Display', -apple-system, BlinkMacSystemFont, sans-serif" font-size="16" font-weight="bold" fill="#FFFFFF" text-anchor="middle">Potion Preview</text>
    
    <!-- Potion flask -->
    <g transform="translate(0, 0)">
      <path d="M-20,-40 L-15,-20 L-25,20 Q-25,40 0,40 Q25,40 25,20 L15,-20 L20,-40 Z" fill="#331F4A" stroke="#BF4080" stroke-width="1.5" />
      <path d="M-25,10 L25,10" stroke="#BF4080" stroke-width="1" opacity="0.5" />
      <path d="M-23,0 Q0,5 23,0" stroke="#BF4080" stroke-width="1" opacity="0.5" />
      <path d="M-21,-10 Q0,-5 21,-10" stroke="#BF4080" stroke-width="1" opacity="0.5" />
      <path d="M-18,-20 L18,-20" stroke="#BF4080" stroke-width="1" opacity="0.5" />
      <rect x="-12" y="-45" width="24" height="5" fill="#331F4A" stroke="#BF4080" stroke-width="1" />
    </g>
    
    <!-- Potion stats -->
    <g transform="translate(-80, -30)">
      <text x="0" y="0" font-family="'SF Pro Text', -apple-system, BlinkMacSystemFont, sans-serif" font-size="12" fill="#BF4080" text-anchor="middle">Fire: +70%</text>
    </g>
    
    <g transform="translate(-80, 0)">
      <text x="0" y="0" font-family="'SF Pro Text', -apple-system, BlinkMacSystemFont, sans-serif" font-size="12" fill="#5AC8FA" text-anchor="middle">Water: +10%</text>
    </g>
    
    <g transform="translate(-80, 30)">
      <text x="0" y="0" font-family="'SF Pro Text', -apple-system, BlinkMacSystemFont, sans-serif" font-size="12" fill="#6A3093" text-anchor="middle">Magic: +25%</text>
    </g>
    
    <g transform="translate(80, -15)">
      <text x="0" y="0" font-family="'SF Pro Text', -apple-system, BlinkMacSystemFont, sans-serif" font-size="12" fill="#FFFFFF" text-anchor="middle">Duration: 3:00</text>
    </g>
    
    <g transform="translate(80, 15)">
      <text x="0" y="0" font-family="'SF Pro Text', -apple-system, BlinkMacSystemFont, sans-serif" font-size="12" fill="#FFFFFF" text-anchor="middle">Potency: Uncommon</text>
    </g>
  </g>
  
  <!-- Control buttons -->
  <g transform="translate(450, 120)">
    <!-- Arcane energy visualization -->
    <path d="M-200,0 C-150,-20 -100,20 -50,-10 C0,30 50,-30 100,10 C150,-20 200,0 200,0" fill="none" stroke="#6A3093" stroke-width="2" opacity="0.5">
      <animate attributeName="d" 
               values="M-200,0 C-150,-20 -100,20 -50,-10 C0,30 50,-30 100,10 C150,-20 200,0 200,0;
                       M-200,0 C-150,20 -100,-20 -50,10 C0,-30 50,30 100,-10 C150,20 200,0 200,0;
                       M-200,0 C-150,-20 -100,20 -50,-10 C0,30 50,-30 100,10 C150,-20 200,0 200,0" 
               dur="8s" 
               repeatCount="indefinite" />
    </path>
    
    <!-- Control orbs -->
    <g transform="translate(-160, 0)">
      <circle cx="0" cy="0" r="15" fill="#131A36" stroke="#BF4080" stroke-width="1.5" />
      <text x="0" y="5" font-family="'SF Pro Text', -apple-system, BlinkMacSystemFont, sans-serif" font-size="12" fill="#FFFFFF" text-anchor="middle">Heat</text>
    </g>
    
    <g transform="translate(-80, 0)">
      <circle cx="0" cy="0" r="15" fill="#131A36" stroke="#5AC8FA" stroke-width="1.5" />
      <text x="0" y="5" font-family="'SF Pro Text', -apple-system, BlinkMacSystemFont, sans-serif" font-size="12" fill="#FFFFFF" text-anchor="middle">Mix</text>
    </g>
    
    <g transform="translate(0, 0)">
      <circle cx="0" cy="0" r="20" fill="#131A36" stroke="#BF4080" stroke-width="2">
        <animate attributeName="r" values="20;22;20" dur="3s" repeatCount="indefinite" />
      </circle>
      <text x="0" y="5" font-family="'SF Pro Text', -apple-system, BlinkMacSystemFont, sans-serif" font-size="12" fill="#FFFFFF" text-anchor="middle">Brew</text>
    </g>
    
    <g transform="translate(80, 0)">
      <circle cx="0" cy="0" r="15" fill="#131A36" stroke="#6A3093" stroke-width="1.5" />
      <text x="0" y="5" font-family="'SF Pro Text', -apple-system, BlinkMacSystemFont, sans-serif" font-size="12" fill="#FFFFFF" text-anchor="middle">Cool</text>
    </g>
    
    <g transform="translate(160, 0)">
      <circle cx="0" cy="0" r="15" fill="#131A36" stroke="#5AC8FA" stroke-width="1.5" />
      <text x="0" y="5" font-family="'SF Pro Text', -apple-system, BlinkMacSystemFont, sans-serif" font-size="12" fill="#FFFFFF" text-anchor="middle">Stir</text>
    </g>
  </g>
</svg>