<svg xmlns="http://www.w3.org/2000/svg" viewBox="0 0 1200 900">
  <!-- Background with depth gradient -->
  <defs>
    <radialGradient id="bgGradient" cx="50%" cy="50%" r="70%" fx="50%" fy="50%">
      <stop offset="0%" stop-color="#0F0B26" />
      <stop offset="80%" stop-color="#080418" />
      <stop offset="100%" stop-color="#050210" />
    </radialGradient>
    
    <!-- Dimensional grid pattern -->
    <pattern id="gridPattern" x="0" y="0" width="100" height="100" patternUnits="userSpaceOnUse">
      <path d="M 100 0 L 0 0 0 100" fill="none" stroke="#5AC8FA" stroke-width="0.3" opacity="0.2"/>
    </pattern>
    
    <!-- Glow effects -->
    <filter id="blueGlow" x="-20%" y="-20%" width="140%" height="140%">
      <feGaussianBlur stdDeviation="5" result="blur"/>
      <feFlood flood-color="#5AC8FA" result="color"/>
      <feComposite in="color" in2="blur" operator="in" result="glow"/>
      <feMerge>
        <feMergeNode in="glow"/>
        <feMergeNode in="SourceGraphic"/>
      </feMerge>
    </filter>
    
    <filter id="purpleGlow" x="-20%" y="-20%" width="140%" height="140%">
      <feGaussianBlur stdDeviation="4" result="blur"/>
      <feFlood flood-color="#6A3093" result="color"/>
      <feComposite in="color" in2="blur" operator="in" result="glow"/>
      <feMerge>
        <feMergeNode in="glow"/>
        <feMergeNode in="SourceGraphic"/>
      </feMerge>
    </filter>
    
    <filter id="pinkGlow" x="-20%" y="-20%" width="140%" height="140%">
      <feGaussianBlur stdDeviation="3" result="blur"/>
      <feFlood flood-color="#BF4080" result="color"/>
      <feComposite in="color" in2="blur" operator="in" result="glow"/>
      <feMerge>
        <feMergeNode in="glow"/>
        <feMergeNode in="SourceGraphic"/>
      </feMerge>
    </filter>
  </defs>

  <!-- Main background -->
  <rect width="1200" height="900" fill="url(#bgGradient)" />
  
  <!-- Dimensional grid (perspective effect) -->
  <g opacity="0.25">
    <!-- Horizontal lines -->
    <path d="M 150,800 C 450,770 750,770 1050,800" stroke="#5AC8FA" stroke-width="0.7" />
    <path d="M 130,700 C 450,680 750,680 1070,700" stroke="#5AC8FA" stroke-width="0.7" />
    <path d="M 110,600 C 450,585 750,585 1090,600" stroke="#5AC8FA" stroke-width="0.7" />
    <path d="M 90,500 C 450,490 750,490 1110,500" stroke="#5AC8FA" stroke-width="0.7" />
    <path d="M 75,400 C 450,395 750,395 1125,400" stroke="#5AC8FA" stroke-width="0.7" />
    <path d="M 60,300 C 450,300 750,300 1140,300" stroke="#5AC8FA" stroke-width="0.7" />
    <path d="M 50,200 C 450,205 750,205 1150,200" stroke="#5AC8FA" stroke-width="0.7" />
    <path d="M 45,100 C 450,110 750,110 1155,100" stroke="#5AC8FA" stroke-width="0.7" />
    
    <!-- Vertical lines -->
    <path d="M 150,100 C 165,300 165,600 150,800" stroke="#5AC8FA" stroke-width="0.7" />
    <path d="M 300,100 C 315,300 315,600 300,800" stroke="#5AC8FA" stroke-width="0.7" />
    <path d="M 450,100 C 465,300 465,600 450,800" stroke="#5AC8FA" stroke-width="0.7" />
    <path d="M 600,100 C 615,300 615,600 600,800" stroke="#5AC8FA" stroke-width="0.7" />
    <path d="M 750,100 C 765,300 765,600 750,800" stroke="#5AC8FA" stroke-width="0.7" />
    <path d="M 900,100 C 915,300 915,600 900,800" stroke="#5AC8FA" stroke-width="0.7" />
    <path d="M 1050,100 C 1065,300 1065,600 1050,800" stroke="#5AC8FA" stroke-width="0.7" />
  </g>
  
  <!-- Header with logo -->
  <text x="60" y="60" font-family="SF Pro Text, -apple-system, system-ui, sans-serif" font-size="24" fill="#FFFFFF" font-weight="bold">Quantum-Spatial Vision Pro UI Kit</text>
  <text x="60" y="85" font-family="SF Pro Text, -apple-system, system-ui, sans-serif" font-size="14" fill="#5AC8FA">Designed for Spatial Computing Environments</text>
  
  <!-- Section titles -->
  <text x="60" y="140" font-family="SF Pro Text, -apple-system, system-ui, sans-serif" font-size="18" fill="#FFFFFF">Spatial UI Components</text>
  <text x="440" y="140" font-family="SF Pro Text, -apple-system, system-ui, sans-serif" font-size="18" fill="#FFFFFF">Interaction Mechanics</text>
  <text x="820" y="140" font-family="SF Pro Text, -apple-system, system-ui, sans-serif" font-size="18" fill="#FFFFFF">State Transitions</text>
  
  <!-- Spatial UI Components Section -->
  <g transform="translate(60, 170)">
    <!-- Floating Button -->
    <rect x="0" y="0" width="300" height="160" rx="10" fill="#131A36" stroke="#5AC8FA" stroke-width="1" />
    <text x="20" y="30" font-family="SF Pro Text, -apple-system, system-ui, sans-serif" font-size="16" fill="#FFFFFF">Floating Button</text>
    
    <!-- Button visualization -->
    <g transform="translate(150, 90)">
      <!-- Shadow layer (gives depth) -->
      <ellipse cx="0" cy="0" rx="50" ry="20" fill="#000000" opacity="0.3" />
      
      <!-- Button layers with depth effect -->
      <g transform="translate(0, -20)">
        <rect x="-40" y="-15" width="80" height="30" rx="15" fill="#331F4A" filter="url(#purpleGlow)" />
        <rect x="-38" y="-13" width="76" height="26" rx="13" fill="#6A3093" opacity="0.7" />
        <text x="0" y="5" font-family="SF Pro Text, -apple-system, system-ui, sans-serif" font-size="12" fill="#FFFFFF" text-anchor="middle">ACTIVATE</text>
      </g>
      
      <!-- Depth indicators -->
      <line x1="-40" y1="-15" x2="-40" y2="-5" stroke="#5AC8FA" stroke-width="1" opacity="0.5" />
      <line x1="40" y1="-15" x2="40" y2="-5" stroke="#5AC8FA" stroke-width="1" opacity="0.5" />
    </g>
    
    <!-- Properties -->
    <text x="20" y="140" font-family="SF Pro Text, -apple-system, system-ui, sans-serif" font-size="12" fill="#5AC8FA">Properties: Hovers 15-30cm from user</text>
  </g>
  
  <!-- Orbital Menu -->
  <g transform="translate(60, 350)">
    <rect x="0" y="0" width="300" height="200" rx="10" fill="#131A36" stroke="#5AC8FA" stroke-width="1" />
    <text x="20" y="30" font-family="SF Pro Text, -apple-system, system-ui, sans-serif" font-size="16" fill="#FFFFFF">Orbital Menu System</text>
    
    <!-- Orbit visualization -->
    <g transform="translate(150, 110)">
      <!-- Orbit paths -->
      <ellipse cx="0" cy="0" rx="80" ry="30" fill="none" stroke="#5AC8FA" stroke-width="1" stroke-dasharray="2,2" />
      <ellipse cx="0" cy="0" rx="60" ry="22" fill="none" stroke="#6A3093" stroke-width="1" stroke-dasharray="2,2" />
      <ellipse cx="0" cy="0" rx="40" ry="15" fill="none" stroke="#BF4080" stroke-width="1" stroke-dasharray="2,2" />
      
      <!-- Central element -->
      <circle cx="0" cy="0" r="10" fill="#5AC8FA" filter="url(#blueGlow)" />
      
      <!-- Orbital elements -->
      <circle cx="-60" cy="0" r="8" fill="#6A3093" filter="url(#purpleGlow)" />
      <circle cx="60" cy="0" r="8" fill="#6A3093" filter="url(#purpleGlow)" />
      <circle cx="0" cy="22" r="8" fill="#BF4080" filter="url(#pinkGlow)" />
      <circle cx="-40" cy="-15" r="8" fill="#BF4080" filter="url(#pinkGlow)" />
      <circle cx="40" cy="-15" r="8" fill="#BF4080" filter="url(#pinkGlow)" />
    </g>
    
    <!-- Properties -->
    <text x="20" y="180" font-family="SF Pro Text, -apple-system, system-ui, sans-serif" font-size="12" fill="#5AC8FA">Properties: Elements orbit at different depths</text>
  </g>
  
  <!-- Volumetric Card -->
  <g transform="translate(60, 570)">
    <rect x="0" y="0" width="300" height="220" rx="10" fill="#131A36" stroke="#5AC8FA" stroke-width="1" />
    <text x="20" y="30" font-family="SF Pro Text, -apple-system, system-ui, sans-serif" font-size="16" fill="#FFFFFF">Volumetric Cards</text>
    
    <!-- Card visualization -->
    <g transform="translate(150, 120)">
      <!-- Shadow for depth -->
      <rect x="-60" y="-20" width="120" height="90" rx="5" fill="#000000" opacity="0.3" />
      
      <!-- Card layers -->
      <g transform="translate(0, -30)">
        <!-- Back layer -->
        <rect x="-60" y="-30" width="120" height="90" rx="5" fill="#0D0D15" stroke="#5AC8FA" stroke-width="1" />
        
        <!-- Middle layer -->
        <rect x="-55" y="-25" width="110" height="80" rx="5" fill="#131A36" stroke="#6A3093" stroke-width="1" />
        
        <!-- Front content -->
        <rect x="-45" y="-15" width="90" height="15" rx="2" fill="#331F4A" />
        <rect x="-45" y="5" width="60" height="10" rx="2" fill="#6A3093" opacity="0.7" />
        <rect x="-45" y="20" width="90" height="10" rx="2" fill="#6A3093" opacity="0.5" />
        <rect x="-45" y="35" width="40" height="10" rx="2" fill="#6A3093" opacity="0.7" />
        
        <!-- Quantum pixels (floating in space around card) -->
        <rect x="50" y="-20" width="6" height="6" fill="#5AC8FA" opacity="0.8" />
        <rect x="45" y="30" width="8" height="8" fill="#BF4080" opacity="0.8" />
        <rect x="-60" y="15" width="5" height="5" fill="#5AC8FA" opacity="0.8" />
      </g>
    </g>
    
    <!-- Properties -->
    <text x="20" y="200" font-family="SF Pro Text, -apple-system, system-ui, sans-serif" font-size="12" fill="#5AC8FA">Properties: Multiple depth planes with quantum pixel particles</text>
  </g>
  
  <!-- Interaction Mechanics Section -->
  <g transform="translate(440, 170)">
    <!-- Hand Gestures Panel -->
    <rect x="0" y="0" width="300" height="250" rx="10" fill="#131A36" stroke="#6A3093" stroke-width="1" />
    <text x="20" y="30" font-family="SF Pro Text, -apple-system, system-ui, sans-serif" font-size="16" fill="#FFFFFF">Pinch and Pull Interactions</text>
    
    <!-- Hand visualization -->
    <g transform="translate(150, 130)">
      <!-- Pinch visualization -->
      <path d="M -40,30 C -30,20 -20,15 -10,30" stroke="#FFFFFF" stroke-width="2" fill="none" />
      <path d="M -10,30 C 0,45 10,45 20,30" stroke="#FFFFFF" stroke-width="2" fill="none" />
      
      <!-- Object being manipulated -->
      <rect x="-5" y="28" width="10" height="10" fill="#5AC8FA" filter="url(#blueGlow)" />
      
      <!-- Energy connection -->
      <path d="M 20,30 C 30,20 40,20 50,30" stroke="#5AC8FA" stroke-width="1" stroke-dasharray="2,2" />
      <path d="M 50,30 Q 60,35 65,30" stroke="#5AC8FA" stroke-width="1" />
      
      <!-- Resulting object (after manipulation) -->
      <rect x="60" y="20" width="20" height="20" fill="#5AC8FA" opacity="0.7" filter="url(#blueGlow)" />
    </g>
    
    <!-- Description -->
    <g transform="translate(20, 200)">
      <text font-family="SF Pro Text, -apple-system, system-ui, sans-serif" font-size="12" fill="#FFFFFF">• Pinch to grab dimensional elements</text>
      <text y="20" font-family="SF Pro Text, -apple-system, system-ui, sans-serif" font-size="12" fill="#FFFFFF">• Pull to extract quantum states</text>
      <text y="40" font-family="SF Pro Text, -apple-system, system-ui, sans-serif" font-size="12" fill="#FFFFFF">• Twist to rotate between dimensions</text>
    </g>
  </g>
  
  <!-- Gaze + Gesture Panel -->
  <g transform="translate(440, 440)">
    <rect x="0" y="0" width="300" height="220" rx="10" fill="#131A36" stroke="#6A3093" stroke-width="1" />
    <text x="20" y="30" font-family="SF Pro Text, -apple-system, system-ui, sans-serif" font-size="16" fill="#FFFFFF">Gaze + Gesture Controls</text>
    
    <!-- Eye visualization -->
    <g transform="translate(150, 110)">
      <!-- Gaze beam -->
      <path d="M -40,0 L 40,0" stroke="#5AC8FA" stroke-width="1" stroke-dasharray="3,2" />
      
      <!-- Eye symbol -->
      <ellipse cx="-50" cy="0" rx="15" ry="10" fill="none" stroke="#FFFFFF" stroke-width="1.5" />
      <circle cx="-50" cy="0" r="5" fill="#5AC8FA" filter="url(#blueGlow)" />
      
      <!-- Target object -->
      <rect x="40" y="-15" width="30" height="30" rx="5" fill="#131A36" stroke="#6A3093" stroke-width="1" />
      <rect x="45" y="-10" width="20" height="20" rx="3" fill="#6A3093" opacity="0.7" />
      
      <!-- Activation effect -->
      <circle cx="55" cy="0" r="5" fill="none" stroke="#5AC8FA" stroke-width="1">
        <animate attributeName="r" values="5;15;5" dur="3s" repeatCount="indefinite" />
        <animate attributeName="opacity" values="1;0;1" dur="3s" repeatCount="indefinite" />
      </circle>
    </g>
    
    <!-- Description -->
    <g transform="translate(20, 170)">
      <text font-family="SF Pro Text, -apple-system, system-ui, sans-serif" font-size="12" fill="#FFFFFF">• Look to target quantum elements</text>
      <text y="20" font-family="SF Pro Text, -apple-system, system-ui, sans-serif" font-size="12" fill="#FFFFFF">• Gesture to activate or transform</text>
      <text y="40" font-family="SF Pro Text, -apple-system, system-ui, sans-serif" font-size="12" fill="#FFFFFF">• Combined gaze+pinch for precision</text>
    </g>
  </g>
  
  <!-- Spatial Audio Panel -->
  <g transform="translate(440, 680)">
    <rect x="0" y="0" width="300" height="110" rx="10" fill="#131A36" stroke="#6A3093" stroke-width="1" />
    <text x="20" y="30" font-family="SF Pro Text, -apple-system, system-ui, sans-serif" font-size="16" fill="#FFFFFF">Spatial Audio Feedback</text>
    
    <!-- Audio visualization -->
    <g transform="translate(150, 60)">
      <!-- Sound waves -->
      <circle cx="0" cy="0" r="10" fill="#BF4080" filter="url(#pinkGlow)" />
      <circle cx="0" cy="0" r="20" fill="none" stroke="#BF4080" stroke-width="1" opacity="0.7" />
      <circle cx="0" cy="0" r="30" fill="none" stroke="#BF4080" stroke-width="1" opacity="0.5" />
      <circle cx="0" cy="0" r="40" fill="none" stroke="#BF4080" stroke-width="1" opacity="0.3" />
    </g>
    
    <!-- Description -->
    <text x="20" y="90" font-family="SF Pro Text, -apple-system, system-ui, sans-serif" font-size="12" fill="#FFFFFF">• Directional audio guides interaction</text>
  </g>
  
  <!-- State Transitions Section -->
  <g transform="translate(820, 170)">
    <!-- Quantum State Transitions -->
    <rect x="0" y="0" width="300" height="280" rx="10" fill="#131A36" stroke="#BF4080" stroke-width="1" />
    <text x="20" y="30" font-family="SF Pro Text, -apple-system, system-ui, sans-serif" font-size="16" fill="#FFFFFF">Quantum State Transitions</text>
    
    <!-- State transition visualization -->
    <g transform="translate(150, 150)">
      <!-- Heritage State (pixelated form) -->
      <g transform="translate(-100, 0)">
        <text x="0" y="-30" font-family="SF Pro Text, -apple-system, system-ui, sans-serif" font-size="12" fill="#FFFFFF" text-anchor="middle">Heritage</text>
        <rect x="-20" y="-20" width="40" height="40" fill="#131A36" stroke="#5AC8FA" stroke-width="1" />
        <rect x="-15" y="-15" width="10" height="10" fill="#5AC8FA" opacity="0.7" />
        <rect x="5" y="-15" width="10" height="10" fill="#5AC8FA" opacity="0.7" />
        <rect x="-15" y="5" width="10" height="10" fill="#5AC8FA" opacity="0.7" />
        <rect x="5" y="5" width="10" height="10" fill="#5AC8FA" opacity="0.7" />
      </g>
      
      <!-- Transition State -->
      <g transform="translate(0, 0)">
        <text x="0" y="-30" font-family="SF Pro Text, -apple-system, system-ui, sans-serif" font-size="12" fill="#FFFFFF" text-anchor="middle">Transitional</text>
        <rect x="-20" y="-20" width="40" height="40" rx="5" fill="#131A36" stroke="#6A3093" stroke-width="1" />
        <rect x="-15" y="-15" width="30" height="30" rx="10" fill="#6A3093" opacity="0.7" />
        <rect x="-5" y="-5" width="10" height="10" fill="#5AC8FA" opacity="0.7" />
      </g>
      
      <!-- Quantum State (fully dimensional) -->
      <g transform="translate(100, 0)">
        <text x="0" y="-30" font-family="SF Pro Text, -apple-system, system-ui, sans-serif" font-size="12" fill="#FFFFFF" text-anchor="middle">Quantum</text>
        <ellipse cx="0" cy="0" rx="25" ry="25" fill="#131A36" stroke="#BF4080" stroke-width="1" />
        <ellipse cx="0" cy="0" rx="18" ry="18" fill="#BF4080" opacity="0.4" filter="url(#pinkGlow)" />
        <circle cx="0" cy="0" r="8" fill="#5AC8FA" opacity="0.9" filter="url(#blueGlow)" />
      </g>
      
      <!-- Connecting transition lines -->
      <path d="M -50,0 L -30,0" stroke="#FFFFFF" stroke-width="1" stroke-dasharray="3,2" />
      <path d="M 30,0 L 70,0" stroke="#FFFFFF" stroke-width="1" stroke-dasharray="3,2" />
    </g>
    
    <!-- Description -->
    <g transform="translate(20, 230)">
      <text font-family="SF Pro Text, -apple-system, system-ui, sans-serif" font-size="12" fill="#FFFFFF">• Elements transition between dimensional states</text>
      <text y="20" font-family="SF Pro Text, -apple-system, system-ui, sans-serif" font-size="12" fill="#FFFFFF">• Heritage: Pixel-based, flat representation</text>
      <text y="40" font-family="SF Pro Text, -apple-system, system-ui, sans-serif" font-size="12" fill="#FFFFFF">• Transitional: Mixed dimensionality</text>
      <text y="60" font-family="SF Pro Text, -apple-system, system-ui, sans-serif" font-size="12" fill="#FFFFFF">• Quantum: Fully dimensional, fluid properties</text>
    </g>
  </g>
  
  <!-- Dimensional Layers Panel -->
  <g transform="translate(820, 470)">
    <rect x="0" y="0" width="300" height="230" rx="10" fill="#131A36" stroke="#BF4080" stroke-width="1" />
    <text x="20" y="30" font-family="SF Pro Text, -apple-system, system-ui, sans-serif" font-size="16" fill="#FFFFFF">Dimensional Layer System</text>
    
    <!-- Layer visualization -->
    <g transform="translate(150, 120)">
      <!-- Layer visualization with depth -->
      <rect x="-60" y="-15" width="120" height="80" rx="5" fill="#0D0D15" opacity="0.8" />
      <text x="0" y="-30" font-family="SF Pro Text, -apple-system, system-ui, sans-serif" font-size="12" fill="#FFFFFF" text-anchor="middle">Z-Depth Layers</text>
      
      <!-- Background layer -->
      <g transform="translate(0, 40)">
        <rect x="-50" y="-50" width="100" height="60" rx="5" fill="#131A36" stroke="#5AC8FA" stroke-width="1" opacity="0.6" />
        <text x="0" y="-30" font-family="SF Pro Text, -apple-system, system-ui, sans-serif" font-size="10" fill="#FFFFFF" text-anchor="middle">Background (Z-3)</text>
      </g>
      
      <!-- Middle layer -->
      <g transform="translate(0, 20)">
        <rect x="-40" y="-40" width="80" height="50" rx="5" fill="#331F4A" stroke="#6A3093" stroke-width="1" opacity="0.8" />
        <text x="0" y="-25" font-family="SF Pro Text, -apple-system, system-ui, sans-serif" font-size="10" fill="#FFFFFF" text-anchor="middle">Content (Z-2)</text>
      </g>
      
      <!-- Foreground layer -->
      <g transform="translate(0, 0)">
        <rect x="-30" y="-30" width="60" height="40" rx="5" fill="#6A3093" stroke="#BF4080" stroke-width="1" opacity="0.9" />
        <text x="0" y="-15" font-family="SF Pro Text, -apple-system, system-ui, sans-serif" font-size="10" fill="#FFFFFF" text-anchor="middle">Interactive (Z-1)</text>
      </g>
      
      <!-- Floating layer -->
      <g transform="translate(0, -20)">
        <rect x="-20" y="-20" width="40" height="30" rx="5" fill="#BF4080" stroke="#FFFFFF" stroke-width="1" />
        <text x="0" y="-5" font-family="SF Pro Text, -apple-system, system-ui, sans-serif" font-size="10" fill="#FFFFFF" text-anchor="middle">Focus (Z0)</text>
      </g>
    </g>
    
    <!-- Description -->
    <g transform="translate(20, 200)">
      <text font-family="SF Pro Text, -apple-system, system-ui, sans-serif" font-size="12" fill="#FFFFFF">• UI organizes elements across 4+ z-depth layers</text>
      <text y="20" font-family="SF Pro Text, -apple-system, system-ui, sans-serif" font-size="12" fill="#FFFFFF">• Each layer serves specific interactive purpose</text>
    </g>
  </g>
  
  <!-- Game Mechanic Integration Panel -->
  <g transform="translate(820, 720)">
    <rect x="0" y="0" width="300" height="70" rx="10" fill="#131A36" stroke="#BF4080" stroke-width="1" />
    <text x="20" y="30" font-family="SF Pro Text, -apple-system, system-ui, sans-serif" font-size="16" fill="#FFFFFF">Game Mechanic Integration</text>
    <text x="20" y="50" font-family="SF Pro Text, -apple-system, system-ui, sans-serif" font-size="12" fill="#FFFFFF">• Spatial puzzle mechanics activate quantum transitions</text>
  </g>

  <!-- Footer -->
  <text x="600" y="860" font-family="SF Pro Text, -apple-system, system-ui, sans-serif" font-size="14" fill="#FFFFFF" text-anchor="middle">9Bit Studios © 2025 • Quantum-Spatial UI Framework for Apple Vision Pro</text>
</svg>
