<?xml version="1.0" encoding="UTF-8"?>
<svg xmlns="http://www.w3.org/2000/svg" viewBox="0 0 1100 750">
  <!-- Background -->
  <rect width="1100" height="750" fill="#f8f9fa" />
  
  <!-- Title -->
  <text x="550" y="40" font-family="Arial" font-size="24" font-weight="bold" text-anchor="middle">9Bit Studios Strategic Development Roadmap</text>
  
  <!-- Timeline Base -->
  <line x1="100" y1="100" x2="1000" y2="100" stroke="#ccc" stroke-width="2" />
  
  <!-- Timeline Points -->
  <circle cx="100" cy="100" r="8" fill="#1890ff" />
  <circle cx="225" cy="100" r="8" fill="#52c41a" />
  <circle cx="350" cy="100" r="8" fill="#faad14" />
  <circle cx="475" cy="100" r="8" fill="#fa541c" />
  <circle cx="600" cy="100" r="8" fill="#722ed1" />
  <circle cx="725" cy="100" r="8" fill="#f5222d" />
  <circle cx="850" cy="100" r="8" fill="#13c2c2" />
  <circle cx="1000" cy="100" r="8" fill="#eb2f96" />
  
  <!-- Timeline Labels -->
  <text x="100" y="80" font-family="Arial" font-size="12" text-anchor="middle">Month 1</text>
  <text x="225" y="80" font-family="Arial" font-size="12" text-anchor="middle">Month 2</text>
  <text x="350" y="80" font-family="Arial" font-size="12" text-anchor="middle">Month 3</text>
  <text x="475" y="80" font-family="Arial" font-size="12" text-anchor="middle">Month 4-6</text>
  <text x="600" y="80" font-family="Arial" font-size="12" text-anchor="middle">Q3 2025</text>
  <text x="725" y="80" font-family="Arial" font-size="12" text-anchor="middle">Q4 2025</text>
  <text x="850" y="80" font-family="Arial" font-size="12" text-anchor="middle">Q1-Q2 2026</text>
  <text x="1000" y="80" font-family="Arial" font-size="12" text-anchor="middle">Q3 2026+</text>
  
  <!-- Fantasy Worldbuilding Foundation Track -->
  <rect x="50" y="115" width="1000" height="80" rx="5" fill="#f9f0ff" stroke="#722ed1" stroke-width="2" />
  <text x="550" y="145" font-family="Arial" font-size="16" font-weight="bold" text-anchor="middle">Fantasy Worldbuilding Suite (Central Content Creation System)</text>
  <text x="550" y="170" font-family="Arial" font-size="14" text-anchor="middle">Notion-Based Content Management + API Integrations + Version Control</text>
  
  <!-- Fantasy Worldbuilding Milestones -->
  <rect x="70" y="185" width="100" height="30" rx="5" fill="#f0f0ff" stroke="#9254de" stroke-width="1" />
  <text x="120" y="205" font-family="Arial" font-size="10" text-anchor="middle">Initial Structure</text>
  
  <rect x="180" y="185" width="110" height="30" rx="5" fill="#f0f0ff" stroke="#9254de" stroke-width="1" />
  <text x="235" y="205" font-family="Arial" font-size="10" text-anchor="middle">Character Database</text>
  
  <rect x="300" y="185" width="110" height="30" rx="5" fill="#f0f0ff" stroke="#9254de" stroke-width="1" />
  <text x="355" y="205" font-family="Arial" font-size="10" text-anchor="middle">Narrative System</text>
  
  <rect x="420" y="185" width="110" height="30" rx="5" fill="#f0f0ff" stroke="#9254de" stroke-width="1" />
  <text x="475" y="205" font-family="Arial" font-size="10" text-anchor="middle">Content API</text>
  
  <rect x="540" y="185" width="120" height="30" rx="5" fill="#f0f0ff" stroke="#9254de" stroke-width="1" />
  <text x="600" y="205" font-family="Arial" font-size="10" text-anchor="middle">Full Content Pipeline</text>
  
  <rect x="670" y="185" width="260" height="30" rx="5" fill="#f0f0ff" stroke="#9254de" stroke-width="1" />
  <text x="800" y="205" font-family="Arial" font-size="10" text-anchor="middle">Advanced Content Creation &amp; Cross-Product Integration</text>
  
  <rect x="940" y="185" width="100" height="30" rx="5" fill="#f0f0ff" stroke="#9254de" stroke-width="1" />
  <text x="990" y="205" font-family="Arial" font-size="10" text-anchor="middle">AI Enhancement</text>
  
  <!-- Technology Foundation Track -->
  <rect x="50" y="205" width="1000" height="80" rx="5" fill="#e6f4ff" stroke="#2f54eb" stroke-width="2" />
  <text x="550" y="235" font-family="Arial" font-size="16" font-weight="bold" text-anchor="middle">Technology Foundation</text>
  <text x="550" y="260" font-family="Arial" font-size="14" text-anchor="middle">M4 Development Environment + Shared Components + AI Framework</text>
  
  <!-- Technology Foundation Milestones -->
  <rect x="70" y="275" width="100" height="30" rx="5" fill="#d6e4ff" stroke="#597ef7" stroke-width="1" />
  <text x="120" y="295" font-family="Arial" font-size="10" text-anchor="middle">M4 Environment</text>
  
  <rect x="180" y="275" width="110" height="30" rx="5" fill="#d6e4ff" stroke="#597ef7" stroke-width="1" />
  <text x="235" y="295" font-family="Arial" font-size="10" text-anchor="middle">Supabase Setup</text>
  
  <rect x="300" y="275" width="110" height="30" rx="5" fill="#d6e4ff" stroke="#597ef7" stroke-width="1" />
  <text x="355" y="295" font-family="Arial" font-size="10" text-anchor="middle">Design System</text>
  
  <rect x="420" y="275" width="110" height="30" rx="5" fill="#d6e4ff" stroke="#597ef7" stroke-width="1" />
  <text x="475" y="295" font-family="Arial" font-size="10" text-anchor="middle">CloudKit+Cloud AI</text>
  
  <rect x="540" y="275" width="120" height="30" rx="5" fill="#d6e4ff" stroke="#597ef7" stroke-width="1" />
  <text x="600" y="295" font-family="Arial" font-size="10" text-anchor="middle">ML Pipeline</text>
  
  <rect x="670" y="275" width="120" height="30" rx="5" fill="#d6e4ff" stroke="#597ef7" stroke-width="1" />
  <text x="730" y="295" font-family="Arial" font-size="10" text-anchor="middle">On-Device ML</text>
  
  <rect x="800" y="275" width="130" height="30" rx="5" fill="#d6e4ff" stroke="#597ef7" stroke-width="1" />
  <text x="865" y="295" font-family="Arial" font-size="10" text-anchor="middle">Vision Pro Foundation</text>
  
  <rect x="940" y="275" width="100" height="30" rx="5" fill="#d6e4ff" stroke="#597ef7" stroke-width="1" />
  <text x="990" y="295" font-family="Arial" font-size="10" text-anchor="middle">Vision Pro SDK</text>
  
  <!-- Oksana Creative Platform Track -->
  <rect x="50" y="295" width="1000" height="150" rx="5" fill="#e6f7ff" stroke="#1890ff" stroke-width="2" />
  <text x="550" y="320" font-family="Arial" font-size="16" font-weight="bold" text-anchor="middle">Oksana Creative Platform</text>
  
  <!-- Rapid-Launch Framer Products -->
  <rect x="70" y="335" width="395" height="30" rx="5" fill="#bae7ff" stroke="#1890ff" stroke-width="1" />
  <text x="265" y="355" font-family="Arial" font-size="12" font-weight="bold" text-anchor="middle">Rapid-Launch Framer SaaS</text>
  
  <rect x="70" y="370" width="100" height="25" rx="5" fill="#e6f7ff" stroke="#69c0ff" stroke-width="1" />
  <text x="120" y="387" font-family="Arial" font-size="10" text-anchor="middle">AI Branding Quiz</text>
  
  <rect x="180" y="370" width="110" height="25" rx="5" fill="#e6f7ff" stroke="#69c0ff" stroke-width="1" />
  <text x="235" y="387" font-family="Arial" font-size="10" text-anchor="middle">Web Infrastructure</text>
  
  <rect x="300" y="370" width="110" height="25" rx="5" fill="#e6f7ff" stroke="#69c0ff" stroke-width="1" />
  <text x="355" y="387" font-family="Arial" font-size="10" text-anchor="middle">Brand Scanner</text>
  
  <rect x="70" y="400" width="100" height="25" rx="5" fill="#e6f7ff" stroke="#69c0ff" stroke-width="1" />
  <text x="120" y="417" font-family="Arial" font-size="10" text-anchor="middle">$9.99-49.99/mo</text>
  
  <rect x="180" y="400" width="110" height="25" rx="5" fill="#e6f7ff" stroke="#69c0ff" stroke-width="1" />
  <text x="235" y="417" font-family="Arial" font-size="10" text-anchor="middle">Content Calendar</text>
  
  <rect x="300" y="400" width="110" height="25" rx="5" fill="#e6f7ff" stroke="#69c0ff" stroke-width="1" />
  <text x="355" y="417" font-family="Arial" font-size="10" text-anchor="middle">$29-99 per scan</text>
  
  <!-- Core Oksana Platform -->
  <rect x="475" y="335" width="250" height="30" rx="5" fill="#bae7ff" stroke="#1890ff" stroke-width="1" />
  <text x="600" y="355" font-family="Arial" font-size="12" font-weight="bold" text-anchor="middle">Core Platform</text>
  
  <rect x="475" y="370" width="110" height="25" rx="5" fill="#e6f7ff" stroke="#69c0ff" stroke-width="1" />
  <text x="530" y="387" font-family="Arial" font-size="10" text-anchor="middle">Asset Manager Beta</text>
  
  <rect x="600" y="370" width="110" height="25" rx="5" fill="#e6f7ff" stroke="#69c0ff" stroke-width="1" />
  <text x="655" y="387" font-family="Arial" font-size="10" text-anchor="middle">Asset Manager 1.0</text>
  
  <rect x="475" y="400" width="110" height="25" rx="5" fill="#e6f7ff" stroke="#69c0ff" stroke-width="1" />
  <text x="530" y="417" font-family="Arial" font-size="10" text-anchor="middle">$9.99-29.99/mo</text>
  
  <rect x="600" y="400" width="110" height="25" rx="5" fill="#e6f7ff" stroke="#69c0ff" stroke-width="1" />
  <text x="655" y="417" font-family="Arial" font-size="10" text-anchor="middle">Auto-tagging ML</text>
  
  <!-- Enhanced Platform Features -->
  <rect x="735" y="335" width="305" height="30" rx="5" fill="#bae7ff" stroke="#1890ff" stroke-width="1" />
  <text x="885" y="355" font-family="Arial" font-size="12" font-weight="bold" text-anchor="middle">Enhanced Platform Features</text>
  
  <rect x="735" y="370" width="140" height="25" rx="5" fill="#e6f7ff" stroke="#69c0ff" stroke-width="1" />
  <text x="805" y="387" font-family="Arial" font-size="10" text-anchor="middle">Brand Director Module</text>
  
  <rect x="885" y="370" width="155" height="25" rx="5" fill="#e6f7ff" stroke="#69c0ff" stroke-width="1" />
  <text x="960" y="387" font-family="Arial" font-size="10" text-anchor="middle">Vision Pro Creative Environ.</text>
  
  <rect x="735" y="400" width="140" height="25" rx="5" fill="#e6f7ff" stroke="#69c0ff" stroke-width="1" />
  <text x="805" y="417" font-family="Arial" font-size="10" text-anchor="middle">Content Creation Suite</text>
  
  <rect x="885" y="400" width="155" height="25" rx="5" fill="#e6f7ff" stroke="#69c0ff" stroke-width="1" />
  <text x="960" y="417" font-family="Arial" font-size="10" text-anchor="middle">Enterprise Tools</text>
  
  <!-- World of Jrotharke Game Universe Track -->
  <rect x="50" y="455" width="1000" height="150" rx="5" fill="#fff2e8" stroke="#fa541c" stroke-width="2" />
  <text x="550" y="480" font-family="Arial" font-size="16" font-weight="bold" text-anchor="middle">World of Jrotharke Game Universe</text>
  
  <!-- Quick-Launch Game Experiences -->
  <rect x="180" y="495" width="285" height="30" rx="5" fill="#ffe7ba" stroke="#fa8c16" stroke-width="1" />
  <text x="320" y="515" font-family="Arial" font-size="12" font-weight="bold" text-anchor="middle">Quick-Launch Game Experiences</text>
  
  <rect x="180" y="530" width="110" height="25" rx="5" fill="#fff7e6" stroke="#ffd591" stroke-width="1" />
  <text x="235" y="547" font-family="Arial" font-size="10" text-anchor="middle">Web Narrative</text>
  
  <rect x="300" y="530" width="110" height="25" rx="5" fill="#fff7e6" stroke="#ffd591" stroke-width="1" />
  <text x="355" y="547" font-family="Arial" font-size="10" text-anchor="middle">iOS Escape Room</text>
  
  <rect x="180" y="560" width="110" height="25" rx="5" fill="#fff7e6" stroke="#ffd591" stroke-width="1" />
  <text x="235" y="577" font-family="Arial" font-size="10" text-anchor="middle">$4.99/episode</text>
  
  <rect x="300" y="560" width="110" height="25" rx="5" fill="#fff7e6" stroke="#ffd591" stroke-width="1" />
  <text x="355" y="577" font-family="Arial" font-size="10" text-anchor="middle">$6.99 + IAP</text>
  
  <!-- Full RPG Experience -->
  <rect x="475" y="495" width="250" height="30" rx="5" fill="#ffe7ba" stroke="#fa8c16" stroke-width="1" />
  <text x="600" y="515" font-family="Arial" font-size="12" font-weight="bold" text-anchor="middle">Full RPG Experience</text>
  
  <rect x="475" y="530" width="110" height="25" rx="5" fill="#fff7e6" stroke="#ffd591" stroke-width="1" />
  <text x="530" y="547" font-family="Arial" font-size="10" text-anchor="middle">Mysteries of Aldoria</text>
  
  <rect x="600" y="530" width="110" height="25" rx="5" fill="#fff7e6" stroke="#ffd591" stroke-width="1" />
  <text x="655" y="547" font-family="Arial" font-size="10" text-anchor="middle">Episode 2 Release</text>
  
  <rect x="475" y="560" width="110" height="25" rx="5" fill="#fff7e6" stroke="#ffd591" stroke-width="1" />
  <text x="530" y="577" font-family="Arial" font-size="10" text-anchor="middle">Base: $4.99</text>
  
  <rect x="600" y="560" width="110" height="25" rx="5" fill="#fff7e6" stroke="#ffd591" stroke-width="1" />
  <text x="655" y="577" font-family="Arial" font-size="10" text-anchor="middle">Episodes: $2.99</text>
  
  <!-- Vision Pro &amp; Enhanced Experiences -->
  <rect x="735" y="495" width="305" height="30" rx="5" fill="#ffe7ba" stroke="#fa8c16" stroke-width="1" />
  <text x="885" y="515" font-family="Arial" font-size="12" font-weight="bold" text-anchor="middle">Vision Pro &amp; Enhanced Experiences</text>
  
  <rect x="735" y="530" width="140" height="25" rx="5" fill="#fff7e6" stroke="#ffd591" stroke-width="1" />
  <text x="805" y="547" font-family="Arial" font-size="10" text-anchor="middle">Companion App</text>
  
  <rect x="885" y="530" width="155" height="25" rx="5" fill="#fff7e6" stroke="#ffd591" stroke-width="1" />
  <text x="960" y="547" font-family="Arial" font-size="10" text-anchor="middle">Vision Pro Experience</text>
  
  <rect x="735" y="560" width="140" height="25" rx="5" fill="#fff7e6" stroke="#ffd591" stroke-width="1" />
  <text x="805" y="577" font-family="Arial" font-size="10" text-anchor="middle">Episodes 3-4</text>
  
  <rect x="885" y="560" width="155" height="25" rx="5" fill="#fff7e6" stroke="#ffd591" stroke-width="1" />
  <text x="960" y="577" font-family="Arial" font-size="10" text-anchor="middle">Full Season Completion</text>
  
  <!-- Community &amp; Framer Hub -->
  <rect x="70" y="590" width="980" height="30" rx="5" fill="#ffe7ba" stroke="#fa8c16" stroke-width="1" />
  <text x="550" y="610" font-family="Arial" font-size="12" font-weight="bold" text-anchor="middle">Community &amp; Framer Hub Integration</text>
  
  <rect x="70" y="625" width="100" height="25" rx="5" fill="#fff7e6" stroke="#ffd591" stroke-width="1" />
  <text x="120" y="642" font-family="Arial" font-size="10" text-anchor="middle">Discord Launch</text>
  
  <rect x="180" y="625" width="100" height="25" rx="5" fill="#fff7e6" stroke="#ffd591" stroke-width="1" />
  <text x="230" y="642" font-family="Arial" font-size="10" text-anchor="middle">World Map</text>
  
  <rect x="290" y="625" width="100" height="25" rx="5" fill="#fff7e6" stroke="#ffd591" stroke-width="1" />
  <text x="340" y="642" font-family="Arial" font-size="10" text-anchor="middle">Codex System</text>
  
  <rect x="400" y="625" width="130" height="25" rx="5" fill="#fff7e6" stroke="#ffd591" stroke-width="1" />
  <text x="465" y="642" font-family="Arial" font-size="10" text-anchor="middle">Choice Visualization</text>
  
  <rect x="540" y="625" width="110" height="25" rx="5" fill="#fff7e6" stroke="#ffd591" stroke-width="1" />
  <text x="595" y="642" font-family="Arial" font-size="10" text-anchor="middle">Premium Content</text>
  
  <rect x="660" y="625" width="140" height="25" rx="5" fill="#fff7e6" stroke="#ffd591" stroke-width="1" />
  <text x="730" y="642" font-family="Arial" font-size="10" text-anchor="middle">Multi-Tier Membership</text>
  
  <rect x="810" y="625" width="240" height="25" rx="5" fill="#fff7e6" stroke="#ffd591" stroke-width="1" />
  <text x="930" y="642" font-family="Arial" font-size="10" text-anchor="middle">Collaborative Experience &amp; Cross-Product Integration</text>
  
  <!-- Additional Game Products -->
  <rect x="50" y="660" width="1000" height="80" rx="5" fill="#f6ffed" stroke="#52c41a" stroke-width="2" />
  <text x="550" y="685" font-family="Arial" font-size="16" font-weight="bold" text-anchor="middle">Additional Revenue Opportunities</text>
  
  <rect x="70" y="700" width="250" height="30" rx="5" fill="#d9f7be" stroke="#73d13d" stroke-width="1" />
  <text x="195" y="720" font-family="Arial" font-size="12" font-weight="bold" text-anchor="middle">Pocket Oracle: Mystical Tarot</text>
  
  <rect x="330" y="700" width="250" height="30" rx="5" fill="#d9f7be" stroke="#73d13d" stroke-width="1" />
  <text x="455" y="720" font-family="Arial" font-size="12" font-weight="bold" text-anchor="middle">Super Hide &amp; Seek</text>
  
  <rect x="590" y="700" width="250" height="30" rx="5" fill="#d9f7be" stroke="#73d13d" stroke-width="1" />
  <text x="715" y="720" font-family="Arial" font-size="12" font-weight="bold" text-anchor="middle">AI Art Gallery Adventure</text>
  
  <rect x="850" y="700" width="200" height="30" rx="5" fill="#d9f7be" stroke="#73d13d" stroke-width="1" />
  <text x="950" y="720" font-family="Arial" font-size="12" font-weight="bold" text-anchor="middle">Enterprise Expansion</text>
</svg>