<?xml version='1.0' encoding='utf-8'?>
<svg xmlns="http://www.w3.org/2000/svg" viewBox="0 0 1000 750">
  <!-- Background -->
  <rect width="1000" height="750" fill="#f8f9fa"/>
  
  <!-- Title -->
  <text x="500" y="40" font-family="Arial" font-size="24" font-weight="bold" text-anchor="middle">9Bit Studios Ecosystem Integration Architecture</text>
  
  <!-- M4 Environment Container -->
  <rect x="50" y="80" width="900" height="600" rx="10" fill="#f0f5ff" stroke="#2f54eb" stroke-width="2" stroke-dasharray="10,5"/>
  <text x="500" y="105" font-family="Arial" font-size="16" font-weight="bold" text-anchor="middle">M4 Development Environment</text>
  
  <!-- Fantasy Worldbuilding Suite --> 
  <rect x="100" y="130" width="800" height="170" rx="10" fill="#f9f0ff" stroke="#722ed1" stroke-width="2"/>
  <text x="500" y="155" font-family="Arial" font-size="16" font-weight="bold" text-anchor="middle">Fantasy Worldbuilding Suite (Central Content Creation System)</text>
  
  <!-- Content Management Components -->
  <rect x="130" y="170" width="150" height="110" rx="5" fill="#f0f0ff" stroke="#9254de" stroke-width="1"/>
  <text x="205" y="190" font-family="Arial" font-size="14" font-weight="bold" text-anchor="middle">Character Database</text>
  <text x="205" y="210" font-family="Arial" font-size="12" text-anchor="middle">Profiles  Relationships</text>
  <text x="205" y="230" font-family="Arial" font-size="12" text-anchor="middle">Dialog Systems</text>
  <text x="205" y="250" font-family="Arial" font-size="12" text-anchor="middle">Character History</text>
  <text x="205" y="270" font-family="Arial" font-size="12" text-anchor="middle">Visual Attributes</text>
  
  <rect x="320" y="170" width="150" height="110" rx="5" fill="#f0f0ff" stroke="#9254de" stroke-width="1"/>
  <text x="395" y="190" font-family="Arial" font-size="14" font-weight="bold" text-anchor="middle">World Elements</text>
  <text x="395" y="210" font-family="Arial" font-size="12" text-anchor="middle">Locations</text>
  <text x="395" y="230" font-family="Arial" font-size="12" text-anchor="middle">Items  Artifacts</text>
  <text x="395" y="250" font-family="Arial" font-size="12" text-anchor="middle">Lore  Mythology</text>
  <text x="395" y="270" font-family="Arial" font-size="12" text-anchor="middle">Historical Events</text>
  
  <rect x="510" y="170" width="150" height="110" rx="5" fill="#f0f0ff" stroke="#9254de" stroke-width="1"/>
  <text x="585" y="190" font-family="Arial" font-size="14" font-weight="bold" text-anchor="middle">Narrative System</text>
  <text x="585" y="210" font-family="Arial" font-size="12" text-anchor="middle">Story Structure</text>
  <text x="585" y="230" font-family="Arial" font-size="12" text-anchor="middle">Ink Script Generator</text>
  <text x="585" y="250" font-family="Arial" font-size="12" text-anchor="middle">Branch Management</text>
  <text x="585" y="270" font-family="Arial" font-size="12" text-anchor="middle">Narrative Templates</text>
  
  <rect x="700" y="170" width="150" height="110" rx="5" fill="#f0f0ff" stroke="#9254de" stroke-width="1"/>
  <text x="775" y="190" font-family="Arial" font-size="14" font-weight="bold" text-anchor="middle">Asset Reference</text>
  <text x="775" y="210" font-family="Arial" font-size="12" text-anchor="middle">Brand System</text>
  <text x="775" y="230" font-family="Arial" font-size="12" text-anchor="middle">Visual Guidelines</text>
  <text x="775" y="250" font-family="Arial" font-size="12" text-anchor="middle">UI Component Map</text>
  <text x="775" y="270" font-family="Arial" font-size="12" text-anchor="middle">Style References</text>
  
  <!-- Quantum-Spatial Design System -->
  <rect x="100" y="320" width="800" height="80" rx="10" fill="#f6ffed" stroke="#52c41a" stroke-width="2"/>
  <text x="500" y="345" font-family="Arial" font-size="16" font-weight="bold" text-anchor="middle">Quantum-Spatial Design System</text>
  <text x="500" y="370" font-family="Arial" font-size="12" text-anchor="middle">Shared Visual Language • Grid System • Color Palette • Typography • Motion System • Material Properties</text>
  <text x="500" y="390" font-family="Arial" font-size="12" text-anchor="middle">State Transitions • Dimensional Depth • Energy Visualization</text>
  
  <!-- Product Line Containers -->
  <!-- Oksana Container -->
  <rect x="100" y="420" width="380" height="210" rx="10" fill="#e6f7ff" stroke="#1890ff" stroke-width="2"/>
  <text x="290" y="440" font-family="Arial" font-size="16" font-weight="bold" text-anchor="middle">Oksana Creative Platform</text>
  
  <!-- Oksana Product Components -->
  <rect x="120" y="455" width="155" height="155" rx="5" fill="#bae7ff" stroke="#1890ff" stroke-width="1"/>
  <text x="197" y="475" font-family="Arial" font-size="14" font-weight="bold" text-anchor="middle">Rapid Launch Track</text>
  <rect x="130" y="485" width="135" height="115" rx="3" fill="#e6f7ff" stroke="#91d5ff" stroke-width="1"/>
  <text x="197" y="505" font-family="Arial" font-size="12" text-anchor="middle">Framer + Next.js</text>
  <text x="197" y="525" font-family="Arial" font-size="12" text-anchor="middle">AI Branding Quiz</text>
  <text x="197" y="545" font-family="Arial" font-size="12" text-anchor="middle">Content Calendar AI</text>
  <text x="197" y="565" font-family="Arial" font-size="12" text-anchor="middle">Brand Scanner</text>
  <text x="197" y="585" font-family="Arial" font-size="10" fill="#1890ff" text-anchor="middle">Month 1-6 Early Revenue</text>
  
  <rect x="305" y="455" width="155" height="155" rx="5" fill="#bae7ff" stroke="#1890ff" stroke-width="1"/>
  <text x="382" y="475" font-family="Arial" font-size="14" font-weight="bold" text-anchor="middle">Core Platform Track</text>
  <rect x="315" y="485" width="135" height="115" rx="3" fill="#e6f7ff" stroke="#91d5ff" stroke-width="1"/>
  <text x="382" y="505" font-family="Arial" font-size="12" text-anchor="middle">SwiftUI + CloudKit</text>
  <text x="382" y="525" font-family="Arial" font-size="12" text-anchor="middle">Asset Manager</text>
  <text x="382" y="545" font-family="Arial" font-size="12" text-anchor="middle">Brand Director Module</text>
  <text x="382" y="565" font-family="Arial" font-size="12" text-anchor="middle">Content Creation Suite</text>
  <text x="382" y="585" font-family="Arial" font-size="10" fill="#1890ff" text-anchor="middle">Q2 2025+ Core Platform</text>
  
  <!-- Jrotharke Container -->
  <rect x="520" y="420" width="380" height="210" rx="10" fill="#fff2e8" stroke="#fa541c" stroke-width="2"/>
  <text x="710" y="440" font-family="Arial" font-size="16" font-weight="bold" text-anchor="middle">World of Jrotharke Game Universe</text>
  
  <!-- Jrotharke Product Components -->
  <rect x="540" y="455" width="155" height="155" rx="5" fill="#ffe7ba" stroke="#fa8c16" stroke-width="1"/>
  <text x="617" y="475" font-family="Arial" font-size="14" font-weight="bold" text-anchor="middle">Quick Launch</text>
  <rect x="550" y="485" width="135" height="115" rx="3" fill="#fff7e6" stroke="#ffd591" stroke-width="1"/>
  <text x="617" y="505" font-family="Arial" font-size="12" text-anchor="middle">Web Narrative</text>
  <text x="617" y="525" font-family="Arial" font-size="12" text-anchor="middle">iOS Escape Room</text>
  <text x="617" y="545" font-family="Arial" font-size="12" text-anchor="middle">Community Hub</text>
  <text x="617" y="565" font-family="Arial" font-size="12" text-anchor="middle">Initial Episodes</text>
  <text x="617" y="585" font-family="Arial" font-size="10" fill="#fa541c" text-anchor="middle">Month 2-6 Early Revenue</text>
  
  <rect x="725" y="455" width="155" height="155" rx="5" fill="#ffe7ba" stroke="#fa8c16" stroke-width="1"/>
  <text x="802" y="475" font-family="Arial" font-size="14" font-weight="bold" text-anchor="middle">Core Game</text>
  <rect x="735" y="485" width="135" height="115" rx="3" fill="#fff7e6" stroke="#ffd591" stroke-width="1"/>
  <text x="802" y="505" font-family="Arial" font-size="12" text-anchor="middle">Full RPG Experience</text>
  <text x="802" y="525" font-family="Arial" font-size="12" text-anchor="middle">Episodic Content</text>
  <text x="802" y="545" font-family="Arial" font-size="12" text-anchor="middle">Member System</text>
  <text x="802" y="565" font-family="Arial" font-size="12" text-anchor="middle">Game Universe Exp.</text>
  <text x="802" y="585" font-family="Arial" font-size="10" fill="#fa541c" text-anchor="middle">Q3 2025+ Core Game</text>
  
  <!-- Technology Integration Stack -->
  <!-- Supabase Container -->
  <rect x="100" y="650" width="350" height="50" rx="10" fill="#f9f0ff" stroke="#722ed1" stroke-width="2"/>
  <text x="275" y="680" font-family="Arial" font-size="16" font-weight="bold" text-anchor="middle">Supabase Backend</text>
  
  <!-- CloudKit Integration -->
  <rect x="460" y="650" width="250" height="50" rx="10" fill="#e6f7ff" stroke="#1890ff" stroke-width="2"/>
  <text x="585" y="680" font-family="Arial" font-size="16" font-weight="bold" text-anchor="middle">CloudKit Integration</text>
  
  <!-- Cross-Platform Auth & State -->
  <rect x="720" y="650" width="180" height="50" rx="10" fill="#f0f5ff" stroke="#597ef7" stroke-width="2"/>
  <text x="810" y="675" font-family="Arial" font-size="12" font-weight="bold" text-anchor="middle">Privacy-First Storage</text>
  <text x="810" y="690" font-family="Arial" font-size="10" text-anchor="middle">Cloudinary + Tiered Access</text>
  
  <!-- AI Framework Container -->
  <rect x="400" y="540" width="200" height="90" rx="5" fill="#f3f0ff" stroke="#594bac" stroke-width="1"/>
  <text x="500" y="560" font-family="Arial" font-size="14" font-weight="bold" text-anchor="middle">Privacy-First AI Framework</text>
  <text x="500" y="580" font-family="Arial" font-size="12" text-anchor="middle">Cloud APIs → On-Device ML</text>
  <text x="500" y="600" font-family="Arial" font-size="12" text-anchor="middle">Neural Engine Optimization</text>
  <text x="500" y="620" font-family="Arial" font-size="12" text-anchor="middle">Tiered Consent Model</text>
  
  <!-- Vision Pro Layer Container -->
  <rect x="100" y="703" width="800" height="40" rx="10" fill="#fff1f0" stroke="#f5222d" stroke-width="2"/>
  <text x="500" y="728" font-family="Arial" font-size="16" font-weight="bold" text-anchor="middle">Vision Pro Experience Layer (Future-Ready Design)</text>
  
  <!-- Connection Lines -->
  <!-- Fantasy Worldbuilding to Design System -->
  <line x1="500" y1="300" x2="500" y2="320" stroke="#722ed1" stroke-width="1.5"/>
  <polygon points="495,310 500,320 505,310" fill="#722ed1"/>
  
  <!-- Design System to Products -->
  <line x1="350" y1="400" x2="290" y2="420" stroke="#52c41a" stroke-width="1.5"/>
  <polygon points="285,410 290,420 295,410" fill="#52c41a"/>
  
  <line x1="650" y1="400" x2="710" y2="420" stroke="#52c41a" stroke-width="1.5"/>
  <polygon points="705,410 710,420 715,410" fill="#52c41a"/>
  
  <!-- Fantasy Worldbuilding to Products Direct -->
  <line x1="200" y1="300" x2="197" y2="455" stroke="#722ed1" stroke-width="1.5" stroke-dasharray="5,3"/>
  <polygon points="192,445 197,455 202,445" fill="#722ed1"/>
  
  <line x1="400" y1="300" x2="382" y2="455" stroke="#722ed1" stroke-width="1.5" stroke-dasharray="5,3"/>
  <polygon points="377,445 382,455 387,445" fill="#722ed1"/>
  
  <line x1="600" y1="300" x2="617" y2="455" stroke="#722ed1" stroke-width="1.5" stroke-dasharray="5,3"/>
  <polygon points="612,445 617,455 622,445" fill="#722ed1"/>
  
  <line x1="800" y1="300" x2="802" y2="455" stroke="#722ed1" stroke-width="1.5" stroke-dasharray="5,3"/>
  <polygon points="797,445 802,455 807,445" fill="#722ed1"/>
  
  <!-- Products to Backend -->
  <line x1="290" y1="610" x2="275" y2="650" stroke="#1890ff" stroke-width="1.5"/>
  <polygon points="270,640 275,650 280,640" fill="#1890ff"/>
  
  <line x1="710" y1="610" x2="600" y2="650" stroke="#fa8c16" stroke-width="1.5"/>
  <polygon points="595,640 600,650 605,640" fill="#fa8c16"/>
  
  <!-- AI Framework Connections -->
  <line x1="382" y1="530" x2="400" y2="560" stroke="#1890ff" stroke-width="1.5"/>
  <polygon points="395,550 400,560 405,550" fill="#1890ff"/>
  
  <line x1="617" y1="530" x2="600" y2="560" stroke="#fa8c16" stroke-width="1.5"/>
  <polygon points="595,550 600,560 605,550" fill="#fa8c16"/>
  
  <!-- Backend Interconnections -->
  <line x1="450" y1="675" x2="360" y2="675" stroke="#722ed1" stroke-width="1.5" stroke-dasharray="5,3"/>
  <polygon points="365,670 360,675 365,680" fill="#722ed1"/>
  
  <line x1="710" y1="675" x2="620" y2="675" stroke="#1890ff" stroke-width="1.5" stroke-dasharray="5,3"/>
  <polygon points="625,670 620,675 625,680" fill="#1890ff"/>
  
  <!-- AI to CloudKit -->
  <line x1="500" y1="630" x2="500" y2="650" stroke="#594bac" stroke-width="1.5"/>
  <polygon points="495,640 500,650 505,640" fill="#594bac"/>
  
  <!-- Products to Vision Pro -->
  <line x1="290" y1="610" x2="400" y2="703" stroke="#f5222d" stroke-width="1.5" stroke-dasharray="5,3"/>
  <polygon points="395,693 400,703 405,693" fill="#f5222d"/>
  
  <line x1="710" y1="610" x2="600" y2="703" stroke="#f5222d" stroke-width="1.5" stroke-dasharray="5,3"/>
  <polygon points="595,693 600,703 605,693" fill="#f5222d"/>
  
  <!-- Neural Engine Indicators -->
  <rect x="60" y="670" width="15" height="15" fill="#ffccc7" stroke="#f5222d" stroke-width="1"/>
  <text x="85" y="683" font-family="Arial" font-size="12" text-anchor="start">Neural Engine Acceleration</text>
  
  <rect x="500" y="590" width="15" height="15" fill="#ffccc7" stroke="#f5222d" stroke-width="1"/>
  <rect x="382" y="525" width="15" height="15" fill="#ffccc7" stroke="#f5222d" stroke-width="1"/>
  <rect x="802" y="525" width="15" height="15" fill="#ffccc7" stroke="#f5222d" stroke-width="1"/>
  
  <!-- Shared Content Indicators -->
  <rect x="250" y="670" width="15" height="15" fill="#f0f0ff" stroke="#722ed1" stroke-width="1"/>
  <text x="275" y="683" font-family="Arial" font-size="12" text-anchor="start">Shared Content Pipeline</text>
  
  <rect x="500" y="130" width="15" height="15" fill="#f0f0ff" stroke="#722ed1" stroke-width="1"/>
  <rect x="585" y="170" width="15" height="15" fill="#f0f0ff" stroke="#722ed1" stroke-width="1"/>
  
  <!-- Revenue Integration Points -->
  <rect x="450" y="670" width="15" height="15" fill="#f9f0ff" stroke="#722ed1" stroke-width="1"/>
  <text x="475" y="683" font-family="Arial" font-size="12" text-anchor="start">Revenue Integration</text>
  
  <rect x="197" y="455" width="15" height="15" fill="#f9f0ff" stroke="#722ed1" stroke-width="1"/>
  <rect x="382" y="455" width="15" height="15" fill="#f9f0ff" stroke="#722ed1" stroke-width="1"/>
  <rect x="617" y="455" width="15" height="15" fill="#f9f0ff" stroke="#722ed1" stroke-width="1"/>
  <rect x="802" y="455" width="15" height="15" fill="#f9f0ff" stroke="#722ed1" stroke-width="1"/>
  
  <!-- Legend: Platforms -->
  <rect x="650" y="670" width="15" height="15" fill="#e6f7ff" stroke="#1890ff" stroke-width="1"/>
  <text x="675" y="683" font-family="Arial" font-size="12" text-anchor="start">Oksana Platform</text>
  
  <rect x="800" y="670" width="15" height="15" fill="#fff2e8" stroke="#fa541c" stroke-width="1"/>
  <text x="825" y="683" font-family="Arial" font-size="12" text-anchor="start">Jrotharke Universe</text></svg>