<?xml version='1.0' encoding='utf-8'?>
<svg xmlns="http://www.w3.org/2000/svg" viewBox="0 0 950 750">
  <defs>
    <style>
      .cls-1 {
        fill: #fff2e8;
        stroke: #fa8c16;
        opacity: .3;
        stroke-dasharray: 5 5;
      }
      .cls-2 {
        fill: #f6ffed;
        stroke: #52c41a;
        opacity: .3;
        stroke-dasharray: 5 5;
      }
      .cls-3 {
        fill: #e6f7ff;
        stroke: #1890ff;
        opacity: .3;
        stroke-dasharray: 5 5;
      }
      .cls-4 {
        font-family: Arial-BoldMT, Arial;
        font-weight: 700;
        font-size: 14px;
        fill: #1890ff;
      }
      .cls-5 {
        font-family: Arial-BoldMT, Arial;
        font-weight: 700;
        font-size: 9px;
      }
      .cls-6 {
        font-family: Arial-BoldMT, Arial;
        font-weight: 700;
        font-size: 14px;
        fill: #fa8c16;
      }
      .cls-7 {
        fill: #52c41a;
        opacity: .8;
      }
      .cls-8 {
        font-family: ArialMT, Arial;
        font-size: 12px;
      }
      .cls-9 {
        font-family: ArialMT, Arial;
        font-size: 9px;
      }
      .cls-10 {
        font-family: Arial-BoldMT, Arial;
        font-weight: 700;
        font-size: 14px;
        fill: #389e0d;
      }
      .cls-11 {
        font-family: Arial-BoldMT, Arial;
        font-weight: 700;
        font-size: 16px;
      }
      .cls-12 {
        font-family: Arial-ItalicMT, Arial;
        font-style: italic;
        font-size: 12px;
        fill: #722ed1;
      }
      .cls-13 {
        fill: #fa8c16;
        opacity: .8;
      }
      .cls-14 {
        font-family: Arial-BoldMT, Arial;
        font-weight: 700;
        font-size: 24px;
      }
      .cls-15 {
        font-family: Arial-BoldMT, Arial;
        font-weight: 700;
        font-size: 16px;
        fill: #722ed1;
      }
      .cls-16 {
        font-family: Arial-BoldMT, Arial;
        font-weight: 700;
        font-size: 14px;
      }
      .cls-17 {
        fill: #1890ff;
        opacity: .8;
      }
      .cls-18 {
        fill: #5b8c00;
        opacity: .8;
      }
      .cls-19 {
        fill: #f8f9fa;
      }
      .cls-25 {
        stroke: #333;
        fill: none;
        stroke-width: 2px;
      }
      .cls-26 {
        stroke-dasharray: 10 4;
        fill: none;
        stroke-width: 2px;
        stroke: #722ed1;
      }
      .cls-27 {
        fill: #f9f0ff;
        stroke: #722ed1;
      }
    </style>
  </defs>
  <rect class="cls-19" width="950" height="750"/>
  <text class="cls-14" transform="translate(215 50)"><tspan x="0" y="0">9Bit Studios Product Priorities Matrix</tspan></text>
  <line class="cls-25" x1="150" y1="620" x2="880" y2="620"/>
  <line class="cls-25" x1="150" y1="620" x2="150" y2="120"/>
  <text class="cls-11" transform="translate(421.35 660)"><tspan x="0" y="0">Implementation Timeline</tspan></text>
  <text class="cls-11" transform="translate(90 428.7) rotate(-90)"><tspan x="0" y="0">Business Value</tspan></text>
  <line class="cls-25" x1="150" y1="625" x2="150" y2="615"/>
  <text class="cls-8" transform="translate(138 645)"><tspan x="0" y="0">Now</tspan></text>
  <line class="cls-25" x1="333" y1="625" x2="333" y2="615"/>
  <text class="cls-8" transform="translate(311.32 645)"><tspan x="0" y="0">Month 2</tspan></text>
  <line class="cls-25" x1="516" y1="625" x2="516" y2="615"/>
  <text class="cls-8" transform="translate(494.32 645)"><tspan x="0" y="0">Month 4</tspan></text>
  <line class="cls-25" x1="699" y1="625" x2="699" y2="615"/>
  <text class="cls-8" transform="translate(677.32 645)"><tspan x="0" y="0">Month 6</tspan></text>
  <line class="cls-25" x1="880" y1="625" x2="880" y2="615"/>
  <text class="cls-8" transform="translate(854.98 645)"><tspan x="0" y="0">Month 12</tspan></text>
  <line class="cls-25" x1="145" y1="620" x2="155" y2="620"/>
  <text class="cls-8" transform="translate(107.99 625)"><tspan x="0" y="0">Low</tspan></text>
  <line class="cls-25" x1="145" y1="370" x2="155" y2="370"/>
  <text class="cls-8" transform="translate(87.32 375)"><tspan x="0" y="0">Medium</tspan></text>
  <line class="cls-25" x1="145" y1="120" x2="155" y2="120"/>
  <text class="cls-8" transform="translate(105.32 125)"><tspan x="0" y="0">High</tspan></text>
  <rect class="cls-2" x="150" y="120" width="730" height="166"/>
  <text class="cls-10" transform="translate(175 140)"><tspan x="0" y="0">MUST HAVE</tspan></text>
  <rect class="cls-3" x="150" y="286" width="730" height="166"/>
  <text class="cls-4" transform="translate(175 306)"><tspan x="0" y="0">SHOULD HAVE</tspan></text>
  <rect class="cls-1" x="150" y="452" width="730" height="168"/>
  <text class="cls-6" transform="translate(175 472)"><tspan x="0" y="0">NICE TO HAVE</tspan></text>
  <ellipse class="cls-26" cx="280" cy="220" rx="180" ry="100"/>
  <text class="cls-15" transform="translate(155 250)"><tspan x="0" y="0">Fantasy Worldbuilding Foundation</tspan></text>
  <text class="cls-12" transform="translate(200.96 270)"><tspan x="0" y="0">Shared Content Creation System</tspan></text>
  
  <!-- MUST HAVE Elements - Oksana -->
  <circle class="cls-17" cx="180" cy="180" r="25"/>
  <text class="cls-5" transform="translate(164.24 173.34)"><tspan x="0" y="0">AI Branding</tspan></text>
  <text class="cls-9" transform="translate(165.74 183.36)"><tspan x="0" y="0">Quiz</tspan></text>
  
  <circle class="cls-17" cx="230" cy="160" r="25"/>
  <text class="cls-5" transform="translate(213.74 159.78)"><tspan x="0" y="0">Content</tspan></text>
  <text class="cls-9" transform="translate(213.73 169.22)"><tspan x="0" y="0">Calendar</tspan></text>
  
  <circle class="cls-17" cx="280" cy="140" r="25"/>
  <text class="cls-5" transform="translate(263.49 139.79)"><tspan x="0" y="0">Brand</tspan></text>
  <text class="cls-9" transform="translate(263.99 149)"><tspan x="0" y="0">Scanner</tspan></text>
  
  <circle class="cls-17" cx="330" cy="170" r="25"/>
  <text class="cls-5" transform="translate(311.5 167)"><tspan x="0" y="0">Supabase</tspan></text>
  <text class="cls-9" transform="translate(315.73 177)"><tspan x="0" y="0">Backend</tspan></text>
  
  <!-- MUST HAVE Elements - Jrotharke -->
  <circle class="cls-18" cx="440" cy="150" r="25"/>
  <text class="cls-5" transform="translate(423.24 148.34)"><tspan x="0" y="0">Web</tspan></text>
  <text class="cls-9" transform="translate(413.74 158.36)"><tspan x="0" y="0">Narrative Exp</tspan></text>
  
  <circle class="cls-18" cx="490" cy="165" r="25"/>
  <text class="cls-5" transform="translate(473.74 163.78)"><tspan x="0" y="0">iOS</tspan></text>
  <text class="cls-9" transform="translate(465.73 173.22)"><tspan x="0" y="0">Escape Room</tspan></text>
  
  <circle class="cls-18" cx="540" cy="140" r="25"/>
  <text class="cls-5" transform="translate(525.49 139.79)"><tspan x="0" y="0">Community</tspan></text>
  <text class="cls-9" transform="translate(532.99 149)"><tspan x="0" y="0">Hub</tspan></text>
  
  <!-- SHOULD HAVE Elements - Oksana -->
  <circle class="cls-17" cx="200" cy="320" r="25"/>
  <text class="cls-5" transform="translate(183 318)"><tspan x="0" y="0">Asset</tspan></text>
  <text class="cls-9" transform="translate(180 328)"><tspan x="0" y="0">Manager</tspan></text>
  
  <circle class="cls-17" cx="255" cy="340" r="25"/>
  <text class="cls-5" transform="translate(235 338)"><tspan x="0" y="0">CloudKit</tspan></text>
  <text class="cls-9" transform="translate(239 348)"><tspan x="0" y="0">Sync</tspan></text>
  
  <circle class="cls-17" cx="310" cy="300" r="25"/>
  <text class="cls-5" transform="translate(295 298)"><tspan x="0" y="0">ML</tspan></text>
  <text class="cls-9" transform="translate(290 308)"><tspan x="0" y="0">Pipeline</tspan></text>
  
  <circle class="cls-17" cx="365" cy="330" r="25"/>
  <text class="cls-5" transform="translate(350 328)"><tspan x="0" y="0">Brand</tspan></text>
  <text class="cls-9" transform="translate(339 338)"><tspan x="0" y="0">Director Module</tspan></text>
  
  <!-- SHOULD HAVE Elements - Jrotharke -->
  <circle class="cls-18" cx="490" cy="320" r="25"/>
  <text class="cls-5" transform="translate(473 318)"><tspan x="0" y="0">Full RPG</tspan></text>
  <text class="cls-9" transform="translate(473 328)"><tspan x="0" y="0">Experience</tspan></text>
  
  <circle class="cls-18" cx="545" cy="340" r="25"/>
  <text class="cls-5" transform="translate(527 338)"><tspan x="0" y="0">Episodic</tspan></text>
  <text class="cls-9" transform="translate(530 348)"><tspan x="0" y="0">Content</tspan></text>
  
  <circle class="cls-18" cx="600" cy="300" r="25"/>
  <text class="cls-5" transform="translate(583 298)"><tspan x="0" y="0">In-Game</tspan></text>
  <text class="cls-9" transform="translate(583 308)"><tspan x="0" y="0">Economy</tspan></text>
  
  <circle class="cls-18" cx="655" cy="320" r="25"/>
  <text class="cls-5" transform="translate(637 318)"><tspan x="0" y="0">Member</tspan></text>
  <text class="cls-9" transform="translate(636 328)"><tspan x="0" y="0">Subscriptions</tspan></text>
  
  <!-- NICE TO HAVE Elements - Oksana -->
  <circle class="cls-17" cx="200" cy="500" r="25"/>
  <text class="cls-5" transform="translate(182 498)"><tspan x="0" y="0">Content</tspan></text>
  <text class="cls-9" transform="translate(180 508)"><tspan x="0" y="0">Creation</tspan></text>
  
  <circle class="cls-17" cx="255" cy="520" r="25"/>
  <text class="cls-5" transform="translate(235 518)"><tspan x="0" y="0">Vision Pro</tspan></text>
  <text class="cls-9" transform="translate(239 528)"><tspan x="0" y="0">Interface</tspan></text>
  
  <circle class="cls-17" cx="310" cy="490" r="25"/>
  <text class="cls-5" transform="translate(290 488)"><tspan x="0" y="0">Enterprise</tspan></text>
  <text class="cls-9" transform="translate(295 498)"><tspan x="0" y="0">Tools</tspan></text>
  
  <!-- NICE TO HAVE Elements - Jrotharke -->
  <circle class="cls-18" cx="490" cy="500" r="25"/>
  <text class="cls-5" transform="translate(473 498)"><tspan x="0" y="0">Pocket</tspan></text>
  <text class="cls-9" transform="translate(473 508)"><tspan x="0" y="0">Oracle</tspan></text>
  
  <circle class="cls-18" cx="545" cy="520" r="25"/>
  <text class="cls-5" transform="translate(527 518)"><tspan x="0" y="0">Super</tspan></text>
  <text class="cls-9" transform="translate(522 528)"><tspan x="0" y="0">Hide  Seek</tspan></text>
  
  <circle class="cls-18" cx="600" cy="490" r="25"/>
  <text class="cls-5" transform="translate(583 488)"><tspan x="0" y="0">Vision Pro</tspan></text>
  <text class="cls-9" transform="translate(583 498)"><tspan x="0" y="0">Experience</tspan></text>
  
  <circle class="cls-18" cx="655" cy="510" r="25"/>
  <text class="cls-5" transform="translate(637 508)"><tspan x="0" y="0">AI Art</tspan></text>
  <text class="cls-9" transform="translate(635 518)"><tspan x="0" y="0">Gallery</tspan></text>
  
  <!-- Shared Technology -->
  <rect x="700" y="140" width="150" height="80" rx="8" fill="#f9f0ff" stroke="#722ed1" stroke-width="2"/>
  <text x="775" y="165" font-family="Arial" font-size="12" font-weight="bold" text-anchor="middle">Shared Technology</text>
  <text x="775" y="185" font-family="Arial" font-size="10" text-anchor="middle">M4 Development Environment</text>
  <text x="775" y="200" font-family="Arial" font-size="10" text-anchor="middle">SwiftUI + CloudKit</text>
  <text x="775" y="215" font-family="Arial" font-size="10" text-anchor="middle">Privacy-First AI Framework</text>
  
  <!-- Revenue Indicators -->
  <rect x="50" y="540" width="15" height="15" fill="#f9f0ff" stroke="#722ed1" stroke-width="1"/>
  <text x="75" y="552" font-family="Arial" font-size="12" text-anchor="start">Monetization Opportunity</text>
  
  <!-- Monetization Points - Oksana -->
  <rect x="180" y="150" width="15" height="15" fill="#f9f0ff" stroke="#722ed1" stroke-width="1"/>
  <text x="205" y="158" font-family="Arial" font-size="9" text-anchor="start">$9.99-49.99/mo</text>
  
  <rect x="230" y="135" width="15" height="15" fill="#f9f0ff" stroke="#722ed1" stroke-width="1"/>
  <text x="255" y="143" font-family="Arial" font-size="9" text-anchor="start">$14.99-29.99/mo</text>
  
  <rect x="280" y="115" width="15" height="15" fill="#f9f0ff" stroke="#722ed1" stroke-width="1"/>
  <text x="305" y="123" font-family="Arial" font-size="9" text-anchor="start">$29-99 per scan</text>
  
  <rect x="200" y="295" width="15" height="15" fill="#f9f0ff" stroke="#722ed1" stroke-width="1"/>
  <text x="225" y="303" font-family="Arial" font-size="9" text-anchor="start">$9.99-29.99/mo</text>
  
  <!-- Monetization Points - Jrotharke -->  
  <rect x="440" y="125" width="15" height="15" fill="#f9f0ff" stroke="#722ed1" stroke-width="1"/>
  <text x="465" y="133" font-family="Arial" font-size="9" text-anchor="start">$4.99/episode</text>
  
  <rect x="490" y="140" width="15" height="15" fill="#f9f0ff" stroke="#722ed1" stroke-width="1"/>
  <text x="515" y="148" font-family="Arial" font-size="9" text-anchor="start">$6.99 + $3.99/room</text>
  
  <rect x="490" y="295" width="15" height="15" fill="#f9f0ff" stroke="#722ed1" stroke-width="1"/>
  <text x="515" y="303" font-family="Arial" font-size="9" text-anchor="start">$4.99 + $2.99/episode</text>
  
  <rect x="655" y="295" width="15" height="15" fill="#f9f0ff" stroke="#722ed1" stroke-width="1"/>
  <text x="680" y="303" font-family="Arial" font-size="9" text-anchor="start">$2.99-14.99/mo</text>
  
  <!-- Vision Pro Integration -->
  <rect x="600" y="465" width="15" height="15" fill="#fff1f0" stroke="#f5222d" stroke-width="1"/>
  <text x="625" y="478" font-family="Arial" font-size="9" text-anchor="start">Vision Pro Experience</text>
  
  <!-- Legend -->
  <rect x="150" y="680" width="20" height="20" fill="#1890ff" opacity="0.8" rx="10"/>
  <text x="180" y="695" font-family="Arial" font-size="12" text-anchor="start">Oksana Creative Platform</text>
  
  <rect x="350" y="680" width="20" height="20" fill="#5b8c00" opacity="0.8" rx="10"/>
  <text x="380" y="695" font-family="Arial" font-size="12" text-anchor="start">World of Jrotharke</text>
  
  <rect x="550" y="680" width="20" height="20" fill="#f9f0ff" stroke="#722ed1" stroke-width="1"/>
  <text x="580" y="695" font-family="Arial" font-size="12" text-anchor="start">Revenue Opportunity</text>
  
  <rect x="750" y="680" width="20" height="20" fill="#fff1f0" stroke="#f5222d" stroke-width="1"/>
  <text x="780" y="695" font-family="Arial" font-size="12" text-anchor="start">Vision Pro Integration</text>
</svg>