<svg xmlns="http://www.w3.org/2000/svg" viewBox="0 0 1000 750">
  <!-- Background -->
  <rect width="1000" height="750" fill="#f8f9fa" />
  
  <!-- Title -->
  <text x="500" y="40" font-family="Arial" font-size="24" font-weight="bold" text-anchor="middle">Jrotharke Technology Integration Architecture (Updated)</text>
  
  <!-- M4 Environment Container -->
  <rect x="50" y="80" width="900" height="600" rx="10" fill="#f0f5ff" stroke="#2f54eb" stroke-width="2" stroke-dasharray="10,5" />
  <text x="500" y="105" font-family="Arial" font-size="16" font-weight="bold" text-anchor="middle">M4 Development Environment</text>
  
  <!-- Fantasy Worldbuilding Container -->
  <rect x="100" y="130" width="800" height="200" rx="10" fill="#f6ffed" stroke="#52c41a" stroke-width="2" />
  <text x="500" y="155" font-family="Arial" font-size="16" font-weight="bold" text-anchor="middle">Fantasy Worldbuilding Suite (Notion)</text>
  
  <!-- Worldbuilding Components -->
  <rect x="130" y="170" width="150" height="130" rx="5" fill="#d9f7be" stroke="#73d13d" stroke-width="1" />
  <text x="205" y="190" font-family="Arial" font-size="14" font-weight="bold" text-anchor="middle">World Shaper</text>
  <text x="205" y="210" font-family="Arial" font-size="12" text-anchor="middle">Geography and Climate</text>
  <text x="205" y="230" font-family="Arial" font-size="12" text-anchor="middle">Region Definitions</text>
  <text x="205" y="250" font-family="Arial" font-size="12" text-anchor="middle">Weather Patterns</text>
  <text x="205" y="270" font-family="Arial" font-size="12" text-anchor="middle">Fantastic Elements</text>
  
  <rect x="320" y="170" width="150" height="130" rx="5" fill="#d9f7be" stroke="#73d13d" stroke-width="1" />
  <text x="395" y="190" font-family="Arial" font-size="14" font-weight="bold" text-anchor="middle">Social Structure</text>
  <text x="395" y="210" font-family="Arial" font-size="12" text-anchor="middle">Cultures and Factions</text>
  <text x="395" y="230" font-family="Arial" font-size="12" text-anchor="middle">Social Hierarchies</text>
  <text x="395" y="250" font-family="Arial" font-size="12" text-anchor="middle">Political Systems</text>
  <text x="395" y="270" font-family="Arial" font-size="12" text-anchor="middle">Economic Structures</text>
  
  <rect x="510" y="170" width="150" height="130" rx="5" fill="#d9f7be" stroke="#73d13d" stroke-width="1" />
  <text x="585" y="190" font-family="Arial" font-size="14" font-weight="bold" text-anchor="middle">Character Forge</text>
  <text x="585" y="210" font-family="Arial" font-size="12" text-anchor="middle">Character Profiles</text>
  <text x="585" y="230" font-family="Arial" font-size="12" text-anchor="middle">Relationship Webs</text>
  <text x="585" y="250" font-family="Arial" font-size="12" text-anchor="middle">Motivation Systems</text>
  <text x="585" y="270" font-family="Arial" font-size="12" text-anchor="middle">Character Arcs</text>
  
  <rect x="700" y="170" width="150" height="130" rx="5" fill="#d9f7be" stroke="#73d13d" stroke-width="1" />
  <text x="775" y="190" font-family="Arial" font-size="14" font-weight="bold" text-anchor="middle">Lore Weaver</text>
  <text x="775" y="210" font-family="Arial" font-size="12" text-anchor="middle">History and Events</text>
  <text x="775" y="230" font-family="Arial" font-size="12" text-anchor="middle">Belief Systems</text>
  <text x="775" y="250" font-family="Arial" font-size="12" text-anchor="middle">Myth and Magic</text>
  <text x="775" y="270" font-family="Arial" font-size="12" text-anchor="middle">Cultural Symbols</text>
  
  <!-- Content Pipeline Container -->
  <rect x="100" y="350" width="800" height="130" rx="10" fill="#e6f7ff" stroke="#1890ff" stroke-width="2" />
  <text x="500" y="375" font-family="Arial" font-size="16" font-weight="bold" text-anchor="middle">Content Pipeline</text>
  
  <!-- Content Pipeline Components -->
  <rect x="120" y="390" width="115" height="70" rx="5" fill="#bae7ff" stroke="#1890ff" stroke-width="1" />
  <text x="177" y="415" font-family="Arial" font-size="12" font-weight="bold" text-anchor="middle">Ink Compiler</text>
  <text x="177" y="435" font-family="Arial" font-size="10" text-anchor="middle">Narrative Scripting</text>
  <text x="177" y="450" font-family="Arial" font-size="8" fill="#666" text-anchor="middle">Shared Across Platforms</text>
  
  <rect x="245" y="390" width="115" height="70" rx="5" fill="#bae7ff" stroke="#1890ff" stroke-width="1" />
  <text x="302" y="415" font-family="Arial" font-size="12" font-weight="bold" text-anchor="middle">ML Asset Generator</text>
  <text x="302" y="435" font-family="Arial" font-size="10" text-anchor="middle">Neural Engine Enhanced</text>
  <text x="302" y="450" font-family="Arial" font-size="8" fill="#666" text-anchor="middle">M4 Optimization</text>
  
  <rect x="370" y="390" width="115" height="70" rx="5" fill="#bae7ff" stroke="#1890ff" stroke-width="1" />
  <text x="427" y="415" font-family="Arial" font-size="12" font-weight="bold" text-anchor="middle">Web Content</text>
  <text x="427" y="435" font-family="Arial" font-size="10" text-anchor="middle">Framer/Next.js Format</text>
  <text x="427" y="450" font-family="Arial" font-size="8" fill="#666" text-anchor="middle">Early Revenue Focus</text>
  
  <rect x="495" y="390" width="115" height="70" rx="5" fill="#bae7ff" stroke="#1890ff" stroke-width="1" />
  <text x="552" y="415" font-family="Arial" font-size="12" font-weight="bold" text-anchor="middle">iOS Asset Pipeline</text>
  <text x="552" y="435" font-family="Arial" font-size="10" text-anchor="middle">SwiftUI Optimized</text>
  <text x="552" y="450" font-family="Arial" font-size="8" fill="#666" text-anchor="middle">Shared Assets</text>
  
  <rect x="620" y="390" width="115" height="70" rx="5" fill="#bae7ff" stroke="#1890ff" stroke-width="1" />
  <text x="677" y="415" font-family="Arial" font-size="12" font-weight="bold" text-anchor="middle">Audio Engine</text>
  <text x="677" y="435" font-family="Arial" font-size="10" text-anchor="middle">Sound and Music</text>
  <text x="677" y="450" font-family="Arial" font-size="8" fill="#666" text-anchor="middle">Cross-Platform</text>
  
  <rect x="745" y="390" width="115" height="70" rx="5" fill="#bae7ff" stroke="#1890ff" stroke-width="1" />
  <text x="802" y="415" font-family="Arial" font-size="12" font-weight="bold" text-anchor="middle">3D Asset Builder</text>
  <text x="802" y="435" font-family="Arial" font-size="10" text-anchor="middle">Vision Pro Ready</text>
  <text x="802" y="450" font-family="Arial" font-size="8" fill="#666" text-anchor="middle">Future-Proof Design</text>
  
  <!-- Application Container -->
  <rect x="100" y="500" width="800" height="160" rx="10" fill="#fff2e8" stroke="#fa541c" stroke-width="2" />
  <text x="500" y="525" font-family="Arial" font-size="16" font-weight="bold" text-anchor="middle">Application Layer</text>
  
  <!-- Web Narrative Experience (NEW) -->
  <rect x="120" y="540" width="200" height="100" rx="5" fill="#ffe7ba" stroke="#fa8c16" stroke-width="1" />
  <text x="220" y="560" font-family="Arial" font-size="14" font-weight="bold" text-anchor="middle">Web Narrative Experience</text>
  <rect x="130" y="570" width="180" height="60" rx="3" fill="#fff7e6" stroke="#ffd591" stroke-width="1" />
  <text x="220" y="590" font-family="Arial" font-size="12" text-anchor="middle">Next.js + Framer</text>
  <text x="220" y="610" font-family="Arial" font-size="12" text-anchor="middle">Ink Web Runtime</text>
  <text x="220" y="630" font-family="Arial" font-size="10" fill="#fa541c" text-anchor="middle">Month 2 Revenue ($4.99/episode)</text>
  
  <!-- iOS Game -->
  <rect x="330" y="540" width="200" height="100" rx="5" fill="#ffe7ba" stroke="#fa8c16" stroke-width="1" />
  <text x="430" y="560" font-family="Arial" font-size="14" font-weight="bold" text-anchor="middle">iOS Escape Room + RPG</text>
  <rect x="340" y="570" width="180" height="60" rx="3" fill="#fff7e6" stroke="#ffd591" stroke-width="1" />
  <text x="430" y="590" font-family="Arial" font-size="12" text-anchor="middle">SwiftUI Interface</text>
  <text x="430" y="610" font-family="Arial" font-size="12" text-anchor="middle">Ink Runtime Engine</text>
  <text x="430" y="630" font-family="Arial" font-size="10" fill="#fa541c" text-anchor="middle">Month 3 ($6.99) / Month 6 ($4.99+)</text>
  
  <!-- Community Hub -->
  <rect x="540" y="540" width="160" height="100" rx="5" fill="#ffe7ba" stroke="#fa8c16" stroke-width="1" />
  <text x="620" y="560" font-family="Arial" font-size="14" font-weight="bold" text-anchor="middle">Community Hub</text>
  <rect x="550" y="570" width="140" height="60" rx="3" fill="#fff7e6" stroke="#ffd591" stroke-width="1" />
  <text x="620" y="590" font-family="Arial" font-size="12" text-anchor="middle">Framer Components</text>
  <text x="620" y="610" font-family="Arial" font-size="12" text-anchor="middle">User Engagement</text>
  <text x="620" y="630" font-family="Arial" font-size="10" fill="#fa541c" text-anchor="middle">Month 2-3 Membership</text>
  
  <!-- Vision Pro -->
  <rect x="710" y="540" width="170" height="100" rx="5" fill="#ffe7ba" stroke="#fa8c16" stroke-width="1" />
  <text x="795" y="560" font-family="Arial" font-size="14" font-weight="bold" text-anchor="middle">Vision Pro Experience</text>
  <rect x="720" y="570" width="150" height="60" rx="3" fill="#fff7e6" stroke="#ffd591" stroke-width="1" />
  <text x="795" y="590" font-family="Arial" font-size="12" text-anchor="middle">Spatial Interface</text>
  <text x="795" y="610" font-family="Arial" font-size="12" text-anchor="middle">3D Environment</text>
  <text x="795" y="630" font-family="Arial" font-size="10" fill="#fa541c" text-anchor="middle">Month 8+ Premium Tier</text>
  
  <!-- Supabase Container -->
  <rect x="100" y="680" width="350" height="50" rx="10" fill="#f9f0ff" stroke="#722ed1" stroke-width="2" />
  <text x="275" y="710" font-family="Arial" font-size="16" font-weight="bold" text-anchor="middle">Supabase Backend</text>
  
  <!-- Firebase Migration -->
  <rect x="460" y="680" width="350" height="50" rx="10" fill="#fff0f6" stroke="#eb2f96" stroke-width="2" stroke-dasharray="5,3"/>
  <text x="635" y="710" font-family="Arial" font-size="14" text-anchor="middle">Firebase Migration Path</text>
  <text x="635" y="725" font-family="Arial" font-size="10" font-style="italic" text-anchor="middle">Progressive transition during Month 1-2</text>
  
  <!-- Cross-Platform Auth & State -->
  <rect x="820" y="680" width="80" height="50" rx="10" fill="#f0f5ff" stroke="#597ef7" stroke-width="2" />
  <text x="860" y="705" font-family="Arial" font-size="12" font-weight="bold" text-anchor="middle">Shared</text>
  <text x="860" y="720" font-family="Arial" font-size="10" text-anchor="middle">Auth &amp; State</text>
  
  <!-- Connection Lines and Arrows -->
  <!-- Worldbuilding to Content Pipeline -->
  <line x1="205" y1="300" x2="177" y2="390" stroke="#52c41a" stroke-width="1.5" />
  <polygon points="172,380 177,390 182,380" fill="#52c41a" />
  
  <line x1="395" y1="300" x2="302" y2="390" stroke="#52c41a" stroke-width="1.5" />
  <polygon points="297,380 302,390 307,380" fill="#52c41a" />
  
  <line x1="585" y1="300" x2="427" y2="390" stroke="#52c41a" stroke-width="1.5" />
  <polygon points="422,380 427,390 432,380" fill="#52c41a" />
  
  <line x1="585" y1="300" x2="552" y2="390" stroke="#52c41a" stroke-width="1.5" />
  <polygon points="547,380 552,390 557,380" fill="#52c41a" />
  
  <line x1="775" y1="300" x2="677" y2="390" stroke="#52c41a" stroke-width="1.5" />
  <polygon points="672,380 677,390 682,380" fill="#52c41a" />
  
  <line x1="775" y1="300" x2="802" y2="390" stroke="#52c41a" stroke-width="1.5" />
  <polygon points="797,380 802,390 807,380" fill="#52c41a" />
  
  <!-- Content Pipeline to Applications -->
  <line x1="177" y1="460" x2="220" y2="540" stroke="#1890ff" stroke-width="1.5" />
  <polygon points="215,530 220,540 225,530" fill="#1890ff" />
  
  <line x1="177" y1="460" x2="430" y2="540" stroke="#1890ff" stroke-width="1.5" />
  <polygon points="425,530 430,540 435,530" fill="#1890ff" />
  
  <line x1="427" y1="460" x2="220" y2="540" stroke="#1890ff" stroke-width="1.5" />
  <polygon points="215,530 220,540 225,530" fill="#1890ff" />
  
  <line x1="427" y1="460" x2="620" y2="540" stroke="#1890ff" stroke-width="1.5" />
  <polygon points="615,530 620,540 625,530" fill="#1890ff" />
  
  <line x1="552" y1="460" x2="430" y2="540" stroke="#1890ff" stroke-width="1.5" />
  <polygon points="425,530 430,540 435,530" fill="#1890ff" />
  
  <line x1="677" y1="460" x2="430" y2="540" stroke="#1890ff" stroke-width="1.5" />
  <polygon points="425,530 430,540 435,530" fill="#1890ff" />
  
  <line x1="802" y1="460" x2="795" y2="540" stroke="#1890ff" stroke-width="1.5" />
  <polygon points="790,530 795,540 800,530" fill="#1890ff" />
  
  <!-- Applications to Supabase -->
  <line x1="220" y1="640" x2="275" y2="680" stroke="#fa8c16" stroke-width="1.5" />
  <polygon points="270,675 275,680 280,675" fill="#fa8c16" />
  
  <line x1="430" y1="640" x2="275" y2="680" stroke="#fa8c16" stroke-width="1.5" />
  <polygon points="270,675 275,680 280,675" fill="#fa8c16" />
  
  <line x1="620" y1="640" x2="275" y2="680" stroke="#fa8c16" stroke-width="1.5" />
  <polygon points="270,675 275,680 280,675" fill="#fa8c16" />
  
  <line x1="795" y1="640" x2="275" y2="680" stroke="#fa8c16" stroke-width="1.5" />
  <polygon points="270,675 275,680 280,675" fill="#fa8c16" />
  
  <!-- Firebase Migration Path -->
  <line x1="450" y1="705" x2="360" y2="705" stroke="#eb2f96" stroke-width="1.5" stroke-dasharray="5,3" />
  <polygon points="365,700 360,705 365,710" fill="#eb2f96" />
  
  <!-- Shared Auth & State Paths -->
  <line x1="220" y1="640" x2="860" y2="680" stroke="#597ef7" stroke-width="1.5" stroke-dasharray="3,2" />
  <polygon points="855,675 860,680 865,675" fill="#597ef7" />
  
  <line x1="430" y1="640" x2="860" y2="680" stroke="#597ef7" stroke-width="1.5" stroke-dasharray="3,2" />
  <polygon points="855,675 860,680 865,675" fill="#597ef7" />
  
  <line x1="620" y1="640" x2="860" y2="680" stroke="#597ef7" stroke-width="1.5" stroke-dasharray="3,2" />
  <polygon points="855,675 860,680 865,675" fill="#597ef7" />
  
  <line x1="795" y1="640" x2="860" y2="680" stroke="#597ef7" stroke-width="1.5" stroke-dasharray="3,2" />
  <polygon points="855,675 860,680 865,675" fill="#597ef7" />
  
  <!-- Direct Connection Lines -->
  <path d="M250,220 C220,340 220,460 220,540" fill="none" stroke="#52c41a" stroke-width="1.5" stroke-dasharray="5,3" />
  <polygon points="215,530 220,540 225,530" fill="#52c41a" />
  
  <path d="M585,220 C550,340 480,460 430,540" fill="none" stroke="#52c41a" stroke-width="1.5" stroke-dasharray="5,3" />
  <polygon points="425,530 430,540 435,530" fill="#52c41a" />
  
  <path d="M775,220 C750,340 680,460 620,540" fill="none" stroke="#52c41a" stroke-width="1.5" stroke-dasharray="5,3" />
  <polygon points="615,530 620,540 625,530" fill="#52c41a" />
  
  <path d="M775,220 C800,340 800,460 795,540" fill="none" stroke="#52c41a" stroke-width="1.5" stroke-dasharray="5,3" />
  <polygon points="790,530 795,540 800,530" fill="#52c41a" />
  
  <!-- Neural Engine Indicators -->
  <rect x="60" y="700" width="15" height="15" fill="#ffccc7" stroke="#f5222d" stroke-width="1" />
  <text x="85" y="713" font-family="Arial" font-size="12" text-anchor="start">Neural Engine Accelerated</text>
  
  <rect x="302" y="390" width="15" height="15" fill="#ffccc7" stroke="#f5222d" stroke-width="1" />
  <rect x="802" y="390" width="15" height="15" fill="#ffccc7" stroke="#f5222d" stroke-width="1" />
  <rect x="430" y="570" width="15" height="15" fill="#ffccc7" stroke="#f5222d" stroke-width="1" />
  <rect x="795" y="580" width="15" height="15" fill="#ffccc7" stroke="#f5222d" stroke-width="1" />
  
  <!-- Monetization Points -->
  <rect x="300" y="700" width="15" height="15" fill="#f9f0ff" stroke="#722ed1" stroke-width="1" />
  <text x="325" y="713" font-family="Arial" font-size="12" text-anchor="start">Revenue Integration Points</text>
  
  <rect x="220" y="570" width="15" height="15" fill="#f9f0ff" stroke="#722ed1" stroke-width="1" />
  <rect x="430" y="570" width="15" height="15" fill="#f9f0ff" stroke="#722ed1" stroke-width="1" />
  <rect x="620" y="570" width="15" height="15" fill="#f9f0ff" stroke="#722ed1" stroke-width="1" />
  <rect x="795" y="570" width="15" height="15" fill="#f9f0ff" stroke="#722ed1" stroke-width="1" />
  
  <!-- Legend -->
  <rect x="700" y="700" width="250" height="40" rx="5" fill="white" stroke="#d9d9d9" stroke-width="1" />
  <text x="825" y="720" font-family="Arial" font-size="12" font-weight="bold" text-anchor="middle">Strategic Integration Architecture</text>
  <text x="825" y="735" font-family="Arial" font-size="10" text-anchor="middle">M4 + SwiftUI + Supabase + Cross-Platform Content</text>
</svg>