<svg width="24" height="24" viewBox="0 0 24 24" fill="none" xmlns="http://www.w3.org/2000/svg">
<path d="M8 10V8C8 7.44772 8.44772 7 9 7C9.55228 7 10 7.44772 10 8V10M10 10V7C10 6.44772 10.4477 6 11 6C11.5523 6 12 6.44772 12 7V10M10 10V11M12 10V6C12 5.44772 12.4477 5 13 5C13.5523 5 14 5.44772 14 6V10M14 10V11C14 11 14 11.5 14 12C14 14.7614 11.7614 17 9 17C6.23858 17 4 14.7614 4 12V11.5C4 10.9477 4.44772 10.5 5 10.5C5.55228 10.5 6 10.9477 6 11.5V12M14 10V9C14 8.44772 14.4477 8 15 8C15.5523 8 16 8.44772 16 9V11C16 11.5 16.5 12 17 12.5M2 7L4 5M4 3L5 5M7 2L7 4" stroke="white" stroke-opacity="0.9" stroke-width="1.5" stroke-linecap="round" stroke-linejoin="round"/>
</svg>
