<svg width="24" height="24" viewBox="0 0 24 24" fill="none" xmlns="http://www.w3.org/2000/svg">
<path d="M5.5 2L4.5 4L2 5L4.5 6L5.5 8.5L6.5 6L9 5L6.5 4L5.5 2Z" fill="white" fill-opacity="0.9"/>
<path d="M18 2L17 4L14.5 5L17 6L18 8.5L19 6L21.5 5L19 4L18 2Z" fill="white" fill-opacity="0.9"/>
<path d="M21 13L20 15L17.5 16L20 17L21 19.5L22 17L24.5 16L22 15L21 13Z" fill="white" fill-opacity="0.9"/>
<path d="M12 6L9 18L11 18.5L14 16L15 19L17 18L13.5 11.5L18 11L12 6Z" stroke="white" stroke-opacity="0.9" stroke-width="1.5" stroke-linecap="round" stroke-linejoin="round"/>
</svg>
