<svg width="24" height="24" viewBox="0 0 24 24" fill="none" xmlns="http://www.w3.org/2000/svg">
<path d="M4.5 16.5C3 18 3.5 20 3.5 20C3.5 20 5.5 20.5 7 19C8.5 17.5 8.5 16 8.5 16C8.5 16 6 15 4.5 16.5ZM12 15L9 12M14.5 4C17.5 4 20 6.5 20 9.5C20 11 19.5 12.5 18.5 13.5L13 19L11 17L13 15L11 13L9 15L7 13L12.5 7.5C13.5 6.5 15 6 16.5 6" stroke="white" stroke-opacity="0.9" stroke-width="1.5" stroke-linecap="round" stroke-linejoin="round"/>
<circle cx="15.5" cy="8.5" r="1.5" fill="white" fill-opacity="0.9"/>
</svg>
