<?xml version='1.0' encoding='utf-8'?>
<svg xmlns="http://www.w3.org/2000/svg" viewBox="0 0 1200 800">
  
  <defs>
    <linearGradient id="bgGradient" x1="0%" y1="0%" x2="100%" y2="0%">
      <stop offset="0%" stop-color="#0A0621" />
      <stop offset="50%" stop-color="#131A36" />
      <stop offset="100%" stop-color="#0D0D15" />
    </linearGradient>
    
    
    <radialGradient id="tunnelGradient" cx="50%" cy="50%" r="70%" fx="50%" fy="50%">
      <stop offset="0%" stop-color="#331F4A" />
      <stop offset="60%" stop-color="#131A36" />
      <stop offset="100%" stop-color="#0A0621" />
    </radialGradient>
    
    
    <linearGradient id="evolutionGradient" x1="0%" y1="0%" x2="100%" y2="0%">
      <stop offset="0%" stop-color="#2D854D" />
      <stop offset="50%" stop-color="#131A36" />
      <stop offset="100%" stop-color="#331F4A" />
    </linearGradient>
  <linearGradient id="quantum-depth-gradient" x1="0%" y1="0%" x2="100%" y2="0%"><stop offset="0%" stop-color="#131A36" /><stop offset="50%" stop-color="#331F4A" /><stop offset="100%" stop-color="#6A3093" /></linearGradient><linearGradient id="energy-state-transition" x1="0%" y1="0%" x2="100%" y2="0%"><stop offset="0%" stop-color="#2D854D" /><stop offset="50%" stop-color="#131A36" /><stop offset="100%" stop-color="#36EAE8" /></linearGradient><linearGradient id="material-state-variation" x1="0%" y1="0%" x2="100%" y2="0%"><stop offset="0%" stop-color="#331F4A" /><stop offset="60%" stop-color="#BF4080" /><stop offset="100%" stop-color="#131A36" /></linearGradient><linearGradient id="spatial-background-gradient" x1="0%" y1="0%" x2="100%" y2="0%"><stop offset="0%" stop-color="#0A0621" /><stop offset="70%" stop-color="#131A36" /><stop offset="100%" stop-color="#6A3093" /></linearGradient><linearGradient id="accent-highlight-gradient" x1="0%" y1="0%" x2="100%" y2="0%"><stop offset="0%" stop-color="#36EAE8" /><stop offset="100%" stop-color="#126D71" /></linearGradient><linearGradient id="deep-spatial-background-gradient" x1="0%" y1="0%" x2="100%" y2="0%"><stop offset="0%" stop-color="#0A0621" /><stop offset="40%" stop-color="#1E1F5C" /><stop offset="100%" stop-color="#131A36" /></linearGradient><linearGradient id="spiritual-state-transition" x1="0%" y1="0%" x2="100%" y2="0%"><stop offset="0%" stop-color="#FF6B57" /><stop offset="50%" stop-color="#BF4080" /><stop offset="100%" stop-color="#36EAE8" /></linearGradient><linearGradient id="spiritual-material-state-transition" x1="0%" y1="0%" x2="100%" y2="0%"><stop offset="0%" stop-color="#FF6B57" /><stop offset="50%" stop-color="#BF4080" /><stop offset="100%" stop-color="#131A36" /></linearGradient></defs>
  
  
  <rect width="1200" height="800" fill="#0A0621" />
  
  
  <text x="600" y="70" font-family="SF Pro Text, -apple-system, system-ui, sans-serif"SF Pro '" font-size="32" font-weight="bold" fill="#FFFFFF" text-anchor="middle">9Bit Studios Launch Visual Concept</text>
  <text x="600" y="110" font-family="SF Pro Text, -apple-system, system-ui, sans-serif"SF Pro '" font-size="18" fill="#FFFFFF" text-anchor="middle">Quantum Evolution Portal</text>
  
  
  <ellipse cx="600" cy="400" rx="450" ry="250" fill="url(#tunnelGradient)" />
  
  
  <g opacity="0.2">
    
    <ellipse cx="600" cy="400" rx="420" ry="235" fill="#6A3093" stroke="#36EAE8" stroke-width="1" />
    <ellipse cx="600" cy="400" rx="380" ry="215" fill="#6A3093" stroke="#36EAE8" stroke-width="1" />
    <ellipse cx="600" cy="400" rx="340" ry="195" fill="#6A3093" stroke="#36EAE8" stroke-width="1" />
    <ellipse cx="600" cy="400" rx="300" ry="175" fill="#6A3093" stroke="#36EAE8" stroke-width="1" />
    <ellipse cx="600" cy="400" rx="260" ry="155" fill="#6A3093" stroke="#36EAE8" stroke-width="1" />
    <ellipse cx="600" cy="400" rx="220" ry="135" fill="#6A3093" stroke="#36EAE8" stroke-width="1" />
    <ellipse cx="600" cy="400" rx="180" ry="115" fill="#6A3093" stroke="#36EAE8" stroke-width="1" />
    <ellipse cx="600" cy="400" rx="140" ry="95" fill="#6A3093" stroke="#36EAE8" stroke-width="1" />
    <ellipse cx="600" cy="400" rx="100" ry="75" fill="#6A3093" stroke="#36EAE8" stroke-width="1" />
    <ellipse cx="600" cy="400" rx="60" ry="55" fill="#6A3093" stroke="#36EAE8" stroke-width="1" />
    
    
    <line x1="600" y1="400" x2="150" y2="400" stroke="#36EAE8" stroke-width="1" />
    <line x1="600" y1="400" x2="1050" y2="400" stroke="#36EAE8" stroke-width="1" />
    <line x1="600" y1="400" x2="600" y2="150" stroke="#36EAE8" stroke-width="1" />
    <line x1="600" y1="400" x2="600" y2="650" stroke="#36EAE8" stroke-width="1" />
    
    <line x1="600" y1="400" x2="225" y2="220" stroke="#36EAE8" stroke-width="1" />
    <line x1="600" y1="400" x2="975" y2="220" stroke="#36EAE8" stroke-width="1" />
    <line x1="600" y1="400" x2="225" y2="580" stroke="#36EAE8" stroke-width="1" />
    <line x1="600" y1="400" x2="975" y2="580" stroke="#36EAE8" stroke-width="1" />
  </g>
  
  
  <g transform="translate(200, 400)">
    <text x="0" y="-170" font-family="SF Pro Text, -apple-system, system-ui, sans-serif"SF Pro '" font-size="20" font-weight="bold" fill="#FFFFFF" text-anchor="middle">Heritage Entry</text>
    
    
    <g>
      
      <rect x="-80" y="-30" width="16" height="16" fill="#2D854D" />
      <rect x="-64" y="-30" width="16" height="16" fill="#2D854D" />
      <rect x="-48" y="-30" width="16" height="16" fill="#2D854D" />
      <rect x="-32" y="-30" width="16" height="16" fill="#2D854D" />
      <rect x="-80" y="-14" width="16" height="16" fill="#2D854D" />
      <rect x="-32" y="-14" width="16" height="16" fill="#2D854D" />
      <rect x="-80" y="2" width="16" height="16" fill="#2D854D" />
      <rect x="-64" y="2" width="16" height="16" fill="#2D854D" />
      <rect x="-48" y="2" width="16" height="16" fill="#2D854D" />
      <rect x="-32" y="2" width="16" height="16" fill="#2D854D" />
      <rect x="-80" y="18" width="16" height="16" fill="#2D854D" />
      <rect x="-32" y="18" width="16" height="16" fill="#2D854D" />
      <rect x="-80" y="34" width="16" height="16" fill="#2D854D" />
      <rect x="-64" y="34" width="16" height="16" fill="#2D854D" />
      <rect x="-48" y="34" width="16" height="16" fill="#2D854D" />
      <rect x="-32" y="34" width="16" height="16" fill="#2D854D" />
      
      
      <rect x="-30" y="60" width="16" height="16" fill="#2D854D" />
      <rect x="-14" y="60" width="16" height="16" fill="#2D854D" />
      <rect x="2" y="60" width="16" height="16" fill="#2D854D" />
      <rect x="18" y="60" width="16" height="16" fill="#2D854D" />
      <rect x="34" y="60" width="16" height="16" fill="#2D854D" />
      <rect x="50" y="60" width="16" height="16" fill="#2D854D" />
      <rect x="66" y="60" width="16" height="16" fill="#2D854D" />
      <rect x="82" y="60" width="16" height="16" fill="#2D854D" />
      
      
      <g opacity="0.5">
        <line x1="-90" y1="-40" x2="90" y2="-40" stroke="#2D854D" stroke-width="1" />
        <line x1="-90" y1="-20" x2="90" y2="-20" stroke="#2D854D" stroke-width="1" />
        <line x1="-90" y1="0" x2="90" y2="0" stroke="#2D854D" stroke-width="1" />
        <line x1="-90" y1="20" x2="90" y2="20" stroke="#2D854D" stroke-width="1" />
        <line x1="-90" y1="40" x2="90" y2="40" stroke="#2D854D" stroke-width="1" />
        <line x1="-90" y1="60" x2="90" y2="60" stroke="#2D854D" stroke-width="1" />
        
        <line x1="-80" y1="-50" x2="-80" y2="70" stroke="#2D854D" stroke-width="1" />
        <line x1="-60" y1="-50" x2="-60" y2="70" stroke="#2D854D" stroke-width="1" />
        <line x1="-40" y1="-50" x2="-40" y2="70" stroke="#2D854D" stroke-width="1" />
        <line x1="-20" y1="-50" x2="-20" y2="70" stroke="#2D854D" stroke-width="1" />
        <line x1="0" y1="-50" x2="0" y2="70" stroke="#2D854D" stroke-width="1" />
        <line x1="20" y1="-50" x2="20" y2="70" stroke="#2D854D" stroke-width="1" />
        <line x1="40" y1="-50" x2="40" y2="70" stroke="#2D854D" stroke-width="1" />
        <line x1="60" y1="-50" x2="60" y2="70" stroke="#2D854D" stroke-width="1" />
        <line x1="80" y1="-50" x2="80" y2="70" stroke="#2D854D" stroke-width="1" />
      </g>
    </g>
  </g>
  
  
  <g transform="translate(600, 400)">
    <text x="0" y="-170" font-family="SF Pro Text, -apple-system, system-ui, sans-serif"SF Pro '" font-size="20" font-weight="bold" fill="#FFFFFF" text-anchor="middle">Transition Zone</text>
    
    
    <g>
      
      <rect x="-60" y="-40" width="20" height="20" fill="#131A36" rx="2" />
      <rect x="-40" y="-40" width="20" height="20" fill="#131A36" rx="2" />
      <rect x="-20" y="-40" width="20" height="20" fill="#131A36" rx="2" />
      <rect x="-60" y="-20" width="20" height="20" fill="#131A36" rx="2" />
      <rect x="-20" y="-20" width="20" height="20" fill="#131A36" rx="2" />
      <rect x="-60" y="0" width="20" height="20" fill="#131A36" rx="2" />
      <rect x="-40" y="0" width="20" height="20" fill="#131A36" rx="2" />
      <rect x="-20" y="0" width="20" height="20" fill="#131A36" rx="2" />
      <rect x="-60" y="20" width="20" height="20" fill="#131A36" rx="2" />
      <rect x="-20" y="20" width="20" height="20" fill="#131A36" rx="2" />
      <rect x="-60" y="40" width="20" height="20" fill="#131A36" rx="2" />
      <rect x="-40" y="40" width="20" height="20" fill="#131A36" rx="2" />
      <rect x="-20" y="40" width="20" height="20" fill="#131A36" rx="2" />
      
      
      <rect x="-40" y="-20" width="20" height="20" fill="#5AC8FA" opacity="0.5" rx="2" />
      <rect x="-40" y="20" width="20" height="20" fill="#5AC8FA" opacity="0.4" rx="2" />
      
      
      <rect x="0" y="40" width="20" height="20" fill="#131A36" rx="2" />
      <rect x="20" y="40" width="20" height="20" fill="#131A36" rx="2" />
      <rect x="40" y="40" width="20" height="20" fill="#131A36" rx="2" />
      <rect x="60" y="40" width="20" height="20" fill="#131A36" rx="2" />
      
      
      <g opacity="0.4">
        
        <line x1="-80" y1="-50" x2="80" y2="-45" stroke="#36EAE8" stroke-width="1" />
        <line x1="-80" y1="-25" x2="80" y2="-22" stroke="#36EAE8" stroke-width="1" />
        <line x1="-80" y1="0" x2="80" y2="0" stroke="#36EAE8" stroke-width="1" />
        <line x1="-80" y1="25" x2="80" y2="22" stroke="#36EAE8" stroke-width="1" />
        <line x1="-80" y1="50" x2="80" y2="45" stroke="#36EAE8" stroke-width="1" />
        
        
        <line x1="-60" y1="-60" x2="-65" y2="60" stroke="#36EAE8" stroke-width="1" />
        <line x1="-30" y1="-60" x2="-33" y2="60" stroke="#36EAE8" stroke-width="1" />
        <line x1="0" y1="-60" x2="0" y2="60" stroke="#36EAE8" stroke-width="1" />
        <line x1="30" y1="-60" x2="33" y2="60" stroke="#36EAE8" stroke-width="1" />
        <line x1="60" y1="-60" x2="65" y2="60" stroke="#36EAE8" stroke-width="1" />
      </g>
      
      
      <g opacity="0.3">
        <rect x="-58" y="-38" width="16" height="16" fill="#FFFFFF" rx="2" />
        <rect x="-38" y="-38" width="16" height="16" fill="#FFFFFF" rx="2" />
        <rect x="-18" y="-38" width="16" height="16" fill="#FFFFFF" rx="2" />
      </g>
    </g>
    
    
    <ellipse cx="0" cy="0" rx="100" ry="80" fill="#6A3093" stroke="#5AC8FA" stroke-width="1" opacity="0.3" />
  </g>
  
  
  <g transform="translate(950, 400)">
    <text x="0" y="-170" font-family="SF Pro Text, -apple-system, system-ui, sans-serif"SF Pro '" font-size="20" font-weight="bold" fill="#FFFFFF" text-anchor="middle">Quantum Emergence</text>
    
    
    <g>
      
      <rect x="-50" y="-50" width="20" height="20" fill="#331F4A" rx="3" />
      <rect x="-30" y="-50" width="20" height="20" fill="#331F4A" rx="3" />
      <rect x="-10" y="-50" width="20" height="20" fill="#331F4A" rx="3" />
      <rect x="-50" y="-30" width="20" height="20" fill="#331F4A" rx="3" />
      <rect x="-10" y="-30" width="20" height="20" fill="#331F4A" rx="3" />
      <rect x="-50" y="-10" width="20" height="20" fill="#331F4A" rx="3" />
      <rect x="-30" y="-10" width="20" height="20" fill="#331F4A" rx="3" />
      <rect x="-10" y="-10" width="20" height="20" fill="#331F4A" rx="3" />
      <rect x="-50" y="10" width="20" height="20" fill="#331F4A" rx="3" />
      <rect x="-10" y="10" width="20" height="20" fill="#331F4A" rx="3" />
      <rect x="-50" y="30" width="20" height="20" fill="#331F4A" rx="3" />
      <rect x="-30" y="30" width="20" height="20" fill="#331F4A" rx="3" />
      <rect x="-10" y="30" width="20" height="20" fill="#331F4A" rx="3" />
      
      
      <rect x="-30" y="-30" width="20" height="20" fill="#5AC8FA" opacity="0.8" rx="3">
        <animate attributeName="opacity" values="0.6;0.9;0.6" dur="3s" repeatCount="indefinite" />
      </rect>
      <rect x="-30" y="10" width="20" height="20" fill="#5AC8FA" opacity="0.7" rx="3">
        <animate attributeName="opacity" values="0.5;0.8;0.5" dur="4s" repeatCount="indefinite" />
      </rect>
      
      
      <rect x="20" y="30" width="20" height="20" fill="#331F4A" rx="3" />
      <rect x="40" y="30" width="20" height="20" fill="#331F4A" rx="3" />
      <rect x="60" y="30" width="20" height="20" fill="#331F4A" rx="3" />
      
      
      <g opacity="0.4">
        
        <rect x="-53" y="-53" width="20" height="20" fill="#FFFFFF" rx="3" />
        <rect x="-33" y="-53" width="20" height="20" fill="#FFFFFF" rx="3" />
        <rect x="-13" y="-53" width="20" height="20" fill="#FFFFFF" rx="3" />
        
        
        <rect x="-47" y="-47" width="20" height="20" fill="#0A0621" rx="3" />
        <rect x="-27" y="-47" width="20" height="20" fill="#0A0621" rx="3" />
        <rect x="-7" y="-47" width="20" height="20" fill="#0A0621" rx="3" />
      </g>
      
      
      <g opacity="0.6">
        <line x1="-40" y1="-40" x2="-40" y2="-30" stroke="#5AC8FA" stroke-width="1" />
        <line x1="-40" y1="-30" x2="-40" y2="-20" stroke="#5AC8FA" stroke-width="1" />
        <line x1="-40" y1="-20" x2="-40" y2="-10" stroke="#5AC8FA" stroke-width="1" />
        <line x1="-40" y1="-10" x2="-40" y2="0" stroke="#5AC8FA" stroke-width="1" />
        <line x1="-40" y1="0" x2="-40" y2="10" stroke="#5AC8FA" stroke-width="1" />
        <line x1="-40" y1="10" x2="-40" y2="20" stroke="#5AC8FA" stroke-width="1" />
        <line x1="-40" y1="20" x2="-40" y2="30" stroke="#5AC8FA" stroke-width="1" />
        
        <line x1="-50" y1="-40" x2="-40" y2="-40" stroke="#5AC8FA" stroke-width="1" />
        <line x1="-40" y1="-40" x2="-30" y2="-40" stroke="#5AC8FA" stroke-width="1" />
        <line x1="-30" y1="-40" x2="-20" y2="-40" stroke="#5AC8FA" stroke-width="1" />
        <line x1="-20" y1="-40" x2="-10" y2="-40" stroke="#5AC8FA" stroke-width="1" />
      </g>
      
      
      <g opacity="0.15">
        <rect x="-52" y="-52" width="20" height="20" fill="#6A3093" rx="3" />
        <rect x="-32" y="-52" width="20" height="20" fill="#6A3093" rx="3" />
        <rect x="-12" y="-52" width="20" height="20" fill="#6A3093" rx="3" />
        <rect x="-52" y="-32" width="20" height="20" fill="#6A3093" rx="3" />
        <rect x="-12" y="-32" width="20" height="20" fill="#6A3093" rx="3" />
        <rect x="-52" y="-12" width="20" height="20" fill="#6A3093" rx="3" />
        <rect x="-32" y="-12" width="20" height="20" fill="#6A3093" rx="3" />
        <rect x="-12" y="-12" width="20" height="20" fill="#6A3093" rx="3" />
      </g>
      
      
      <g opacity="0.3">
        
        <line x1="0" y1="0" x2="-80" y2="-60" stroke="#36EAE8" stroke-width="1" />
        <line x1="0" y1="0" x2="-80" y2="-30" stroke="#36EAE8" stroke-width="1" />
        <line x1="0" y1="0" x2="-80" y2="0" stroke="#36EAE8" stroke-width="1" />
        <line x1="0" y1="0" x2="-80" y2="30" stroke="#36EAE8" stroke-width="1" />
        <line x1="0" y1="0" x2="-80" y2="60" stroke="#36EAE8" stroke-width="1" />
        
        <line x1="0" y1="0" x2="80" y2="-60" stroke="#36EAE8" stroke-width="1" />
        <line x1="0" y1="0" x2="80" y2="-30" stroke="#36EAE8" stroke-width="1" />
        <line x1="0" y1="0" x2="80" y2="0" stroke="#36EAE8" stroke-width="1" />
        <line x1="0" y1="0" x2="80" y2="30" stroke="#36EAE8" stroke-width="1" />
        <line x1="0" y1="0" x2="80" y2="60" stroke="#36EAE8" stroke-width="1" />
      </g>
    </g>
    
    
    <ellipse cx="0" cy="0" rx="90" ry="70" fill="#331F4A" opacity="0.1" />
    <ellipse cx="0" cy="0" rx="70" ry="50" fill="#6A3093" opacity="0.1" />
    <ellipse cx="0" cy="0" rx="50" ry="35" fill="#5AC8FA" opacity="0.05" />
  </g>
  
  
  <g transform="translate(600, 400)">
    
    <g transform="scale(2)">
      
      <g opacity="0.9">
        
        <rect x="-40" y="-50" width="20" height="20" fill="#331F4A" rx="3" />
        <rect x="-20" y="-50" width="20" height="20" fill="#331F4A" rx="3" />
        <rect x="0" y="-50" width="20" height="20" fill="#331F4A" rx="3" />
        
        
        <rect x="-40" y="-30" width="20" height="20" fill="#331F4A" rx="3" />
        <rect x="0" y="-30" width="20" height="20" fill="#331F4A" rx="3" />
        
        
        <rect x="-40" y="-10" width="20" height="20" fill="#331F4A" rx="3" />
        <rect x="-20" y="-10" width="20" height="20" fill="#331F4A" rx="3" />
        <rect x="0" y="-10" width="20" height="20" fill="#331F4A" rx="3" />
        
        
        <rect x="0" y="10" width="20" height="20" fill="#331F4A" rx="3" />
        
        
        <rect x="-40" y="30" width="20" height="20" fill="#331F4A" rx="3" />
        <rect x="-20" y="30" width="20" height="20" fill="#331F4A" rx="3" />
        <rect x="0" y="30" width="20" height="20" fill="#331F4A" rx="3" />
      </g>
      
      
      <g>
        <rect x="-20" y="-30" width="20" height="20" fill="#5AC8FA" opacity="0.8" rx="3">
          <animate attributeName="opacity" values="0.6;0.9;0.6" dur="3s" repeatCount="indefinite" />
        </rect>
        <rect x="-40" y="10" width="20" height="20" fill="#5AC8FA" opacity="0.7" rx="3">
          <animate attributeName="opacity" values="0.5;0.8;0.5" dur="3.5s" repeatCount="indefinite" />
        </rect>
        <rect x="-20" y="10" width="20" height="20" fill="#5AC8FA" opacity="0.9" rx="3">
          <animate attributeName="opacity" values="0.7;1;0.7" dur="4s" repeatCount="indefinite" />
        </rect>
      </g>
      
      
      <g opacity="0.3">
        
        <rect x="-43" y="-53" width="20" height="20" fill="#FFFFFF" rx="3" />
        <rect x="-23" y="-53" width="20" height="20" fill="#FFFFFF" rx="3" />
        <rect x="-3" y="-53" width="20" height="20" fill="#FFFFFF" rx="3" />
      </g>
      
      
      <g opacity="0.15">
        <rect x="-37" y="-47" width="20" height="20" fill="#6A3093" rx="3" />
        <rect x="-17" y="-47" width="20" height="20" fill="#6A3093" rx="3" />
        <rect x="3" y="-47" width="20" height="20" fill="#6A3093" rx="3" />
      </g>
    </g>
    
    
    <circle cx="0" cy="0" r="60" fill="#5AC8FA" opacity="0.05" />
    <circle cx="0" cy="0" r="40" fill="#5AC8FA" opacity="0.08" />
    <circle cx="0" cy="0" r="20" fill="#5AC8FA" opacity="0.12" />
  </g>
  
  
  <g transform="translate(200, 690)">
    <text x="0" y="0" font-family="SF Pro Text, -apple-system, system-ui, sans-serif"SF Pro '" font-size="18" font-weight="bold" fill="#FFFFFF" text-anchor="middle">Heritage</text>
    <text x="0" y="25" font-family="SF Pro Text, -apple-system, system-ui, sans-serif"SF Pro '" font-size="14" fill="#FFFFFF" text-anchor="middle">8-bit foundation</text>
  </g>
  
  <g transform="translate(600, 690)">
    <text x="0" y="0" font-family="SF Pro Text, -apple-system, system-ui, sans-serif"SF Pro '" font-size="18" font-weight="bold" fill="#FFFFFF" text-anchor="middle">Transition</text>
    <text x="0" y="25" font-family="SF Pro Text, -apple-system, system-ui, sans-serif"SF Pro '" font-size="14" fill="#FFFFFF" text-anchor="middle">Dimensional evolution</text>
  </g>
  
  <g transform="translate(950, 690)">
    <text x="0" y="0" font-family="SF Pro Text, -apple-system, system-ui, sans-serif"SF Pro '" font-size="18" font-weight="bold" fill="#FFFFFF" text-anchor="middle">Quantum</text>
    <text x="0" y="25" font-family="SF Pro Text, -apple-system, system-ui, sans-serif"SF Pro '" font-size="14" fill="#FFFFFF" text-anchor="middle">Spatial materialization</text>
  </g>
  
  
  <g opacity="0.2">
    
    <circle cx="350" cy="320" r="3" fill="#5AC8FA">
      <animate attributeName="cx" values="350;600" dur="8s" repeatCount="indefinite" />
      <animate attributeName="cy" values="320;400" dur="8s" repeatCount="indefinite" />
      <animate attributeName="opacity" values="0.1;0.6;0.1" dur="8s" repeatCount="indefinite" />
    </circle>
    
    <circle cx="280" cy="450" r="2" fill="#5AC8FA">
      <animate attributeName="cx" values="280;600" dur="10s" repeatCount="indefinite" />
      <animate attributeName="cy" values="450;400" dur="10s" repeatCount="indefinite" />
      <animate attributeName="opacity" values="0.1;0.5;0.1" dur="10s" repeatCount="indefinite" />
    </circle>
    
    <circle cx="450" cy="500" r="3" fill="#5AC8FA">
      <animate attributeName="cx" values="450;600" dur="7s" repeatCount="indefinite" />
      <animate attributeName="cy" values="500;400" dur="7s" repeatCount="indefinite" />
      <animate attributeName="opacity" values="0.1;0.6;0.1" dur="7s" repeatCount="indefinite" />
    </circle>
    
    <circle cx="400" cy="250" r="2" fill="#5AC8FA">
      <animate attributeName="cx" values="400;600" dur="9s" repeatCount="indefinite" />
      <animate attributeName="cy" values="250;400" dur="9s" repeatCount="indefinite" />
      <animate attributeName="opacity" values="0.1;0.4;0.1" dur="9s" repeatCount="indefinite" />
    </circle>
  </g>
  
  
  <g transform="translate(1140, 760)">
    <g transform="scale(0.5)">
      
      <g>
        
        <rect x="-40" y="-50" width="20" height="20" fill="#331F4A" rx="2" />
        <rect x="-20" y="-50" width="20" height="20" fill="#331F4A" rx="2" />
        <rect x="0" y="-50" width="20" height="20" fill="#331F4A" rx="2" />
        
        
        <rect x="-40" y="-30" width="20" height="20" fill="#331F4A" rx="2" />
        <rect x="0" y="-30" width="20" height="20" fill="#331F4A" rx="2" />
        
        
        <rect x="-40" y="-10" width="20" height="20" fill="#331F4A" rx="2" />
        <rect x="-20" y="-10" width="20" height="20" fill="#331F4A" rx="2" />
        <rect x="0" y="-10" width="20" height="20" fill="#331F4A" rx="2" />
        
        
        <rect x="0" y="10" width="20" height="20" fill="#331F4A" rx="2" />
        
        
        <rect x="-40" y="30" width="20" height="20" fill="#331F4A" rx="2" />
        <rect x="-20" y="30" width="20" height="20" fill="#331F4A" rx="2" />
        <rect x="0" y="30" width="20" height="20" fill="#331F4A" rx="2" />
        
        
        <rect x="-20" y="-30" width="20" height="20" fill="#5AC8FA" opacity="0.7" rx="2" />
        <rect x="-40" y="10" width="20" height="20" fill="#5AC8FA" opacity="0.6" rx="2" />
        <rect x="-20" y="10" width="20" height="20" fill="#5AC8FA" opacity="0.8" rx="2" />
      </g>
    </g>
    <text x="-20" y="30" font-family="SF Pro Text, -apple-system, system-ui, sans-serif"SF Pro '" font-size="14" font-weight="bold" fill="#FFFFFF" text-anchor="end">9Bit Studios</text>
  </g>
<g class="grid" opacity="0.1"><line x1="0" y1="40.0" x2="1200.0" y2="40.0" stroke="#36EAE8" stroke-width="1" /><line x1="0" y1="80.0" x2="1200.0" y2="80.0" stroke="#36EAE8" stroke-width="1" /><line x1="0" y1="120.0" x2="1200.0" y2="120.0" stroke="#36EAE8" stroke-width="1" /><line x1="0" y1="160.0" x2="1200.0" y2="160.0" stroke="#36EAE8" stroke-width="1" /><line x1="0" y1="200.0" x2="1200.0" y2="200.0" stroke="#36EAE8" stroke-width="1" /><line x1="0" y1="240.0" x2="1200.0" y2="240.0" stroke="#36EAE8" stroke-width="1" /><line x1="0" y1="280.0" x2="1200.0" y2="280.0" stroke="#36EAE8" stroke-width="1" /><line x1="0" y1="320.0" x2="1200.0" y2="320.0" stroke="#36EAE8" stroke-width="1" /><line x1="0" y1="360.0" x2="1200.0" y2="360.0" stroke="#36EAE8" stroke-width="1" /><line x1="0" y1="400.0" x2="1200.0" y2="400.0" stroke="#36EAE8" stroke-width="1" /><line x1="0" y1="440.0" x2="1200.0" y2="440.0" stroke="#36EAE8" stroke-width="1" /><line x1="0" y1="480.0" x2="1200.0" y2="480.0" stroke="#36EAE8" stroke-width="1" /><line x1="0" y1="520.0" x2="1200.0" y2="520.0" stroke="#36EAE8" stroke-width="1" /><line x1="0" y1="560.0" x2="1200.0" y2="560.0" stroke="#36EAE8" stroke-width="1" /><line x1="0" y1="600.0" x2="1200.0" y2="600.0" stroke="#36EAE8" stroke-width="1" /><line x1="0" y1="640.0" x2="1200.0" y2="640.0" stroke="#36EAE8" stroke-width="1" /><line x1="0" y1="680.0" x2="1200.0" y2="680.0" stroke="#36EAE8" stroke-width="1" /><line x1="0" y1="720.0" x2="1200.0" y2="720.0" stroke="#36EAE8" stroke-width="1" /><line x1="0" y1="760.0" x2="1200.0" y2="760.0" stroke="#36EAE8" stroke-width="1" /><line x1="60.0" y1="0" x2="60.0" y2="800.0" stroke="#36EAE8" stroke-width="1" /><line x1="120.0" y1="0" x2="120.0" y2="800.0" stroke="#36EAE8" stroke-width="1" /><line x1="180.0" y1="0" x2="180.0" y2="800.0" stroke="#36EAE8" stroke-width="1" /><line x1="240.0" y1="0" x2="240.0" y2="800.0" stroke="#36EAE8" stroke-width="1" /><line x1="300.0" y1="0" x2="300.0" y2="800.0" stroke="#36EAE8" stroke-width="1" /><line x1="360.0" y1="0" x2="360.0" y2="800.0" stroke="#36EAE8" stroke-width="1" /><line x1="420.0" y1="0" x2="420.0" y2="800.0" stroke="#36EAE8" stroke-width="1" /><line x1="480.0" y1="0" x2="480.0" y2="800.0" stroke="#36EAE8" stroke-width="1" /><line x1="540.0" y1="0" x2="540.0" y2="800.0" stroke="#36EAE8" stroke-width="1" /><line x1="600.0" y1="0" x2="600.0" y2="800.0" stroke="#36EAE8" stroke-width="1" /><line x1="660.0" y1="0" x2="660.0" y2="800.0" stroke="#36EAE8" stroke-width="1" /><line x1="720.0" y1="0" x2="720.0" y2="800.0" stroke="#36EAE8" stroke-width="1" /><line x1="780.0" y1="0" x2="780.0" y2="800.0" stroke="#36EAE8" stroke-width="1" /><line x1="840.0" y1="0" x2="840.0" y2="800.0" stroke="#36EAE8" stroke-width="1" /><line x1="900.0" y1="0" x2="900.0" y2="800.0" stroke="#36EAE8" stroke-width="1" /><line x1="960.0" y1="0" x2="960.0" y2="800.0" stroke="#36EAE8" stroke-width="1" /><line x1="1020.0" y1="0" x2="1020.0" y2="800.0" stroke="#36EAE8" stroke-width="1" /><line x1="1080.0" y1="0" x2="1080.0" y2="800.0" stroke="#36EAE8" stroke-width="1" /><line x1="1140.0" y1="0" x2="1140.0" y2="800.0" stroke="#36EAE8" stroke-width="1" /></g><g class="9bit-logo" transform="translate(60.0 760.0)"><g class="quantum-pixel" transform="translate(0 -24)"><rect width="12" height="12" fill="#331F4A" /><rect width="3.0" height="3.0" fill="#36EAE8" opacity="0.8" /></g><g class="quantum-pixel" transform="translate(0 -12)"><rect width="12" height="12" fill="#331F4A" /><rect width="3.0" height="3.0" fill="#36EAE8" opacity="0.8" /></g><text x="24" y="0" font-family="SF Pro Text, -apple-system, system-ui, sans-serif"SF Pro '" font-size="12.6px" fill="#FFFFFF">9Bit Studios</text></g></svg>