<?xml version='1.0' encoding='utf-8'?>
<svg xmlns="http://www.w3.org/2000/svg" viewBox="0 0 1200 900">
  
  <rect width="1200" height="900" fill="#0A0621" />
  
  
  <g opacity="0.08">
    
    <path d="M300,800 L900,800" stroke="#36EAE8" stroke-width="1" />
    <path d="M250,750 L950,750" stroke="#36EAE8" stroke-width="1" />
    <path d="M200,700 L1000,700" stroke="#36EAE8" stroke-width="1" />
    <path d="M175,650 L1025,650" stroke="#36EAE8" stroke-width="1" />
    <path d="M150,600 L1050,600" stroke="#36EAE8" stroke-width="1" />
    <path d="M125,550 L1075,550" stroke="#36EAE8" stroke-width="1" />
    <path d="M100,500 L1100,500" stroke="#36EAE8" stroke-width="1" />
    <path d="M125,450 L1075,450" stroke="#36EAE8" stroke-width="1" />
    <path d="M150,400 L1050,400" stroke="#36EAE8" stroke-width="1" />
    <path d="M175,350 L1025,350" stroke="#36EAE8" stroke-width="1" />
    <path d="M200,300 L1000,300" stroke="#36EAE8" stroke-width="1" />
    <path d="M250,250 L950,250" stroke="#36EAE8" stroke-width="1" />
    <path d="M300,200 L900,200" stroke="#36EAE8" stroke-width="1" />
    
    
    <path d="M350,200 L350,800" stroke="#36EAE8" stroke-width="1" />
    <path d="M400,200 L400,800" stroke="#36EAE8" stroke-width="1" />
    <path d="M450,200 L450,800" stroke="#36EAE8" stroke-width="1" />
    <path d="M500,200 L500,800" stroke="#36EAE8" stroke-width="1" />
    <path d="M550,200 L550,800" stroke="#36EAE8" stroke-width="1" />
    <path d="M600,200 L600,800" stroke="#36EAE8" stroke-width="1" />
    <path d="M650,200 L650,800" stroke="#36EAE8" stroke-width="1" />
    <path d="M700,200 L700,800" stroke="#36EAE8" stroke-width="1" />
    <path d="M750,200 L750,800" stroke="#36EAE8" stroke-width="1" />
    <path d="M800,200 L800,800" stroke="#36EAE8" stroke-width="1" />
    <path d="M850,200 L850,800" stroke="#36EAE8" stroke-width="1" />
  </g>
  
  
  <text x="600" y="80" font-family="SF Pro Text, -apple-system, system-ui, sans-serif"SF Pro '" font-size="32" font-weight="bold" fill="#FFFFFF" text-anchor="middle">9Bit Studios Logo Concept</text>
  <text x="600" y="120" font-family="SF Pro Text, -apple-system, system-ui, sans-serif"SF Pro '" font-size="18" fill="#FFFFFF" text-anchor="middle">Quantum-Spatial Pixel Identity</text>
  
  
  <g transform="translate(600, 450) scale(3)">
    
    <g>
      
      <rect x="-40" y="-50" width="20" height="20" fill="#331F4A" rx="2" />
      <rect x="-20" y="-50" width="20" height="20" fill="#331F4A" rx="2" />
      <rect x="0" y="-50" width="20" height="20" fill="#331F4A" rx="2" />
      
      
      <rect x="-40" y="-30" width="20" height="20" fill="#331F4A" rx="2" />
      <rect x="0" y="-30" width="20" height="20" fill="#331F4A" rx="2" />
      
      
      <rect x="-40" y="-10" width="20" height="20" fill="#331F4A" rx="2" />
      <rect x="-20" y="-10" width="20" height="20" fill="#331F4A" rx="2" />
      <rect x="0" y="-10" width="20" height="20" fill="#331F4A" rx="2" />
      
      
      <rect x="0" y="10" width="20" height="20" fill="#331F4A" rx="2" />
      
      
      <rect x="-40" y="30" width="20" height="20" fill="#331F4A" rx="2" />
      <rect x="-20" y="30" width="20" height="20" fill="#331F4A" rx="2" />
      <rect x="0" y="30" width="20" height="20" fill="#331F4A" rx="2" />
    </g>
    
    
    <g>
      <rect x="-20" y="-30" width="20" height="20" fill="#5AC8FA" opacity="0.7" rx="2">
        <animate attributeName="opacity" values="0.5;0.8;0.5" dur="3s" repeatCount="indefinite" />
      </rect>
      
      <rect x="-40" y="10" width="20" height="20" fill="#5AC8FA" opacity="0.6" rx="2">
        <animate attributeName="opacity" values="0.4;0.7;0.4" dur="4s" repeatCount="indefinite" />
      </rect>
      
      <rect x="-20" y="10" width="20" height="20" fill="#5AC8FA" opacity="0.8" rx="2">
        <animate attributeName="opacity" values="0.6;0.9;0.6" dur="3.5s" repeatCount="indefinite" />
      </rect>
    </g>
    
    
    <g opacity="0.4">
      <rect x="-37" y="-47" width="20" height="20" fill="#0A0621" rx="2" />
      <rect x="-17" y="-47" width="20" height="20" fill="#0A0621" rx="2" />
      <rect x="3" y="-47" width="20" height="20" fill="#0A0621" rx="2" />
      <rect x="-37" y="-27" width="20" height="20" fill="#0A0621" rx="2" />
      <rect x="3" y="-27" width="20" height="20" fill="#0A0621" rx="2" />
      <rect x="-37" y="-7" width="20" height="20" fill="#0A0621" rx="2" />
      <rect x="-17" y="-7" width="20" height="20" fill="#0A0621" rx="2" />
      <rect x="3" y="-7" width="20" height="20" fill="#0A0621" rx="2" />
      <rect x="3" y="13" width="20" height="20" fill="#0A0621" rx="2" />
      <rect x="-37" y="33" width="20" height="20" fill="#0A0621" rx="2" />
      <rect x="-17" y="33" width="20" height="20" fill="#0A0621" rx="2" />
      <rect x="3" y="33" width="20" height="20" fill="#0A0621" rx="2" />
    </g>
    
    
    <g opacity="0.2">
      <rect x="-43" y="-53" width="20" height="20" fill="#5AC8FA" rx="2" />
      <rect x="-23" y="-53" width="20" height="20" fill="#5AC8FA" rx="2" />
      <rect x="-3" y="-53" width="20" height="20" fill="#5AC8FA" rx="2" />
      <rect x="-43" y="-33" width="20" height="20" fill="#5AC8FA" rx="2" />
      <rect x="-3" y="-33" width="20" height="20" fill="#5AC8FA" rx="2" />
      <rect x="-43" y="-13" width="20" height="20" fill="#5AC8FA" rx="2" />
      <rect x="-23" y="-13" width="20" height="20" fill="#5AC8FA" rx="2" />
      <rect x="-3" y="-13" width="20" height="20" fill="#5AC8FA" rx="2" />
      <rect x="-3" y="7" width="20" height="20" fill="#5AC8FA" rx="2" />
      <rect x="-43" y="27" width="20" height="20" fill="#5AC8FA" rx="2" />
      <rect x="-23" y="27" width="20" height="20" fill="#5AC8FA" rx="2" />
      <rect x="-3" y="27" width="20" height="20" fill="#5AC8FA" rx="2" />
    </g>
    
    
    <g opacity="0.15">
      <rect x="-42" y="-52" width="20" height="20" fill="#6A3093" rx="2" />
      <rect x="-22" y="-52" width="20" height="20" fill="#6A3093" rx="2" />
      <rect x="-2" y="-52" width="20" height="20" fill="#6A3093" rx="2" />
      <rect x="-42" y="-32" width="20" height="20" fill="#6A3093" rx="2" />
      <rect x="-2" y="-32" width="20" height="20" fill="#6A3093" rx="2" />
      <rect x="-42" y="-12" width="20" height="20" fill="#6A3093" rx="2" />
      <rect x="-22" y="-12" width="20" height="20" fill="#6A3093" rx="2" />
      <rect x="-2" y="-12" width="20" height="20" fill="#6A3093" rx="2" />
      <rect x="-2" y="8" width="20" height="20" fill="#6A3093" rx="2" />
      <rect x="-42" y="28" width="20" height="20" fill="#6A3093" rx="2" />
      <rect x="-22" y="28" width="20" height="20" fill="#6A3093" rx="2" />
      <rect x="-2" y="28" width="20" height="20" fill="#6A3093" rx="2" />
    </g>
    
    
    <g opacity="0.4">
      <path d="M-30,-40 L-10,-40" stroke="#5AC8FA" stroke-width="1" />
      <path d="M-30,-20 L-10,-20" stroke="#5AC8FA" stroke-width="1" />
      <path d="M-30,0 L-10,0" stroke="#5AC8FA" stroke-width="1" />
      <path d="M-30,20 L-10,20" stroke="#5AC8FA" stroke-width="1" />
      <path d="M-30,40 L-10,40" stroke="#5AC8FA" stroke-width="1" />
      
      <path d="M-40,-40 L-40,-20" stroke="#5AC8FA" stroke-width="1" />
      <path d="M-40,-20 L-40,0" stroke="#5AC8FA" stroke-width="1" />
      <path d="M-40,0 L-40,20" stroke="#5AC8FA" stroke-width="1" />
      <path d="M-40,20 L-40,40" stroke="#5AC8FA" stroke-width="1" />
      
      <path d="M-20,-40 L-20,-20" stroke="#5AC8FA" stroke-width="1" />
      <path d="M-20,-20 L-20,0" stroke="#5AC8FA" stroke-width="1" />
      <path d="M-20,0 L-20,20" stroke="#5AC8FA" stroke-width="1" />
      <path d="M-20,20 L-20,40" stroke="#5AC8FA" stroke-width="1" />
      
      <path d="M0,-40 L0,-20" stroke="#5AC8FA" stroke-width="1" />
      <path d="M0,-20 L0,0" stroke="#5AC8FA" stroke-width="1" />
      <path d="M0,0 L0,20" stroke="#5AC8FA" stroke-width="1" />
      <path d="M0,20 L0,40" stroke="#5AC8FA" stroke-width="1" />
    </g>
  </g>
  
  
  <g>
    <text x="300" y="650" font-family="SF Pro Text, -apple-system, system-ui, sans-serif"SF Pro '" font-size="22" font-weight="bold" fill="#FFFFFF" text-anchor="middle">Primary Mark</text>
    
    
    <g transform="translate(300, 720) scale(1.2)">
      
      <g>
        
        <rect x="-40" y="-50" width="20" height="20" fill="#331F4A" rx="2" />
        <rect x="-20" y="-50" width="20" height="20" fill="#331F4A" rx="2" />
        <rect x="0" y="-50" width="20" height="20" fill="#331F4A" rx="2" />
        
        
        <rect x="-40" y="-30" width="20" height="20" fill="#331F4A" rx="2" />
        <rect x="0" y="-30" width="20" height="20" fill="#331F4A" rx="2" />
        
        
        <rect x="-40" y="-10" width="20" height="20" fill="#331F4A" rx="2" />
        <rect x="-20" y="-10" width="20" height="20" fill="#331F4A" rx="2" />
        <rect x="0" y="-10" width="20" height="20" fill="#331F4A" rx="2" />
        
        
        <rect x="0" y="10" width="20" height="20" fill="#331F4A" rx="2" />
        
        
        <rect x="-40" y="30" width="20" height="20" fill="#331F4A" rx="2" />
        <rect x="-20" y="30" width="20" height="20" fill="#331F4A" rx="2" />
        <rect x="0" y="30" width="20" height="20" fill="#331F4A" rx="2" />
      </g>
      
      
      <rect x="-20" y="-30" width="20" height="20" fill="#5AC8FA" opacity="0.7" rx="2" />
      <rect x="-40" y="10" width="20" height="20" fill="#5AC8FA" opacity="0.6" rx="2" />
      <rect x="-20" y="10" width="20" height="20" fill="#5AC8FA" opacity="0.8" rx="2" />
    </g>
    
    
    <text x="600" y="650" font-family="SF Pro Text, -apple-system, system-ui, sans-serif"SF Pro '" font-size="22" font-weight="bold" fill="#FFFFFF" text-anchor="middle">Wordmark Integration</text>
    
    <g transform="translate(600, 720)">
      
      <g transform="translate(-130, 0) scale(0.7)">
        
        <g>
          
          <rect x="-40" y="-50" width="20" height="20" fill="#331F4A" rx="2" />
          <rect x="-20" y="-50" width="20" height="20" fill="#331F4A" rx="2" />
          <rect x="0" y="-50" width="20" height="20" fill="#331F4A" rx="2" />
          
          
          <rect x="-40" y="-30" width="20" height="20" fill="#331F4A" rx="2" />
          <rect x="0" y="-30" width="20" height="20" fill="#331F4A" rx="2" />
          
          
          <rect x="-40" y="-10" width="20" height="20" fill="#331F4A" rx="2" />
          <rect x="-20" y="-10" width="20" height="20" fill="#331F4A" rx="2" />
          <rect x="0" y="-10" width="20" height="20" fill="#331F4A" rx="2" />
          
          
          <rect x="0" y="10" width="20" height="20" fill="#331F4A" rx="2" />
          
          
          <rect x="-40" y="30" width="20" height="20" fill="#331F4A" rx="2" />
          <rect x="-20" y="30" width="20" height="20" fill="#331F4A" rx="2" />
          <rect x="0" y="30" width="20" height="20" fill="#331F4A" rx="2" />
        </g>
        
        
        <rect x="-20" y="-30" width="20" height="20" fill="#5AC8FA" opacity="0.7" rx="2" />
        <rect x="-40" y="10" width="20" height="20" fill="#5AC8FA" opacity="0.6" rx="2" />
        <rect x="-20" y="10" width="20" height="20" fill="#5AC8FA" opacity="0.8" rx="2" />
      </g>
      
      
      <text x="40" y="0" font-family="SF Pro Text, -apple-system, system-ui, sans-serif"SF Pro '" font-size="36" font-weight="600" fill="#FFFFFF">Bit Studios</text>
    </g>
    
    
    <text x="900" y="650" font-family="SF Pro Text, -apple-system, system-ui, sans-serif"SF Pro '" font-size="22" font-weight="bold" fill="#FFFFFF" text-anchor="middle">App Icon Variant</text>
    
    <g transform="translate(900, 720)">
      
      <rect x="-75" y="-75" width="150" height="150" rx="35" fill="#331F4A" />
      
      
      <g opacity="0.1">
        <path d="M-75,-45 L75,-45" stroke="#36EAE8" stroke-width="1" />
        <path d="M-75,-15 L75,-15" stroke="#36EAE8" stroke-width="1" />
        <path d="M-75,15 L75,15" stroke="#36EAE8" stroke-width="1" />
        <path d="M-75,45 L75,45" stroke="#36EAE8" stroke-width="1" />
        
        <path d="M-45,-75 L-45,75" stroke="#36EAE8" stroke-width="1" />
        <path d="M-15,-75 L-15,75" stroke="#36EAE8" stroke-width="1" />
        <path d="M15,-75 L15,75" stroke="#36EAE8" stroke-width="1" />
        <path d="M45,-75 L45,75" stroke="#36EAE8" stroke-width="1" />
      </g>
      
      
      <g transform="scale(0.8)">
        
        <g>
          
          <rect x="-40" y="-50" width="20" height="20" fill="#FFF" rx="2" opacity="0.9" />
          <rect x="-20" y="-50" width="20" height="20" fill="#FFF" rx="2" opacity="0.9" />
          <rect x="0" y="-50" width="20" height="20" fill="#FFF" rx="2" opacity="0.9" />
          
          
          <rect x="-40" y="-30" width="20" height="20" fill="#FFF" rx="2" opacity="0.9" />
          <rect x="0" y="-30" width="20" height="20" fill="#FFF" rx="2" opacity="0.9" />
          
          
          <rect x="-40" y="-10" width="20" height="20" fill="#FFF" rx="2" opacity="0.9" />
          <rect x="-20" y="-10" width="20" height="20" fill="#FFF" rx="2" opacity="0.9" />
          <rect x="0" y="-10" width="20" height="20" fill="#FFF" rx="2" opacity="0.9" />
          
          
          <rect x="0" y="10" width="20" height="20" fill="#FFF" rx="2" opacity="0.9" />
          
          
          <rect x="-40" y="30" width="20" height="20" fill="#FFF" rx="2" opacity="0.9" />
          <rect x="-20" y="30" width="20" height="20" fill="#FFF" rx="2" opacity="0.9" />
          <rect x="0" y="30" width="20" height="20" fill="#FFF" rx="2" opacity="0.9" />
        </g>
        
        
        <rect x="-20" y="-30" width="20" height="20" fill="#36EAE8" opacity="0.9" rx="2" />
        <rect x="-40" y="10" width="20" height="20" fill="#36EAE8" opacity="0.8" rx="2" />
        <rect x="-20" y="10" width="20" height="20" fill="#36EAE8" opacity="0.9" rx="2" />
      </g>
    </g>
  </g>
  
  
  <g transform="translate(1120, 850)">
    <g transform="scale(0.5)">
      
      <g>
        
        <rect x="-40" y="-50" width="20" height="20" fill="#331F4A" rx="2" />
        <rect x="-20" y="-50" width="20" height="20" fill="#331F4A" rx="2" />
        <rect x="0" y="-50" width="20" height="20" fill="#331F4A" rx="2" />
        
        
        <rect x="-40" y="-30" width="20" height="20" fill="#331F4A" rx="2" />
        <rect x="0" y="-30" width="20" height="20" fill="#331F4A" rx="2" />
        
        
        <rect x="-40" y="-10" width="20" height="20" fill="#331F4A" rx="2" />
        <rect x="-20" y="-10" width="20" height="20" fill="#331F4A" rx="2" />
        <rect x="0" y="-10" width="20" height="20" fill="#331F4A" rx="2" />
        
        
        <rect x="0" y="10" width="20" height="20" fill="#331F4A" rx="2" />
        
        
        <rect x="-40" y="30" width="20" height="20" fill="#331F4A" rx="2" />
        <rect x="-20" y="30" width="20" height="20" fill="#331F4A" rx="2" />
        <rect x="0" y="30" width="20" height="20" fill="#331F4A" rx="2" />
        
        
        <rect x="-20" y="-30" width="20" height="20" fill="#5AC8FA" opacity="0.7" rx="2" />
        <rect x="-40" y="10" width="20" height="20" fill="#5AC8FA" opacity="0.6" rx="2" />
        <rect x="-20" y="10" width="20" height="20" fill="#5AC8FA" opacity="0.8" rx="2" />
      </g>
    </g>
    <text x="-20" y="30" font-family="SF Pro Text, -apple-system, system-ui, sans-serif"SF Pro '" font-size="14" font-weight="bold" fill="#FFFFFF" text-anchor="end">9Bit Studios</text>
  </g>
<defs><linearGradient id="quantum-depth-gradient" x1="0%" y1="0%" x2="100%" y2="0%"><stop offset="0%" stop-color="#131A36" /><stop offset="50%" stop-color="#331F4A" /><stop offset="100%" stop-color="#6A3093" /></linearGradient><linearGradient id="energy-state-transition" x1="0%" y1="0%" x2="100%" y2="0%"><stop offset="0%" stop-color="#2D854D" /><stop offset="50%" stop-color="#131A36" /><stop offset="100%" stop-color="#36EAE8" /></linearGradient><linearGradient id="material-state-variation" x1="0%" y1="0%" x2="100%" y2="0%"><stop offset="0%" stop-color="#331F4A" /><stop offset="60%" stop-color="#BF4080" /><stop offset="100%" stop-color="#131A36" /></linearGradient><linearGradient id="spatial-background-gradient" x1="0%" y1="0%" x2="100%" y2="0%"><stop offset="0%" stop-color="#0A0621" /><stop offset="70%" stop-color="#131A36" /><stop offset="100%" stop-color="#6A3093" /></linearGradient><linearGradient id="accent-highlight-gradient" x1="0%" y1="0%" x2="100%" y2="0%"><stop offset="0%" stop-color="#36EAE8" /><stop offset="100%" stop-color="#126D71" /></linearGradient><linearGradient id="deep-spatial-background-gradient" x1="0%" y1="0%" x2="100%" y2="0%"><stop offset="0%" stop-color="#0A0621" /><stop offset="40%" stop-color="#1E1F5C" /><stop offset="100%" stop-color="#131A36" /></linearGradient><linearGradient id="spiritual-state-transition" x1="0%" y1="0%" x2="100%" y2="0%"><stop offset="0%" stop-color="#FF6B57" /><stop offset="50%" stop-color="#BF4080" /><stop offset="100%" stop-color="#36EAE8" /></linearGradient><linearGradient id="spiritual-material-state-transition" x1="0%" y1="0%" x2="100%" y2="0%"><stop offset="0%" stop-color="#FF6B57" /><stop offset="50%" stop-color="#BF4080" /><stop offset="100%" stop-color="#131A36" /></linearGradient></defs><g class="grid" opacity="0.1"><line x1="0" y1="45.0" x2="1200.0" y2="45.0" stroke="#36EAE8" stroke-width="1" /><line x1="0" y1="90.0" x2="1200.0" y2="90.0" stroke="#36EAE8" stroke-width="1" /><line x1="0" y1="135.0" x2="1200.0" y2="135.0" stroke="#36EAE8" stroke-width="1" /><line x1="0" y1="180.0" x2="1200.0" y2="180.0" stroke="#36EAE8" stroke-width="1" /><line x1="0" y1="225.0" x2="1200.0" y2="225.0" stroke="#36EAE8" stroke-width="1" /><line x1="0" y1="270.0" x2="1200.0" y2="270.0" stroke="#36EAE8" stroke-width="1" /><line x1="0" y1="315.0" x2="1200.0" y2="315.0" stroke="#36EAE8" stroke-width="1" /><line x1="0" y1="360.0" x2="1200.0" y2="360.0" stroke="#36EAE8" stroke-width="1" /><line x1="0" y1="405.0" x2="1200.0" y2="405.0" stroke="#36EAE8" stroke-width="1" /><line x1="0" y1="450.0" x2="1200.0" y2="450.0" stroke="#36EAE8" stroke-width="1" /><line x1="0" y1="495.0" x2="1200.0" y2="495.0" stroke="#36EAE8" stroke-width="1" /><line x1="0" y1="540.0" x2="1200.0" y2="540.0" stroke="#36EAE8" stroke-width="1" /><line x1="0" y1="585.0" x2="1200.0" y2="585.0" stroke="#36EAE8" stroke-width="1" /><line x1="0" y1="630.0" x2="1200.0" y2="630.0" stroke="#36EAE8" stroke-width="1" /><line x1="0" y1="675.0" x2="1200.0" y2="675.0" stroke="#36EAE8" stroke-width="1" /><line x1="0" y1="720.0" x2="1200.0" y2="720.0" stroke="#36EAE8" stroke-width="1" /><line x1="0" y1="765.0" x2="1200.0" y2="765.0" stroke="#36EAE8" stroke-width="1" /><line x1="0" y1="810.0" x2="1200.0" y2="810.0" stroke="#36EAE8" stroke-width="1" /><line x1="0" y1="855.0" x2="1200.0" y2="855.0" stroke="#36EAE8" stroke-width="1" /><line x1="60.0" y1="0" x2="60.0" y2="900.0" stroke="#36EAE8" stroke-width="1" /><line x1="120.0" y1="0" x2="120.0" y2="900.0" stroke="#36EAE8" stroke-width="1" /><line x1="180.0" y1="0" x2="180.0" y2="900.0" stroke="#36EAE8" stroke-width="1" /><line x1="240.0" y1="0" x2="240.0" y2="900.0" stroke="#36EAE8" stroke-width="1" /><line x1="300.0" y1="0" x2="300.0" y2="900.0" stroke="#36EAE8" stroke-width="1" /><line x1="360.0" y1="0" x2="360.0" y2="900.0" stroke="#36EAE8" stroke-width="1" /><line x1="420.0" y1="0" x2="420.0" y2="900.0" stroke="#36EAE8" stroke-width="1" /><line x1="480.0" y1="0" x2="480.0" y2="900.0" stroke="#36EAE8" stroke-width="1" /><line x1="540.0" y1="0" x2="540.0" y2="900.0" stroke="#36EAE8" stroke-width="1" /><line x1="600.0" y1="0" x2="600.0" y2="900.0" stroke="#36EAE8" stroke-width="1" /><line x1="660.0" y1="0" x2="660.0" y2="900.0" stroke="#36EAE8" stroke-width="1" /><line x1="720.0" y1="0" x2="720.0" y2="900.0" stroke="#36EAE8" stroke-width="1" /><line x1="780.0" y1="0" x2="780.0" y2="900.0" stroke="#36EAE8" stroke-width="1" /><line x1="840.0" y1="0" x2="840.0" y2="900.0" stroke="#36EAE8" stroke-width="1" /><line x1="900.0" y1="0" x2="900.0" y2="900.0" stroke="#36EAE8" stroke-width="1" /><line x1="960.0" y1="0" x2="960.0" y2="900.0" stroke="#36EAE8" stroke-width="1" /><line x1="1020.0" y1="0" x2="1020.0" y2="900.0" stroke="#36EAE8" stroke-width="1" /><line x1="1080.0" y1="0" x2="1080.0" y2="900.0" stroke="#36EAE8" stroke-width="1" /><line x1="1140.0" y1="0" x2="1140.0" y2="900.0" stroke="#36EAE8" stroke-width="1" /></g><g class="9bit-logo" transform="translate(60.0 855.0)"><g class="quantum-pixel" transform="translate(0 -24)"><rect width="12" height="12" fill="#331F4A" /><rect width="3.0" height="3.0" fill="#36EAE8" opacity="0.8" /></g><g class="quantum-pixel" transform="translate(0 -12)"><rect width="12" height="12" fill="#331F4A" /><rect width="3.0" height="3.0" fill="#36EAE8" opacity="0.8" /></g><text x="24" y="0" font-family="SF Pro Text, -apple-system, system-ui, sans-serif"SF Pro '" font-size="12.6px" fill="#FFFFFF">9Bit Studios</text></g></svg>