<svg width="100" height="100" viewBox="0 0 100 100" fill="none" xmlns="http://www.w3.org/2000/svg">
<g clip-path="url(#clip0_122031_111237)">
<rect width="100" height="100" fill="white"/>
<rect width="100" height="100" fill="#09021A"/>
<g opacity="0.4">
<path d="M49.93 11.11L82.34 34.44V65.55L49.93 88.88L17.52 65.55V34.44L49.93 11.11Z" fill="url(#paint0_linear_122031_111237)" stroke="white" stroke-width="3.89"/>
</g>
<path d="M49.93 11.11L82.34 34.44V65.55L49.93 88.88L17.52 65.55V34.44L49.93 11.11Z" fill="url(#paint1_linear_122031_111237)" stroke="white" stroke-width="0.97"/>
<path d="M49.93 11.11V50" stroke="white" stroke-width="0.65" stroke-dasharray="0.65 0.65"/>
<path d="M82.34 65.56L49.93 50" stroke="white" stroke-width="0.65" stroke-dasharray="0.65 0.65"/>
<path d="M49.93 88.89V50" stroke="white" stroke-width="0.65" stroke-dasharray="0.65 0.65"/>
<path d="M17.52 65.56L49.93 50" stroke="white" stroke-width="0.65" stroke-dasharray="0.65 0.65"/>
<path d="M82.34 38.33C84.4884 38.33 86.23 36.5884 86.23 34.44C86.23 32.2916 84.4884 30.55 82.34 30.55C80.1916 30.55 78.45 32.2916 78.45 34.44C78.45 36.5884 80.1916 38.33 82.34 38.33Z" fill="url(#paint2_linear_122031_111237)" stroke="white" stroke-width="0.39" stroke-miterlimit="10"/>
<path d="M17.52 38.33C19.6684 38.33 21.41 36.5884 21.41 34.44C21.41 32.2916 19.6684 30.55 17.52 30.55C15.3716 30.55 13.63 32.2916 13.63 34.44C13.63 36.5884 15.3716 38.33 17.52 38.33Z" fill="url(#paint3_linear_122031_111237)" stroke="white" stroke-width="0.39" stroke-miterlimit="10"/>
<path d="M49.93 15C52.0784 15 53.82 13.2584 53.82 11.11C53.82 8.96161 52.0784 7.22 49.93 7.22C47.7816 7.22 46.04 8.96161 46.04 11.11C46.04 13.2584 47.7816 15 49.93 15Z" fill="url(#paint4_linear_122031_111237)" stroke="white" stroke-width="0.39" stroke-miterlimit="10"/>
<path d="M82.34 69.45C84.4884 69.45 86.23 67.7084 86.23 65.56C86.23 63.4116 84.4884 61.67 82.34 61.67C80.1916 61.67 78.45 63.4116 78.45 65.56C78.45 67.7084 80.1916 69.45 82.34 69.45Z" fill="url(#paint5_linear_122031_111237)" stroke="white" stroke-width="0.39" stroke-miterlimit="10"/>
<path d="M49.93 92.78C52.0784 92.78 53.82 91.0384 53.82 88.89C53.82 86.7416 52.0784 85 49.93 85C47.7816 85 46.04 86.7416 46.04 88.89C46.04 91.0384 47.7816 92.78 49.93 92.78Z" fill="url(#paint6_linear_122031_111237)" stroke="white" stroke-width="0.39" stroke-miterlimit="10"/>
<path d="M17.52 69.45C19.6684 69.45 21.41 67.7084 21.41 65.56C21.41 63.4116 19.6684 61.67 17.52 61.67C15.3716 61.67 13.63 63.4116 13.63 65.56C13.63 67.7084 15.3716 69.45 17.52 69.45Z" fill="url(#paint7_linear_122031_111237)" stroke="white" stroke-width="0.39" stroke-miterlimit="10"/>
<path d="M82.34 34.44L49.93 50" stroke="white" stroke-width="0.65" stroke-dasharray="0.65 0.65"/>
<path d="M17.52 34.44L49.93 50" stroke="white" stroke-width="0.65" stroke-dasharray="0.65 0.65"/>
<path opacity="0.7" d="M49.93 56.48C53.5088 56.48 56.41 53.5788 56.41 50C56.41 46.4212 53.5088 43.52 49.93 43.52C46.3512 43.52 43.45 46.4212 43.45 50C43.45 53.5788 46.3512 56.48 49.93 56.48Z" fill="url(#paint8_linear_122031_111237)"/>
<path opacity="0.7" d="M17.52 40.92C21.0988 40.92 24 38.0188 24 34.44C24 30.8612 21.0988 27.96 17.52 27.96C13.9412 27.96 11.04 30.8612 11.04 34.44C11.04 38.0188 13.9412 40.92 17.52 40.92Z" fill="url(#paint9_linear_122031_111237)"/>
<path opacity="0.7" d="M82.34 40.92C85.9188 40.92 88.82 38.0188 88.82 34.44C88.82 30.8612 85.9188 27.96 82.34 27.96C78.7612 27.96 75.86 30.8612 75.86 34.44C75.86 38.0188 78.7612 40.92 82.34 40.92Z" fill="url(#paint10_linear_122031_111237)"/>
</g>
<defs>
<linearGradient id="paint0_linear_122031_111237" x1="17.52" y1="11.3121" x2="98.8049" y2="36.0407" gradientUnits="userSpaceOnUse">
<stop stop-color="#FF9D3F"/>
<stop offset="0.403862" stop-color="#F46772"/>
<stop offset="0.692179" stop-color="#AF33E4"/>
<stop offset="1" stop-color="#2F70E4"/>
</linearGradient>
<linearGradient id="paint1_linear_122031_111237" x1="17.52" y1="11.3121" x2="98.8049" y2="36.0407" gradientUnits="userSpaceOnUse">
<stop stop-color="#FF9D3F"/>
<stop offset="0.403862" stop-color="#F46772"/>
<stop offset="0.692179" stop-color="#AF33E4"/>
<stop offset="1" stop-color="#2F70E4"/>
</linearGradient>
<linearGradient id="paint2_linear_122031_111237" x1="78.45" y1="30.5702" x2="87.856" y2="34.0034" gradientUnits="userSpaceOnUse">
<stop stop-color="#FF9D3F"/>
<stop offset="0.403862" stop-color="#F46772"/>
<stop offset="0.692179" stop-color="#AF33E4"/>
<stop offset="1" stop-color="#2F70E4"/>
</linearGradient>
<linearGradient id="paint3_linear_122031_111237" x1="13.63" y1="30.5702" x2="23.036" y2="34.0034" gradientUnits="userSpaceOnUse">
<stop stop-color="#FF9D3F"/>
<stop offset="0.403862" stop-color="#F46772"/>
<stop offset="0.692179" stop-color="#AF33E4"/>
<stop offset="1" stop-color="#2F70E4"/>
</linearGradient>
<linearGradient id="paint4_linear_122031_111237" x1="46.04" y1="7.24022" x2="55.446" y2="10.6734" gradientUnits="userSpaceOnUse">
<stop stop-color="#FF9D3F"/>
<stop offset="0.403862" stop-color="#F46772"/>
<stop offset="0.692179" stop-color="#AF33E4"/>
<stop offset="1" stop-color="#2F70E4"/>
</linearGradient>
<linearGradient id="paint5_linear_122031_111237" x1="78.45" y1="61.6902" x2="87.856" y2="65.1234" gradientUnits="userSpaceOnUse">
<stop stop-color="#FF9D3F"/>
<stop offset="0.403862" stop-color="#F46772"/>
<stop offset="0.692179" stop-color="#AF33E4"/>
<stop offset="1" stop-color="#2F70E4"/>
</linearGradient>
<linearGradient id="paint6_linear_122031_111237" x1="46.04" y1="85.0202" x2="55.446" y2="88.4534" gradientUnits="userSpaceOnUse">
<stop stop-color="#FF9D3F"/>
<stop offset="0.403862" stop-color="#F46772"/>
<stop offset="0.692179" stop-color="#AF33E4"/>
<stop offset="1" stop-color="#2F70E4"/>
</linearGradient>
<linearGradient id="paint7_linear_122031_111237" x1="13.63" y1="61.6902" x2="23.036" y2="65.1234" gradientUnits="userSpaceOnUse">
<stop stop-color="#FF9D3F"/>
<stop offset="0.403862" stop-color="#F46772"/>
<stop offset="0.692179" stop-color="#AF33E4"/>
<stop offset="1" stop-color="#2F70E4"/>
</linearGradient>
<linearGradient id="paint8_linear_122031_111237" x1="43.45" y1="43.5537" x2="59.1187" y2="49.2727" gradientUnits="userSpaceOnUse">
<stop stop-color="#FF9D3F"/>
<stop offset="0.403862" stop-color="#F46772"/>
<stop offset="0.692179" stop-color="#AF33E4"/>
<stop offset="1" stop-color="#2F70E4"/>
</linearGradient>
<linearGradient id="paint9_linear_122031_111237" x1="11.04" y1="27.9937" x2="26.7086" y2="33.7127" gradientUnits="userSpaceOnUse">
<stop stop-color="#FF9D3F"/>
<stop offset="0.403862" stop-color="#F46772"/>
<stop offset="0.692179" stop-color="#AF33E4"/>
<stop offset="1" stop-color="#2F70E4"/>
</linearGradient>
<linearGradient id="paint10_linear_122031_111237" x1="75.86" y1="27.9937" x2="91.5286" y2="33.7127" gradientUnits="userSpaceOnUse">
<stop stop-color="#FF9D3F"/>
<stop offset="0.403862" stop-color="#F46772"/>
<stop offset="0.692179" stop-color="#AF33E4"/>
<stop offset="1" stop-color="#2F70E4"/>
</linearGradient>
<clipPath id="clip0_122031_111237">
<rect width="100" height="100" fill="white"/>
</clipPath>
</defs>
</svg>
