<svg width="234" height="234" viewBox="0 0 234 234" fill="none" xmlns="http://www.w3.org/2000/svg">
<rect width="234" height="234" fill="#230723"/>
<g clip-path="url(#clip0_121969_22445)">
<path d="M149.099 76.1642C141.326 76.1642 134.808 79.1319 127.131 94.269C112.184 77.1996 81.8068 58.7611 50.8269 56.4893C47.7142 56.2846 46.3524 58.0039 46.153 60.6375C43.7722 92.7366 69.4483 117.569 104.223 120.426C95.9636 139.693 81.3101 161.373 64.6489 177.079C63.1314 178.429 63.0696 180.216 64.3498 182.265C71.3106 192.906 92.9749 199.199 107.937 194.019C109.748 193.363 110.711 192.626 110.711 190.116V164.387C130.164 164.371 157.643 154.178 151.28 120.479L149.908 113.272C163.405 110.5 171.762 102.939 171.762 96.2567C171.762 87.0364 161.874 76.1642 149.099 76.1642ZM149.152 80.0363C160.245 80.0363 167.842 88.716 167.842 96.2567C167.842 101.44 160.938 107.476 147.473 109.758C146.496 109.921 145.753 110.734 145.902 111.716L147.545 121.534C152.765 153.107 127.314 161.149 108.735 160.495C107.579 160.415 106.813 161.236 106.813 162.296V189.706C106.813 190.124 106.707 190.428 106.189 190.563C92.6518 195.063 73.9706 189.591 67.6978 180.261C67.4425 179.85 67.4365 179.611 67.7775 179.286C85.1607 162.989 100.6 139.673 108.663 119.976C109.379 118.187 108.727 116.91 106.811 116.81C72.5072 114.751 48.3306 92.2558 50.0733 61.1742C50.159 60.566 50.2507 60.403 50.9327 60.4805C81.3382 63.0245 110.077 80.6067 124.18 96.8469C125.167 97.9879 126.252 98.5227 127.333 98.5227C128.669 98.5227 129.745 97.7851 130.449 96.3042C137.548 82.2326 142.177 80.0363 149.152 80.0363ZM139.94 79.2253L143.649 78.0863C135.077 58.7293 123.624 45.4325 107.032 36.2419C104.233 34.6956 101.748 35.6397 100.861 38.3926C97.3556 48.4696 96.1313 61.1424 97.4613 73.0836L101.541 74.5902C100.115 61.5777 101.108 49.7279 104.416 40.2312C104.58 39.5952 104.917 39.4978 105.527 39.8655C121.074 48.6485 131.747 60.7965 139.94 79.2253ZM154.959 95.7677C156.801 95.7677 158.281 94.2573 158.281 92.4207C158.281 90.5841 156.801 89.0956 154.959 89.0956C153.116 89.0956 151.587 90.5841 151.587 92.4207C151.587 94.2573 153.116 95.7677 154.959 95.7677ZM167.925 103.537L184.398 105.566C187.201 105.898 188.148 102.003 185.353 100.886L170.615 95.0123L167.925 103.537Z" fill="url(#paint0_linear_121969_22445)"/>
</g>
<defs>
<linearGradient id="paint0_linear_121969_22445" x1="46" y1="35.9167" x2="221.176" y2="92.1485" gradientUnits="userSpaceOnUse">
<stop stop-color="#FF9D3F"/>
<stop offset="0.403862" stop-color="#F46772"/>
<stop offset="0.692179" stop-color="#AF33E4"/>
<stop offset="1" stop-color="#2F70E4"/>
</linearGradient>
<clipPath id="clip0_121969_22445">
<rect width="142" height="163" fill="white" transform="translate(46 35.5)"/>
</clipPath>
</defs>
</svg>
