<svg width="24" height="24" viewBox="0 0 24 24" fill="none" xmlns="http://www.w3.org/2000/svg">
<g clip-path="url(#clip0_119240_41481)">
<path d="M19.0417 19.0417H16.0783V14.4C16.0783 13.2933 16.0583 11.8683 14.5367 11.8683C12.9933 11.8683 12.7567 13.075 12.7567 14.3183V19.0417H9.79333V9.49666H12.6383V10.8017H12.6783C13.2583 9.81166 14.3383 9.21833 15.485 9.26C18.4883 9.26 19.0433 11.235 19.0433 13.8067L19.0417 19.04V19.0417ZM6.45 8.19166C5.99479 8.18948 5.55882 8.00779 5.23678 7.68606C4.91474 7.36433 4.73263 6.92854 4.73 6.47333C4.73 5.53 5.50667 4.75333 6.45 4.75333C7.39333 4.75333 8.16833 5.53 8.17 6.47333C8.17 7.41666 7.39333 8.19166 6.45 8.19166ZM7.93167 19.0417H4.965V9.49666H7.93167V19.0417ZM20.5167 1.99999H3.475C3.08858 1.99775 2.7169 2.14809 2.44071 2.41835C2.16451 2.68862 2.00614 3.05695 2 3.44333V20.5567C2.00614 20.943 2.16451 21.3114 2.44071 21.5816C2.7169 21.8519 3.08858 22.0022 3.475 22H20.5183C20.9056 22.0031 21.2785 21.8533 21.556 21.583C21.8334 21.3128 21.993 20.9439 22 20.5567V3.44166C21.993 3.05471 21.8333 2.68621 21.5558 2.41648C21.2782 2.14674 20.9053 1.99764 20.5183 2.00166L20.5167 1.99999Z" fill="white"/>
</g>
<defs>
<clipPath id="clip0_119240_41481">
<rect width="20" height="20" fill="white" transform="translate(2 2)"/>
</clipPath>
</defs>
</svg>
