<svg width="56" height="65" viewBox="0 0 56 65" fill="none" xmlns="http://www.w3.org/2000/svg">
<g clip-path="url(#clip0_123583_102849)">
<path d="M40.3642 16.0346C37.3134 16.0346 34.7759 17.187 31.765 23.1612C25.9142 16.4494 14.0095 9.18851 1.85484 8.29554C0.656371 8.22054 0.133719 8.85573 0.0610633 9.8995C-0.882683 22.5323 9.22044 32.3097 22.9111 33.3847C19.6517 41.091 13.7751 49.5753 7.30013 55.6932C6.7134 56.2018 6.67826 56.894 7.17435 57.694C9.90483 61.8691 18.3744 64.337 24.2345 62.3066C24.9252 62.0401 25.2916 61.7745 25.2916 60.7933V50.6589C32.9166 50.669 43.6799 46.6534 41.1924 33.4268L40.6439 30.5589C45.9486 29.4854 49.2174 26.5214 49.2174 23.9002C49.2174 20.2838 45.3619 16.0346 40.3642 16.0346ZM42.7455 23.6815C42.0181 23.6815 41.4244 23.0878 41.4244 22.3659C41.4244 21.644 42.0181 21.0588 42.7455 21.0588C43.4619 21.0588 44.0471 21.644 44.0471 22.3659C44.0471 23.0878 43.4619 23.6815 42.7455 23.6815ZM47.7673 26.7354L54.2213 27.5331C55.3198 27.6636 55.6909 26.1323 54.5956 25.6932L48.8213 23.3846L47.7673 26.7354ZM37.1306 14.4416C33.922 8.05412 29.7056 3.54631 23.8822 0.291632C22.7853 -0.316197 21.8119 0.0549111 21.4642 1.13697C20.4103 4.20337 19.8994 7.90411 19.9423 11.6049C24.4259 13.9494 28.3642 16.7986 31.3213 19.6744C33.2728 16.6572 35.183 15.1252 37.1306 14.4416Z" fill="white" fill-opacity="0.85"/>
</g>
<defs>
<clipPath id="clip0_123583_102849">
<rect width="55.6285" height="64.0544" fill="white"/>
</clipPath>
</defs>
</svg>
