<svg width="24" height="24" viewBox="0 0 24 24" fill="none" xmlns="http://www.w3.org/2000/svg">
<path d="M14.1859 11.6506C14.1859 10.6943 13.3864 9.91902 12.4 9.91902C11.4137 9.91902 10.6141 10.6943 10.6141 11.6506C10.6141 12.607 11.4137 13.3823 12.4 13.3823C13.3864 13.3823 14.1859 12.607 14.1859 11.6506Z" fill="#53C1DE"/>
<path fill-rule="evenodd" clip-rule="evenodd" d="M18.2002 8.4358C18.5774 6.94986 19.0515 4.19432 17.3803 3.26011C15.7169 2.32996 13.5523 4.11228 12.4093 5.18212C11.2696 4.12295 9.04423 2.34824 7.37441 3.28542C5.71166 4.21868 6.22442 6.92853 6.60993 8.42379C5.05887 8.85094 2.39999 9.77094 2.39999 11.6506C2.39999 13.5249 5.0561 14.5259 6.59798 14.9526C6.21105 16.4561 5.72397 19.1273 7.38884 20.0584C9.06484 20.9954 11.2833 19.263 12.4369 18.1815C13.5872 19.2576 15.7311 21.0014 17.3948 20.0676C19.0638 19.1309 18.629 16.4123 18.2435 14.9083C19.7382 14.4807 22.4 13.5015 22.4 11.6506C22.4 9.78898 19.7269 8.86152 18.2002 8.4358ZM18.0108 14.1113C17.7577 13.3344 17.416 12.5082 16.9981 11.6547C17.397 10.8214 17.7254 10.0059 17.9714 9.23392C19.0906 9.54851 21.5457 10.2675 21.5457 11.6506C21.5457 13.0466 19.1898 13.7725 18.0108 14.1113ZM16.9666 19.3507C15.7254 20.0473 13.8814 18.3798 13.0319 17.5873C13.5954 16.9896 14.1587 16.2948 14.7083 15.5233C15.6752 15.4401 16.5887 15.3041 17.4171 15.1185C17.6884 16.1823 18.2135 18.6508 16.9666 19.3507ZM7.81574 19.3407C6.57428 18.6467 7.14171 16.2631 7.42637 15.1556C8.24556 15.3312 9.15237 15.4576 10.1216 15.5339C10.6749 16.2888 11.2544 16.9827 11.8384 17.5904C11.1168 18.2672 9.063 20.038 7.81574 19.3407ZM3.25432 11.6506C3.25432 10.2493 5.6947 9.53555 6.83935 9.22174C7.08967 10.011 7.41796 10.8363 7.81415 11.6708C7.41283 12.5177 7.07984 13.3561 6.82723 14.1546C5.73579 13.8518 3.25432 13.0528 3.25432 11.6506ZM7.80246 4.00236C9.049 3.30278 10.9831 5.00655 11.8106 5.77342C11.2296 6.37836 10.6554 7.06706 10.1069 7.81764C9.16627 7.90217 8.26583 8.03794 7.43806 8.21979C7.12749 7.01381 6.55727 4.70119 7.80246 4.00236ZM15.3195 8.71806C15.9577 8.79616 16.569 8.9 17.1431 9.0271C16.9708 9.5627 16.756 10.1228 16.503 10.6969C16.1363 10.0222 15.7426 9.36107 15.3195 8.71806ZM12.4096 6.3654C12.8036 6.77931 13.1983 7.24154 13.5865 7.74298C12.799 7.7069 12.0102 7.70673 11.2227 7.74247C11.6113 7.24566 12.0093 6.78412 12.4096 6.3654ZM8.30433 10.6963C8.05552 10.1241 7.84265 9.56158 7.66881 9.01834C8.23945 8.89451 8.84797 8.79333 9.48199 8.71652C9.05774 9.35811 8.66473 10.019 8.30433 10.6963ZM9.50023 14.6438C8.84523 14.5729 8.2275 14.4769 7.65704 14.3565C7.83362 13.8036 8.05118 13.229 8.3053 12.6446C8.67068 13.3289 9.06965 13.9962 9.50023 14.6438ZM12.4332 16.9943C12.0282 16.5706 11.6244 16.1021 11.2299 15.598C12.0219 15.6282 12.8154 15.6283 13.6073 15.594C13.2179 16.1072 12.8246 16.5765 12.4332 16.9943ZM16.5111 12.6148C16.7785 13.2056 17.0038 13.7771 17.1828 14.3206C16.6028 14.4489 15.9768 14.5522 15.3171 14.629C15.7433 13.9738 16.1432 13.3024 16.5111 12.6148ZM14.2315 14.7294C13.0201 14.8133 11.801 14.8124 10.5892 14.7362C9.90058 13.761 9.28762 12.7353 8.75849 11.6705C9.28503 10.6079 9.89357 9.58429 10.5789 8.61053C11.7917 8.52164 13.0119 8.52143 14.2246 8.61105C14.904 9.58474 15.5117 10.6057 16.0504 11.6588C15.518 12.7208 14.9063 13.7465 14.2315 14.7294ZM16.9535 3.97773C18.2004 4.67502 17.6454 7.15151 17.373 8.22837C16.5433 8.04275 15.6422 7.90458 14.6988 7.81876C14.1493 7.06003 13.5799 6.37012 13.0083 5.77299C13.8463 4.98961 15.7187 3.28726 16.9535 3.97773Z" fill="#53C1DE"/>
</svg>
