<svg width="24" height="24" viewBox="0 0 24 24" fill="none" xmlns="http://www.w3.org/2000/svg">
<path fill-rule="evenodd" clip-rule="evenodd" d="M12.0303 12C12.0303 10.159 13.5227 8.66666 15.3636 8.66666C17.2046 8.66666 18.697 10.159 18.697 12C18.697 13.8409 17.2046 15.3333 15.3636 15.3333C13.5227 15.3333 12.0303 13.8409 12.0303 12Z" fill="#1ABCFE"/>
<path fill-rule="evenodd" clip-rule="evenodd" d="M5.36365 18.6667C5.36365 16.8257 6.85603 15.3333 8.69698 15.3333H12.0303V18.6667C12.0303 20.5076 10.5379 22 8.69698 22C6.85603 22 5.36365 20.5076 5.36365 18.6667Z" fill="#0ACF83"/>
<path fill-rule="evenodd" clip-rule="evenodd" d="M12.0303 2V8.66667H15.3636C17.2046 8.66667 18.697 7.17428 18.697 5.33333C18.697 3.49238 17.2046 2 15.3636 2H12.0303Z" fill="#FF7262"/>
<path fill-rule="evenodd" clip-rule="evenodd" d="M5.36365 5.33333C5.36365 7.17428 6.85603 8.66667 8.69698 8.66667H12.0303V2H8.69698C6.85603 2 5.36365 3.49238 5.36365 5.33333Z" fill="#F24E1E"/>
<path fill-rule="evenodd" clip-rule="evenodd" d="M5.36365 12C5.36365 13.8409 6.85603 15.3333 8.69698 15.3333H12.0303V8.66666H8.69698C6.85603 8.66666 5.36365 10.159 5.36365 12Z" fill="#A259FF"/>
</svg>
