<svg width="24" height="24" viewBox="0 0 24 24" fill="none" xmlns="http://www.w3.org/2000/svg">
<path d="M17.0969 19.8718C14.7393 21.2483 11.4976 21.3897 8.23627 19.977C5.59562 18.8416 3.40456 16.854 2 14.5831C2.67419 15.1509 3.46074 15.6052 4.30346 16.0024C7.6715 17.5979 11.0388 17.4886 13.4086 16.0065C10.0376 13.3946 7.16876 9.98366 5.03393 7.20171C4.58428 6.74743 4.24718 6.17961 3.91008 5.66861C6.49446 8.05335 10.596 11.0625 12.0564 11.9146C8.9668 8.62107 6.21364 4.53316 6.32579 4.6465C11.2138 9.64318 15.7648 12.4823 15.7648 12.4823C15.9154 12.5681 16.0315 12.6396 16.125 12.7034C16.2235 12.4501 16.3099 12.1872 16.3826 11.9146C17.1692 9.01879 16.2705 5.72528 14.3039 3C18.8544 5.7822 21.5515 11.0058 20.4275 15.3781C20.3982 15.496 20.3664 15.6124 20.332 15.7268C22.579 18.5659 22.0006 21.6241 21.7197 21.0564C20.5007 18.6456 18.2441 19.3827 17.0969 19.8718Z" fill="url(#paint0_linear_119240_41496)"/>
<defs>
<linearGradient id="paint0_linear_119240_41496" x1="12" y1="5.5375" x2="12" y2="26.925" gradientUnits="userSpaceOnUse">
<stop stop-color="#00C2FF"/>
<stop offset="1" stop-color="#0085FF"/>
</linearGradient>
</defs>
</svg>
