<svg width="24" height="24" viewBox="0 0 24 24" fill="none" xmlns="http://www.w3.org/2000/svg">
<path fill-rule="evenodd" clip-rule="evenodd" d="M6.20979 3.56441L11.8461 3L17.4825 3.56441L21.8461 9.11286L11.8461 20.1428L1.84616 9.11286L6.20979 3.56441Z" fill="#FDB300"/>
<path d="M5.89661 9.11288L11.8461 20.1429L1.84616 9.11288H5.89661ZM17.7957 9.11288L11.8462 20.1429L21.8462 9.11288" fill="#EA6C00"/>
<path fill-rule="evenodd" clip-rule="evenodd" d="M5.89661 9.11288H17.7956L11.8461 20.1429" fill="#FDAD00"/>
<path d="M11.8461 3L6.20974 3.56432L5.89661 9.1128L11.8461 3ZM11.8462 3L17.4825 3.56432L17.7957 9.1128" fill="#FDD231"/>
<path d="M21.8462 9.11279L17.4826 3.5643L17.7957 9.11279H21.8462ZM1.84616 9.11279L6.20974 3.5643L5.89661 9.11279" fill="#FDAD00"/>
<path fill-rule="evenodd" clip-rule="evenodd" d="M11.8461 3L5.89661 9.1128H17.7956" fill="#FEEEB7"/>
</svg>
