<svg xmlns="http://www.w3.org/2000/svg" viewBox="0 0 800 500">
  <!-- Background -->
  <rect width="800" height="500" fill="#f8f9fa" rx="10" ry="10"/>
  
  <!-- Title -->
  <text x="400" y="40" font-family="SF Pro Text, -apple-system, system-ui, sans-serif" font-size="24" font-weight="bold" text-anchor="middle" fill="#333">Monetization Strategy Timeline</text>
  <text x="400" y="70" font-family="SF Pro Text, -apple-system, system-ui, sans-serif" font-size="16" text-anchor="middle" fill="#666">Path to Revenue: Immediate to 1-Month</text>
  
  <!-- Timeline -->
  <rect x="100" y="100" width="600" height="60" fill="#e6e6e6" rx="5" ry="5"/>
  
  <!-- Timeline segments -->
  <rect x="100" y="100" width="150" height="60" fill="#4CAF50" rx="5" ry="5" opacity="0.7"/>
  <text x="175" y="135" font-family="SF Pro Text, -apple-system, system-ui, sans-serif" font-size="14" font-weight="bold" text-anchor="middle" fill="white">NOW</text>
  
  <rect x="250" y="100" width="150" height="60" fill="#2196F3" rx="5" ry="5" opacity="0.7"/>
  <text x="325" y="135" font-family="SF Pro Text, -apple-system, system-ui, sans-serif" font-size="14" font-weight="bold" text-anchor="middle" fill="white">2 WEEKS</text>
  
  <rect x="400" y="100" width="150" height="60" fill="#9C27B0" rx="5" ry="5" opacity="0.7"/>
  <text x="475" y="135" font-family="SF Pro Text, -apple-system, system-ui, sans-serif" font-size="14" font-weight="bold" text-anchor="middle" fill="white">1 MONTH</text>
  
  <rect x="550" y="100" width="150" height="60" fill="#FF9800" rx="5" ry="5" opacity="0.7"/>
  <text x="625" y="135" font-family="SF Pro Text, -apple-system, system-ui, sans-serif" font-size="14" font-weight="bold" text-anchor="middle" fill="white">BEYOND</text>
  
  <!-- Framer Interactive Content -->
  <rect x="100" y="180" width="600" height="90" fill="#ffffff" rx="5" ry="5" stroke="#cccccc" stroke-width="1"/>
  <text x="120" y="205" font-family="SF Pro Text, -apple-system, system-ui, sans-serif" font-size="16" font-weight="bold" fill="#333">Framer Interactive Content</text>
  
  <!-- Framer Timeline -->
  <rect x="120" y="220" width="100" height="35" fill="#4CAF50" rx="3" ry="3" opacity="0.7"/>
  <text x="170" y="242" font-family="SF Pro Text, -apple-system, system-ui, sans-serif" font-size="11" text-anchor="middle" fill="#333">AI Branding Quiz</text>
  
  <rect x="230" y="220" width="100" height="35" fill="#2196F3" rx="3" ry="3" opacity="0.7"/>
  <text x="280" y="242" font-family="SF Pro Text, -apple-system, system-ui, sans-serif" font-size="11" text-anchor="middle" fill="#333">Personality Test</text>
  
  <rect x="340" y="220" width="100" height="35" fill="#9C27B0" rx="3" ry="3" opacity="0.7"/>
  <text x="390" y="242" font-family="SF Pro Text, -apple-system, system-ui, sans-serif" font-size="11" text-anchor="middle" fill="#333">Career Path Game</text>
  
  <rect x="450" y="220" width="230" height="35" fill="#FF9800" rx="3" ry="3" opacity="0.7"/>
  <text x="565" y="242" font-family="SF Pro Text, -apple-system, system-ui, sans-serif" font-size="11" text-anchor="middle" fill="#333">Subscription Access Model</text>
  
  <!-- Revenue model -->
  <text x="400" y="260" font-family="SF Pro Text, -apple-system, system-ui, sans-serif" font-size="12" text-anchor="middle" fill="#666">Revenue Model: Lead Generation → Premium Results → Subscription</text>
  
  <!-- Interactive Fiction -->
  <rect x="100" y="290" width="600" height="90" fill="#ffffff" rx="5" ry="5" stroke="#cccccc" stroke-width="1"/>
  <text x="120" y="315" font-family="SF Pro Text, -apple-system, system-ui, sans-serif" font-size="16" font-weight="bold" fill="#333">Interactive Fiction Experience</text>
  
  <!-- Fiction Timeline -->
  <rect x="120" y="330" width="100" height="35" fill="#4CAF50" rx="3" ry="3" opacity="0.7"/>
  <text x="170" y="352" font-family="SF Pro Text, -apple-system, system-ui, sans-serif" font-size="11" text-anchor="middle" fill="#333">Web Text Adventure</text>
  
  <rect x="230" y="330" width="100" height="35" fill="#2196F3" rx="3" ry="3" opacity="0.7"/>
  <text x="280" y="352" font-family="SF Pro Text, -apple-system, system-ui, sans-serif" font-size="11" text-anchor="middle" fill="#333">Ink-Powered Story</text>
  
  <rect x="340" y="330" width="100" height="35" fill="#9C27B0" rx="3" ry="3" opacity="0.7"/>
  <text x="390" y="352" font-family="SF Pro Text, -apple-system, system-ui, sans-serif" font-size="11" text-anchor="middle" fill="#333">iOS Mini-RPG</text>
  
  <rect x="450" y="330" width="230" height="35" fill="#FF9800" rx="3" ry="3" opacity="0.7"/>
  <text x="565" y="352" font-family="SF Pro Text, -apple-system, system-ui, sans-serif" font-size="11" text-anchor="middle" fill="#333">Full Episodic Game Series</text>
  
  <!-- Revenue model -->
  <text x="400" y="370" font-family="SF Pro Text, -apple-system, system-ui, sans-serif" font-size="12" text-anchor="middle" fill="#666">Revenue Model: Free Demo → Episode Purchase → Season Pass</text>
  
  <!-- Virtual Experiences -->
  <rect x="100" y="400" width="600" height="90" fill="#ffffff" rx="5" ry="5" stroke="#cccccc" stroke-width="1"/>
  <text x="120" y="425" font-family="SF Pro Text, -apple-system, system-ui, sans-serif" font-size="16" font-weight="bold" fill="#333">Virtual Escape Room</text>
  
  <!-- Virtual Timeline -->
  <rect x="120" y="440" width="100" height="35" fill="#4CAF50" rx="3" ry="3" opacity="0.7"/>
  <text x="170" y="462" font-family="SF Pro Text, -apple-system, system-ui, sans-serif" font-size="11" text-anchor="middle" fill="#333">Browser Puzzle</text>
  
  <rect x="230" y="440" width="100" height="35" fill="#2196F3" rx="3" ry="3" opacity="0.7"/>
  <text x="280" y="462" font-family="SF Pro Text, -apple-system, system-ui, sans-serif" font-size="11" text-anchor="middle" fill="#333">iOS Alpha Demo</text>
  
  <rect x="340" y="440" width="100" height="35" fill="#9C27B0" rx="3" ry="3" opacity="0.7"/>
  <text x="390" y="462" font-family="SF Pro Text, -apple-system, system-ui, sans-serif" font-size="11" text-anchor="middle" fill="#333">Full Escape Room</text>
  
  <rect x="450" y="440" width="230" height="35" fill="#FF9800" rx="3" ry="3" opacity="0.7"/>
  <text x="565" y="462" font-family="SF Pro Text, -apple-system, system-ui, sans-serif" font-size="11" text-anchor="middle" fill="#333">Premium Puzzle Series</text>
  
  <!-- Revenue model -->
  <text x="400" y="480" font-family="SF Pro Text, -apple-system, system-ui, sans-serif" font-size="12" text-anchor="middle" fill="#666">Revenue Model: Free Trial → Single Purchase → Bundle Pricing</text>
</svg>