<?xml version="1.0" encoding="UTF-8"?>
<svg xmlns="http://www.w3.org/2000/svg" viewBox="0 0 950 750">
  <defs>
    <style>
      .cls-1 {
        fill: #fff2e8;
        stroke: #fa8c16;
        opacity: .3;
        stroke-dasharray: 5 5;
      }
      .cls-2 {
        fill: #f6ffed;
        stroke: #52c41a;
        opacity: .3;
        stroke-dasharray: 5 5;
      }
      .cls-3 {
        fill: #e6f7ff;
        stroke: #1890ff;
        opacity: .3;
        stroke-dasharray: 5 5;
      }
      .cls-4 {
        font-family: Arial-BoldMT, Arial;
        font-weight: 700;
        font-size: 14px;
        fill: #1890ff;
      }
      .cls-5 {
        font-family: Arial-BoldMT, Arial;
        font-weight: 700;
        font-size: 9px;
      }
      .cls-6 {
        font-family: Arial-BoldMT, Arial;
        font-weight: 700;
        font-size: 14px;
        fill: #fa8c16;
      }
      .cls-7 {
        fill: #52c41a;
        opacity: .8;
      }
      .cls-8 {
        font-family: ArialMT, Arial;
        font-size: 12px;
      }
      .cls-9 {
        font-family: ArialMT, Arial;
        font-size: 9px;
      }
      .cls-10 {
        font-family: Arial-BoldMT, Arial;
        font-weight: 700;
        font-size: 14px;
        fill: #389e0d;
      }
      .cls-11 {
        font-family: Arial-BoldMT, Arial;
        font-weight: 700;
        font-size: 16px;
      }
      .cls-12 {
        font-family: Arial-ItalicMT, Arial;
        font-style: italic;
        font-size: 12px;
        fill: #722ed1;
      }
      .cls-13 {
        fill: #fa8c16;
        opacity: .8;
      }
      .cls-14 {
        font-family: Arial-BoldMT, Arial;
        font-weight: 700;
        font-size: 24px;
      }
      .cls-15 {
        font-family: Arial-BoldMT, Arial;
        font-weight: 700;
        font-size: 16px;
        fill: #722ed1;
      }
      .cls-16 {
        font-family: Arial-BoldMT, Arial;
        font-weight: 700;
        font-size: 14px;
      }
      .cls-17 {
        fill: #1890ff;
        opacity: .8;
      }
      .cls-19 {
        fill: #f8f9fa;
      }
      .cls-25 {
        stroke: #333;
        fill: none;
        stroke-width: 2px;
      }
      .cls-26 {
        stroke-dasharray: 10 4;
        fill: none;
        stroke-width: 2px;
        stroke: #722ed1;
      }
      .cls-27 {
        fill: #f9f0ff;
        stroke: #722ed1;
      }
    </style>
  </defs>
  <rect class="cls-19" width="950" height="750"/>
  <text class="cls-14" transform="translate(308 50)"><tspan x="0" y="0">Oksana Product Priorities Matrix</tspan></text>
  <line class="cls-25" x1="150" y1="620" x2="880" y2="620"/>
  <line class="cls-25" x1="150" y1="620" x2="150" y2="120"/>
  <text class="cls-11" transform="translate(421.35 660)"><tspan x="0" y="0">Implementation Timeline</tspan></text>
  <text class="cls-11" transform="translate(90 428.7) rotate(-90)"><tspan x="0" y="0">Business Value</tspan></text>
  <line class="cls-25" x1="150" y1="625" x2="150" y2="615"/>
  <text class="cls-8" transform="translate(138 645)"><tspan x="0" y="0">Now</tspan></text>
  <line class="cls-25" x1="333" y1="625" x2="333" y2="615"/>
  <text class="cls-8" transform="translate(311.32 645)"><tspan x="0" y="0">Month 2</tspan></text>
  <line class="cls-25" x1="516" y1="625" x2="516" y2="615"/>
  <text class="cls-8" transform="translate(494.32 645)"><tspan x="0" y="0">Month 4</tspan></text>
  <line class="cls-25" x1="699" y1="625" x2="699" y2="615"/>
  <text class="cls-8" transform="translate(677.32 645)"><tspan x="0" y="0">Month 6</tspan></text>
  <line class="cls-25" x1="880" y1="625" x2="880" y2="615"/>
  <text class="cls-8" transform="translate(854.98 645)"><tspan x="0" y="0">Month 12</tspan></text>
  <line class="cls-25" x1="145" y1="620" x2="155" y2="620"/>
  <text class="cls-8" transform="translate(107.99 625)"><tspan x="0" y="0">Low</tspan></text>
  <line class="cls-25" x1="145" y1="370" x2="155" y2="370"/>
  <text class="cls-8" transform="translate(87.32 375)"><tspan x="0" y="0">Medium</tspan></text>
  <line class="cls-25" x1="145" y1="120" x2="155" y2="120"/>
  <text class="cls-8" transform="translate(105.32 125)"><tspan x="0" y="0">High</tspan></text>
  <rect class="cls-2" x="150" y="120" width="730" height="166"/>
  <text class="cls-10" transform="translate(175 140)"><tspan x="0" y="0">MUST HAVE</tspan></text>
  <rect class="cls-3" x="150" y="286" width="730" height="166"/>
  <text class="cls-4" transform="translate(175 306)"><tspan x="0" y="0">SHOULD HAVE</tspan></text>
  <rect class="cls-1" x="150" y="452" width="730" height="168"/>
  <text class="cls-6" transform="translate(175 472)"><tspan x="0" y="0">NICE TO HAVE</tspan></text>
  <ellipse class="cls-26" cx="280" cy="220" rx="160" ry="100"/>
  <text class="cls-15" transform="translate(165 250)"><tspan x="0" y="0">Design System Foundation</tspan></text>
  <text class="cls-12" transform="translate(200.96 270)"><tspan x="0" y="0">Quantum-Spatial Aesthetic</tspan></text>
  
  <!-- Must Have Elements -->
  <circle class="cls-17" cx="180" cy="180" r="25"/>
  <text class="cls-5" transform="translate(164.24 173.34)"><tspan x="0" y="0">AI Branding</tspan></text>
  <text class="cls-9" transform="translate(165.74 183.36)"><tspan x="0" y="0">Quiz</tspan></text>
  
  <circle class="cls-17" cx="245" cy="160" r="30"/>
  <text class="cls-5" transform="translate(228.74 159.78)"><tspan x="0" y="0">Privacy</tspan></text>
  <text class="cls-9" transform="translate(218.73 169.22)"><tspan x="0" y="0">Framework</tspan></text>
  
  <circle class="cls-17" cx="315" cy="140" r="30"/>
  <text class="cls-5" transform="translate(295.49 139.79)"><tspan x="0" y="0">User</tspan></text>
  <text class="cls-9" transform="translate(289.99 149)"><tspan x="0" y="0">Accounts</tspan></text>
  
  <circle class="cls-17" cx="375" cy="170" r="25"/>
  <text class="cls-5" transform="translate(356.5 167)"><tspan x="0" y="0">Content</tspan></text>
  <text class="cls-9" transform="translate(357.73 177)"><tspan x="0" y="0">Calendar</tspan></text>
  
  <circle class="cls-17" cx="430" cy="145" r="30"/>
  <text class="cls-5" transform="translate(410.25 143)"><tspan x="0" y="0">Brand</tspan></text>
  <text class="cls-9" transform="translate(407.74 153)"><tspan x="0" y="0">Scanner</tspan></text>
  
  <circle class="cls-17" cx="490" cy="160" r="28"/>
  <text class="cls-5" transform="translate(468.24 158)"><tspan x="0" y="0">Supabase</tspan></text>
  <text class="cls-9" transform="translate(473.99 168)"><tspan x="0" y="0">Backend</tspan></text>
  
  <circle class="cls-17" cx="550" cy="140" r="30"/>
  <text class="cls-5" transform="translate(530.25 139)"><tspan x="0" y="0">Framer</tspan></text>
  <text class="cls-9" transform="translate(519.74 149)"><tspan x="0" y="0">Components</tspan></text>
  
  <circle class="cls-17" cx="610" cy="180" r="25"/>
  <text class="cls-5" transform="translate(593 178)"><tspan x="0" y="0">Asset</tspan></text>
  <text class="cls-9" transform="translate(586 188)"><tspan x="0" y="0">Manager</tspan></text>
  
  <!-- Should Have Elements -->
  <circle class="cls-7" cx="200" cy="320" r="25"/>
  <text class="cls-5" transform="translate(183 318)"><tspan x="0" y="0">CloudKit</tspan></text>
  <text class="cls-9" transform="translate(183 328)"><tspan x="0" y="0">Integration</tspan></text>
  
  <circle class="cls-7" cx="270" cy="290" r="25"/>
  <text class="cls-5" transform="translate(260 288)"><tspan x="0" y="0">ML</tspan></text>
  <text class="cls-9" transform="translate(254 298)"><tspan x="0" y="0">Pipeline</tspan></text>
  
  <circle class="cls-7" cx="340" cy="330" r="25"/>
  <text class="cls-5" transform="translate(320 328)"><tspan x="0" y="0">Cloudinary</tspan></text>
  <text class="cls-9" transform="translate(323 338)"><tspan x="0" y="0">Pipeline</tspan></text>
  
  <circle class="cls-7" cx="410" cy="350" r="25"/>
  <text class="cls-5" transform="translate(385 348)"><tspan x="0" y="0">Brand Director</tspan></text>
  <text class="cls-9" transform="translate(398 358)"><tspan x="0" y="0">Module</tspan></text>
  
  <circle class="cls-7" cx="480" cy="310" r="25"/>
  <text class="cls-5" transform="translate(460 308)"><tspan x="0" y="0">SwiftUI</tspan></text>
  <text class="cls-9" transform="translate(452 318)"><tspan x="0" y="0">Components</tspan></text>
  
  <circle class="cls-7" cx="550" cy="340" r="25"/>
  <text class="cls-5" transform="translate(525 338)"><tspan x="0" y="0">Collaborative</tspan></text>
  <text class="cls-9" transform="translate(535 348)"><tspan x="0" y="0">Features</tspan></text>
  
  <circle class="cls-7" cx="620" cy="320" r="25"/>
  <text class="cls-5" transform="translate(600 318)"><tspan x="0" y="0">Color &amp; Type</tspan></text>
  <text class="cls-9" transform="translate(608 328)"><tspan x="0" y="0">System</tspan></text>
  
  <circle class="cls-7" cx="690" cy="300" r="28"/>
  <text class="cls-5" transform="translate(670 298)"><tspan x="0" y="0">AI Asset</tspan></text>
  <text class="cls-9" transform="translate(673 308)"><tspan x="0" y="0">Auto-Tagging</tspan></text>
  
  <!-- Nice to Have Elements -->
  <circle class="cls-13" cx="220" cy="500" r="25"/>
  <text class="cls-5" transform="translate(202 498)"><tspan x="0" y="0">Content</tspan></text>
  <text class="cls-9" transform="translate(200 508)"><tspan x="0" y="0">Creation</tspan></text>
  
  <circle class="cls-13" cx="290" cy="520" r="25"/>
  <text class="cls-5" transform="translate(273 518)"><tspan x="0" y="0">Advanced</tspan></text>
  <text class="cls-9" transform="translate(275 528)"><tspan x="0" y="0">Analytics</tspan></text>
  
  <circle class="cls-13" cx="360" cy="490" r="25"/>
  <text class="cls-5" transform="translate(351 488)"><tspan x="0" y="0">AI</tspan></text>
  <text class="cls-9" transform="translate(329 498)"><tspan x="0" y="0">Writing Assistant</tspan></text>
  
  <circle class="cls-13" cx="430" cy="510" r="28"/>
  <text class="cls-5" transform="translate(412 507)"><tspan x="0" y="0">Vision Pro</tspan></text>
  <text class="cls-9" transform="translate(416 517)"><tspan x="0" y="0">UI Kit</tspan></text>
  
  <circle class="cls-13" cx="500" cy="480" r="25"/>
  <text class="cls-5" transform="translate(486 478)"><tspan x="0" y="0">3D</tspan></text>
  <text class="cls-9" transform="translate(475 488)"><tspan x="0" y="0">Brand Assets</tspan></text>
  
  <circle class="cls-13" cx="570" cy="505" r="30"/>
  <text class="cls-5" transform="translate(555 502)"><tspan x="0" y="0">Spatial</tspan></text>
  <text class="cls-9" transform="translate(555 512)"><tspan x="0" y="0">Interface</tspan></text>
  
  <circle class="cls-13" cx="640" cy="485" r="25"/>
  <text class="cls-5" transform="translate(625 483)"><tspan x="0" y="0">Multi-User</tspan></text>
  <text class="cls-9" transform="translate(622 493)"><tspan x="0" y="0">Collaboration</tspan></text>
  
  <circle class="cls-13" cx="710" cy="510" r="25"/>
  <text class="cls-5" transform="translate(685 508)"><tspan x="0" y="0">Enterprise</tspan></text>
  <text class="cls-9" transform="translate(697 518)"><tspan x="0" y="0">Tools</tspan></text>
  
  <circle class="cls-13" cx="770" cy="490" r="25"/>
  <text class="cls-5" transform="translate(749 488)"><tspan x="0" y="0">Immersive</tspan></text>
  <text class="cls-9" transform="translate(754 498)"><tspan x="0" y="0">Environments</tspan></text>
  
  <!-- Monetization Track Indicators -->
  <rect x="50" y="540" width="15" height="15" fill="#f9f0ff" stroke="#722ed1" stroke-width="1" />
  <text x="75" y="552" font-family="SF Pro Text, -apple-system, system-ui, sans-serif" font-size="12" text-anchor="start">Monetization Opportunity</text>
  
  <!-- Monetization Points -->
  <rect x="180" y="150" width="15" height="15" fill="#f9f0ff" stroke="#722ed1" stroke-width="1" />
  <text x="205" y="158" font-family="SF Pro Text, -apple-system, system-ui, sans-serif" font-size="9" text-anchor="start">AI Branding Quiz ($9.99-49.99/mo)</text>
  
  <rect x="375" y="150" width="15" height="15" fill="#f9f0ff" stroke="#722ed1" stroke-width="1" />
  <text x="400" y="158" font-family="SF Pro Text, -apple-system, system-ui, sans-serif" font-size="9" text-anchor="start">Content Calendar ($14.99-29.99/mo)</text>
  
  <rect x="430" y="125" width="15" height="15" fill="#f9f0ff" stroke="#722ed1" stroke-width="1" />
  <text x="455" y="133" font-family="SF Pro Text, -apple-system, system-ui, sans-serif" font-size="9" text-anchor="start">Brand Scanner ($29-99 per scan)</text>
  
  <rect x="610" y="160" width="15" height="15" fill="#f9f0ff" stroke="#722ed1" stroke-width="1" />
  <text x="635" y="168" font-family="SF Pro Text, -apple-system, system-ui, sans-serif" font-size="9" text-anchor="start">Asset Manager ($9.99-29.99/mo)</text>
  
  <rect x="410" y="330" width="15" height="15" fill="#f9f0ff" stroke="#722ed1" stroke-width="1" />
  <text x="435" y="338" font-family="SF Pro Text, -apple-system, system-ui, sans-serif" font-size="9" text-anchor="start">Brand Director Module (Premium Tier)</text>
  
  <!-- Vision Pro Integration -->
  <rect x="430" y="490" width="15" height="15" fill="#fff1f0" stroke="#f5222d" stroke-width="1" />
  <text x="455" y="498" font-family="SF Pro Text, -apple-system, system-ui, sans-serif" font-size="9" text-anchor="start">Vision Pro</text>
</svg>
