<svg xmlns="http://www.w3.org/2000/svg" viewBox="0 0 800 420">
  <!-- Background -->
  <rect width="800" height="420" fill="#f8f9fa" rx="10" ry="10"/>
  
  <!-- Title -->
  <text x="400" y="40" font-family="SF Pro Text, -apple-system, system-ui, sans-serif" font-size="22" font-weight="bold" text-anchor="middle" fill="#333">Resource Allocation for Quick Monetization</text>
  
  <!-- Resource allocation bars -->
  <text x="100" y="80" font-family="SF Pro Text, -apple-system, system-ui, sans-serif" font-size="16" font-weight="bold" fill="#333">Development Resources</text>
  
  <!-- Week 1 -->
  <text x="100" y="120" font-family="SF Pro Text, -apple-system, system-ui, sans-serif" font-size="14" fill="#333">Week 1</text>
  <rect x="180" y="105" width="500" height="25" fill="#e6e6e6" rx="5" ry="5"/>
  
  <rect x="180" y="105" width="250" height="25" fill="#4CAF50" rx="5" ry="5" opacity="0.7"/>
  <text x="305" y="122" font-family="SF Pro Text, -apple-system, system-ui, sans-serif" font-size="12" text-anchor="middle" fill="white">AI Branding Quiz (50%)</text>
  
  <rect x="430" y="105" width="150" height="25" fill="#2196F3" rx="5" ry="5" opacity="0.7"/>
  <text x="505" y="122" font-family="SF Pro Text, -apple-system, system-ui, sans-serif" font-size="12" text-anchor="middle" fill="white">Interactive Fiction (30%)</text>
  
  <rect x="580" y="105" width="100" height="25" fill="#9C27B0" rx="5" ry="5" opacity="0.7"/>
  <text x="630" y="122" font-family="SF Pro Text, -apple-system, system-ui, sans-serif" font-size="12" text-anchor="middle" fill="white">Escape Room (20%)</text>
  
  <!-- Week 2 -->
  <text x="100" y="160" font-family="SF Pro Text, -apple-system, system-ui, sans-serif" font-size="14" fill="#333">Week 2</text>
  <rect x="180" y="145" width="500" height="25" fill="#e6e6e6" rx="5" ry="5"/>
  
  <rect x="180" y="145" width="100" height="25" fill="#4CAF50" rx="5" ry="5" opacity="0.7"/>
  <text x="230" y="162" font-family="SF Pro Text, -apple-system, system-ui, sans-serif" font-size="12" text-anchor="middle" fill="white">AI Quiz (20%)</text>
  
  <rect x="280" y="145" width="250" height="25" fill="#2196F3" rx="5" ry="5" opacity="0.7"/>
  <text x="405" y="162" font-family="SF Pro Text, -apple-system, system-ui, sans-serif" font-size="12" text-anchor="middle" fill="white">Interactive Fiction (50%)</text>
  
  <rect x="530" y="145" width="150" height="25" fill="#9C27B0" rx="5" ry="5" opacity="0.7"/>
  <text x="605" y="162" font-family="SF Pro Text, -apple-system, system-ui, sans-serif" font-size="12" text-anchor="middle" fill="white">Escape Room (30%)</text>
  
  <!-- Week 3 -->
  <text x="100" y="200" font-family="SF Pro Text, -apple-system, system-ui, sans-serif" font-size="14" fill="#333">Week 3</text>
  <rect x="180" y="185" width="500" height="25" fill="#e6e6e6" rx="5" ry="5"/>
  
  <rect x="180" y="185" width="50" height="25" fill="#4CAF50" rx="5" ry="5" opacity="0.7"/>
  <text x="205" y="202" font-family="SF Pro Text, -apple-system, system-ui, sans-serif" font-size="12" text-anchor="middle" fill="white">10%</text>
  
  <rect x="230" y="185" width="100" height="25" fill="#2196F3" rx="5" ry="5" opacity="0.7"/>
  <text x="280" y="202" font-family="SF Pro Text, -apple-system, system-ui, sans-serif" font-size="12" text-anchor="middle" fill="white">20%</text>
  
  <rect x="330" y="185" width="350" height="25" fill="#9C27B0" rx="5" ry="5" opacity="0.7"/>
  <text x="505" y="202" font-family="SF Pro Text, -apple-system, system-ui, sans-serif" font-size="12" text-anchor="middle" fill="white">Escape Room (70%)</text>
  
  <!-- Week 4 -->
  <text x="100" y="240" font-family="SF Pro Text, -apple-system, system-ui, sans-serif" font-size="14" fill="#333">Week 4</text>
  <rect x="180" y="225" width="500" height="25" fill="#e6e6e6" rx="5" ry="5"/>
  
  <rect x="180" y="225" width="25" height="25" fill="#4CAF50" rx="5" ry="5" opacity="0.7"/>
  <text x="192" y="242" font-family="SF Pro Text, -apple-system, system-ui, sans-serif" font-size="12" text-anchor="middle" fill="white">5%</text>
  
  <rect x="205" y="225" width="50" height="25" fill="#2196F3" rx="5" ry="5" opacity="0.7"/>
  <text x="230" y="242" font-family="SF Pro Text, -apple-system, system-ui, sans-serif" font-size="12" text-anchor="middle" fill="white">10%</text>
  
  <rect x="255" y="225" width="425" height="25" fill="#9C27B0" rx="5" ry="5" opacity="0.7"/>
  <text x="467" y="242" font-family="SF Pro Text, -apple-system, system-ui, sans-serif" font-size="12" text-anchor="middle" fill="white">Escape Room (85%)</text>
  
  <!-- Legend -->
  <rect x="180" y="270" width="20" height="20" fill="#4CAF50" rx="3" ry="3" opacity="0.7"/>
  <text x="210" y="285" font-family="SF Pro Text, -apple-system, system-ui, sans-serif" font-size="14" fill="#333">AI Branding Quiz</text>
  
  <rect x="350" y="270" width="20" height="20" fill="#2196F3" rx="3" ry="3" opacity="0.7"/>
  <text x="380" y="285" font-family="SF Pro Text, -apple-system, system-ui, sans-serif" font-size="14" fill="#333">Interactive Fiction</text>
  
  <rect x="520" y="270" width="20" height="20" fill="#9C27B0" rx="3" ry="3" opacity="0.7"/>
  <text x="550" y="285" font-family="SF Pro Text, -apple-system, system-ui, sans-serif" font-size="14" fill="#333">Virtual Escape Room</text>
  
  <!-- Revenue projection -->
  <rect x="100" y="310" width="600" height="90" fill="#ffffff" rx="8" ry="8" stroke="#333" stroke-width="1"/>
  <text x="400" y="335" font-family="SF Pro Text, -apple-system, system-ui, sans-serif" font-size="16" font-weight="bold" text-anchor="middle" fill="#333">Projected First Revenue Timeline</text>
  
  <text x="130" y="365" font-family="SF Pro Text, -apple-system, system-ui, sans-serif" font-size="14" fill="#333">Week 1: AI Branding Quiz ($500-1,000 from premium reports)</text>
  <text x="130" y="390" font-family="SF Pro Text, -apple-system, system-ui, sans-serif" font-size="14" fill="#333">Week 3: Interactive Fiction ($800-1,500 from episode purchases)</text>
  <text x="130" y="415" font-family="SF Pro Text, -apple-system, system-ui, sans-serif" font-size="14" fill="#333">Week 5: Virtual Escape Room ($1,500-3,000 from app purchases)</text>
</svg>