<svg xmlns="http://www.w3.org/2000/svg" viewBox="0 0 1000 750">
  <!-- Background -->
  <rect width="1000" height="750" fill="#f8f9fa" />
  
  <!-- Title -->
  <text x="500" y="40" font-family="SF Pro Text, -apple-system, system-ui, sans-serif" font-size="24" font-weight="bold" text-anchor="middle">Jrotharke Technology Integration Architecture</text>
  
  <!-- M4 Environment Container -->
  <rect x="50" y="80" width="900" height="600" rx="10" fill="#f0f5ff" stroke="#2f54eb" stroke-width="2" stroke-dasharray="10,5" />
  <text x="500" y="105" font-family="SF Pro Text, -apple-system, system-ui, sans-serif" font-size="16" font-weight="bold" text-anchor="middle">M4 Development Environment</text>
  
  <!-- Fantasy Worldbuilding Container -->
  <rect x="100" y="130" width="800" height="200" rx="10" fill="#f6ffed" stroke="#52c41a" stroke-width="2" />
  <text x="500" y="155" font-family="SF Pro Text, -apple-system, system-ui, sans-serif" font-size="16" font-weight="bold" text-anchor="middle">Fantasy Worldbuilding Suite (Notion)</text>
  
  <!-- Worldbuilding Components -->
  <rect x="130" y="170" width="150" height="130" rx="5" fill="#d9f7be" stroke="#73d13d" stroke-width="1" />
  <text x="205" y="190" font-family="SF Pro Text, -apple-system, system-ui, sans-serif" font-size="14" font-weight="bold" text-anchor="middle">World Shaper</text>
  <text x="205" y="210" font-family="SF Pro Text, -apple-system, system-ui, sans-serif" font-size="12" text-anchor="middle">Geography and Climate</text>
  <text x="205" y="230" font-family="SF Pro Text, -apple-system, system-ui, sans-serif" font-size="12" text-anchor="middle">Region Definitions</text>
  <text x="205" y="250" font-family="SF Pro Text, -apple-system, system-ui, sans-serif" font-size="12" text-anchor="middle">Weather Patterns</text>
  <text x="205" y="270" font-family="SF Pro Text, -apple-system, system-ui, sans-serif" font-size="12" text-anchor="middle">Fantastic Elements</text>
  
  <rect x="320" y="170" width="150" height="130" rx="5" fill="#d9f7be" stroke="#73d13d" stroke-width="1" />
  <text x="395" y="190" font-family="SF Pro Text, -apple-system, system-ui, sans-serif" font-size="14" font-weight="bold" text-anchor="middle">Social Structure</text>
  <text x="395" y="210" font-family="SF Pro Text, -apple-system, system-ui, sans-serif" font-size="12" text-anchor="middle">Cultures and Factions</text>
  <text x="395" y="230" font-family="SF Pro Text, -apple-system, system-ui, sans-serif" font-size="12" text-anchor="middle">Social Hierarchies</text>
  <text x="395" y="250" font-family="SF Pro Text, -apple-system, system-ui, sans-serif" font-size="12" text-anchor="middle">Political Systems</text>
  <text x="395" y="270" font-family="SF Pro Text, -apple-system, system-ui, sans-serif" font-size="12" text-anchor="middle">Economic Structures</text>
  
  <rect x="510" y="170" width="150" height="130" rx="5" fill="#d9f7be" stroke="#73d13d" stroke-width="1" />
  <text x="585" y="190" font-family="SF Pro Text, -apple-system, system-ui, sans-serif" font-size="14" font-weight="bold" text-anchor="middle">Character Forge</text>
  <text x="585" y="210" font-family="SF Pro Text, -apple-system, system-ui, sans-serif" font-size="12" text-anchor="middle">Character Profiles</text>
  <text x="585" y="230" font-family="SF Pro Text, -apple-system, system-ui, sans-serif" font-size="12" text-anchor="middle">Relationship Webs</text>
  <text x="585" y="250" font-family="SF Pro Text, -apple-system, system-ui, sans-serif" font-size="12" text-anchor="middle">Motivation Systems</text>
  <text x="585" y="270" font-family="SF Pro Text, -apple-system, system-ui, sans-serif" font-size="12" text-anchor="middle">Character Arcs</text>
  
  <rect x="700" y="170" width="150" height="130" rx="5" fill="#d9f7be" stroke="#73d13d" stroke-width="1" />
  <text x="775" y="190" font-family="SF Pro Text, -apple-system, system-ui, sans-serif" font-size="14" font-weight="bold" text-anchor="middle">Lore Weaver</text>
  <text x="775" y="210" font-family="SF Pro Text, -apple-system, system-ui, sans-serif" font-size="12" text-anchor="middle">History and Events</text>
  <text x="775" y="230" font-family="SF Pro Text, -apple-system, system-ui, sans-serif" font-size="12" text-anchor="middle">Belief Systems</text>
  <text x="775" y="250" font-family="SF Pro Text, -apple-system, system-ui, sans-serif" font-size="12" text-anchor="middle">Myth and Magic</text>
  <text x="775" y="270" font-family="SF Pro Text, -apple-system, system-ui, sans-serif" font-size="12" text-anchor="middle">Cultural Symbols</text>
  
  <!-- Content Pipeline Container -->
  <rect x="100" y="350" width="800" height="120" rx="10" fill="#e6f7ff" stroke="#1890ff" stroke-width="2" />
  <text x="500" y="375" font-family="SF Pro Text, -apple-system, system-ui, sans-serif" font-size="16" font-weight="bold" text-anchor="middle">Content Pipeline</text>
  
  <!-- Content Pipeline Components -->
  <rect x="130" y="390" width="130" height="60" rx="5" fill="#bae7ff" stroke="#1890ff" stroke-width="1" />
  <text x="195" y="415" font-family="SF Pro Text, -apple-system, system-ui, sans-serif" font-size="12" font-weight="bold" text-anchor="middle">Ink Compiler</text>
  <text x="195" y="435" font-family="SF Pro Text, -apple-system, system-ui, sans-serif" font-size="10" text-anchor="middle">Narrative Scripting</text>
  
  <rect x="280" y="390" width="130" height="60" rx="5" fill="#bae7ff" stroke="#1890ff" stroke-width="1" />
  <text x="345" y="415" font-family="SF Pro Text, -apple-system, system-ui, sans-serif" font-size="12" font-weight="bold" text-anchor="middle">ML Asset Generator</text>
  <text x="345" y="435" font-family="SF Pro Text, -apple-system, system-ui, sans-serif" font-size="10" text-anchor="middle">Neural Engine Enhanced</text>
  
  <rect x="430" y="390" width="130" height="60" rx="5" fill="#bae7ff" stroke="#1890ff" stroke-width="1" />
  <text x="495" y="415" font-family="SF Pro Text, -apple-system, system-ui, sans-serif" font-size="12" font-weight="bold" text-anchor="middle">Firefly Asset Manager</text>
  <text x="495" y="435" font-family="SF Pro Text, -apple-system, system-ui, sans-serif" font-size="10" text-anchor="middle">Image Library Integration</text>
  
  <rect x="580" y="390" width="130" height="60" rx="5" fill="#bae7ff" stroke="#1890ff" stroke-width="1" />
  <text x="645" y="415" font-family="SF Pro Text, -apple-system, system-ui, sans-serif" font-size="12" font-weight="bold" text-anchor="middle">Audio Engine</text>
  <text x="645" y="435" font-family="SF Pro Text, -apple-system, system-ui, sans-serif" font-size="10" text-anchor="middle">Sound and Music Integration</text>
  
  <rect x="730" y="390" width="130" height="60" rx="5" fill="#bae7ff" stroke="#1890ff" stroke-width="1" />
  <text x="795" y="415" font-family="SF Pro Text, -apple-system, system-ui, sans-serif" font-size="12" font-weight="bold" text-anchor="middle">3D Asset Builder</text>
  <text x="795" y="435" font-family="SF Pro Text, -apple-system, system-ui, sans-serif" font-size="10" text-anchor="middle">Vision Pro Preparation</text>
  
  <!-- Application Container -->
  <rect x="100" y="490" width="800" height="160" rx="10" fill="#fff2e8" stroke="#fa541c" stroke-width="2" />
  <text x="500" y="515" font-family="SF Pro Text, -apple-system, system-ui, sans-serif" font-size="16" font-weight="bold" text-anchor="middle">Application Layer</text>
  
  <!-- iOS Game -->
  <rect x="130" y="530" width="250" height="100" rx="5" fill="#ffe7ba" stroke="#fa8c16" stroke-width="1" />
  <text x="255" y="550" font-family="SF Pro Text, -apple-system, system-ui, sans-serif" font-size="14" font-weight="bold" text-anchor="middle">Jrotharke iOS Game</text>
  <rect x="145" y="560" width="220" height="60" rx="3" fill="#fff7e6" stroke="#ffd591" stroke-width="1" />
  <text x="255" y="580" font-family="SF Pro Text, -apple-system, system-ui, sans-serif" font-size="12" text-anchor="middle">SwiftUI Interface</text>
  <text x="255" y="600" font-family="SF Pro Text, -apple-system, system-ui, sans-serif" font-size="12" text-anchor="middle">Ink Runtime Engine</text>
  <text x="255" y="620" font-family="SF Pro Text, -apple-system, system-ui, sans-serif" font-size="12" text-anchor="middle">State Management System</text>
  
  <!-- Framer Website -->
  <rect x="400" y="530" width="250" height="100" rx="5" fill="#ffe7ba" stroke="#fa8c16" stroke-width="1" />
  <text x="525" y="550" font-family="SF Pro Text, -apple-system, system-ui, sans-serif" font-size="14" font-weight="bold" text-anchor="middle">Framer Community Website</text>
  <rect x="415" y="560" width="220" height="60" rx="3" fill="#fff7e6" stroke="#ffd591" stroke-width="1" />
  <text x="525" y="580" font-family="SF Pro Text, -apple-system, system-ui, sans-serif" font-size="12" text-anchor="middle">Next.js and Framer</text>
  <text x="525" y="600" font-family="SF Pro Text, -apple-system, system-ui, sans-serif" font-size="12" text-anchor="middle">Community Features</text>
  <text x="525" y="620" font-family="SF Pro Text, -apple-system, system-ui, sans-serif" font-size="12" text-anchor="middle">Marketplace Integration</text>
  
  <!-- Vision Pro -->
  <rect x="670" y="530" width="200" height="100" rx="5" fill="#ffe7ba" stroke="#fa8c16" stroke-width="1" />
  <text x="770" y="550" font-family="SF Pro Text, -apple-system, system-ui, sans-serif" font-size="14" font-weight="bold" text-anchor="middle">Vision Pro Experience</text>
  <rect x="685" y="560" width="170" height="60" rx="3" fill="#fff7e6" stroke="#ffd591" stroke-width="1" />
  <text x="770" y="580" font-family="SF Pro Text, -apple-system, system-ui, sans-serif" font-size="12" text-anchor="middle">Spatial Interface</text>
  <text x="770" y="600" font-family="SF Pro Text, -apple-system, system-ui, sans-serif" font-size="12" text-anchor="middle">3D Environment</text>
  <text x="770" y="620" font-family="SF Pro Text, -apple-system, system-ui, sans-serif" font-size="12" text-anchor="middle">Gesture Controls</text>
  
  <!-- Supabase Container -->
  <rect x="290" y="670" width="420" height="60" rx="10" fill="#f0f5ff" stroke="#597ef7" stroke-width="2" />
  <text x="500" y="695" font-family="SF Pro Text, -apple-system, system-ui, sans-serif" font-size="16" font-weight="bold" text-anchor="middle">Supabase Backend</text>
  <text x="500" y="715" font-family="SF Pro Text, -apple-system, system-ui, sans-serif" font-size="12" text-anchor="middle">Auth | Database | Storage | Realtime | Functions</text>
  
  <!-- Connection Lines -->
  <!-- Worldbuilding to Content Pipeline -->
  <line x1="200" y1="300" x2="200" y2="390" stroke="#52c41a" stroke-width="1.5" />
  <polygon points="195,380 200,390 205,380" fill="#52c41a" />
  
  <line x1="395" y1="300" x2="395" y2="390" stroke="#52c41a" stroke-width="1.5" />
  <polygon points="390,380 395,390 400,380" fill="#52c41a" />
  
  <line x1="585" y1="300" x2="585" y2="390" stroke="#52c41a" stroke-width="1.5" />
  <polygon points="580,380 585,390 590,380" fill="#52c41a" />
  
  <line x1="775" y1="300" x2="775" y2="390" stroke="#52c41a" stroke-width="1.5" />
  <polygon points="770,380 775,390 780,380" fill="#52c41a" />
  
  <!-- Content Pipeline to Applications -->
  <line x1="200" y1="450" x2="200" y2="530" stroke="#1890ff" stroke-width="1.5" />
  <polygon points="195,520 200,530 205,520" fill="#1890ff" />
  
  <line x1="345" y1="450" x2="255" y2="530" stroke="#1890ff" stroke-width="1.5" />
  <polygon points="252,520 255,530 262,525" fill="#1890ff" />
  
  <line x1="495" y1="450" x2="525" y2="530" stroke="#1890ff" stroke-width="1.5" />
  <polygon points="520,520 525,530 530,520" fill="#1890ff" />
  
  <line x1="645" y1="450" x2="300" y2="530" stroke="#1890ff" stroke-width="1.5" />
  <polygon points="295,525 300,530 305,525" fill="#1890ff" />
  
  <line x1="795" y1="450" x2="770" y2="530" stroke="#1890ff" stroke-width="1.5" />
  <polygon points="765,520 770,530 775,520" fill="#1890ff" />
  
  <!-- Applications to Supabase -->
  <line x1="255" y1="630" x2="365" y2="670" stroke="#fa8c16" stroke-width="1.5" />
  <polygon points="360,665 365,670 363,660" fill="#fa8c16" />
  
  <line x1="525" y1="630" x2="500" y2="670" stroke="#fa8c16" stroke-width="1.5" />
  <polygon points="495,660 500,670 505,660" fill="#fa8c16" />
  
  <line x1="770" y1="630" x2="635" y2="670" stroke="#fa8c16" stroke-width="1.5" />
  <polygon points="630,665 635,670 637,660" fill="#fa8c16" />
  
  <!-- Direct Connection Lines -->
  <path d="M275,235 C350,235 350,580 275,580" fill="none" stroke="#52c41a" stroke-width="1.5" stroke-dasharray="5,3" />
  <polygon points="280,575 275,580 280,585" fill="#52c41a" />
  
  <path d="M470,235 C550,235 550,580 500,580" fill="none" stroke="#52c41a" stroke-width="1.5" stroke-dasharray="5,3" />
  <polygon points="505,575 500,580 505,585" fill="#52c41a" />
  
  <!-- Neural Engine Indicators -->
  <rect x="50" y="700" width="15" height="15" fill="#ffccc7" stroke="#f5222d" stroke-width="1" />
  <text x="75" y="713" font-family="SF Pro Text, -apple-system, system-ui, sans-serif" font-size="12" text-anchor="start">Neural Engine Accelerated</text>
  
  <rect x="345" y="390" width="15" height="15" fill="#ffccc7" stroke="#f5222d" stroke-width="1" />
  <rect x="795" y="390" width="15" height="15" fill="#ffccc7" stroke="#f5222d" stroke-width="1" />
  <rect x="255" y="560" width="15" height="15" fill="#ffccc7" stroke="#f5222d" stroke-width="1" />
  <rect x="770" y="580" width="15" height="15" fill="#ffccc7" stroke="#f5222d" stroke-width="1" />
  
  <!-- Legend -->
  <rect x="800" y="680" width="150" height="50" rx="5" fill="white" stroke="#d9d9d9" stroke-width="1" />
  <text x="875" y="700" font-family="SF Pro Text, -apple-system, system-ui, sans-serif" font-size="12" font-weight="bold" text-anchor="middle">Core Technology</text>
  <text x="875" y="720" font-family="SF Pro Text, -apple-system, system-ui, sans-serif" font-size="10" text-anchor="middle">M4 + SwiftUI + Supabase</text>
</svg>
