<svg xmlns="http://www.w3.org/2000/svg" viewBox="0 0 1000 600">
  <!-- Background -->
  <rect width="1000" height="600" fill="#f8f9fa" />
  
  <!-- Title -->
  <text x="500" y="40" font-family="SF Pro Text, -apple-system, system-ui, sans-serif" font-size="24" font-weight="bold" text-anchor="middle">Strategic Product Roadmap - Pennylane Media (M4-Optimized)</text>
  
  <!-- Timeline Base -->
  <line x1="100" y1="150" x2="900" y2="150" stroke="#ccc" stroke-width="2" />
  <line x1="100" y1="250" x2="900" y2="250" stroke="#ccc" stroke-width="2" />
  <line x1="100" y1="350" x2="900" y2="350" stroke="#ccc" stroke-width="2" />
  <line x1="100" y1="450" x2="900" y2="450" stroke="#ccc" stroke-width="2" />
  
  <!-- Timeline Labels -->
  <text x="60" y="155" font-family="SF Pro Text, -apple-system, system-ui, sans-serif" font-size="16" font-weight="bold" text-anchor="end">Framer SaaS</text>
  <text x="60" y="255" font-family="SF Pro Text, -apple-system, system-ui, sans-serif" font-size="16" font-weight="bold" text-anchor="end">Worldbuilding</text>
  <text x="60" y="355" font-family="SF Pro Text, -apple-system, system-ui, sans-serif" font-size="16" font-weight="bold" text-anchor="end">iOS Apps</text>
  <text x="60" y="455" font-family="SF Pro Text, -apple-system, system-ui, sans-serif" font-size="16" font-weight="bold" text-anchor="end">Vision Pro</text>
  
  <!-- Time Period Labels -->
  <text x="100" y="90" font-family="SF Pro Text, -apple-system, system-ui, sans-serif" font-size="14" text-anchor="middle">Now</text>
  <text x="300" y="90" font-family="SF Pro Text, -apple-system, system-ui, sans-serif" font-size="14" text-anchor="middle">3 Months</text>
  <text x="500" y="90" font-family="SF Pro Text, -apple-system, system-ui, sans-serif" font-size="14" text-anchor="middle">6 Months</text>
  <text x="700" y="90" font-family="SF Pro Text, -apple-system, system-ui, sans-serif" font-size="14" text-anchor="middle">9 Months</text>
  <text x="900" y="90" font-family="SF Pro Text, -apple-system, system-ui, sans-serif" font-size="14" text-anchor="middle">12 Months</text>
  
  <!-- Time Period Lines -->
  <line x1="100" y1="100" x2="100" y2="500" stroke="#999" stroke-width="1" stroke-dasharray="5,5" />
  <line x1="300" y1="100" x2="300" y2="500" stroke="#999" stroke-width="1" stroke-dasharray="5,5" />
  <line x1="500" y1="100" x2="500" y2="500" stroke="#999" stroke-width="1" stroke-dasharray="5,5" />
  <line x1="700" y1="100" x2="700" y2="500" stroke="#999" stroke-width="1" stroke-dasharray="5,5" />
  <line x1="900" y1="100" x2="900" y2="500" stroke="#999" stroke-width="1" stroke-dasharray="5,5" />
  
  <!-- Phase Labels -->
  <rect x="100" y="510" width="200" height="30" rx="5" fill="#6a4c93" />
  <text x="200" y="530" font-family="SF Pro Text, -apple-system, system-ui, sans-serif" font-size="14" fill="white" text-anchor="middle">Phase 1: M4 Foundation</text>
  
  <rect x="300" y="510" width="200" height="30" rx="5" fill="#1982c4" />
  <text x="400" y="530" font-family="SF Pro Text, -apple-system, system-ui, sans-serif" font-size="14" fill="white" text-anchor="middle">Phase 2: Product Launch</text>
  
  <rect x="500" y="510" width="400" height="30" rx="5" fill="#8ac926" />
  <text x="700" y="530" font-family="SF Pro Text, -apple-system, system-ui, sans-serif" font-size="14" fill="white" text-anchor="middle">Phase 3: Vision Pro Development</text>
  
  <!-- Framer SaaS Timeline -->
  <rect x="100" y="130" width="160" height="40" rx="5" fill="#ff595e" opacity="0.8" />
  <text x="180" y="155" font-family="SF Pro Text, -apple-system, system-ui, sans-serif" font-size="14" fill="white" text-anchor="middle">AI Branding Tools</text>
  
  <rect x="260" y="130" width="160" height="40" rx="5" fill="#ff595e" opacity="0.8" />
  <text x="340" y="155" font-family="SF Pro Text, -apple-system, system-ui, sans-serif" font-size="14" fill="white" text-anchor="middle">Content Generation Suite</text>
  
  <rect x="420" y="130" width="200" height="40" rx="5" fill="#ff595e" opacity="0.8" />
  <text x="520" y="155" font-family="SF Pro Text, -apple-system, system-ui, sans-serif" font-size="14" fill="white" text-anchor="middle">Worldbuilding Marketplace</text>
  
  <rect x="620" y="130" width="240" height="40" rx="5" fill="#ff595e" opacity="0.8" />
  <text x="740" y="155" font-family="SF Pro Text, -apple-system, system-ui, sans-serif" font-size="14" fill="white" text-anchor="middle">Community Hub and Membership</text>
  
  <!-- Worldbuilding Timeline -->
  <rect x="100" y="230" width="120" height="40" rx="5" fill="#00b4d8" opacity="0.8" />
  <text x="160" y="255" font-family="SF Pro Text, -apple-system, system-ui, sans-serif" font-size="14" fill="white" text-anchor="middle">Suite Setup</text>
  
  <rect x="220" y="230" width="120" height="40" rx="5" fill="#00b4d8" opacity="0.8" />
  <text x="280" y="255" font-family="SF Pro Text, -apple-system, system-ui, sans-serif" font-size="14" fill="white" text-anchor="middle">Ink Integration</text>
  
  <rect x="340" y="230" width="120" height="40" rx="5" fill="#00b4d8" opacity="0.8" />
  <text x="400" y="255" font-family="SF Pro Text, -apple-system, system-ui, sans-serif" font-size="14" fill="white" text-anchor="middle">ML Enhancement</text>
  
  <rect x="460" y="230" width="180" height="40" rx="5" fill="#00b4d8" opacity="0.8" />
  <text x="550" y="255" font-family="SF Pro Text, -apple-system, system-ui, sans-serif" font-size="14" fill="white" text-anchor="middle">Asset Generation Pipeline</text>
  
  <rect x="640" y="230" width="220" height="40" rx="5" fill="#00b4d8" opacity="0.8" />
  <text x="750" y="255" font-family="SF Pro Text, -apple-system, system-ui, sans-serif" font-size="14" fill="white" text-anchor="middle">Community Worldbuilding Tools</text>
  
  <!-- iOS Apps Timeline -->
  <rect x="160" y="330" width="140" height="40" rx="5" fill="#ffca3a" opacity="0.8" />
  <text x="230" y="355" font-family="SF Pro Text, -apple-system, system-ui, sans-serif" font-size="14" fill="white" text-anchor="middle">Narrative Engine</text>
  
  <rect x="300" y="330" width="160" height="40" rx="5" fill="#ffca3a" opacity="0.8" />
  <text x="380" y="355" font-family="SF Pro Text, -apple-system, system-ui, sans-serif" font-size="14" fill="white" text-anchor="middle">Jrotharke MVP Launch</text>
  
  <rect x="460" y="330" width="140" height="40" rx="5" fill="#ffca3a" opacity="0.8" />
  <text x="530" y="355" font-family="SF Pro Text, -apple-system, system-ui, sans-serif" font-size="14" fill="white" text-anchor="middle">Content Episodes</text>
  
  <rect x="600" y="330" width="200" height="40" rx="5" fill="#ffca3a" opacity="0.8" />
  <text x="700" y="355" font-family="SF Pro Text, -apple-system, system-ui, sans-serif" font-size="14" fill="white" text-anchor="middle">Oksana Mobile Experience</text>
  
  <!-- Vision Pro Timeline -->
  <rect x="360" y="430" width="140" height="40" rx="5" fill="#1982c4" opacity="0.8" />
  <text x="430" y="455" font-family="SF Pro Text, -apple-system, system-ui, sans-serif" font-size="14" fill="white" text-anchor="middle">Design Prototypes</text>
  
  <rect x="500" y="430" width="160" height="40" rx="5" fill="#1982c4" opacity="0.8" />
  <text x="580" y="455" font-family="SF Pro Text, -apple-system, system-ui, sans-serif" font-size="14" fill="white" text-anchor="middle">Spatial Interface</text>
  
  <rect x="660" y="430" width="140" height="40" rx="5" fill="#1982c4" opacity="0.8" />
  <text x="730" y="455" font-family="SF Pro Text, -apple-system, system-ui, sans-serif" font-size="14" fill="white" text-anchor="middle">3D Asset Pipeline</text>
  
  <rect x="800" y="430" width="100" height="40" rx="5" fill="#1982c4" opacity="0.8" />
  <text x="850" y="455" font-family="SF Pro Text, -apple-system, system-ui, sans-serif" font-size="14" fill="white" text-anchor="middle">Early Access</text>
  
  <!-- M4 Enhancement Labels -->
  <rect x="100" y="565" width="15" height="15" fill="#f6ffed" stroke="#389e0d" stroke-width="1" />
  <text x="125" y="578" font-family="SF Pro Text, -apple-system, system-ui, sans-serif" font-size="12" text-anchor="start">M4 Neural Engine Enhancement</text>
  
  <rect x="300" y="565" width="15" height="15" fill="#f9f0ff" stroke="#722ed1" stroke-width="1" />
  <text x="325" y="578" font-family="SF Pro Text, -apple-system, system-ui, sans-serif" font-size="12" text-anchor="start">Monetization Opportunity</text>
  
  <rect x="500" y="565" width="15" height="15" fill="#e6f7ff" stroke="#1890ff" stroke-width="1" />
  <text x="525" y="578" font-family="SF Pro Text, -apple-system, system-ui, sans-serif" font-size="12" text-anchor="start">Supabase Integration Point</text>
  
  <!-- M4 Enhancement Points -->
  <rect x="100" y="130" width="15" height="15" fill="#f6ffed" stroke="#389e0d" stroke-width="1" />
  <rect x="260" y="230" width="15" height="15" fill="#f6ffed" stroke="#389e0d" stroke-width="1" />
  <rect x="340" y="230" width="15" height="15" fill="#f6ffed" stroke="#389e0d" stroke-width="1" />
  <rect x="460" y="230" width="15" height="15" fill="#f6ffed" stroke="#389e0d" stroke-width="1" />
  <rect x="160" y="330" width="15" height="15" fill="#f6ffed" stroke="#389e0d" stroke-width="1" />
  <rect x="460" y="330" width="15" height="15" fill="#f6ffed" stroke="#389e0d" stroke-width="1" />
  <rect x="660" y="430" width="15" height="15" fill="#f6ffed" stroke="#389e0d" stroke-width="1" />
  
  <!-- Monetization Points -->
  <rect x="260" y="130" width="15" height="15" fill="#f9f0ff" stroke="#722ed1" stroke-width="1" />
  <rect x="420" y="130" width="15" height="15" fill="#f9f0ff" stroke="#722ed1" stroke-width="1" />
  <rect x="620" y="130" width="15" height="15" fill="#f9f0ff" stroke="#722ed1" stroke-width="1" />
  <rect x="640" y="230" width="15" height="15" fill="#f9f0ff" stroke="#722ed1" stroke-width="1" />
  <rect x="300" y="330" width="15" height="15" fill="#f9f0ff" stroke="#722ed1" stroke-width="1" />
  <rect x="600" y="330" width="15" height="15" fill="#f9f0ff" stroke="#722ed1" stroke-width="1" />
  <rect x="800" y="430" width="15" height="15" fill="#f9f0ff" stroke="#722ed1" stroke-width="1" />
  
  <!-- Supabase Integration Points -->
  <rect x="220" y="230" width="15" height="15" fill="#e6f7ff" stroke="#1890ff" stroke-width="1" />
  <rect x="160" y="330" width="15" height="15" fill="#e6f7ff" stroke="#1890ff" stroke-width="1" />
  <rect x="300" y="330" width="15" height="15" fill="#e6f7ff" stroke="#1890ff" stroke-width="1" />
  <rect x="620" y="130" width="15" height="15" fill="#e6f7ff" stroke="#1890ff" stroke-width="1" />
  
  <!-- Connection Lines -->
  <!-- Worldbuilding to iOS -->
  <path d="M280,270 L230,330" fill="none" stroke="#333" stroke-width="1.5" stroke-dasharray="5,3" />
  <polygon points="228,326 224,336 234,332" fill="#333" />
  
  <!-- Worldbuilding to Framer -->
  <path d="M340,230 L320,170" fill="none" stroke="#333" stroke-width="1.5" stroke-dasharray="5,3" />
  <polygon points="318,174 314,164 324,168" fill="#333" />
  
  <!-- Asset Pipeline to Content Episodes -->
  <path d="M550,270 L530,330" fill="none" stroke="#333" stroke-width="1.5" stroke-dasharray="5,3" />
  <polygon points="528,326 524,336 534,332" fill="#333" />
  
  <!-- iOS to Vision Pro -->
  <path d="M380,370 L430,430" fill="none" stroke="#333" stroke-width="1.5" stroke-dasharray="5,3" />
  <polygon points="428,426 436,434 432,424" fill="#333" />
  
  <!-- Community Hub to Vision Pro -->
  <path d="M740,170 L580,430" fill="none" stroke="#333" stroke-width="1.5" stroke-dasharray="5,3" />
  <polygon points="578,426 574,436 584,432" fill="#333" />
  
  <!-- Fantasy Worldbuilding Suite Central Asset -->
  <ellipse cx="400" cy="250" rx="350" ry="70" fill="none" stroke="#52c41a" stroke-width="1.5" stroke-dasharray="7,3" />
  <text x="400" y="240" font-family="SF Pro Text, -apple-system, system-ui, sans-serif" font-size="12" font-style="italic" text-anchor="middle">Fantasy Worldbuilding Suite</text>
  <text x="400" y="260" font-family="SF Pro Text, -apple-system, system-ui, sans-serif" font-size="12" font-style="italic" text-anchor="middle">Central Asset and Content Hub</text>
  
  <!-- Core Technology Stack -->
  <rect x="840" y="560" width="120" height="30" rx="5" fill="#f0f2f5" stroke="#8c8c8c" stroke-width="1" />
  <text x="900" y="580" font-family="SF Pro Text, -apple-system, system-ui, sans-serif" font-size="10" text-anchor="middle">M4 + SwiftUI + Supabase</text>
</svg>
