<svg width="24" height="24" viewBox="0 0 24 24" fill="none" xmlns="http://www.w3.org/2000/svg">
<g clip-path="url(#clip0_123588_166)">
<path d="M12.5764 2.77379L21.0634 10.6344V21.854C21.0634 23.1918 20.3382 23.9848 19.1189 23.9848H4.67892C3.45962 23.9848 2.73142 23.1918 2.73142 21.854V10.6087L11.1951 2.77379C11.6646 2.35326 12.1039 2.34136 12.5764 2.77379ZM13.1093 7.88588L7.94503 15.0421C7.86337 15.1645 7.82495 15.2645 7.82495 15.3493C7.82495 15.5169 7.9463 15.627 8.11387 15.627H11.3156L9.57332 20.7848C9.40874 21.2391 9.84841 21.4935 10.1175 21.1153L15.2819 13.9677C15.3635 13.8486 15.4019 13.7452 15.4019 13.6605C15.4019 13.4962 15.2883 13.3828 15.1207 13.3828H11.919L13.6535 8.22501C13.8181 7.77067 13.3862 7.51963 13.1093 7.88588ZM12.8822 0.442923L19.3388 6.41679V3.59954C19.3388 3.28139 19.5353 3.08517 19.8052 3.08517H20.6419C20.9149 3.08517 21.1084 3.28139 21.1084 3.59954V8.05401L23.6048 10.3638C23.7443 10.4924 23.7948 10.6153 23.7948 10.7605C23.7948 10.9916 23.6359 11.1816 23.3871 11.1816C23.2402 11.1816 23.1551 11.123 23.0558 11.0321L12.3764 1.14735C12.2265 1.0059 12.0659 0.929225 11.8974 0.929225C11.732 0.929225 11.5683 1.0059 11.4184 1.14735L0.74206 11.0321C0.63969 11.123 0.554596 11.1816 0.415517 11.1816C0.15895 11.1816 0 10.9916 0 10.7605C0 10.6153 0.053559 10.4924 0.190046 10.3638L10.9204 0.442923C11.2297 0.147641 11.5636 0 11.8974 0C12.2313 0 12.5651 0.147641 12.8822 0.442923Z" fill="white" fill-opacity="0.85"/>
</g>
<defs>
<clipPath id="clip0_123588_166">
<rect width="24" height="24" fill="white"/>
</clipPath>
</defs>
</svg>
