<svg xmlns="http://www.w3.org/2000/svg" viewBox="0 0 1000 700">
  <!-- Background -->
  <rect width="1000" height="700" fill="#0A0621" />
  
  <!-- Dimensional grid with perspective effect -->
  <g opacity="0.12">
    <!-- Horizontal grid lines with perspective effect -->
    <path d="M150,650 L850,650" stroke="#5AC8FA" stroke-width="1" />
    <path d="M100,600 L900,600" stroke="#5AC8FA" stroke-width="1" />
    <path d="M75,550 L925,550" stroke="#5AC8FA" stroke-width="1" />
    <path d="M50,500 L950,500" stroke="#5AC8FA" stroke-width="1" />
    <path d="M40,450 L960,450" stroke="#5AC8FA" stroke-width="1" />
    <path d="M30,400 L970,400" stroke="#5AC8FA" stroke-width="1" />
    <path d="M25,350 L975,350" stroke="#5AC8FA" stroke-width="1" />
    <path d="M20,300 L980,300" stroke="#5AC8FA" stroke-width="1" />
    <path d="M15,250 L985,250" stroke="#5AC8FA" stroke-width="1" />
    <path d="M10,200 L990,200" stroke="#5AC8FA" stroke-width="1" />
    <path d="M8,150 L992,150" stroke="#5AC8FA" stroke-width="1" />
    <path d="M5,100 L995,100" stroke="#5AC8FA" stroke-width="1" />
    
    <!-- Vertical grid lines -->
    <path d="M150,100 L150,650" stroke="#5AC8FA" stroke-width="1" />
    <path d="M225,100 L225,650" stroke="#5AC8FA" stroke-width="1" />
    <path d="M300,100 L300,650" stroke="#5AC8FA" stroke-width="1" />
    <path d="M375,100 L375,650" stroke="#5AC8FA" stroke-width="1" />
    <path d="M450,100 L450,650" stroke="#5AC8FA" stroke-width="1" />
    <path d="M525,100 L525,650" stroke="#5AC8FA" stroke-width="1" />
    <path d="M600,100 L600,650" stroke="#5AC8FA" stroke-width="1" />
    <path d="M675,100 L675,650" stroke="#5AC8FA" stroke-width="1" />
    <path d="M750,100 L750,650" stroke="#5AC8FA" stroke-width="1" />
    <path d="M825,100 L825,650" stroke="#5AC8FA" stroke-width="1" />
    <path d="M900,100 L900,650" stroke="#5AC8FA" stroke-width="1" />
  </g>
  
  <!-- Title -->
  <text x="500" y="60" font-family="'SF Pro Display', -apple-system, BlinkMacSystemFont, sans-serif" font-size="32" font-weight="bold" fill="#FFFFFF" text-anchor="middle">9Bit Studios</text>
  <text x="500" y="100" font-family="'SF Pro Display', -apple-system, BlinkMacSystemFont, sans-serif" font-size="20" fill="#5AC8FA" text-anchor="middle">Quantum-Spatial Volumetric 4D Voxel Logo Design</text>
  
  <!-- Core Logo - Heritage State (Top Left) -->
  <g transform="translate(250, 250)">
    <!-- Heritage State Label -->
    <text x="0" y="-120" font-family="'SF Pro Display', -apple-system, BlinkMacSystemFont, sans-serif" font-size="18" font-weight="bold" fill="#FFFFFF" text-anchor="middle">Heritage State</text>
    <text x="0" y="-95" font-family="'SF Pro Display', -apple-system, BlinkMacSystemFont, sans-serif" font-size="14" fill="#5AC8FA" text-anchor="middle">8-Bit Foundation</text>
    
    <!-- Logo Base Container -->
    <rect x="-80" y="-80" width="160" height="160" rx="5" fill="#131A36" opacity="0.8" stroke="#5AC8FA" stroke-width="1" />
    
    <!-- 8-Bit Foundation Grid -->
    <g opacity="0.3">
      <line x1="-60" y1="-60" x2="-60" y2="60" stroke="#5AC8FA" stroke-width="1" />
      <line x1="-40" y1="-60" x2="-40" y2="60" stroke="#5AC8FA" stroke-width="1" />
      <line x1="-20" y1="-60" x2="-20" y2="60" stroke="#5AC8FA" stroke-width="1" />
      <line x1="0" y1="-60" x2="0" y2="60" stroke="#5AC8FA" stroke-width="1" />
      <line x1="20" y1="-60" x2="20" y2="60" stroke="#5AC8FA" stroke-width="1" />
      <line x1="40" y1="-60" x2="40" y2="60" stroke="#5AC8FA" stroke-width="1" />
      <line x1="60" y1="-60" x2="60" y2="60" stroke="#5AC8FA" stroke-width="1" />
      
      <line x1="-60" y1="-60" x2="60" y2="-60" stroke="#5AC8FA" stroke-width="1" />
      <line x1="-60" y1="-40" x2="60" y2="-40" stroke="#5AC8FA" stroke-width="1" />
      <line x1="-60" y1="-20" x2="60" y2="-20" stroke="#5AC8FA" stroke-width="1" />
      <line x1="-60" y1="0" x2="60" y2="0" stroke="#5AC8FA" stroke-width="1" />
      <line x1="-60" y1="20" x2="60" y2="20" stroke="#5AC8FA" stroke-width="1" />
      <line x1="-60" y1="40" x2="60" y2="40" stroke="#5AC8FA" stroke-width="1" />
      <line x1="-60" y1="60" x2="60" y2="60" stroke="#5AC8FA" stroke-width="1" />
    </g>
    
    <!-- 8-Bit Pixel Number 9 -->
    <g>
      <!-- Outer shape of 9 -->
      <rect x="-40" y="-40" width="20" height="20" fill="#5AC8FA" opacity="0.9" />
      <rect x="-20" y="-40" width="20" height="20" fill="#5AC8FA" opacity="0.9" />
      <rect x="0" y="-40" width="20" height="20" fill="#5AC8FA" opacity="0.9" />
      <rect x="20" y="-40" width="20" height="20" fill="#5AC8FA" opacity="0.9" />
      
      <rect x="-40" y="-20" width="20" height="20" fill="#5AC8FA" opacity="0.9" />
      <rect x="20" y="-20" width="20" height="20" fill="#5AC8FA" opacity="0.9" />
      
      <rect x="-40" y="0" width="20" height="20" fill="#5AC8FA" opacity="0.9" />
      <rect x="-20" y="0" width="20" height="20" fill="#5AC8FA" opacity="0.9" />
      <rect x="0" y="0" width="20" height="20" fill="#5AC8FA" opacity="0.9" />
      <rect x="20" y="0" width="20" height="20" fill="#5AC8FA" opacity="0.9" />
      
      <rect x="20" y="20" width="20" height="20" fill="#5AC8FA" opacity="0.9" />
      
      <rect x="-40" y="40" width="20" height="20" fill="#5AC8FA" opacity="0.9" />
      <rect x="-20" y="40" width="20" height="20" fill="#5AC8FA" opacity="0.9" />
      <rect x="0" y="40" width="20" height="20" fill="#5AC8FA" opacity="0.9" />
      <rect x="20" y="40" width="20" height="20" fill="#5AC8FA" opacity="0.9" />
    </g>
  </g>
  
  <!-- Transitional State (Top Right) -->
  <g transform="translate(750, 250)">
    <!-- Transitional State Label -->
    <text x="0" y="-120" font-family="'SF Pro Display', -apple-system, BlinkMacSystemFont, sans-serif" font-size="18" font-weight="bold" fill="#FFFFFF" text-anchor="middle">Transitional State</text>
    <text x="0" y="-95" font-family="'SF Pro Display', -apple-system, BlinkMacSystemFont, sans-serif" font-size="14" fill="#BF4080" text-anchor="middle">Dimensional Emergence</text>
    
    <!-- Logo Base Container with perspective -->
    <path d="M-90,-90 L90,-90 L100,-80 L100,80 L90,90 L-90,90 L-100,80 L-100,-80 Z" fill="#131A36" opacity="0.8" stroke="#BF4080" stroke-width="1" />
    
    <!-- Dimensional Grid with perspective -->
    <g opacity="0.3">
      <path d="M-60,-70 L-50,-80 L-50,80 L-60,70 Z" fill="none" stroke="#BF4080" stroke-width="1" />
      <path d="M-30,-70 L-20,-80 L-20,80 L-30,70 Z" fill="none" stroke="#BF4080" stroke-width="1" />
      <path d="M0,-70 L10,-80 L10,80 L0,70 Z" fill="none" stroke="#BF4080" stroke-width="1" />
      <path d="M30,-70 L40,-80 L40,80 L30,70 Z" fill="none" stroke="#BF4080" stroke-width="1" />
      <path d="M60,-70 L70,-80 L70,80 L60,70 Z" fill="none" stroke="#BF4080" stroke-width="1" />
      
      <path d="M-70,-60 L80,-60 L70,-50 L-80,-50 Z" fill="none" stroke="#BF4080" stroke-width="1" />
      <path d="M-70,-30 L80,-30 L70,-20 L-80,-20 Z" fill="none" stroke="#BF4080" stroke-width="1" />
      <path d="M-70,0 L80,0 L70,10 L-80,10 Z" fill="none" stroke="#BF4080" stroke-width="1" />
      <path d="M-70,30 L80,30 L70,40 L-80,40 Z" fill="none" stroke="#BF4080" stroke-width="1" />
      <path d="M-70,60 L80,60 L70,70 L-80,70 Z" fill="none" stroke="#BF4080" stroke-width="1" />
    </g>
    
    <!-- 9 with Dimensional Properties -->
    <g>
      <!-- Outer shape of 9 with depth -->
      <!-- Top row -->
      <path d="M-40,-40 L-30,-50 L-10,-50 L-10,-30 L-30,-30 L-40,-40 Z" fill="#BF4080" opacity="0.9" />
      <path d="M-20,-40 L-10,-50 L10,-50 L10,-30 L-10,-30 L-20,-40 Z" fill="#BF4080" opacity="0.9" />
      <path d="M0,-40 L10,-50 L30,-50 L30,-30 L10,-30 L0,-40 Z" fill="#BF4080" opacity="0.9" />
      <path d="M20,-40 L30,-50 L50,-50 L50,-30 L30,-30 L20,-40 Z" fill="#BF4080" opacity="0.9" />
      
      <!-- Left side -->
      <path d="M-40,-20 L-30,-30 L-10,-30 L-10,-10 L-30,-10 L-40,-20 Z" fill="#BF4080" opacity="0.9" />
      
      <!-- Right side -->
      <path d="M20,-20 L30,-30 L50,-30 L50,-10 L30,-10 L20,-20 Z" fill="#BF4080" opacity="0.9" />
      
      <!-- Middle row -->
      <path d="M-40,0 L-30,-10 L-10,-10 L-10,10 L-30,10 L-40,0 Z" fill="#BF4080" opacity="0.9" />
      <path d="M-20,0 L-10,-10 L10,-10 L10,10 L-10,10 L-20,0 Z" fill="#BF4080" opacity="0.9" />
      <path d="M0,0 L10,-10 L30,-10 L30,10 L10,10 L0,0 Z" fill="#BF4080" opacity="0.9" />
      <path d="M20,0 L30,-10 L50,-10 L50,10 L30,10 L20,0 Z" fill="#BF4080" opacity="0.9" />
      
      <!-- Right side bottom -->
      <path d="M20,20 L30,10 L50,10 L50,30 L30,30 L20,20 Z" fill="#BF4080" opacity="0.9" />
      
      <!-- Bottom row -->
      <path d="M-40,40 L-30,30 L-10,30 L-10,50 L-30,50 L-40,40 Z" fill="#BF4080" opacity="0.9" />
      <path d="M-20,40 L-10,30 L10,30 L10,50 L-10,50 L-20,40 Z" fill="#BF4080" opacity="0.9" />
      <path d="M0,40 L10,30 L30,30 L30,50 L10,50 L0,40 Z" fill="#BF4080" opacity="0.9" />
      <path d="M20,40 L30,30 L50,30 L50,50 L30,50 L20,40 Z" fill="#BF4080" opacity="0.9" />
      
      <!-- Energy State Particles -->
      <circle cx="-35" cy="-45" r="2" fill="#FFFFFF" opacity="0.9" />
      <circle cx="35" cy="-45" r="2" fill="#FFFFFF" opacity="0.9" />
      <circle cx="-35" cy="45" r="2" fill="#FFFFFF" opacity="0.9" />
      <circle cx="35" cy="45" r="2" fill="#FFFFFF" opacity="0.9" />
    </g>
  </g>
  
  <!-- Quantum State (Bottom Left) -->
  <g transform="translate(250, 500)">
    <!-- Quantum State Label -->
    <text x="0" y="-120" font-family="'SF Pro Display', -apple-system, BlinkMacSystemFont, sans-serif" font-size="18" font-weight="bold" fill="#FFFFFF" text-anchor="middle">Quantum State</text>
    <text x="0" y="-95" font-family="'SF Pro Display', -apple-system, BlinkMacSystemFont, sans-serif" font-size="14" fill="#6A3093" text-anchor="middle">Full Materialization</text>
    
    <!-- Logo Base Container with advanced 3D -->
    <path d="M-100,-80 C-60,-100 60,-100 100,-80 C120,-40 120,40 100,80 C60,100 -60,100 -100,80 C-120,40 -120,-40 -100,-80 Z" fill="#131A36" opacity="0.8" stroke="#6A3093" stroke-width="1" />
    
    <!-- Advanced Quantum Grid -->
    <g opacity="0.3">
      <!-- Curved grid lines -->
      <path d="M-80,-60 C-40,-70 40,-70 80,-60" fill="none" stroke="#6A3093" stroke-width="1" />
      <path d="M-80,-30 C-40,-40 40,-40 80,-30" fill="none" stroke="#6A3093" stroke-width="1" />
      <path d="M-80,0 C-40,-10 40,-10 80,0" fill="none" stroke="#6A3093" stroke-width="1" />
      <path d="M-80,30 C-40,40 40,40 80,30" fill="none" stroke="#6A3093" stroke-width="1" />
      <path d="M-80,60 C-40,70 40,70 80,60" fill="none" stroke="#6A3093" stroke-width="1" />
      
      <path d="M-60,-60 C-70,-20 -70,20 -60,60" fill="none" stroke="#6A3093" stroke-width="1" />
      <path d="M-30,-60 C-40,-20 -40,20 -30,60" fill="none" stroke="#6A3093" stroke-width="1" />
      <path d="M0,-60 C-10,-20 -10,20 0,60" fill="none" stroke="#6A3093" stroke-width="1" />
      <path d="M30,-60 C40,-20 40,20 30,60" fill="none" stroke="#6A3093" stroke-width="1" />
      <path d="M60,-60 C70,-20 70,20 60,60" fill="none" stroke="#6A3093" stroke-width="1" />
    </g>
    
    <!-- Volumetric 9 with advanced materials -->
    <g>
      <!-- Outer shape of 9 with lighting effects -->
      <path d="M-40,-40 C-30,-45 -10,-45 0,-40 C10,-35 20,-30 20,-20 C20,-10 20,0 20,10 C20,20 10,30 0,40 C-10,45 -30,45 -40,40 C-50,35 -50,25 -40,20 C-30,15 -20,10 -10,10 C0,10 10,10 20,10" fill="none" stroke="#6A3093" stroke-width="15" stroke-opacity="0.3" stroke-linecap="round" />
      
      <path d="M-40,-40 C-30,-45 -10,-45 0,-40 C10,-35 20,-30 20,-20 C20,-10 20,0 20,10 C20,20 10,30 0,40 C-10,45 -30,45 -40,40 C-50,35 -50,25 -40,20 C-30,15 -20,10 -10,10 C0,10 10,10 20,10" fill="none" stroke="#6A3093" stroke-width="10" stroke-opacity="0.6" stroke-linecap="round" />
      
      <path d="M-40,-40 C-30,-45 -10,-45 0,-40 C10,-35 20,-30 20,-20 C20,-10 20,0 20,10 C20,20 10,30 0,40 C-10,45 -30,45 -40,40 C-50,35 -50,25 -40,20 C-30,15 -20,10 -10,10 C0,10 10,10 20,10" fill="none" stroke="#FFFFFF" stroke-width="3" stroke-opacity="0.8" stroke-linecap="round" />
      
      <!-- Energy field effect -->
      <path d="M-40,-40 C-30,-45 -10,-45 0,-40 C10,-35 20,-30 20,-20 C20,-10 20,0 20,10 C20,20 10,30 0,40 C-10,45 -30,45 -40,40 C-50,35 -50,25 -40,20 C-30,15 -20,10 -10,10 C0,10 10,10 20,10" fill="none" stroke="#BF4080" stroke-width="1" stroke-opacity="0.7" stroke-linecap="round" stroke-dasharray="2,8" />
      
      <!-- Quantum energy nodes -->
      <circle cx="-40" cy="-40" r="5" fill="#6A3093" opacity="0.8" />
      <circle cx="0" cy="-40" r="5" fill="#6A3093" opacity="0.8" />
      <circle cx="20" cy="-20" r="5" fill="#6A3093" opacity="0.8" />
      <circle cx="20" cy="10" r="5" fill="#6A3093" opacity="0.8" />
      <circle cx="0" cy="40" r="5" fill="#6A3093" opacity="0.8" />
      <circle cx="-40" cy="40" r="5" fill="#6A3093" opacity="0.8" />
      <circle cx="-40" cy="20" r="5" fill="#6A3093" opacity="0.8" />
      <circle cx="-10" cy="10" r="5" fill="#6A3093" opacity="0.8" />
      
      <!-- Energy effects -->
      <circle cx="-40" cy="-40" r="8" fill="#6A3093" opacity="0.3" />
      <circle cx="0" cy="-40" r="8" fill="#6A3093" opacity="0.3" />
      <circle cx="20" cy="-20" r="8" fill="#6A3093" opacity="0.3" />
      <circle cx="20" cy="10" r="8" fill="#6A3093" opacity="0.3" />
      <circle cx="0" cy="40" r="8" fill="#6A3093" opacity="0.3" />
      <circle cx="-40" cy="40" r="8" fill="#6A3093" opacity="0.3" />
      <circle cx="-40" cy="20" r="8" fill="#6A3093" opacity="0.3" />
      <circle cx="-10" cy="10" r="8" fill="#6A3093" opacity="0.3" />
    </g>
  </g>
  
  <!-- Superposition State (Bottom Right) -->
  <g transform="translate(750, 500)">
    <!-- Superposition State Label -->
    <text x="0" y="-120" font-family="'SF Pro Display', -apple-system, BlinkMacSystemFont, sans-serif" font-size="18" font-weight="bold" fill="#FFFFFF" text-anchor="middle">Superposition State</text>
    <text x="0" y="-95" font-family="'SF Pro Display', -apple-system, BlinkMacSystemFont, sans-serif" font-size="14" fill="#5AC8FA" text-anchor="middle">4D Manifestation</text>
    
    <!-- Logo Base Container - quantum field -->
    <path d="M0,0" fill="none" stroke="#5AC8FA" stroke-width="0">
      <animate attributeName="d" dur="20s" repeatCount="indefinite" 
      values="M-90,-90 C-30,-110 30,-110 90,-90 C110,-30 110,30 90,90 C30,110 -30,110 -90,90 C-110,30 -110,-30 -90,-90 Z;
              M-100,-80 C-40,-120 40,-120 100,-80 C120,-40 120,40 100,80 C40,120 -40,120 -100,80 C-120,40 -120,-40 -100,-80 Z;
              M-90,-90 C-30,-110 30,-110 90,-90 C110,-30 110,30 90,90 C30,110 -30,110 -90,90 C-110,30 -110,-30 -90,-90 Z"
      />
    </path>
    <path d="M-90,-90 C-30,-110 30,-110 90,-90 C110,-30 110,30 90,90 C30,110 -30,110 -90,90 C-110,30 -110,-30 -90,-90 Z" fill="#131A36" opacity="0.8" stroke="#5AC8FA" stroke-width="1" />
    
    <!-- Quantum field grid effect -->
    <g opacity="0.2">
      <path d="M-80,-80 C-40,-30 40,-30 80,-80" fill="none" stroke="#5AC8FA" stroke-width="1" />
      <path d="M-80,-40 C-40,10 40,10 80,-40" fill="none" stroke="#5AC8FA" stroke-width="1" />
      <path d="M-80,0 C-40,50 40,50 80,0" fill="none" stroke="#5AC8FA" stroke-width="1" />
      <path d="M-80,40 C-40,90 40,90 80,40" fill="none" stroke="#5AC8FA" stroke-width="1" />
      <path d="M-80,80 C-40,130 40,130 80,80" fill="none" stroke="#5AC8FA" stroke-width="1" />
      
      <path d="M-80,-80 C-30,-40 -30,40 -80,80" fill="none" stroke="#5AC8FA" stroke-width="1" />
      <path d="M-40,-80 C10,-40 10,40 -40,80" fill="none" stroke="#5AC8FA" stroke-width="1" />
      <path d="M0,-80 C50,-40 50,40 0,80" fill="none" stroke="#5AC8FA" stroke-width="1" />
      <path d="M40,-80 C90,-40 90,40 40,80" fill="none" stroke="#5AC8FA" stroke-width="1" />
      <path d="M80,-80 C130,-40 130,40 80,80" fill="none" stroke="#5AC8FA" stroke-width="1" />
    </g>
    
    <!-- Multiple overlapping 9s in different states -->
    <g>
      <!-- Heritage pixel 9 (reduced opacity) -->
      <g opacity="0.3" transform="translate(-10, -10) scale(0.8)">
        <rect x="-40" y="-40" width="20" height="20" fill="#5AC8FA" />
        <rect x="-20" y="-40" width="20" height="20" fill="#5AC8FA" />
        <rect x="0" y="-40" width="20" height="20" fill="#5AC8FA" />
        <rect x="20" y="-40" width="20" height="20" fill="#5AC8FA" />
        
        <rect x="-40" y="-20" width="20" height="20" fill="#5AC8FA" />
        <rect x="20" y="-20" width="20" height="20" fill="#5AC8FA" />
        
        <rect x="-40" y="0" width="20" height="20" fill="#5AC8FA" />
        <rect x="-20" y="0" width="20" height="20" fill="#5AC8FA" />
        <rect x="0" y="0" width="20" height="20" fill="#5AC8FA" />
        <rect x="20" y="0" width="20" height="20" fill="#5AC8FA" />
        
        <rect x="20" y="20" width="20" height="20" fill="#5AC8FA" />
        
        <rect x="-40" y="40" width="20" height="20" fill="#5AC8FA" />
        <rect x="-20" y="40" width="20" height="20" fill="#5AC8FA" />
        <rect x="0" y="40" width="20" height="20" fill="#5AC8FA" />
        <rect x="20" y="40" width="20" height="20" fill="#5AC8FA" />
      </g>
      
      <!-- Transitional 9 (reduced opacity) -->
      <g opacity="0.3" transform="translate(10, 10) scale(0.8)">
        <path d="M-40,-40 L-30,-50 L-10,-50 L-10,-30 L-30,-30 L-40,-40 Z" fill="#BF4080" />
        <path d="M-20,-40 L-10,-50 L10,-50 L10,-30 L-10,-30 L-20,-40 Z" fill="#BF4080" />
        <path d="M0,-40 L10,-50 L30,-50 L30,-30 L10,-30 L0,-40 Z" fill="#BF4080" />
        <path d="M20,-40 L30,-50 L50,-50 L50,-30 L30,-30 L20,-40 Z" fill="#BF4080" />
        
        <path d="M-40,-20 L-30,-30 L-10,-30 L-10,-10 L-30,-10 L-40,-20 Z" fill="#BF4080" />
        <path d="M20,-20 L30,-30 L50,-30 L50,-10 L30,-10 L20,-20 Z" fill="#BF4080" />
        
        <path d="M-40,0 L-30,-10 L-10,-10 L-10,10 L-30,10 L-40,0 Z" fill="#BF4080" />
        <path d="M-20,0 L-10,-10 L10,-10 L10,10 L-10,10 L-20,0 Z" fill="#BF4080" />
        <path d="M0,0 L10,-10 L30,-10 L30,10 L10,10 L0,0 Z" fill="#BF4080" />
        <path d="M20,0 L30,-10 L50,-10 L50,10 L30,10 L20,0 Z" fill="#BF4080" />
        
        <path d="M20,20 L30,10 L50,10 L50,30 L30,30 L20,20 Z" fill="#BF4080" />
        
        <path d="M-40,40 L-30,30 L-10,30 L-10,50 L-30,50 L-40,40 Z" fill="#BF4080" />
        <path d="M-20,40 L-10,30 L10,30 L10,50 L-10,50 L-20,40 Z" fill="#BF4080" />
        <path d="M0,40 L10,30 L30,30 L30,50 L10,50 L0,40 Z" fill="#BF4080" />
        <path d="M20,40 L30,30 L50,30 L50,50 L30,50 L20,40 Z" fill="#BF4080" />
      </g>
      
      <!-- Quantum 9 (reduced opacity) -->
      <g opacity="0.3" transform="translate(0, 0) scale(0.8)">
        <path d="M-40,-40 C-30,-45 -10,-45 0,-40 C10,-35 20,-30 20,-20 C20,-10 20,0 20,10 C20,20 10,30 0,40 C-10,45 -30,45 -40,40 C-50,35 -50,25 -40,20 C-30,15 -20,10 -10,10 C0,10 10,10 20,10" fill="none" stroke="#6A3093" stroke-width="15" stroke-opacity="0.3" stroke-linecap="round" />
        <path d="M-40,-40 C-30,-45 -10,-45 0,-40 C10,-35 20,-30 20,-20 C20,-10 20,0 20,10 C20,20 10,30 0,40 C-10,45 -30,45 -40,40 C-50,35 -50,25 -40,20 C-30,15 -20,10 -10,10 C0,10 10,10 20,10" fill="none" stroke="#6A3093" stroke-width="10" stroke-opacity="0.6" stroke-linecap="round" />
        <path d="M-40,-40 C-30,-45 -10,-45 0,-40 C10,-35 20,-30 20,-20 C20,-10 20,0 20,10 C20,20 10,30 0,40 C-10,45 -30,45 -40,40 C-50,35 -50,25 -40,20 C-30,15 -20,10 -10,10 C0,10 10,10 20,10" fill="none" stroke="#FFFFFF" stroke-width="3" stroke-opacity="0.8" stroke-linecap="round" />
      </g>
      
      <!-- Primary Superposition 9 -->
      <g>
        <!-- Core shape with quantum field effect -->
        <path d="M-40,-40 C-30,-45 -10,-45 0,-40 C10,-35 20,-30 20,-20 C20,-10 20,0 20,10 C20,20 10,30 0,40 C-10,45 -30,45 -40,40 C-50,35 -50,25 -40,20 C-30,15 -20,10 -10,10 C0,10 10,10 20,10" fill="none" stroke="#5AC8FA" stroke-width="15" stroke-opacity="0.3" stroke-linecap="round" />
        <path d="M-40,-40 C-30,-45 -10,-45 0,-40 C10,-35 20,-30 20,-20 C20,-10 20,0 20,10 C20,20 10,30 0,40 C-10,45 -30,45 -40,40 C-50,35 -50,25 -40,20 C-30,15 -20,10 -10,10 C0,10 10,10 20,10" fill="none" stroke="#5AC8FA" stroke-width="10" stroke-opacity="0.6" stroke-linecap="round" />
        <path d="M-40,-40 C-30,-45 -10,-45 0,-40 C10,-35 20,-30 20,-20 C20,-10 20,0 20,10 C20,20 10,30 0,40 C-10,45 -30,45 -40,40 C-50,35 -50,25 -40,20 C-30,15 -20,10 -10,10 C0,10 10,10 20,10" fill="none" stroke="#FFFFFF" stroke-width="3" stroke-opacity="0.8" stroke-linecap="round" />
        
        <!-- Quantum energy nodes -->
        <circle cx="-40" cy="-40" r="5" fill="#5AC8FA" opacity="0.8" />
        <circle cx="0" cy="-40" r="5" fill="#5AC8FA" opacity="0.8" />
        <circle cx="20" cy="-20" r="5" fill="#5AC8FA" opacity="0.8" />
        <circle cx="20" cy="10" r="5" fill="#5AC8FA" opacity="0.8" />
        <circle cx="0" cy="40" r="5" fill="#5AC8FA" opacity="0.8" />
        <circle cx="-40" cy="40" r="5" fill="#5AC8FA" opacity="0.8" />
        <circle cx="-40" cy="20" r="5" fill="#5AC8FA" opacity="0.8" />
        <circle cx="-10" cy="10" r="5" fill="#5AC8FA" opacity="0.8" />
        
        <!-- Energy field effects -->
        <circle cx="-40" cy="-40" r="8" fill="#5AC8FA" opacity="0.3">
          <animate attributeName="r" values="8;12;8" dur="2s" repeatCount="indefinite" />
        </circle>
        <circle cx="0" cy="-40" r="8" fill="#5AC8FA" opacity="0.3">
          <animate attributeName="r" values="8;12;8" dur="2s" repeatCount="indefinite" begin="0.5s" />
        </circle>
        <circle cx="20" cy="-20" r="8" fill="#5AC8FA" opacity="0.3">
          <animate attributeName="r" values="8;12;8" dur="2s" repeatCount="indefinite" begin="1s" />
        </circle>
        <circle cx="20" cy="10" r="8" fill="#5AC8FA" opacity="0.3">
          <animate attributeName="r" values="8;12;8" dur="2s" repeatCount="indefinite" begin="1.5s" />
        </circle>
        <circle cx="0" cy="40" r="8" fill="#5AC8FA" opacity="0.3">
          <animate attributeName="r" values="8;12;8" dur="2s" repeatCount="indefinite" begin="0.7s" />
        </circle>
        <circle cx="-40" cy="40" r="8" fill="#5AC8FA" opacity="0.3">
          <animate attributeName="r" values="8;12;8" dur="2s" repeatCount="indefinite" begin="1.2s" />
        </circle>
        <circle cx="-40" cy="20" r="8" fill="#5AC8FA" opacity="0.3">
          <animate attributeName="r" values="8;12;8" dur="2s" repeatCount="indefinite" begin="0.9s" />
        </circle>
        <circle cx="-10" cy="10" r="8" fill="#5AC8FA" opacity="0.3">
          <animate attributeName="r" values="8;12;8" dur="2s" repeatCount="indefinite" begin="1.4s" />
        </circle>
      </g>
    </g>
  </g>
</svg>