<svg width="55" height="62" viewBox="0 0 55 62" fill="none" xmlns="http://www.w3.org/2000/svg">
<path d="M39.5996 15.6982C40.8203 15.6982 41.9596 15.9261 43.0176 16.3818C44.0755 16.8376 44.9951 17.4479 45.7764 18.2129C46.5739 18.9779 47.1924 19.8161 47.6318 20.7275C48.0876 21.639 48.3154 22.5342 48.3154 23.4131C48.3154 24.292 47.9736 25.1709 47.29 26.0498C46.6227 26.9287 45.6624 27.7262 44.4092 28.4424C43.1722 29.1585 41.7074 29.6875 40.0146 30.0293L40.5029 32.666C40.9749 35.2539 40.9831 37.5 40.5273 39.4043C40.0716 41.2923 39.2985 42.8874 38.208 44.1895C37.1175 45.4915 35.8317 46.5413 34.3506 47.3389C32.8695 48.1201 31.3232 48.6816 29.7119 49.0234C28.1006 49.3815 26.5625 49.5687 25.0977 49.585V59.3018C25.0977 59.7738 25.0081 60.1156 24.8291 60.3271C24.6501 60.555 24.3652 60.7422 23.9746 60.8887C22.819 61.2793 21.5902 61.5072 20.2881 61.5723C19.0023 61.6374 17.7002 61.556 16.3818 61.3281C15.0798 61.1003 13.8346 60.7503 12.6465 60.2783C11.4583 59.8063 10.3923 59.2367 9.44824 58.5693C8.52051 57.9183 7.78809 57.1777 7.25098 56.3477C7.08822 56.0872 6.97428 55.8268 6.90918 55.5664C6.86035 55.3223 6.86849 55.0863 6.93359 54.8584C7.01497 54.6468 7.16146 54.4434 7.37305 54.248C9.47266 52.2786 11.4502 50.1058 13.3057 47.7295C15.1774 45.3369 16.8701 42.8792 18.3838 40.3564C19.8975 37.8174 21.1833 35.3271 22.2412 32.8857C18.9697 32.609 15.9505 31.8359 13.1836 30.5664C10.4167 29.2969 8.03223 27.6367 6.03027 25.5859C4.02832 23.5352 2.52279 21.1833 1.51367 18.5303C0.504557 15.8773 0.113932 13.0208 0.341797 9.96094C0.358073 9.60286 0.431315 9.28548 0.561523 9.00879C0.691732 8.7321 0.887044 8.52051 1.14746 8.37402C1.42415 8.22754 1.78223 8.16243 2.22168 8.17871C5.15137 8.3903 8.03223 8.95182 10.8643 9.86328C13.6963 10.7585 16.3818 11.8815 18.9209 13.2324C21.4762 14.5833 23.8037 16.0645 25.9033 17.6758C28.0029 19.2871 29.7852 20.9147 31.25 22.5586C32.1777 20.6868 33.0892 19.2546 33.9844 18.2617C34.8796 17.2689 35.7829 16.5934 36.6943 16.2354C37.6058 15.8773 38.5742 15.6982 39.5996 15.6982ZM39.624 17.4072C38.7451 17.4072 37.9395 17.5537 37.207 17.8467C36.4746 18.1396 35.7503 18.7174 35.0342 19.5801C34.3343 20.4264 33.5612 21.7041 32.7148 23.4131C32.5521 23.7549 32.3568 24.0072 32.1289 24.1699C31.901 24.3327 31.6243 24.4141 31.2988 24.4141C31.071 24.4141 30.8431 24.3571 30.6152 24.2432C30.3874 24.1292 30.1595 23.9421 29.9316 23.6816C28.597 22.1517 26.945 20.6299 24.9756 19.1162C23.0225 17.5863 20.8415 16.1784 18.4326 14.8926C16.0238 13.6068 13.4521 12.5244 10.7178 11.6455C7.99967 10.7666 5.22461 10.1969 2.39258 9.93652C2.18099 9.92025 2.06706 10.0179 2.05078 10.2295C1.9043 13.1755 2.32747 15.8936 3.32031 18.3838C4.31315 20.874 5.76986 23.055 7.69043 24.9268C9.62728 26.7985 11.9303 28.2878 14.5996 29.3945C17.2852 30.5013 20.2393 31.1442 23.4619 31.3232C23.8363 31.3395 24.0885 31.4697 24.2188 31.7139C24.349 31.958 24.3408 32.2591 24.1943 32.6172C23.1527 35.14 21.8506 37.7441 20.2881 40.4297C18.7419 43.099 16.9922 45.7031 15.0391 48.2422C13.0859 50.765 11.0026 53.068 8.78906 55.1514C8.67513 55.2653 8.67513 55.3955 8.78906 55.542C9.375 56.4046 10.2051 57.1615 11.2793 57.8125C12.3698 58.4798 13.5905 59.0007 14.9414 59.375C16.2923 59.7656 17.6758 59.9691 19.0918 59.9854C20.5078 60.0016 21.8506 59.8145 23.1201 59.4238C23.234 59.3913 23.3073 59.3424 23.3398 59.2773C23.3724 59.2285 23.3887 59.1634 23.3887 59.082V48.584C23.3887 48.3724 23.4619 48.1934 23.6084 48.0469C23.7549 47.9004 23.9502 47.8353 24.1943 47.8516C25.5615 47.8841 26.9938 47.7783 28.4912 47.5342C30.0049 47.29 31.4535 46.8506 32.8369 46.2158C34.2367 45.5648 35.4574 44.6696 36.499 43.5303C37.5407 42.391 38.2812 40.9668 38.7207 39.2578C39.1764 37.5326 39.2171 35.4574 38.8428 33.0322L38.2568 29.3213C38.2243 29.1097 38.2731 28.9307 38.4033 28.7842C38.5498 28.6377 38.7288 28.5482 38.9404 28.5156C41.4632 28.0924 43.3675 27.3844 44.6533 26.3916C45.9554 25.3988 46.6064 24.4059 46.6064 23.4131C46.6064 22.4854 46.3135 21.5576 45.7275 20.6299C45.1416 19.7021 44.3197 18.9372 43.2617 18.335C42.2038 17.7165 40.9912 17.4072 39.624 17.4072ZM36.0352 17.0654C34.4727 13.5824 32.6497 10.6445 30.5664 8.25195C28.4993 5.8431 26.0173 3.80859 23.1201 2.14844C23.0062 2.08333 22.9085 2.06706 22.8271 2.09961C22.7458 2.13216 22.6888 2.21354 22.6562 2.34375C22.0378 4.16667 21.639 6.17676 21.46 8.37402C21.2972 10.5713 21.3623 12.8906 21.6553 15.332L19.8486 14.624C19.5882 12.3454 19.5719 10.0667 19.7998 7.78809C20.0277 5.49316 20.4671 3.36914 21.1182 1.41602C21.2972 0.846354 21.6227 0.472005 22.0947 0.292969C22.5667 0.0976562 23.0957 0.16276 23.6816 0.488281C26.8392 2.24609 29.541 4.43522 31.7871 7.05566C34.0495 9.65983 36.0026 12.8255 37.6465 16.5527L36.0352 17.0654ZM41.7725 23.3398C41.4144 23.3398 41.1051 23.2096 40.8447 22.9492C40.6006 22.6888 40.4785 22.3877 40.4785 22.0459C40.4785 21.6715 40.6006 21.3623 40.8447 21.1182C41.1051 20.8577 41.4144 20.7275 41.7725 20.7275C42.1143 20.7275 42.4154 20.8577 42.6758 21.1182C42.9362 21.3623 43.0664 21.6715 43.0664 22.0459C43.0664 22.3877 42.9362 22.6888 42.6758 22.9492C42.4154 23.2096 42.1143 23.3398 41.7725 23.3398ZM46.6064 26.3184L47.7051 22.8516L53.5645 25.2197C53.8411 25.3337 54.0283 25.5046 54.126 25.7324C54.2236 25.9603 54.248 26.1882 54.1992 26.416C54.1504 26.6439 54.0283 26.8311 53.833 26.9775C53.654 27.124 53.4261 27.1729 53.1494 27.124L46.6064 26.3184Z" fill="url(#paint0_linear_120308_21612)"/>
<defs>
<linearGradient id="paint0_linear_120308_21612" x1="-6.22949" y1="1.15495" x2="72.4882" y2="33.239" gradientUnits="userSpaceOnUse">
<stop stop-color="#FF9D3F"/>
<stop offset="0.403862" stop-color="#F46772"/>
<stop offset="0.692179" stop-color="#AF33E4"/>
<stop offset="1" stop-color="#2F70E4"/>
</linearGradient>
</defs>
</svg>
