<svg width="1200" height="800" viewBox="0 0 1200 800" xmlns="http://www.w3.org/2000/svg">
  <defs>
    <linearGradient id="grid-fade-heritage-background-grid" x1="0%" y1="0%" x2="0%" y2="100%">
      <stop offset="0%" stop-color="#3DFF74" stop-opacity="0.12"/>
      <stop offset="50%" stop-color="#3DFF74" stop-opacity="0.08"/>
      <stop offset="100%" stop-color="#3DFF74" stop-opacity="0.04"/>
    </linearGradient>
    <filter id="grid-glow-heritage-background-grid" x="-20%" y="-20%" width="140%" height="140%">
      <feGaussianBlur stdDeviation="0.8" result="blur"/>
      <feComposite in="SourceGraphic" in2="blur" operator="over"/>
    </filter>
  </defs>
  <g class="perspective-grid" transform="scale(0.4) rotate3d(1, 0, 0, 12deg)" transform-origin="center bottom">
    <!-- Horizontal lines -->
    <line x1="0" y1="0" x2="1200" y2="0" stroke="url(#grid-fade-heritage-background-grid)" stroke-width="1"/>
    <line x1="0" y1="32" x2="1200" y2="32" stroke="url(#grid-fade-heritage-background-grid)" stroke-width="1"/>
    <line x1="0" y1="64" x2="1200" y2="64" stroke="url(#grid-fade-heritage-background-grid)" stroke-width="1"/>
    <line x1="0" y1="96" x2="1200" y2="96" stroke="url(#grid-fade-heritage-background-grid)" stroke-width="1"/>
    <line x1="0" y1="128" x2="1200" y2="128" stroke="url(#grid-fade-heritage-background-grid)" stroke-width="1"/>
    <line x1="0" y1="160" x2="1200" y2="160" stroke="url(#grid-fade-heritage-background-grid)" stroke-width="1"/>
    <line x1="0" y1="192" x2="1200" y2="192" stroke="url(#grid-fade-heritage-background-grid)" stroke-width="1"/>
    <line x1="0" y1="224" x2="1200" y2="224" stroke="url(#grid-fade-heritage-background-grid)" stroke-width="1"/>
    <line x1="0" y1="256" x2="1200" y2="256" stroke="url(#grid-fade-heritage-background-grid)" stroke-width="1"/>
    <line x1="0" y1="288" x2="1200" y2="288" stroke="url(#grid-fade-heritage-background-grid)" stroke-width="1"/>
    <line x1="0" y1="320" x2="1200" y2="320" stroke="url(#grid-fade-heritage-background-grid)" stroke-width="1"/>
    <line x1="0" y1="352" x2="1200" y2="352" stroke="url(#grid-fade-heritage-background-grid)" stroke-width="1"/>
    <line x1="0" y1="384" x2="1200" y2="384" stroke="url(#grid-fade-heritage-background-grid)" stroke-width="1"/>
    <line x1="0" y1="416" x2="1200" y2="416" stroke="url(#grid-fade-heritage-background-grid)" stroke-width="1"/>
    <line x1="0" y1="448" x2="1200" y2="448" stroke="url(#grid-fade-heritage-background-grid)" stroke-width="1"/>
    <line x1="0" y1="480" x2="1200" y2="480" stroke="url(#grid-fade-heritage-background-grid)" stroke-width="1"/>
    <line x1="0" y1="512" x2="1200" y2="512" stroke="url(#grid-fade-heritage-background-grid)" stroke-width="1"/>
    <line x1="0" y1="544" x2="1200" y2="544" stroke="url(#grid-fade-heritage-background-grid)" stroke-width="1"/>
    <line x1="0" y1="576" x2="1200" y2="576" stroke="url(#grid-fade-heritage-background-grid)" stroke-width="1"/>
    <line x1="0" y1="608" x2="1200" y2="608" stroke="url(#grid-fade-heritage-background-grid)" stroke-width="1"/>
    <line x1="0" y1="640" x2="1200" y2="640" stroke="url(#grid-fade-heritage-background-grid)" stroke-width="1"/>
    <line x1="0" y1="672" x2="1200" y2="672" stroke="url(#grid-fade-heritage-background-grid)" stroke-width="1"/>
    <line x1="0" y1="704" x2="1200" y2="704" stroke="url(#grid-fade-heritage-background-grid)" stroke-width="1"/>
    <line x1="0" y1="736" x2="1200" y2="736" stroke="url(#grid-fade-heritage-background-grid)" stroke-width="1"/>
    <line x1="0" y1="768" x2="1200" y2="768" stroke="url(#grid-fade-heritage-background-grid)" stroke-width="1"/>
    <line x1="0" y1="800" x2="1200" y2="800" stroke="url(#grid-fade-heritage-background-grid)" stroke-width="1"/>
    <line x1="0" y1="832" x2="1200" y2="832" stroke="url(#grid-fade-heritage-background-grid)" stroke-width="1"/>
    <!-- Vertical lines -->
    <line x1="0" y1="0" x2="0" y2="800" stroke="url(#grid-fade-heritage-background-grid)" stroke-width="1"/>
    <line x1="32" y1="0" x2="32" y2="800" stroke="url(#grid-fade-heritage-background-grid)" stroke-width="1"/>
    <line x1="64" y1="0" x2="64" y2="800" stroke="url(#grid-fade-heritage-background-grid)" stroke-width="1"/>
    <line x1="96" y1="0" x2="96" y2="800" stroke="url(#grid-fade-heritage-background-grid)" stroke-width="1"/>
    <line x1="128" y1="0" x2="128" y2="800" stroke="url(#grid-fade-heritage-background-grid)" stroke-width="1"/>
    <line x1="160" y1="0" x2="160" y2="800" stroke="url(#grid-fade-heritage-background-grid)" stroke-width="1"/>
    <line x1="192" y1="0" x2="192" y2="800" stroke="url(#grid-fade-heritage-background-grid)" stroke-width="1"/>
    <line x1="224" y1="0" x2="224" y2="800" stroke="url(#grid-fade-heritage-background-grid)" stroke-width="1"/>
    <line x1="256" y1="0" x2="256" y2="800" stroke="url(#grid-fade-heritage-background-grid)" stroke-width="1"/>
    <line x1="288" y1="0" x2="288" y2="800" stroke="url(#grid-fade-heritage-background-grid)" stroke-width="1"/>
    <line x1="320" y1="0" x2="320" y2="800" stroke="url(#grid-fade-heritage-background-grid)" stroke-width="1"/>
    <line x1="352" y1="0" x2="352" y2="800" stroke="url(#grid-fade-heritage-background-grid)" stroke-width="1"/>
    <line x1="384" y1="0" x2="384" y2="800" stroke="url(#grid-fade-heritage-background-grid)" stroke-width="1"/>
    <line x1="416" y1="0" x2="416" y2="800" stroke="url(#grid-fade-heritage-background-grid)" stroke-width="1"/>
    <line x1="448" y1="0" x2="448" y2="800" stroke="url(#grid-fade-heritage-background-grid)" stroke-width="1"/>
    <line x1="480" y1="0" x2="480" y2="800" stroke="url(#grid-fade-heritage-background-grid)" stroke-width="1"/>
    <line x1="512" y1="0" x2="512" y2="800" stroke="url(#grid-fade-heritage-background-grid)" stroke-width="1"/>
    <line x1="544" y1="0" x2="544" y2="800" stroke="url(#grid-fade-heritage-background-grid)" stroke-width="1"/>
    <line x1="576" y1="0" x2="576" y2="800" stroke="url(#grid-fade-heritage-background-grid)" stroke-width="1"/>
    <line x1="608" y1="0" x2="608" y2="800" stroke="url(#grid-fade-heritage-background-grid)" stroke-width="1"/>
    <line x1="640" y1="0" x2="640" y2="800" stroke="url(#grid-fade-heritage-background-grid)" stroke-width="1"/>
    <line x1="672" y1="0" x2="672" y2="800" stroke="url(#grid-fade-heritage-background-grid)" stroke-width="1"/>
    <line x1="704" y1="0" x2="704" y2="800" stroke="url(#grid-fade-heritage-background-grid)" stroke-width="1"/>
    <line x1="736" y1="0" x2="736" y2="800" stroke="url(#grid-fade-heritage-background-grid)" stroke-width="1"/>
    <line x1="768" y1="0" x2="768" y2="800" stroke="url(#grid-fade-heritage-background-grid)" stroke-width="1"/>
    <line x1="800" y1="0" x2="800" y2="800" stroke="url(#grid-fade-heritage-background-grid)" stroke-width="1"/>
    <line x1="832" y1="0" x2="832" y2="800" stroke="url(#grid-fade-heritage-background-grid)" stroke-width="1"/>
    <line x1="864" y1="0" x2="864" y2="800" stroke="url(#grid-fade-heritage-background-grid)" stroke-width="1"/>
    <line x1="896" y1="0" x2="896" y2="800" stroke="url(#grid-fade-heritage-background-grid)" stroke-width="1"/>
    <line x1="928" y1="0" x2="928" y2="800" stroke="url(#grid-fade-heritage-background-grid)" stroke-width="1"/>
    <line x1="960" y1="0" x2="960" y2="800" stroke="url(#grid-fade-heritage-background-grid)" stroke-width="1"/>
    <line x1="992" y1="0" x2="992" y2="800" stroke="url(#grid-fade-heritage-background-grid)" stroke-width="1"/>
    <line x1="1024" y1="0" x2="1024" y2="800" stroke="url(#grid-fade-heritage-background-grid)" stroke-width="1"/>
    <line x1="1056" y1="0" x2="1056" y2="800" stroke="url(#grid-fade-heritage-background-grid)" stroke-width="1"/>
    <line x1="1088" y1="0" x2="1088" y2="800" stroke="url(#grid-fade-heritage-background-grid)" stroke-width="1"/>
    <line x1="1120" y1="0" x2="1120" y2="800" stroke="url(#grid-fade-heritage-background-grid)" stroke-width="1"/>
    <line x1="1152" y1="0" x2="1152" y2="800" stroke="url(#grid-fade-heritage-background-grid)" stroke-width="1"/>
    <line x1="1184" y1="0" x2="1184" y2="800" stroke="url(#grid-fade-heritage-background-grid)" stroke-width="1"/>
    <line x1="1216" y1="0" x2="1216" y2="800" stroke="url(#grid-fade-heritage-background-grid)" stroke-width="1"/>
    <line x1="1248" y1="0" x2="1248" y2="800" stroke="url(#grid-fade-heritage-background-grid)" stroke-width="1"/>
  </g>
</svg>