<svg width="1200" height="800" viewBox="0 0 1200 800" xmlns="http://www.w3.org/2000/svg">
  <defs>
    <linearGradient id="grid-fade-navigation-perspective-grid" x1="0%" y1="0%" x2="0%" y2="100%">
      <stop offset="0%" stop-color="#5AC8FA" stop-opacity="0.22499999999999998"/>
      <stop offset="50%" stop-color="#5AC8FA" stop-opacity="0.15"/>
      <stop offset="100%" stop-color="#5AC8FA" stop-opacity="0.075"/>
    </linearGradient>
    <filter id="grid-glow-navigation-perspective-grid" x="-20%" y="-20%" width="140%" height="140%">
      <feGaussianBlur stdDeviation="1.5" result="blur"/>
      <feComposite in="SourceGraphic" in2="blur" operator="over"/>
    </filter>
  </defs>
  <g class="navigation-grid" transform="scale(0.30000000000000004) rotate3d(1, 0, 0, 8deg)" transform-origin="center bottom">
    <!-- Horizontal lines -->
    <line x1="0" y1="0" x2="1200" y2="0" stroke="#5AC8FA" stroke-opacity="0.3" stroke-width="1.5"/>
    <line x1="0" y1="24" x2="1200" y2="24" stroke="#5AC8FA" stroke-opacity="0.15" stroke-width="1"/>
    <line x1="0" y1="48" x2="1200" y2="48" stroke="#5AC8FA" stroke-opacity="0.15" stroke-width="1"/>
    <line x1="0" y1="72" x2="1200" y2="72" stroke="#5AC8FA" stroke-opacity="0.15" stroke-width="1"/>
    <line x1="0" y1="96" x2="1200" y2="96" stroke="#5AC8FA" stroke-opacity="0.3" stroke-width="1.5"/>
    <line x1="0" y1="120" x2="1200" y2="120" stroke="#5AC8FA" stroke-opacity="0.15" stroke-width="1"/>
    <line x1="0" y1="144" x2="1200" y2="144" stroke="#5AC8FA" stroke-opacity="0.15" stroke-width="1"/>
    <line x1="0" y1="168" x2="1200" y2="168" stroke="#5AC8FA" stroke-opacity="0.15" stroke-width="1"/>
    <line x1="0" y1="192" x2="1200" y2="192" stroke="#5AC8FA" stroke-opacity="0.3" stroke-width="1.5"/>
    <line x1="0" y1="216" x2="1200" y2="216" stroke="#5AC8FA" stroke-opacity="0.15" stroke-width="1"/>
    <line x1="0" y1="240" x2="1200" y2="240" stroke="#5AC8FA" stroke-opacity="0.15" stroke-width="1"/>
    <line x1="0" y1="264" x2="1200" y2="264" stroke="#5AC8FA" stroke-opacity="0.15" stroke-width="1"/>
    <line x1="0" y1="288" x2="1200" y2="288" stroke="#5AC8FA" stroke-opacity="0.3" stroke-width="1.5"/>
    <line x1="0" y1="312" x2="1200" y2="312" stroke="#5AC8FA" stroke-opacity="0.15" stroke-width="1"/>
    <line x1="0" y1="336" x2="1200" y2="336" stroke="#5AC8FA" stroke-opacity="0.15" stroke-width="1"/>
    <line x1="0" y1="360" x2="1200" y2="360" stroke="#5AC8FA" stroke-opacity="0.15" stroke-width="1"/>
    <line x1="0" y1="384" x2="1200" y2="384" stroke="#5AC8FA" stroke-opacity="0.3" stroke-width="1.5"/>
    <line x1="0" y1="408" x2="1200" y2="408" stroke="#5AC8FA" stroke-opacity="0.15" stroke-width="1"/>
    <line x1="0" y1="432" x2="1200" y2="432" stroke="#5AC8FA" stroke-opacity="0.15" stroke-width="1"/>
    <line x1="0" y1="456" x2="1200" y2="456" stroke="#5AC8FA" stroke-opacity="0.15" stroke-width="1"/>
    <line x1="0" y1="480" x2="1200" y2="480" stroke="#5AC8FA" stroke-opacity="0.3" stroke-width="1.5"/>
    <line x1="0" y1="504" x2="1200" y2="504" stroke="#5AC8FA" stroke-opacity="0.15" stroke-width="1"/>
    <line x1="0" y1="528" x2="1200" y2="528" stroke="#5AC8FA" stroke-opacity="0.15" stroke-width="1"/>
    <line x1="0" y1="552" x2="1200" y2="552" stroke="#5AC8FA" stroke-opacity="0.15" stroke-width="1"/>
    <line x1="0" y1="576" x2="1200" y2="576" stroke="#5AC8FA" stroke-opacity="0.3" stroke-width="1.5"/>
    <line x1="0" y1="600" x2="1200" y2="600" stroke="#5AC8FA" stroke-opacity="0.15" stroke-width="1"/>
    <line x1="0" y1="624" x2="1200" y2="624" stroke="#5AC8FA" stroke-opacity="0.15" stroke-width="1"/>
    <line x1="0" y1="648" x2="1200" y2="648" stroke="#5AC8FA" stroke-opacity="0.15" stroke-width="1"/>
    <line x1="0" y1="672" x2="1200" y2="672" stroke="#5AC8FA" stroke-opacity="0.3" stroke-width="1.5"/>
    <line x1="0" y1="696" x2="1200" y2="696" stroke="#5AC8FA" stroke-opacity="0.15" stroke-width="1"/>
    <line x1="0" y1="720" x2="1200" y2="720" stroke="#5AC8FA" stroke-opacity="0.15" stroke-width="1"/>
    <line x1="0" y1="744" x2="1200" y2="744" stroke="#5AC8FA" stroke-opacity="0.15" stroke-width="1"/>
    <line x1="0" y1="768" x2="1200" y2="768" stroke="#5AC8FA" stroke-opacity="0.3" stroke-width="1.5"/>
    <line x1="0" y1="792" x2="1200" y2="792" stroke="#5AC8FA" stroke-opacity="0.15" stroke-width="1"/>
    <line x1="0" y1="816" x2="1200" y2="816" stroke="#5AC8FA" stroke-opacity="0.15" stroke-width="1"/>
    <line x1="0" y1="840" x2="1200" y2="840" stroke="#5AC8FA" stroke-opacity="0.15" stroke-width="1"/>
    <!-- Vertical lines -->
    <line x1="0" y1="0" x2="0" y2="800" stroke="#5AC8FA" stroke-opacity="0.3" stroke-width="1.5"/>
    <line x1="24" y1="0" x2="24" y2="800" stroke="#5AC8FA" stroke-opacity="0.15" stroke-width="1"/>
    <line x1="48" y1="0" x2="48" y2="800" stroke="#5AC8FA" stroke-opacity="0.15" stroke-width="1"/>
    <line x1="72" y1="0" x2="72" y2="800" stroke="#5AC8FA" stroke-opacity="0.15" stroke-width="1"/>
    <line x1="96" y1="0" x2="96" y2="800" stroke="#5AC8FA" stroke-opacity="0.3" stroke-width="1.5"/>
    <line x1="120" y1="0" x2="120" y2="800" stroke="#5AC8FA" stroke-opacity="0.15" stroke-width="1"/>
    <line x1="144" y1="0" x2="144" y2="800" stroke="#5AC8FA" stroke-opacity="0.15" stroke-width="1"/>
    <line x1="168" y1="0" x2="168" y2="800" stroke="#5AC8FA" stroke-opacity="0.15" stroke-width="1"/>
    <line x1="192" y1="0" x2="192" y2="800" stroke="#5AC8FA" stroke-opacity="0.3" stroke-width="1.5"/>
    <line x1="216" y1="0" x2="216" y2="800" stroke="#5AC8FA" stroke-opacity="0.15" stroke-width="1"/>
    <line x1="240" y1="0" x2="240" y2="800" stroke="#5AC8FA" stroke-opacity="0.15" stroke-width="1"/>
    <line x1="264" y1="0" x2="264" y2="800" stroke="#5AC8FA" stroke-opacity="0.15" stroke-width="1"/>
    <line x1="288" y1="0" x2="288" y2="800" stroke="#5AC8FA" stroke-opacity="0.3" stroke-width="1.5"/>
    <line x1="312" y1="0" x2="312" y2="800" stroke="#5AC8FA" stroke-opacity="0.15" stroke-width="1"/>
    <line x1="336" y1="0" x2="336" y2="800" stroke="#5AC8FA" stroke-opacity="0.15" stroke-width="1"/>
    <line x1="360" y1="0" x2="360" y2="800" stroke="#5AC8FA" stroke-opacity="0.15" stroke-width="1"/>
    <line x1="384" y1="0" x2="384" y2="800" stroke="#5AC8FA" stroke-opacity="0.3" stroke-width="1.5"/>
    <line x1="408" y1="0" x2="408" y2="800" stroke="#5AC8FA" stroke-opacity="0.15" stroke-width="1"/>
    <line x1="432" y1="0" x2="432" y2="800" stroke="#5AC8FA" stroke-opacity="0.15" stroke-width="1"/>
    <line x1="456" y1="0" x2="456" y2="800" stroke="#5AC8FA" stroke-opacity="0.15" stroke-width="1"/>
    <line x1="480" y1="0" x2="480" y2="800" stroke="#5AC8FA" stroke-opacity="0.3" stroke-width="1.5"/>
    <line x1="504" y1="0" x2="504" y2="800" stroke="#5AC8FA" stroke-opacity="0.15" stroke-width="1"/>
    <line x1="528" y1="0" x2="528" y2="800" stroke="#5AC8FA" stroke-opacity="0.15" stroke-width="1"/>
    <line x1="552" y1="0" x2="552" y2="800" stroke="#5AC8FA" stroke-opacity="0.15" stroke-width="1"/>
    <line x1="576" y1="0" x2="576" y2="800" stroke="#5AC8FA" stroke-opacity="0.3" stroke-width="1.5"/>
    <line x1="600" y1="0" x2="600" y2="800" stroke="#5AC8FA" stroke-opacity="0.15" stroke-width="1"/>
    <line x1="624" y1="0" x2="624" y2="800" stroke="#5AC8FA" stroke-opacity="0.15" stroke-width="1"/>
    <line x1="648" y1="0" x2="648" y2="800" stroke="#5AC8FA" stroke-opacity="0.15" stroke-width="1"/>
    <line x1="672" y1="0" x2="672" y2="800" stroke="#5AC8FA" stroke-opacity="0.3" stroke-width="1.5"/>
    <line x1="696" y1="0" x2="696" y2="800" stroke="#5AC8FA" stroke-opacity="0.15" stroke-width="1"/>
    <line x1="720" y1="0" x2="720" y2="800" stroke="#5AC8FA" stroke-opacity="0.15" stroke-width="1"/>
    <line x1="744" y1="0" x2="744" y2="800" stroke="#5AC8FA" stroke-opacity="0.15" stroke-width="1"/>
    <line x1="768" y1="0" x2="768" y2="800" stroke="#5AC8FA" stroke-opacity="0.3" stroke-width="1.5"/>
    <line x1="792" y1="0" x2="792" y2="800" stroke="#5AC8FA" stroke-opacity="0.15" stroke-width="1"/>
    <line x1="816" y1="0" x2="816" y2="800" stroke="#5AC8FA" stroke-opacity="0.15" stroke-width="1"/>
    <line x1="840" y1="0" x2="840" y2="800" stroke="#5AC8FA" stroke-opacity="0.15" stroke-width="1"/>
    <line x1="864" y1="0" x2="864" y2="800" stroke="#5AC8FA" stroke-opacity="0.3" stroke-width="1.5"/>
    <line x1="888" y1="0" x2="888" y2="800" stroke="#5AC8FA" stroke-opacity="0.15" stroke-width="1"/>
    <line x1="912" y1="0" x2="912" y2="800" stroke="#5AC8FA" stroke-opacity="0.15" stroke-width="1"/>
    <line x1="936" y1="0" x2="936" y2="800" stroke="#5AC8FA" stroke-opacity="0.15" stroke-width="1"/>
    <line x1="960" y1="0" x2="960" y2="800" stroke="#5AC8FA" stroke-opacity="0.3" stroke-width="1.5"/>
    <line x1="984" y1="0" x2="984" y2="800" stroke="#5AC8FA" stroke-opacity="0.15" stroke-width="1"/>
    <line x1="1008" y1="0" x2="1008" y2="800" stroke="#5AC8FA" stroke-opacity="0.15" stroke-width="1"/>
    <line x1="1032" y1="0" x2="1032" y2="800" stroke="#5AC8FA" stroke-opacity="0.15" stroke-width="1"/>
    <line x1="1056" y1="0" x2="1056" y2="800" stroke="#5AC8FA" stroke-opacity="0.3" stroke-width="1.5"/>
    <line x1="1080" y1="0" x2="1080" y2="800" stroke="#5AC8FA" stroke-opacity="0.15" stroke-width="1"/>
    <line x1="1104" y1="0" x2="1104" y2="800" stroke="#5AC8FA" stroke-opacity="0.15" stroke-width="1"/>
    <line x1="1128" y1="0" x2="1128" y2="800" stroke="#5AC8FA" stroke-opacity="0.15" stroke-width="1"/>
    <line x1="1152" y1="0" x2="1152" y2="800" stroke="#5AC8FA" stroke-opacity="0.3" stroke-width="1.5"/>
    <line x1="1176" y1="0" x2="1176" y2="800" stroke="#5AC8FA" stroke-opacity="0.15" stroke-width="1"/>
    <line x1="1200" y1="0" x2="1200" y2="800" stroke="#5AC8FA" stroke-opacity="0.15" stroke-width="1"/>
    <line x1="1224" y1="0" x2="1224" y2="800" stroke="#5AC8FA" stroke-opacity="0.15" stroke-width="1"/>
    <!-- Accent points at major intersections -->
    <circle cx="0" cy="0" r="2" fill="#331F4A" fill-opacity="0.4" filter="url(#grid-glow-navigation-perspective-grid)"/>
    <circle cx="96" cy="0" r="2" fill="#331F4A" fill-opacity="0.4" filter="url(#grid-glow-navigation-perspective-grid)"/>
    <circle cx="192" cy="0" r="2" fill="#331F4A" fill-opacity="0.4" filter="url(#grid-glow-navigation-perspective-grid)"/>
    <circle cx="288" cy="0" r="2" fill="#331F4A" fill-opacity="0.4" filter="url(#grid-glow-navigation-perspective-grid)"/>
    <circle cx="384" cy="0" r="2" fill="#331F4A" fill-opacity="0.4" filter="url(#grid-glow-navigation-perspective-grid)"/>
    <circle cx="480" cy="0" r="2" fill="#331F4A" fill-opacity="0.4" filter="url(#grid-glow-navigation-perspective-grid)"/>
    <circle cx="576" cy="0" r="2" fill="#331F4A" fill-opacity="0.4" filter="url(#grid-glow-navigation-perspective-grid)"/>
    <circle cx="672" cy="0" r="2" fill="#331F4A" fill-opacity="0.4" filter="url(#grid-glow-navigation-perspective-grid)"/>
    <circle cx="768" cy="0" r="2" fill="#331F4A" fill-opacity="0.4" filter="url(#grid-glow-navigation-perspective-grid)"/>
    <circle cx="864" cy="0" r="2" fill="#331F4A" fill-opacity="0.4" filter="url(#grid-glow-navigation-perspective-grid)"/>
    <circle cx="960" cy="0" r="2" fill="#331F4A" fill-opacity="0.4" filter="url(#grid-glow-navigation-perspective-grid)"/>
    <circle cx="1056" cy="0" r="2" fill="#331F4A" fill-opacity="0.4" filter="url(#grid-glow-navigation-perspective-grid)"/>
    <circle cx="1152" cy="0" r="2" fill="#331F4A" fill-opacity="0.4" filter="url(#grid-glow-navigation-perspective-grid)"/>
    <circle cx="0" cy="96" r="2" fill="#331F4A" fill-opacity="0.4" filter="url(#grid-glow-navigation-perspective-grid)"/>
    <circle cx="96" cy="96" r="2" fill="#331F4A" fill-opacity="0.4" filter="url(#grid-glow-navigation-perspective-grid)"/>
    <circle cx="192" cy="96" r="2" fill="#331F4A" fill-opacity="0.4" filter="url(#grid-glow-navigation-perspective-grid)"/>
    <circle cx="288" cy="96" r="2" fill="#331F4A" fill-opacity="0.4" filter="url(#grid-glow-navigation-perspective-grid)"/>
    <circle cx="384" cy="96" r="2" fill="#331F4A" fill-opacity="0.4" filter="url(#grid-glow-navigation-perspective-grid)"/>
    <circle cx="480" cy="96" r="2" fill="#331F4A" fill-opacity="0.4" filter="url(#grid-glow-navigation-perspective-grid)"/>
    <circle cx="576" cy="96" r="2" fill="#331F4A" fill-opacity="0.4" filter="url(#grid-glow-navigation-perspective-grid)"/>
    <circle cx="672" cy="96" r="2" fill="#331F4A" fill-opacity="0.4" filter="url(#grid-glow-navigation-perspective-grid)"/>
    <circle cx="768" cy="96" r="2" fill="#331F4A" fill-opacity="0.4" filter="url(#grid-glow-navigation-perspective-grid)"/>
    <circle cx="864" cy="96" r="2" fill="#331F4A" fill-opacity="0.4" filter="url(#grid-glow-navigation-perspective-grid)"/>
    <circle cx="960" cy="96" r="2" fill="#331F4A" fill-opacity="0.4" filter="url(#grid-glow-navigation-perspective-grid)"/>
    <circle cx="1056" cy="96" r="2" fill="#331F4A" fill-opacity="0.4" filter="url(#grid-glow-navigation-perspective-grid)"/>
    <circle cx="1152" cy="96" r="2" fill="#331F4A" fill-opacity="0.4" filter="url(#grid-glow-navigation-perspective-grid)"/>
    <circle cx="0" cy="192" r="2" fill="#331F4A" fill-opacity="0.4" filter="url(#grid-glow-navigation-perspective-grid)"/>
    <circle cx="96" cy="192" r="2" fill="#331F4A" fill-opacity="0.4" filter="url(#grid-glow-navigation-perspective-grid)"/>
    <circle cx="192" cy="192" r="2" fill="#331F4A" fill-opacity="0.4" filter="url(#grid-glow-navigation-perspective-grid)"/>
    <circle cx="288" cy="192" r="2" fill="#331F4A" fill-opacity="0.4" filter="url(#grid-glow-navigation-perspective-grid)"/>
    <circle cx="384" cy="192" r="2" fill="#331F4A" fill-opacity="0.4" filter="url(#grid-glow-navigation-perspective-grid)"/>
    <circle cx="480" cy="192" r="2" fill="#331F4A" fill-opacity="0.4" filter="url(#grid-glow-navigation-perspective-grid)"/>
    <circle cx="576" cy="192" r="2" fill="#331F4A" fill-opacity="0.4" filter="url(#grid-glow-navigation-perspective-grid)"/>
    <circle cx="672" cy="192" r="2" fill="#331F4A" fill-opacity="0.4" filter="url(#grid-glow-navigation-perspective-grid)"/>
    <circle cx="768" cy="192" r="2" fill="#331F4A" fill-opacity="0.4" filter="url(#grid-glow-navigation-perspective-grid)"/>
    <circle cx="864" cy="192" r="2" fill="#331F4A" fill-opacity="0.4" filter="url(#grid-glow-navigation-perspective-grid)"/>
    <circle cx="960" cy="192" r="2" fill="#331F4A" fill-opacity="0.4" filter="url(#grid-glow-navigation-perspective-grid)"/>
    <circle cx="1056" cy="192" r="2" fill="#331F4A" fill-opacity="0.4" filter="url(#grid-glow-navigation-perspective-grid)"/>
    <circle cx="1152" cy="192" r="2" fill="#331F4A" fill-opacity="0.4" filter="url(#grid-glow-navigation-perspective-grid)"/>
    <circle cx="0" cy="288" r="2" fill="#331F4A" fill-opacity="0.4" filter="url(#grid-glow-navigation-perspective-grid)"/>
    <circle cx="96" cy="288" r="2" fill="#331F4A" fill-opacity="0.4" filter="url(#grid-glow-navigation-perspective-grid)"/>
    <circle cx="192" cy="288" r="2" fill="#331F4A" fill-opacity="0.4" filter="url(#grid-glow-navigation-perspective-grid)"/>
    <circle cx="288" cy="288" r="2" fill="#331F4A" fill-opacity="0.4" filter="url(#grid-glow-navigation-perspective-grid)"/>
    <circle cx="384" cy="288" r="2" fill="#331F4A" fill-opacity="0.4" filter="url(#grid-glow-navigation-perspective-grid)"/>
    <circle cx="480" cy="288" r="2" fill="#331F4A" fill-opacity="0.4" filter="url(#grid-glow-navigation-perspective-grid)"/>
    <circle cx="576" cy="288" r="2" fill="#331F4A" fill-opacity="0.4" filter="url(#grid-glow-navigation-perspective-grid)"/>
    <circle cx="672" cy="288" r="2" fill="#331F4A" fill-opacity="0.4" filter="url(#grid-glow-navigation-perspective-grid)"/>
    <circle cx="768" cy="288" r="2" fill="#331F4A" fill-opacity="0.4" filter="url(#grid-glow-navigation-perspective-grid)"/>
    <circle cx="864" cy="288" r="2" fill="#331F4A" fill-opacity="0.4" filter="url(#grid-glow-navigation-perspective-grid)"/>
    <circle cx="960" cy="288" r="2" fill="#331F4A" fill-opacity="0.4" filter="url(#grid-glow-navigation-perspective-grid)"/>
    <circle cx="1056" cy="288" r="2" fill="#331F4A" fill-opacity="0.4" filter="url(#grid-glow-navigation-perspective-grid)"/>
    <circle cx="1152" cy="288" r="2" fill="#331F4A" fill-opacity="0.4" filter="url(#grid-glow-navigation-perspective-grid)"/>
    <circle cx="0" cy="384" r="2" fill="#331F4A" fill-opacity="0.4" filter="url(#grid-glow-navigation-perspective-grid)"/>
    <circle cx="96" cy="384" r="2" fill="#331F4A" fill-opacity="0.4" filter="url(#grid-glow-navigation-perspective-grid)"/>
    <circle cx="192" cy="384" r="2" fill="#331F4A" fill-opacity="0.4" filter="url(#grid-glow-navigation-perspective-grid)"/>
    <circle cx="288" cy="384" r="2" fill="#331F4A" fill-opacity="0.4" filter="url(#grid-glow-navigation-perspective-grid)"/>
    <circle cx="384" cy="384" r="2" fill="#331F4A" fill-opacity="0.4" filter="url(#grid-glow-navigation-perspective-grid)"/>
    <circle cx="480" cy="384" r="2" fill="#331F4A" fill-opacity="0.4" filter="url(#grid-glow-navigation-perspective-grid)"/>
    <circle cx="576" cy="384" r="2" fill="#331F4A" fill-opacity="0.4" filter="url(#grid-glow-navigation-perspective-grid)"/>
    <circle cx="672" cy="384" r="2" fill="#331F4A" fill-opacity="0.4" filter="url(#grid-glow-navigation-perspective-grid)"/>
    <circle cx="768" cy="384" r="2" fill="#331F4A" fill-opacity="0.4" filter="url(#grid-glow-navigation-perspective-grid)"/>
    <circle cx="864" cy="384" r="2" fill="#331F4A" fill-opacity="0.4" filter="url(#grid-glow-navigation-perspective-grid)"/>
    <circle cx="960" cy="384" r="2" fill="#331F4A" fill-opacity="0.4" filter="url(#grid-glow-navigation-perspective-grid)"/>
    <circle cx="1056" cy="384" r="2" fill="#331F4A" fill-opacity="0.4" filter="url(#grid-glow-navigation-perspective-grid)"/>
    <circle cx="1152" cy="384" r="2" fill="#331F4A" fill-opacity="0.4" filter="url(#grid-glow-navigation-perspective-grid)"/>
    <circle cx="0" cy="480" r="2" fill="#331F4A" fill-opacity="0.4" filter="url(#grid-glow-navigation-perspective-grid)"/>
    <circle cx="96" cy="480" r="2" fill="#331F4A" fill-opacity="0.4" filter="url(#grid-glow-navigation-perspective-grid)"/>
    <circle cx="192" cy="480" r="2" fill="#331F4A" fill-opacity="0.4" filter="url(#grid-glow-navigation-perspective-grid)"/>
    <circle cx="288" cy="480" r="2" fill="#331F4A" fill-opacity="0.4" filter="url(#grid-glow-navigation-perspective-grid)"/>
    <circle cx="384" cy="480" r="2" fill="#331F4A" fill-opacity="0.4" filter="url(#grid-glow-navigation-perspective-grid)"/>
    <circle cx="480" cy="480" r="2" fill="#331F4A" fill-opacity="0.4" filter="url(#grid-glow-navigation-perspective-grid)"/>
    <circle cx="576" cy="480" r="2" fill="#331F4A" fill-opacity="0.4" filter="url(#grid-glow-navigation-perspective-grid)"/>
    <circle cx="672" cy="480" r="2" fill="#331F4A" fill-opacity="0.4" filter="url(#grid-glow-navigation-perspective-grid)"/>
    <circle cx="768" cy="480" r="2" fill="#331F4A" fill-opacity="0.4" filter="url(#grid-glow-navigation-perspective-grid)"/>
    <circle cx="864" cy="480" r="2" fill="#331F4A" fill-opacity="0.4" filter="url(#grid-glow-navigation-perspective-grid)"/>
    <circle cx="960" cy="480" r="2" fill="#331F4A" fill-opacity="0.4" filter="url(#grid-glow-navigation-perspective-grid)"/>
    <circle cx="1056" cy="480" r="2" fill="#331F4A" fill-opacity="0.4" filter="url(#grid-glow-navigation-perspective-grid)"/>
    <circle cx="1152" cy="480" r="2" fill="#331F4A" fill-opacity="0.4" filter="url(#grid-glow-navigation-perspective-grid)"/>
    <circle cx="0" cy="576" r="2" fill="#331F4A" fill-opacity="0.4" filter="url(#grid-glow-navigation-perspective-grid)"/>
    <circle cx="96" cy="576" r="2" fill="#331F4A" fill-opacity="0.4" filter="url(#grid-glow-navigation-perspective-grid)"/>
    <circle cx="192" cy="576" r="2" fill="#331F4A" fill-opacity="0.4" filter="url(#grid-glow-navigation-perspective-grid)"/>
    <circle cx="288" cy="576" r="2" fill="#331F4A" fill-opacity="0.4" filter="url(#grid-glow-navigation-perspective-grid)"/>
    <circle cx="384" cy="576" r="2" fill="#331F4A" fill-opacity="0.4" filter="url(#grid-glow-navigation-perspective-grid)"/>
    <circle cx="480" cy="576" r="2" fill="#331F4A" fill-opacity="0.4" filter="url(#grid-glow-navigation-perspective-grid)"/>
    <circle cx="576" cy="576" r="2" fill="#331F4A" fill-opacity="0.4" filter="url(#grid-glow-navigation-perspective-grid)"/>
    <circle cx="672" cy="576" r="2" fill="#331F4A" fill-opacity="0.4" filter="url(#grid-glow-navigation-perspective-grid)"/>
    <circle cx="768" cy="576" r="2" fill="#331F4A" fill-opacity="0.4" filter="url(#grid-glow-navigation-perspective-grid)"/>
    <circle cx="864" cy="576" r="2" fill="#331F4A" fill-opacity="0.4" filter="url(#grid-glow-navigation-perspective-grid)"/>
    <circle cx="960" cy="576" r="2" fill="#331F4A" fill-opacity="0.4" filter="url(#grid-glow-navigation-perspective-grid)"/>
    <circle cx="1056" cy="576" r="2" fill="#331F4A" fill-opacity="0.4" filter="url(#grid-glow-navigation-perspective-grid)"/>
    <circle cx="1152" cy="576" r="2" fill="#331F4A" fill-opacity="0.4" filter="url(#grid-glow-navigation-perspective-grid)"/>
    <circle cx="0" cy="672" r="2" fill="#331F4A" fill-opacity="0.4" filter="url(#grid-glow-navigation-perspective-grid)"/>
    <circle cx="96" cy="672" r="2" fill="#331F4A" fill-opacity="0.4" filter="url(#grid-glow-navigation-perspective-grid)"/>
    <circle cx="192" cy="672" r="2" fill="#331F4A" fill-opacity="0.4" filter="url(#grid-glow-navigation-perspective-grid)"/>
    <circle cx="288" cy="672" r="2" fill="#331F4A" fill-opacity="0.4" filter="url(#grid-glow-navigation-perspective-grid)"/>
    <circle cx="384" cy="672" r="2" fill="#331F4A" fill-opacity="0.4" filter="url(#grid-glow-navigation-perspective-grid)"/>
    <circle cx="480" cy="672" r="2" fill="#331F4A" fill-opacity="0.4" filter="url(#grid-glow-navigation-perspective-grid)"/>
    <circle cx="576" cy="672" r="2" fill="#331F4A" fill-opacity="0.4" filter="url(#grid-glow-navigation-perspective-grid)"/>
    <circle cx="672" cy="672" r="2" fill="#331F4A" fill-opacity="0.4" filter="url(#grid-glow-navigation-perspective-grid)"/>
    <circle cx="768" cy="672" r="2" fill="#331F4A" fill-opacity="0.4" filter="url(#grid-glow-navigation-perspective-grid)"/>
    <circle cx="864" cy="672" r="2" fill="#331F4A" fill-opacity="0.4" filter="url(#grid-glow-navigation-perspective-grid)"/>
    <circle cx="960" cy="672" r="2" fill="#331F4A" fill-opacity="0.4" filter="url(#grid-glow-navigation-perspective-grid)"/>
    <circle cx="1056" cy="672" r="2" fill="#331F4A" fill-opacity="0.4" filter="url(#grid-glow-navigation-perspective-grid)"/>
    <circle cx="1152" cy="672" r="2" fill="#331F4A" fill-opacity="0.4" filter="url(#grid-glow-navigation-perspective-grid)"/>
    <circle cx="0" cy="768" r="2" fill="#331F4A" fill-opacity="0.4" filter="url(#grid-glow-navigation-perspective-grid)"/>
    <circle cx="96" cy="768" r="2" fill="#331F4A" fill-opacity="0.4" filter="url(#grid-glow-navigation-perspective-grid)"/>
    <circle cx="192" cy="768" r="2" fill="#331F4A" fill-opacity="0.4" filter="url(#grid-glow-navigation-perspective-grid)"/>
    <circle cx="288" cy="768" r="2" fill="#331F4A" fill-opacity="0.4" filter="url(#grid-glow-navigation-perspective-grid)"/>
    <circle cx="384" cy="768" r="2" fill="#331F4A" fill-opacity="0.4" filter="url(#grid-glow-navigation-perspective-grid)"/>
    <circle cx="480" cy="768" r="2" fill="#331F4A" fill-opacity="0.4" filter="url(#grid-glow-navigation-perspective-grid)"/>
    <circle cx="576" cy="768" r="2" fill="#331F4A" fill-opacity="0.4" filter="url(#grid-glow-navigation-perspective-grid)"/>
    <circle cx="672" cy="768" r="2" fill="#331F4A" fill-opacity="0.4" filter="url(#grid-glow-navigation-perspective-grid)"/>
    <circle cx="768" cy="768" r="2" fill="#331F4A" fill-opacity="0.4" filter="url(#grid-glow-navigation-perspective-grid)"/>
    <circle cx="864" cy="768" r="2" fill="#331F4A" fill-opacity="0.4" filter="url(#grid-glow-navigation-perspective-grid)"/>
    <circle cx="960" cy="768" r="2" fill="#331F4A" fill-opacity="0.4" filter="url(#grid-glow-navigation-perspective-grid)"/>
    <circle cx="1056" cy="768" r="2" fill="#331F4A" fill-opacity="0.4" filter="url(#grid-glow-navigation-perspective-grid)"/>
    <circle cx="1152" cy="768" r="2" fill="#331F4A" fill-opacity="0.4" filter="url(#grid-glow-navigation-perspective-grid)"/>
  </g>
</svg>