<svg width="1200" height="800" viewBox="0 0 1200 800" xmlns="http://www.w3.org/2000/svg">
  <defs>
    <linearGradient id="distortion-gradient-quantum-distortion-grid" x1="0%" y1="0%" x2="100%" y2="100%">
      <stop offset="0%" stop-color="#FF2D55" stop-opacity="0.18"/>
      <stop offset="100%" stop-color="#6A3093" stop-opacity="0.15"/>
    </linearGradient>
  </defs>
  <g class="distortion-grid" transform="skew(10deg, 5deg)">
    <!-- Horizontal lines -->
    <line x1="0" y1="0" x2="1200" y2="0" stroke="url(#distortion-gradient-quantum-distortion-grid)" stroke-width="1"/>
    <line x1="0" y1="16" x2="1200" y2="16" stroke="url(#distortion-gradient-quantum-distortion-grid)" stroke-width="1"/>
    <line x1="0" y1="32" x2="1200" y2="32" stroke="url(#distortion-gradient-quantum-distortion-grid)" stroke-width="1"/>
    <line x1="0" y1="48" x2="1200" y2="48" stroke="url(#distortion-gradient-quantum-distortion-grid)" stroke-width="1"/>
    <line x1="0" y1="64" x2="1200" y2="64" stroke="url(#distortion-gradient-quantum-distortion-grid)" stroke-width="1"/>
    <line x1="0" y1="80" x2="1200" y2="80" stroke="url(#distortion-gradient-quantum-distortion-grid)" stroke-width="1"/>
    <line x1="0" y1="96" x2="1200" y2="96" stroke="url(#distortion-gradient-quantum-distortion-grid)" stroke-width="1"/>
    <line x1="0" y1="112" x2="1200" y2="112" stroke="url(#distortion-gradient-quantum-distortion-grid)" stroke-width="1"/>
    <line x1="0" y1="128" x2="1200" y2="128" stroke="url(#distortion-gradient-quantum-distortion-grid)" stroke-width="1"/>
    <line x1="0" y1="144" x2="1200" y2="144" stroke="url(#distortion-gradient-quantum-distortion-grid)" stroke-width="1"/>
    <line x1="0" y1="160" x2="1200" y2="160" stroke="url(#distortion-gradient-quantum-distortion-grid)" stroke-width="1"/>
    <line x1="0" y1="176" x2="1200" y2="176" stroke="url(#distortion-gradient-quantum-distortion-grid)" stroke-width="1"/>
    <line x1="0" y1="192" x2="1200" y2="192" stroke="url(#distortion-gradient-quantum-distortion-grid)" stroke-width="1"/>
    <line x1="0" y1="208" x2="1200" y2="208" stroke="url(#distortion-gradient-quantum-distortion-grid)" stroke-width="1"/>
    <line x1="0" y1="224" x2="1200" y2="224" stroke="url(#distortion-gradient-quantum-distortion-grid)" stroke-width="1"/>
    <line x1="0" y1="240" x2="1200" y2="240" stroke="url(#distortion-gradient-quantum-distortion-grid)" stroke-width="1"/>
    <line x1="0" y1="256" x2="1200" y2="256" stroke="url(#distortion-gradient-quantum-distortion-grid)" stroke-width="1"/>
    <line x1="0" y1="272" x2="1200" y2="272" stroke="url(#distortion-gradient-quantum-distortion-grid)" stroke-width="1"/>
    <line x1="0" y1="288" x2="1200" y2="288" stroke="url(#distortion-gradient-quantum-distortion-grid)" stroke-width="1"/>
    <line x1="0" y1="304" x2="1200" y2="304" stroke="url(#distortion-gradient-quantum-distortion-grid)" stroke-width="1"/>
    <line x1="0" y1="320" x2="1200" y2="320" stroke="url(#distortion-gradient-quantum-distortion-grid)" stroke-width="1"/>
    <line x1="0" y1="336" x2="1200" y2="336" stroke="url(#distortion-gradient-quantum-distortion-grid)" stroke-width="1"/>
    <line x1="0" y1="352" x2="1200" y2="352" stroke="url(#distortion-gradient-quantum-distortion-grid)" stroke-width="1"/>
    <line x1="0" y1="368" x2="1200" y2="368" stroke="url(#distortion-gradient-quantum-distortion-grid)" stroke-width="1"/>
    <line x1="0" y1="384" x2="1200" y2="384" stroke="url(#distortion-gradient-quantum-distortion-grid)" stroke-width="1"/>
    <line x1="0" y1="400" x2="1200" y2="400" stroke="url(#distortion-gradient-quantum-distortion-grid)" stroke-width="1"/>
    <line x1="0" y1="416" x2="1200" y2="416" stroke="url(#distortion-gradient-quantum-distortion-grid)" stroke-width="1"/>
    <line x1="0" y1="432" x2="1200" y2="432" stroke="url(#distortion-gradient-quantum-distortion-grid)" stroke-width="1"/>
    <line x1="0" y1="448" x2="1200" y2="448" stroke="url(#distortion-gradient-quantum-distortion-grid)" stroke-width="1"/>
    <line x1="0" y1="464" x2="1200" y2="464" stroke="url(#distortion-gradient-quantum-distortion-grid)" stroke-width="1"/>
    <line x1="0" y1="480" x2="1200" y2="480" stroke="url(#distortion-gradient-quantum-distortion-grid)" stroke-width="1"/>
    <line x1="0" y1="496" x2="1200" y2="496" stroke="url(#distortion-gradient-quantum-distortion-grid)" stroke-width="1"/>
    <line x1="0" y1="512" x2="1200" y2="512" stroke="url(#distortion-gradient-quantum-distortion-grid)" stroke-width="1"/>
    <line x1="0" y1="528" x2="1200" y2="528" stroke="url(#distortion-gradient-quantum-distortion-grid)" stroke-width="1"/>
    <line x1="0" y1="544" x2="1200" y2="544" stroke="url(#distortion-gradient-quantum-distortion-grid)" stroke-width="1"/>
    <line x1="0" y1="560" x2="1200" y2="560" stroke="url(#distortion-gradient-quantum-distortion-grid)" stroke-width="1"/>
    <line x1="0" y1="576" x2="1200" y2="576" stroke="url(#distortion-gradient-quantum-distortion-grid)" stroke-width="1"/>
    <line x1="0" y1="592" x2="1200" y2="592" stroke="url(#distortion-gradient-quantum-distortion-grid)" stroke-width="1"/>
    <line x1="0" y1="608" x2="1200" y2="608" stroke="url(#distortion-gradient-quantum-distortion-grid)" stroke-width="1"/>
    <line x1="0" y1="624" x2="1200" y2="624" stroke="url(#distortion-gradient-quantum-distortion-grid)" stroke-width="1"/>
    <line x1="0" y1="640" x2="1200" y2="640" stroke="url(#distortion-gradient-quantum-distortion-grid)" stroke-width="1"/>
    <line x1="0" y1="656" x2="1200" y2="656" stroke="url(#distortion-gradient-quantum-distortion-grid)" stroke-width="1"/>
    <line x1="0" y1="672" x2="1200" y2="672" stroke="url(#distortion-gradient-quantum-distortion-grid)" stroke-width="1"/>
    <line x1="0" y1="688" x2="1200" y2="688" stroke="url(#distortion-gradient-quantum-distortion-grid)" stroke-width="1"/>
    <line x1="0" y1="704" x2="1200" y2="704" stroke="url(#distortion-gradient-quantum-distortion-grid)" stroke-width="1"/>
    <line x1="0" y1="720" x2="1200" y2="720" stroke="url(#distortion-gradient-quantum-distortion-grid)" stroke-width="1"/>
    <line x1="0" y1="736" x2="1200" y2="736" stroke="url(#distortion-gradient-quantum-distortion-grid)" stroke-width="1"/>
    <line x1="0" y1="752" x2="1200" y2="752" stroke="url(#distortion-gradient-quantum-distortion-grid)" stroke-width="1"/>
    <line x1="0" y1="768" x2="1200" y2="768" stroke="url(#distortion-gradient-quantum-distortion-grid)" stroke-width="1"/>
    <line x1="0" y1="784" x2="1200" y2="784" stroke="url(#distortion-gradient-quantum-distortion-grid)" stroke-width="1"/>
    <line x1="0" y1="800" x2="1200" y2="800" stroke="url(#distortion-gradient-quantum-distortion-grid)" stroke-width="1"/>
    <line x1="0" y1="816" x2="1200" y2="816" stroke="url(#distortion-gradient-quantum-distortion-grid)" stroke-width="1"/>
    <!-- Vertical lines -->
    <line x1="0" y1="0" x2="0" y2="800" stroke="url(#distortion-gradient-quantum-distortion-grid)" stroke-width="1"/>
    <line x1="16" y1="0" x2="16" y2="800" stroke="url(#distortion-gradient-quantum-distortion-grid)" stroke-width="1"/>
    <line x1="32" y1="0" x2="32" y2="800" stroke="url(#distortion-gradient-quantum-distortion-grid)" stroke-width="1"/>
    <line x1="48" y1="0" x2="48" y2="800" stroke="url(#distortion-gradient-quantum-distortion-grid)" stroke-width="1"/>
    <line x1="64" y1="0" x2="64" y2="800" stroke="url(#distortion-gradient-quantum-distortion-grid)" stroke-width="1"/>
    <line x1="80" y1="0" x2="80" y2="800" stroke="url(#distortion-gradient-quantum-distortion-grid)" stroke-width="1"/>
    <line x1="96" y1="0" x2="96" y2="800" stroke="url(#distortion-gradient-quantum-distortion-grid)" stroke-width="1"/>
    <line x1="112" y1="0" x2="112" y2="800" stroke="url(#distortion-gradient-quantum-distortion-grid)" stroke-width="1"/>
    <line x1="128" y1="0" x2="128" y2="800" stroke="url(#distortion-gradient-quantum-distortion-grid)" stroke-width="1"/>
    <line x1="144" y1="0" x2="144" y2="800" stroke="url(#distortion-gradient-quantum-distortion-grid)" stroke-width="1"/>
    <line x1="160" y1="0" x2="160" y2="800" stroke="url(#distortion-gradient-quantum-distortion-grid)" stroke-width="1"/>
    <line x1="176" y1="0" x2="176" y2="800" stroke="url(#distortion-gradient-quantum-distortion-grid)" stroke-width="1"/>
    <line x1="192" y1="0" x2="192" y2="800" stroke="url(#distortion-gradient-quantum-distortion-grid)" stroke-width="1"/>
    <line x1="208" y1="0" x2="208" y2="800" stroke="url(#distortion-gradient-quantum-distortion-grid)" stroke-width="1"/>
    <line x1="224" y1="0" x2="224" y2="800" stroke="url(#distortion-gradient-quantum-distortion-grid)" stroke-width="1"/>
    <line x1="240" y1="0" x2="240" y2="800" stroke="url(#distortion-gradient-quantum-distortion-grid)" stroke-width="1"/>
    <line x1="256" y1="0" x2="256" y2="800" stroke="url(#distortion-gradient-quantum-distortion-grid)" stroke-width="1"/>
    <line x1="272" y1="0" x2="272" y2="800" stroke="url(#distortion-gradient-quantum-distortion-grid)" stroke-width="1"/>
    <line x1="288" y1="0" x2="288" y2="800" stroke="url(#distortion-gradient-quantum-distortion-grid)" stroke-width="1"/>
    <line x1="304" y1="0" x2="304" y2="800" stroke="url(#distortion-gradient-quantum-distortion-grid)" stroke-width="1"/>
    <line x1="320" y1="0" x2="320" y2="800" stroke="url(#distortion-gradient-quantum-distortion-grid)" stroke-width="1"/>
    <line x1="336" y1="0" x2="336" y2="800" stroke="url(#distortion-gradient-quantum-distortion-grid)" stroke-width="1"/>
    <line x1="352" y1="0" x2="352" y2="800" stroke="url(#distortion-gradient-quantum-distortion-grid)" stroke-width="1"/>
    <line x1="368" y1="0" x2="368" y2="800" stroke="url(#distortion-gradient-quantum-distortion-grid)" stroke-width="1"/>
    <line x1="384" y1="0" x2="384" y2="800" stroke="url(#distortion-gradient-quantum-distortion-grid)" stroke-width="1"/>
    <line x1="400" y1="0" x2="400" y2="800" stroke="url(#distortion-gradient-quantum-distortion-grid)" stroke-width="1"/>
    <line x1="416" y1="0" x2="416" y2="800" stroke="url(#distortion-gradient-quantum-distortion-grid)" stroke-width="1"/>
    <line x1="432" y1="0" x2="432" y2="800" stroke="url(#distortion-gradient-quantum-distortion-grid)" stroke-width="1"/>
    <line x1="448" y1="0" x2="448" y2="800" stroke="url(#distortion-gradient-quantum-distortion-grid)" stroke-width="1"/>
    <line x1="464" y1="0" x2="464" y2="800" stroke="url(#distortion-gradient-quantum-distortion-grid)" stroke-width="1"/>
    <line x1="480" y1="0" x2="480" y2="800" stroke="url(#distortion-gradient-quantum-distortion-grid)" stroke-width="1"/>
    <line x1="496" y1="0" x2="496" y2="800" stroke="url(#distortion-gradient-quantum-distortion-grid)" stroke-width="1"/>
    <line x1="512" y1="0" x2="512" y2="800" stroke="url(#distortion-gradient-quantum-distortion-grid)" stroke-width="1"/>
    <line x1="528" y1="0" x2="528" y2="800" stroke="url(#distortion-gradient-quantum-distortion-grid)" stroke-width="1"/>
    <line x1="544" y1="0" x2="544" y2="800" stroke="url(#distortion-gradient-quantum-distortion-grid)" stroke-width="1"/>
    <line x1="560" y1="0" x2="560" y2="800" stroke="url(#distortion-gradient-quantum-distortion-grid)" stroke-width="1"/>
    <line x1="576" y1="0" x2="576" y2="800" stroke="url(#distortion-gradient-quantum-distortion-grid)" stroke-width="1"/>
    <line x1="592" y1="0" x2="592" y2="800" stroke="url(#distortion-gradient-quantum-distortion-grid)" stroke-width="1"/>
    <line x1="608" y1="0" x2="608" y2="800" stroke="url(#distortion-gradient-quantum-distortion-grid)" stroke-width="1"/>
    <line x1="624" y1="0" x2="624" y2="800" stroke="url(#distortion-gradient-quantum-distortion-grid)" stroke-width="1"/>
    <line x1="640" y1="0" x2="640" y2="800" stroke="url(#distortion-gradient-quantum-distortion-grid)" stroke-width="1"/>
    <line x1="656" y1="0" x2="656" y2="800" stroke="url(#distortion-gradient-quantum-distortion-grid)" stroke-width="1"/>
    <line x1="672" y1="0" x2="672" y2="800" stroke="url(#distortion-gradient-quantum-distortion-grid)" stroke-width="1"/>
    <line x1="688" y1="0" x2="688" y2="800" stroke="url(#distortion-gradient-quantum-distortion-grid)" stroke-width="1"/>
    <line x1="704" y1="0" x2="704" y2="800" stroke="url(#distortion-gradient-quantum-distortion-grid)" stroke-width="1"/>
    <line x1="720" y1="0" x2="720" y2="800" stroke="url(#distortion-gradient-quantum-distortion-grid)" stroke-width="1"/>
    <line x1="736" y1="0" x2="736" y2="800" stroke="url(#distortion-gradient-quantum-distortion-grid)" stroke-width="1"/>
    <line x1="752" y1="0" x2="752" y2="800" stroke="url(#distortion-gradient-quantum-distortion-grid)" stroke-width="1"/>
    <line x1="768" y1="0" x2="768" y2="800" stroke="url(#distortion-gradient-quantum-distortion-grid)" stroke-width="1"/>
    <line x1="784" y1="0" x2="784" y2="800" stroke="url(#distortion-gradient-quantum-distortion-grid)" stroke-width="1"/>
    <line x1="800" y1="0" x2="800" y2="800" stroke="url(#distortion-gradient-quantum-distortion-grid)" stroke-width="1"/>
    <line x1="816" y1="0" x2="816" y2="800" stroke="url(#distortion-gradient-quantum-distortion-grid)" stroke-width="1"/>
    <line x1="832" y1="0" x2="832" y2="800" stroke="url(#distortion-gradient-quantum-distortion-grid)" stroke-width="1"/>
    <line x1="848" y1="0" x2="848" y2="800" stroke="url(#distortion-gradient-quantum-distortion-grid)" stroke-width="1"/>
    <line x1="864" y1="0" x2="864" y2="800" stroke="url(#distortion-gradient-quantum-distortion-grid)" stroke-width="1"/>
    <line x1="880" y1="0" x2="880" y2="800" stroke="url(#distortion-gradient-quantum-distortion-grid)" stroke-width="1"/>
    <line x1="896" y1="0" x2="896" y2="800" stroke="url(#distortion-gradient-quantum-distortion-grid)" stroke-width="1"/>
    <line x1="912" y1="0" x2="912" y2="800" stroke="url(#distortion-gradient-quantum-distortion-grid)" stroke-width="1"/>
    <line x1="928" y1="0" x2="928" y2="800" stroke="url(#distortion-gradient-quantum-distortion-grid)" stroke-width="1"/>
    <line x1="944" y1="0" x2="944" y2="800" stroke="url(#distortion-gradient-quantum-distortion-grid)" stroke-width="1"/>
    <line x1="960" y1="0" x2="960" y2="800" stroke="url(#distortion-gradient-quantum-distortion-grid)" stroke-width="1"/>
    <line x1="976" y1="0" x2="976" y2="800" stroke="url(#distortion-gradient-quantum-distortion-grid)" stroke-width="1"/>
    <line x1="992" y1="0" x2="992" y2="800" stroke="url(#distortion-gradient-quantum-distortion-grid)" stroke-width="1"/>
    <line x1="1008" y1="0" x2="1008" y2="800" stroke="url(#distortion-gradient-quantum-distortion-grid)" stroke-width="1"/>
    <line x1="1024" y1="0" x2="1024" y2="800" stroke="url(#distortion-gradient-quantum-distortion-grid)" stroke-width="1"/>
    <line x1="1040" y1="0" x2="1040" y2="800" stroke="url(#distortion-gradient-quantum-distortion-grid)" stroke-width="1"/>
    <line x1="1056" y1="0" x2="1056" y2="800" stroke="url(#distortion-gradient-quantum-distortion-grid)" stroke-width="1"/>
    <line x1="1072" y1="0" x2="1072" y2="800" stroke="url(#distortion-gradient-quantum-distortion-grid)" stroke-width="1"/>
    <line x1="1088" y1="0" x2="1088" y2="800" stroke="url(#distortion-gradient-quantum-distortion-grid)" stroke-width="1"/>
    <line x1="1104" y1="0" x2="1104" y2="800" stroke="url(#distortion-gradient-quantum-distortion-grid)" stroke-width="1"/>
    <line x1="1120" y1="0" x2="1120" y2="800" stroke="url(#distortion-gradient-quantum-distortion-grid)" stroke-width="1"/>
    <line x1="1136" y1="0" x2="1136" y2="800" stroke="url(#distortion-gradient-quantum-distortion-grid)" stroke-width="1"/>
    <line x1="1152" y1="0" x2="1152" y2="800" stroke="url(#distortion-gradient-quantum-distortion-grid)" stroke-width="1"/>
    <line x1="1168" y1="0" x2="1168" y2="800" stroke="url(#distortion-gradient-quantum-distortion-grid)" stroke-width="1"/>
    <line x1="1184" y1="0" x2="1184" y2="800" stroke="url(#distortion-gradient-quantum-distortion-grid)" stroke-width="1"/>
    <line x1="1200" y1="0" x2="1200" y2="800" stroke="url(#distortion-gradient-quantum-distortion-grid)" stroke-width="1"/>
    <line x1="1216" y1="0" x2="1216" y2="800" stroke="url(#distortion-gradient-quantum-distortion-grid)" stroke-width="1"/>
    <!-- Distortion elements -->
    <line x1="302.1583339495643" y1="80.89274031016878" x2="349.6153807989832" y2="114.08213484050007" stroke="#6A3093" stroke-opacity="0.22499999999999998" stroke-width="1.5"/>
    <line x1="401.03652031884695" y1="344.4847044631383" x2="394.23218916644066" y2="322.0980256936308" stroke="#6A3093" stroke-opacity="0.22499999999999998" stroke-width="1.5"/>
    <line x1="975.088401210506" y1="690.6221666547397" x2="996.6030045156318" y2="739.3761028308427" stroke="#6A3093" stroke-opacity="0.22499999999999998" stroke-width="1.5"/>
    <line x1="182.1948660598933" y1="316.0147425000419" x2="171.78422523328993" y2="357.0085034320492" stroke="#6A3093" stroke-opacity="0.22499999999999998" stroke-width="1.5"/>
    <line x1="806.1265682726734" y1="724.8049396916796" x2="820.7174385508522" y2="750.6376464069523" stroke="#6A3093" stroke-opacity="0.22499999999999998" stroke-width="1.5"/>
  </g>
</svg>