<svg width="1320" height="823" viewBox="0 0 1320 823" fill="none" xmlns="http://www.w3.org/2000/svg">
<g clip-path="url(#clip0_7044_30568)">
<rect width="248" height="982" fill="black" fill-opacity="0.6"/>
<rect opacity="0.3" y="111" width="248" height="1" fill="white" fill-opacity="0.5"/>
<circle opacity="0.1" cx="36" cy="84" r="12" fill="white" fill-opacity="0.5"/>
<rect opacity="0.3" x="64" y="76" width="104" height="16" rx="8" fill="white" fill-opacity="0.5"/>
<rect opacity="0.3" y="439" width="248" height="1" fill="white" fill-opacity="0.5"/>
<circle opacity="0.1" cx="36" cy="412" r="12" fill="white" fill-opacity="0.5"/>
<rect opacity="0.3" x="64" y="404" width="104" height="16" rx="8" fill="white" fill-opacity="0.5"/>
<rect opacity="0.3" y="767" width="248" height="1" fill="white" fill-opacity="0.5"/>
<circle opacity="0.1" cx="36" cy="740" r="12" fill="white" fill-opacity="0.5"/>
<rect opacity="0.3" x="64" y="732" width="104" height="16" rx="8" fill="white" fill-opacity="0.5"/>
<rect opacity="0.3" y="167" width="248" height="1" fill="white" fill-opacity="0.5"/>
<circle opacity="0.1" cx="36" cy="140" r="12" fill="white" fill-opacity="0.5"/>
<rect opacity="0.3" x="64" y="132" width="104" height="16" rx="8" fill="white" fill-opacity="0.5"/>
<rect opacity="0.3" y="495" width="248" height="1" fill="white" fill-opacity="0.5"/>
<circle opacity="0.1" cx="36" cy="468" r="12" fill="white" fill-opacity="0.5"/>
<rect opacity="0.3" x="64" y="460" width="104" height="16" rx="8" fill="white" fill-opacity="0.5"/>
<circle opacity="0.1" cx="36" cy="796" r="12" fill="white" fill-opacity="0.5"/>
<rect opacity="0.3" x="64" y="788" width="104" height="16" rx="8" fill="white" fill-opacity="0.5"/>
<rect opacity="0.3" y="223" width="248" height="1" fill="white" fill-opacity="0.5"/>
<circle opacity="0.1" cx="36" cy="196" r="12" fill="white" fill-opacity="0.5"/>
<rect opacity="0.3" x="64" y="188" width="104" height="16" rx="8" fill="white" fill-opacity="0.5"/>
<rect opacity="0.3" y="551" width="248" height="1" fill="white" fill-opacity="0.5"/>
<circle opacity="0.1" cx="36" cy="524" r="12" fill="white" fill-opacity="0.5"/>
<rect opacity="0.3" x="64" y="516" width="104" height="16" rx="8" fill="white" fill-opacity="0.5"/>
<rect opacity="0.3" y="279" width="248" height="1" fill="white" fill-opacity="0.5"/>
<circle opacity="0.1" cx="36" cy="252" r="12" fill="white" fill-opacity="0.5"/>
<rect opacity="0.3" x="64" y="244" width="104" height="16" rx="8" fill="white" fill-opacity="0.5"/>
<rect opacity="0.3" y="607" width="248" height="1" fill="white" fill-opacity="0.5"/>
<circle opacity="0.1" cx="36" cy="580" r="12" fill="white" fill-opacity="0.5"/>
<rect opacity="0.3" x="64" y="572" width="104" height="16" rx="8" fill="white" fill-opacity="0.5"/>
<rect opacity="0.3" y="335" width="248" height="1" fill="white" fill-opacity="0.5"/>
<circle opacity="0.1" cx="36" cy="308" r="12" fill="white" fill-opacity="0.5"/>
<rect opacity="0.3" x="64" y="300" width="104" height="16" rx="8" fill="white" fill-opacity="0.5"/>
<rect opacity="0.3" y="663" width="248" height="1" fill="white" fill-opacity="0.5"/>
<circle opacity="0.1" cx="36" cy="636" r="12" fill="white" fill-opacity="0.5"/>
<rect opacity="0.3" x="64" y="628" width="104" height="16" rx="8" fill="white" fill-opacity="0.5"/>
<rect width="1072" height="48" transform="translate(248)" fill="black" fill-opacity="0.6"/>
<g opacity="0.3">
<rect x="264" y="8" width="300" height="32" rx="16" fill="white" fill-opacity="0.5"/>
</g>
<circle opacity="0.1" cx="1176" cy="24" r="16" fill="white" fill-opacity="0.5"/>
<circle opacity="0.2" cx="1232" cy="24" r="16" fill="white" fill-opacity="0.5"/>
<circle opacity="0.3" cx="1288" cy="24" r="16" fill="white" fill-opacity="0.5"/>
<g clip-path="url(#clip1_7044_30568)">
<rect width="1072" height="870" transform="translate(248 48)" fill="black" fill-opacity="0.1"/>
<g clip-path="url(#clip2_7044_30568)">
<rect x="403" y="80" width="376" height="336" rx="12" fill="black" fill-opacity="0.1"/>
<rect width="376" height="208" transform="translate(403 80)" fill="black" fill-opacity="0.1"/>
<rect width="376" height="128" transform="translate(403 288)" fill="black" fill-opacity="0.6"/>
<circle opacity="0.3" cx="439" cy="324" r="20" fill="white" fill-opacity="0.5"/>
<rect opacity="0.2" x="475" y="340" width="104" height="16" rx="8" fill="white" fill-opacity="0.5"/>
<rect opacity="0.3" x="475" y="304" width="280" height="24" rx="12" fill="white" fill-opacity="0.5"/>
<rect opacity="0.1" x="475" y="364" width="128" height="16" rx="8" fill="white" fill-opacity="0.5"/>
</g>
<g clip-path="url(#clip3_7044_30568)">
<rect x="789" y="80" width="376" height="336" rx="12" fill="black" fill-opacity="0.1"/>
<rect width="376" height="208" transform="translate(789 80)" fill="black" fill-opacity="0.1"/>
<rect width="376" height="128" transform="translate(789 288)" fill="black" fill-opacity="0.6"/>
<circle opacity="0.3" cx="825" cy="324" r="20" fill="white" fill-opacity="0.5"/>
<rect opacity="0.2" x="861" y="340" width="104" height="16" rx="8" fill="white" fill-opacity="0.5"/>
<rect opacity="0.3" x="861" y="304" width="280" height="24" rx="12" fill="white" fill-opacity="0.5"/>
<rect opacity="0.1" x="861" y="364" width="128" height="16" rx="8" fill="white" fill-opacity="0.5"/>
</g>
<g clip-path="url(#clip4_7044_30568)">
<rect x="403" y="426" width="376" height="336" rx="12" fill="black" fill-opacity="0.1"/>
<rect width="376" height="208" transform="translate(403 426)" fill="black" fill-opacity="0.1"/>
<rect width="376" height="128" transform="translate(403 634)" fill="black" fill-opacity="0.6"/>
<circle opacity="0.3" cx="439" cy="670" r="20" fill="white" fill-opacity="0.5"/>
<rect opacity="0.3" x="475" y="686" width="104" height="16" rx="8" fill="white" fill-opacity="0.5"/>
<rect opacity="0.3" x="475" y="650" width="280" height="24" rx="12" fill="white" fill-opacity="0.5"/>
<rect opacity="0.3" x="475" y="710" width="128" height="16" rx="8" fill="white" fill-opacity="0.5"/>
</g>
<g clip-path="url(#clip5_7044_30568)">
<rect x="789" y="426" width="376" height="336" rx="12" fill="black" fill-opacity="0.1"/>
<rect width="376" height="208" transform="translate(789 426)" fill="black" fill-opacity="0.1"/>
<rect width="376" height="128" transform="translate(789 634)" fill="black" fill-opacity="0.6"/>
<circle opacity="0.3" cx="825" cy="670" r="20" fill="white" fill-opacity="0.5"/>
<rect opacity="0.3" x="861" y="686" width="104" height="16" rx="8" fill="white" fill-opacity="0.5"/>
<rect opacity="0.3" x="861" y="650" width="280" height="24" rx="12" fill="white" fill-opacity="0.5"/>
<rect opacity="0.3" x="861" y="710" width="128" height="16" rx="8" fill="white" fill-opacity="0.5"/>
</g>
<g clip-path="url(#clip6_7044_30568)">
<rect x="403" y="772" width="376" height="336" rx="12" fill="black" fill-opacity="0.1"/>
<rect width="376" height="208" transform="translate(403 772)" fill="black" fill-opacity="0.1"/>
</g>
<g clip-path="url(#clip7_7044_30568)">
<rect x="789" y="772" width="376" height="336" rx="12" fill="black" fill-opacity="0.1"/>
<rect width="376" height="208" transform="translate(789 772)" fill="black" fill-opacity="0.1"/>
</g>
</g>
<circle opacity="0.3" cx="20" cy="20" r="6" fill="white" fill-opacity="0.5"/>
<circle opacity="0.3" cx="40" cy="20" r="6" fill="white" fill-opacity="0.5"/>
<circle opacity="0.3" cx="60" cy="20" r="6" fill="white" fill-opacity="0.5"/>
</g>
<defs>
<clipPath id="clip0_7044_30568">
<rect width="1320" height="823" rx="10" fill="white"/>
</clipPath>
<clipPath id="clip1_7044_30568">
<rect width="1072" height="870" fill="white" transform="translate(248 48)"/>
</clipPath>
<clipPath id="clip2_7044_30568">
<rect x="403" y="80" width="376" height="336" rx="12" fill="white"/>
</clipPath>
<clipPath id="clip3_7044_30568">
<rect x="789" y="80" width="376" height="336" rx="12" fill="white"/>
</clipPath>
<clipPath id="clip4_7044_30568">
<rect x="403" y="426" width="376" height="336" rx="12" fill="white"/>
</clipPath>
<clipPath id="clip5_7044_30568">
<rect x="789" y="426" width="376" height="336" rx="12" fill="white"/>
</clipPath>
<clipPath id="clip6_7044_30568">
<rect x="403" y="772" width="376" height="336" rx="12" fill="white"/>
</clipPath>
<clipPath id="clip7_7044_30568">
<rect x="789" y="772" width="376" height="336" rx="12" fill="white"/>
</clipPath>
</defs>
</svg>
