<svg width="445" height="40" viewBox="0 0 445 40" fill="none" xmlns="http://www.w3.org/2000/svg">
<rect x="3" width="442" height="40" rx="20" fill="url(#paint0_linear_2420_847409)" fill-opacity="0.1"/>
<rect x="3.5" y="0.5" width="441" height="39" rx="19.5" stroke="white" stroke-opacity="0.1" style="mix-blend-mode:overlay"/>
<path d="M415 10C420.523 4.47715 429.477 4.47715 435 10V10C440.523 15.5228 440.523 24.4772 435 30V30C429.477 35.5228 420.523 35.5228 415 30V30C409.477 24.4772 409.477 15.5228 415 10V10Z" stroke="white" stroke-opacity="0.1"/>
<path d="M425 26V30" stroke="white" stroke-width="1.5" stroke-miterlimit="10" stroke-linecap="round" stroke-linejoin="round"/>
<path d="M421 30H429" stroke="white" stroke-width="1.5" stroke-miterlimit="10" stroke-linecap="round" stroke-linejoin="round"/>
<path d="M432 17V19C432 22.87 428.87 26 425 26C421.13 26 418 22.87 418 19V17" stroke="white" stroke-width="1.5" stroke-miterlimit="10" stroke-linecap="round" stroke-linejoin="round"/>
<path fill-rule="evenodd" clip-rule="evenodd" d="M425 22C423.34 22 422 20.66 422 19V13C422 11.34 423.34 10 425 10C426.66 10 428 11.34 428 13V19C428 20.66 426.66 22 425 22Z" stroke="white" stroke-width="1.5" stroke-miterlimit="10" stroke-linecap="round" stroke-linejoin="round"/>
<path d="M26.9996 23.2877L26.2925 23.9948L32.2958 29.998L33.0029 29.2909L26.9996 23.2877Z" stroke="white" stroke-width="1.5" stroke-linecap="round" stroke-linejoin="round"/>
<path d="M21 26C25.4183 26 29 22.4183 29 18C29 13.5817 25.4183 10 21 10C16.5817 10 13 13.5817 13 18C13 22.4183 16.5817 26 21 26Z" stroke="white" stroke-width="1.5" stroke-linecap="round" stroke-linejoin="round"/>
<path d="M52.0673 24.14C49.3653 24.14 48.1893 22.894 48.1893 21.088V20.85H49.6733V21.004C49.6733 22.166 50.1633 22.754 52.1233 22.754C53.5093 22.754 54.0133 22.376 54.0133 21.508C54.0133 20.654 53.7333 20.346 52.2913 20.052L50.6953 19.73C49.0853 19.422 48.2173 18.638 48.2173 17.154C48.2173 15.768 49.2953 14.48 51.7173 14.48C54.3073 14.48 55.3433 15.936 55.3433 17.602V17.77H53.8593V17.616C53.8593 16.468 53.3553 15.866 51.6753 15.866C50.2893 15.866 49.7293 16.258 49.7293 17.084C49.7293 17.938 50.1073 18.176 51.3953 18.456L52.9913 18.792C54.7553 19.156 55.5253 20.038 55.5253 21.452C55.5253 22.922 54.4613 24.14 52.0673 24.14ZM59.6924 24.14C57.3964 24.14 56.3184 22.684 56.3184 20.514C56.3184 18.358 57.6064 16.902 59.6784 16.902C61.5544 16.902 62.8704 18.022 62.8704 19.926C62.8704 20.29 62.8284 20.668 62.7864 20.878H57.7324C57.7884 22.152 58.2504 22.796 59.7064 22.796C60.8684 22.796 61.3164 22.404 61.3164 21.774V21.662H62.8144V21.788C62.8144 23.216 61.5684 24.14 59.6924 24.14ZM59.6504 18.176C58.3344 18.176 57.8304 18.792 57.7464 19.87H61.4284C61.4844 18.68 60.8404 18.176 59.6504 18.176ZM66.0356 24.14C64.7896 24.14 63.8236 23.496 63.8236 22.278C63.8236 21.13 64.6636 20.528 66.1476 20.318L68.5836 19.954V19.576C68.5836 18.54 68.1076 18.232 67.0156 18.232C65.9096 18.232 65.4756 18.582 65.4756 19.506V19.716H64.0196V19.576C64.0196 18.022 65.2376 16.902 67.0996 16.902C69.0456 16.902 70.0256 18.078 70.0256 19.772V24H68.6256V22.908H68.5556C68.1496 23.566 67.3516 24.14 66.0356 24.14ZM65.2936 22.166C65.2936 22.712 65.6436 22.936 66.5256 22.936C67.5056 22.936 68.5836 22.544 68.5836 21.144V21.018L66.3716 21.354C65.5736 21.466 65.2936 21.648 65.2936 22.166ZM72.9854 24H71.4734V17H72.8594V18.106H72.9294C73.2094 17.462 73.8534 16.902 74.8754 16.902C76.3314 16.902 76.8914 17.966 76.8914 19.268V19.73H75.3794V19.45C75.3794 18.526 75.1134 18.19 74.2314 18.19C73.3214 18.19 72.9854 18.54 72.9854 19.464V24ZM80.9802 24.154C78.8102 24.154 77.5782 22.684 77.5782 20.528C77.5782 18.358 78.8522 16.902 81.0362 16.902C82.8702 16.902 84.1302 18.036 84.1302 19.702V19.828H82.6322V19.744C82.6322 18.722 82.1002 18.26 80.9382 18.26C79.5942 18.26 79.0762 19.016 79.0762 20.528C79.0762 22.04 79.5942 22.782 80.9382 22.782C82.1002 22.782 82.6322 22.334 82.6322 21.312V21.228H84.1302V21.354C84.1302 23.006 82.8562 24.154 80.9802 24.154ZM86.794 24H85.282V14.62H86.794V18.204H86.85C87.172 17.574 87.914 16.902 89.174 16.902C90.994 16.902 91.764 18.092 91.764 19.618V24H90.252V19.968C90.252 18.722 89.86 18.204 88.586 18.204C87.354 18.204 86.794 18.68 86.794 19.996V24Z" fill="white" fill-opacity="0.7"/>
<defs>
<linearGradient id="paint0_linear_2420_847409" x1="-218" y1="20" x2="-210.819" y2="99.3501" gradientUnits="userSpaceOnUse">
<stop stop-color="#0F55E8"/>
<stop offset="1" stop-color="#9DDFF3"/>
</linearGradient>
</defs>
</svg>
