<svg width="1264" height="56" viewBox="0 0 1264 56" fill="none" xmlns="http://www.w3.org/2000/svg">
<g clip-path="url(#clip0_2420_847321)">
<g filter="url(#filter0_f_2420_847321)">
<path d="M110 40H1154L1234 68L1154 96H110L30 68L110 40Z" fill="white" fill-opacity="0.1"/>
</g>
<g filter="url(#filter1_f_2420_847321)">
<ellipse cx="632" cy="66" rx="500" ry="10" fill="#C427FB" fill-opacity="0.2"/>
</g>
<g filter="url(#filter2_d_2420_847321)">
<path d="M33.708 35H32.126L35.78 25.62H37.95L41.604 35H39.966L39.014 32.564H34.66L33.708 35ZM36.172 28.728L35.192 31.206H38.482L37.502 28.728L36.9 26.992H36.788L36.172 28.728ZM43.879 35H42.367V25.62H43.879V35ZM46.9278 35H45.4158V25.62H46.9278V35Z" fill="white" fill-opacity="0.7"/>
<path d="M108.634 35.14C105.974 35.14 104.462 33.292 104.462 30.31C104.462 27.384 106.142 25.48 108.928 25.48C111.434 25.48 112.96 26.824 112.96 28.98V29.078H111.364V28.98C111.364 27.566 110.65 26.936 108.858 26.936C106.884 26.936 106.072 27.874 106.072 30.31C106.072 32.746 106.912 33.684 108.984 33.684C110.706 33.684 111.518 33.18 111.518 31.71V31.486H108.592V30.184H112.974V35H111.588V33.53H111.532C111.182 34.384 110.202 35.14 108.634 35.14ZM116.38 35.14C115.134 35.14 114.168 34.496 114.168 33.278C114.168 32.13 115.008 31.528 116.492 31.318L118.928 30.954V30.576C118.928 29.54 118.452 29.232 117.36 29.232C116.254 29.232 115.82 29.582 115.82 30.506V30.716H114.364V30.576C114.364 29.022 115.582 27.902 117.444 27.902C119.39 27.902 120.37 29.078 120.37 30.772V35H118.97V33.908H118.9C118.494 34.566 117.696 35.14 116.38 35.14ZM115.638 33.166C115.638 33.712 115.988 33.936 116.87 33.936C117.85 33.936 118.928 33.544 118.928 32.144V32.018L116.716 32.354C115.918 32.466 115.638 32.648 115.638 33.166ZM123.33 35H121.818V28.042H123.204V29.344H123.26C123.582 28.602 124.31 27.902 125.64 27.902C126.858 27.902 127.614 28.462 127.95 29.344H127.992C128.314 28.616 129.028 27.902 130.4 27.902C132.192 27.902 132.99 29.05 132.99 30.632V35H131.478V30.968C131.478 29.722 131.1 29.204 129.84 29.204C128.692 29.204 128.16 29.68 128.16 30.954V35H126.648V30.968C126.648 29.722 126.27 29.204 125.01 29.204C123.862 29.204 123.33 29.68 123.33 30.94V35ZM135.851 27.16H134.353L134.339 25.62H135.851V27.16ZM135.865 35H134.353V28H135.865V35ZM138.766 35H137.254V28.042H138.64V29.344H138.696C139.018 28.602 139.76 27.902 141.118 27.902C142.924 27.902 143.736 29.05 143.736 30.632V35H142.224V30.968C142.224 29.722 141.832 29.204 140.558 29.204C139.326 29.204 138.766 29.68 138.766 30.982V35ZM147.858 34.342C145.94 34.342 144.876 33.082 144.876 31.122C144.876 29.162 145.954 27.902 147.914 27.902C149.034 27.902 149.902 28.378 150.238 29.19H150.294V28.042H151.68V34.496C151.68 36.554 150.476 37.52 148.446 37.52C146.472 37.52 145.24 36.582 145.24 34.902H146.738C146.738 35.854 147.088 36.176 148.488 36.176C149.846 36.176 150.182 35.784 150.182 34.496V33.11H150.126C149.804 33.782 148.992 34.342 147.858 34.342ZM146.388 31.122C146.388 32.55 146.976 33.054 148.292 33.054C149.426 33.054 150.182 32.508 150.182 31.332V30.898C150.182 29.736 149.426 29.19 148.264 29.19C146.962 29.19 146.388 29.694 146.388 31.122Z" fill="white" fill-opacity="0.7"/>
<path d="M213.774 35H212.276V26.978H209.084V25.62H216.966V26.978H213.774V35ZM219.211 35H217.699V25.62H219.211V29.204H219.267C219.589 28.574 220.331 27.902 221.591 27.902C223.411 27.902 224.181 29.092 224.181 30.618V35H222.669V30.968C222.669 29.722 222.277 29.204 221.003 29.204C219.771 29.204 219.211 29.68 219.211 30.996V35ZM228.834 35.14C226.692 35.14 225.362 33.684 225.362 31.514C225.362 29.358 226.692 27.902 228.834 27.902C230.962 27.902 232.25 29.358 232.25 31.514C232.25 33.684 230.962 35.14 228.834 35.14ZM228.834 33.796C230.29 33.796 230.794 33.082 230.794 31.514C230.794 29.96 230.29 29.246 228.834 29.246C227.364 29.246 226.846 29.96 226.846 31.514C226.846 33.082 227.364 33.796 228.834 33.796ZM235.971 35.14C234.151 35.14 233.339 33.922 233.339 32.34V28.042H234.851V32.074C234.851 33.32 235.327 33.838 236.531 33.838C237.693 33.838 238.351 33.334 238.351 31.962V28.042H239.863V35H238.463V33.614H238.407C238.071 34.412 237.329 35.14 235.971 35.14ZM244.026 34.342C242.108 34.342 241.044 33.082 241.044 31.122C241.044 29.162 242.122 27.902 244.082 27.902C245.202 27.902 246.07 28.378 246.406 29.19H246.462V28.042H247.848V34.496C247.848 36.554 246.644 37.52 244.614 37.52C242.64 37.52 241.408 36.582 241.408 34.902H242.906C242.906 35.854 243.256 36.176 244.656 36.176C246.014 36.176 246.35 35.784 246.35 34.496V33.11H246.294C245.972 33.782 245.16 34.342 244.026 34.342ZM242.556 31.122C242.556 32.55 243.144 33.054 244.46 33.054C245.594 33.054 246.35 32.508 246.35 31.332V30.898C246.35 29.736 245.594 29.19 244.432 29.19C243.13 29.19 242.556 29.694 242.556 31.122ZM250.848 35H249.336V25.62H250.848V29.204H250.904C251.226 28.574 251.968 27.902 253.228 27.902C255.048 27.902 255.818 29.092 255.818 30.618V35H254.306V30.968C254.306 29.722 253.914 29.204 252.64 29.204C251.408 29.204 250.848 29.68 250.848 30.996V35ZM260.136 35C258.582 35 257.77 34.426 257.77 32.858V29.302H256.608V28.042H257.798L258.12 26.32H259.282V28.042H261.382V29.302H259.282V32.788C259.282 33.516 259.59 33.642 260.528 33.642H261.382V34.874C261.088 34.944 260.612 35 260.136 35ZM265.236 35.14C263.206 35.14 262.142 34.342 262.142 32.648V32.62H263.598V32.872C263.598 33.628 263.934 33.908 265.264 33.908C266.384 33.908 266.594 33.656 266.594 33.138C266.594 32.578 266.258 32.41 265.236 32.228L264.158 32.046C262.912 31.822 262.128 31.262 262.128 30.002C262.128 28.742 263.164 27.902 264.984 27.902C266.622 27.902 267.854 28.714 267.854 30.296V30.422H266.412V30.254C266.412 29.61 266.188 29.148 264.942 29.148C263.836 29.148 263.57 29.442 263.57 29.974C263.57 30.506 263.822 30.66 264.802 30.856L265.978 31.08C267.322 31.346 268.022 31.948 268.022 33.096C268.022 34.384 267 35.14 265.236 35.14Z" fill="white" fill-opacity="0.7"/>
<path d="M327.296 35H325.784V25.62H327.926L330.068 30.772L330.894 33.012H331.006L331.818 30.772L333.918 25.62H336.06V35H334.562V29.456L334.618 27.888H334.52L333.932 29.456L331.832 34.44H330.012L327.898 29.456L327.338 27.888H327.212L327.296 29.456V35ZM340.213 35.14C338.393 35.14 337.581 33.922 337.581 32.34V28.042H339.093V32.074C339.093 33.32 339.569 33.838 340.773 33.838C341.935 33.838 342.593 33.334 342.593 31.962V28.042H344.105V35H342.705V33.614H342.649C342.313 34.412 341.571 35.14 340.213 35.14ZM348.479 35.14C346.449 35.14 345.385 34.342 345.385 32.648V32.62H346.841V32.872C346.841 33.628 347.177 33.908 348.507 33.908C349.627 33.908 349.837 33.656 349.837 33.138C349.837 32.578 349.501 32.41 348.479 32.228L347.401 32.046C346.155 31.822 345.371 31.262 345.371 30.002C345.371 28.742 346.407 27.902 348.227 27.902C349.865 27.902 351.097 28.714 351.097 30.296V30.422H349.655V30.254C349.655 29.61 349.431 29.148 348.185 29.148C347.079 29.148 346.813 29.442 346.813 29.974C346.813 30.506 347.065 30.66 348.045 30.856L349.221 31.08C350.565 31.346 351.265 31.948 351.265 33.096C351.265 34.384 350.243 35.14 348.479 35.14ZM353.857 27.16H352.359L352.345 25.62H353.857V27.16ZM353.871 35H352.359V28H353.871V35ZM358.313 35.154C356.143 35.154 354.911 33.684 354.911 31.528C354.911 29.358 356.185 27.902 358.369 27.902C360.203 27.902 361.463 29.036 361.463 30.702V30.828H359.965V30.744C359.965 29.722 359.433 29.26 358.271 29.26C356.927 29.26 356.409 30.016 356.409 31.528C356.409 33.04 356.927 33.782 358.271 33.782C359.433 33.782 359.965 33.334 359.965 32.312V32.228H361.463V32.354C361.463 34.006 360.189 35.154 358.313 35.154Z" fill="white" fill-opacity="0.7"/>
<path d="M422.774 35H421.276V26.978H418.084V25.62H425.966V26.978H422.774V35ZM428.211 35H426.699V25.62H428.211V29.204H428.267C428.589 28.574 429.331 27.902 430.591 27.902C432.411 27.902 433.181 29.092 433.181 30.618V35H431.669V30.968C431.669 29.722 431.277 29.204 430.003 29.204C428.771 29.204 428.211 29.68 428.211 30.996V35ZM436.182 35H434.67V28H436.056V29.106H436.126C436.406 28.462 437.05 27.902 438.072 27.902C439.528 27.902 440.088 28.966 440.088 30.268V30.73H438.576V30.45C438.576 29.526 438.31 29.19 437.428 29.19C436.518 29.19 436.182 29.54 436.182 30.464V35ZM442.386 27.16H440.888L440.874 25.62H442.386V27.16ZM442.4 35H440.888V28H442.4V35ZM445.301 35H443.789V25.62H445.301V35ZM448.35 35H446.838V25.62H448.35V35ZM452.871 35.14C450.575 35.14 449.497 33.684 449.497 31.514C449.497 29.358 450.785 27.902 452.857 27.902C454.733 27.902 456.049 29.022 456.049 30.926C456.049 31.29 456.007 31.668 455.965 31.878H450.911C450.967 33.152 451.429 33.796 452.885 33.796C454.047 33.796 454.495 33.404 454.495 32.774V32.662H455.993V32.788C455.993 34.216 454.747 35.14 452.871 35.14ZM452.829 29.176C451.513 29.176 451.009 29.792 450.925 30.87H454.607C454.663 29.68 454.019 29.176 452.829 29.176ZM458.768 35H457.256V28H458.642V29.106H458.712C458.992 28.462 459.636 27.902 460.658 27.902C462.114 27.902 462.674 28.966 462.674 30.268V30.73H461.162V30.45C461.162 29.526 460.896 29.19 460.014 29.19C459.104 29.19 458.768 29.54 458.768 30.464V35ZM466.662 35.14C464.632 35.14 463.568 34.342 463.568 32.648V32.62H465.024V32.872C465.024 33.628 465.36 33.908 466.69 33.908C467.81 33.908 468.02 33.656 468.02 33.138C468.02 32.578 467.684 32.41 466.662 32.228L465.584 32.046C464.338 31.822 463.554 31.262 463.554 30.002C463.554 28.742 464.59 27.902 466.41 27.902C468.048 27.902 469.28 28.714 469.28 30.296V30.422H467.838V30.254C467.838 29.61 467.614 29.148 466.368 29.148C465.262 29.148 464.996 29.442 464.996 29.974C464.996 30.506 465.248 30.66 466.228 30.856L467.404 31.08C468.748 31.346 469.448 31.948 469.448 33.096C469.448 34.384 468.426 35.14 466.662 35.14Z" fill="white" fill-opacity="0.7"/>
<path d="M528.296 35H526.784V25.62H528.926L531.068 30.772L531.894 33.012H532.006L532.818 30.772L534.918 25.62H537.06V35H535.562V29.456L535.618 27.888H535.52L534.932 29.456L532.832 34.44H531.012L528.898 29.456L528.338 27.888H528.212L528.296 29.456V35ZM539.996 27.16H538.498L538.484 25.62H539.996V27.16ZM540.01 35H538.498V28H540.01V35ZM542.325 35H540.617L543.109 31.5V31.402L540.617 28.042H542.381L544.257 30.618H544.355L546.217 28.042H547.925L545.433 31.458V31.57L547.925 35H546.161L544.285 32.34H544.187L542.325 35ZM551.424 35.14C549.128 35.14 548.05 33.684 548.05 31.514C548.05 29.358 549.338 27.902 551.41 27.902C553.286 27.902 554.602 29.022 554.602 30.926C554.602 31.29 554.56 31.668 554.518 31.878H549.464C549.52 33.152 549.982 33.796 551.438 33.796C552.6 33.796 553.048 33.404 553.048 32.774V32.662H554.546V32.788C554.546 34.216 553.3 35.14 551.424 35.14ZM551.382 29.176C550.066 29.176 549.562 29.792 549.478 30.87H553.16C553.216 29.68 552.572 29.176 551.382 29.176ZM558.803 35.14C556.773 35.14 555.709 34.342 555.709 32.648V32.62H557.165V32.872C557.165 33.628 557.501 33.908 558.831 33.908C559.951 33.908 560.161 33.656 560.161 33.138C560.161 32.578 559.825 32.41 558.803 32.228L557.725 32.046C556.479 31.822 555.695 31.262 555.695 30.002C555.695 28.742 556.731 27.902 558.551 27.902C560.189 27.902 561.421 28.714 561.421 30.296V30.422H559.979V30.254C559.979 29.61 559.755 29.148 558.509 29.148C557.403 29.148 557.137 29.442 557.137 29.974C557.137 30.506 557.389 30.66 558.369 30.856L559.545 31.08C560.889 31.346 561.589 31.948 561.589 33.096C561.589 34.384 560.567 35.14 558.803 35.14Z" fill="white" fill-opacity="0.7"/>
<path d="M620.708 35H619.126L622.78 25.62H624.95L628.604 35H626.966L626.014 32.564H621.66L620.708 35ZM623.172 28.728L622.192 31.206H625.482L624.502 28.728L623.9 26.992H623.788L623.172 28.728ZM632.975 35H631.071L628.285 28.042H629.965L631.995 33.558H632.093L634.137 28.042H635.775L632.975 35ZM638.162 35.14C636.916 35.14 635.95 34.496 635.95 33.278C635.95 32.13 636.79 31.528 638.274 31.318L640.71 30.954V30.576C640.71 29.54 640.234 29.232 639.142 29.232C638.036 29.232 637.602 29.582 637.602 30.506V30.716H636.146V30.576C636.146 29.022 637.364 27.902 639.226 27.902C641.172 27.902 642.152 29.078 642.152 30.772V35H640.752V33.908H640.682C640.276 34.566 639.478 35.14 638.162 35.14ZM637.42 33.166C637.42 33.712 637.77 33.936 638.652 33.936C639.632 33.936 640.71 33.544 640.71 32.144V32.018L638.498 32.354C637.7 32.466 637.42 32.648 637.42 33.166ZM646.429 35C644.875 35 644.063 34.426 644.063 32.858V29.302H642.901V28.042H644.091L644.413 26.32H645.575V28.042H647.675V29.302H645.575V32.788C645.575 33.516 645.883 33.642 646.821 33.642H647.675V34.874C647.381 34.944 646.905 35 646.429 35ZM650.576 35.14C649.33 35.14 648.364 34.496 648.364 33.278C648.364 32.13 649.204 31.528 650.688 31.318L653.124 30.954V30.576C653.124 29.54 652.648 29.232 651.556 29.232C650.45 29.232 650.016 29.582 650.016 30.506V30.716H648.56V30.576C648.56 29.022 649.778 27.902 651.64 27.902C653.586 27.902 654.566 29.078 654.566 30.772V35H653.166V33.908H653.096C652.69 34.566 651.892 35.14 650.576 35.14ZM649.834 33.166C649.834 33.712 650.184 33.936 651.066 33.936C652.046 33.936 653.124 33.544 653.124 32.144V32.018L650.912 32.354C650.114 32.466 649.834 32.648 649.834 33.166ZM657.525 35H656.013V28H657.399V29.106H657.469C657.749 28.462 658.393 27.902 659.415 27.902C660.871 27.902 661.431 28.966 661.431 30.268V30.73H659.919V30.45C659.919 29.526 659.653 29.19 658.771 29.19C657.861 29.19 657.525 29.54 657.525 30.464V35Z" fill="white" fill-opacity="0.7"/>
<path d="M720.296 35H718.784V25.62H725.434V26.978H720.296V29.876H725.224V31.248H720.296V35ZM727.922 27.16H726.424L726.41 25.62H727.922V27.16ZM727.936 35H726.424V28H727.936V35ZM730.836 35H729.324V25.62H730.836V35ZM733.83 35H732.318V28.042H733.704V29.344H733.76C734.082 28.602 734.81 27.902 736.14 27.902C737.358 27.902 738.114 28.462 738.45 29.344H738.492C738.814 28.616 739.528 27.902 740.9 27.902C742.692 27.902 743.49 29.05 743.49 30.632V35H741.978V30.968C741.978 29.722 741.6 29.204 740.34 29.204C739.192 29.204 738.66 29.68 738.66 30.954V35H737.148V30.968C737.148 29.722 736.77 29.204 735.51 29.204C734.362 29.204 733.83 29.68 733.83 30.94V35ZM750.698 35.154C748.528 35.154 747.296 33.684 747.296 31.528C747.296 29.358 748.57 27.902 750.754 27.902C752.588 27.902 753.848 29.036 753.848 30.702V30.828H752.35V30.744C752.35 29.722 751.818 29.26 750.656 29.26C749.312 29.26 748.794 30.016 748.794 31.528C748.794 33.04 749.312 33.782 750.656 33.782C751.818 33.782 752.35 33.334 752.35 32.312V32.228H753.848V32.354C753.848 34.006 752.574 35.154 750.698 35.154ZM756.498 35H754.986V28H756.372V29.106H756.442C756.722 28.462 757.366 27.902 758.388 27.902C759.844 27.902 760.404 28.966 760.404 30.268V30.73H758.892V30.45C758.892 29.526 758.626 29.19 757.744 29.19C756.834 29.19 756.498 29.54 756.498 30.464V35ZM762.703 27.16H761.205L761.191 25.62H762.703V27.16ZM762.717 35H761.205V28H762.717V35ZM766.963 35C765.409 35 764.597 34.426 764.597 32.858V29.302H763.435V28.042H764.625L764.947 26.32H766.109V28.042H768.209V29.302H766.109V32.788C766.109 33.516 766.417 33.642 767.355 33.642H768.209V34.874C767.915 34.944 767.439 35 766.963 35ZM770.605 27.16H769.107L769.093 25.62H770.605V27.16ZM770.619 35H769.107V28H770.619V35ZM775.061 35.154C772.891 35.154 771.659 33.684 771.659 31.528C771.659 29.358 772.933 27.902 775.117 27.902C776.951 27.902 778.211 29.036 778.211 30.702V30.828H776.713V30.744C776.713 29.722 776.181 29.26 775.019 29.26C773.675 29.26 773.157 30.016 773.157 31.528C773.157 33.04 773.675 33.782 775.019 33.782C776.181 33.782 776.713 33.334 776.713 32.312V32.228H778.211V32.354C778.211 34.006 776.937 35.154 775.061 35.154ZM780.763 27.16H779.265L779.251 25.62H780.763V27.16ZM780.777 35H779.265V28H780.777V35ZM785.051 35.14C783.021 35.14 781.957 34.342 781.957 32.648V32.62H783.413V32.872C783.413 33.628 783.749 33.908 785.079 33.908C786.199 33.908 786.409 33.656 786.409 33.138C786.409 32.578 786.073 32.41 785.051 32.228L783.973 32.046C782.727 31.822 781.943 31.262 781.943 30.002C781.943 28.742 782.979 27.902 784.799 27.902C786.437 27.902 787.669 28.714 787.669 30.296V30.422H786.227V30.254C786.227 29.61 786.003 29.148 784.757 29.148C783.651 29.148 783.385 29.442 783.385 29.974C783.385 30.506 783.637 30.66 784.617 30.856L785.793 31.08C787.137 31.346 787.837 31.948 787.837 33.096C787.837 34.384 786.815 35.14 785.051 35.14ZM790.527 35H789.015V28.042H790.401V29.344H790.457C790.779 28.602 791.507 27.902 792.837 27.902C794.055 27.902 794.811 28.462 795.147 29.344H795.189C795.511 28.616 796.225 27.902 797.597 27.902C799.389 27.902 800.187 29.05 800.187 30.632V35H798.675V30.968C798.675 29.722 798.297 29.204 797.037 29.204C795.889 29.204 795.357 29.68 795.357 30.954V35H793.845V30.968C793.845 29.722 793.467 29.204 792.207 29.204C791.059 29.204 790.527 29.68 790.527 30.94V35ZM803.511 35.14C802.265 35.14 801.299 34.496 801.299 33.278C801.299 32.13 802.139 31.528 803.623 31.318L806.059 30.954V30.576C806.059 29.54 805.583 29.232 804.491 29.232C803.385 29.232 802.951 29.582 802.951 30.506V30.716H801.495V30.576C801.495 29.022 802.713 27.902 804.575 27.902C806.521 27.902 807.501 29.078 807.501 30.772V35H806.101V33.908H806.031C805.625 34.566 804.827 35.14 803.511 35.14ZM802.769 33.166C802.769 33.712 803.119 33.936 804.001 33.936C804.981 33.936 806.059 33.544 806.059 32.144V32.018L803.847 32.354C803.049 32.466 802.769 32.648 802.769 33.166Z" fill="white" fill-opacity="0.7"/>
<path d="M867.296 35H865.784V25.62H867.296V29.624H869.466L871.93 25.62H873.652L870.74 30.268L873.638 35H871.902L869.494 31.08H867.296V35ZM876.973 35.14C874.831 35.14 873.501 33.684 873.501 31.514C873.501 29.358 874.831 27.902 876.973 27.902C879.101 27.902 880.389 29.358 880.389 31.514C880.389 33.684 879.101 35.14 876.973 35.14ZM876.973 33.796C878.429 33.796 878.933 33.082 878.933 31.514C878.933 29.96 878.429 29.246 876.973 29.246C875.503 29.246 874.985 29.96 874.985 31.514C874.985 33.082 875.503 33.796 876.973 33.796ZM883.031 35H881.519V28H882.905V29.106H882.975C883.255 28.462 883.899 27.902 884.921 27.902C886.377 27.902 886.937 28.966 886.937 30.268V30.73H885.425V30.45C885.425 29.526 885.159 29.19 884.277 29.19C883.367 29.19 883.031 29.54 883.031 30.464V35ZM890.998 35.14C888.702 35.14 887.624 33.684 887.624 31.514C887.624 29.358 888.912 27.902 890.984 27.902C892.86 27.902 894.176 29.022 894.176 30.926C894.176 31.29 894.134 31.668 894.092 31.878H889.038C889.094 33.152 889.556 33.796 891.012 33.796C892.174 33.796 892.622 33.404 892.622 32.774V32.662H894.12V32.788C894.12 34.216 892.874 35.14 890.998 35.14ZM890.956 29.176C889.64 29.176 889.136 29.792 889.052 30.87H892.734C892.79 29.68 892.146 29.176 890.956 29.176ZM897.341 35.14C896.095 35.14 895.129 34.496 895.129 33.278C895.129 32.13 895.969 31.528 897.453 31.318L899.889 30.954V30.576C899.889 29.54 899.413 29.232 898.321 29.232C897.215 29.232 896.781 29.582 896.781 30.506V30.716H895.325V30.576C895.325 29.022 896.543 27.902 898.405 27.902C900.351 27.902 901.331 29.078 901.331 30.772V35H899.931V33.908H899.861C899.455 34.566 898.657 35.14 897.341 35.14ZM896.599 33.166C896.599 33.712 896.949 33.936 897.831 33.936C898.811 33.936 899.889 33.544 899.889 32.144V32.018L897.677 32.354C896.879 32.466 896.599 32.648 896.599 33.166ZM904.291 35H902.779V28.042H904.165V29.344H904.221C904.543 28.602 905.285 27.902 906.643 27.902C908.449 27.902 909.261 29.05 909.261 30.632V35H907.749V30.968C907.749 29.722 907.357 29.204 906.083 29.204C904.851 29.204 904.291 29.68 904.291 30.982V35ZM916.133 35.14C914.145 35.14 913.067 33.726 913.067 31.514C913.067 29.316 914.131 27.902 916.049 27.902C917.281 27.902 918.023 28.49 918.331 29.12H918.373V25.62H919.871V35H918.485V33.852H918.429C918.093 34.65 917.323 35.14 916.133 35.14ZM914.579 31.514C914.579 33.236 915.125 33.852 916.469 33.852C917.701 33.852 918.373 33.306 918.373 32.144V30.898C918.373 29.736 917.701 29.19 916.469 29.19C915.139 29.19 914.579 29.806 914.579 31.514ZM922.871 35H921.359V28H922.745V29.106H922.815C923.095 28.462 923.739 27.902 924.761 27.902C926.217 27.902 926.777 28.966 926.777 30.268V30.73H925.265V30.45C925.265 29.526 924.999 29.19 924.117 29.19C923.207 29.19 922.871 29.54 922.871 30.464V35ZM929.484 35.14C928.238 35.14 927.272 34.496 927.272 33.278C927.272 32.13 928.112 31.528 929.596 31.318L932.032 30.954V30.576C932.032 29.54 931.556 29.232 930.464 29.232C929.358 29.232 928.924 29.582 928.924 30.506V30.716H927.468V30.576C927.468 29.022 928.686 27.902 930.548 27.902C932.494 27.902 933.474 29.078 933.474 30.772V35H932.074V33.908H932.004C931.598 34.566 930.8 35.14 929.484 35.14ZM928.742 33.166C928.742 33.712 929.092 33.936 929.974 33.936C930.954 33.936 932.032 33.544 932.032 32.144V32.018L929.82 32.354C929.022 32.466 928.742 32.648 928.742 33.166ZM936.434 35H934.922V28.042H936.308V29.344H936.364C936.686 28.602 937.414 27.902 938.744 27.902C939.962 27.902 940.718 28.462 941.054 29.344H941.096C941.418 28.616 942.132 27.902 943.504 27.902C945.296 27.902 946.094 29.05 946.094 30.632V35H944.582V30.968C944.582 29.722 944.204 29.204 942.944 29.204C941.796 29.204 941.264 29.68 941.264 30.954V35H939.752V30.968C939.752 29.722 939.374 29.204 938.114 29.204C936.966 29.204 936.434 29.68 936.434 30.94V35ZM949.417 35.14C948.171 35.14 947.205 34.496 947.205 33.278C947.205 32.13 948.045 31.528 949.529 31.318L951.965 30.954V30.576C951.965 29.54 951.489 29.232 950.397 29.232C949.291 29.232 948.857 29.582 948.857 30.506V30.716H947.401V30.576C947.401 29.022 948.619 27.902 950.481 27.902C952.427 27.902 953.407 29.078 953.407 30.772V35H952.007V33.908H951.937C951.531 34.566 950.733 35.14 949.417 35.14ZM948.675 33.166C948.675 33.712 949.025 33.936 949.907 33.936C950.887 33.936 951.965 33.544 951.965 32.144V32.018L949.753 32.354C948.955 32.466 948.675 32.648 948.675 33.166ZM957.74 35.14C955.71 35.14 954.646 34.342 954.646 32.648V32.62H956.102V32.872C956.102 33.628 956.438 33.908 957.768 33.908C958.888 33.908 959.098 33.656 959.098 33.138C959.098 32.578 958.762 32.41 957.74 32.228L956.662 32.046C955.416 31.822 954.632 31.262 954.632 30.002C954.632 28.742 955.668 27.902 957.488 27.902C959.126 27.902 960.358 28.714 960.358 30.296V30.422H958.916V30.254C958.916 29.61 958.692 29.148 957.446 29.148C956.34 29.148 956.074 29.442 956.074 29.974C956.074 30.506 956.326 30.66 957.306 30.856L958.482 31.08C959.826 31.346 960.526 31.948 960.526 33.096C960.526 34.384 959.504 35.14 957.74 35.14Z" fill="white" fill-opacity="0.7"/>
<path d="M1022.89 35.14C1020.16 35.14 1018.5 33.236 1018.5 30.31C1018.5 27.384 1020.16 25.48 1022.89 25.48C1025.41 25.48 1026.93 26.88 1026.93 29.134V29.218H1025.32V29.134C1025.32 27.594 1024.61 26.936 1022.84 26.936C1020.9 26.936 1020.11 27.874 1020.11 30.31C1020.11 32.746 1020.9 33.684 1022.84 33.684C1024.61 33.684 1025.32 33.026 1025.32 31.486V31.402H1026.93V31.486C1026.93 33.74 1025.41 35.14 1022.89 35.14ZM1029.73 35H1028.22V25.62H1029.73V29.204H1029.78C1030.11 28.574 1030.85 27.902 1032.11 27.902C1033.93 27.902 1034.7 29.092 1034.7 30.618V35H1033.19V30.968C1033.19 29.722 1032.79 29.204 1031.52 29.204C1030.29 29.204 1029.73 29.68 1029.73 30.996V35ZM1038.06 35.14C1036.82 35.14 1035.85 34.496 1035.85 33.278C1035.85 32.13 1036.69 31.528 1038.18 31.318L1040.61 30.954V30.576C1040.61 29.54 1040.14 29.232 1039.04 29.232C1037.94 29.232 1037.5 29.582 1037.5 30.506V30.716H1036.05V30.576C1036.05 29.022 1037.27 27.902 1039.13 27.902C1041.07 27.902 1042.05 29.078 1042.05 30.772V35H1040.65V33.908H1040.58C1040.18 34.566 1039.38 35.14 1038.06 35.14ZM1037.32 33.166C1037.32 33.712 1037.67 33.936 1038.55 33.936C1039.53 33.936 1040.61 33.544 1040.61 32.144V32.018L1038.4 32.354C1037.6 32.466 1037.32 32.648 1037.32 33.166ZM1045.01 35H1043.5V28H1044.89V29.106H1044.96C1045.24 28.462 1045.88 27.902 1046.9 27.902C1048.36 27.902 1048.92 28.966 1048.92 30.268V30.73H1047.41V30.45C1047.41 29.526 1047.14 29.19 1046.26 29.19C1045.35 29.19 1045.01 29.54 1045.01 30.464V35ZM1051.63 35.14C1050.38 35.14 1049.41 34.496 1049.41 33.278C1049.41 32.13 1050.25 31.528 1051.74 31.318L1054.17 30.954V30.576C1054.17 29.54 1053.7 29.232 1052.61 29.232C1051.5 29.232 1051.07 29.582 1051.07 30.506V30.716H1049.61V30.576C1049.61 29.022 1050.83 27.902 1052.69 27.902C1054.64 27.902 1055.62 29.078 1055.62 30.772V35H1054.22V33.908H1054.15C1053.74 34.566 1052.94 35.14 1051.63 35.14ZM1050.88 33.166C1050.88 33.712 1051.23 33.936 1052.12 33.936C1053.1 33.936 1054.17 33.544 1054.17 32.144V32.018L1051.96 32.354C1051.16 32.466 1050.88 32.648 1050.88 33.166ZM1060.16 35.154C1057.99 35.154 1056.76 33.684 1056.76 31.528C1056.76 29.358 1058.03 27.902 1060.21 27.902C1062.05 27.902 1063.31 29.036 1063.31 30.702V30.828H1061.81V30.744C1061.81 29.722 1061.28 29.26 1060.12 29.26C1058.77 29.26 1058.25 30.016 1058.25 31.528C1058.25 33.04 1058.77 33.782 1060.12 33.782C1061.28 33.782 1061.81 33.334 1061.81 32.312V32.228H1063.31V32.354C1063.31 34.006 1062.03 35.154 1060.16 35.154ZM1067.29 35C1065.74 35 1064.92 34.426 1064.92 32.858V29.302H1063.76V28.042H1064.95L1065.27 26.32H1066.44V28.042H1068.54V29.302H1066.44V32.788C1066.44 33.516 1066.74 33.642 1067.68 33.642H1068.54V34.874C1068.24 34.944 1067.77 35 1067.29 35ZM1072.41 35.14C1070.11 35.14 1069.03 33.684 1069.03 31.514C1069.03 29.358 1070.32 27.902 1072.39 27.902C1074.27 27.902 1075.59 29.022 1075.59 30.926C1075.59 31.29 1075.54 31.668 1075.5 31.878H1070.45C1070.5 33.152 1070.97 33.796 1072.42 33.796C1073.58 33.796 1074.03 33.404 1074.03 32.774V32.662H1075.53V32.788C1075.53 34.216 1074.28 35.14 1072.41 35.14ZM1072.37 29.176C1071.05 29.176 1070.55 29.792 1070.46 30.87H1074.14C1074.2 29.68 1073.56 29.176 1072.37 29.176ZM1078.3 35H1076.79V28H1078.18V29.106H1078.25C1078.53 28.462 1079.17 27.902 1080.19 27.902C1081.65 27.902 1082.21 28.966 1082.21 30.268V30.73H1080.7V30.45C1080.7 29.526 1080.43 29.19 1079.55 29.19C1078.64 29.19 1078.3 29.54 1078.3 30.464V35ZM1086.2 35.14C1084.17 35.14 1083.11 34.342 1083.11 32.648V32.62H1084.56V32.872C1084.56 33.628 1084.9 33.908 1086.23 33.908C1087.35 33.908 1087.56 33.656 1087.56 33.138C1087.56 32.578 1087.22 32.41 1086.2 32.228L1085.12 32.046C1083.88 31.822 1083.09 31.262 1083.09 30.002C1083.09 28.742 1084.13 27.902 1085.95 27.902C1087.59 27.902 1088.82 28.714 1088.82 30.296V30.422H1087.38V30.254C1087.38 29.61 1087.15 29.148 1085.91 29.148C1084.8 29.148 1084.53 29.442 1084.53 29.974C1084.53 30.506 1084.79 30.66 1085.77 30.856L1086.94 31.08C1088.29 31.346 1088.99 31.948 1088.99 33.096C1088.99 34.384 1087.96 35.14 1086.2 35.14Z" fill="white" fill-opacity="0.7"/>
<path d="M1153.49 35H1146.78V25.62H1153.49V26.978H1148.3V29.596H1153.28V30.968H1148.3V33.642H1153.49V35ZM1156.59 35.14C1155.34 35.14 1154.38 34.496 1154.38 33.278C1154.38 32.13 1155.22 31.528 1156.7 31.318L1159.14 30.954V30.576C1159.14 29.54 1158.66 29.232 1157.57 29.232C1156.46 29.232 1156.03 29.582 1156.03 30.506V30.716H1154.57V30.576C1154.57 29.022 1155.79 27.902 1157.65 27.902C1159.6 27.902 1160.58 29.078 1160.58 30.772V35H1159.18V33.908H1159.11C1158.7 34.566 1157.91 35.14 1156.59 35.14ZM1155.85 33.166C1155.85 33.712 1156.2 33.936 1157.08 33.936C1158.06 33.936 1159.14 33.544 1159.14 32.144V32.018L1156.93 32.354C1156.13 32.466 1155.85 32.648 1155.85 33.166ZM1164.86 35C1163.3 35 1162.49 34.426 1162.49 32.858V29.302H1161.33V28.042H1162.52L1162.84 26.32H1164V28.042H1166.1V29.302H1164V32.788C1164 33.516 1164.31 33.642 1165.25 33.642H1166.1V34.874C1165.81 34.944 1165.33 35 1164.86 35ZM1168.5 27.16H1167L1166.99 25.62H1168.5V27.16ZM1168.51 35H1167V28H1168.51V35ZM1171.41 35H1169.9V28.042H1171.29V29.344H1171.34C1171.67 28.602 1172.41 27.902 1173.77 27.902C1175.57 27.902 1176.38 29.05 1176.38 30.632V35H1174.87V30.968C1174.87 29.722 1174.48 29.204 1173.21 29.204C1171.97 29.204 1171.41 29.68 1171.41 30.982V35ZM1180.51 34.342C1178.59 34.342 1177.52 33.082 1177.52 31.122C1177.52 29.162 1178.6 27.902 1180.56 27.902C1181.68 27.902 1182.55 28.378 1182.89 29.19H1182.94V28.042H1184.33V34.496C1184.33 36.554 1183.12 37.52 1181.09 37.52C1179.12 37.52 1177.89 36.582 1177.89 34.902H1179.39C1179.39 35.854 1179.74 36.176 1181.14 36.176C1182.49 36.176 1182.83 35.784 1182.83 34.496V33.11H1182.77C1182.45 33.782 1181.64 34.342 1180.51 34.342ZM1179.04 31.122C1179.04 32.55 1179.62 33.054 1180.94 33.054C1182.07 33.054 1182.83 32.508 1182.83 31.332V30.898C1182.83 29.736 1182.07 29.19 1180.91 29.19C1179.61 29.19 1179.04 29.694 1179.04 31.122Z" fill="white" fill-opacity="0.7"/>
</g>
<g filter="url(#filter3_f_2420_847321)">
<circle cx="560" cy="55" r="15" fill="#E6B1FF" fill-opacity="0.27"/>
</g>
<g filter="url(#filter4_f_2420_847321)">
<line x1="532" y1="55.2823" x2="588" y2="55.2823" stroke="url(#paint0_linear_2420_847321)" stroke-width="4"/>
</g>
<line y1="55.5" x2="1264" y2="55.5" stroke="url(#paint1_linear_2420_847321)" stroke-opacity="0.6" style="mix-blend-mode:overlay"/>
<line x1="532" y1="55.5" x2="732" y2="55.5" stroke="url(#paint2_linear_2420_847321)" style="mix-blend-mode:overlay"/>
</g>
<defs>
<filter id="filter0_f_2420_847321" x="-10" y="0" width="1284" height="136" filterUnits="userSpaceOnUse" color-interpolation-filters="sRGB">
<feFlood flood-opacity="0" result="BackgroundImageFix"/>
<feBlend mode="normal" in="SourceGraphic" in2="BackgroundImageFix" result="shape"/>
<feGaussianBlur stdDeviation="20" result="effect1_foregroundBlur_2420_847321"/>
</filter>
<filter id="filter1_f_2420_847321" x="92" y="16" width="1080" height="100" filterUnits="userSpaceOnUse" color-interpolation-filters="sRGB">
<feFlood flood-opacity="0" result="BackgroundImageFix"/>
<feBlend mode="normal" in="SourceGraphic" in2="BackgroundImageFix" result="shape"/>
<feGaussianBlur stdDeviation="20" result="effect1_foregroundBlur_2420_847321"/>
</filter>
<filter id="filter2_d_2420_847321" x="-20" y="-17" width="1304" height="106" filterUnits="userSpaceOnUse" color-interpolation-filters="sRGB">
<feFlood flood-opacity="0" result="BackgroundImageFix"/>
<feColorMatrix in="SourceAlpha" type="matrix" values="0 0 0 0 0 0 0 0 0 0 0 0 0 0 0 0 0 0 127 0" result="hardAlpha"/>
<feOffset dy="10"/>
<feGaussianBlur stdDeviation="10"/>
<feColorMatrix type="matrix" values="0 0 0 0 0 0 0 0 0 0 0 0 0 0 0 0 0 0 0.29947 0"/>
<feBlend mode="normal" in2="BackgroundImageFix" result="effect1_dropShadow_2420_847321"/>
<feBlend mode="normal" in="SourceGraphic" in2="effect1_dropShadow_2420_847321" result="shape"/>
</filter>
<filter id="filter3_f_2420_847321" x="529" y="24" width="62" height="62" filterUnits="userSpaceOnUse" color-interpolation-filters="sRGB">
<feFlood flood-opacity="0" result="BackgroundImageFix"/>
<feBlend mode="normal" in="SourceGraphic" in2="BackgroundImageFix" result="shape"/>
<feGaussianBlur stdDeviation="8" result="effect1_foregroundBlur_2420_847321"/>
</filter>
<filter id="filter4_f_2420_847321" x="528" y="49.2823" width="64" height="12" filterUnits="userSpaceOnUse" color-interpolation-filters="sRGB">
<feFlood flood-opacity="0" result="BackgroundImageFix"/>
<feBlend mode="normal" in="SourceGraphic" in2="BackgroundImageFix" result="shape"/>
<feGaussianBlur stdDeviation="2" result="effect1_foregroundBlur_2420_847321"/>
</filter>
<linearGradient id="paint0_linear_2420_847321" x1="586.526" y1="57.2823" x2="534.5" y2="57.2823" gradientUnits="userSpaceOnUse">
<stop stop-color="#7744FA" stop-opacity="0"/>
<stop offset="0.324861" stop-color="#8E37E6"/>
<stop offset="0.490642" stop-color="#DCC1F9"/>
<stop offset="0.692463" stop-color="#8A38E4"/>
<stop offset="1" stop-color="#7A41FA" stop-opacity="0"/>
</linearGradient>
<linearGradient id="paint1_linear_2420_847321" x1="1257.52" y1="56" x2="1.2114e-08" y2="55.9961" gradientUnits="userSpaceOnUse">
<stop stop-color="white" stop-opacity="0"/>
<stop offset="0.553883" stop-color="white"/>
<stop offset="0.996819" stop-color="white" stop-opacity="0"/>
</linearGradient>
<linearGradient id="paint2_linear_2420_847321" x1="730.974" y1="56" x2="532" y2="55.9999" gradientUnits="userSpaceOnUse">
<stop offset="0.0608484" stop-color="white" stop-opacity="0"/>
<stop offset="0.512532" stop-color="white"/>
<stop offset="0.94354" stop-color="white" stop-opacity="0"/>
</linearGradient>
<clipPath id="clip0_2420_847321">
<rect width="1264" height="56" fill="white"/>
</clipPath>
</defs>
</svg>
